<?xml version="1.0" standalone="no"?>
<!DOCTYPE svg PUBLIC "-//W3C//DTD SVG 1.1//EN" "http://www.w3.org/Graphics/SVG/1.1/DTD/svg11.dtd" >
<svg xmlns="http://www.w3.org/2000/svg" xmlns:xlink="http://www.w3.org/1999/xlink" version="1.1">
<metadata>
Created by FontForge 20201107 at Mon Oct 26 20:10:00 2020
 By 
Copyright 2020 The Fraunces Project Authors (github.com/undercasetype/Fraunces)
</metadata>
<defs>
<font id="Fraunces72pt-SemiBoldItalic" horiz-adv-x="1479" >
  <font-face 
    font-family="Fraunces 72pt SemiBold"
    font-weight="600"
    font-style="italic"
    font-stretch="normal"
    units-per-em="2000"
    panose-1="0 0 0 0 0 0 0 0 0 0"
    ascent="1600"
    descent="-400"
    x-height="923"
    cap-height="1400"
    bbox="-253 -513.882 2810 2180.9"
    underline-thickness="50"
    underline-position="-325"
    slope="-16"
    unicode-range="U+0020-FB04"
  />
<missing-glyph horiz-adv-x="1000" 
d="M100 -490v2000h800v-2000h-800zM200 -390h600v1800h-600v-1800z" />
    <glyph glyph-name="f_f" unicode="ff" horiz-adv-x="1235" 
d="M395 794l29 77h234q21 0 33 -6.5t12 -22.5q0 -13 -10 -24t-27 -17.5t-39 -6.5h-232zM115 841q0 14 11 22.5t33 8.5h115l58 225q42 170 133.5 257t239.5 87q84 0 126 -36t42 -83q0 -50 -31.5 -81t-83.5 -31q-35 0 -63 15t-52 35t-47 35.5t-47 15.5q-37 0 -64 -27t-36 -69
q-6 -35 7.5 -77t33 -87.5t30.5 -92t-1 -90.5l-255 -943q-8 -32 -12 -55t-4 -41q0 -27 13.5 -43.5t27.5 -30t14 -32.5q0 -26 -35.5 -53t-92.5 -44.5t-121 -17.5q-66 0 -84 44t8 137l250 892q17 63 2.5 89t-76.5 33q-24 9 -31.5 18.5t-7.5 19.5zM1013 794l29 77h234
q21 0 33 -6.5t12 -22.5q0 -13 -10 -24t-27 -17.5t-39 -6.5h-232zM733 841q0 14 11 22.5t33 8.5h115l58 225q42 170 133.5 257t239.5 87q84 0 126 -36t42 -83q0 -50 -31.5 -81t-83.5 -31q-35 0 -63 15t-52 35t-47 35.5t-47 15.5q-37 0 -64 -27t-36 -69q-6 -35 7.5 -77
t33 -87.5t30.5 -92t-1 -90.5l-255 -943q-8 -32 -12 -55t-4 -41q0 -27 13.5 -43.5t27.5 -30t14 -32.5q0 -26 -35.5 -53t-92.5 -44.5t-121 -17.5q-66 0 -84 44t8 137l250 892q17 63 2.5 89t-76.5 33q-24 9 -31.5 18.5t-7.5 19.5z" />
    <glyph glyph-name="fi" unicode="fi" horiz-adv-x="1225" 
d="M395 794l29 77h234q21 0 33 -6.5t12 -22.5q0 -13 -10 -24t-27 -17.5t-39 -6.5h-232zM115 841q0 14 11 22.5t33 8.5h115l58 225q42 170 133.5 257t239.5 87q84 0 126 -36t42 -83q0 -50 -31.5 -81t-83.5 -31q-35 0 -63 15t-52 35t-47 35.5t-47 15.5q-37 0 -64 -27t-36 -69
q-6 -35 7.5 -77t33 -87.5t30.5 -92t-1 -90.5l-255 -943q-8 -32 -12 -55t-4 -41q0 -27 13.5 -43.5t27.5 -30t14 -32.5q0 -26 -35.5 -53t-92.5 -44.5t-121 -17.5q-66 0 -84 44t8 137l250 892q17 63 2.5 89t-76.5 33q-24 9 -31.5 18.5t-7.5 19.5zM985 259q-27 -81 -19.5 -111
t32.5 -30q17 0 37.5 13t50.5 47q13 13 21 16t16 0q9 -4 9 -17t-10 -34q-41 -74 -115 -119t-174 -45q-67 0 -100 27t-34.5 79t23.5 127l147 424q28 78 21.5 108.5t-31.5 30.5q-17 0 -38.5 -13t-54.5 -49q-13 -11 -21 -14t-16 0q-9 4 -8.5 16t9.5 31q47 80 123 128.5t166 48.5
q60 0 94 -27t39 -81.5t-23 -135.5zM1073 1067q-65 0 -99.5 33t-31.5 82q1 43 27 84.5t71 68.5t104 27q71 0 103 -33.5t30 -81.5q-1 -48 -27 -89t-71.5 -66t-105.5 -25z" />
    <glyph glyph-name="fl" unicode="fl" horiz-adv-x="1212" 
d="M395 794l29 77h234q21 0 33 -6.5t12 -22.5q0 -13 -10 -24t-27 -17.5t-39 -6.5h-232zM115 841q0 14 11 22.5t33 8.5h115l58 225q42 170 133.5 257t239.5 87q84 0 126 -36t42 -83q0 -50 -31.5 -81t-83.5 -31q-35 0 -63 15t-52 35t-47 35.5t-47 15.5q-37 0 -64 -27t-36 -69
q-6 -35 7.5 -77t33 -87.5t30.5 -92t-1 -90.5l-255 -943q-8 -32 -12 -55t-4 -41q0 -27 13.5 -43.5t27.5 -30t14 -32.5q0 -26 -35.5 -53t-92.5 -44.5t-121 -17.5q-66 0 -84 44t8 137l250 892q17 63 2.5 89t-76.5 33q-24 9 -31.5 18.5t-7.5 19.5zM1313 1447q85 0 125.5 -33.5
t40.5 -80.5q0 -43 -27 -70t-77 -27q-32 0 -59.5 12t-52.5 28.5t-49 28.5t-50 12q-24 0 -44 -14t-31.5 -36.5t-13.5 -48.5q0 -25 11.5 -49.5t26.5 -51t27.5 -59.5t15 -74t-12.5 -94l-187 -625q-25 -87 -18 -116.5t34 -29.5q23 0 49 15.5t56 52.5q12 12 19 15t15 0
q9 -3 10 -16t-9 -33q-25 -51 -70 -90t-104.5 -61.5t-129.5 -22.5q-68 0 -101 26.5t-36 79.5t20 130l285 955q44 144 129.5 210.5t207.5 66.5z" />
    <glyph glyph-name="f_f_i" unicode="ffi" horiz-adv-x="1843" 
d="M395 794l29 77h234q21 0 33 -6.5t12 -22.5q0 -13 -10 -24t-27 -17.5t-39 -6.5h-232zM115 841q0 14 11 22.5t33 8.5h115l58 225q42 170 133.5 257t239.5 87q84 0 126 -36t42 -83q0 -50 -31.5 -81t-83.5 -31q-35 0 -63 15t-52 35t-47 35.5t-47 15.5q-37 0 -64 -27t-36 -69
q-6 -35 7.5 -77t33 -87.5t30.5 -92t-1 -90.5l-255 -943q-8 -32 -12 -55t-4 -41q0 -27 13.5 -43.5t27.5 -30t14 -32.5q0 -26 -35.5 -53t-92.5 -44.5t-121 -17.5q-66 0 -84 44t8 137l250 892q17 63 2.5 89t-76.5 33q-24 9 -31.5 18.5t-7.5 19.5zM1013 794l29 77h234
q21 0 33 -6.5t12 -22.5q0 -13 -10 -24t-27 -17.5t-39 -6.5h-232zM733 841q0 14 11 22.5t33 8.5h115l58 225q42 170 133.5 257t239.5 87q84 0 126 -36t42 -83q0 -50 -31.5 -81t-83.5 -31q-35 0 -63 15t-52 35t-47 35.5t-47 15.5q-37 0 -64 -27t-36 -69q-6 -35 7.5 -77
t33 -87.5t30.5 -92t-1 -90.5l-255 -943q-8 -32 -12 -55t-4 -41q0 -27 13.5 -43.5t27.5 -30t14 -32.5q0 -26 -35.5 -53t-92.5 -44.5t-121 -17.5q-66 0 -84 44t8 137l250 892q17 63 2.5 89t-76.5 33q-24 9 -31.5 18.5t-7.5 19.5zM1602 259q-27 -81 -19.5 -111t32.5 -30
q17 0 37.5 13t50.5 47q13 13 21 16t16 0q9 -4 9 -17t-10 -34q-41 -74 -115 -119t-174 -45q-67 0 -100 27t-34.5 79t23.5 127l147 424q28 78 21.5 108.5t-31.5 30.5q-17 0 -38.5 -13t-54.5 -49q-13 -11 -21 -14t-16 0q-9 4 -8.5 16t9.5 31q47 80 123 128.5t166 48.5
q60 0 94 -27t39 -81.5t-23 -135.5zM1690 1067q-65 0 -99.5 33t-31.5 82q1 43 27 84.5t71 68.5t104 27q71 0 103 -33.5t30 -81.5q-1 -48 -27 -89t-71.5 -66t-105.5 -25z" />
    <glyph glyph-name="f_f_l" unicode="ffl" horiz-adv-x="1830" 
d="M395 794l29 77h234q21 0 33 -6.5t12 -22.5q0 -13 -10 -24t-27 -17.5t-39 -6.5h-232zM115 841q0 14 11 22.5t33 8.5h115l58 225q42 170 133.5 257t239.5 87q84 0 126 -36t42 -83q0 -50 -31.5 -81t-83.5 -31q-35 0 -63 15t-52 35t-47 35.5t-47 15.5q-37 0 -64 -27t-36 -69
q-6 -35 7.5 -77t33 -87.5t30.5 -92t-1 -90.5l-255 -943q-8 -32 -12 -55t-4 -41q0 -27 13.5 -43.5t27.5 -30t14 -32.5q0 -26 -35.5 -53t-92.5 -44.5t-121 -17.5q-66 0 -84 44t8 137l250 892q17 63 2.5 89t-76.5 33q-24 9 -31.5 18.5t-7.5 19.5zM1013 794l29 77h234
q21 0 33 -6.5t12 -22.5q0 -13 -10 -24t-27 -17.5t-39 -6.5h-232zM733 841q0 14 11 22.5t33 8.5h115l58 225q42 170 133.5 257t239.5 87q84 0 126 -36t42 -83q0 -50 -31.5 -81t-83.5 -31q-35 0 -63 15t-52 35t-47 35.5t-47 15.5q-37 0 -64 -27t-36 -69q-6 -35 7.5 -77
t33 -87.5t30.5 -92t-1 -90.5l-255 -943q-8 -32 -12 -55t-4 -41q0 -27 13.5 -43.5t27.5 -30t14 -32.5q0 -26 -35.5 -53t-92.5 -44.5t-121 -17.5q-66 0 -84 44t8 137l250 892q17 63 2.5 89t-76.5 33q-24 9 -31.5 18.5t-7.5 19.5zM1930 1447q85 0 125.5 -33.5t40.5 -80.5
q0 -43 -27 -70t-77 -27q-32 0 -59.5 12t-52.5 28.5t-49 28.5t-50 12q-24 0 -44 -14t-31.5 -36.5t-13.5 -48.5q0 -25 11.5 -49.5t26.5 -51t27.5 -59.5t15 -74t-12.5 -94l-187 -625q-25 -87 -18 -116.5t34 -29.5q23 0 49 15.5t56 52.5q12 12 19 15t15 0q9 -3 10 -16t-9 -33
q-25 -51 -70 -90t-104.5 -61.5t-129.5 -22.5q-68 0 -101 26.5t-36 79.5t20 130l285 955q44 144 129.5 210.5t207.5 66.5z" />
    <glyph glyph-name=".notdef" horiz-adv-x="1000" 
d="M100 -490v2000h800v-2000h-800zM200 -390h600v1800h-600v-1800z" />
    <glyph glyph-name=".null" horiz-adv-x="0" 
 />
    <glyph glyph-name="nonmarkingreturn" horiz-adv-x="666" 
 />
    <glyph glyph-name="space" unicode=" " horiz-adv-x="358" 
 />
    <glyph glyph-name="exclam" unicode="!" horiz-adv-x="649" 
d="M591 1487q76 0 107 -33t22 -87q-2 -24 -14.5 -58.5t-30.5 -70.5l-323 -767q-9 -18 -20 -26.5t-26 -8.5t-21.5 8.5t-4.5 26.5l104 773q2 26 4.5 51t7.5 46q17 70 65 108t130 38zM189 -15q-65 0 -100.5 35t-31.5 88q2 45 28.5 82.5t72.5 60.5t106 23q67 0 100 -36.5
t30 -90.5q-2 -42 -27.5 -79t-70.5 -60t-107 -23z" />
    <glyph glyph-name="quotedbl" unicode="&#x22;" horiz-adv-x="686" 
d="M274 875q-13 0 -21 10.5t-6 31.5l53 468q8 90 52 138.5t117 48.5q75 0 91.5 -49t-25.5 -137l-208 -470q-10 -22 -23.5 -31.5t-29.5 -9.5zM620 876q-13 0 -21 10.5t-6 31.5l53 468q8 90 52 138.5t117 48.5q75 0 91.5 -49t-25.5 -137l-208 -470q-10 -22 -23.5 -31.5
t-29.5 -9.5z" />
    <glyph glyph-name="numbersign" unicode="#" horiz-adv-x="1237" 
d="M540 691q-17 -30 -45 -82t-62 -116.5t-70.5 -134t-70.5 -134t-62 -116.5t-45 -82q-23 -38 -56 -30q-32 9 -10 47q17 28 45.5 79t65 115t75.5 133t75.5 134t66.5 118t47 83q19 32 46.5 85.5t60.5 118.5t68 134.5t67.5 134.5t59 116.5t42.5 79.5q23 39 56 30q32 -9 9 -48
q-18 -32 -46.5 -84t-63.5 -116.5t-72 -133t-71.5 -133t-63 -116t-46.5 -82.5zM779 884q-30 0 -81.5 -1t-112.5 -2t-122 -2.5t-112.5 -1.5h-82.5q-43 -1 -33 33t52 34q29 0 79 -1t110 -3.5t121 -4t112.5 -3t83.5 -1.5t82.5 1t110 2.5t118 3t107.5 2.5t77 2q43 0 34 -33
q-11 -34 -55 -35q-30 0 -79 1t-107 2.5t-116 3.5t-106.5 2.5t-79.5 0.5zM891 691q-16 -30 -44 -81.5t-62.5 -117t-71 -134t-70.5 -133.5t-61.5 -117.5t-44.5 -81.5q-24 -38 -57 -30q-32 9 -10 47q16 28 45 78.5t65.5 115t75.5 133.5t75.5 134t66.5 118t48 83q18 32 46 85.5
t61 119t67.5 135t67 133.5t59 115.5t42.5 80.5q24 39 57 30q32 -10 7 -49q-17 -31 -45.5 -83.5t-63.5 -116.5t-72 -132.5t-72 -133t-63 -116.5t-46 -82zM600 480q-31 0 -82.5 -1t-112.5 -2.5t-122 -2.5t-112.5 -1.5t-81.5 -0.5q-43 0 -33 34q9 34 53 34q28 0 78 -1.5
t110 -3.5t121 -4t112.5 -3.5t83.5 -0.5q32 0 82.5 0.5t110 2t118 3.5t107.5 3t77 1q43 0 35 -33q-12 -34 -56 -35q-30 0 -79.5 1t-107.5 3t-115.5 3.5t-106.5 2.5t-79 1z" />
    <glyph glyph-name="dollar" unicode="$" horiz-adv-x="1104" 
d="M443 5q-142 0 -234 35.5t-135.5 98t-40.5 143.5q3 74 41 117.5t93 43.5q47 0 70 -32t17 -90l-6 -94q-5 -57 15.5 -98t67.5 -62.5t120 -21.5q112 0 193.5 48.5t101.5 140.5q15 62 0 118t-67 110.5t-149 111.5q-122 72 -187.5 146t-82.5 154.5t4 170.5q15 75 59.5 138
t115 110t162.5 73t202 26q135 0 222.5 -37.5t129.5 -100t40 -138.5q-1 -65 -38.5 -106t-92.5 -41q-48 1 -73.5 31.5t-19.5 88.5l7 83q6 92 -37 137t-144 45q-73 0 -136.5 -23t-107 -68t-58.5 -109q-14 -63 1.5 -118t68.5 -109.5t153 -119.5q121 -79 187 -155t85.5 -152.5
t1.5 -155.5q-15 -77 -64 -139.5t-123.5 -107t-167 -68.5t-194.5 -24zM661 732h-40q44 155 74 276.5t50.5 215.5t36 165t29.5 122q7 25 23 38t36 13q19 0 27.5 -13t0.5 -39q-12 -46 -34 -114.5t-52.5 -163.5t-68.5 -219t-82 -281zM588 681h40q-44 -155 -74.5 -278.5t-51 -218
t-35.5 -163.5t-27 -115q-8 -25 -23.5 -38.5t-35.5 -13.5q-19 0 -28 13t-1 39q14 52 36 122.5t52 164t67.5 214.5t80.5 274z" />
    <glyph glyph-name="percent" unicode="%" horiz-adv-x="1388" 
d="M632 1425q142 0 206 -97.5t18 -268.5q-32 -118 -98 -200.5t-151.5 -124.5t-177.5 -42q-157 0 -218 97.5t-12 281.5q29 106 91 186t150 124t192 44zM652 1050q49 183 33.5 257t-72.5 74q-62 0 -116 -74.5t-95 -227.5q-50 -191 -34.5 -267t76.5 -76q34 0 70 28t71 96.5
t67 189.5zM836 754q-12 -12 -21 -15t-18 3q-8 5 -7 13t12 22l62.5 75t98 116.5t114 134.5t110.5 130t88 103t46 53q21 23 42 29t40 -7q18 -12 16 -31.5t-22 -41.5q-9 -10 -47 -50t-94.5 -98.5t-119.5 -124.5t-123 -128.5t-107 -111t-70 -71.5zM684 648q13 13 22.5 16.5
t18.5 -2.5q8 -5 7 -14t-13 -22q-19 -24 -61.5 -75t-98 -117t-114.5 -135.5t-111.5 -131t-89.5 -104t-47 -54.5q-20 -22 -42 -27.5t-41 6.5q-18 12 -15.5 31.5t23.5 41.5q10 12 49 53t95.5 100t119.5 125t123 128.5t107 110.5t68 70zM1104 709q142 0 206 -97.5t18 -268.5
q-32 -118 -98 -200.5t-151.5 -124.5t-177.5 -42q-157 0 -218 97.5t-12 281.5q29 106 91 186t150 124t192 44zM1124 334q49 183 33.5 257t-72.5 74q-62 0 -116 -74.5t-95 -227.5q-50 -191 -34.5 -267t76.5 -76q34 0 70 28t71 96.5t67 189.5z" />
    <glyph glyph-name="ampersand" unicode="&#x26;" horiz-adv-x="1332" 
d="M182 179l980 791q53 44 84.5 81.5t45.5 74.5t13 79q-1 44 -18 75t-33.5 59t-17.5 62q-1 44 29.5 76.5t84.5 33.5q56 1 93.5 -43t38.5 -117q0 -63 -25.5 -124t-82.5 -125t-154 -142l-970 -784q-60 -47 -96.5 -92t-52.5 -89t-16 -89q0 -46 18 -77t35.5 -57t18.5 -60
q1 -42 -30.5 -73.5t-82.5 -32.5q-56 -1 -92 41.5t-37 124.5q-1 95 62.5 195t204.5 212zM1009 306q3 41 -8.5 72.5t-23 62t-8.5 69.5q2 30 20 58.5t50 47.5t76 19q55 0 88.5 -34.5t30.5 -102.5q-5 -107 -53 -201t-131.5 -165.5t-196 -112.5t-246.5 -41q-169 0 -281 73
t-156.5 201.5t-10.5 295.5q26 127 90 230.5t155 178t200 115t226 40.5q108 0 183.5 -35t113.5 -92.5t34 -125.5q-2 -32 -15 -52.5t-39 -22.5q-61 -2 -119 -26.5t-131 -80.5q10 25 21 68t17 112q7 101 -21 153t-88 52q-67 0 -130.5 -53.5t-114 -161t-81.5 -268.5
q-33 -176 -8.5 -295t91.5 -178.5t159 -59.5q62 0 116.5 20t96.5 55t66.5 82.5t27.5 102.5z" />
    <glyph glyph-name="quotesingle" unicode="'" horiz-adv-x="340" 
d="M274 876q-13 0 -21 10.5t-6 31.5l53 468q8 90 52 138.5t117 48.5q75 0 91.5 -49t-25.5 -137l-208 -470q-10 -22 -23.5 -31.5t-29.5 -9.5z" />
    <glyph glyph-name="parenleft" unicode="(" horiz-adv-x="684" 
d="M207 640q40 147 107 276t154.5 236t189 186.5t210.5 126.5q30 11 47.5 12t19.5 -9q2 -8 -8 -19t-35 -32q-108 -86 -198.5 -205t-159.5 -263.5t-114 -308.5q-47 -173 -54.5 -328.5t20.5 -280.5t85 -207q13 -20 16.5 -31.5t-2.5 -19.5q-17 -20 -67 3q-77 44 -135.5 126
t-90.5 195t-30 250t45 293z" />
    <glyph glyph-name="parenright" unicode=")" horiz-adv-x="679" 
d="M569 598q-40 -147 -107 -276t-154.5 -236t-189 -186.5t-210.5 -126.5q-30 -11 -47.5 -12t-19.5 9q-2 8 8 19t35 32q108 86 198.5 205t159.5 263.5t114 308.5q47 173 54.5 328.5t-20.5 280.5t-85 207q-13 20 -16.5 31.5t2.5 19.5q17 20 67 -3q77 -44 135.5 -126t90.5 -195
t30 -250t-45 -293z" />
    <glyph glyph-name="asterisk" unicode="*" horiz-adv-x="1170" 
d="M720 1015h-25q22 89 21.5 152.5t-10 111t-15 86.5t4.5 77q14 54 51.5 81.5t97.5 27.5q56 0 79.5 -27.5t9.5 -81.5q-10 -38 -36.5 -77t-59.5 -86.5t-65 -111t-53 -152.5zM707 1026q86 27 148 62t109 70t86.5 62t79.5 39q55 17 85 -3t33 -76q4 -53 -23 -90.5t-82 -54.5
q-40 -12 -81 -8.5t-90.5 9t-113.5 1t-150 -32.5zM714 1026l-14 -22q-72 28 -135 32.5t-115.5 -1t-95.5 -9t-77 8.5q-46 17 -53.5 54t26.5 92q31 54 73 74.5t88 3.5q34 -12 59 -39t54 -61.5t73.5 -69.5t116.5 -63zM699 1022l15 -13q-66 -72 -104 -133.5t-61.5 -112t-44 -91.5
t-51.5 -72q-87 -88 -166 -19q-36 33 -34.5 73.5t44.5 84.5q32 31 73.5 53t92.5 48t110.5 68t125.5 114zM695 1008l23 13q33 -71 72 -113t77 -68t68.5 -48t44.5 -53q19 -44 0.5 -83.5t-76.5 -74.5q-53 -33 -93.5 -28.5t-60.5 47.5q-15 31 -14 72t4 91.5t-5 111.5t-40 133z
" />
    <glyph glyph-name="plus" unicode="+" horiz-adv-x="1021" 
d="M467 291q-18 1 -25 11t-4 23l191 727q4 13 17 22t30 8q19 0 26 -10t3 -23l-191 -727q-3 -13 -16.5 -22t-30.5 -9zM167 686q5 16 18.5 25t28.5 9h733q14 0 22 -9t3 -25t-20 -25t-30 -9h-725q-17 0 -25.5 9t-4.5 25z" />
    <glyph glyph-name="comma" unicode="," horiz-adv-x="489" 
d="M136 3q-52 3 -77.5 33.5t-21.5 77.5q2 41 28 78.5t69.5 62t98.5 24.5q70 0 104.5 -45.5t26.5 -124.5q-10 -114 -62 -205.5t-130 -155t-165 -94.5q-28 -9 -43.5 -6.5t-19.5 12.5q-4 12 3.5 22t31.5 18q81 30 138 76.5t88.5 96t36.5 87.5q2 21 -8 29t-39 10z" />
    <glyph glyph-name="hyphen" unicode="-" horiz-adv-x="657" 
d="M592 590q34 0 18 -30l-38 -96q-7 -15 -16.5 -20.5t-24.5 -5.5h-443q-17 0 -21.5 8t2.5 24l38 95q8 15 16.5 20t23.5 5h445z" />
    <glyph glyph-name="period" unicode="." horiz-adv-x="479" 
d="M157 -18q-65 0 -100 35t-32 88q2 45 28.5 82.5t72.5 60.5t106 23q67 0 100 -36.5t30 -90.5q-2 -42 -27.5 -79t-70.5 -60t-107 -23z" />
    <glyph glyph-name="slash" unicode="/" horiz-adv-x="857" 
d="M488 607q-33 -60 -78 -146.5t-96 -185.5t-102.5 -198.5t-98 -189.5t-81.5 -156q-16 -26 -35 -36t-40 -2t-24 25.5t13 43.5q33 61 81 147.5t104 185t111.5 197.5t104.5 186.5t82 149.5q34 64 80 153t97.5 190.5t103 202.5t97 189.5t78.5 150.5q15 25 34.5 35.5t40.5 1.5
q19 -7 21 -25t-12 -44q-36 -67 -85 -156.5t-104 -189t-109.5 -198t-102 -184.5t-80.5 -147z" />
    <glyph glyph-name="zero" unicode="0" horiz-adv-x="1306" 
d="M925 1423q130 0 219 -53t136 -151t49.5 -231t-40.5 -292q-47 -173 -125.5 -307t-181 -225.5t-220 -138.5t-242.5 -47q-132 0 -222 54t-136.5 152.5t-48.5 233t42 296.5q58 218 172.5 377t268.5 245.5t329 86.5zM988 692q64 245 74 393t-30 214t-129 66q-86 0 -168 -75.5
t-152.5 -217t-123.5 -339.5q-50 -193 -68.5 -327t-7 -215.5t50.5 -118t103 -36.5q80 0 162 71.5t156.5 217t132.5 367.5z" />
    <glyph glyph-name="one" unicode="1" horiz-adv-x="854" 
d="M349 1270l135 -2q25 0 32.5 -12.5t-2.5 -45.5l-295 -1080q-7 -25 -22 -38.5t-36 -15.5l-153 -17q-16 -3 -25.5 -11t-9.5 -20q-1 -13 7 -20.5t27 -7.5h643q19 0 31 8t12 24q1 10 -5.5 16.5t-20.5 9.5l-131 16q-28 3 -33 16.5t2 34.5l343 1269q6 20 -1.5 29.5t-26.5 9.5
q-10 0 -21 -5t-27 -16q-30 -25 -63.5 -41t-79 -23t-112.5 -8l-147 -2q-22 0 -35 -9.5t-17 -24.5t3.5 -24.5t27.5 -9.5z" />
    <glyph glyph-name="two" unicode="2" horiz-adv-x="1170" 
d="M191 282l-10 35l221 122q149 81 255.5 169t175 192.5t103.5 233.5q32 119 27.5 194t-38.5 110.5t-91 35.5q-63 0 -112 -26t-82.5 -72t-50.5 -106l-30 -112q-20 -72 -69.5 -113t-109.5 -41q-61 0 -87 38t-6 109q26 95 105.5 180.5t206.5 139.5t293 54q147 0 234.5 -50
t115 -139.5t-4.5 -206.5q-21 -75 -69 -144t-129.5 -138t-201.5 -141.5t-286 -153.5zM2 117q29 107 126.5 174.5t245.5 67.5q66 0 127 -18t118.5 -41.5t112 -41.5t106.5 -18q70 0 118 31.5t93 109.5q8 13 18.5 18.5t19.5 4.5q15 -2 19 -12t-6 -31q-53 -143 -114.5 -227
t-132.5 -120t-152 -36q-70 0 -118 22.5t-80 77t-54 149.5q-22 44 -39 61.5t-42 17.5q-27 0 -50 -28.5t-46 -98.5q-26 -77 -56 -121t-65 -61.5t-77 -17.5q-49 0 -69.5 37.5t-2.5 100.5z" />
    <glyph glyph-name="three" unicode="3" horiz-adv-x="1083" 
d="M539 742l-8 19q12 2 27.5 4t33 3.5t32.5 1.5q153 4 251 -41.5t132.5 -134.5t-2.5 -217q-35 -121 -122.5 -211t-213.5 -140t-278 -50q-141 0 -226.5 41t-119.5 108.5t-19 146.5q12 74 57 115.5t100 41.5q65 0 91 -43t8 -105l-23 -79q-23 -86 14.5 -131.5t131.5 -45.5
q65 0 124.5 35.5t108 107.5t78.5 181q49 182 0.5 269t-175.5 87h-55q-18 0 -26 7.5t-4 22.5q4 12 15 23t30 25l530 441l-16 -55h-551q-27 0 -43.5 -8.5t-28.5 -29.5l-57 -101q-8 -14 -19.5 -22t-26.5 -8q-15 1 -21.5 10.5t1.5 29.5l123 311q10 23 28.5 36t45.5 13h770
q20 0 29 -9.5t4 -24.5q-3 -13 -17.5 -26.5t-40.5 -31.5z" />
    <glyph glyph-name="four" unicode="4" horiz-adv-x="1131" 
d="M674 709q4 16 13.5 27t21.5 21l249 205q17 12 26.5 16t18.5 4q10 0 14 -6.5t0 -20.5l-224 -831q-7 -21 1.5 -33t30.5 -16l91 -15q15 -4 22 -11.5t3 -19.5q-4 -13 -15.5 -21t-32.5 -8h-557q-20 0 -27.5 7.5t-3.5 21.5q3 12 14 19.5t28 10.5l108 16q22 3 36.5 16.5
t21.5 37.5zM581 906q42 33 69 62.5t36 65.5q8 27 5.5 54.5t-8 56.5t-7.5 59t6 63q21 73 78.5 118t140.5 45q67 0 99.5 -35.5t20.5 -97.5q-6 -42 -30.5 -85t-71 -91t-119.5 -108l-739 -643l-3 28h975q17 0 25.5 -6.5t5.5 -21.5q-5 -15 -16.5 -23.5t-31.5 -8.5h-991
q-20 0 -27.5 10t-2.5 24q3 10 12 21.5t29 23.5z" />
    <glyph glyph-name="five" unicode="5" horiz-adv-x="1108" 
d="M53 276q7 47 30 81.5t56 53.5t70 19q64 0 90 -41t7 -108l-22 -76q-24 -86 14 -133t133 -47q63 0 123.5 36.5t111 115t84.5 204.5q53 191 8.5 287.5t-156.5 96.5q-47 0 -98.5 -19.5t-105 -56t-106.5 -90.5q-21 -13 -34 -20t-27 -7t-21 9t-2 27l209 766q7 23 23.5 36.5
t43.5 13.5q13 0 25.5 -3t25.5 -9q54 -28 112 -51t121.5 -37t130.5 -14q116 0 199.5 26t133.5 82q12 8 21.5 12t18.5 0q6 -3 7.5 -11t-7.5 -26q-68 -169 -187 -245t-293 -76q-125 0 -227 33t-169 83l56 51l-171 -615l-21 9q71 68 140 112t143 65.5t160 21.5q135 0 222 -53
t117 -149t-7 -226q-38 -131 -128.5 -227t-217.5 -148.5t-277 -52.5q-136 0 -221 42t-119 110.5t-19 147.5z" />
    <glyph glyph-name="six" unicode="6" horiz-adv-x="1187" 
d="M941 1425q122 0 202 -40t114.5 -103.5t21.5 -136.5q-12 -72 -58 -112.5t-105 -40.5q-68 0 -94.5 40.5t-5.5 109.5l19 67q21 75 -8.5 117.5t-113.5 42.5q-80 0 -163.5 -72t-164.5 -231t-154 -422q-48 -174 -62.5 -292t0 -188t52.5 -101t95 -31q71 0 131 41.5t108 124
t80 204.5q34 130 26 213t-51 123t-113 40q-47 0 -96 -19.5t-93.5 -54.5t-79.5 -84.5t-55 -110.5l-32 17q24 74 69 133.5t107 102t136.5 65.5t155.5 23q121 0 204 -53t112 -153t-11 -240q-37 -131 -126 -227t-213.5 -148.5t-267.5 -52.5q-170 0 -270 88t-122 249.5t41 382.5
q69 240 189 402t274 244.5t322 82.5z" />
    <glyph glyph-name="seven" unicode="7" horiz-adv-x="993" 
d="M1030 1185l5 -26h-626q-28 0 -41.5 -9t-25.5 -27l-65 -107q-9 -14 -20.5 -22.5t-27.5 -7.5q-17 1 -22.5 10.5t3.5 28.5l138 327q10 22 26.5 35t41.5 13h792q28 0 38.5 -11t4.5 -28q-3 -14 -15.5 -30.5t-40.5 -39.5l-426 -514q-67 -65 -112 -118.5t-72.5 -101t-41.5 -96.5
q-14 -48 -12 -89t9.5 -78.5t11 -76t-8.5 -82.5q-19 -66 -77.5 -113t-141.5 -47q-88 0 -120.5 54.5t-3.5 158.5q18 63 59.5 126.5t101.5 131.5t135 142.5t160 160.5z" />
    <glyph glyph-name="eight" unicode="8" horiz-adv-x="1117" 
d="M414 -24q-146 0 -234 45t-117.5 123.5t-1.5 177.5q21 71 82.5 136t159.5 114t227 68l1 -18q-57 -30 -104 -76.5t-80.5 -101t-50.5 -110.5q-33 -106 -23 -174.5t55 -101.5t118 -33q99 0 173.5 61.5t103.5 155.5q22 71 10.5 128t-60 104.5t-137.5 89.5q-127 69 -201 136
t-95.5 146.5t6.5 185.5q21 80 77 151t139 125.5t187.5 85.5t222.5 31q139 0 229.5 -48.5t123 -135.5t-2.5 -202q-21 -69 -71 -130.5t-119 -111t-150.5 -83.5t-166.5 -49l-10 20q94 58 170.5 145t111.5 194q54 162 10.5 255.5t-166.5 93.5q-70 0 -133 -31.5t-109.5 -86
t-67.5 -124.5q-26 -89 -11.5 -157.5t71.5 -124.5t157 -109q176 -96 238 -194.5t26 -222.5q-28 -103 -110 -181t-204.5 -122t-273.5 -44z" />
    <glyph glyph-name="nine" unicode="9" horiz-adv-x="1182" 
d="M400 -24q-122 0 -203.5 40t-117 104t-22.5 137q12 72 57.5 112t104.5 40q68 0 93.5 -39.5t6.5 -109.5l-19 -67q-21 -75 11 -117.5t116 -42.5q81 0 163.5 71.5t162.5 231.5t152 422q65 230 70.5 363.5t-35.5 190.5t-118 57q-70 0 -130.5 -41.5t-109 -124t-80.5 -205.5
q-34 -130 -25.5 -213.5t51.5 -123.5t111 -40q63 0 127.5 33.5t117.5 93.5t79 141l31 -17q-23 -73 -68 -133t-107 -102t-136 -65t-156 -23q-121 0 -204 52.5t-113 151t9 234.5q38 133 129 231.5t217 152.5t267 54q169 0 268.5 -87t122 -249t-43.5 -386q-69 -238 -188 -400
t-271 -244.5t-320 -82.5z" />
    <glyph glyph-name="colon" unicode=":" horiz-adv-x="593" 
d="M166 -18q-65 0 -100 35t-32 88q2 45 28.5 82.5t72.5 60.5t106 23q67 0 100 -36.5t30 -90.5q-2 -42 -27.5 -79t-70.5 -60t-107 -23zM317 576q-65 0 -100 35t-32 88q2 45 28.5 82.5t72.5 60.5t106 23q67 0 100 -36.5t30 -90.5q-2 -42 -27.5 -79t-70.5 -60t-107 -23z" />
    <glyph glyph-name="semicolon" unicode=";" horiz-adv-x="602" 
d="M142 3q-52 3 -77.5 33.5t-21.5 77.5q2 41 28 78.5t69.5 62t98.5 24.5q70 0 104.5 -45.5t26.5 -124.5q-10 -114 -62 -205.5t-130 -155t-165 -94.5q-28 -9 -43.5 -6.5t-19.5 12.5q-4 12 3.5 22t31.5 18q81 30 138 76.5t88.5 96t36.5 87.5q2 21 -8 29t-39 10zM320 569
q-65 0 -100 35t-32 88q2 45 28.5 82.5t72.5 60.5t106 23q67 0 100 -36.5t30 -90.5q-2 -42 -27.5 -79t-70.5 -60t-107 -23z" />
    <glyph glyph-name="less" unicode="&#x3c;" horiz-adv-x="957" 
d="M238 684l-4 -12l746 379q21 9 32.5 19t14.5 21q6 15 -0.5 26t-22.5 11q-14 0 -30 -5.5t-39 -16.5l-725 -366q-25 -10 -39.5 -24t-19.5 -31q-10 -36 25 -57l546 -368q17 -10 30.5 -16t26.5 -6q33 0 40 25q3 10 -2.5 20t-20.5 18z" />
    <glyph glyph-name="equal" unicode="=" horiz-adv-x="1026" 
d="M225 856q4 16 18 25t29 9h732q15 0 22.5 -9t2.5 -25q-4 -16 -19 -25t-31 -9h-724q-17 0 -26 9t-4 25zM137 516q4 16 18 25t29 9h732q15 0 22.5 -9t2.5 -25q-4 -16 -19 -25t-31 -9h-724q-17 0 -26 9t-4 25z" />
    <glyph glyph-name="greater" unicode="&#x3e;" horiz-adv-x="957" 
d="M851 684l4 12l-746 -379q-21 -9 -32.5 -19t-14.5 -21q-6 -15 0.5 -26t22.5 -11q14 0 30 5.5t39 16.5l725 366q25 10 39.5 24t19.5 31q10 36 -25 57l-546 368q-17 10 -30.5 16t-26.5 6q-33 0 -40 -25q-3 -10 2.5 -20t20.5 -18z" />
    <glyph glyph-name="question" unicode="?" horiz-adv-x="961" 
d="M384 637l-37 -164q-2 -22 5 -34.5t25 -12.5q17 0 30 11t27 37l45 144q10 28 26 45t52 26l64 17q192 54 307.5 154t154.5 245q29 108 -3.5 190t-122.5 127.5t-232 45.5q-134 0 -244.5 -45t-183.5 -116.5t-95 -153.5q-17 -62 8 -102.5t81 -40.5q63 0 106.5 35t64.5 106
l25 87q23 82 75.5 126.5t135.5 44.5q52 0 83.5 -29t37.5 -88t-19 -150q-43 -149 -107.5 -238.5t-172.5 -141.5l-56 -27q-39 -18 -56.5 -41t-23.5 -57zM257 -19q-65 0 -100.5 35.5t-31.5 88.5q2 44 28.5 81.5t72.5 60.5t106 23q67 0 100 -36t30 -90q-2 -43 -27.5 -80
t-70.5 -60t-107 -23z" />
    <glyph glyph-name="at" unicode="@" horiz-adv-x="1669" 
d="M669 412q-11 -91 10 -129t57 -38q34 0 71 28.5t74.5 81.5t73.5 128.5t67.5 169.5t55.5 205q11 51 1.5 79t-43.5 28q-50 0 -99.5 -32t-94 -87.5t-81.5 -126.5t-61 -150t-31 -157zM1077 138q-70 0 -103.5 32t-30.5 88q1 26 8 65t21 93t34 127l11 -27q-51 -121 -111 -205.5
t-131 -128.5t-158 -44q-99 0 -152.5 70t-39.5 214q9 117 62.5 225.5t143 194.5t204.5 136.5t247 50.5q89 0 151.5 -12t95.5 -30.5t31 -38.5q-1 -17 -12.5 -26t-24 -18t-17.5 -26l-127 -485q-24 -91 -14 -125.5t48 -34.5q42 0 93.5 24t103 73t94 121.5t67.5 168.5
q58 223 9.5 383.5t-178.5 246.5t-316 86q-161 0 -307.5 -55.5t-267 -156.5t-207 -237.5t-127.5 -297.5q-61 -236 -12.5 -414.5t188 -277.5t350.5 -99q130 0 258.5 35t248.5 102.5t225 164.5q16 12 32.5 16t24.5 -6q8 -9 1.5 -23.5t-22.5 -27.5q-98 -99 -223.5 -170.5
t-268.5 -109.5t-294 -38q-170 0 -300 58.5t-210.5 169.5t-100.5 267.5t31 352.5q45 170 139 316t227.5 254.5t295 169t339.5 60.5q153 0 273.5 -51.5t196 -150.5t95.5 -241.5t-27 -324.5q-38 -150 -125.5 -258t-202.5 -166.5t-239 -58.5z" />
    <glyph glyph-name="A" unicode="A" horiz-adv-x="1247" 
d="M225 264q-47 -77 -32 -128.5t74 -67.5l40 -8q14 -5 19.5 -12t5.5 -16q0 -15 -11 -23.5t-31 -8.5h-335q-20 0 -30 7.5t-10 20.5t9.5 23t35.5 22q42 16 90.5 67.5t99.5 135.5l523 835q104 160 220.5 235t240.5 75q33 0 46 -9t13 -23q0 -11 -6 -18.5t-19 -12.5
q-45 -7 -71 -39t-29 -94q-1 -27 -3 -91.5t-4.5 -153.5t-6 -190t-6.5 -201.5t-5.5 -188.5t-4 -151t-1.5 -88q0 -29 6 -48t24.5 -31t55.5 -23q23 -10 23 -28q0 -13 -11 -22t-31 -9h-470q-18 0 -26 8t-8 20t8.5 19.5t23.5 12.5l79 14q27 7 39 27.5t13 52.5q2 30 4.5 94
t6.5 150.5t8 184t8 196t7.5 186.5t6 155.5t2.5 101.5l41 -10q-12 -6 -27.5 -20t-37.5 -42t-55 -77zM297 449l18 57h542l-4 -57h-556z" />
    <glyph glyph-name="B" unicode="B" horiz-adv-x="1326" 
d="M731 1239q-20 -75 -45 -168.5t-53 -196.5t-55.5 -206.5t-52.5 -199.5t-44.5 -174.5t-32.5 -131.5q-9 -35 4.5 -58t50 -34.5t95.5 -11.5q144 0 233 75.5t112 219.5q22 134 -41.5 204.5t-188.5 70.5h-227l17 51h209q97 0 172 48.5t123.5 136t63.5 206.5q18 134 -38 203
t-159 69q-65 0 -96 -24t-47 -79zM377 1400h538q230 0 335 -94.5t85 -260.5q-14 -115 -86.5 -203t-192 -137.5t-275.5 -49.5l-9 10q165 0 270.5 -39t152.5 -110.5t35 -169.5q-20 -160 -170 -253t-433 -93h-600q-21 0 -29.5 7.5t-8.5 19.5t10 20.5t27 12.5l71 12
q25 6 37.5 20.5t19.5 38.5q15 47 36.5 122.5t47.5 169.5t53 195.5t53.5 200.5t49 186.5t38.5 152.5t23 97q8 35 3.5 50.5t-27.5 22.5l-73 12q-15 5 -21.5 11t-6.5 16q0 15 12 24t35 9z" />
    <glyph glyph-name="C" unicode="C" horiz-adv-x="1267" 
d="M1175 426q11 -5 14 -19.5t-13 -42.5q-59 -129 -147 -215t-198 -128.5t-237 -42.5q-162 0 -279.5 77.5t-168 227.5t-12.5 368q29 164 102.5 304.5t180.5 246t237 164t273 58.5q67 0 114 -16t77.5 -36.5t49 -36.5t29.5 -16q12 0 29 15.5t36 35.5t36 35.5t28 15.5
q15 0 23.5 -9t8.5 -27l-9 -383q-1 -18 -10.5 -27t-24.5 -9q-27 -1 -39 33l-22 75q-43 149 -113.5 212t-170.5 63q-90 0 -171.5 -49t-149 -138t-117 -210t-75.5 -265q-38 -213 -13 -341.5t98 -186t174 -57.5q71 0 142.5 29t138 94t123.5 172q16 20 29.5 27.5t26.5 1.5z" />
    <glyph glyph-name="D" unicode="D" horiz-adv-x="1466" 
d="M-4 28q0 11 9 19.5t25 12.5l68 12q17 3 29 11.5t21 25.5t18 46q13 47 33 121.5t45 165.5t51.5 189.5t52.5 196t49 184t40 153.5t26 103q7 28 -0.5 41.5t-31.5 18.5l-67 12q-17 5 -23.5 11.5t-6.5 17.5q0 14 10.5 22.5t32.5 8.5h538q138 0 249.5 -46t185.5 -135
t101.5 -218t-3.5 -295q-29 -163 -105 -293.5t-190 -222.5t-258 -141t-312 -49h-551q-20 0 -28 8t-8 20zM596 64q91 0 176 39t158 119.5t128.5 203.5t88.5 290q32 160 25.5 277.5t-42.5 193.5t-93 113.5t-127 37.5h-69q-34 0 -59.5 -23t-41.5 -75q-10 -41 -28.5 -107.5
t-41 -150.5t-47.5 -176l-50 -184t-47 -176t-39 -151.5t-26 -108.5q-13 -62 3 -92t62 -30h70z" />
    <glyph glyph-name="E" unicode="E" horiz-adv-x="1248" 
d="M502 747h304q58 0 101.5 34t57.5 125q5 12 12.5 18t17.5 6q15 0 22.5 -8.5t9.5 -23.5l39 -338q4 -24 -4 -34.5t-23 -11.5q-12 -1 -20.5 5.5t-14.5 19.5q-30 83 -74.5 117.5t-125.5 34.5h-320zM745 0h-715q-20 0 -28 8t-8 20q0 11 8.5 20t22.5 13l76 12q22 5 34.5 19.5
t22.5 42.5q8 32 26.5 99.5t43.5 159t53 195t56 207.5t53 197.5t43.5 164t27.5 106.5q7 30 0.5 44.5t-26.5 18.5l-73 13q-12 4 -19.5 10.5t-7.5 17.5q0 15 11 23.5t31 8.5h751q56 0 86 16.5t53 16.5q34 0 40 -40l14 -321q3 -21 -3.5 -32.5t-21.5 -12.5q-17 -2 -28.5 7
t-21.5 34q-31 113 -63.5 173t-74 82t-102.5 22h-241q-13 -45 -34.5 -123.5t-48.5 -178.5t-56.5 -210t-58 -218.5t-53.5 -203.5t-43 -165.5t-25 -103.5q-7 -30 -2 -49.5t27 -28t64 -8.5h166q75 0 137 29.5t120.5 98t119.5 183.5q19 33 41 33q29 0 27 -39q-5 -90 -27 -161
t-57 -121.5t-82 -76.5t-102 -26q-34 0 -63.5 12t-69.5 12z" />
    <glyph glyph-name="F" unicode="F" horiz-adv-x="1187" 
d="M333 1369q1 14 12.5 22.5t32.5 8.5h730q55 0 85.5 16.5t53.5 16.5q34 0 39 -39l15 -330q3 -21 -3.5 -32t-21.5 -13q-17 -1 -28.5 9t-21.5 33l-20 64q-24 82 -52.5 130.5t-69.5 69t-103 20.5h-215q-15 -50 -37 -130t-49 -179.5t-55.5 -207.5t-56.5 -214t-52.5 -200.5
t-43 -166.5t-27.5 -111q-8 -26 -3.5 -42.5t34.5 -21.5l106 -11q17 -2 25 -9.5t8 -18.5q0 -14 -11.5 -23.5t-36.5 -9.5h-536q-21 0 -29 7.5t-8 20.5q1 12 10 21t28 13l69 11q22 5 34.5 20t21.5 43q13 45 33.5 118.5t45.5 165t52 192t53.5 200t50 188.5t41 158.5t27.5 108.5
q6 29 -0.5 42t-27.5 18l-69 13q-15 5 -22.5 11.5t-7.5 17.5zM494 717h294q63 0 103 37t57 128q4 13 11.5 19.5t18.5 6.5q15 0 22.5 -8.5t9.5 -24.5l47 -354q4 -23 -4.5 -33.5t-23.5 -11.5q-12 -1 -20 6t-16 21q-21 54 -47 89t-63.5 52t-96.5 17h-311z" />
    <glyph glyph-name="G" unicode="G" horiz-adv-x="1399" 
d="M926 1427q81 0 135.5 -17.5t89 -40.5t54.5 -40.5t32 -17.5t30.5 16.5t39 38t38.5 37.5t29 16q17 0 26.5 -10.5t11.5 -33.5l-11 -370q1 -20 -7.5 -28.5t-22.5 -9.5q-13 -1 -23.5 6.5t-16.5 22.5l-30 89q-32 96 -77 155t-103 86.5t-129 27.5q-99 0 -187 -51.5t-161.5 -147
t-126 -226.5t-80.5 -290q-37 -214 -18 -343.5t80.5 -188t152.5 -58.5q66 0 126 24.5t103.5 71t61.5 112.5l69 259q7 25 0.5 40.5t-31.5 18.5l-96 12q-15 3 -21 10.5t-5 18.5q0 15 11 23.5t31 8.5h474q21 0 28 -7.5t7 -20.5q0 -11 -9 -19.5t-25 -13.5l-58 -14q-20 -5 -31 -18
t-18 -34l-137 -493q-9 -29 -20 -40t-30 -11q-10 0 -28.5 10t-40 24.5t-43.5 29.5t-39.5 25t-26.5 10q-12 0 -36 -15t-62 -34.5t-91.5 -35t-126.5 -15.5q-167 0 -284 78.5t-165.5 227.5t-13.5 360q28 165 102 308t181.5 250t240 167t277.5 60z" />
    <glyph glyph-name="H" unicode="H" horiz-adv-x="1549" 
d="M443 127q-6 -23 1 -37t28 -19l72 -12q15 -4 21.5 -10.5t6.5 -17.5q0 -14 -11.5 -22.5t-31.5 -8.5h-498q-21 0 -29 7.5t-8 19.5q0 13 9 21.5t23 11.5l73 12q22 5 35.5 18.5t22.5 42.5q10 37 29.5 107.5t45 163t53.5 196t55.5 207t52 196t42.5 163.5t27 107q4 24 -2.5 37
t-28.5 17l-72 13q-15 5 -21.5 11.5t-6.5 17.5q0 15 12 23t34 8h494q22 0 29 -7t7 -19q0 -13 -8.5 -21t-24.5 -13l-77 -15q-21 -4 -32 -15.5t-21 -39.5q-11 -38 -31 -111.5t-46 -168.5t-54 -201.5t-56 -211t-51.5 -196t-40 -158.5t-22.5 -96zM471 692h747l-18 -61h-747z
M1234 127q-5 -23 2 -37t28 -19l71 -12q15 -4 22 -10.5t7 -17.5q0 -14 -11.5 -22.5t-32.5 -8.5h-497q-21 0 -29.5 7.5t-8.5 19.5q0 13 9 21.5t24 11.5l72 12q23 5 36 18.5t23 42.5q10 37 29.5 107.5t44.5 163t53 196l56 207t52.5 196t42.5 163.5t26 107q5 24 -2 37t-29 17
l-71 13q-16 5 -22 11.5t-6 17.5q0 15 11.5 23t34.5 8h494q21 0 28.5 -7t7.5 -19q0 -13 -8.5 -21t-24.5 -13l-77 -15q-21 -4 -32.5 -15.5t-20.5 -39.5q-11 -38 -31.5 -111.5t-46 -168.5t-54 -201.5t-56 -211t-51 -196t-40 -158.5t-23.5 -96z" />
    <glyph glyph-name="I" unicode="I" horiz-adv-x="760" 
d="M445 127q-6 -23 1 -37t28 -19l72 -12q14 -4 21 -10.5t7 -17.5q0 -14 -11.5 -22.5t-31.5 -8.5h-498q-21 0 -29 7.5t-8 19.5q0 13 9 21.5t23 11.5l73 12q23 5 36 18.5t22 42.5q10 37 29.5 107.5t45 163t53.5 196t55.5 207t51.5 196t42 163.5t26 107q5 24 -1.5 37t-28.5 17
l-72 13q-16 5 -22 11.5t-6 17.5q0 15 12 23t34 8h495q21 0 28 -7t7 -19q0 -13 -8.5 -21t-24.5 -13l-77 -15q-21 -4 -32.5 -15.5t-20.5 -39.5q-11 -38 -31 -111.5t-46 -168.5t-54 -201.5t-55.5 -211t-51 -196t-40 -158.5t-22.5 -96z" />
    <glyph glyph-name="J" unicode="J" horiz-adv-x="743" 
d="M735 1248q-5 -17 -23.5 -86t-46 -173t-59.5 -226t-65 -246t-61.5 -233.5t-49 -188t-28.5 -108.5q-27 -121 -85 -200t-137 -116.5t-172 -37.5q-78 0 -118 33.5t-40 82.5q0 42 28 70.5t77 28.5q31 0 60.5 -13.5t57 -30.5t53.5 -30.5t51 -13.5q33 0 54 24.5t22 84.5
q0 21 -12.5 44t-30 49t-32.5 55.5t-21 64t6 75.5q7 28 25 96.5t43.5 162.5t54 200t57 211t52.5 195t40.5 151.5t20.5 79.5q10 39 3.5 54t-33.5 21l-71 12q-15 5 -22 11.5t-7 17.5q0 14 11.5 22.5t33.5 8.5h496q21 0 28.5 -7t7.5 -19q0 -13 -8.5 -21.5t-23.5 -12.5l-74 -15
q-16 -3 -26.5 -10.5t-18.5 -23t-17 -43.5z" />
    <glyph glyph-name="K" unicode="K" horiz-adv-x="1420" 
d="M436 124q-4 -20 3 -33t28 -18l70 -12q13 -4 21.5 -11t8.5 -19q0 -14 -11.5 -22.5t-31.5 -8.5h-493q-21 0 -29 7.5t-8 19.5q0 13 9 21.5t23 11.5l73 12q23 5 36 19.5t22 41.5q10 37 29.5 107.5t45 163.5t53.5 196.5t56 207.5t52.5 196.5t42.5 163.5t26 108q5 23 -2.5 35.5
t-28.5 16.5l-71 12q-15 5 -21.5 11.5t-6.5 17.5q0 15 12 23t34 8h496q17 0 25 -7t8 -20t-8.5 -20t-26.5 -13l-81 -18q-20 -4 -31.5 -14.5t-19.5 -36.5q-11 -38 -31.5 -111t-46.5 -169t-54.5 -203t-56 -212t-51.5 -197t-41 -159t-23 -96zM709 720l208 205l232 -683
q20 -57 41 -83.5t52 -26.5q20 0 36 11.5t33 35.5q16 16 31 11q9 -2 13 -12t-4 -28q-24 -55 -63.5 -94.5t-91 -60.5t-111.5 -21q-72 0 -113 37t-70 126zM457 405l-22 56l752 806q54 58 100 94t90 52.5t92 16.5q61 0 93.5 -32.5t28.5 -81.5q-3 -55 -41 -85t-100 -30
q-38 0 -66.5 9.5t-61.5 9.5q-49 0 -94 -21t-97 -77z" />
    <glyph glyph-name="L" unicode="L" horiz-adv-x="1120" 
d="M662 0h-630q-21 0 -29.5 7.5t-7.5 20.5q0 12 9 20.5t24 12.5l72 12q24 5 37 20.5t22 45.5q11 38 30.5 109t45 164t53.5 197t55.5 207t51.5 195t41.5 161t25.5 104q4 23 -3 35t-25 16l-75 14q-14 4 -21 10.5t-7 17.5q0 14 11 22.5t31 8.5h498q21 0 28.5 -7.5t7.5 -19.5
t-8.5 -20.5t-23.5 -12.5l-80 -15q-19 -4 -30.5 -17t-20.5 -41q-12 -41 -32.5 -114t-45.5 -165.5t-52 -194t-53.5 -201.5t-49 -188.5t-39 -155t-24.5 -98.5q-11 -52 7.5 -72.5t66.5 -20.5h112q72 0 130 31.5t114.5 104.5t124.5 198q11 22 21.5 31t22.5 9q15 0 22 -10.5
t6 -29.5q-6 -98 -30 -175t-61 -130.5t-83.5 -81t-99.5 -27.5q-22 0 -42.5 5.5t-42.5 11.5t-54 6z" />
    <glyph glyph-name="M" unicode="M" horiz-adv-x="1694" 
d="M879 423l-81 -55l591 956q29 47 57 61.5t62 14.5h280q20 0 27.5 -7t7.5 -20q-1 -13 -9.5 -21.5t-23.5 -12.5l-78 -14q-19 -4 -31.5 -18.5t-17.5 -39.5q-8 -41 -23.5 -113t-35 -165t-40.5 -195t-42 -203.5t-39.5 -192.5t-32 -159.5t-20.5 -104.5q-4 -24 3 -40.5t27 -20.5
l79 -14q13 -4 20 -10t6 -17q0 -15 -11 -23.5t-31 -8.5h-498q-20 0 -28 7.5t-8 21.5q1 13 10 20.5t21 11.5l75 12q22 5 36 21t20 46q16 75 33.5 157.5t36.5 171t39 180.5t39.5 186t38.5 188.5t36 187.5l26 10l-639 -1046q-20 -31 -35.5 -44t-38.5 -13q-18 0 -30.5 17
t-17.5 46q-9 70 -19.5 149t-21.5 164.5t-22.5 175t-23.5 181.5t-25 185t-26 183l29 8l-293 -990q-21 -76 -4 -115t67 -52l43 -10q25 -10 24 -28q0 -15 -11.5 -23.5t-32.5 -8.5h-335q-21 0 -29.5 8t-8.5 21q1 13 10 21t23 12l37 9q31 8 58.5 27.5t52.5 61t45 114.5l290 984
q9 31 2 47t-29 21l-76 14q-14 5 -20 11.5t-5 17.5q0 15 11.5 23t30.5 8h287q34 0 56 -15.5t29 -59.5q9 -64 18.5 -133.5t19.5 -143t20.5 -150t21.5 -155.5t23 -159t24 -161z" />
    <glyph glyph-name="N" unicode="N" horiz-adv-x="1339" 
d="M254 253l233 879l-56 -9q39 -106 81 -215t82.5 -216t78 -205t69 -182t53.5 -149q13 -27 17.5 -49t3.5 -51q0 -27 12 -41.5t37 -14.5h244q25 0 34 17.5t-1 42.5l-52 154q-10 28 -10.5 46t6.5 44l158 659q14 54 35.5 93t54 70t78.5 58q65 41 94 78.5t30 83.5q0 43 -27.5 68
t-73.5 25q-66 0 -118.5 -54.5t-82.5 -169.5l-238 -979l64 30q-30 80 -62.5 161.5t-66 165.5t-69 171t-72 179t-73 190t-73.5 203q-15 35 -33.5 49.5t-51.5 14.5h-206q-20 0 -30 -10t-9 -24t12 -29l61 -146q15 -22 18.5 -50.5t-5.5 -59.5l-216 -821q-21 -84 -63.5 -130.5
t-92.5 -59.5l-37 -9q-31 -10 -31 -33q0 -13 9.5 -20.5t29.5 -7.5h356q16 0 26 7t10 22q0 11 -7 18t-18 11l-38 8q-58 17 -75.5 63t1.5 124z" />
    <glyph glyph-name="O" unicode="O" 
d="M989 1425q132 -2 233.5 -56t165.5 -152.5t81 -233.5t-21 -300q-40 -172 -122.5 -304.5t-196 -223t-247.5 -135.5t-277 -43q-136 2 -239.5 55.5t-166 153t-75.5 239.5t33 315q39 149 117.5 275t188 218.5t243 142.5t283.5 49zM627 39q68 -2 136.5 30t134.5 107.5
t125.5 203.5t108.5 318q29 116 42.5 205.5t12.5 157.5q0 102 -28 168t-76.5 99.5t-110.5 35.5q-70 2 -141 -34t-137 -113.5t-123 -200t-99 -293.5q-32 -128 -46.5 -223.5t-14.5 -165.5q-1 -152 58.5 -222.5t157.5 -72.5z" />
    <glyph glyph-name="P" unicode="P" horiz-adv-x="1309" 
d="M1367 934q-16 -107 -69 -192t-134.5 -144.5t-186.5 -91t-228 -31.5q-96 0 -157 16t-122 47l24 54q53 -30 104.5 -43t107.5 -13q100 0 179.5 45t133.5 137t77 233q23 136 -1.5 222t-84.5 126t-143 40q-54 0 -85.5 -23t-46.5 -73q-5 -14 -21 -75.5t-40.5 -154.5
t-53.5 -202.5t-57.5 -220t-53.5 -206.5t-42.5 -163t-23.5 -88q-7 -28 -0.5 -42.5t25.5 -17.5l105 -13q15 -3 21.5 -10t6.5 -18q0 -14 -11 -23t-32 -9h-529q-21 0 -28.5 7.5t-7.5 20.5q0 12 9 20.5t24 12.5l68 11q26 4 39 18t22 41q6 20 25 87.5t45.5 165t57 210t60 225
t55 209t42 162t20.5 83.5q5 25 -2.5 37.5t-28.5 16.5l-71 13q-15 5 -21 11.5t-6 16.5q0 16 11 24t33 8h541q116 0 207 -33t151.5 -94.5t85.5 -147.5t7 -191z" />
    <glyph glyph-name="Q" unicode="Q" horiz-adv-x="1480" 
d="M683 368q3 13 10 20.5t18 4.5q12 -2 14.5 -10.5t-1.5 -22.5q-34 -145 -34.5 -243.5t28.5 -159.5t83.5 -92.5t130.5 -41.5q79 -11 126.5 -2t72 20t33.5 6q7 -3 8.5 -13.5t-6.5 -21.5l-85 -122q-10 -15 -29 -25.5t-48.5 -14.5t-74.5 0q-124 10 -199.5 92.5t-90 238.5
t43.5 387zM989 1425q132 -2 233.5 -56t165.5 -152.5t81 -233.5t-21 -300q-40 -172 -122.5 -304.5t-196 -223t-247.5 -135.5t-277 -43q-136 2 -239.5 55.5t-166 153t-75.5 239.5t33 315q39 149 117.5 275t188 218.5t243 142.5t283.5 49zM627 39q68 -2 136.5 30t134.5 107.5
t125.5 203.5t108.5 318q29 116 42.5 205.5t12.5 157.5q0 102 -28 168t-76.5 99.5t-110.5 35.5q-70 2 -141 -34t-137 -113.5t-123 -200t-99 -293.5q-32 -128 -46.5 -223.5t-14.5 -165.5q-1 -101 25.5 -166t76 -96.5t114.5 -32.5z" />
    <glyph glyph-name="R" unicode="R" horiz-adv-x="1370" 
d="M459 606l44 46q46 -26 97.5 -39t109.5 -13q106 0 185.5 45.5t131.5 131t74 206.5q22 124 -2 203.5t-82.5 118t-141.5 38.5q-63 0 -94 -22t-46 -69q-10 -35 -28.5 -104.5t-43 -160.5t-52 -193t-54.5 -204t-51 -193t-41.5 -161t-25.5 -105q-7 -26 1 -39.5t27 -18.5l72 -12
q14 -5 21.5 -12t7.5 -18q0 -14 -10.5 -22.5t-31.5 -8.5h-496q-20 0 -28 7.5t-8 19.5q0 14 9.5 22t23.5 12l70 11q24 4 37.5 18.5t21.5 40.5q10 34 29 103.5t44.5 162t53.5 196.5t56 208.5t52.5 197.5t42 162.5t25.5 103.5q6 29 1 43t-29 20l-72 12q-15 5 -21 11.5t-6 17.5
q0 14 11 22.5t31 8.5h541q158 0 268.5 -54t159.5 -153.5t23 -236.5q-21 -122 -104 -215t-217 -145.5t-308 -53.5q-97 -1 -162.5 18t-115.5 46zM721 554l256 41l109 -342q14 -47 28.5 -73t31 -37t34.5 -11q21 0 39 12t36 37q6 6 14.5 9t14.5 0q11 -3 13.5 -13.5t-4.5 -24.5
q-35 -81 -111 -129.5t-169 -48.5q-46 0 -81.5 18t-61 58.5t-44.5 108.5z" />
    <glyph glyph-name="S" unicode="S" horiz-adv-x="1135" 
d="M537 -22q-87 0 -143.5 18.5t-91 43t-53 43t-28.5 18.5q-11 0 -30 -16.5t-41 -37.5t-42 -37.5t-32 -16.5q-18 0 -26.5 10.5t-6.5 31.5l64 384q2 23 11.5 35t24.5 12t24.5 -10.5t16.5 -32.5l26 -135q20 -119 93.5 -179.5t174.5 -60.5q66 0 116.5 25t82 70t40.5 104
q16 89 -27 167.5t-169 164.5q-146 99 -204.5 196.5t-45.5 224.5q11 112 78.5 209t187.5 156.5t286 59.5q139 0 231 -45t136 -116t40 -150q-3 -58 -31 -94t-76 -36q-37 0 -59 23.5t-36 75.5l-19 88q-23 102 -74.5 148.5t-129.5 46.5t-137 -33t-94 -88t-42 -122
q-11 -98 34.5 -176t166.5 -169q114 -83 174.5 -156t80 -144.5t9.5 -149.5q-12 -106 -74.5 -184.5t-162.5 -122t-223 -43.5z" />
    <glyph glyph-name="T" unicode="T" horiz-adv-x="1163" 
d="M522 1424q54 0 125.5 -11t148.5 -27.5t148.5 -33.5t128 -28t84.5 -11q33 0 51.5 12t23.5 36q4 20 1.5 46t-0.5 56q5 45 32 73t75 28q42 0 70 -31.5t27 -89.5q-1 -91 -63 -146.5t-158 -55.5q-46 0 -114 13t-147.5 31.5t-159.5 37.5t-149 31.5t-115 12.5q-72 0 -106 -26.5
t-36 -75.5q-3 -32 5 -56.5t17 -48t8 -53.5q-1 -42 -30 -70.5t-77 -28.5q-54 1 -86 44t-27 116q4 72 42.5 130t109 92t171.5 34zM662 129q-8 -26 -0.5 -39.5t27.5 -17.5l78 -13q28 -9 26 -28q0 -16 -12 -23.5t-32 -7.5h-500q-19 0 -28 7.5t-8 19.5q0 14 9 21.5t24 12.5l77 13
q19 3 32.5 18.5t23.5 45.5q12 38 34 114t50 175.5t59.5 211.5t62.5 224.5t59 213t49.5 177.5t32.5 118l266 -54q-13 -42 -34.5 -118t-49 -174.5t-57.5 -207.5t-59.5 -216.5t-55 -202.5t-45 -166t-29.5 -104z" />
    <glyph glyph-name="U" unicode="U" horiz-adv-x="1344" 
d="M1055 426l205 696q25 92 6 142.5t-74 64.5l-39 7q-20 8 -28 15.5t-7 19.5q0 12 10.5 20.5t31.5 8.5h374q17 0 25.5 -7t8.5 -19q0 -14 -8.5 -22t-28.5 -15l-41 -9q-51 -16 -90.5 -64t-68.5 -147l-203 -695q-45 -156 -119 -254t-180.5 -144.5t-251.5 -46.5
q-132 0 -219.5 44t-131.5 120t-43 172q1 36 10.5 90.5t23.5 114.5t29 112l173 628q8 26 0.5 45.5t-27.5 24.5l-69 12q-16 8 -22.5 14.5t-5.5 18.5q0 12 10 19.5t27 7.5h504q35 0 35 -25q-1 -11 -9 -21t-27 -15l-74 -14q-23 -5 -35.5 -22t-23.5 -56l-170 -616
q-34 -123 -49 -203t-16 -134q-1 -115 58.5 -172t162.5 -57q121 0 216 83.5t151 277.5z" />
    <glyph glyph-name="V" unicode="V" horiz-adv-x="1221" 
d="M1041 1370q0 14 9.5 22t23.5 8h381q19 0 28.5 -7.5t9.5 -19.5q0 -13 -7 -22t-25 -16l-28 -9q-33 -13 -67.5 -45.5t-69.5 -79t-70 -102.5l-569 -894q-13 -20 -22.5 -39t-16.5 -42l-20 -72q-7 -23 -22 -37.5t-42 -14.5h-190q-25 0 -35.5 17t-2.5 44l24 89q7 20 7 42.5v39.5
q1 23 1.5 78t0.5 132t0.5 166.5t0.5 182v179.5t-0.5 159t-0.5 118q0 37 -8.5 55t-31.5 24l-49 13q-14 4 -20 11.5t-6 19.5q0 13 12 21.5t29 8.5h484q15 0 23 -7t8 -20t-7.5 -21.5t-23.5 -12.5l-79 -14q-29 -6 -42 -30.5t-13 -68.5q-1 -49 -2 -120t-1.5 -157.5t-1.5 -182.5
t-1.5 -197t-1.5 -201t-3 -194l-72 -42l620 982q36 56 38 99.5t-19.5 72.5t-58.5 41l-42 11q-29 12 -29 32z" />
    <glyph glyph-name="W" unicode="W" horiz-adv-x="1881" 
d="M1114 1152l36 -62l-517 -878q-16 -27 -25.5 -46.5t-18.5 -49.5l-20 -66q-8 -24 -25 -37t-49 -13h-155q-30 0 -42.5 14t-4.5 41l24 88q6 17 8 36t2 39q1 28 2 97t2 164t2.5 203t2.5 215.5t1.5 200t-0.5 154.5q0 34 -7.5 51.5t-31.5 23.5l-43 12q-16 5 -23.5 12.5
t-7.5 19.5q0 14 11 21.5t31 7.5h471q21 0 29.5 -7t8.5 -20q0 -12 -8.5 -20.5t-25.5 -13.5l-71 -13q-32 -7 -45 -27.5t-15 -65.5q-1 -40 -2.5 -106.5t-3.5 -152t-4 -183t-4 -200.5t-4.5 -204.5t-4.5 -193.5l-62 -27zM1706 1369q0 14 11 22.5t30 8.5h368q21 0 29 -7t8 -20
q0 -20 -39 -35l-25 -10q-29 -12 -62 -42.5t-65.5 -73.5t-61.5 -94l-521 -909q-11 -18 -19.5 -38t-17.5 -52l-20 -66q-7 -27 -24.5 -40t-41.5 -13h-165q-24 0 -36 16.5t-3 45.5l20 67q6 20 9 40t3 39v115t0.5 182.5t1 216t0.5 218t-1 188.5t-3 125q-2 35 -10.5 53t-33.5 25
l-37 10q-12 4 -18.5 11t-6.5 16q0 16 11.5 24t31.5 8h441q17 0 26 -6.5t9 -20.5q0 -12 -9 -20t-25 -14l-66 -14q-32 -8 -44 -29.5t-12 -68.5q0 -35 -0.5 -109.5t-0.5 -174t-0.5 -208.5t-1 -214t0 -190.5t1.5 -137.5l-58 -20l550 959q39 70 26 124t-76 73l-49 13
q-24 9 -24 27z" />
    <glyph glyph-name="X" unicode="X" horiz-adv-x="1275" 
d="M611 714l41 -50l-345 -440q-53 -66 -48.5 -105.5t54.5 -51.5l40 -8q13 -3 19.5 -9.5t6.5 -17.5q0 -14 -11.5 -23t-30.5 -9h-355q-19 0 -27.5 7.5t-8.5 19.5q1 14 10 22t31 17q22 5 51 18t60 34t62.5 49t58.5 62zM686 1248q9 -30 29.5 -94.5t48.5 -151t60 -185t64.5 -198
t62.5 -189.5t54 -160.5t38 -109.5q11 -34 24 -53t35.5 -29.5t60.5 -17.5q31 -10 31 -30q0 -13 -11 -21.5t-30 -8.5h-482q-22 0 -31 7.5t-9 20.5q0 11 8 19.5t27 13.5l57 10q32 8 35 30t-10 69q-8 26 -28 89t-48 150.5t-60.5 187.5t-65.5 201t-63.5 192t-54 159.5
t-36.5 103.5q-15 40 -35 58.5t-71 27.5q-21 6 -28.5 13.5t-7.5 18.5q0 13 11.5 21t30.5 8h489q20 0 29.5 -7t8.5 -20q0 -12 -8.5 -20.5t-25.5 -13.5l-60 -10q-29 -5 -39 -25.5t0 -55.5zM787 710l-51 37l366 501q51 66 94 107t84.5 60t88.5 19q51 0 77 -27t26 -67
q0 -51 -33.5 -82.5t-89.5 -36.5q-29 -1 -49.5 -0.5t-42.5 -2.5q-38 -6 -71 -21t-66 -45.5t-72 -83.5z" />
    <glyph glyph-name="Y" unicode="Y" horiz-adv-x="1156" 
d="M667 482l386 717q50 90 92.5 141.5t82.5 72.5t85 21q50 0 77 -26t27 -66q0 -52 -41 -88t-121 -61q-47 -14 -86 -35t-72 -55t-64 -89l-290 -526q-15 -25 -22 -44t-12 -38l-70 -279q-6 -23 1.5 -37t31.5 -19l64 -11q17 -5 23 -12t6 -16q0 -15 -12 -23.5t-34 -8.5h-495
q-20 0 -28 7.5t-8 20.5q0 23 33 33l68 11q29 5 43.5 21t22.5 43l76 284q7 26 5.5 51.5t-5.5 52.5q-3 19 -10 76.5t-16.5 136.5t-19.5 164.5t-19.5 163.5t-17 133.5t-10.5 71.5q-6 32 -25.5 47.5t-67.5 21.5q-16 4 -24 11t-8 18q0 15 11 23.5t31 8.5h259q41 0 61.5 -17.5
t26.5 -53.5q4 -20 12 -82t19 -148.5t23 -182.5t23 -185t20 -155t13 -91z" />
    <glyph glyph-name="Z" unicode="Z" horiz-adv-x="1203" 
d="M690 0h-654q-47 0 -47 37q1 16 11 32t25 33q26 28 78.5 92.5t124 153t153.5 192t168 211t166.5 209.5t149 187.5t116.5 144.5t67 81l26 -28h-340q-99 0 -189.5 -64t-184.5 -193q-17 -22 -33 -28t-30 1q-15 6 -15.5 20.5t12.5 37.5l119 266q15 27 25.5 37t28.5 10
q14 0 30 -8t38 -16t55 -8h726q25 0 36.5 -7.5t11.5 -24.5q-1 -15 -12 -30t-29 -34q-29 -39 -81.5 -106t-120 -153.5t-145 -184t-158 -198.5t-157.5 -197.5t-145 -180t-119.5 -146.5t-80.5 -96l-24 15h341q72 0 137.5 25.5t130 94.5t133.5 199q12 21 21 29t21 8
q16 0 22.5 -10.5t6.5 -29.5q-5 -91 -27 -164t-58 -125t-82 -79.5t-100 -27.5q-26 0 -47 5.5t-44.5 11.5t-56.5 6z" />
    <glyph glyph-name="bracketleft" unicode="[" horiz-adv-x="715" 
d="M682 1384l-417 -1527q-5 -19 1.5 -27.5t28.5 -8.5h185q35 0 27 -30q-4 -13 -15.5 -21t-29.5 -8h-384q-25 0 -32.5 12t-0.5 38l443 1618q8 26 22.5 38t40.5 12h383q19 0 25.5 -8.5t2.5 -21.5q-10 -29 -46 -29h-185q-21 0 -32.5 -8.5t-16.5 -28.5z" />
    <glyph glyph-name="backslash" unicode="\" horiz-adv-x="803" 
d="M412.308 614.542q9.96777 -67.9551 21.918 -165.021q11.9502 -97.0654 25.1543 -207.981t26.7031 -222.478t25.6318 -212.442q12.1318 -100.88 21.874 -175.175q5.91699 -30.0439 20.2646 -46.1045q14.3467 -16.0605 36.8857 -15.9072q22.54 0.152344 31.4961 15.5449
t3.04004 45.4365q-9.61719 68.8945 -24.3867 167.013q-14.7686 98.1172 -32.8467 210.317q-18.0791 112.2 -35.5117 224.694q-17.4336 112.494 -32.791 211.902q-15.3584 99.4082 -24.625 169.243q-9.50391 72.0645 -21.5176 171.83q-12.0127 99.7656 -24.8105 213.206
q-12.7969 113.44 -25.7705 226.412q-12.9727 112.971 -24.6914 212.091q-11.7188 99.1211 -20.9844 168.955q-5.32812 28.7529 -19.9697 45.459q-14.6416 16.7051 -37.5312 15.6133q-20.3096 0.0849609 -28.501 -16.1279q-8.19238 -16.2129 -4.15527 -45.5547
q10.332 -75.5859 24.9883 -176.873q14.6572 -101.288 31.4453 -214.076q16.7871 -112.789 33.4561 -224.463t31.1436 -209.146t24.0918 -166.367z" />
    <glyph glyph-name="bracketright" unicode="]" horiz-adv-x="715" 
d="M120 -143l417 1527q5 19 -1.5 27.5t-28.5 8.5h-185q-35 0 -27 30q4 13 15.5 21t29.5 8h384q25 0 32.5 -12t0.5 -38l-443 -1618q-8 -26 -22.5 -38t-40.5 -12h-383q-19 0 -25.5 8.5t-2.5 21.5q10 29 46 29h185q21 0 32.5 8.5t16.5 28.5z" />
    <glyph glyph-name="asciicircum" unicode="^" horiz-adv-x="774" 
d="M663 1357h-58l130 -531q9 -20 19.5 -28.5t25.5 -8.5q21 0 30 18.5t1 45.5l-106 518q-10 33 -22 43t-33 10q-13 0 -25.5 -4t-26.5 -15.5t-34 -33.5l-381 -515q-23 -26 -26 -45.5t19 -19.5q14 0 33 8t40 29z" />
    <glyph glyph-name="underscore" unicode="_" horiz-adv-x="830" 
d="M-100 -248q5 20 15 30.5t27 10.5h801q17 0 21.5 -11t0.5 -31q-5 -20 -15 -30.5t-27 -10.5h-801q-17 0 -22 11t0 31z" />
    <glyph glyph-name="grave" unicode="`" horiz-adv-x="461" 
d="M292 1252l38 -208q3 -9 2 -17.5t-10 -15.5q-8 -6 -18.5 -6t-18.5 4l-151 132q-37 29 -56.5 60.5t-11.5 74.5q6 34 37.5 65t79.5 34q50 4 74.5 -29t34.5 -94z" />
    <glyph glyph-name="a" unicode="a" horiz-adv-x="1074" 
d="M851 264q-22 -87 -16.5 -117t29.5 -30q19 0 38.5 13t49.5 46q13 13 21 16.5t16 -0.5q9 -4 9 -17t-10 -33q-41 -74 -113.5 -118.5t-159.5 -44.5q-65 0 -94 30.5t-29 87.5q0 21 4 49t12 65.5t21.5 86.5t31.5 111l16 -28q-46 -126 -111 -216t-144.5 -138t-170.5 -48
q-110 0 -168.5 74.5t-42.5 227.5q9 98 48.5 192t104.5 175.5t151 143t189 97t218 35.5q91 0 156 -13t99.5 -33t32.5 -41q-1 -18 -13.5 -27t-25.5 -18t-19 -29zM302 272q-11 -98 11 -137.5t60 -39.5q36 0 75.5 29.5t79.5 86t78 135.5t71.5 178t58.5 214q13 59 4 89t-45 30
q-54 0 -107 -34t-101 -93t-87 -134.5t-64.5 -158.5t-33.5 -165z" />
    <glyph glyph-name="b" unicode="b" horiz-adv-x="1069" 
d="M575 1142l-183 -621l-32 -1q46 133 117 222.5t156.5 135t171.5 45.5q112 0 174 -78t56 -220q-3 -128 -50.5 -245t-124.5 -207t-171.5 -142t-193.5 -52q-103 0 -167 52t-59 163l37 -27l-184 -144q-19 -17 -35 -24.5t-30 -7.5q-23 0 -29.5 22t8.5 76l235 845
q46 165 132 279t217.5 174t311.5 60q119 0 179 -36.5t60 -93.5q0 -43 -30 -73t-82 -30q-41 0 -77 22t-69 51t-66 51.5t-68 22.5q-68 0 -120.5 -54.5t-83.5 -164.5zM678 810q-46 -3 -93 -42t-89.5 -103.5t-77 -143.5t-55.5 -162.5t-24 -159.5q-2 -72 28.5 -108t76.5 -36
q42 0 86.5 35.5t86.5 95.5t76 136t55 158.5t24 161.5q3 62 -8.5 99.5t-33.5 54t-52 14.5z" />
    <glyph glyph-name="c" unicode="c" horiz-adv-x="901" 
d="M593 861q-53 0 -107.5 -47t-96.5 -132.5t-59 -201.5q-26 -180 22.5 -267t151.5 -87q48 0 94 20t85 61t67 101q14 19 23 28t21 8q13 -1 19.5 -14t-0.5 -37q-21 -67 -60 -124.5t-95.5 -100t-129 -66.5t-159.5 -24q-177 0 -261 115t-52 322q16 106 64 199t122 163.5
t168.5 110t201.5 39.5q95 0 158 -31.5t93 -83t26 -112.5q-4 -64 -42.5 -97t-85.5 -33q-44 0 -70 24t-25 63q1 32 8.5 57t7.5 59q0 38 -22.5 63t-66.5 25z" />
    <glyph glyph-name="d" unicode="d" horiz-adv-x="1081" 
d="M888 781l-123 -14q0 42 -19 67.5t-70 25.5q-54 0 -107.5 -36.5t-102 -98.5t-86.5 -140t-61.5 -162t-27.5 -163q-6 -91 18 -128t65 -37q31 0 71.5 28t83.5 80t81.5 125.5t65.5 165.5l196 675q42 145 128 211.5t212 66.5q84 0 125 -33t41 -78t-27.5 -74t-78.5 -29
q-32 0 -59 13t-51 30t-47.5 30t-49.5 13q-35 0 -60.5 -27.5t-27.5 -68.5q0 -24 11 -47.5t26.5 -49.5t27.5 -57.5t15 -72t-11 -92.5l-186 -649q-22 -78 -16.5 -108t31.5 -30q18 0 38 13t50 46q13 13 21 16.5t16 -0.5q9 -4 9 -17t-10 -33q-27 -49 -68.5 -85.5t-93.5 -57
t-110 -20.5q-67 0 -98 31t-31 87q0 27 6 63.5t19.5 89.5t36.5 130l27 -11q-55 -128 -125.5 -215t-149.5 -131t-161 -44q-76 0 -128.5 33.5t-76.5 101.5t-14 171q10 121 65.5 235t144.5 205t202 145t238 54q70 0 115 -18.5t67.5 -51t23.5 -73.5z" />
    <glyph glyph-name="e" unicode="e" horiz-adv-x="936" 
d="M184 418l36 12.5t94 32t123 42t125 43t99 34.5l-26 -29q10 29 16.5 70t7.5 96q0 64 -22 104t-62 40t-81 -31.5t-77.5 -88.5t-62.5 -136.5t-37 -176.5q-16 -149 35.5 -227.5t158.5 -78.5q57 0 109 22.5t95.5 66t74.5 106.5q12 18 21.5 24t19.5 5q13 0 20 -12t0 -36
q-29 -92 -92.5 -164.5t-159 -114.5t-223.5 -42q-117 0 -194 45.5t-110.5 131.5t-20.5 208q11 116 58.5 217.5t123.5 179t171.5 121.5t203.5 44q87 0 144 -33t86 -88t32 -121q1 -15 7.5 -25t21.5 -11q11 -1 16 -6t5 -14q1 -11 -8.5 -21t-35.5 -18q-29 -9 -90.5 -29t-139 -45
t-157 -51.5t-147 -48.5t-109 -36l-41.5 -14z" />
    <glyph glyph-name="f" unicode="f" horiz-adv-x="618" 
d="M395 794l29 77h234q21 0 33 -6.5t12 -22.5q0 -13 -10 -24t-27 -17.5t-39 -6.5h-232zM115 841q0 14 11 22.5t33 8.5h115l58 225q42 170 133.5 257t239.5 87q84 0 126 -36t42 -83q0 -50 -31.5 -81t-83.5 -31q-35 0 -63 15t-52 35t-47 35.5t-47 15.5q-37 0 -64 -27t-36 -69
q-6 -35 7.5 -77t33 -87.5t30.5 -92t-1 -90.5l-255 -943q-8 -32 -12 -55t-4 -41q0 -27 13.5 -43.5t27.5 -30t14 -32.5q0 -26 -35.5 -53t-92.5 -44.5t-121 -17.5q-66 0 -84 44t8 137l250 892q17 63 2.5 89t-76.5 33q-24 9 -31.5 18.5t-7.5 19.5z" />
    <glyph glyph-name="g" unicode="g" horiz-adv-x="1015" 
d="M802 27q-42 -176 -133 -293t-226 -175t-310 -58q-121 0 -183 39t-62 100q0 41 28.5 70t80.5 29q42 0 78 -23t69 -54t66 -54t69 -23q45 0 87 23.5t76 76t56 137.5l148 561l24 -15q-47 -129 -112.5 -215.5t-143.5 -130t-166 -43.5q-70 0 -121 30.5t-76 94t-17 161.5
q9 101 47 197.5t103 180t151.5 147t191 99t222.5 35.5q89 0 153.5 -12.5t99.5 -31.5t33 -40q-2 -19 -14 -27.5t-25.5 -17.5t-17.5 -29zM298 268q-7 -67 3 -104.5t29.5 -52.5t42.5 -15q40 0 83.5 36t86 99.5t79.5 145.5t64.5 174.5t40.5 186.5q10 59 1.5 89t-42.5 30
q-52 0 -104.5 -34t-101 -93t-87 -135t-64 -160t-31.5 -167z" />
    <glyph glyph-name="h" unicode="h" horiz-adv-x="1108" 
d="M364 363q35 100 79 175.5t91.5 126t92.5 76t79 25.5q46 0 55.5 -35.5t-20.5 -127.5l-129 -392q-25 -75 -23.5 -127t34.5 -78.5t100 -26.5q100 0 174 45t115 119q10 21 10 33.5t-9 16.5q-8 4 -16 1t-21 -16q-30 -34 -50 -47t-38 -13q-24 0 -32 29.5t20 110.5l128 390
q28 84 27.5 145.5t-35.5 95.5t-112 34q-74 0 -163 -39.5t-178 -130t-164 -246.5l14 -4l179 635q23 80 55.5 129t72.5 71.5t84 22.5q36 0 69.5 -22.5t67 -51.5t69 -51t76.5 -22q54 0 85 30t31 73q0 57 -61 93.5t-181 36.5q-185 0 -318 -59.5t-219.5 -175t-133.5 -284.5
l-222 -795q-14 -52 -14 -86.5t20.5 -51t66.5 -16.5q101 0 158 26t57 69q0 23 -8.5 40.5t-8.5 41.5q0 19 4.5 49t15 69.5t26.5 88.5z" />
    <glyph glyph-name="i" unicode="i" horiz-adv-x="607" 
d="M367 259q-27 -81 -19.5 -111t32.5 -30q17 0 37.5 13t50.5 47q13 13 21 16t16 0q9 -4 9 -17t-10 -34q-41 -74 -115 -119t-174 -45q-67 0 -100 27t-34.5 79t23.5 127l147 424q28 78 21.5 108.5t-31.5 30.5q-17 0 -38.5 -13t-54.5 -49q-13 -11 -21 -14t-16 0q-9 4 -8.5 16
t9.5 31q47 80 123 128.5t166 48.5q60 0 94 -27t39 -81.5t-23 -135.5zM455 1067q-65 0 -99.5 33t-31.5 82q1 43 27 84.5t71 68.5t104 27q71 0 103 -33.5t30 -81.5q-1 -48 -27 -89t-71.5 -66t-105.5 -25z" />
    <glyph glyph-name="j" unicode="j" horiz-adv-x="569" 
d="M509 678l-260 -879q-43 -145 -128.5 -215t-214.5 -70q-77 0 -114.5 30.5t-37.5 78.5q0 42 28.5 71.5t76.5 29.5q42 0 75 -19t62.5 -37.5t62.5 -18.5q29 0 53 17.5t34 63.5q6 30 -2.5 59.5t-23 62t-28.5 67t-18.5 72.5t7.5 81l167 564q23 80 18 109.5t-31 29.5
q-18 0 -39 -13t-55 -49q-12 -11 -20 -14t-16 0q-9 4 -9 16t10 31q32 54 76.5 93.5t98.5 61.5t113 22q91 0 121 -60.5t-6 -184.5zM438 1067q-65 0 -99.5 33t-32.5 82q2 43 28 84.5t71 68.5t104 27q71 0 103 -33.5t30 -81.5q-1 -48 -27 -89t-71.5 -66t-105.5 -25z" />
    <glyph glyph-name="k" unicode="k" horiz-adv-x="1084" 
d="M413 552q9 41 23.5 95t34 124.5t45 161t57.5 202.5q22 81 55 130.5t73 72.5t85 23q35 0 68.5 -22.5t67 -51.5t69.5 -51t77 -22q54 0 84.5 30t30.5 73q0 57 -61 93.5t-180 36.5q-183 0 -316 -58.5t-220 -172.5t-134 -282l-225 -807q-14 -49 -13 -81.5t21.5 -49t65.5 -16.5
q68 0 116 11.5t73.5 33t25.5 50.5q0 23 -8 40.5t-8 41.5q0 19 3.5 45.5t15 74t32.5 128.5q25 94 69 171.5t97.5 133t108.5 84.5t102 26q43 -2 63.5 -31.5t11.5 -81.5q-12 -73 -66 -134.5t-159.5 -108t-274.5 -76.5l2 -51q251 42 411.5 100t241 131.5t91.5 160.5
q13 93 -38.5 143.5t-150.5 52.5q-80 2 -155.5 -25.5t-142 -79.5t-118 -124.5t-80.5 -160.5zM503 395l70 -257q22 -83 61 -120.5t105 -38.5q61 -1 110.5 20.5t87 64t59.5 106.5q4 16 0.5 24t-11.5 11q-7 2 -15 -1t-18 -14q-20 -29 -39.5 -43.5t-41.5 -13.5q-26 0 -45.5 21
t-35.5 71l-73 228z" />
    <glyph glyph-name="l" unicode="l" horiz-adv-x="589" 
d="M695 1447q85 0 125.5 -33.5t40.5 -80.5q0 -43 -27 -70t-77 -27q-32 0 -59.5 12t-52.5 28.5t-49 28.5t-50 12q-24 0 -44 -14t-31.5 -36.5t-13.5 -48.5q0 -25 11.5 -49.5t26.5 -51t27.5 -59.5t15 -74t-12.5 -94l-187 -625q-25 -87 -18 -116.5t34 -29.5q23 0 49 15.5
t56 52.5q12 12 19 15t15 0q9 -3 10 -16t-9 -33q-25 -51 -70 -90t-104.5 -61.5t-129.5 -22.5q-68 0 -101 26.5t-36 79.5t20 130l285 955q44 144 129.5 210.5t207.5 66.5z" />
    <glyph glyph-name="m" unicode="m" horiz-adv-x="1656" 
d="M610 145l151 458q29 91 20 127t-51 36t-102 -42.5t-121.5 -131.5t-109.5 -227q-20 -57 -32 -97t-17 -67t-5 -45q0 -24 8.5 -41t8.5 -40q0 -44 -56.5 -70t-155.5 -26q-71 0 -84 41.5t17 128.5l166 491q26 75 19.5 105t-31.5 30q-17 0 -38.5 -13t-55.5 -49q-12 -11 -20 -14
t-16 0q-9 4 -9 16t10 31q47 81 126 129t170 48q59 0 91 -25.5t32 -75.5q0 -33 -12.5 -74t-31.5 -89t-40 -102t-38 -113l-11 18q74 174 165.5 274.5t184.5 143.5t169 43q70 0 105 -28t34 -86q0 -29 -11 -65.5t-28 -82t-37.5 -99.5t-39.5 -117l-14 18q55 127 120 214.5
t133.5 142t136 79t127.5 24.5q72 0 106 -33t35.5 -94.5t-26.5 -147.5l-126 -390q-27 -81 -19 -110.5t32 -29.5q18 0 38.5 13t49.5 47q14 13 22 16t15 -1q10 -4 9.5 -16.5t-10.5 -33.5q-40 -74 -114 -119t-174 -45q-67 0 -99.5 26.5t-35 78.5t21.5 127l127 392q31 91 21 127
t-51 36q-42 0 -101.5 -42.5t-121 -131.5t-109.5 -227q-20 -56 -31.5 -96.5t-17 -68t-5.5 -45.5q0 -24 9 -41t9 -40q0 -43 -56.5 -69.5t-155.5 -26.5q-47 0 -68.5 18t-20 55.5t19.5 93.5z" />
    <glyph glyph-name="n" unicode="n" horiz-adv-x="1139" 
d="M105 699q-9 4 -9 16.5t10 30.5q48 81 126.5 129t169.5 48q59 0 91 -25.5t32 -75.5q0 -32 -13 -74.5t-32 -92t-40 -103t-37 -107.5l-11 17q56 131 122.5 219.5t137 141.5t138 76.5t124.5 23.5q77 0 112 -33.5t35.5 -95.5t-27.5 -146l-128 -390q-27 -81 -19.5 -110.5
t31.5 -29.5q18 0 38.5 13t50.5 47q13 13 20.5 16t15.5 -1q9 -4 9 -16.5t-10 -33.5q-40 -74 -114 -119t-174 -45q-67 0 -100 26.5t-35 78.5t23 127l129 392q31 91 21.5 127t-55.5 36q-33 0 -76 -24t-90.5 -73t-92.5 -124.5t-81 -179.5q-20 -57 -32 -97t-17 -67t-5 -45
q0 -24 8.5 -41t8.5 -40q0 -43 -56.5 -69.5t-155.5 -26.5q-70 0 -84 40.5t14 122.5l167 494q27 79 21 109t-31 30q-17 0 -38.5 -13t-55.5 -49q-12 -11 -20 -14t-16 0z" />
    <glyph glyph-name="o" unicode="o" horiz-adv-x="1027" 
d="M612 926q127 -2 216 -58t128 -157.5t17 -240.5q-18 -107 -65.5 -197.5t-120.5 -157t-167.5 -102t-204.5 -34.5q-123 1 -212 55.5t-129.5 155.5t-18.5 241q18 112 66.5 203.5t122.5 157.5t167.5 101t200.5 33zM414 48q37 -3 73.5 23t71 74t64 111.5t51.5 137.5t34 151
q20 104 13.5 171.5t-33.5 102t-71 38.5q-37 3 -74.5 -22.5t-72 -73t-64.5 -111.5t-52.5 -139t-34.5 -155q-20 -105 -13 -172t35.5 -100t72.5 -36z" />
    <glyph glyph-name="p" unicode="p" horiz-adv-x="1067" 
d="M582 1024l-368 -1339q-10 -40 -6 -59.5t38 -25.5l68 -10q19 -4 26.5 -11.5t7.5 -18.5q1 -13 -10.5 -22t-31.5 -9l-449 -9q-15 0 -24 7t-9 19t7 20.5t26 16.5q34 9 52.5 18.5t28.5 24.5t17 39l373 1306q6 21 25 41t45.5 38t54.5 31.5t52.5 21t39.5 7.5q31 0 40 -21t-3 -65
zM149 668q-12 -11 -26 -13t-22 7q-10 10 -5.5 25.5t20.5 30.5q64 66 142.5 114.5t174.5 73.5t211 22q130 -4 217.5 -60t126 -158t20.5 -244q-18 -147 -92 -257.5t-185 -170.5t-239 -57q-102 2 -166 42.5t-90 108.5l50 23q23 -45 59 -69.5t83 -26.5q69 -2 132.5 44t112 142.5
t72.5 243.5q20 123 6.5 204.5t-53 123t-98.5 46.5q-113 7 -228 -40t-223 -155z" />
    <glyph glyph-name="q" unicode="q" horiz-adv-x="1033" 
d="M646 367l23 -15q-46 -118 -113 -201.5t-147 -127.5t-165 -44q-104 0 -161.5 65t-50.5 190q4 105 42 205.5t105 188t156.5 154t196.5 104.5t226 38q88 0 153 -13t100 -33t33 -42q-2 -21 -14.5 -32t-26.5 -24.5t-21 -39.5l-287 -1063q-11 -43 -6 -61.5t29 -26.5l44 -12
q12 -5 18.5 -11t6.5 -15q0 -14 -10.5 -21t-30.5 -7l-444 -13q-19 -1 -29.5 5.5t-10.5 19.5q0 12 10 21t36 14q46 8 71.5 18t39.5 29.5t25 54.5zM296 232q-3 -74 17.5 -103.5t53.5 -29.5q42 0 88 35.5t90.5 98.5t83.5 144.5t67.5 172t41.5 181.5q10 64 0 95t-43 31
q-56 0 -112 -37t-106.5 -100t-90.5 -143.5t-64 -169.5t-26 -175z" />
    <glyph glyph-name="r" unicode="r" horiz-adv-x="906" 
d="M102 699q-9 4 -9 16t10 31q32 54 78 93.5t101 61.5t114 22q58 0 86.5 -26t28.5 -74q0 -39 -14 -86t-34 -100t-40 -111t-32 -118l-14 4q35 121 83.5 215.5t105 160.5t117 100.5t118.5 34.5q73 0 109 -46.5t31 -119.5q-4 -57 -26.5 -97t-56.5 -61t-74 -21q-44 0 -66 20
t-22 52q0 22 6 43t6 42t-9 33t-28 12q-36 0 -82 -45t-95 -137t-93 -234q-22 -68 -33.5 -113t-11.5 -78q0 -26 12 -40t23.5 -25t11.5 -30q0 -23 -29.5 -46.5t-84 -38t-127.5 -14.5q-49 0 -71.5 20t-22.5 58.5t19 94.5l156 484q26 79 20 109t-31 30q-17 0 -38.5 -13t-55.5 -49
q-12 -11 -20 -14t-16 0z" />
    <glyph glyph-name="s" unicode="s" horiz-adv-x="858" 
d="M358 38q58 0 95 34.5t37 87.5q1 32 -12.5 60t-47 61.5t-94.5 79.5q-71 53 -113.5 95t-61 85t-16.5 95q2 78 51 144t139 106t215 40q101 0 168.5 -26t102 -68.5t34.5 -92.5q1 -46 -20 -72t-57 -26q-37 0 -63.5 25t-49.5 90q-24 58 -58 86t-82 28q-62 0 -100.5 -36.5
t-38.5 -96.5q-1 -34 12.5 -65.5t50.5 -69.5t107 -93q72 -54 112.5 -96t56 -82.5t13.5 -89.5q-4 -76 -55 -135t-139.5 -93t-206.5 -34q-108 0 -180.5 29.5t-108 77.5t-35.5 102q0 41 19.5 67t55.5 26q41 0 68 -28t50 -90q30 -69 67 -97t85 -28z" />
    <glyph glyph-name="t" unicode="t" horiz-adv-x="690" 
d="M227 816l-71 13q-13 5 -19 13.5t-6 18.5q0 14 12 22.5t32 8.5h88q19 0 34 7.5t30 22.5l176 162q11 11 22.5 16.5t25.5 5.5q15 0 22.5 -8t7.5 -22q0 -9 -2.5 -23t-8.5 -34l-217 -752q-25 -88 -11.5 -118.5t54.5 -30.5q37 0 73 22t76 71q10 12 17 16.5t15 3.5q10 0 14.5 -8
t0.5 -22q-13 -40 -45 -79t-80 -71.5t-108 -52t-129 -19.5q-72 0 -110 27.5t-43 84.5t20 145l147 499q12 41 8.5 58.5t-25.5 22.5zM455 822l24 68h234q28 0 28 -25q0 -20 -17 -31.5t-46 -11.5h-223z" />
    <glyph glyph-name="u" unicode="u" horiz-adv-x="1136" 
d="M1039 203q10 -4 9.5 -16.5t-10.5 -29.5q-47 -81 -126 -129.5t-170 -48.5q-59 0 -91 25.5t-32 75.5q0 32 13 74.5t32 92t40 103t37 107.5l11 -17q-55 -130 -122 -219t-137 -142t-137.5 -76.5t-124.5 -23.5q-76 0 -111.5 33.5t-35.5 95.5t28 146l128 390q27 81 19.5 110.5
t-32.5 29.5q-17 0 -37.5 -13t-50.5 -47q-13 -12 -21 -15t-16 0q-8 4 -8.5 17t10.5 33q40 74 114 119t174 45q67 0 100 -26.5t35 -78t-23 -126.5l-129 -393q-32 -91 -22 -127t55 -36q33 0 76 24t90 73t92 124.5t81 179.5q21 57 32.5 97t16.5 67t5 45q0 24 -8.5 41t-8.5 41
q0 42 56.5 68.5t155.5 26.5q71 0 84.5 -40t-14.5 -123l-167 -494q-27 -78 -20.5 -108.5t31.5 -30.5q17 0 38.5 13t54.5 49q12 11 20.5 14t15.5 0z" />
    <glyph glyph-name="v" unicode="v" horiz-adv-x="1086" 
d="M1059 741q0 -118 -34.5 -230t-96 -208t-145 -169.5t-181.5 -114t-205 -40.5q-95 0 -149.5 44.5t-53.5 132.5q0 81 36.5 148t91 123.5t112.5 105t103.5 91.5t62.5 83l1 -32q-60 0 -114.5 14.5t-103 33.5t-92 34.5t-82.5 16.5q-41 1 -63 -17.5t-24 -44.5q-4 -40 53 -62
q38 -15 56 -33t16 -47q-1 -33 -24.5 -51.5t-56.5 -18.5q-55 0 -90 45t-28 121q6 74 43.5 132t99.5 91.5t140 33.5q44 0 90 -9t87 -18.5t69 -9.5q25 0 38.5 9t24 17.5t25.5 7.5q14 0 20 -10.5t5 -33.5q-5 -46 -24.5 -105t-46 -127t-52.5 -140t-43 -143.5t-17 -136.5
q0 -67 22.5 -97.5t60.5 -30.5q46 -1 101 39t104.5 106.5t82 147t34.5 161.5q2 45 -11.5 71.5t-38.5 50.5q-33 28 -47 54.5t-13 62.5q2 36 19.5 66.5t47 49t66.5 18.5q59 0 91.5 -45.5t32.5 -136.5z" />
    <glyph glyph-name="w" unicode="w" horiz-adv-x="1584" 
d="M1071 924q50 -3 65 -58.5t-17 -165.5q-55 -192 -129.5 -329t-166 -224t-197 -127.5t-223.5 -40.5q-103 0 -158 44.5t-54 132.5q0 81 37 147.5t92 123t113.5 104.5t104.5 91t62 85l-4 -31q-59 0 -113 14t-102.5 33t-92 34.5t-82.5 16.5q-42 2 -63.5 -17t-23.5 -44
q-4 -40 53 -63q38 -15 55.5 -33t16.5 -46q-2 -33 -25.5 -52t-56.5 -19q-55 0 -89.5 45t-27.5 121q6 73 43 131t98.5 92t140.5 34q44 0 90 -9t87 -18.5t69 -9.5q26 0 40 9t25.5 18t28.5 8q18 -1 27.5 -14t7.5 -38q-4 -43 -25.5 -97t-50 -117t-56.5 -131t-46.5 -139
t-18.5 -143q0 -74 28.5 -107t81.5 -33q54 0 114 34.5t122 106t121 184t110 268.5q-46 -184 -60.5 -302t-4.5 -184.5t38 -93t67 -26.5q40 0 83 28.5t83 81t71.5 123.5t47.5 156q9 44 3.5 78.5t-20.5 60.5t-36 46q-35 28 -50 58.5t-14 70.5q2 33 19.5 63t46.5 49t66 19
q72 0 103 -74.5t15 -212.5q-14 -130 -61 -248.5t-118 -210.5t-158.5 -145t-182.5 -53q-92 0 -147.5 46.5t-74.5 136t-3 218t68 291.5q39 133 94 194.5t114 58.5z" />
    <glyph glyph-name="x" unicode="x" horiz-adv-x="1114" 
d="M452 457l44 -14q-24 -125 -58.5 -213t-79 -143.5t-96.5 -81t-111 -25.5q-76 0 -116 43.5t-39 118.5t36.5 125t90.5 50q40 0 64 -26t24 -69q0 -26 -8 -53t-8 -50q0 -17 10 -28t30 -11q29 0 67 33t78 115t72 229zM664 705l24 -439q4 -65 26.5 -100t68.5 -35q37 0 66.5 21.5
t66.5 76.5q14 17 23 22.5t19 4.5q12 -2 16.5 -11.5t-1.5 -27.5q-26 -64 -71.5 -118.5t-105.5 -87.5t-131 -33t-115.5 28t-67 83.5t-28.5 138.5l-25 428q-4 66 -24.5 95t-56.5 29q-34 0 -66.5 -22t-73.5 -82q-10 -13 -17 -18t-17 -3q-11 1 -15.5 11.5t1.5 30.5
q28 61 74.5 112.5t108.5 83t137 31.5q59 0 98.5 -26.5t60.5 -75.5t25 -117zM668 403l-38 12q25 136 63.5 232t85.5 157t99.5 89.5t106.5 28.5q75 0 114.5 -47t37.5 -119q-1 -85 -39.5 -130.5t-90.5 -45.5q-39 0 -62 23t-21 62q1 21 11 50t10 57q0 17 -11 26.5t-33 9.5
q-27 0 -56.5 -22.5t-60.5 -71t-60 -125.5t-56 -186z" />
    <glyph glyph-name="y" unicode="y" horiz-adv-x="979" 
d="M680 622q57 156 119.5 229.5t138.5 73.5q47 0 73.5 -28.5t26.5 -76.5q0 -60 -39 -103t-105 -73q-37 -15 -67.5 -33.5t-58 -47.5t-52.5 -74t-51 -112l-178 -467q-53 -148 -123 -237t-160.5 -128.5t-206.5 -39.5q-118 0 -180 41t-62 106q0 45 29 77t75 32q33 0 58 -18
t46.5 -44t42.5 -52.5t45.5 -44.5t56.5 -18q37 0 69 19.5t55.5 53.5t36.5 78t13 93q0 31 -3.5 95t-9.5 147.5t-13.5 174t-15.5 177.5t-15 158t-13 113q-4 43 -15 62t-28 19q-16 0 -32 -13t-37 -47q-8 -10 -14.5 -14t-14.5 -2t-12 12t2 28q23 57 61.5 98.5t89 64t106.5 22.5
q58 0 92.5 -36.5t40.5 -111.5q4 -37 8 -106t8.5 -156t9 -180t8 -179.5t6.5 -151.5l-26 9z" />
    <glyph glyph-name="z" unicode="z" horiz-adv-x="980" 
d="M324 242q20 17 56 46.5t88.5 72t119.5 97.5q56 50 102 87t83 63.5t67 44t55 26.5q65 23 97.5 62t32.5 95q0 39 -21 64t-63 25q-38 0 -63 -21.5t-41 -53.5t-28 -64.5t-23.5 -54.5t-27.5 -22q-19 0 -39 22t-45 54.5t-59 64.5t-81.5 54t-113.5 22q-89 0 -156.5 -43.5
t-104.5 -111.5t-37 -143q0 -60 28.5 -92.5t72.5 -32.5q29 0 48 17t19 44q0 18 -9 31.5t-33 25.5q-27 14 -41 26.5t-14 30.5q0 23 20 38t62 15q39 0 98.5 -14t126.5 -32.5t128 -33t102 -14.5l9 36q-12 -11 -46.5 -40.5t-86.5 -73t-117 -98.5q-52 -43 -98 -79.5t-87 -65.5
t-77.5 -50t-68.5 -34q-52 -19 -85 -46.5t-48.5 -60t-15.5 -65.5q0 -38 22.5 -59.5t60.5 -21.5q39 0 67 23.5t47 58.5t33.5 69.5t28 57.5t30.5 21q17 -1 33.5 -24.5t36 -57.5t48 -68t70 -57t101.5 -23q79 0 146.5 36.5t114 109.5t60.5 182q1 20 -3.5 28.5t-13.5 8.5
q-8 1 -14 -4.5t-14 -20.5q-26 -58 -75 -78.5t-120 -20.5q-55 0 -117.5 13.5t-120 27t-96.5 13.5z" />
    <glyph glyph-name="braceleft" unicode="{" horiz-adv-x="763" 
d="M367 636q-5 -21 23 -21q74 0 116.5 -20.5t58.5 -56.5t8 -83q-9 -51 -40 -100t-70 -99t-73.5 -103t-52.5 -110q-20 -66 -8.5 -116t49.5 -78t98 -28h45q17 0 24 -8t2 -23q-3 -12 -14.5 -20t-29.5 -8h-97q-117 0 -191.5 38.5t-100 106t0.5 153.5q23 77 65.5 139.5t87 116
t79 99t42.5 88.5q7 41 -7 66.5t-54 25.5q-23 0 -42 -7.5t-37.5 -15t-41.5 -7.5q-35 0 -49 22t-5 52q8 30 34.5 52t61.5 22q23 0 39 -7t31.5 -14.5t39.5 -7.5q41 0 66.5 24t36.5 63q12 45 0 89.5t-29.5 95t-25 111t12.5 134.5q23 82 82 145t149.5 98.5t204.5 35.5h97
q19 0 25.5 -8.5t2.5 -21.5q-5 -15 -16 -22t-29 -7h-45q-90 0 -156 -55.5t-91 -146.5q-15 -56 -8.5 -106.5t20.5 -99t21.5 -96t-6.5 -97.5q-19 -71 -89.5 -116t-179.5 -45q-15 0 -23.5 -6t-11.5 -17z" />
    <glyph glyph-name="bar" unicode="|" horiz-adv-x="547" 
d="M286 623q19 71 46 178t56 226t57.5 230.5t50.5 192.5q7 25 24 39.5t42 13.5q25 0 33.5 -15t1.5 -40q-16 -56 -40 -137.5t-52 -176l-56 -189t-52.5 -178.5t-41.5 -144q-16 -60 -37.5 -144t-45.5 -178.5l-48 -189t-44.5 -176.5t-36.5 -139q-8 -26 -24.5 -39.5t-41.5 -13.5
q-24 1 -33 16t-1 41q21 80 54.5 191t69.5 230t67.5 225t51.5 177z" />
    <glyph glyph-name="braceright" unicode="}" horiz-adv-x="757" 
d="M478 597q5 21 -23 21q-74 0 -116.5 20.5t-58.5 56.5t-8 83q9 51 40 100t70 99t73.5 103t52.5 110q20 66 8.5 116t-49.5 78t-98 28h-45q-17 0 -24 8t-2 23q3 12 14.5 20t29.5 8h97q117 0 191.5 -38.5t100 -106t-0.5 -153.5q-23 -77 -65.5 -139.5t-87 -116t-79 -99
t-42.5 -88.5q-7 -41 7 -66.5t54 -25.5q23 0 42 7.5t37.5 15t41.5 7.5q35 0 49 -22t5 -52q-8 -30 -34.5 -52t-61.5 -22q-23 0 -39 7t-31.5 14.5t-39.5 7.5q-41 0 -66.5 -24t-36.5 -63q-12 -45 0 -89.5t29.5 -95t25 -111t-12.5 -134.5q-23 -82 -82 -145t-149.5 -98.5
t-204.5 -35.5h-97q-19 0 -25.5 8.5t-2.5 21.5q5 15 16 22t29 7h45q90 0 156 55.5t91 146.5q15 56 8.5 106.5t-20.5 99t-21.5 96t6.5 97.5q19 71 89.5 116t179.5 45q15 0 23.5 6t11.5 17z" />
    <glyph glyph-name="asciitilde" unicode="~" horiz-adv-x="1119" 
d="M822 555q-64 0 -114 31.5t-95 72.5t-91.5 72.5t-102.5 31.5q-75 0 -133 -51.5t-90 -138.5q-7 -14 -19 -21t-26 -7q-34 0 -22 39q20 70 66 128.5t109.5 93.5t134.5 35q69 0 121 -31.5t95.5 -72t88 -72t98.5 -31.5q68 0 126 43t85 133q9 18 21.5 26t25.5 8q17 0 23 -10
t0 -31q-19 -76 -65 -131t-107.5 -86t-128.5 -31z" />
    <glyph glyph-name="nbspace" unicode="&#xa0;" horiz-adv-x="358" 
 />
    <glyph glyph-name="exclamdown" unicode="&#xa1;" horiz-adv-x="654" 
d="M110 -398q-76 0 -107 33t-22 87q2 24 14.5 58.5t30.5 70.5l323 767q9 18 20 26.5t26 8.5t21.5 -8.5t4.5 -26.5l-104 -773q-2 -26 -4.5 -51t-7.5 -46q-17 -70 -65 -108t-130 -38zM512 1104q65 0 100.5 -35t31.5 -88q-2 -45 -28.5 -82.5t-72.5 -60.5t-106 -23
q-67 0 -100 36.5t-30 90.5q2 42 27.5 79t70.5 60t107 23z" />
    <glyph glyph-name="cent" unicode="&#xa2;" horiz-adv-x="950" 
d="M949 691q-6 -52 -42 -80t-81 -28q-41 0 -67 26.5t-19 79.5l8 63q8 40 -3 69.5t-39 46t-73 16.5q-64 0 -126 -44.5t-109.5 -126.5t-70.5 -195q-39 -191 20 -286t184 -95q86 0 156.5 45.5t121.5 130.5q9 9 16.5 16t18.5 6q11 0 18 -12t-1 -31q-40 -92 -107 -160t-156 -105
t-196 -37q-127 0 -211.5 54t-118 154.5t-6.5 242.5q20 104 71.5 193.5t129 156.5t173.5 104.5t204 37.5q110 0 181.5 -34t103 -89t20.5 -119zM550 495q-21 -78 -41 -156t-37.5 -151t-33 -136t-27 -111t-18.5 -76q-5 -15 -15 -23.5t-25 -8.5q-12 0 -17.5 8t-0.5 26
q6 22 16.5 59t24.5 85t30.5 105t34 119.5t36 128.5t35.5 131q16 56 30.5 113t28.5 112.5t26 106.5t22 94.5t18.5 77t13.5 52.5q5 16 16 24.5t25 8.5q11 0 16.5 -8.5t1.5 -25.5q-6 -19 -15.5 -52t-22.5 -76.5t-27.5 -94.5t-31 -106.5t-32 -112.5t-31.5 -113z" />
    <glyph glyph-name="sterling" unicode="&#xa3;" horiz-adv-x="1187" 
d="M335 325l-41 8q64 32 101 71t48 86q10 46 -4.5 94t-41 98.5t-51.5 106.5t-36 119t5 136q22 111 100 197t204 135.5t292 49.5q136 0 219 -44.5t117 -117.5t21 -156q-7 -52 -30.5 -91.5t-59 -61t-79.5 -21.5q-62 0 -88.5 42.5t-10.5 115.5l20 116q14 86 -17.5 130
t-105.5 44q-98 0 -166.5 -71t-108.5 -217q-18 -66 -22.5 -133.5t-4.5 -134t-4.5 -132t-22.5 -128.5q-21 -71 -78 -137t-155 -104zM-34 99q14 74 66.5 132.5t132.5 93t177 34.5q71 0 131 -18t115.5 -41.5t110.5 -41.5t115 -18q79 0 131 34t100 115q9 13 18.5 19t20.5 4
t15.5 -10t0.5 -22q-36 -105 -80 -181.5t-96 -125.5t-111.5 -73t-125.5 -24q-71 0 -119 23.5t-81 78.5t-58 151q-25 44 -44 60.5t-45 16.5q-30 0 -53.5 -28.5t-46.5 -98.5q-28 -78 -58 -122.5t-64 -62.5t-74 -18q-48 0 -68.5 34t-9.5 89zM166 651q3 10 13 16t21 7l264 5
l22 -47h-301q-11 0 -16.5 5t-2.5 14zM524 632l6 42h401q11 0 16 -6t2 -15q-6 -21 -31 -21h-394z" />
    <glyph glyph-name="currency" unicode="&#xa4;" horiz-adv-x="1111" 
d="M537 364q94 0 180.5 40.5t150.5 113.5t90 171q27 100 2.5 173.5t-88.5 114.5t-158 41q-92 0 -178 -40t-149.5 -112t-90.5 -170q-26 -99 -2.5 -174t87.5 -116.5t156 -41.5zM556 421q-117 0 -167 78.5t-20 192.5q21 77 69 138t115.5 97t145.5 36q116 0 166.5 -78t20.5 -193
q-20 -76 -68.5 -137.5t-116 -97.5t-145.5 -36zM944 256q17 13 19.5 27.5t-7.5 26.5l-137 193l-69 -49l136 -192q10 -11 26 -14t32 8zM308 1124q-17 -12 -18.5 -27t7.5 -27l137 -193l68 49l-136 192q-9 12 -25.5 14.5t-32.5 -8.5zM85 260q10 -11 27.5 -10.5t33.5 13.5
l230 192l-43 50l-230 -192q-15 -13 -21 -27t3 -26zM1167 1121q-9 12 -26.5 11.5t-34.5 -13.5l-229 -192l43 -50l229 192q16 13 22 27t-4 25z" />
    <glyph glyph-name="yen" unicode="&#xa5;" horiz-adv-x="1203" 
d="M675 482l384 706q52 94 95 147t83.5 74.5t83.5 21.5q52 0 78.5 -25.5t26.5 -64.5q0 -49 -39 -85.5t-119 -62.5q-52 -16 -91 -38t-70.5 -55.5t-61.5 -85.5l-294 -526q-15 -25 -22 -44t-12 -38l-70 -279q-6 -23 1.5 -37t31.5 -19l64 -11q17 -5 23.5 -12t6.5 -16
q0 -15 -12.5 -23.5t-34.5 -8.5h-495q-20 0 -28 7.5t-8 20.5q0 23 33 33l68 11q29 5 43.5 21t22.5 43l76 284q7 26 5.5 51.5t-5.5 52.5q-3 19 -10 76.5t-16.5 136.5t-19.5 164.5t-19.5 163.5t-17 133.5t-10.5 71.5q-6 32 -25.5 47.5t-67.5 21.5q-16 4 -24 11t-8 18
q0 15 11 23.5t31 8.5h259q41 0 61.5 -17.5t26.5 -53.5q4 -20 12 -82t19 -148.5t23 -182.5t23 -185t20 -155t13 -91zM103 460q3 11 12 17t21 6h931q17 0 24 -6t4 -17q-4 -11 -15 -16.5t-27 -5.5h-932q-24 0 -18 22zM172 745q3 11 12 17t21 6h414l9 -45h-438q-24 0 -18 22z
M854 723l31 45h258q12 0 18 -6t3 -17q-4 -11 -13 -16.5t-21 -5.5h-276z" />
    <glyph glyph-name="brokenbar" unicode="&#xa6;" horiz-adv-x="566" 
d="M398 728q-6 -25 -17.5 -36t-28.5 -11q-16 0 -21.5 11.5t0.5 35.5q24 88 46.5 182.5t43 187.5t39 177t37.5 150q9 34 29.5 52.5t49.5 18.5q30 0 40 -18.5t0 -52.5q-18 -66 -45 -150t-57.5 -177t-60.5 -187.5t-55 -182.5zM270 506q7 25 18.5 36t28.5 11q16 0 21.5 -11.5
t-1.5 -35.5q-24 -88 -46 -182.5t-42.5 -187.5t-39.5 -177t-37 -150q-9 -34 -29.5 -52.5t-50.5 -18.5q-29 0 -39 18.5t-1 52.5q19 66 46 150t57.5 177t60.5 187.5t54 182.5z" />
    <glyph glyph-name="section" unicode="&#xa7;" horiz-adv-x="1105" 
d="M363 -399q-59 0 -99.5 14t-66.5 32.5t-41.5 32.5t-25.5 14q-11 0 -25.5 -13t-29.5 -29.5t-27.5 -29t-20.5 -12.5q-14 0 -19.5 7.5t-4.5 22.5l42 310q1 14 8.5 23t20.5 12q14 3 22.5 -2.5t13.5 -20.5q13 -116 48 -182.5t87.5 -94.5t114.5 -28q84 0 142.5 44.5t79.5 119.5
q21 78 -16 147t-163 133q-115 54 -176 112.5t-76.5 124.5t2.5 144q20 80 74.5 143t136.5 104.5t183 53.5l10 -42q-65 -12 -112 -57.5t-61 -109.5q-17 -81 25.5 -148t160.5 -128q114 -57 175 -117t78.5 -125.5t-0.5 -139.5q-21 -92 -84.5 -163t-159.5 -111.5t-216 -40.5z
M838 1369q-95 0 -163 -59.5t-88 -154.5q-17 -80 26.5 -145.5t144.5 -118.5q110 -58 174 -120t85.5 -130t3.5 -145q-18 -80 -76 -145t-145.5 -104.5t-192.5 -47.5l-1 46q68 9 116 51.5t65 104.5q23 79 -19 150.5t-175 141.5q-158 75 -213 172t-27 216q19 95 85 173
t171.5 124.5t240.5 46.5q121 0 200 -40.5t117.5 -104t34.5 -134.5q-2 -52 -28 -84t-70 -32q-36 0 -60 21t-32 67l-9 63q-7 62 -25.5 103.5t-52.5 63t-87 21.5z" />
    <glyph glyph-name="dieresis" unicode="&#xa8;" horiz-adv-x="711" 
d="M130 1016q-58 0 -84.5 35.5t-11.5 92.5q15 59 60 94.5t104 35.5t85 -35.5t11 -94.5q-15 -56 -59.5 -92t-104.5 -36zM500 1016q-58 0 -84.5 35.5t-12.5 92.5q16 58 61 94t104 36q60 0 86 -35.5t11 -94.5q-15 -56 -60 -92t-105 -36z" />
    <glyph glyph-name="copyright" unicode="&#xa9;" horiz-adv-x="1657" 
d="M693 -75q165 0 317 55.5t280.5 156.5t221 241t137.5 308q48 178 31 327.5t-90 259t-194 169.5t-280 60q-167 0 -320.5 -55t-283 -155t-222.5 -237t-137 -302q-47 -177 -30.5 -327.5t90 -263t195.5 -175t285 -62.5zM710 -21q-151 0 -262.5 58t-177.5 162.5t-79.5 246
t30.5 308.5q40 152 124 278.5t201.5 220t258.5 145t294 51.5q145 0 254.5 -57t176 -160t82 -242t-28.5 -303q-41 -154 -126.5 -283t-203 -224.5t-256.5 -148t-287 -52.5zM1264 489q-22 -61 -67 -116t-109 -98t-141.5 -68t-164.5 -25q-127 0 -213 67t-117 187t8 281
q25 107 83 201.5t140.5 166.5t180.5 112.5t205 40.5q69 0 109 -16t61.5 -32t33.5 -16t29.5 13t34 26t25.5 13q13 0 17 -6.5t4 -22.5l-14 -271q0 -14 -9.5 -23t-24.5 -12q-14 -2 -24 4.5t-13 20.5q-12 104 -39.5 161.5t-67 80.5t-89.5 23q-62 0 -119.5 -32t-107 -91
t-87.5 -139.5t-60 -176.5q-37 -152 -21 -250t72 -145.5t140 -47.5q79 0 154 46t131 141q14 10 22.5 16.5t15.5 9.5t13 1q15 -5 9 -24z" />
    <glyph glyph-name="ordfeminine" unicode="&#xaa;" horiz-adv-x="1007" 
d="M892 851q-18 -70 -13.5 -95.5t28.5 -25.5q18 0 36 13t43 43q9 8 16 10.5t12 0.5q7 -3 8.5 -13t-6.5 -28q-32 -66 -97 -106t-152 -40q-52 0 -78 26t-26 75q0 18 3.5 42.5t11 57.5t18.5 74.5t27 93.5l12 -25q-48 -110 -104.5 -187t-123 -117t-147.5 -40q-93 0 -143.5 64
t-38.5 196q8 107 58 206.5t134 179t192.5 126t232.5 46.5q84 0 144 -11.5t91.5 -28t29.5 -34.5q-1 -16 -12 -24t-23 -16t-17 -24zM411 860q-9 -82 10 -116t51 -34t67 26t70.5 74.5t68.5 117t62 155t51 187.5q10 46 1 72t-41 26q-58 0 -114.5 -45t-105 -119.5t-80.5 -164.5
t-40 -179z" />
    <glyph glyph-name="guillemetleft" unicode="&#xab;" horiz-adv-x="1062" 
d="M106 505q5 15 19.5 27t44.5 29q120 62 205 110.5t142.5 87t93.5 69.5q15 11 28 14t19 -4q7 -6 3.5 -16.5t-15.5 -24.5q-25 -29 -58 -65t-74.5 -78.5t-93 -93t-113.5 -108.5l12 64q43 -78 71.5 -144.5t48 -120t32.5 -94.5q4 -13 2.5 -23t-10.5 -15q-9 -6 -18.5 -3
t-17.5 15q-21 36 -57 84.5t-92.5 107t-141.5 122.5q-21 18 -27.5 31.5t-2.5 28.5zM511 505q5 15 19.5 27t44.5 29q120 62 205 110.5t142.5 87t93.5 69.5q15 11 28 14t19 -4q7 -6 3.5 -16.5t-15.5 -24.5q-25 -29 -58 -65t-74.5 -78.5t-93 -93t-113.5 -108.5l12 64
q43 -78 71.5 -144.5t48 -120t32.5 -94.5q4 -13 2.5 -23t-10.5 -15q-9 -6 -18.5 -3t-17.5 15q-21 36 -57 84.5t-92.5 107t-141.5 122.5q-21 18 -27.5 31.5t-2.5 28.5z" />
    <glyph glyph-name="logicalnot" unicode="&#xac;" horiz-adv-x="1019" 
d="M203 810q5 17 20 26.5t32 9.5h696q21 0 31 -10.5t4 -30.5l-82 -312q-4 -13 -17.5 -23t-32.5 -10q-20 0 -28 11t-4 25l77 296l10 -16h-677q-15 0 -24.5 8.5t-4.5 25.5z" />
    <glyph glyph-name="hyphensoft" unicode="&#xad;" horiz-adv-x="643" 
d="M589 590q34 0 18 -30l-38 -96q-7 -15 -16.5 -20.5t-24.5 -5.5h-443q-17 0 -21.5 8t2.5 24l38 95q8 15 16.5 20t23.5 5h445z" />
    <glyph glyph-name="registered" unicode="&#xae;" horiz-adv-x="1322" 
d="M603 284q134 0 258 44.5t228 124.5t178.5 188.5t108.5 236.5q36 134 20 247.5t-77.5 197t-161 129t-231.5 45.5t-254.5 -42.5t-225 -120t-176 -183.5t-107.5 -233q-36 -136 -21.5 -251.5t73.5 -201.5t157.5 -133.5t230.5 -47.5zM617 331q-157 0 -260.5 77.5t-139 210.5
t8.5 299q41 156 143.5 276t244 188t298.5 68q155 0 261 -74.5t145.5 -203.5t-4.5 -294q-41 -156 -145 -279.5t-247.5 -195.5t-304.5 -72zM1117 1009q-18 -72 -84 -123.5t-160 -66.5q-25 -4 -47.5 -8.5t-48.5 -4.5q-54 0 -89 11.5t-58 29.5l16 37q24 -19 50.5 -27t62.5 -8
q71 0 118 41t65 117q23 95 -9 153.5t-104 58.5q-30 0 -45.5 -10.5t-21.5 -33.5q-11 -43 -25 -97.5t-29.5 -114.5t-31 -120.5t-30 -117t-26.5 -102.5q-4 -16 -0.5 -24t14.5 -12l31 -7q7 -4 9 -7.5t0 -10.5q-5 -17 -27 -17h-270q-24 0 -19 17q2 8 7.5 12t15.5 7l34 8
q12 4 20 11t12 22q14 48 28.5 105t30.5 118.5t31.5 122.5t29 115.5t24.5 97.5q3 15 0 22t-11 10l-34 8q-14 5 -11 19q5 17 28 17h277q157 0 231 -67.5t46 -180.5zM755 826l148 23l49 -175q9 -35 21 -47.5t25 -12.5q11 0 20 5.5t18 17.5q7 7 15 5q6 0 8 -6.5t-2 -15.5
q-19 -43 -62 -66.5t-96 -23.5q-39 0 -64.5 23t-37.5 79z" />
    <glyph glyph-name="macron" unicode="&#xaf;" horiz-adv-x="711" 
d="M10 1129q8 30 22.5 42.5t37.5 12.5h461q22 0 29.5 -12t-0.5 -43q-8 -30 -22.5 -43t-36.5 -13h-461q-23 0 -30 13t0 43z" />
    <glyph glyph-name="degree" unicode="&#xb0;" horiz-adv-x="719" 
d="M596 1424q77 0 128 -36t69 -98.5t-4 -145.5q-22 -77 -73 -135.5t-121 -91t-146 -32.5q-115 0 -170.5 77t-22.5 196q20 75 70 135.5t120 95.5t150 35zM579 1368q-88 0 -158.5 -60.5t-93.5 -149.5q-26 -96 14.5 -156.5t124.5 -60.5q83 0 155 56.5t96 146.5q26 98 -13 161
t-125 63z" />
    <glyph glyph-name="plusminus" unicode="&#xb1;" horiz-adv-x="1029" 
d="M509 450q-18 1 -25 11t-4 23l191 727q4 13 17 22t30 8q19 0 26 -10t3 -23l-191 -727q-3 -13 -16.5 -22t-30.5 -9zM209 845q5 16 18.5 25t28.5 9h733q14 0 22 -9t3 -25t-20 -25t-30 -9h-725q-17 0 -25.5 9t-4.5 25zM72 203q4 16 18 25t29 9h732q15 0 22.5 -9t2.5 -25
q-4 -16 -19 -25t-31 -9h-724q-17 0 -26 9t-4 25z" />
    <glyph glyph-name="twosuperior" unicode="&#xb2;" horiz-adv-x="694" 
d="M270 868l-20 17l126 59q112 48 173.5 111t87.5 161q25 94 11 135t-57 41q-46 0 -74.5 -25.5t-40.5 -72.5l-17 -62q-11 -42 -43 -67t-71 -25t-56 23.5t-5 64.5q20 74 107 134t231 60q129 0 180 -57.5t27 -144.5q-21 -77 -98.5 -140.5t-242.5 -127.5zM151 783
q16 58 76 92.5t160 34.5q34 0 65.5 -9.5t61 -21t57.5 -20.5t55 -9q36 0 61 16.5t49 56.5q5 8 12 11t13 2q22 -1 12 -25q-42 -118 -97.5 -164.5t-122.5 -46.5q-60 0 -93 26.5t-57 100.5q-10 22 -17.5 32t-20.5 10t-24.5 -15t-22.5 -52q-17 -56 -44.5 -79t-65.5 -23
q-35 0 -51 23t-6 60z" />
    <glyph glyph-name="threesuperior" unicode="&#xb3;" horiz-adv-x="638" 
d="M446 1070l-6 12q11 2 27 3t29 1q123 0 182 -51.5t35 -143.5q-24 -91 -117 -144t-223 -53q-125 0 -177.5 48.5t-34.5 117.5q12 42 45 68.5t72 26.5q37 0 52 -23.5t5 -60.5l-15 -57q-10 -39 5.5 -63t60.5 -24q43 0 79.5 35.5t58.5 119.5q21 81 -0.5 122.5t-75.5 41.5h-35
q-12 0 -18.5 5.5t-2.5 15.5q2 8 8.5 14t16.5 13l261 194l-4 -31h-274q-30 0 -44 -25l-31 -56q-6 -9 -13.5 -14t-18.5 -5t-16 6t0 17l71 190q5 13 17.5 21.5t29.5 8.5h435q13 0 19.5 -6t2.5 -15q-2 -7 -10 -14t-25 -17z" />
    <glyph glyph-name="acute" unicode="&#xb4;" horiz-adv-x="461" 
d="M175 1252q42 61 83.5 94t89.5 29q46 -3 61.5 -34t2.5 -65q-14 -43 -50 -74.5t-89 -60.5l-219 -132q-10 -4 -20 -4t-15 6q-6 7 -1.5 15.5t12.5 17.5z" />
    <glyph glyph-name="mu.math" unicode="&#xb5;" horiz-adv-x="1129" 
d="M102 240l24 -9q-33 -119 -45 -208.5t-13.5 -157t-3 -119.5t-13.5 -95q-13 -44 -48 -71t-76 -27q-46 0 -65.5 33t-4.5 89q11 38 38.5 89t63.5 119t74 156t69 201zM220 596q17 58 24 91t7 63q0 22 -10.5 39.5t-10.5 41.5q0 43 57.5 69t157.5 26q70 0 84 -39t-13 -116
l-146 -469q-29 -92 -19.5 -128.5t55.5 -36.5q33 0 75.5 23.5t89.5 72.5t91 125.5t79 181.5q19 57 30.5 97t16 67.5t4.5 45.5q0 22 -9 39.5t-9 41.5q0 43 57.5 69t157.5 26q70 0 85 -39.5t-16 -115.5l-166 -499q-29 -83 -25 -113.5t34 -30.5q18 0 41 15t59 53q12 8 20.5 10.5
t15.5 -0.5q9 -5 9 -17t-10 -26q-54 -84 -136 -133.5t-166 -49.5q-61 0 -91.5 25.5t-30.5 74.5q0 34 13 78.5t32.5 94.5t38.5 100t30 94l20 -5q-60 -130 -128 -219t-138.5 -142.5t-138 -77t-126.5 -23.5q-73 0 -106 34t-31.5 96.5t30.5 145.5z" />
    <glyph glyph-name="paragraph" unicode="&#xb6;" horiz-adv-x="1263" 
d="M199 977q35 129 118 223.5t205.5 147t273.5 52.5h625q14 0 23 -7t4 -20q-3 -12 -12 -19t-24 -12l-74 -16q-28 -6 -44 -18.5t-23 -32.5l-310 -1149q-7 -21 1.5 -33.5t31.5 -18.5l64 -14q15 -4 20.5 -11t1.5 -19q-4 -15 -18.5 -22.5t-28.5 -7.5h-733q-14 0 -20.5 7t-3.5 18
q5 15 15.5 23t27.5 12l76 14q28 6 45.5 17.5t22.5 29.5l136 499q-20 -3 -44.5 -8.5t-60.5 -5.5q-182 0 -262 99t-33 272zM791 127l310 1145q7 24 -6.5 40t-55.5 16q-41 0 -64.5 -17t-30.5 -39l-310 -1145q-6 -22 8.5 -38t56.5 -16q41 0 63 15t29 39z" />
    <glyph glyph-name="periodcentered" unicode="&#xb7;" horiz-adv-x="545" 
d="M239 375q-65 0 -100 35t-32 88q2 45 28.5 82.5t72.5 60.5t106 23q67 0 100 -36.5t30 -90.5q-2 -42 -27.5 -79t-70.5 -60t-107 -23z" />
    <glyph glyph-name="cedilla" unicode="&#xb8;" horiz-adv-x="551" 
d="M363 8h49l-115 -139l-26 10q17 2 34 3t44 1q93 0 134 -40.5t24 -106.5q-19 -72 -85.5 -116t-163.5 -44q-79 0 -122 29.5t-43 70.5q2 11 10 18t17 8q10 2 16 -2t10 -11q9 -31 34 -45.5t58 -14.5q84 0 111 108q12 47 -5 74.5t-64 27.5h-25q-16 0 -17 9.5t10 21.5z" />
    <glyph glyph-name="onesuperior" unicode="&#xb9;" horiz-adv-x="568" 
d="M346 1331h58q15 0 20 -7t0 -26l-131 -496q-6 -19 -17.5 -29t-28.5 -14l-66 -10q-25 -5 -29 -20q-6 -19 21 -19h374q26 0 32 19q4 14 -15 19l-59 11q-14 4 -19 14t0 29l161 604q7 25 -18 25q-8 0 -15.5 -3t-16.5 -8q-31 -24 -69.5 -34.5t-100.5 -10.5h-67
q-13 0 -22.5 -6.5t-11.5 -15.5q-3 -10 1.5 -16t18.5 -6z" />
    <glyph glyph-name="ordmasculine" unicode="&#xba;" horiz-adv-x="986" 
d="M745 1426q113 -3 186 -54t100 -140.5t3 -211.5q-25 -124 -102 -218.5t-187.5 -146.5t-234.5 -49q-109 2 -183.5 50t-104 136.5t-4.5 211.5q25 124 100.5 221t185.5 151t241 50zM531 659q45 -1 94 34t93 117.5t77 221.5q27 122 25 195.5t-26 108t-65 36.5
q-48 3 -99.5 -37.5t-97 -126t-76.5 -217.5q-28 -125 -24.5 -197.5t30.5 -103t69 -31.5z" />
    <glyph glyph-name="guillemetright" unicode="&#xbb;" horiz-adv-x="1069" 
d="M991 470q-5 -15 -19.5 -27t-44.5 -29q-120 -62 -205 -110.5t-142.5 -87t-93.5 -69.5q-15 -11 -28 -14t-19 4q-7 6 -3.5 16.5t15.5 24.5q25 29 58 65t74.5 78.5t93 93t113.5 108.5l-12 -64q-43 78 -71.5 144.5t-48 120t-32.5 94.5q-4 13 -2.5 23t10.5 15q9 6 18.5 3
t17.5 -15q21 -36 57 -84.5t92.5 -107t141.5 -122.5q21 -18 27.5 -31.5t2.5 -28.5zM586 470q-5 -15 -19.5 -27t-44.5 -29q-120 -62 -205 -110.5t-142.5 -87t-93.5 -69.5q-15 -11 -28 -14t-19 4q-7 6 -3.5 16.5t15.5 24.5q25 29 58 65t74.5 78.5t93 93t113.5 108.5l-12 -64
q-43 78 -71.5 144.5t-48 120t-32.5 94.5q-4 13 -2.5 23t10.5 15q9 6 18.5 3t17.5 -15q21 -36 57 -84.5t92.5 -107t141.5 -122.5q21 -18 27.5 -31.5t2.5 -28.5z" />
    <glyph glyph-name="onequarter" unicode="&#xbc;" horiz-adv-x="1340" 
d="M365 1331h58q15 0 20 -7t0 -26l-131 -496q-6 -19 -17.5 -29t-28.5 -14l-66 -10q-25 -5 -29 -20q-6 -19 21 -19h374q26 0 32 19q4 14 -15 19l-59 11q-14 4 -19 14t0 29l161 604q7 25 -18 25q-8 0 -15.5 -3t-16.5 -8q-31 -24 -69.5 -34.5t-100.5 -10.5h-67
q-13 0 -22.5 -6.5t-11.5 -15.5q-3 -10 1.5 -16t18.5 -6zM954 315q3 10 8 17t13 12l165 120q12 7 18.5 9.5t12.5 2.5q16 0 11 -17l-97 -371q-5 -17 0.5 -26.5t19.5 -13.5l46 -10q19 -6 15 -19q-6 -19 -32 -19h-343q-28 0 -22 19q5 15 29 19l52 10q17 4 28.5 13t16.5 27z
M892 411q30 21 47.5 40.5t22.5 41.5q7 24 -3 45t-19 44t-1 53q11 40 48 67.5t93 27.5q52 0 77 -30t12 -77q-11 -41 -43.5 -80.5t-111.5 -96.5l-363 -262l-4 21h564q12 0 17.5 -4.5t2.5 -13.5q-7 -21 -33 -21h-574q-13 0 -18 5.5t-2 15.5q2 6 7.5 12.5t18.5 13.5zM816 750
q-12 -12 -21 -15t-18 3q-8 5 -7 13t12 22l62.5 75t98 116.5t114 134.5t110.5 130t88 103t46 53q21 23 42 29t40 -7q18 -12 16 -31.5t-22 -41.5q-9 -10 -47 -50t-94.5 -98.5t-119.5 -124.5t-123 -128.5t-107 -111t-70 -71.5zM664 644q13 13 22.5 16.5t18.5 -2.5q8 -5 7 -14
t-13 -22q-19 -24 -61.5 -75t-98 -117t-114.5 -135.5t-111.5 -131t-89.5 -104t-47 -54.5q-20 -22 -42 -27.5t-41 6.5q-18 12 -15.5 31.5t23.5 41.5q10 12 49 53t95.5 100t119.5 125t123 128.5t107 110.5t68 70z" />
    <glyph glyph-name="onehalf" unicode="&#xbd;" horiz-adv-x="1394" 
d="M372 1331h58q15 0 20 -7t0 -26l-131 -496q-6 -19 -17.5 -29t-28.5 -14l-66 -10q-25 -5 -29 -20q-6 -19 21 -19h374q26 0 32 19q4 14 -15 19l-59 11q-14 4 -19 14t0 29l161 604q7 25 -18 25q-8 0 -15.5 -3t-16.5 -8q-31 -24 -69.5 -34.5t-100.5 -10.5h-67
q-13 0 -22.5 -6.5t-11.5 -15.5q-3 -10 1.5 -16t18.5 -6zM819 750q-12 -12 -21 -15t-18 3q-8 5 -7 13t12 22l62.5 75t98 116.5t114 134.5t110.5 130t88 103t46 53q21 23 42 29t40 -7q18 -12 16 -31.5t-22 -41.5q-9 -10 -47 -50t-94.5 -98.5t-119.5 -124.5t-123 -128.5
t-107 -111t-70 -71.5zM667 644q13 13 22.5 16.5t18.5 -2.5q8 -5 7 -14t-13 -22q-19 -24 -61.5 -75t-98 -117t-114.5 -135.5t-111.5 -131t-89.5 -104t-47 -54.5q-20 -22 -42 -27.5t-41 6.5q-18 12 -15.5 31.5t23.5 41.5q10 12 49 53t95.5 100t119.5 125t123 128.5t107 110.5
t68 70zM773 151l-20 17l126 59q112 48 173.5 111t87.5 161q25 94 11 135t-57 41q-46 0 -74.5 -25.5t-40.5 -72.5l-17 -62q-11 -42 -43 -67t-71 -25t-56 23.5t-5 64.5q20 74 107 134t231 60q129 0 180 -57.5t27 -144.5q-21 -77 -98.5 -140.5t-242.5 -127.5zM654 66
q16 58 76 92.5t160 34.5q34 0 65.5 -9.5t61 -21t57.5 -20.5t55 -9q36 0 61 16.5t49 56.5q5 8 12 11t13 2q22 -1 12 -25q-42 -118 -97.5 -164.5t-122.5 -46.5q-60 0 -93 26.5t-57 100.5q-10 22 -17.5 32t-20.5 10t-24.5 -15t-22.5 -52q-17 -56 -44.5 -79t-65.5 -23
q-35 0 -51 23t-6 60z" />
    <glyph glyph-name="threequarters" unicode="&#xbe;" horiz-adv-x="1396" 
d="M1004 314q3 10 8 17t13 12l165 120q12 7 18.5 9.5t12.5 2.5q16 0 11 -17l-97 -371q-5 -17 0.5 -26.5t19.5 -13.5l46 -10q19 -6 15 -19q-6 -19 -32 -19h-343q-28 0 -22 19q5 15 29 19l52 10q17 4 28.5 13t16.5 27zM942 410q30 21 47.5 40.5t22.5 41.5q7 24 -3 45t-19 44
t-1 53q11 40 48 67.5t93 27.5q52 0 77 -30t12 -77q-11 -41 -43.5 -80.5t-111.5 -96.5l-363 -262l-4 21h564q12 0 17.5 -4.5t2.5 -13.5q-7 -21 -33 -21h-574q-13 0 -18 5.5t-2 15.5q2 6 7.5 12.5t18.5 13.5zM867 750q-12 -12 -21 -15t-18 3q-8 5 -7 13t12 22l62.5 75
t98 116.5t114 134.5t110.5 130t88 103t46 53q21 23 42 29t40 -7q18 -12 16 -31.5t-22 -41.5q-9 -10 -47 -50t-94.5 -98.5t-119.5 -124.5t-123 -128.5t-107 -111t-70 -71.5zM715 644q13 13 22.5 16.5t18.5 -2.5q8 -5 7 -14t-13 -22q-19 -24 -61.5 -75t-98 -117t-114.5 -135.5
t-111.5 -131t-89.5 -104t-47 -54.5q-20 -22 -42 -27.5t-41 6.5q-18 12 -15.5 31.5t23.5 41.5q10 12 49 53t95.5 100t119.5 125t123 128.5t107 110.5t68 70zM484 1070l-6 12q11 2 27 3t29 1q123 0 182 -51.5t35 -143.5q-24 -91 -117 -144t-223 -53q-125 0 -177.5 48.5
t-34.5 117.5q12 42 45 68.5t72 26.5q37 0 52 -23.5t5 -60.5l-15 -57q-10 -39 5.5 -63t60.5 -24q43 0 79.5 35.5t58.5 119.5q21 81 -0.5 122.5t-75.5 41.5h-35q-12 0 -18.5 5.5t-2.5 15.5q2 8 8.5 14t16.5 13l261 194l-4 -31h-274q-30 0 -44 -25l-31 -56q-6 -9 -13.5 -14
t-18.5 -5t-16 6t0 17l71 190q5 13 17.5 21.5t29.5 8.5h435q13 0 19.5 -6t2.5 -15q-2 -7 -10 -14t-25 -17z" />
    <glyph glyph-name="questiondown" unicode="&#xbf;" horiz-adv-x="993" 
d="M669 444l37 164q2 22 -5 34.5t-25 12.5q-17 0 -30 -11t-27 -37l-45 -144q-10 -28 -26 -45t-52 -26l-64 -17q-192 -54 -307.5 -154t-154.5 -245q-29 -108 3.5 -190t122.5 -127.5t232 -45.5q134 0 244.5 45t183.5 116.5t95 153.5q17 62 -8 102.5t-81 40.5q-63 0 -106.5 -35
t-64.5 -106l-25 -87q-23 -82 -75.5 -126.5t-135.5 -44.5q-52 0 -83.5 29t-37.5 88t19 150q43 149 107.5 238.5t172.5 141.5l56 27q39 18 56.5 41t23.5 57zM796 1100q65 0 100.5 -35.5t31.5 -88.5q-2 -44 -28.5 -81.5t-72.5 -60.5t-106 -23q-67 0 -100 36t-30 90
q2 43 27.5 80t70.5 60t107 23z" />
    <glyph glyph-name="Agrave" unicode="&#xc0;" horiz-adv-x="1247" 
d="M225 264q-47 -77 -32 -128.5t74 -67.5l40 -8q14 -5 19.5 -12t5.5 -16q0 -15 -11 -23.5t-31 -8.5h-335q-20 0 -30 7.5t-10 20.5t9.5 23t35.5 22q42 16 90.5 67.5t99.5 135.5l523 835q104 160 220.5 235t240.5 75q33 0 46 -9t13 -23q0 -11 -6 -18.5t-19 -12.5
q-45 -7 -71 -39t-29 -94q-1 -27 -3 -91.5t-4.5 -153.5t-6 -190t-6.5 -201.5t-5.5 -188.5t-4 -151t-1.5 -88q0 -29 6 -48t24.5 -31t55.5 -23q23 -10 23 -28q0 -13 -11 -22t-31 -9h-470q-18 0 -26 8t-8 20t8.5 19.5t23.5 12.5l79 14q27 7 39 27.5t13 52.5q2 30 4.5 94
t6.5 150.5t8 184t8 196t7.5 186.5t6 155.5t2.5 101.5l41 -10q-12 -6 -27.5 -20t-37.5 -42t-55 -77zM297 449l18 57h542l-4 -57h-556zM986 1713l83 -184q3 -9 3 -17.5t-8 -15.5q-7 -6 -17.5 -6.5t-18.5 2.5l-180 91q-45 20 -72 47t-20 74q3 33 33.5 65t74.5 38
q45 7 73.5 -19.5t48.5 -74.5z" />
    <glyph glyph-name="Aacute" unicode="&#xc1;" horiz-adv-x="1247" 
d="M227 264q-47 -77 -32 -128.5t74 -67.5l40 -8q14 -5 19.5 -12t5.5 -16q0 -15 -11 -23.5t-31 -8.5h-335q-20 0 -30 7.5t-10 20.5t9.5 23t35.5 22q42 16 90.5 67.5t99.5 135.5l523 835q104 160 220.5 235t240.5 75q33 0 46 -9t13 -23q0 -11 -6 -18.5t-19 -12.5
q-45 -7 -71 -39t-29 -94q-1 -27 -3 -91.5t-4.5 -153.5t-6 -190t-6.5 -201.5t-5.5 -188.5t-4 -151t-1.5 -88q0 -29 6 -48t24.5 -31t55.5 -23q23 -10 23 -28q0 -13 -11 -22t-31 -9h-470q-18 0 -26 8t-8 20t8.5 19.5t23.5 12.5l79 14q27 7 39 27.5t13 52.5q2 30 4.5 94
t6.5 150.5t8 184t8 196t7.5 186.5t6 155.5t2.5 101.5l41 -10q-12 -6 -27.5 -20t-37.5 -42t-55 -77zM299 449l18 57h542l-4 -57h-556zM1169 1713q46 48 88.5 74.5t83.5 19.5q41 -6 54 -38t-1 -65q-18 -47 -59.5 -74t-96.5 -47l-226 -91q-10 -3 -20 -2.5t-14 6.5q-4 7 1 15.5
t13 17.5z" />
    <glyph glyph-name="Acircumflex" unicode="&#xc2;" horiz-adv-x="1247" 
d="M225 264q-47 -77 -32 -128.5t74 -67.5l40 -8q14 -5 19.5 -12t5.5 -16q0 -15 -11 -23.5t-31 -8.5h-335q-20 0 -30 7.5t-10 20.5t9.5 23t35.5 22q42 16 90.5 67.5t99.5 135.5l523 835q104 160 220.5 235t240.5 75q33 0 46 -9t13 -23q0 -11 -6 -18.5t-19 -12.5
q-45 -7 -71 -39t-29 -94q-1 -27 -3 -91.5t-4.5 -153.5t-6 -190t-6.5 -201.5t-5.5 -188.5t-4 -151t-1.5 -88q0 -29 6 -48t24.5 -31t55.5 -23q23 -10 23 -28q0 -13 -11 -22t-31 -9h-470q-18 0 -26 8t-8 20t8.5 19.5t23.5 12.5l79 14q27 7 39 27.5t13 52.5q2 30 4.5 94
t6.5 150.5t8 184t8 196t7.5 186.5t6 155.5t2.5 101.5l41 -10q-12 -6 -27.5 -20t-37.5 -42t-55 -77zM297 449l18 57h542l-4 -57h-556zM1079 1653h-117l251 -152q24 -16 43 -4q8 5 11.5 15.5t-3.5 21.5l-153 230q-11 17 -21.5 26.5t-30.5 9.5q-19 0 -34.5 -9.5t-36.5 -26.5
l-271 -230q-14 -11 -16 -21.5t2 -15.5q7 -6 18.5 -5t27.5 9z" />
    <glyph glyph-name="Atilde" unicode="&#xc3;" horiz-adv-x="1247" 
d="M225 264q-47 -77 -32 -128.5t74 -67.5l40 -8q14 -5 19.5 -12t5.5 -16q0 -15 -11 -23.5t-31 -8.5h-335q-20 0 -30 7.5t-10 20.5t9.5 23t35.5 22q42 16 90.5 67.5t99.5 135.5l523 835q104 160 220.5 235t240.5 75q33 0 46 -9t13 -23q0 -11 -6 -18.5t-19 -12.5
q-45 -7 -71 -39t-29 -94q-1 -27 -3 -91.5t-4.5 -153.5t-6 -190t-6.5 -201.5t-5.5 -188.5t-4 -151t-1.5 -88q0 -29 6 -48t24.5 -31t55.5 -23q23 -10 23 -28q0 -13 -11 -22t-31 -9h-470q-18 0 -26 8t-8 20t8.5 19.5t23.5 12.5l79 14q27 7 39 27.5t13 52.5q2 30 4.5 94
t6.5 150.5t8 184t8 196t7.5 186.5t6 155.5t2.5 101.5l41 -10q-12 -6 -27.5 -20t-37.5 -42t-55 -77zM297 449l18 57h542l-4 -57h-556zM1097 1507q-41 0 -71.5 15.5t-55 35.5t-48.5 35.5t-51 15.5q-63 0 -93 -87q-10 -22 -31 -22q-26 0 -16 33q28 109 81 164.5t129 55.5
q42 0 72 -15t54.5 -35t48.5 -35.5t52 -15.5q63 0 92 86q11 23 32 23q25 0 15 -34q-28 -108 -81 -164t-129 -56z" />
    <glyph glyph-name="Adieresis" unicode="&#xc4;" horiz-adv-x="1247" 
d="M225 264q-47 -77 -32 -128.5t74 -67.5l40 -8q14 -5 19.5 -12t5.5 -16q0 -15 -11 -23.5t-31 -8.5h-335q-20 0 -30 7.5t-10 20.5t9.5 23t35.5 22q42 16 90.5 67.5t99.5 135.5l523 835q104 160 220.5 235t240.5 75q33 0 46 -9t13 -23q0 -11 -6 -18.5t-19 -12.5
q-45 -7 -71 -39t-29 -94q-1 -27 -3 -91.5t-4.5 -153.5t-6 -190t-6.5 -201.5t-5.5 -188.5t-4 -151t-1.5 -88q0 -29 6 -48t24.5 -31t55.5 -23q23 -10 23 -28q0 -13 -11 -22t-31 -9h-470q-18 0 -26 8t-8 20t8.5 19.5t23.5 12.5l79 14q27 7 39 27.5t13 52.5q2 30 4.5 94
t6.5 150.5t8 184t8 196t7.5 186.5t6 155.5t2.5 101.5l41 -10q-12 -6 -27.5 -20t-37.5 -42t-55 -77zM297 449l18 57h542l-4 -57h-556zM799 1504q-59 0 -86 35t-13 91q16 58 61.5 93t105.5 35t86.5 -35t11.5 -93q-15 -55 -60 -90.5t-106 -35.5zM1173 1504q-59 0 -86.5 35
t-12.5 92q15 56 61 91.5t105 35.5q62 0 88.5 -35t11.5 -93q-15 -55 -60.5 -90.5t-106.5 -35.5z" />
    <glyph glyph-name="Aring" unicode="&#xc5;" horiz-adv-x="1247" 
d="M225 264q-47 -77 -32 -128.5t74 -67.5l40 -8q14 -5 19.5 -12t5.5 -16q0 -15 -11 -23.5t-31 -8.5h-335q-20 0 -30 7.5t-10 20.5t9.5 23t35.5 22q42 16 90.5 67.5t99.5 135.5l523 835q104 160 220.5 235t240.5 75q33 0 46 -9t13 -23q0 -11 -6 -18.5t-19 -12.5
q-45 -7 -71 -39t-29 -94q-1 -27 -3 -91.5t-4.5 -153.5t-6 -190t-6.5 -201.5t-5.5 -188.5t-4 -151t-1.5 -88q0 -29 6 -48t24.5 -31t55.5 -23q23 -10 23 -28q0 -13 -11 -22t-31 -9h-470q-18 0 -26 8t-8 20t8.5 19.5t23.5 12.5l79 14q27 7 39 27.5t13 52.5q2 30 4.5 94
t6.5 150.5t8 184t8 196t7.5 186.5t6 155.5t2.5 101.5l41 -10q-12 -6 -27.5 -20t-37.5 -42t-55 -77zM297 449l18 57h542l-4 -57h-556zM986 1485q-86 0 -133 46.5t-26 126.5t92.5 126.5t157.5 46.5q88 0 134 -47.5t26 -125.5q-21 -78 -92 -125.5t-159 -47.5zM1064 1780
q-35 0 -67 -31t-48 -91q-15 -58 1 -90.5t52 -32.5t67 32.5t46 90.5q15 60 0 91t-51 31z" />
    <glyph glyph-name="AE" unicode="&#xc6;" horiz-adv-x="1900" 
d="M1220 1400l-39 -69h-67l-904 -1117q-47 -58 -39.5 -94.5t54.5 -52.5l39 -10q12 -4 17 -11t2 -18q-4 -12 -15.5 -20t-30.5 -8h-329q-19 0 -26 8t-3 20q4 11 12.5 17t22.5 12l31 11q35 12 77 46t89 93l845 1033q32 40 28.5 63.5t-39.5 33.5q-18 7 -24 15.5t-2 19.5
q4 14 15.5 21t30.5 7h255zM476 612h511l-16 -63h-523zM1154 747h304q58 0 101.5 34t57.5 125q5 12 12.5 18t17.5 6q15 0 23 -8.5t10 -23.5l39 -338q3 -24 -5 -34.5t-22 -11.5q-12 -1 -20.5 5.5t-15.5 19.5q-30 83 -74 117.5t-125 34.5h-321zM1396 0h-720q-20 0 -28 8t-7 20
t9.5 20.5t23.5 12.5l69 12q24 5 38 17t22 38q11 38 32 112.5t48 173.5t58 211t62 226t59.5 219.5t51 191t36.5 138.5h630q55 0 86 16.5t53 16.5q17 0 27 -9.5t13 -30.5l15 -321q3 -21 -4 -32.5t-22 -12.5q-16 -2 -28 7t-21 34q-31 113 -63.5 173t-74.5 82t-103 22h-240
q-13 -45 -34.5 -123.5t-48.5 -178.5t-56.5 -210t-58 -218.5t-53.5 -204t-43 -165.5t-26 -103q-7 -30 -1.5 -49.5t27.5 -28t63 -8.5h167q74 0 136 29.5t120.5 98t119.5 183.5q20 33 41 33q14 0 21 -10.5t7 -28.5q-5 -90 -27 -161t-57.5 -121.5t-82.5 -76.5t-102 -26
q-34 0 -63.5 12t-70.5 12z" />
    <glyph glyph-name="Ccedilla" unicode="&#xc7;" horiz-adv-x="1267" 
d="M1175 426q11 -5 14 -19.5t-13 -42.5q-59 -129 -147 -215t-198 -128.5t-237 -42.5q-162 0 -279.5 77.5t-168 227.5t-12.5 368q29 164 102.5 304.5t180.5 246t237 164t273 58.5q67 0 114 -16t77.5 -36.5t49 -36.5t29.5 -16q12 0 29 15.5t36 35.5t36 35.5t28 15.5
q15 0 23.5 -9t8.5 -27l-9 -383q-1 -18 -10.5 -27t-24.5 -9q-27 -1 -39 33l-22 75q-43 149 -113.5 212t-170.5 63q-90 0 -171.5 -49t-149 -138t-117 -210t-75.5 -265q-38 -213 -13 -341.5t98 -186t174 -57.5q71 0 142.5 29t138 94t123.5 172q16 20 29.5 27.5t26.5 1.5zM608 8
h49l-115 -139l-26 10q17 2 34 3t44 1q93 0 134 -40.5t24 -106.5q-19 -72 -85.5 -116t-163.5 -44q-79 0 -122 29.5t-43 70.5q2 11 10 18t17 8q10 2 16 -2t10 -11q9 -31 34 -45.5t58 -14.5q84 0 111 108q12 47 -5 74.5t-64 27.5h-25q-16 0 -17 9.5t10 21.5z" />
    <glyph glyph-name="Egrave" unicode="&#xc8;" horiz-adv-x="1248" 
d="M502 747h304q58 0 101.5 34t57.5 125q5 12 12.5 18t17.5 6q15 0 22.5 -8.5t9.5 -23.5l39 -338q4 -24 -4 -34.5t-23 -11.5q-12 -1 -20.5 5.5t-14.5 19.5q-30 83 -74.5 117.5t-125.5 34.5h-320zM745 0h-715q-20 0 -28 8t-8 20q0 11 8.5 20t22.5 13l76 12q22 5 34.5 19.5
t22.5 42.5q8 32 26.5 99.5t43.5 159t53 195t56 207.5t53 197.5t43.5 164t27.5 106.5q7 30 0.5 44.5t-26.5 18.5l-73 13q-12 4 -19.5 10.5t-7.5 17.5q0 15 11 23.5t31 8.5h751q56 0 86 16.5t53 16.5q34 0 40 -40l14 -321q3 -21 -3.5 -32.5t-21.5 -12.5q-17 -2 -28.5 7
t-21.5 34q-31 113 -63.5 173t-74 82t-102.5 22h-241q-13 -45 -34.5 -123.5t-48.5 -178.5t-56.5 -210t-58 -218.5t-53.5 -203.5t-43 -165.5t-25 -103.5q-7 -30 -2 -49.5t27 -28t64 -8.5h166q75 0 137 29.5t120.5 98t119.5 183.5q19 33 41 33q29 0 27 -39q-5 -90 -27 -161
t-57 -121.5t-82 -76.5t-102 -26q-34 0 -63.5 12t-69.5 12zM876 1713l83 -184q3 -9 3 -17.5t-8 -15.5q-7 -6 -17.5 -6.5t-18.5 2.5l-180 91q-45 20 -72 47t-20 74q3 33 33.5 65t74.5 38q45 7 73.5 -19.5t48.5 -74.5z" />
    <glyph glyph-name="Eacute" unicode="&#xc9;" horiz-adv-x="1248" 
d="M502 747h304q58 0 101.5 34t57.5 125q5 12 12.5 18t17.5 6q15 0 22.5 -8.5t9.5 -23.5l39 -338q4 -24 -4 -34.5t-23 -11.5q-12 -1 -20.5 5.5t-14.5 19.5q-30 83 -74.5 117.5t-125.5 34.5h-320zM745 0h-715q-20 0 -28 8t-8 20q0 11 8.5 20t22.5 13l76 12q22 5 34.5 19.5
t22.5 42.5q8 32 26.5 99.5t43.5 159t53 195t56 207.5t53 197.5t43.5 164t27.5 106.5q7 30 0.5 44.5t-26.5 18.5l-73 13q-12 4 -19.5 10.5t-7.5 17.5q0 15 11 23.5t31 8.5h751q56 0 86 16.5t53 16.5q34 0 40 -40l14 -321q3 -21 -3.5 -32.5t-21.5 -12.5q-17 -2 -28.5 7
t-21.5 34q-31 113 -63.5 173t-74 82t-102.5 22h-241q-13 -45 -34.5 -123.5t-48.5 -178.5t-56.5 -210t-58 -218.5t-53.5 -203.5t-43 -165.5t-25 -103.5q-7 -30 -2 -49.5t27 -28t64 -8.5h166q75 0 137 29.5t120.5 98t119.5 183.5q19 33 41 33q29 0 27 -39q-5 -90 -27 -161
t-57 -121.5t-82 -76.5t-102 -26q-34 0 -63.5 12t-69.5 12zM1042 1713q46 48 88.5 74.5t83.5 19.5q41 -6 54 -38t-1 -65q-18 -47 -59.5 -74t-96.5 -47l-226 -91q-10 -3 -20 -2.5t-14 6.5q-4 7 1 15.5t13 17.5z" />
    <glyph glyph-name="Ecircumflex" unicode="&#xca;" horiz-adv-x="1248" 
d="M502 747h304q58 0 101.5 34t57.5 125q5 12 12.5 18t17.5 6q15 0 22.5 -8.5t9.5 -23.5l39 -338q4 -24 -4 -34.5t-23 -11.5q-12 -1 -20.5 5.5t-14.5 19.5q-30 83 -74.5 117.5t-125.5 34.5h-320zM745 0h-715q-20 0 -28 8t-8 20q0 11 8.5 20t22.5 13l76 12q22 5 34.5 19.5
t22.5 42.5q8 32 26.5 99.5t43.5 159t53 195t56 207.5t53 197.5t43.5 164t27.5 106.5q7 30 0.5 44.5t-26.5 18.5l-73 13q-12 4 -19.5 10.5t-7.5 17.5q0 15 11 23.5t31 8.5h751q56 0 86 16.5t53 16.5q34 0 40 -40l14 -321q3 -21 -3.5 -32.5t-21.5 -12.5q-17 -2 -28.5 7
t-21.5 34q-31 113 -63.5 173t-74 82t-102.5 22h-241q-13 -45 -34.5 -123.5t-48.5 -178.5t-56.5 -210t-58 -218.5t-53.5 -203.5t-43 -165.5t-25 -103.5q-7 -30 -2 -49.5t27 -28t64 -8.5h166q75 0 137 29.5t120.5 98t119.5 183.5q19 33 41 33q29 0 27 -39q-5 -90 -27 -161
t-57 -121.5t-82 -76.5t-102 -26q-34 0 -63.5 12t-69.5 12zM955 1653h-117l251 -152q24 -16 43 -4q8 5 11.5 15.5t-3.5 21.5l-153 230q-11 17 -21.5 26.5t-30.5 9.5q-19 0 -34.5 -9.5t-36.5 -26.5l-271 -230q-14 -11 -16 -21.5t2 -15.5q7 -6 18.5 -5t27.5 9z" />
    <glyph glyph-name="Edieresis" unicode="&#xcb;" horiz-adv-x="1248" 
d="M502 747h304q58 0 101.5 34t57.5 125q5 12 12.5 18t17.5 6q15 0 22.5 -8.5t9.5 -23.5l39 -338q4 -24 -4 -34.5t-23 -11.5q-12 -1 -20.5 5.5t-14.5 19.5q-30 83 -74.5 117.5t-125.5 34.5h-320zM745 0h-715q-20 0 -28 8t-8 20q0 11 8.5 20t22.5 13l76 12q22 5 34.5 19.5
t22.5 42.5q8 32 26.5 99.5t43.5 159t53 195t56 207.5t53 197.5t43.5 164t27.5 106.5q7 30 0.5 44.5t-26.5 18.5l-73 13q-12 4 -19.5 10.5t-7.5 17.5q0 15 11 23.5t31 8.5h751q56 0 86 16.5t53 16.5q34 0 40 -40l14 -321q3 -21 -3.5 -32.5t-21.5 -12.5q-17 -2 -28.5 7
t-21.5 34q-31 113 -63.5 173t-74 82t-102.5 22h-241q-13 -45 -34.5 -123.5t-48.5 -178.5t-56.5 -210t-58 -218.5t-53.5 -203.5t-43 -165.5t-25 -103.5q-7 -30 -2 -49.5t27 -28t64 -8.5h166q75 0 137 29.5t120.5 98t119.5 183.5q19 33 41 33q29 0 27 -39q-5 -90 -27 -161
t-57 -121.5t-82 -76.5t-102 -26q-34 0 -63.5 12t-69.5 12zM675 1504q-59 0 -86 35t-13 91q16 58 61.5 93t105.5 35t86.5 -35t11.5 -93q-15 -55 -60 -90.5t-106 -35.5zM1049 1504q-59 0 -86.5 35t-12.5 92q15 56 61 91.5t105 35.5q62 0 88.5 -35t11.5 -93
q-15 -55 -60.5 -90.5t-106.5 -35.5z" />
    <glyph glyph-name="Igrave" unicode="&#xcc;" horiz-adv-x="760" 
d="M445 127q-6 -23 1 -37t28 -19l72 -12q14 -4 21 -10.5t7 -17.5q0 -14 -11.5 -22.5t-31.5 -8.5h-498q-21 0 -29 7.5t-8 19.5q0 13 9 21.5t23 11.5l73 12q23 5 36 18.5t22 42.5q10 37 29.5 107.5t45 163t53.5 196t55.5 207t51.5 196t42 163.5t26 107q5 24 -1.5 37t-28.5 17
l-72 13q-16 5 -22 11.5t-6 17.5q0 15 12 23t34 8h495q21 0 28 -7t7 -19q0 -13 -8.5 -21t-24.5 -13l-77 -15q-21 -4 -32.5 -15.5t-20.5 -39.5q-11 -38 -31 -111.5t-46 -168.5t-54 -201.5t-55.5 -211t-51 -196t-40 -158.5t-22.5 -96zM653 1713l83 -184q3 -9 3 -17.5t-8 -15.5
q-7 -6 -17.5 -6.5t-18.5 2.5l-180 91q-45 20 -72 47t-20 74q3 33 33.5 65t74.5 38q45 7 73.5 -19.5t48.5 -74.5z" />
    <glyph glyph-name="Iacute" unicode="&#xcd;" horiz-adv-x="760" 
d="M445 127q-6 -23 1 -37t28 -19l72 -12q14 -4 21 -10.5t7 -17.5q0 -14 -11.5 -22.5t-31.5 -8.5h-498q-21 0 -29 7.5t-8 19.5q0 13 9 21.5t23 11.5l73 12q23 5 36 18.5t22 42.5q10 37 29.5 107.5t45 163t53.5 196t55.5 207t51.5 196t42 163.5t26 107q5 24 -1.5 37t-28.5 17
l-72 13q-16 5 -22 11.5t-6 17.5q0 15 12 23t34 8h495q21 0 28 -7t7 -19q0 -13 -8.5 -21t-24.5 -13l-77 -15q-21 -4 -32.5 -15.5t-20.5 -39.5q-11 -38 -31 -111.5t-46 -168.5t-54 -201.5t-55.5 -211t-51 -196t-40 -158.5t-22.5 -96zM825 1713q46 48 88.5 74.5t83.5 19.5
q41 -6 54 -38t-1 -65q-18 -47 -59.5 -74t-96.5 -47l-226 -91q-10 -3 -20 -2.5t-14 6.5q-4 7 1 15.5t13 17.5z" />
    <glyph glyph-name="Icircumflex" unicode="&#xce;" horiz-adv-x="760" 
d="M445 127q-6 -23 1 -37t28 -19l72 -12q14 -4 21 -10.5t7 -17.5q0 -14 -11.5 -22.5t-31.5 -8.5h-498q-21 0 -29 7.5t-8 19.5q0 13 9 21.5t23 11.5l73 12q23 5 36 18.5t22 42.5q10 37 29.5 107.5t45 163t53.5 196t55.5 207t51.5 196t42 163.5t26 107q5 24 -1.5 37t-28.5 17
l-72 13q-16 5 -22 11.5t-6 17.5q0 15 12 23t34 8h495q21 0 28 -7t7 -19q0 -13 -8.5 -21t-24.5 -13l-77 -15q-21 -4 -32.5 -15.5t-20.5 -39.5q-11 -38 -31 -111.5t-46 -168.5t-54 -201.5t-55.5 -211t-51 -196t-40 -158.5t-22.5 -96zM737 1653h-117l251 -152q24 -16 43 -4
q8 5 11.5 15.5t-3.5 21.5l-153 230q-11 17 -21.5 26.5t-30.5 9.5q-19 0 -34.5 -9.5t-36.5 -26.5l-271 -230q-14 -11 -16 -21.5t2 -15.5q7 -6 18.5 -5t27.5 9z" />
    <glyph glyph-name="Idieresis" unicode="&#xcf;" horiz-adv-x="760" 
d="M445 127q-6 -23 1 -37t28 -19l72 -12q14 -4 21 -10.5t7 -17.5q0 -14 -11.5 -22.5t-31.5 -8.5h-498q-21 0 -29 7.5t-8 19.5q0 13 9 21.5t23 11.5l73 12q23 5 36 18.5t22 42.5q10 37 29.5 107.5t45 163t53.5 196t55.5 207t51.5 196t42 163.5t26 107q5 24 -1.5 37t-28.5 17
l-72 13q-16 5 -22 11.5t-6 17.5q0 15 12 23t34 8h495q21 0 28 -7t7 -19q0 -13 -8.5 -21t-24.5 -13l-77 -15q-21 -4 -32.5 -15.5t-20.5 -39.5q-11 -38 -31 -111.5t-46 -168.5t-54 -201.5t-55.5 -211t-51 -196t-40 -158.5t-22.5 -96zM457 1504q-59 0 -86 35t-13 91
q16 58 61.5 93t105.5 35t86.5 -35t11.5 -93q-15 -55 -60 -90.5t-106 -35.5zM831 1504q-59 0 -86.5 35t-12.5 92q15 56 61 91.5t105 35.5q62 0 88.5 -35t11.5 -93q-15 -55 -60.5 -90.5t-106.5 -35.5z" />
    <glyph glyph-name="Eth" unicode="&#xd0;" horiz-adv-x="1466" 
d="M113 700q4 11 13 17.5t21 6.5h672q12 0 17 -6.5t2 -17.5q-4 -11 -13 -17.5t-21 -6.5h-673q-11 0 -16.5 6.5t-1.5 17.5zM-1 28q0 11 8.5 19.5t24.5 12.5l68 12q17 3 29 11.5t21.5 25.5t18.5 46q12 47 32.5 121.5t45 165.5t51 189.5t53 196t49 184t40 153.5t25.5 103
q7 28 0 41.5t-32 18.5l-67 12q-16 5 -23 11.5t-7 17.5q0 14 10.5 22.5t32.5 8.5h538q138 0 249.5 -46t185.5 -135t101.5 -218t-2.5 -295q-30 -163 -106 -293.5t-189.5 -222.5t-258 -141t-312.5 -49h-550q-21 0 -28.5 8t-7.5 20zM598 64q92 0 176.5 39t157.5 119.5t129 203.5
t88 290q32 160 25.5 277.5t-42.5 193.5t-93 113.5t-126 37.5h-69q-35 0 -60.5 -23t-40.5 -75q-11 -41 -29.5 -107.5t-41 -150.5t-47.5 -176l-50 -184t-47 -176t-39 -151.5t-26 -108.5q-13 -62 3 -92t63 -30h69z" />
    <glyph glyph-name="Ntilde" unicode="&#xd1;" horiz-adv-x="1338" 
d="M254 253l233 879l-56 -9q39 -106 81 -215t82.5 -216t78 -205t69 -182t53.5 -149q13 -27 17.5 -49t3.5 -51q0 -27 12 -41.5t37 -14.5h244q25 0 34 17.5t-1 42.5l-52 154q-10 28 -10.5 46t6.5 44l158 659q14 54 35.5 93t54 70t78.5 58q65 41 94 78.5t30 83.5q0 43 -27.5 68
t-73.5 25q-66 0 -118.5 -54.5t-82.5 -169.5l-238 -979l64 30q-30 80 -62.5 161.5t-66 165.5t-69 171t-72 179t-73 190t-73.5 203q-15 35 -33.5 49.5t-51.5 14.5h-206q-20 0 -30 -10t-9 -24t12 -29l61 -146q15 -22 18.5 -50.5t-5.5 -59.5l-216 -821q-21 -84 -63.5 -130.5
t-92.5 -59.5l-37 -9q-31 -10 -31 -33q0 -13 9.5 -20.5t29.5 -7.5h356q16 0 26 7t10 22q0 11 -7 18t-18 11l-38 8q-58 17 -75.5 63t1.5 124zM1067 1507q-41 0 -71.5 15.5t-55 35.5t-48.5 35.5t-51 15.5q-63 0 -93 -87q-10 -22 -31 -22q-26 0 -16 33q28 109 81 164.5t129 55.5
q42 0 72 -15t54.5 -35t48.5 -35.5t52 -15.5q63 0 92 86q11 23 32 23q25 0 15 -34q-28 -108 -81 -164t-129 -56z" />
    <glyph glyph-name="Ograve" unicode="&#xd2;" 
d="M989 1425q132 -2 233.5 -56t165.5 -152.5t81 -233.5t-21 -300q-40 -172 -122.5 -304.5t-196 -223t-247.5 -135.5t-277 -43q-136 2 -239.5 55.5t-166 153t-75.5 239.5t33 315q39 149 117.5 275t188 218.5t243 142.5t283.5 49zM627 39q68 -2 136.5 30t134.5 107.5
t125.5 203.5t108.5 318q29 116 42.5 205.5t12.5 157.5q0 102 -28 168t-76.5 99.5t-110.5 35.5q-70 2 -141 -34t-137 -113.5t-123 -200t-99 -293.5q-32 -128 -46.5 -223.5t-14.5 -165.5q-1 -152 58.5 -222.5t157.5 -72.5zM998 1713l83 -184q3 -9 3 -17.5t-8 -15.5
q-7 -6 -17.5 -6.5t-18.5 2.5l-180 91q-45 20 -72 47t-20 74q3 33 33.5 65t74.5 38q45 7 73.5 -19.5t48.5 -74.5z" />
    <glyph glyph-name="Oacute" unicode="&#xd3;" 
d="M989 1425q132 -2 233.5 -56t165.5 -152.5t81 -233.5t-21 -300q-40 -172 -122.5 -304.5t-196 -223t-247.5 -135.5t-277 -43q-136 2 -239.5 55.5t-166 153t-75.5 239.5t33 315q39 149 117.5 275t188 218.5t243 142.5t283.5 49zM627 39q68 -2 136.5 30t134.5 107.5
t125.5 203.5t108.5 318q29 116 42.5 205.5t12.5 157.5q0 102 -28 168t-76.5 99.5t-110.5 35.5q-70 2 -141 -34t-137 -113.5t-123 -200t-99 -293.5q-32 -128 -46.5 -223.5t-14.5 -165.5q-1 -152 58.5 -222.5t157.5 -72.5zM1178 1717q46 48 88.5 74.5t83.5 19.5q41 -6 54 -38
t-1 -65q-18 -47 -59.5 -74t-96.5 -47l-226 -91q-10 -3 -20 -2.5t-14 6.5q-4 7 1 15.5t13 17.5z" />
    <glyph glyph-name="Ocircumflex" unicode="&#xd4;" 
d="M989 1425q132 -2 233.5 -56t165.5 -152.5t81 -233.5t-21 -300q-40 -172 -122.5 -304.5t-196 -223t-247.5 -135.5t-277 -43q-136 2 -239.5 55.5t-166 153t-75.5 239.5t33 315q39 149 117.5 275t188 218.5t243 142.5t283.5 49zM627 39q68 -2 136.5 30t134.5 107.5
t125.5 203.5t108.5 318q29 116 42.5 205.5t12.5 157.5q0 102 -28 168t-76.5 99.5t-110.5 35.5q-70 2 -141 -34t-137 -113.5t-123 -200t-99 -293.5q-32 -128 -46.5 -223.5t-14.5 -165.5q-1 -152 58.5 -222.5t157.5 -72.5zM1090 1653h-117l251 -152q24 -16 43 -4
q8 5 11.5 15.5t-3.5 21.5l-153 230q-11 17 -21.5 26.5t-30.5 9.5q-19 0 -34.5 -9.5t-36.5 -26.5l-271 -230q-14 -11 -16 -21.5t2 -15.5q7 -6 18.5 -5t27.5 9z" />
    <glyph glyph-name="Otilde" unicode="&#xd5;" 
d="M989 1425q132 -2 233.5 -56t165.5 -152.5t81 -233.5t-21 -300q-40 -172 -122.5 -304.5t-196 -223t-247.5 -135.5t-277 -43q-136 2 -239.5 55.5t-166 153t-75.5 239.5t33 315q39 149 117.5 275t188 218.5t243 142.5t283.5 49zM627 39q68 -2 136.5 30t134.5 107.5
t125.5 203.5t108.5 318q29 116 42.5 205.5t12.5 157.5q0 102 -28 168t-76.5 99.5t-110.5 35.5q-70 2 -141 -34t-137 -113.5t-123 -200t-99 -293.5q-32 -128 -46.5 -223.5t-14.5 -165.5q-1 -152 58.5 -222.5t157.5 -72.5zM1109 1511q-41 0 -71.5 15.5t-55 35.5t-48.5 35.5
t-51 15.5q-63 0 -93 -87q-10 -22 -31 -22q-26 0 -16 33q28 109 81 164.5t129 55.5q42 0 72 -15t54.5 -35t48.5 -35.5t52 -15.5q63 0 92 86q11 23 32 23q25 0 15 -34q-28 -108 -81 -164t-129 -56z" />
    <glyph glyph-name="Odieresis" unicode="&#xd6;" 
d="M989 1425q132 -2 233.5 -56t165.5 -152.5t81 -233.5t-21 -300q-40 -172 -122.5 -304.5t-196 -223t-247.5 -135.5t-277 -43q-136 2 -239.5 55.5t-166 153t-75.5 239.5t33 315q39 149 117.5 275t188 218.5t243 142.5t283.5 49zM627 39q68 -2 136.5 30t134.5 107.5
t125.5 203.5t108.5 318q29 116 42.5 205.5t12.5 157.5q0 102 -28 168t-76.5 99.5t-110.5 35.5q-70 2 -141 -34t-137 -113.5t-123 -200t-99 -293.5q-32 -128 -46.5 -223.5t-14.5 -165.5q-1 -152 58.5 -222.5t157.5 -72.5zM811 1504q-59 0 -86 35t-13 91q16 58 61.5 93
t105.5 35t86.5 -35t11.5 -93q-15 -55 -60 -90.5t-106 -35.5zM1185 1504q-59 0 -86.5 35t-12.5 92q15 56 61 91.5t105 35.5q62 0 88.5 -35t11.5 -93q-15 -55 -60.5 -90.5t-106.5 -35.5z" />
    <glyph glyph-name="multiply" unicode="&#xd7;" horiz-adv-x="945" 
d="M129 315q-10 12 -6 24.5t23 26.5l768 679q16 12 30 12.5t24 -10.5q11 -12 8 -23.5t-21 -25.5l-768 -679q-17 -12 -32.5 -13.5t-25.5 9.5zM777 316q-15 -11 -30.5 -9t-23.5 12l-417 679q-9 12 -4.5 24.5t19.5 22.5q32 22 52 -3l418 -679q8 -11 5 -24t-19 -23z" />
    <glyph glyph-name="Oslash" unicode="&#xd8;" 
d="M92 -72q-8 5 -8 13.5t8 17.5l1361 1500q7 9 17 11.5t18 -2.5t8 -13t-8 -16l-1361 -1502q-8 -9 -17.5 -11.5t-17.5 2.5zM991 1425q132 -2 234 -56t165.5 -152.5t81 -233.5t-21.5 -300q-40 -172 -122.5 -304.5t-196 -223t-247.5 -135.5t-277 -43q-136 2 -239.5 55.5
t-166 153t-75.5 239.5t33 315q39 149 117.5 275t188 218.5t243.5 142.5t283 49zM629 39q68 -2 136.5 30t134.5 107.5t125.5 203.5t108.5 318q29 116 42.5 205.5t12.5 157.5q1 102 -27.5 168t-77 99.5t-109.5 35.5q-70 2 -141.5 -34t-137 -113.5t-122.5 -200t-100 -293.5
q-31 -128 -46 -223.5t-15 -165.5q-1 -152 58.5 -222.5t157.5 -72.5z" />
    <glyph glyph-name="Ugrave" unicode="&#xd9;" horiz-adv-x="1344" 
d="M1055 426l205 696q25 92 6 142.5t-74 64.5l-39 7q-20 8 -28 15.5t-7 19.5q0 12 10.5 20.5t31.5 8.5h374q17 0 25.5 -7t8.5 -19q0 -14 -8.5 -22t-28.5 -15l-41 -9q-51 -16 -90.5 -64t-68.5 -147l-203 -695q-45 -156 -119 -254t-180.5 -144.5t-251.5 -46.5
q-132 0 -219.5 44t-131.5 120t-43 172q1 36 10.5 90.5t23.5 114.5t29 112l173 628q8 26 0.5 45.5t-27.5 24.5l-69 12q-16 8 -22.5 14.5t-5.5 18.5q0 12 10 19.5t27 7.5h504q35 0 35 -25q-1 -11 -9 -21t-27 -15l-74 -14q-23 -5 -35.5 -22t-23.5 -56l-170 -616
q-34 -123 -49 -203t-16 -134q-1 -115 58.5 -172t162.5 -57q121 0 216 83.5t151 277.5zM988 1713l83 -184q3 -9 3 -17.5t-8 -15.5q-7 -6 -17.5 -6.5t-18.5 2.5l-180 91q-45 20 -72 47t-20 74q3 33 33.5 65t74.5 38q45 7 73.5 -19.5t48.5 -74.5z" />
    <glyph glyph-name="Uacute" unicode="&#xda;" horiz-adv-x="1344" 
d="M1055 426l205 696q25 92 6 142.5t-74 64.5l-39 7q-20 8 -28 15.5t-7 19.5q0 12 10.5 20.5t31.5 8.5h374q17 0 25.5 -7t8.5 -19q0 -14 -8.5 -22t-28.5 -15l-41 -9q-51 -16 -90.5 -64t-68.5 -147l-203 -695q-45 -156 -119 -254t-180.5 -144.5t-251.5 -46.5
q-132 0 -219.5 44t-131.5 120t-43 172q1 36 10.5 90.5t23.5 114.5t29 112l173 628q8 26 0.5 45.5t-27.5 24.5l-69 12q-16 8 -22.5 14.5t-5.5 18.5q0 12 10 19.5t27 7.5h504q35 0 35 -25q-1 -11 -9 -21t-27 -15l-74 -14q-23 -5 -35.5 -22t-23.5 -56l-170 -616
q-34 -123 -49 -203t-16 -134q-1 -115 58.5 -172t162.5 -57q121 0 216 83.5t151 277.5zM1169 1713q46 48 88.5 74.5t83.5 19.5q41 -6 54 -38t-1 -65q-18 -47 -59.5 -74t-96.5 -47l-226 -91q-10 -3 -20 -2.5t-14 6.5q-4 7 1 15.5t13 17.5z" />
    <glyph glyph-name="Ucircumflex" unicode="&#xdb;" horiz-adv-x="1344" 
d="M1055 426l205 696q25 92 6 142.5t-74 64.5l-39 7q-20 8 -28 15.5t-7 19.5q0 12 10.5 20.5t31.5 8.5h374q17 0 25.5 -7t8.5 -19q0 -14 -8.5 -22t-28.5 -15l-41 -9q-51 -16 -90.5 -64t-68.5 -147l-203 -695q-45 -156 -119 -254t-180.5 -144.5t-251.5 -46.5
q-132 0 -219.5 44t-131.5 120t-43 172q1 36 10.5 90.5t23.5 114.5t29 112l173 628q8 26 0.5 45.5t-27.5 24.5l-69 12q-16 8 -22.5 14.5t-5.5 18.5q0 12 10 19.5t27 7.5h504q35 0 35 -25q-1 -11 -9 -21t-27 -15l-74 -14q-23 -5 -35.5 -22t-23.5 -56l-170 -616
q-34 -123 -49 -203t-16 -134q-1 -115 58.5 -172t162.5 -57q121 0 216 83.5t151 277.5zM1081 1653h-117l251 -152q24 -16 43 -4q8 5 11.5 15.5t-3.5 21.5l-153 230q-11 17 -21.5 26.5t-30.5 9.5q-19 0 -34.5 -9.5t-36.5 -26.5l-271 -230q-14 -11 -16 -21.5t2 -15.5
q7 -6 18.5 -5t27.5 9z" />
    <glyph glyph-name="Udieresis" unicode="&#xdc;" horiz-adv-x="1344" 
d="M1055 426l205 696q25 92 6 142.5t-74 64.5l-39 7q-20 8 -28 15.5t-7 19.5q0 12 10.5 20.5t31.5 8.5h374q17 0 25.5 -7t8.5 -19q0 -14 -8.5 -22t-28.5 -15l-41 -9q-51 -16 -90.5 -64t-68.5 -147l-203 -695q-45 -156 -119 -254t-180.5 -144.5t-251.5 -46.5
q-132 0 -219.5 44t-131.5 120t-43 172q1 36 10.5 90.5t23.5 114.5t29 112l173 628q8 26 0.5 45.5t-27.5 24.5l-69 12q-16 8 -22.5 14.5t-5.5 18.5q0 12 10 19.5t27 7.5h504q35 0 35 -25q-1 -11 -9 -21t-27 -15l-74 -14q-23 -5 -35.5 -22t-23.5 -56l-170 -616
q-34 -123 -49 -203t-16 -134q-1 -115 58.5 -172t162.5 -57q121 0 216 83.5t151 277.5zM801 1504q-59 0 -86 35t-13 91q16 58 61.5 93t105.5 35t86.5 -35t11.5 -93q-15 -55 -60 -90.5t-106 -35.5zM1175 1504q-59 0 -86.5 35t-12.5 92q15 56 61 91.5t105 35.5q62 0 88.5 -35
t11.5 -93q-15 -55 -60.5 -90.5t-106.5 -35.5z" />
    <glyph glyph-name="Yacute" unicode="&#xdd;" horiz-adv-x="1156" 
d="M667 482l386 717q50 90 92.5 141.5t82.5 72.5t85 21q50 0 77 -26t27 -66q0 -52 -41 -88t-121 -61q-47 -14 -86 -35t-72 -55t-64 -89l-290 -526q-15 -25 -22 -44t-12 -38l-70 -279q-6 -23 1.5 -37t31.5 -19l64 -11q17 -5 23 -12t6 -16q0 -15 -12 -23.5t-34 -8.5h-495
q-20 0 -28 7.5t-8 20.5q0 23 33 33l68 11q29 5 43.5 21t22.5 43l76 284q7 26 5.5 51.5t-5.5 52.5q-3 19 -10 76.5t-16.5 136.5t-19.5 164.5t-19.5 163.5t-17 133.5t-10.5 71.5q-6 32 -25.5 47.5t-67.5 21.5q-16 4 -24 11t-8 18q0 15 11 23.5t31 8.5h259q41 0 61.5 -17.5
t26.5 -53.5q4 -20 12 -82t19 -148.5t23 -182.5t23 -185t20 -155t13 -91zM1050 1713q46 48 88.5 74.5t83.5 19.5q41 -6 54 -38t-1 -65q-18 -47 -59.5 -74t-96.5 -47l-226 -91q-10 -3 -20 -2.5t-14 6.5q-4 7 1 15.5t13 17.5z" />
    <glyph glyph-name="Thorn" unicode="&#xde;" horiz-adv-x="1324" 
d="M436 125q-6 -24 2 -36.5t30 -17.5l64 -12q14 -4 21 -10.5t6 -17.5q0 -14 -11.5 -22.5t-30.5 -8.5h-496q-21 0 -28.5 8t-7.5 20q0 13 9.5 21t24.5 12l66 11q25 5 39 17t22 37q19 68 44.5 159.5t54.5 197t58.5 216t57.5 217t52 200t41 163.5q5 21 -3 32t-29 16l-64 13
q-16 5 -22.5 11.5t-5.5 17.5q0 14 12 22.5t34 8.5h494q21 0 28 -7.5t7 -19.5t-9.5 -20t-26.5 -13l-69 -15q-24 -5 -37 -15.5t-19 -32.5q-20 -71 -47 -167.5t-56.5 -206t-60 -222t-58 -218t-50 -193t-36.5 -145.5zM1324 666q-34 -127 -123.5 -215t-218 -133.5t-283.5 -44.5
q-68 0 -126.5 10.5t-106 31t-81.5 49.5l28 47q29 -25 67 -42.5t79.5 -26t79.5 -8.5q85 -1 159 34.5t131 109.5t89 190q35 131 18.5 227t-84 148t-184.5 52h-191l17 56h237q194 0 318 -62t169.5 -171.5t5.5 -251.5z" />
    <glyph glyph-name="germandbls" unicode="&#xdf;" horiz-adv-x="1244" 
d="M-15 -218l270 968q8 24 1.5 39t-25.5 21l-71 24q-15 9 -24 16t-5 20q3 13 16.5 19.5t32.5 6.5h172l-64 -35l33 118q38 142 119 248t205 165t293 59q144 0 228.5 -46t112 -125.5t0.5 -180.5q-27 -99 -99 -176.5t-181.5 -123t-247.5 -49.5l6 17q171 0 274.5 -64.5
t139 -172.5t0.5 -238q-27 -102 -94.5 -173.5t-167.5 -108.5t-225 -37q-109 0 -169.5 28t-76.5 90t9 164q11 44 21.5 58.5t22.5 14.5q15 0 21.5 -8t9.5 -21l6 -92q2 -82 38.5 -126t99.5 -44q50 0 94.5 26t81 86.5t63.5 163.5q31 116 11.5 205t-85 139.5t-173.5 51.5
q-20 0 -30 8t-6 23q3 13 13.5 21t34.5 17q146 23 227 110t119 235q22 82 14.5 143.5t-40.5 96t-89 34.5q-71 0 -134 -43t-114 -130.5t-87 -219.5l-296 -1087q-9 -31 -12.5 -54.5t-3.5 -41.5q0 -27 13.5 -43.5t27 -30t13.5 -32.5q0 -26 -35.5 -52.5t-92 -44.5t-120.5 -18
q-67 0 -84 44t9 138z" />
    <glyph glyph-name="agrave" unicode="&#xe0;" horiz-adv-x="1074" 
d="M851 264q-22 -87 -16.5 -117t29.5 -30q19 0 38.5 13t49.5 46q13 13 21 16.5t16 -0.5q9 -4 9 -17t-10 -33q-41 -74 -113.5 -118.5t-159.5 -44.5q-65 0 -94 30.5t-29 87.5q0 21 4 49t12 65.5t21.5 86.5t31.5 111l16 -28q-46 -126 -111 -216t-144.5 -138t-170.5 -48
q-110 0 -168.5 74.5t-42.5 227.5q9 98 48.5 192t104.5 175.5t151 143t189 97t218 35.5q91 0 156 -13t99.5 -33t32.5 -41q-1 -18 -13.5 -27t-25.5 -18t-19 -29zM302 272q-11 -98 11 -137.5t60 -39.5q36 0 75.5 29.5t79.5 86t78 135.5t71.5 178t58.5 214q13 59 4 89t-45 30
q-54 0 -107 -34t-101 -93t-87 -134.5t-64.5 -158.5t-33.5 -165zM697 1252l38 -208q3 -9 2 -17.5t-10 -15.5q-8 -6 -18.5 -6t-18.5 4l-151 132q-37 29 -56.5 60.5t-11.5 74.5q6 34 37.5 65t79.5 34q50 4 74.5 -29t34.5 -94z" />
    <glyph glyph-name="aacute" unicode="&#xe1;" horiz-adv-x="1074" 
d="M851 264q-22 -87 -16.5 -117t29.5 -30q19 0 38.5 13t49.5 46q13 13 21 16.5t16 -0.5q9 -4 9 -17t-10 -33q-41 -74 -113.5 -118.5t-159.5 -44.5q-65 0 -94 30.5t-29 87.5q0 21 4 49t12 65.5t21.5 86.5t31.5 111l16 -28q-46 -126 -111 -216t-144.5 -138t-170.5 -48
q-110 0 -168.5 74.5t-42.5 227.5q9 98 48.5 192t104.5 175.5t151 143t189 97t218 35.5q91 0 156 -13t99.5 -33t32.5 -41q-1 -18 -13.5 -27t-25.5 -18t-19 -29zM302 272q-11 -98 11 -137.5t60 -39.5q36 0 75.5 29.5t79.5 86t78 135.5t71.5 178t58.5 214q13 59 4 89t-45 30
q-54 0 -107 -34t-101 -93t-87 -134.5t-64.5 -158.5t-33.5 -165zM826 1252q42 61 83.5 94t89.5 29q46 -3 61.5 -34t2.5 -65q-14 -43 -50 -74.5t-89 -60.5l-219 -132q-10 -4 -20 -4t-15 6q-6 7 -1.5 15.5t12.5 17.5z" />
    <glyph glyph-name="acircumflex" unicode="&#xe2;" horiz-adv-x="1074" 
d="M851 264q-22 -87 -16.5 -117t29.5 -30q19 0 38.5 13t49.5 46q13 13 21 16.5t16 -0.5q9 -4 9 -17t-10 -33q-41 -74 -113.5 -118.5t-159.5 -44.5q-65 0 -94 30.5t-29 87.5q0 21 4 49t12 65.5t21.5 86.5t31.5 111l16 -28q-46 -126 -111 -216t-144.5 -138t-170.5 -48
q-110 0 -168.5 74.5t-42.5 227.5q9 98 48.5 192t104.5 175.5t151 143t189 97t218 35.5q91 0 156 -13t99.5 -33t32.5 -41q-1 -18 -13.5 -27t-25.5 -18t-19 -29zM302 272q-11 -98 11 -137.5t60 -39.5q36 0 75.5 29.5t79.5 86t78 135.5t71.5 178t58.5 214q13 59 4 89t-45 30
q-54 0 -107 -34t-101 -93t-87 -134.5t-64.5 -158.5t-33.5 -165zM781 1202h-118l243 -197q10 -9 22 -9.5t21 5.5q8 6 11.5 16t-3.5 22l-145 270q-10 18 -21.5 27.5t-30.5 9.5q-20 0 -36.5 -9.5t-36.5 -27.5l-283 -270q-13 -12 -16 -22t2 -16q7 -6 19 -5.5t27 9.5z" />
    <glyph glyph-name="atilde" unicode="&#xe3;" horiz-adv-x="1074" 
d="M851 264q-22 -87 -16.5 -117t29.5 -30q19 0 38.5 13t49.5 46q13 13 21 16.5t16 -0.5q9 -4 9 -17t-10 -33q-41 -74 -113.5 -118.5t-159.5 -44.5q-65 0 -94 30.5t-29 87.5q0 21 4 49t12 65.5t21.5 86.5t31.5 111l16 -28q-46 -126 -111 -216t-144.5 -138t-170.5 -48
q-110 0 -168.5 74.5t-42.5 227.5q9 98 48.5 192t104.5 175.5t151 143t189 97t218 35.5q91 0 156 -13t99.5 -33t32.5 -41q-1 -18 -13.5 -27t-25.5 -18t-19 -29zM302 272q-11 -98 11 -137.5t60 -39.5q36 0 75.5 29.5t79.5 86t78 135.5t71.5 178t58.5 214q13 59 4 89t-45 30
q-54 0 -107 -34t-101 -93t-87 -134.5t-64.5 -158.5t-33.5 -165zM785 1019q-41 0 -71 17.5t-54.5 41.5t-48 41.5t-51.5 17.5q-32 0 -55.5 -25t-40.5 -76q-11 -23 -32 -23q-26 0 -16 35q31 117 85 176.5t131 59.5q42 0 72 -17.5t54 -41t47.5 -41.5t51.5 -18q34 0 57 25.5
t39 75.5q11 23 33 23q25 0 15 -34q-30 -117 -84.5 -177t-131.5 -60z" />
    <glyph glyph-name="adieresis" unicode="&#xe4;" horiz-adv-x="1074" 
d="M851 264q-22 -87 -16.5 -117t29.5 -30q19 0 38.5 13t49.5 46q13 13 21 16.5t16 -0.5q9 -4 9 -17t-10 -33q-41 -74 -113.5 -118.5t-159.5 -44.5q-65 0 -94 30.5t-29 87.5q0 21 4 49t12 65.5t21.5 86.5t31.5 111l16 -28q-46 -126 -111 -216t-144.5 -138t-170.5 -48
q-110 0 -168.5 74.5t-42.5 227.5q9 98 48.5 192t104.5 175.5t151 143t189 97t218 35.5q91 0 156 -13t99.5 -33t32.5 -41q-1 -18 -13.5 -27t-25.5 -18t-19 -29zM302 272q-11 -98 11 -137.5t60 -39.5q36 0 75.5 29.5t79.5 86t78 135.5t71.5 178t58.5 214q13 59 4 89t-45 30
q-54 0 -107 -34t-101 -93t-87 -134.5t-64.5 -158.5t-33.5 -165zM492 1016q-58 0 -84.5 35.5t-11.5 92.5q15 59 60 94.5t104 35.5t85 -35.5t11 -94.5q-15 -56 -59.5 -92t-104.5 -36zM862 1016q-58 0 -84.5 35.5t-12.5 92.5q16 58 61 94t104 36q60 0 86 -35.5t11 -94.5
q-15 -56 -60 -92t-105 -36z" />
    <glyph glyph-name="aring" unicode="&#xe5;" horiz-adv-x="1074" 
d="M851 264q-22 -87 -16.5 -117t29.5 -30q19 0 38.5 13t49.5 46q13 13 21 16.5t16 -0.5q9 -4 9 -17t-10 -33q-41 -74 -113.5 -118.5t-159.5 -44.5q-65 0 -94 30.5t-29 87.5q0 21 4 49t12 65.5t21.5 86.5t31.5 111l16 -28q-46 -126 -111 -216t-144.5 -138t-170.5 -48
q-110 0 -168.5 74.5t-42.5 227.5q9 98 48.5 192t104.5 175.5t151 143t189 97t218 35.5q91 0 156 -13t99.5 -33t32.5 -41q-1 -18 -13.5 -27t-25.5 -18t-19 -29zM302 272q-11 -98 11 -137.5t60 -39.5q36 0 75.5 29.5t79.5 86t78 135.5t71.5 178t58.5 214q13 59 4 89t-45 30
q-54 0 -107 -34t-101 -93t-87 -134.5t-64.5 -158.5t-33.5 -165zM681 998q-88 0 -136 48.5t-26 131.5t95 131t161 48q89 0 136 -49t26 -130t-94 -130.5t-162 -49.5zM761 1305q-38 0 -71.5 -32.5t-49.5 -94.5q-15 -61 2 -94t55 -33t71 33.5t48 93.5q16 62 0 94.5t-55 32.5z
" />
    <glyph glyph-name="ae" unicode="&#xe6;" horiz-adv-x="1474" 
d="M604 356q11 116 57 219t120.5 182t169.5 124t201 45q88 0 145.5 -35.5t86 -95t30.5 -132.5q1 -14 8 -24t21 -11q11 -1 17 -6.5t6 -16.5t-9 -20.5t-31 -15.5q-32 -9 -93.5 -25t-137.5 -35t-153 -38.5t-142.5 -35.5t-105 -25.5l-39.5 -9.5l-7 53l35 8.5t90.5 22t118 29
t119.5 31t95 27.5l-27 -30q11 31 17.5 72.5t6.5 95.5q1 70 -21 112t-62 42t-81.5 -32t-78 -90.5t-62.5 -138t-35 -174.5q-14 -150 35 -226.5t156 -76.5q86 0 158 50t121 145q13 17 22 23.5t20 5.5q12 -1 19.5 -12.5t0.5 -35.5q-33 -96 -98 -168.5t-159.5 -113t-217.5 -40.5
q-112 0 -187 44.5t-107.5 129t-21.5 203.5zM198 696q18 60 74.5 112t147 84t208.5 32q100 0 162 -40t84 -114t2 -176l-236 -72l44 158q16 62 8.5 105t-31.5 66t-60 23q-53 0 -92.5 -31t-53.5 -79l-17 -64q-16 -54 -61 -87.5t-108 -32.5q-46 0 -67 29.5t-4 86.5zM29 192
q19 78 94 138.5t209 105t331 76.5l11 -44q-122 -21 -198.5 -55t-116.5 -79.5t-51 -100.5q-14 -61 13 -101.5t82 -40.5q44 0 89.5 18.5t89 55.5t81.5 89l9 -39q-51 -74 -121.5 -127.5t-151.5 -81.5t-167 -28q-75 0 -126 28.5t-71.5 77t-5.5 108.5z" />
    <glyph glyph-name="ccedilla" unicode="&#xe7;" horiz-adv-x="901" 
d="M593 861q-53 0 -107.5 -47t-96.5 -132.5t-59 -201.5q-26 -180 22.5 -267t151.5 -87q48 0 94 20t85 61t67 101q14 19 23 28t21 8q13 -1 19.5 -14t-0.5 -37q-21 -67 -60 -124.5t-95.5 -100t-129 -66.5t-159.5 -24q-177 0 -261 115t-52 322q16 106 64 199t122 163.5
t168.5 110t201.5 39.5q95 0 158 -31.5t93 -83t26 -112.5q-4 -64 -42.5 -97t-85.5 -33q-44 0 -70 24t-25 63q1 32 8.5 57t7.5 59q0 38 -22.5 63t-66.5 25zM403 8h49l-115 -139l-26 10q17 2 34 3t44 1q93 0 134 -40.5t24 -106.5q-19 -72 -85.5 -116t-163.5 -44
q-79 0 -122 29.5t-43 70.5q2 11 10 18t17 8q10 2 16 -2t10 -11q9 -31 34 -45.5t58 -14.5q84 0 111 108q12 47 -5 74.5t-64 27.5h-25q-16 0 -17 9.5t10 21.5z" />
    <glyph glyph-name="egrave" unicode="&#xe8;" horiz-adv-x="936" 
d="M184 418l36 12.5t94 32t123 42t125 43t99 34.5l-26 -29q10 29 16.5 70t7.5 96q0 64 -22 104t-62 40t-81 -31.5t-77.5 -88.5t-62.5 -136.5t-37 -176.5q-16 -149 35.5 -227.5t158.5 -78.5q57 0 109 22.5t95.5 66t74.5 106.5q12 18 21.5 24t19.5 5q13 0 20 -12t0 -36
q-29 -92 -92.5 -164.5t-159 -114.5t-223.5 -42q-117 0 -194 45.5t-110.5 131.5t-20.5 208q11 116 58.5 217.5t123.5 179t171.5 121.5t203.5 44q87 0 144 -33t86 -88t32 -121q1 -15 7.5 -25t21.5 -11q11 -1 16 -6t5 -14q1 -11 -8.5 -21t-35.5 -18q-29 -9 -90.5 -29t-139 -45
t-157 -51.5t-147 -48.5t-109 -36l-41.5 -14zM579 1252l38 -208q3 -9 2 -17.5t-10 -15.5q-8 -6 -18.5 -6t-18.5 4l-151 132q-37 29 -56.5 60.5t-11.5 74.5q6 34 37.5 65t79.5 34q50 4 74.5 -29t34.5 -94z" />
    <glyph glyph-name="eacute" unicode="&#xe9;" horiz-adv-x="936" 
d="M184 418l36 12.5t94 32t123 42t125 43t99 34.5l-26 -29q10 29 16.5 70t7.5 96q0 64 -22 104t-62 40t-81 -31.5t-77.5 -88.5t-62.5 -136.5t-37 -176.5q-16 -149 35.5 -227.5t158.5 -78.5q57 0 109 22.5t95.5 66t74.5 106.5q12 18 21.5 24t19.5 5q13 0 20 -12t0 -36
q-29 -92 -92.5 -164.5t-159 -114.5t-223.5 -42q-117 0 -194 45.5t-110.5 131.5t-20.5 208q11 116 58.5 217.5t123.5 179t171.5 121.5t203.5 44q87 0 144 -33t86 -88t32 -121q1 -15 7.5 -25t21.5 -11q11 -1 16 -6t5 -14q1 -11 -8.5 -21t-35.5 -18q-29 -9 -90.5 -29t-139 -45
t-157 -51.5t-147 -48.5t-109 -36l-41.5 -14zM707 1252q42 61 83.5 94t89.5 29q46 -3 61.5 -34t2.5 -65q-14 -43 -50 -74.5t-89 -60.5l-219 -132q-10 -4 -20 -4t-15 6q-6 7 -1.5 15.5t12.5 17.5z" />
    <glyph glyph-name="ecircumflex" unicode="&#xea;" horiz-adv-x="936" 
d="M184 418l36 12.5t94 32t123 42t125 43t99 34.5l-26 -29q10 29 16.5 70t7.5 96q0 64 -22 104t-62 40t-81 -31.5t-77.5 -88.5t-62.5 -136.5t-37 -176.5q-16 -149 35.5 -227.5t158.5 -78.5q57 0 109 22.5t95.5 66t74.5 106.5q12 18 21.5 24t19.5 5q13 0 20 -12t0 -36
q-29 -92 -92.5 -164.5t-159 -114.5t-223.5 -42q-117 0 -194 45.5t-110.5 131.5t-20.5 208q11 116 58.5 217.5t123.5 179t171.5 121.5t203.5 44q87 0 144 -33t86 -88t32 -121q1 -15 7.5 -25t21.5 -11q11 -1 16 -6t5 -14q1 -11 -8.5 -21t-35.5 -18q-29 -9 -90.5 -29t-139 -45
t-157 -51.5t-147 -48.5t-109 -36l-41.5 -14zM665 1202h-118l243 -197q10 -9 22 -9.5t21 5.5q8 6 11.5 16t-3.5 22l-145 270q-10 18 -21.5 27.5t-30.5 9.5q-20 0 -36.5 -9.5t-36.5 -27.5l-283 -270q-13 -12 -16 -22t2 -16q7 -6 19 -5.5t27 9.5z" />
    <glyph glyph-name="edieresis" unicode="&#xeb;" horiz-adv-x="936" 
d="M184 418l36 12.5t94 32t123 42t125 43t99 34.5l-26 -29q10 29 16.5 70t7.5 96q0 64 -22 104t-62 40t-81 -31.5t-77.5 -88.5t-62.5 -136.5t-37 -176.5q-16 -149 35.5 -227.5t158.5 -78.5q57 0 109 22.5t95.5 66t74.5 106.5q12 18 21.5 24t19.5 5q13 0 20 -12t0 -36
q-29 -92 -92.5 -164.5t-159 -114.5t-223.5 -42q-117 0 -194 45.5t-110.5 131.5t-20.5 208q11 116 58.5 217.5t123.5 179t171.5 121.5t203.5 44q87 0 144 -33t86 -88t32 -121q1 -15 7.5 -25t21.5 -11q11 -1 16 -6t5 -14q1 -11 -8.5 -21t-35.5 -18q-29 -9 -90.5 -29t-139 -45
t-157 -51.5t-147 -48.5t-109 -36l-41.5 -14zM374 1016q-58 0 -84.5 35.5t-11.5 92.5q15 59 60 94.5t104 35.5t85 -35.5t11 -94.5q-15 -56 -59.5 -92t-104.5 -36zM744 1016q-58 0 -84.5 35.5t-12.5 92.5q16 58 61 94t104 36q60 0 86 -35.5t11 -94.5q-15 -56 -60 -92t-105 -36
z" />
    <glyph glyph-name="igrave" unicode="&#xec;" horiz-adv-x="606" 
d="M380 120q-28 0 -34.5 30t21.5 111l143 420q31 83 25.5 137t-40.5 81t-95 27q-84 0 -162.5 -50.5t-130.5 -131.5q-11 -15 -11 -27t9 -17q8 -3 16.5 -0.5t19.5 9.5q36 40 59.5 54.5t41.5 14.5q29 0 33.5 -31t-26.5 -114l-145 -424q-28 -74 -25.5 -125.5t37 -77.5t100.5 -26
q99 0 173 46t114 119q11 19 11 32t-9 17q-7 5 -14.5 2t-17.5 -12q-32 -37 -53 -50.5t-40 -13.5zM422 1252l38 -208q3 -9 2 -17.5t-10 -15.5q-8 -6 -18.5 -6t-18.5 4l-151 132q-37 29 -56.5 60.5t-11.5 74.5q6 34 37.5 65t79.5 34q50 4 74.5 -29t34.5 -94z" />
    <glyph glyph-name="iacute" unicode="&#xed;" horiz-adv-x="606" 
d="M380 120q-28 0 -34.5 30t21.5 111l143 420q31 83 25.5 137t-40.5 81t-95 27q-84 0 -162.5 -50.5t-130.5 -131.5q-11 -15 -11 -27t9 -17q8 -3 16.5 -0.5t19.5 9.5q36 40 59.5 54.5t41.5 14.5q29 0 33.5 -31t-26.5 -114l-145 -424q-28 -74 -25.5 -125.5t37 -77.5t100.5 -26
q99 0 173 46t114 119q11 19 11 32t-9 17q-7 5 -14.5 2t-17.5 -12q-32 -37 -53 -50.5t-40 -13.5zM550 1252q42 61 83.5 94t89.5 29q46 -3 61.5 -34t2.5 -65q-14 -43 -50 -74.5t-89 -60.5l-219 -132q-10 -4 -20 -4t-15 6q-6 7 -1.5 15.5t12.5 17.5z" />
    <glyph glyph-name="icircumflex" unicode="&#xee;" horiz-adv-x="606" 
d="M380 120q-28 0 -34.5 30t21.5 111l143 420q31 83 25.5 137t-40.5 81t-95 27q-84 0 -162.5 -50.5t-130.5 -131.5q-11 -15 -11 -27t9 -17q8 -3 16.5 -0.5t19.5 9.5q36 40 59.5 54.5t41.5 14.5q29 0 33.5 -31t-26.5 -114l-145 -424q-28 -74 -25.5 -125.5t37 -77.5t100.5 -26
q99 0 173 46t114 119q11 19 11 32t-9 17q-7 5 -14.5 2t-17.5 -12q-32 -37 -53 -50.5t-40 -13.5zM503.839 1206h-100.297l206.544 -197q8.5 -9 18.6992 -9.5t17.8496 5.5q6.7998 6 9.77441 16q2.97559 10 -2.97461 22l-123.247 270q-8.49902 18 -18.2744 27.5
q-9.77441 9.5 -25.9238 9.5q-16.999 0 -31.0244 -9.5q-14.0244 -9.5 -31.0234 -27.5l-240.543 -270q-11.0498 -12 -13.5996 -22q-2.55078 -10 1.69922 -16q5.9502 -6 16.1494 -5.5q10.2002 0.5 22.9502 9.5z" />
    <glyph glyph-name="idieresis" unicode="&#xef;" horiz-adv-x="606" 
d="M380 120q-28 0 -34.5 30t21.5 111l143 420q31 83 25.5 137t-40.5 81t-95 27q-84 0 -162.5 -50.5t-130.5 -131.5q-11 -15 -11 -27t9 -17q8 -3 16.5 -0.5t19.5 9.5q36 40 59.5 54.5t41.5 14.5q29 0 33.5 -31t-26.5 -114l-145 -424q-28 -74 -25.5 -125.5t37 -77.5t100.5 -26
q99 0 173 46t114 119q11 19 11 32t-9 17q-7 5 -14.5 2t-17.5 -12q-32 -37 -53 -50.5t-40 -13.5zM282.197 1016q-46.3984 0 -67.5986 35.5q-21.1992 35.5 -9.2002 92.5q12 59 48 94.5q35.999 35.5 83.1982 35.5t67.999 -35.5t8.7998 -94.5q-12 -56 -47.5986 -92
q-35.5996 -36 -83.5996 -36zM578.193 1016q-46.3994 0 -67.5996 35.5q-21.1992 35.5 -9.99902 92.5q12.7998 58 48.7988 94t83.1992 36q47.999 0 68.7988 -35.5t8.7998 -94.5q-12 -56 -48 -92q-35.999 -36 -83.998 -36z" />
    <glyph glyph-name="eth" unicode="&#xf0;" horiz-adv-x="1030" 
d="M978 490q-47 -173 -134.5 -287t-203.5 -170t-247 -56q-134 1 -220.5 71t-114.5 191t13 276q25 90 75 167t119 133.5t150 87.5t167 30q101 0 151.5 -59t44.5 -175l-21 -5q14 155 5 281t-38.5 221.5t-79 158.5t-115.5 92q-16 7 -21 15.5t-1 19.5t18 16.5t36 2.5
q129 -28 228.5 -119t159.5 -229t69.5 -307.5t-40.5 -355.5zM417 44q33 -1 69 28t70.5 81t65.5 120t54.5 146.5t35.5 159.5q19 90 11.5 152.5t-36.5 95.5t-77 34q-39 1 -77 -29.5t-73.5 -84.5t-65.5 -123t-51.5 -144.5t-33.5 -150.5q-18 -90 -9 -153.5t40 -97t77 -34.5z
M1101 1380l-658 -277q-13 -4 -21 -1t-10 12q-5 21 22 32l658 277q16 5 24 1.5t10 -12.5t-4 -17.5t-21 -14.5z" />
    <glyph glyph-name="ntilde" unicode="&#xf1;" horiz-adv-x="1139" 
d="M105 699q-9 4 -9 16.5t10 30.5q48 81 126.5 129t169.5 48q59 0 91 -25.5t32 -75.5q0 -32 -13 -74.5t-32 -92t-40 -103t-37 -107.5l-11 17q56 131 122.5 219.5t137 141.5t138 76.5t124.5 23.5q77 0 112 -33.5t35.5 -95.5t-27.5 -146l-128 -390q-27 -81 -19.5 -110.5
t31.5 -29.5q18 0 38.5 13t50.5 47q13 13 20.5 16t15.5 -1q9 -4 9 -16.5t-10 -33.5q-40 -74 -114 -119t-174 -45q-67 0 -100 26.5t-35 78.5t23 127l129 392q31 91 21.5 127t-55.5 36q-33 0 -76 -24t-90.5 -73t-92.5 -124.5t-81 -179.5q-20 -57 -32 -97t-17 -67t-5 -45
q0 -24 8.5 -41t8.5 -40q0 -43 -56.5 -69.5t-155.5 -26.5q-70 0 -84 40.5t14 122.5l167 494q27 79 21 109t-31 30q-17 0 -38.5 -13t-55.5 -49q-12 -11 -20 -14t-16 0zM787 1019q-41 0 -71 17.5t-54.5 41.5t-48 41.5t-51.5 17.5q-32 0 -55.5 -25t-40.5 -76q-11 -23 -32 -23
q-26 0 -16 35q31 117 85 176.5t131 59.5q42 0 72 -17.5t54 -41t47.5 -41.5t51.5 -18q34 0 57 25.5t39 75.5q11 23 33 23q25 0 15 -34q-30 -117 -84.5 -177t-131.5 -60z" />
    <glyph glyph-name="ograve" unicode="&#xf2;" horiz-adv-x="1027" 
d="M612 926q127 -2 216 -58t128 -157.5t17 -240.5q-18 -107 -65.5 -197.5t-120.5 -157t-167.5 -102t-204.5 -34.5q-123 1 -212 55.5t-129.5 155.5t-18.5 241q18 112 66.5 203.5t122.5 157.5t167.5 101t200.5 33zM414 48q37 -3 73.5 23t71 74t64 111.5t51.5 137.5t34 151
q20 104 13.5 171.5t-33.5 102t-71 38.5q-37 3 -74.5 -22.5t-72 -73t-64.5 -111.5t-52.5 -139t-34.5 -155q-20 -105 -13 -172t35.5 -100t72.5 -36zM647 1252l38 -208q3 -9 2 -17.5t-10 -15.5q-8 -6 -18.5 -6t-18.5 4l-151 132q-37 29 -56.5 60.5t-11.5 74.5q6 34 37.5 65
t79.5 34q50 4 74.5 -29t34.5 -94z" />
    <glyph glyph-name="oacute" unicode="&#xf3;" horiz-adv-x="1027" 
d="M612 926q127 -2 216 -58t128 -157.5t17 -240.5q-18 -107 -65.5 -197.5t-120.5 -157t-167.5 -102t-204.5 -34.5q-123 1 -212 55.5t-129.5 155.5t-18.5 241q18 112 66.5 203.5t122.5 157.5t167.5 101t200.5 33zM414 48q37 -3 73.5 23t71 74t64 111.5t51.5 137.5t34 151
q20 104 13.5 171.5t-33.5 102t-71 38.5q-37 3 -74.5 -22.5t-72 -73t-64.5 -111.5t-52.5 -139t-34.5 -155q-20 -105 -13 -172t35.5 -100t72.5 -36zM775 1252q42 61 83.5 94t89.5 29q46 -3 61.5 -34t2.5 -65q-14 -43 -50 -74.5t-89 -60.5l-219 -132q-10 -4 -20 -4t-15 6
q-6 7 -1.5 15.5t12.5 17.5z" />
    <glyph glyph-name="ocircumflex" unicode="&#xf4;" horiz-adv-x="1027" 
d="M612 926q127 -2 216 -58t128 -157.5t17 -240.5q-18 -107 -65.5 -197.5t-120.5 -157t-167.5 -102t-204.5 -34.5q-123 1 -212 55.5t-129.5 155.5t-18.5 241q18 112 66.5 203.5t122.5 157.5t167.5 101t200.5 33zM414 48q37 -3 73.5 23t71 74t64 111.5t51.5 137.5t34 151
q20 104 13.5 171.5t-33.5 102t-71 38.5q-37 3 -74.5 -22.5t-72 -73t-64.5 -111.5t-52.5 -139t-34.5 -155q-20 -105 -13 -172t35.5 -100t72.5 -36zM731 1202h-118l243 -197q10 -9 22 -9.5t21 5.5q8 6 11.5 16t-3.5 22l-145 270q-10 18 -21.5 27.5t-30.5 9.5q-20 0 -36.5 -9.5
t-36.5 -27.5l-283 -270q-13 -12 -16 -22t2 -16q7 -6 19 -5.5t27 9.5z" />
    <glyph glyph-name="otilde" unicode="&#xf5;" horiz-adv-x="1027" 
d="M612 926q127 -2 216 -58t128 -157.5t17 -240.5q-18 -107 -65.5 -197.5t-120.5 -157t-167.5 -102t-204.5 -34.5q-123 1 -212 55.5t-129.5 155.5t-18.5 241q18 112 66.5 203.5t122.5 157.5t167.5 101t200.5 33zM414 48q37 -3 73.5 23t71 74t64 111.5t51.5 137.5t34 151
q20 104 13.5 171.5t-33.5 102t-71 38.5q-37 3 -74.5 -22.5t-72 -73t-64.5 -111.5t-52.5 -139t-34.5 -155q-20 -105 -13 -172t35.5 -100t72.5 -36zM734 1019q-41 0 -71 17.5t-54.5 41.5t-48 41.5t-51.5 17.5q-32 0 -55.5 -25t-40.5 -76q-11 -23 -32 -23q-26 0 -16 35
q31 117 85 176.5t131 59.5q42 0 72 -17.5t54 -41t47.5 -41.5t51.5 -18q34 0 57 25.5t39 75.5q11 23 33 23q25 0 15 -34q-30 -117 -84.5 -177t-131.5 -60z" />
    <glyph glyph-name="odieresis" unicode="&#xf6;" horiz-adv-x="1027" 
d="M612 926q127 -2 216 -58t128 -157.5t17 -240.5q-18 -107 -65.5 -197.5t-120.5 -157t-167.5 -102t-204.5 -34.5q-123 1 -212 55.5t-129.5 155.5t-18.5 241q18 112 66.5 203.5t122.5 157.5t167.5 101t200.5 33zM414 48q37 -3 73.5 23t71 74t64 111.5t51.5 137.5t34 151
q20 104 13.5 171.5t-33.5 102t-71 38.5q-37 3 -74.5 -22.5t-72 -73t-64.5 -111.5t-52.5 -139t-34.5 -155q-20 -105 -13 -172t35.5 -100t72.5 -36zM442 1016q-58 0 -84.5 35.5t-11.5 92.5q15 59 60 94.5t104 35.5t85 -35.5t11 -94.5q-15 -56 -59.5 -92t-104.5 -36zM812 1016
q-58 0 -84.5 35.5t-12.5 92.5q16 58 61 94t104 36q60 0 86 -35.5t11 -94.5q-15 -56 -60 -92t-105 -36z" />
    <glyph glyph-name="divide" unicode="&#xf7;" horiz-adv-x="1021" 
d="M664.426 985.039q-39.0938 0 -60.1436 19.3691q-21.0508 19.3691 -19.2461 48.6992q1.20312 24.9033 17.1406 45.6562q15.9385 20.7529 43.6045 33.4805q27.666 12.7285 63.7529 12.7285q40.2969 0 60.1436 -20.1992q19.8477 -20.1992 18.0439 -50.083
q-1.20312 -23.2432 -16.54 -43.7188q-15.3369 -20.4766 -42.4014 -33.2051q-27.0645 -12.7275 -64.3545 -12.7275zM170 682q4 16 18 25t29 9h732q15 0 22.5 -9t2.5 -25q-4 -16 -19 -25t-31 -9h-724q-17 0 -26 9t-4 25zM475.426 247.039q-39.0938 0 -60.1436 19.3691
q-21.0508 19.3691 -19.2461 48.6992q1.20312 24.9033 17.1406 45.6562q15.9385 20.7529 43.6045 33.4805q27.666 12.7285 63.7529 12.7285q40.2969 0 60.1436 -20.1992q19.8477 -20.1992 18.0439 -50.083q-1.20312 -23.2432 -16.54 -43.7188
q-15.3369 -20.4766 -42.4014 -33.2051q-27.0645 -12.7275 -64.3545 -12.7275z" />
    <glyph glyph-name="oslash" unicode="&#xf8;" horiz-adv-x="1026" 
d="M23 -68q-8 5 -8 13t8 16l223 234l28 22l490 521l18 25l198 205q8 9 17 11.5t17 -1.5q9 -4 9 -12t-7 -17l-215 -224l-22 -16l-486 -518l-23 -29l-213 -221q-8 -9 -17 -11t-17 2zM612 926q127 -2 216 -58t128 -157.5t17 -240.5q-18 -107 -65.5 -197.5t-120.5 -157
t-167.5 -102t-204.5 -34.5q-123 1 -212 55.5t-129.5 155.5t-18.5 241q18 112 66.5 203.5t122.5 157.5t167.5 101t200.5 33zM414 48q37 -3 73.5 23t71 74t64 111.5t51.5 137.5t34 151q20 104 13.5 171.5t-33.5 102t-71 38.5q-37 3 -74.5 -22.5t-72 -73t-64.5 -111.5
t-52.5 -139t-34.5 -155q-20 -105 -13 -172t35.5 -100t72.5 -36z" />
    <glyph glyph-name="ugrave" unicode="&#xf9;" horiz-adv-x="1136" 
d="M1039 203q10 -4 9.5 -16.5t-10.5 -29.5q-47 -81 -126 -129.5t-170 -48.5q-59 0 -91 25.5t-32 75.5q0 32 13 74.5t32 92t40 103t37 107.5l11 -17q-55 -130 -122 -219t-137 -142t-137.5 -76.5t-124.5 -23.5q-76 0 -111.5 33.5t-35.5 95.5t28 146l128 390q27 81 19.5 110.5
t-32.5 29.5q-17 0 -37.5 -13t-50.5 -47q-13 -12 -21 -15t-16 0q-8 4 -8.5 17t10.5 33q40 74 114 119t174 45q67 0 100 -26.5t35 -78t-23 -126.5l-129 -393q-32 -91 -22 -127t55 -36q33 0 76 24t90 73t92 124.5t81 179.5q21 57 32.5 97t16.5 67t5 45q0 24 -8.5 41t-8.5 41
q0 42 56.5 68.5t155.5 26.5q71 0 84.5 -40t-14.5 -123l-167 -494q-27 -78 -20.5 -108.5t31.5 -30.5q17 0 38.5 13t54.5 49q12 11 20.5 14t15.5 0zM684 1252l38 -208q3 -9 2 -17.5t-10 -15.5q-8 -6 -18.5 -6t-18.5 4l-151 132q-37 29 -56.5 60.5t-11.5 74.5q6 34 37.5 65
t79.5 34q50 4 74.5 -29t34.5 -94z" />
    <glyph glyph-name="uacute" unicode="&#xfa;" horiz-adv-x="1136" 
d="M1039 203q10 -4 9.5 -16.5t-10.5 -29.5q-47 -81 -126 -129.5t-170 -48.5q-59 0 -91 25.5t-32 75.5q0 32 13 74.5t32 92t40 103t37 107.5l11 -17q-55 -130 -122 -219t-137 -142t-137.5 -76.5t-124.5 -23.5q-76 0 -111.5 33.5t-35.5 95.5t28 146l128 390q27 81 19.5 110.5
t-32.5 29.5q-17 0 -37.5 -13t-50.5 -47q-13 -12 -21 -15t-16 0q-8 4 -8.5 17t10.5 33q40 74 114 119t174 45q67 0 100 -26.5t35 -78t-23 -126.5l-129 -393q-32 -91 -22 -127t55 -36q33 0 76 24t90 73t92 124.5t81 179.5q21 57 32.5 97t16.5 67t5 45q0 24 -8.5 41t-8.5 41
q0 42 56.5 68.5t155.5 26.5q71 0 84.5 -40t-14.5 -123l-167 -494q-27 -78 -20.5 -108.5t31.5 -30.5q17 0 38.5 13t54.5 49q12 11 20.5 14t15.5 0zM812 1252q42 61 83.5 94t89.5 29q46 -3 61.5 -34t2.5 -65q-14 -43 -50 -74.5t-89 -60.5l-219 -132q-10 -4 -20 -4t-15 6
q-6 7 -1.5 15.5t12.5 17.5z" />
    <glyph glyph-name="ucircumflex" unicode="&#xfb;" horiz-adv-x="1136" 
d="M1039 203q10 -4 9.5 -16.5t-10.5 -29.5q-47 -81 -126 -129.5t-170 -48.5q-59 0 -91 25.5t-32 75.5q0 32 13 74.5t32 92t40 103t37 107.5l11 -17q-55 -130 -122 -219t-137 -142t-137.5 -76.5t-124.5 -23.5q-76 0 -111.5 33.5t-35.5 95.5t28 146l128 390q27 81 19.5 110.5
t-32.5 29.5q-17 0 -37.5 -13t-50.5 -47q-13 -12 -21 -15t-16 0q-8 4 -8.5 17t10.5 33q40 74 114 119t174 45q67 0 100 -26.5t35 -78t-23 -126.5l-129 -393q-32 -91 -22 -127t55 -36q33 0 76 24t90 73t92 124.5t81 179.5q21 57 32.5 97t16.5 67t5 45q0 24 -8.5 41t-8.5 41
q0 42 56.5 68.5t155.5 26.5q71 0 84.5 -40t-14.5 -123l-167 -494q-27 -78 -20.5 -108.5t31.5 -30.5q17 0 38.5 13t54.5 49q12 11 20.5 14t15.5 0zM767 1202h-118l243 -197q10 -9 22 -9.5t21 5.5q8 6 11.5 16t-3.5 22l-145 270q-10 18 -21.5 27.5t-30.5 9.5q-20 0 -36.5 -9.5
t-36.5 -27.5l-283 -270q-13 -12 -16 -22t2 -16q7 -6 19 -5.5t27 9.5z" />
    <glyph glyph-name="udieresis" unicode="&#xfc;" horiz-adv-x="1136" 
d="M1039 203q10 -4 9.5 -16.5t-10.5 -29.5q-47 -81 -126 -129.5t-170 -48.5q-59 0 -91 25.5t-32 75.5q0 32 13 74.5t32 92t40 103t37 107.5l11 -17q-55 -130 -122 -219t-137 -142t-137.5 -76.5t-124.5 -23.5q-76 0 -111.5 33.5t-35.5 95.5t28 146l128 390q27 81 19.5 110.5
t-32.5 29.5q-17 0 -37.5 -13t-50.5 -47q-13 -12 -21 -15t-16 0q-8 4 -8.5 17t10.5 33q40 74 114 119t174 45q67 0 100 -26.5t35 -78t-23 -126.5l-129 -393q-32 -91 -22 -127t55 -36q33 0 76 24t90 73t92 124.5t81 179.5q21 57 32.5 97t16.5 67t5 45q0 24 -8.5 41t-8.5 41
q0 42 56.5 68.5t155.5 26.5q71 0 84.5 -40t-14.5 -123l-167 -494q-27 -78 -20.5 -108.5t31.5 -30.5q17 0 38.5 13t54.5 49q12 11 20.5 14t15.5 0zM479 1016q-58 0 -84.5 35.5t-11.5 92.5q15 59 60 94.5t104 35.5t85 -35.5t11 -94.5q-15 -56 -59.5 -92t-104.5 -36zM849 1016
q-58 0 -84.5 35.5t-12.5 92.5q16 58 61 94t104 36q60 0 86 -35.5t11 -94.5q-15 -56 -60 -92t-105 -36z" />
    <glyph glyph-name="yacute" unicode="&#xfd;" horiz-adv-x="979" 
d="M680 622q57 156 119.5 229.5t138.5 73.5q47 0 73.5 -28.5t26.5 -76.5q0 -60 -39 -103t-105 -73q-37 -15 -67.5 -33.5t-58 -47.5t-52.5 -74t-51 -112l-178 -467q-53 -148 -123 -237t-160.5 -128.5t-206.5 -39.5q-118 0 -180 41t-62 106q0 45 29 77t75 32q33 0 58 -18
t46.5 -44t42.5 -52.5t45.5 -44.5t56.5 -18q37 0 69 19.5t55.5 53.5t36.5 78t13 93q0 31 -3.5 95t-9.5 147.5t-13.5 174t-15.5 177.5t-15 158t-13 113q-4 43 -15 62t-28 19q-16 0 -32 -13t-37 -47q-8 -10 -14.5 -14t-14.5 -2t-12 12t2 28q23 57 61.5 98.5t89 64t106.5 22.5
q58 0 92.5 -36.5t40.5 -111.5q4 -37 8 -106t8.5 -156t9 -180t8 -179.5t6.5 -151.5l-26 9zM759 1252q42 61 83.5 94t89.5 29q46 -3 61.5 -34t2.5 -65q-14 -43 -50 -74.5t-89 -60.5l-219 -132q-10 -4 -20 -4t-15 6q-6 7 -1.5 15.5t12.5 17.5z" />
    <glyph glyph-name="thorn" unicode="&#xfe;" horiz-adv-x="1051" 
d="M519 1472q85 0 116 -52.5t-1 -167.5l-442 -1573q-10 -35 -7.5 -57.5t39.5 -28.5l70 -11q18 -3 25 -11t7 -17q0 -14 -11.5 -23t-31.5 -9l-446 -8q-14 0 -24 6.5t-10 21.5q0 9 8 18.5t27 17.5q34 8 52 17t27.5 24.5t16.5 39.5l434 1532q16 53 19 81.5t-5 39.5t-26 11
q-19 0 -40.5 -12t-55.5 -47q-12 -7 -20.5 -10t-15.5 0q-9 5 -9 17t10 27q33 51 81 90.5t103 61.5t110 22zM134 674q-14 -10 -28 -10.5t-23 6.5q-10 9 -5 24t21 28q65 69 143.5 117t174.5 72.5t211 21.5q129 -3 216 -59.5t125.5 -159.5t20.5 -244q-19 -149 -93.5 -259.5
t-185 -170.5t-238.5 -58q-101 2 -164 43.5t-89 110.5l50 20q23 -46 59 -70t83 -26q69 -2 133 44t113 142t72 243q21 127 7.5 211t-53 127t-95.5 47q-117 7 -232 -41.5t-223 -158.5z" />
    <glyph glyph-name="ydieresis" unicode="&#xff;" horiz-adv-x="979" 
d="M680 622q57 156 119.5 229.5t138.5 73.5q47 0 73.5 -28.5t26.5 -76.5q0 -60 -39 -103t-105 -73q-37 -15 -67.5 -33.5t-58 -47.5t-52.5 -74t-51 -112l-178 -467q-53 -148 -123 -237t-160.5 -128.5t-206.5 -39.5q-118 0 -180 41t-62 106q0 45 29 77t75 32q33 0 58 -18
t46.5 -44t42.5 -52.5t45.5 -44.5t56.5 -18q37 0 69 19.5t55.5 53.5t36.5 78t13 93q0 31 -3.5 95t-9.5 147.5t-13.5 174t-15.5 177.5t-15 158t-13 113q-4 43 -15 62t-28 19q-16 0 -32 -13t-37 -47q-8 -10 -14.5 -14t-14.5 -2t-12 12t2 28q23 57 61.5 98.5t89 64t106.5 22.5
q58 0 92.5 -36.5t40.5 -111.5q4 -37 8 -106t8.5 -156t9 -180t8 -179.5t6.5 -151.5l-26 9zM426 1016q-58 0 -84.5 35.5t-11.5 92.5q15 59 60 94.5t104 35.5t85 -35.5t11 -94.5q-15 -56 -59.5 -92t-104.5 -36zM796 1016q-58 0 -84.5 35.5t-12.5 92.5q16 58 61 94t104 36
q60 0 86 -35.5t11 -94.5q-15 -56 -60 -92t-105 -36z" />
    <glyph glyph-name="Amacron" unicode="&#x100;" horiz-adv-x="1247" 
d="M225 264q-47 -77 -32 -128.5t74 -67.5l40 -8q14 -5 19.5 -12t5.5 -16q0 -15 -11 -23.5t-31 -8.5h-335q-20 0 -30 7.5t-10 20.5t9.5 23t35.5 22q42 16 90.5 67.5t99.5 135.5l523 835q104 160 220.5 235t240.5 75q33 0 46 -9t13 -23q0 -11 -6 -18.5t-19 -12.5
q-45 -7 -71 -39t-29 -94q-1 -27 -3 -91.5t-4.5 -153.5t-6 -190t-6.5 -201.5t-5.5 -188.5t-4 -151t-1.5 -88q0 -29 6 -48t24.5 -31t55.5 -23q23 -10 23 -28q0 -13 -11 -22t-31 -9h-470q-18 0 -26 8t-8 20t8.5 19.5t23.5 12.5l79 14q27 7 39 27.5t13 52.5q2 30 4.5 94
t6.5 150.5t8 184t8 196t7.5 186.5t6 155.5t2.5 101.5l41 -10q-12 -6 -27.5 -20t-37.5 -42t-55 -77zM297 449l18 57h542l-4 -57h-556zM750 1613q8 30 22.5 42.5t36.5 12.5h456q22 0 29.5 -12t-0.5 -42t-22 -42.5t-37 -12.5h-456q-22 0 -29 12.5t0 41.5z" />
    <glyph glyph-name="amacron" unicode="&#x101;" horiz-adv-x="1074" 
d="M851 264q-22 -87 -16.5 -117t29.5 -30q19 0 38.5 13t49.5 46q13 13 21 16.5t16 -0.5q9 -4 9 -17t-10 -33q-41 -74 -113.5 -118.5t-159.5 -44.5q-65 0 -94 30.5t-29 87.5q0 21 4 49t12 65.5t21.5 86.5t31.5 111l16 -28q-46 -126 -111 -216t-144.5 -138t-170.5 -48
q-110 0 -168.5 74.5t-42.5 227.5q9 98 48.5 192t104.5 175.5t151 143t189 97t218 35.5q91 0 156 -13t99.5 -33t32.5 -41q-1 -18 -13.5 -27t-25.5 -18t-19 -29zM302 272q-11 -98 11 -137.5t60 -39.5q36 0 75.5 29.5t79.5 86t78 135.5t71.5 178t58.5 214q13 59 4 89t-45 30
q-54 0 -107 -34t-101 -93t-87 -134.5t-64.5 -158.5t-33.5 -165zM437 1129q8 30 22.5 42.5t37.5 12.5h461q22 0 29.5 -12t-0.5 -43q-8 -30 -22.5 -43t-36.5 -13h-461q-23 0 -30 13t0 43z" />
    <glyph glyph-name="Abreve" unicode="&#x102;" horiz-adv-x="1247" 
d="M225 264q-47 -77 -32 -128.5t74 -67.5l40 -8q14 -5 19.5 -12t5.5 -16q0 -15 -11 -23.5t-31 -8.5h-335q-20 0 -30 7.5t-10 20.5t9.5 23t35.5 22q42 16 90.5 67.5t99.5 135.5l523 835q104 160 220.5 235t240.5 75q33 0 46 -9t13 -23q0 -11 -6 -18.5t-19 -12.5
q-45 -7 -71 -39t-29 -94q-1 -27 -3 -91.5t-4.5 -153.5t-6 -190t-6.5 -201.5t-5.5 -188.5t-4 -151t-1.5 -88q0 -29 6 -48t24.5 -31t55.5 -23q23 -10 23 -28q0 -13 -11 -22t-31 -9h-470q-18 0 -26 8t-8 20t8.5 19.5t23.5 12.5l79 14q27 7 39 27.5t13 52.5q2 30 4.5 94
t6.5 150.5t8 184t8 196t7.5 186.5t6 155.5t2.5 101.5l41 -10q-12 -6 -27.5 -20t-37.5 -42t-55 -77zM297 449l18 57h542l-4 -57h-556zM1040 1640q73 0 129 29t103 94q9 11 16.5 15.5t15.5 4.5q12 0 16 -9t-2 -25q-41 -123 -126 -190.5t-191 -67.5q-104 0 -154 67.5t-28 190.5
q3 16 12 25t21 9q8 0 13.5 -4.5t8.5 -15.5q14 -67 56.5 -95t109.5 -28z" />
    <glyph glyph-name="abreve" unicode="&#x103;" horiz-adv-x="1074" 
d="M851 264q-22 -87 -16.5 -117t29.5 -30q19 0 38.5 13t49.5 46q13 13 21 16.5t16 -0.5q9 -4 9 -17t-10 -33q-41 -74 -113.5 -118.5t-159.5 -44.5q-65 0 -94 30.5t-29 87.5q0 21 4 49t12 65.5t21.5 86.5t31.5 111l16 -28q-46 -126 -111 -216t-144.5 -138t-170.5 -48
q-110 0 -168.5 74.5t-42.5 227.5q9 98 48.5 192t104.5 175.5t151 143t189 97t218 35.5q91 0 156 -13t99.5 -33t32.5 -41q-1 -18 -13.5 -27t-25.5 -18t-19 -29zM302 272q-11 -98 11 -137.5t60 -39.5q36 0 75.5 29.5t79.5 86t78 135.5t71.5 178t58.5 214q13 59 4 89t-45 30
q-54 0 -107 -34t-101 -93t-87 -134.5t-64.5 -158.5t-33.5 -165zM735 1162q73 0 129.5 33.5t106.5 103.5q18 21 33 21q13 0 17 -9.5t-2 -26.5q-45 -134 -132.5 -205.5t-192.5 -71.5q-103 0 -154 71.5t-26 205.5q3 17 12.5 26.5t21.5 9.5q16 0 21 -21q15 -73 56.5 -105
t109.5 -32z" />
    <glyph glyph-name="Aogonek" unicode="&#x104;" horiz-adv-x="1247" 
d="M1020 36l7 -27q-111 -51 -170.5 -128t-59.5 -152q0 -42 19 -63.5t52 -21.5q31 0 61 16.5t53 40.5q9 8 16.5 11t14.5 1t9 -11t-9 -23q-28 -42 -88.5 -73t-137.5 -31q-91 0 -137 34.5t-46 97.5q0 60 41.5 118.5t133 112t241.5 98.5zM225 264q-47 -77 -32 -128.5t74 -67.5
l40 -8q14 -5 19.5 -12t5.5 -16q0 -15 -11 -23.5t-31 -8.5h-335q-20 0 -30 7.5t-10 20.5t9.5 23t35.5 22q42 16 90.5 67.5t99.5 135.5l523 835q104 160 220.5 235t240.5 75q33 0 46 -9t13 -23q0 -11 -6 -18.5t-19 -12.5q-45 -7 -71 -39t-29 -94q-1 -27 -3 -91.5t-4.5 -153.5
t-6 -190t-6.5 -201.5t-5.5 -188.5t-4 -151t-1.5 -88q0 -29 6 -48t24.5 -31t55.5 -23q23 -10 23 -28q0 -13 -11 -22t-31 -9h-470q-18 0 -26 8t-8 20t8.5 19.5t23.5 12.5l79 14q27 7 39 27.5t13 52.5q2 30 4.5 94t6.5 150.5t8 184t8 196t7.5 186.5t6 155.5t2.5 101.5l41 -10
q-12 -6 -27.5 -20t-37.5 -42t-55 -77zM297 449l18 57h542l-4 -57h-556z" />
    <glyph glyph-name="aogonek" unicode="&#x105;" horiz-adv-x="1074" 
d="M860 47l9 -22q-105 -54 -160 -140t-55 -161q0 -43 20.5 -64t52.5 -21q31 0 62 16.5t53 40.5q9 8 17 11.5t15 0.5q7 -2 8.5 -11t-9.5 -24q-29 -42 -89.5 -73.5t-139.5 -31.5q-92 0 -138.5 34t-46.5 96q0 61 40 120t128.5 116t232.5 113zM851 264q-22 -87 -16.5 -117
t29.5 -30q19 0 38.5 13t49.5 46q13 13 21 16.5t16 -0.5q9 -4 9 -17t-10 -33q-41 -74 -113.5 -118.5t-159.5 -44.5q-65 0 -94 30.5t-29 87.5q0 21 4 49t12 65.5t21.5 86.5t31.5 111l16 -28q-46 -126 -111 -216t-144.5 -138t-170.5 -48q-110 0 -168.5 74.5t-42.5 227.5
q9 98 48.5 192t104.5 175.5t151 143t189 97t218 35.5q91 0 156 -13t99.5 -33t32.5 -41q-1 -18 -13.5 -27t-25.5 -18t-19 -29zM302 272q-11 -98 11 -137.5t60 -39.5q36 0 75.5 29.5t79.5 86t78 135.5t71.5 178t58.5 214q13 59 4 89t-45 30q-54 0 -107 -34t-101 -93
t-87 -134.5t-64.5 -158.5t-33.5 -165z" />
    <glyph glyph-name="Cacute" unicode="&#x106;" horiz-adv-x="1267" 
d="M1175 426q11 -5 14 -19.5t-13 -42.5q-59 -129 -147 -215t-198 -128.5t-237 -42.5q-162 0 -279.5 77.5t-168 227.5t-12.5 368q29 164 102.5 304.5t180.5 246t237 164t273 58.5q67 0 114 -16t77.5 -36.5t49 -36.5t29.5 -16q12 0 29 15.5t36 35.5t36 35.5t28 15.5
q15 0 23.5 -9t8.5 -27l-9 -383q-1 -18 -10.5 -27t-24.5 -9q-27 -1 -39 33l-22 75q-43 149 -113.5 212t-170.5 63q-90 0 -171.5 -49t-149 -138t-117 -210t-75.5 -265q-38 -213 -13 -341.5t98 -186t174 -57.5q71 0 142.5 29t138 94t123.5 172q16 20 29.5 27.5t26.5 1.5z
M1090 1722q46 48 88.5 74.5t83.5 19.5q41 -6 54 -38t-1 -65q-18 -47 -59.5 -74t-96.5 -47l-226 -91q-10 -3 -20 -2.5t-14 6.5q-4 7 1 15.5t13 17.5z" />
    <glyph glyph-name="cacute" unicode="&#x107;" horiz-adv-x="901" 
d="M593 861q-53 0 -107.5 -47t-96.5 -132.5t-59 -201.5q-26 -180 22.5 -267t151.5 -87q48 0 94 20t85 61t67 101q14 19 23 28t21 8q13 -1 19.5 -14t-0.5 -37q-21 -67 -60 -124.5t-95.5 -100t-129 -66.5t-159.5 -24q-177 0 -261 115t-52 322q16 106 64 199t122 163.5
t168.5 110t201.5 39.5q95 0 158 -31.5t93 -83t26 -112.5q-4 -64 -42.5 -97t-85.5 -33q-44 0 -70 24t-25 63q1 32 8.5 57t7.5 59q0 38 -22.5 63t-66.5 25zM725 1252q42 61 83.5 94t89.5 29q46 -3 61.5 -34t2.5 -65q-14 -43 -50 -74.5t-89 -60.5l-219 -132q-10 -4 -20 -4
t-15 6q-6 7 -1.5 15.5t12.5 17.5z" />
    <glyph glyph-name="Ccircumflex" unicode="&#x108;" horiz-adv-x="1267" 
d="M1175 426q11 -5 14 -19.5t-13 -42.5q-59 -129 -147 -215t-198 -128.5t-237 -42.5q-162 0 -279.5 77.5t-168 227.5t-12.5 368q29 164 102.5 304.5t180.5 246t237 164t273 58.5q67 0 114 -16t77.5 -36.5t49 -36.5t29.5 -16q12 0 29 15.5t36 35.5t36 35.5t28 15.5
q15 0 23.5 -9t8.5 -27l-9 -383q-1 -18 -10.5 -27t-24.5 -9q-27 -1 -39 33l-22 75q-43 149 -113.5 212t-170.5 63q-90 0 -171.5 -49t-149 -138t-117 -210t-75.5 -265q-38 -213 -13 -341.5t98 -186t174 -57.5q71 0 142.5 29t138 94t123.5 172q16 20 29.5 27.5t26.5 1.5z
M1006 1658h-117l251 -152q24 -16 43 -4q8 5 11.5 15.5t-3.5 21.5l-153 230q-11 17 -21.5 26.5t-30.5 9.5q-19 0 -34.5 -9.5t-36.5 -26.5l-271 -230q-14 -11 -16 -21.5t2 -15.5q7 -6 18.5 -5t27.5 9z" />
    <glyph glyph-name="ccircumflex" unicode="&#x109;" horiz-adv-x="901" 
d="M593 861q-53 0 -107.5 -47t-96.5 -132.5t-59 -201.5q-26 -180 22.5 -267t151.5 -87q48 0 94 20t85 61t67 101q14 19 23 28t21 8q13 -1 19.5 -14t-0.5 -37q-21 -67 -60 -124.5t-95.5 -100t-129 -66.5t-159.5 -24q-177 0 -261 115t-52 322q16 106 64 199t122 163.5
t168.5 110t201.5 39.5q95 0 158 -31.5t93 -83t26 -112.5q-4 -64 -42.5 -97t-85.5 -33q-44 0 -70 24t-25 63q1 32 8.5 57t7.5 59q0 38 -22.5 63t-66.5 25zM680 1202h-118l243 -197q10 -9 22 -9.5t21 5.5q8 6 11.5 16t-3.5 22l-145 270q-10 18 -21.5 27.5t-30.5 9.5
q-20 0 -36.5 -9.5t-36.5 -27.5l-283 -270q-13 -12 -16 -22t2 -16q7 -6 19 -5.5t27 9.5z" />
    <glyph glyph-name="Cdotaccent" unicode="&#x10a;" horiz-adv-x="1267" 
d="M1175 426q11 -5 14 -19.5t-13 -42.5q-59 -129 -147 -215t-198 -128.5t-237 -42.5q-162 0 -279.5 77.5t-168 227.5t-12.5 368q29 164 102.5 304.5t180.5 246t237 164t273 58.5q67 0 114 -16t77.5 -36.5t49 -36.5t29.5 -16q12 0 29 15.5t36 35.5t36 35.5t28 15.5
q15 0 23.5 -9t8.5 -27l-9 -383q-1 -18 -10.5 -27t-24.5 -9q-27 -1 -39 33l-22 75q-43 149 -113.5 212t-170.5 63q-90 0 -171.5 -49t-149 -138t-117 -210t-75.5 -265q-38 -213 -13 -341.5t98 -186t174 -57.5q71 0 142.5 29t138 94t123.5 172q16 20 29.5 27.5t26.5 1.5z
M918 1513q-64 0 -93.5 36.5t-14.5 95.5q16 58 64.5 94.5t113.5 36.5t94 -36.5t13 -94.5q-15 -59 -63 -95.5t-114 -36.5z" />
    <glyph glyph-name="cdotaccent" unicode="&#x10b;" horiz-adv-x="901" 
d="M593 861q-53 0 -107.5 -47t-96.5 -132.5t-59 -201.5q-26 -180 22.5 -267t151.5 -87q48 0 94 20t85 61t67 101q14 19 23 28t21 8q13 -1 19.5 -14t-0.5 -37q-21 -67 -60 -124.5t-95.5 -100t-129 -66.5t-159.5 -24q-177 0 -261 115t-52 322q16 106 64 199t122 163.5
t168.5 110t201.5 39.5q95 0 158 -31.5t93 -83t26 -112.5q-4 -64 -42.5 -97t-85.5 -33q-44 0 -70 24t-25 63q1 32 8.5 57t7.5 59q0 38 -22.5 63t-66.5 25zM588 1016q-64 0 -92.5 37t-12.5 97q15 59 63 96t112 37q65 0 93 -37t12 -96q-15 -60 -63 -97t-112 -37z" />
    <glyph glyph-name="Ccaron" unicode="&#x10c;" horiz-adv-x="1267" 
d="M1175 426q11 -5 14 -19.5t-13 -42.5q-59 -129 -147 -215t-198 -128.5t-237 -42.5q-162 0 -279.5 77.5t-168 227.5t-12.5 368q29 164 102.5 304.5t180.5 246t237 164t273 58.5q67 0 114 -16t77.5 -36.5t49 -36.5t29.5 -16q12 0 29 15.5t36 35.5t36 35.5t28 15.5
q15 0 23.5 -9t8.5 -27l-9 -383q-1 -18 -10.5 -27t-24.5 -9q-27 -1 -39 33l-22 75q-43 149 -113.5 212t-170.5 63q-90 0 -171.5 -49t-149 -138t-117 -210t-75.5 -265q-38 -213 -13 -341.5t98 -186t174 -57.5q71 0 142.5 29t138 94t123.5 172q16 20 29.5 27.5t26.5 1.5z
M988 1645l-251 152q-23 17 -43 4q-8 -5 -11.5 -15t4.5 -22l152 -230q12 -16 22.5 -26t30.5 -10q19 0 34.5 10t36.5 26l270 230q15 12 17.5 22t-3.5 15q-6 6 -17.5 5t-27.5 -9l-330 -152h116z" />
    <glyph glyph-name="ccaron" unicode="&#x10d;" horiz-adv-x="901" 
d="M593 861q-53 0 -107.5 -47t-96.5 -132.5t-59 -201.5q-26 -180 22.5 -267t151.5 -87q48 0 94 20t85 61t67 101q14 19 23 28t21 8q13 -1 19.5 -14t-0.5 -37q-21 -67 -60 -124.5t-95.5 -100t-129 -66.5t-159.5 -24q-177 0 -261 115t-52 322q16 106 64 199t122 163.5
t168.5 110t201.5 39.5q95 0 158 -31.5t93 -83t26 -112.5q-4 -64 -42.5 -97t-85.5 -33q-44 0 -70 24t-25 63q1 32 8.5 57t7.5 59q0 38 -22.5 63t-66.5 25zM666 1141l-243 197q-10 9 -21.5 9.5t-21.5 -5.5q-8 -6 -11.5 -16t3.5 -22l145 -270q10 -18 21.5 -27.5t31.5 -9.5
t36 9.5t36 27.5l282 270q14 12 17 22t-2 16q-6 6 -18.5 5.5t-27.5 -9.5l-345 -197h118z" />
    <glyph glyph-name="Dcaron" unicode="&#x10e;" horiz-adv-x="1466" 
d="M-4 28q0 11 9 19.5t25 12.5l68 12q17 3 29 11.5t21 25.5t18 46q13 47 33 121.5t45 165.5t51.5 189.5t52.5 196t49 184t40 153.5t26 103q7 28 -0.5 41.5t-31.5 18.5l-67 12q-17 5 -23.5 11.5t-6.5 17.5q0 14 10.5 22.5t32.5 8.5h538q138 0 249.5 -46t185.5 -135
t101.5 -218t-3.5 -295q-29 -163 -105 -293.5t-190 -222.5t-258 -141t-312 -49h-551q-20 0 -28 8t-8 20zM596 64q91 0 176 39t158 119.5t128.5 203.5t88.5 290q32 160 25.5 277.5t-42.5 193.5t-93 113.5t-127 37.5h-69q-34 0 -59.5 -23t-41.5 -75q-10 -41 -28.5 -107.5
t-41 -150.5t-47.5 -176l-50 -184t-47 -176t-39 -151.5t-26 -108.5q-13 -62 3 -92t62 -30h70zM1044 1636l-251 152q-23 17 -43 4q-8 -5 -11.5 -15t4.5 -22l152 -230q12 -16 22.5 -26t30.5 -10q19 0 34.5 10t36.5 26l270 230q15 12 17.5 22t-3.5 15q-6 6 -17.5 5t-27.5 -9
l-330 -152h116z" />
    <glyph glyph-name="dcaron" unicode="&#x10f;" horiz-adv-x="1084" 
d="M1133 1213l-269 -948q-17 -58 -19.5 -90.5t6.5 -45t26 -12.5q18 0 38 13t50 46q13 13 20.5 16.5t15.5 -0.5q10 -4 10 -17t-11 -33q-26 -49 -68 -85.5t-93.5 -57t-109.5 -20.5q-67 0 -98.5 31t-31.5 87q0 27 6.5 64t20 90.5t35.5 127.5l27 -11q-54 -127 -124 -213.5
t-150 -131t-162 -44.5q-115 0 -173 74t-47 218q8 126 63.5 242.5t145 209.5t203.5 147t239 54q70 0 115.5 -18.5t67.5 -51t23 -73.5l-123 -14q0 42 -19 67.5t-70 25.5q-54 0 -108 -37t-103 -99.5t-87.5 -142t-62 -165.5t-25.5 -169q-4 -86 20.5 -119t62.5 -33q32 0 73 27.5
t83.5 79.5t81 125.5t65.5 166.5l196 676q21 73 14.5 100.5t-29.5 27.5q-17 0 -38 -11.5t-52 -44.5q-12 -10 -20 -13.5t-16 -0.5q-9 5 -9 17t10 30q30 52 74.5 90.5t99 60t112.5 21.5q62 0 94.5 -26.5t37 -78.5t-17.5 -129zM1268 1361q22 65 54 105t79 47q46 9 70 -14t20 -56
q-3 -40 -28 -75t-65 -71l-167 -174q-8 -7 -17.5 -10t-16.5 0q-7 5 -6 13t4 18z" />
    <glyph glyph-name="Dcroat" unicode="&#x110;" horiz-adv-x="1464" 
d="M114 700q4 11 13 17.5t21 6.5h672q12 0 17 -6.5t2 -17.5q-4 -11 -13 -17.5t-21 -6.5h-673q-11 0 -16.5 6.5t-1.5 17.5zM0 28q0 11 8.5 19.5t24.5 12.5l68 12q17 3 29 11.5t21.5 25.5t18.5 46q12 47 32.5 121.5t45 165.5t51 189.5t53 196t49 184t40 153.5t25.5 103
q7 28 0 41.5t-32 18.5l-67 12q-16 5 -23 11.5t-7 17.5q0 14 10.5 22.5t32.5 8.5h538q138 0 249.5 -46t185.5 -135t101.5 -218t-2.5 -295q-30 -163 -106 -293.5t-189.5 -222.5t-258 -141t-312.5 -49h-550q-21 0 -28.5 8t-7.5 20zM599 64q92 0 176.5 39t157.5 119.5t129 203.5
t88 290q32 160 25.5 277.5t-42.5 193.5t-93 113.5t-126 37.5h-69q-35 0 -60.5 -23t-40.5 -75q-11 -41 -29.5 -107.5t-41 -150.5t-47.5 -176l-50 -184t-47 -176t-39 -151.5t-26 -108.5q-13 -62 3 -92t63 -30h69z" />
    <glyph glyph-name="dcroat" unicode="&#x111;" horiz-adv-x="1078" 
d="M1188 1420l-326 -1151q-19 -65 -24.5 -97t3.5 -42t31 -10q19 0 40 14t52 50q11 9 18 12t15 -2q8 -4 8.5 -17t-11.5 -32q-26 -49 -69.5 -86t-97 -58t-110.5 -21q-66 0 -97.5 30.5t-31.5 87.5q0 25 5.5 58t18.5 82t34 120h22q-54 -120 -123 -205t-146.5 -129t-158.5 -44
q-107 0 -163.5 73t-43.5 213q7 126 62 244t145 212t203.5 149t237.5 55q72 0 116.5 -19.5t66 -52.5t21.5 -74l-125 -11q1 43 -17 69t-70 26q-54 0 -108 -36.5t-103 -100t-87.5 -143.5t-61.5 -168t-25 -175q-3 -83 21.5 -114t60.5 -31q25 0 57 18t66 51.5t67.5 82t62.5 110.5
t50 136l242 833q6 18 27 38.5t50 39.5t61 34.5t60.5 24.5t46.5 9q23 0 29.5 -13.5t-1.5 -39.5zM641 1148q3 11 12 17.5t18 6.5h554q11 0 15.5 -6.5t0.5 -17.5q-6 -24 -30 -24h-554q-23 0 -16 24z" />
    <glyph glyph-name="Emacron" unicode="&#x112;" horiz-adv-x="1248" 
d="M502 747h304q58 0 101.5 34t57.5 125q5 12 12.5 18t17.5 6q15 0 22.5 -8.5t9.5 -23.5l39 -338q4 -24 -4 -34.5t-23 -11.5q-12 -1 -20.5 5.5t-14.5 19.5q-30 83 -74.5 117.5t-125.5 34.5h-320zM745 0h-715q-20 0 -28 8t-8 20q0 11 8.5 20t22.5 13l76 12q22 5 34.5 19.5
t22.5 42.5q8 32 26.5 99.5t43.5 159t53 195t56 207.5t53 197.5t43.5 164t27.5 106.5q7 30 0.5 44.5t-26.5 18.5l-73 13q-12 4 -19.5 10.5t-7.5 17.5q0 15 11 23.5t31 8.5h751q56 0 86 16.5t53 16.5q34 0 40 -40l14 -321q3 -21 -3.5 -32.5t-21.5 -12.5q-17 -2 -28.5 7
t-21.5 34q-31 113 -63.5 173t-74 82t-102.5 22h-241q-13 -45 -34.5 -123.5t-48.5 -178.5t-56.5 -210t-58 -218.5t-53.5 -203.5t-43 -165.5t-25 -103.5q-7 -30 -2 -49.5t27 -28t64 -8.5h166q75 0 137 29.5t120.5 98t119.5 183.5q19 33 41 33q29 0 27 -39q-5 -90 -27 -161
t-57 -121.5t-82 -76.5t-102 -26q-34 0 -63.5 12t-69.5 12zM626 1613q8 30 22.5 42.5t36.5 12.5h456q22 0 29.5 -12t-0.5 -42t-22 -42.5t-37 -12.5h-456q-22 0 -29 12.5t0 41.5z" />
    <glyph glyph-name="emacron" unicode="&#x113;" horiz-adv-x="936" 
d="M184 418l36 12.5t94 32t123 42t125 43t99 34.5l-26 -29q10 29 16.5 70t7.5 96q0 64 -22 104t-62 40t-81 -31.5t-77.5 -88.5t-62.5 -136.5t-37 -176.5q-16 -149 35.5 -227.5t158.5 -78.5q57 0 109 22.5t95.5 66t74.5 106.5q12 18 21.5 24t19.5 5q13 0 20 -12t0 -36
q-29 -92 -92.5 -164.5t-159 -114.5t-223.5 -42q-117 0 -194 45.5t-110.5 131.5t-20.5 208q11 116 58.5 217.5t123.5 179t171.5 121.5t203.5 44q87 0 144 -33t86 -88t32 -121q1 -15 7.5 -25t21.5 -11q11 -1 16 -6t5 -14q1 -11 -8.5 -21t-35.5 -18q-29 -9 -90.5 -29t-139 -45
t-157 -51.5t-147 -48.5t-109 -36l-41.5 -14zM318 1129q8 30 22.5 42.5t37.5 12.5h461q22 0 29.5 -12t-0.5 -43q-8 -30 -22.5 -43t-36.5 -13h-461q-23 0 -30 13t0 43z" />
    <glyph glyph-name="Ebreve" unicode="&#x114;" horiz-adv-x="1248" 
d="M502 747h304q58 0 101.5 34t57.5 125q5 12 12.5 18t17.5 6q15 0 22.5 -8.5t9.5 -23.5l39 -338q4 -24 -4 -34.5t-23 -11.5q-12 -1 -20.5 5.5t-14.5 19.5q-30 83 -74.5 117.5t-125.5 34.5h-320zM745 0h-715q-20 0 -28 8t-8 20q0 11 8.5 20t22.5 13l76 12q22 5 34.5 19.5
t22.5 42.5q8 32 26.5 99.5t43.5 159t53 195t56 207.5t53 197.5t43.5 164t27.5 106.5q7 30 0.5 44.5t-26.5 18.5l-73 13q-12 4 -19.5 10.5t-7.5 17.5q0 15 11 23.5t31 8.5h751q56 0 86 16.5t53 16.5q34 0 40 -40l14 -321q3 -21 -3.5 -32.5t-21.5 -12.5q-17 -2 -28.5 7
t-21.5 34q-31 113 -63.5 173t-74 82t-102.5 22h-241q-13 -45 -34.5 -123.5t-48.5 -178.5t-56.5 -210t-58 -218.5t-53.5 -203.5t-43 -165.5t-25 -103.5q-7 -30 -2 -49.5t27 -28t64 -8.5h166q75 0 137 29.5t120.5 98t119.5 183.5q19 33 41 33q29 0 27 -39q-5 -90 -27 -161
t-57 -121.5t-82 -76.5t-102 -26q-34 0 -63.5 12t-69.5 12zM916 1640q73 0 129 29t103 94q9 11 16.5 15.5t15.5 4.5q12 0 16 -9t-2 -25q-41 -123 -126 -190.5t-191 -67.5q-104 0 -154 67.5t-28 190.5q3 16 12 25t21 9q8 0 13.5 -4.5t8.5 -15.5q14 -67 56.5 -95t109.5 -28z
" />
    <glyph glyph-name="ebreve" unicode="&#x115;" horiz-adv-x="936" 
d="M184 418l36 12.5t94 32t123 42t125 43t99 34.5l-26 -29q10 29 16.5 70t7.5 96q0 64 -22 104t-62 40t-81 -31.5t-77.5 -88.5t-62.5 -136.5t-37 -176.5q-16 -149 35.5 -227.5t158.5 -78.5q57 0 109 22.5t95.5 66t74.5 106.5q12 18 21.5 24t19.5 5q13 0 20 -12t0 -36
q-29 -92 -92.5 -164.5t-159 -114.5t-223.5 -42q-117 0 -194 45.5t-110.5 131.5t-20.5 208q11 116 58.5 217.5t123.5 179t171.5 121.5t203.5 44q87 0 144 -33t86 -88t32 -121q1 -15 7.5 -25t21.5 -11q11 -1 16 -6t5 -14q1 -11 -8.5 -21t-35.5 -18q-29 -9 -90.5 -29t-139 -45
t-157 -51.5t-147 -48.5t-109 -36l-41.5 -14zM617 1162q73 0 129.5 33.5t106.5 103.5q18 21 33 21q13 0 17 -9.5t-2 -26.5q-45 -134 -132.5 -205.5t-192.5 -71.5q-103 0 -154 71.5t-26 205.5q3 17 12.5 26.5t21.5 9.5q16 0 21 -21q15 -73 56.5 -105t109.5 -32z" />
    <glyph glyph-name="Edotaccent" unicode="&#x116;" horiz-adv-x="1248" 
d="M502 747h304q58 0 101.5 34t57.5 125q5 12 12.5 18t17.5 6q15 0 22.5 -8.5t9.5 -23.5l39 -338q4 -24 -4 -34.5t-23 -11.5q-12 -1 -20.5 5.5t-14.5 19.5q-30 83 -74.5 117.5t-125.5 34.5h-320zM745 0h-715q-20 0 -28 8t-8 20q0 11 8.5 20t22.5 13l76 12q22 5 34.5 19.5
t22.5 42.5q8 32 26.5 99.5t43.5 159t53 195t56 207.5t53 197.5t43.5 164t27.5 106.5q7 30 0.5 44.5t-26.5 18.5l-73 13q-12 4 -19.5 10.5t-7.5 17.5q0 15 11 23.5t31 8.5h751q56 0 86 16.5t53 16.5q34 0 40 -40l14 -321q3 -21 -3.5 -32.5t-21.5 -12.5q-17 -2 -28.5 7
t-21.5 34q-31 113 -63.5 173t-74 82t-102.5 22h-241q-13 -45 -34.5 -123.5t-48.5 -178.5t-56.5 -210t-58 -218.5t-53.5 -203.5t-43 -165.5t-25 -103.5q-7 -30 -2 -49.5t27 -28t64 -8.5h166q75 0 137 29.5t120.5 98t119.5 183.5q19 33 41 33q29 0 27 -39q-5 -90 -27 -161
t-57 -121.5t-82 -76.5t-102 -26q-34 0 -63.5 12t-69.5 12zM870 1504q-64 0 -93.5 36.5t-14.5 95.5q16 58 64.5 94.5t113.5 36.5t94 -36.5t13 -94.5q-15 -59 -63 -95.5t-114 -36.5z" />
    <glyph glyph-name="edotaccent" unicode="&#x117;" horiz-adv-x="936" 
d="M184 418l36 12.5t94 32t123 42t125 43t99 34.5l-26 -29q10 29 16.5 70t7.5 96q0 64 -22 104t-62 40t-81 -31.5t-77.5 -88.5t-62.5 -136.5t-37 -176.5q-16 -149 35.5 -227.5t158.5 -78.5q57 0 109 22.5t95.5 66t74.5 106.5q12 18 21.5 24t19.5 5q13 0 20 -12t0 -36
q-29 -92 -92.5 -164.5t-159 -114.5t-223.5 -42q-117 0 -194 45.5t-110.5 131.5t-20.5 208q11 116 58.5 217.5t123.5 179t171.5 121.5t203.5 44q87 0 144 -33t86 -88t32 -121q1 -15 7.5 -25t21.5 -11q11 -1 16 -6t5 -14q1 -11 -8.5 -21t-35.5 -18q-29 -9 -90.5 -29t-139 -45
t-157 -51.5t-147 -48.5t-109 -36l-41.5 -14zM571 1016q-64 0 -92.5 37t-12.5 97q15 59 63 96t112 37q65 0 93 -37t12 -96q-15 -60 -63 -97t-112 -37z" />
    <glyph glyph-name="Eogonek" unicode="&#x118;" horiz-adv-x="1248" 
d="M502 747h304q58 0 101.5 34t57.5 125q5 12 12.5 18t17.5 6q15 0 22.5 -8.5t9.5 -23.5l39 -338q4 -24 -4 -34.5t-23 -11.5q-12 -1 -20.5 5.5t-14.5 19.5q-30 83 -74.5 117.5t-125.5 34.5h-320zM745 0h-715q-20 0 -28 8t-8 20q0 11 8.5 20t22.5 13l76 12q22 5 34.5 19.5
t22.5 42.5q8 32 26.5 99.5t43.5 159t53 195t56 207.5t53 197.5t43.5 164t27.5 106.5q7 30 0.5 44.5t-26.5 18.5l-73 13q-12 4 -19.5 10.5t-7.5 17.5q0 15 11 23.5t31 8.5h751q56 0 86 16.5t53 16.5q34 0 40 -40l14 -321q3 -21 -3.5 -32.5t-21.5 -12.5q-17 -2 -28.5 7
t-21.5 34q-31 113 -63.5 173t-74 82t-102.5 22h-241q-13 -45 -34.5 -123.5t-48.5 -178.5t-56.5 -210t-58 -218.5t-53.5 -203.5t-43 -165.5t-25 -103.5q-7 -30 -2 -49.5t27 -28t64 -8.5h166q75 0 137 29.5t120.5 98t119.5 183.5q19 33 41 33q29 0 27 -39q-5 -90 -27 -161
t-57 -121.5t-82 -76.5t-102 -26q-34 0 -63.5 12t-69.5 12zM971 31l8 -27q-98 -44 -152.5 -100.5t-74.5 -134.5q-16 -66 3.5 -98t62.5 -32q31 0 61.5 16.5t53.5 40.5q9 8 16.5 11.5t15.5 0.5q6 -2 8 -11t-9 -24q-29 -42 -90 -73.5t-140 -31.5q-106 0 -152.5 45.5t-25.5 126.5
q16 59 62 109.5t132.5 96t220.5 85.5z" />
    <glyph glyph-name="eogonek" unicode="&#x119;" horiz-adv-x="920" 
d="M188 382l-5 45q74 26 157.5 54t168 57t162.5 55l-35 -27q14 45 19.5 82t5.5 79q1 63 -22 101.5t-64 38.5q-40 0 -81.5 -31.5t-78 -89.5t-62.5 -138t-37 -178q-15 -150 35.5 -228.5t156.5 -78.5q85 0 157.5 49.5t121.5 149.5q12 16 21 21.5t21 4.5q12 0 17 -9.5t3 -23.5
q-17 -65 -51 -118t-84.5 -95.5t-118.5 -77.5q-72 -37 -121 -88t-73 -105t-24 -102q0 -46 19.5 -68t53.5 -22q31 0 61.5 16.5t53.5 40.5q9 8 16.5 11.5t14.5 0.5q7 -2 8.5 -11t-9.5 -24q-28 -42 -90 -73.5t-142 -31.5q-89 0 -135 34t-46 97q0 48 27 98t89 101t166 101l4 -7
q-42 -8 -62 -10t-43 -2q-111 0 -185 45t-107 131t-20 208q11 116 58.5 218.5t123 181t172 122.5t205.5 44q85 0 141 -32t84 -85.5t31 -118.5q1 -14 7.5 -23t21.5 -10q10 -1 15.5 -6t5.5 -14q1 -11 -8 -21t-31 -16q-59 -19 -141.5 -46t-177 -57t-190 -61t-180.5 -58z" />
    <glyph glyph-name="Ecaron" unicode="&#x11a;" horiz-adv-x="1248" 
d="M502 747h304q58 0 101.5 34t57.5 125q5 12 12.5 18t17.5 6q15 0 22.5 -8.5t9.5 -23.5l39 -338q4 -24 -4 -34.5t-23 -11.5q-12 -1 -20.5 5.5t-14.5 19.5q-30 83 -74.5 117.5t-125.5 34.5h-320zM745 0h-715q-20 0 -28 8t-8 20q0 11 8.5 20t22.5 13l76 12q22 5 34.5 19.5
t22.5 42.5q8 32 26.5 99.5t43.5 159t53 195t56 207.5t53 197.5t43.5 164t27.5 106.5q7 30 0.5 44.5t-26.5 18.5l-73 13q-12 4 -19.5 10.5t-7.5 17.5q0 15 11 23.5t31 8.5h751q56 0 86 16.5t53 16.5q34 0 40 -40l14 -321q3 -21 -3.5 -32.5t-21.5 -12.5q-17 -2 -28.5 7
t-21.5 34q-31 113 -63.5 173t-74 82t-102.5 22h-241q-13 -45 -34.5 -123.5t-48.5 -178.5t-56.5 -210t-58 -218.5t-53.5 -203.5t-43 -165.5t-25 -103.5q-7 -30 -2 -49.5t27 -28t64 -8.5h166q75 0 137 29.5t120.5 98t119.5 183.5q19 33 41 33q29 0 27 -39q-5 -90 -27 -161
t-57 -121.5t-82 -76.5t-102 -26q-34 0 -63.5 12t-69.5 12zM940 1636l-251 152q-23 17 -43 4q-8 -5 -11.5 -15t4.5 -22l152 -230q12 -16 22.5 -26t30.5 -10q19 0 34.5 10t36.5 26l270 230q15 12 17.5 22t-3.5 15q-6 6 -17.5 5t-27.5 -9l-330 -152h116z" />
    <glyph glyph-name="ecaron" unicode="&#x11b;" horiz-adv-x="936" 
d="M184 418l36 12.5t94 32t123 42t125 43t99 34.5l-26 -29q10 29 16.5 70t7.5 96q0 64 -22 104t-62 40t-81 -31.5t-77.5 -88.5t-62.5 -136.5t-37 -176.5q-16 -149 35.5 -227.5t158.5 -78.5q57 0 109 22.5t95.5 66t74.5 106.5q12 18 21.5 24t19.5 5q13 0 20 -12t0 -36
q-29 -92 -92.5 -164.5t-159 -114.5t-223.5 -42q-117 0 -194 45.5t-110.5 131.5t-20.5 208q11 116 58.5 217.5t123.5 179t171.5 121.5t203.5 44q87 0 144 -33t86 -88t32 -121q1 -15 7.5 -25t21.5 -11q11 -1 16 -6t5 -14q1 -11 -8.5 -21t-35.5 -18q-29 -9 -90.5 -29t-139 -45
t-157 -51.5t-147 -48.5t-109 -36l-41.5 -14zM648 1141l-243 197q-10 9 -21.5 9.5t-21.5 -5.5q-8 -6 -11.5 -16t3.5 -22l145 -270q10 -18 21.5 -27.5t31.5 -9.5t36 9.5t36 27.5l282 270q14 12 17 22t-2 16q-6 6 -18.5 5.5t-27.5 -9.5l-345 -197h118z" />
    <glyph glyph-name="Gcircumflex" unicode="&#x11c;" horiz-adv-x="1399" 
d="M926 1427q81 0 135.5 -17.5t89 -40.5t54.5 -40.5t32 -17.5t30.5 16.5t39 38t38.5 37.5t29 16q17 0 26.5 -10.5t11.5 -33.5l-11 -370q1 -20 -7.5 -28.5t-22.5 -9.5q-13 -1 -23.5 6.5t-16.5 22.5l-30 89q-32 96 -77 155t-103 86.5t-129 27.5q-99 0 -187 -51.5t-161.5 -147
t-126 -226.5t-80.5 -290q-37 -214 -18 -343.5t80.5 -188t152.5 -58.5q66 0 126 24.5t103.5 71t61.5 112.5l69 259q7 25 0.5 40.5t-31.5 18.5l-96 12q-15 3 -21 10.5t-5 18.5q0 15 11 23.5t31 8.5h474q21 0 28 -7.5t7 -20.5q0 -11 -9 -19.5t-25 -13.5l-58 -14q-20 -5 -31 -18
t-18 -34l-137 -493q-9 -29 -20 -40t-30 -11q-10 0 -28.5 10t-40 24.5t-43.5 29.5t-39.5 25t-26.5 10q-12 0 -36 -15t-62 -34.5t-91.5 -35t-126.5 -15.5q-167 0 -284 78.5t-165.5 227.5t-13.5 360q28 165 102 308t181.5 250t240 167t277.5 60zM1034 1658h-117l251 -152
q24 -16 43 -4q8 5 11.5 15.5t-3.5 21.5l-153 230q-11 17 -21.5 26.5t-30.5 9.5q-19 0 -34.5 -9.5t-36.5 -26.5l-271 -230q-14 -11 -16 -21.5t2 -15.5q7 -6 18.5 -5t27.5 9z" />
    <glyph glyph-name="gcircumflex" unicode="&#x11d;" horiz-adv-x="1015" 
d="M802 27q-42 -176 -133 -293t-226 -175t-310 -58q-121 0 -183 39t-62 100q0 41 28.5 70t80.5 29q42 0 78 -23t69 -54t66 -54t69 -23q45 0 87 23.5t76 76t56 137.5l148 561l24 -15q-47 -129 -112.5 -215.5t-143.5 -130t-166 -43.5q-70 0 -121 30.5t-76 94t-17 161.5
q9 101 47 197.5t103 180t151.5 147t191 99t222.5 35.5q89 0 153.5 -12.5t99.5 -31.5t33 -40q-2 -19 -14 -27.5t-25.5 -17.5t-17.5 -29zM298 268q-7 -67 3 -104.5t29.5 -52.5t42.5 -15q40 0 83.5 36t86 99.5t79.5 145.5t64.5 174.5t40.5 186.5q10 59 1.5 89t-42.5 30
q-52 0 -104.5 -34t-101 -93t-87 -135t-64 -160t-31.5 -167zM769 1202h-118l243 -197q10 -9 22 -9.5t21 5.5q8 6 11.5 16t-3.5 22l-145 270q-10 18 -21.5 27.5t-30.5 9.5q-20 0 -36.5 -9.5t-36.5 -27.5l-283 -270q-13 -12 -16 -22t2 -16q7 -6 19 -5.5t27 9.5z" />
    <glyph glyph-name="Gbreve" unicode="&#x11e;" horiz-adv-x="1399" 
d="M926 1427q81 0 135.5 -17.5t89 -40.5t54.5 -40.5t32 -17.5t30.5 16.5t39 38t38.5 37.5t29 16q17 0 26.5 -10.5t11.5 -33.5l-11 -370q1 -20 -7.5 -28.5t-22.5 -9.5q-13 -1 -23.5 6.5t-16.5 22.5l-30 89q-32 96 -77 155t-103 86.5t-129 27.5q-99 0 -187 -51.5t-161.5 -147
t-126 -226.5t-80.5 -290q-37 -214 -18 -343.5t80.5 -188t152.5 -58.5q66 0 126 24.5t103.5 71t61.5 112.5l69 259q7 25 0.5 40.5t-31.5 18.5l-96 12q-15 3 -21 10.5t-5 18.5q0 15 11 23.5t31 8.5h474q21 0 28 -7.5t7 -20.5q0 -11 -9 -19.5t-25 -13.5l-58 -14q-20 -5 -31 -18
t-18 -34l-137 -493q-9 -29 -20 -40t-30 -11q-10 0 -28.5 10t-40 24.5t-43.5 29.5t-39.5 25t-26.5 10q-12 0 -36 -15t-62 -34.5t-91.5 -35t-126.5 -15.5q-167 0 -284 78.5t-165.5 227.5t-13.5 360q28 165 102 308t181.5 250t240 167t277.5 60zM995 1649q73 0 129 29t103 94
q9 11 16.5 15.5t15.5 4.5q12 0 16 -9t-2 -25q-41 -123 -126 -190.5t-191 -67.5q-104 0 -154 67.5t-28 190.5q3 16 12 25t21 9q8 0 13.5 -4.5t8.5 -15.5q14 -67 56.5 -95t109.5 -28z" />
    <glyph glyph-name="gbreve" unicode="&#x11f;" horiz-adv-x="1015" 
d="M802 27q-42 -176 -133 -293t-226 -175t-310 -58q-121 0 -183 39t-62 100q0 41 28.5 70t80.5 29q42 0 78 -23t69 -54t66 -54t69 -23q45 0 87 23.5t76 76t56 137.5l148 561l24 -15q-47 -129 -112.5 -215.5t-143.5 -130t-166 -43.5q-70 0 -121 30.5t-76 94t-17 161.5
q9 101 47 197.5t103 180t151.5 147t191 99t222.5 35.5q89 0 153.5 -12.5t99.5 -31.5t33 -40q-2 -19 -14 -27.5t-25.5 -17.5t-17.5 -29zM298 268q-7 -67 3 -104.5t29.5 -52.5t42.5 -15q40 0 83.5 36t86 99.5t79.5 145.5t64.5 174.5t40.5 186.5q10 59 1.5 89t-42.5 30
q-52 0 -104.5 -34t-101 -93t-87 -135t-64 -160t-31.5 -167zM735 1162q73 0 129.5 33.5t106.5 103.5q18 21 33 21q13 0 17 -9.5t-2 -26.5q-45 -134 -132.5 -205.5t-192.5 -71.5q-103 0 -154 71.5t-26 205.5q3 17 12.5 26.5t21.5 9.5q16 0 21 -21q15 -73 56.5 -105t109.5 -32z
" />
    <glyph glyph-name="Gdotaccent" unicode="&#x120;" horiz-adv-x="1399" 
d="M926 1427q81 0 135.5 -17.5t89 -40.5t54.5 -40.5t32 -17.5t30.5 16.5t39 38t38.5 37.5t29 16q17 0 26.5 -10.5t11.5 -33.5l-11 -370q1 -20 -7.5 -28.5t-22.5 -9.5q-13 -1 -23.5 6.5t-16.5 22.5l-30 89q-32 96 -77 155t-103 86.5t-129 27.5q-99 0 -187 -51.5t-161.5 -147
t-126 -226.5t-80.5 -290q-37 -214 -18 -343.5t80.5 -188t152.5 -58.5q66 0 126 24.5t103.5 71t61.5 112.5l69 259q7 25 0.5 40.5t-31.5 18.5l-96 12q-15 3 -21 10.5t-5 18.5q0 15 11 23.5t31 8.5h474q21 0 28 -7.5t7 -20.5q0 -11 -9 -19.5t-25 -13.5l-58 -14q-20 -5 -31 -18
t-18 -34l-137 -493q-9 -29 -20 -40t-30 -11q-10 0 -28.5 10t-40 24.5t-43.5 29.5t-39.5 25t-26.5 10q-12 0 -36 -15t-62 -34.5t-91.5 -35t-126.5 -15.5q-167 0 -284 78.5t-165.5 227.5t-13.5 360q28 165 102 308t181.5 250t240 167t277.5 60zM949 1513q-64 0 -93.5 36.5
t-14.5 95.5q16 58 64.5 94.5t113.5 36.5t94 -36.5t13 -94.5q-15 -59 -63 -95.5t-114 -36.5z" />
    <glyph glyph-name="gdotaccent" unicode="&#x121;" horiz-adv-x="1015" 
d="M802 27q-42 -176 -133 -293t-226 -175t-310 -58q-121 0 -183 39t-62 100q0 41 28.5 70t80.5 29q42 0 78 -23t69 -54t66 -54t69 -23q45 0 87 23.5t76 76t56 137.5l148 561l24 -15q-47 -129 -112.5 -215.5t-143.5 -130t-166 -43.5q-70 0 -121 30.5t-76 94t-17 161.5
q9 101 47 197.5t103 180t151.5 147t191 99t222.5 35.5q89 0 153.5 -12.5t99.5 -31.5t33 -40q-2 -19 -14 -27.5t-25.5 -17.5t-17.5 -29zM298 268q-7 -67 3 -104.5t29.5 -52.5t42.5 -15q40 0 83.5 36t86 99.5t79.5 145.5t64.5 174.5t40.5 186.5q10 59 1.5 89t-42.5 30
q-52 0 -104.5 -34t-101 -93t-87 -135t-64 -160t-31.5 -167zM689 1016q-64 0 -92.5 37t-12.5 97q15 59 63 96t112 37q65 0 93 -37t12 -96q-15 -60 -63 -97t-112 -37z" />
    <glyph glyph-name="Gcommaaccent" unicode="&#x122;" horiz-adv-x="1399" 
d="M926 1427q81 0 135.5 -17.5t89 -40.5t54.5 -40.5t32 -17.5t30.5 16.5t39 38t38.5 37.5t29 16q17 0 26.5 -10.5t11.5 -33.5l-11 -370q1 -20 -7.5 -28.5t-22.5 -9.5q-13 -1 -23.5 6.5t-16.5 22.5l-30 89q-32 96 -77 155t-103 86.5t-129 27.5q-99 0 -187 -51.5t-161.5 -147
t-126 -226.5t-80.5 -290q-37 -214 -18 -343.5t80.5 -188t152.5 -58.5q66 0 126 24.5t103.5 71t61.5 112.5l69 259q7 25 0.5 40.5t-31.5 18.5l-96 12q-15 3 -21 10.5t-5 18.5q0 15 11 23.5t31 8.5h474q21 0 28 -7.5t7 -20.5q0 -11 -9 -19.5t-25 -13.5l-58 -14q-20 -5 -31 -18
t-18 -34l-137 -493q-9 -29 -20 -40t-30 -11q-10 0 -28.5 10t-40 24.5t-43.5 29.5t-39.5 25t-26.5 10q-12 0 -36 -15t-62 -34.5t-91.5 -35t-126.5 -15.5q-167 0 -284 78.5t-165.5 227.5t-13.5 360q28 165 102 308t181.5 250t240 167t277.5 60zM597 -321q-62 0 -83 31t-10 74
q13 51 57 83t99 32q61 0 88 -39.5t7 -116.5q-27 -103 -101 -168t-189 -87q-16 -4 -23.5 0.5t-7.5 14.5q0 9 7 17t21 11q58 10 100.5 31.5t68 48t30.5 48.5q5 20 -17 20h-47z" />
    <glyph glyph-name="gcommaaccent" unicode="&#x123;" horiz-adv-x="1015" 
d="M802 27q-42 -176 -133 -293t-226 -175t-310 -58q-121 0 -183 39t-62 100q0 41 28.5 70t80.5 29q42 0 78 -23t69 -54t66 -54t69 -23q45 0 87 23.5t76 76t56 137.5l148 561l24 -15q-47 -129 -112.5 -215.5t-143.5 -130t-166 -43.5q-70 0 -121 30.5t-76 94t-17 161.5
q9 101 47 197.5t103 180t151.5 147t191 99t222.5 35.5q89 0 153.5 -12.5t99.5 -31.5t33 -40q-2 -19 -14 -27.5t-25.5 -17.5t-17.5 -29zM298 268q-7 -67 3 -104.5t29.5 -52.5t42.5 -15q40 0 83.5 36t86 99.5t79.5 145.5t64.5 174.5t40.5 186.5q10 59 1.5 89t-42.5 30
q-52 0 -104.5 -34t-101 -93t-87 -135t-64 -160t-31.5 -167zM714 1229q64 0 86 -31t10 -76q-12 -50 -55 -81.5t-97 -31.5q-62 0 -89.5 40t-7.5 115q27 104 101 169t189 87q16 4 24 -0.5t7 -14.5q0 -9 -7 -17t-21 -11q-58 -10 -100.5 -31.5t-67.5 -47t-31 -49.5q-6 -20 17 -20
h42z" />
    <glyph glyph-name="Hcircumflex" unicode="&#x124;" horiz-adv-x="1549" 
d="M443 127q-6 -23 1 -37t28 -19l72 -12q15 -4 21.5 -10.5t6.5 -17.5q0 -14 -11.5 -22.5t-31.5 -8.5h-498q-21 0 -29 7.5t-8 19.5q0 13 9 21.5t23 11.5l73 12q22 5 35.5 18.5t22.5 42.5q10 37 29.5 107.5t45 163t53.5 196t55.5 207t52 196t42.5 163.5t27 107q4 24 -2.5 37
t-28.5 17l-72 13q-15 5 -21.5 11.5t-6.5 17.5q0 15 12 23t34 8h494q22 0 29 -7t7 -19q0 -13 -8.5 -21t-24.5 -13l-77 -15q-21 -4 -32 -15.5t-21 -39.5q-11 -38 -31 -111.5t-46 -168.5t-54 -201.5t-56 -211t-51.5 -196t-40 -158.5t-22.5 -96zM471 692h747l-18 -61h-747z
M1234 127q-5 -23 2 -37t28 -19l71 -12q15 -4 22 -10.5t7 -17.5q0 -14 -11.5 -22.5t-32.5 -8.5h-497q-21 0 -29.5 7.5t-8.5 19.5q0 13 9 21.5t24 11.5l72 12q23 5 36 18.5t23 42.5q10 37 29.5 107.5t44.5 163t53 196l56 207t52.5 196t42.5 163.5t26 107q5 24 -2 37t-29 17
l-71 13q-16 5 -22 11.5t-6 17.5q0 15 11.5 23t34.5 8h494q21 0 28.5 -7t7.5 -19q0 -13 -8.5 -21t-24.5 -13l-77 -15q-21 -4 -32.5 -15.5t-20.5 -39.5q-11 -38 -31.5 -111.5t-46 -168.5t-54 -201.5t-56 -211t-51 -196t-40 -158.5t-23.5 -96zM1110 1653h-117l251 -152
q24 -16 43 -4q8 5 11.5 15.5t-3.5 21.5l-153 230q-11 17 -21.5 26.5t-30.5 9.5q-19 0 -34.5 -9.5t-36.5 -26.5l-271 -230q-14 -11 -16 -21.5t2 -15.5q7 -6 18.5 -5t27.5 9z" />
    <glyph glyph-name="hcircumflex" unicode="&#x125;" horiz-adv-x="1108" 
d="M364 363q35 100 79 175.5t91.5 126t92.5 76t79 25.5q46 0 55.5 -35.5t-20.5 -127.5l-129 -392q-25 -75 -23.5 -127t34.5 -78.5t100 -26.5q100 0 174 45t115 119q10 21 10 33.5t-9 16.5q-8 4 -16 1t-21 -16q-30 -34 -50 -47t-38 -13q-24 0 -32 29.5t20 110.5l128 390
q28 84 27.5 145.5t-35.5 95.5t-112 34q-74 0 -163 -39.5t-178 -130t-164 -246.5l14 -4l179 635q23 80 55.5 129t72.5 71.5t84 22.5q36 0 69.5 -22.5t67 -51.5t69 -51t76.5 -22q54 0 85 30t31 73q0 57 -61 93.5t-181 36.5q-185 0 -318 -59.5t-219.5 -175t-133.5 -284.5
l-222 -795q-14 -52 -14 -86.5t20.5 -51t66.5 -16.5q101 0 158 26t57 69q0 23 -8.5 40.5t-8.5 41.5q0 19 4.5 49t15 69.5t26.5 88.5zM886 1686h-117l251 -152q24 -16 43 -4q8 5 11.5 15.5t-3.5 21.5l-153 230q-11 17 -21.5 26.5t-30.5 9.5q-19 0 -34.5 -9.5t-36.5 -26.5
l-271 -230q-14 -11 -16 -21.5t2 -15.5q7 -6 18.5 -5t27.5 9z" />
    <glyph glyph-name="Hbar" unicode="&#x126;" horiz-adv-x="1549" 
d="M208 1000q3 10 11.5 16t19.5 6h1391q11 0 15 -6t1 -16t-11 -16t-19 -6h-1392q-23 0 -16 22zM443 127q-6 -23 1 -37t28 -19l72 -12q15 -4 21.5 -10.5t6.5 -17.5q0 -14 -11.5 -22.5t-31.5 -8.5h-498q-21 0 -29 7.5t-8 19.5q0 13 9 21.5t23 11.5l73 12q22 5 35.5 18.5
t22.5 42.5q10 37 29.5 107.5t45 163t53.5 196t55.5 207t52 196t42.5 163.5t27 107q4 24 -2.5 37t-28.5 17l-72 13q-15 5 -21.5 11.5t-6.5 17.5q0 15 12 23t34 8h494q22 0 29 -7t7 -19q0 -13 -8.5 -21t-24.5 -13l-77 -15q-21 -4 -32 -15.5t-21 -39.5q-11 -38 -31 -111.5
t-46 -168.5t-54 -201.5t-56 -211t-51.5 -196t-40 -158.5t-22.5 -96zM471 692h747l-18 -61h-747zM1234 127q-5 -23 2 -37t28 -19l71 -12q15 -4 22 -10.5t7 -17.5q0 -14 -11.5 -22.5t-32.5 -8.5h-497q-21 0 -29.5 7.5t-8.5 19.5q0 13 9 21.5t24 11.5l72 12q23 5 36 18.5
t23 42.5q10 37 29.5 107.5t44.5 163t53 196l56 207t52.5 196t42.5 163.5t26 107q5 24 -2 37t-29 17l-71 13q-16 5 -22 11.5t-6 17.5q0 15 11.5 23t34.5 8h494q21 0 28.5 -7t7.5 -19q0 -13 -8.5 -21t-24.5 -13l-77 -15q-21 -4 -32.5 -15.5t-20.5 -39.5q-11 -38 -31.5 -111.5
t-46 -168.5t-54 -201.5t-56 -211t-51 -196t-40 -158.5t-23.5 -96z" />
    <glyph glyph-name="hbar" unicode="&#x127;" horiz-adv-x="1104" 
d="M667 1422l-267 -914l-9 2q74 147 160.5 238.5t176.5 134t172 42.5q73 0 105 -34.5t31 -96t-30 -144.5l-126 -391q-26 -80 -20 -109.5t33 -29.5q19 0 40.5 13.5t52.5 50.5q10 9 17 12t15 -2q9 -4 8.5 -17t-10.5 -31q-40 -74 -113.5 -120t-173.5 -46q-67 0 -100 26
t-34.5 77t22.5 126l127 395q30 93 20 129t-57 36q-32 0 -74.5 -22.5t-89.5 -71t-92 -125t-82 -184.5q-18 -52 -28 -91.5t-13.5 -68t-3.5 -48.5q0 -24 9 -41.5t9 -41.5q0 -42 -57 -68.5t-155 -26.5q-48 0 -70 15t-21.5 50.5t18.5 97.5l329 1176q5 18 27.5 38.5t54.5 41
t66 37.5t63 27t46 10q22 0 27 -14.5t-3 -36.5zM204 1148q4 11 12.5 17.5t18.5 6.5h582q12 0 16.5 -6.5t0.5 -17.5q-7 -24 -30 -24h-584q-23 0 -16 24z" />
    <glyph glyph-name="Itilde" unicode="&#x128;" horiz-adv-x="760" 
d="M445 127q-6 -23 1 -37t28 -19l72 -12q14 -4 21 -10.5t7 -17.5q0 -14 -11.5 -22.5t-31.5 -8.5h-498q-21 0 -29 7.5t-8 19.5q0 13 9 21.5t23 11.5l73 12q23 5 36 18.5t22 42.5q10 37 29.5 107.5t45 163t53.5 196t55.5 207t51.5 196t42 163.5t26 107q5 24 -1.5 37t-28.5 17
l-72 13q-16 5 -22 11.5t-6 17.5q0 15 12 23t34 8h495q21 0 28 -7t7 -19q0 -13 -8.5 -21t-24.5 -13l-77 -15q-21 -4 -32.5 -15.5t-20.5 -39.5q-11 -38 -31 -111.5t-46 -168.5t-54 -201.5t-55.5 -211t-51 -196t-40 -158.5t-22.5 -96zM755 1507q-41 0 -71.5 15.5t-55 35.5
t-48.5 35.5t-51 15.5q-63 0 -93 -87q-10 -22 -31 -22q-26 0 -16 33q28 109 81 164.5t129 55.5q42 0 72 -15t54.5 -35t48.5 -35.5t52 -15.5q63 0 92 86q11 23 32 23q25 0 15 -34q-28 -108 -81 -164t-129 -56z" />
    <glyph glyph-name="itilde" unicode="&#x129;" horiz-adv-x="606" 
d="M380 120q-28 0 -34.5 30t21.5 111l143 420q31 83 25.5 137t-40.5 81t-95 27q-84 0 -162.5 -50.5t-130.5 -131.5q-11 -15 -11 -27t9 -17q8 -3 16.5 -0.5t19.5 9.5q36 40 59.5 54.5t41.5 14.5q29 0 33.5 -31t-26.5 -114l-145 -424q-28 -74 -25.5 -125.5t37 -77.5t100.5 -26
q99 0 173 46t114 119q11 19 11 32t-9 17q-7 5 -14.5 2t-17.5 -12q-32 -37 -53 -50.5t-40 -13.5zM537.011 1019q-36.9014 0 -63.9014 17.5q-27.001 17.5 -49.0518 41.5t-43.2012 41.5t-46.3516 17.5q-28.8008 0 -49.9512 -25t-36.4512 -76q-9.89941 -23 -28.8008 -23
q-23.4004 0 -14.4004 35q27.9014 117 76.5029 176.5q48.6006 59.5 117.902 59.5q37.8018 0 64.8018 -17.5q27.001 -17.5 48.6016 -41t42.751 -41.5t46.3516 -18q30.6006 0 51.3018 25.5q20.7002 25.5 35.1006 75.5q9.90039 23 29.7012 23q22.5 0 13.5 -34
q-27.001 -117 -76.0518 -177q-49.0518 -60 -118.354 -60z" />
    <glyph glyph-name="Imacron" unicode="&#x12a;" horiz-adv-x="760" 
d="M445 127q-6 -23 1 -37t28 -19l72 -12q14 -4 21 -10.5t7 -17.5q0 -14 -11.5 -22.5t-31.5 -8.5h-498q-21 0 -29 7.5t-8 19.5q0 13 9 21.5t23 11.5l73 12q23 5 36 18.5t22 42.5q10 37 29.5 107.5t45 163t53.5 196t55.5 207t51.5 196t42 163.5t26 107q5 24 -1.5 37t-28.5 17
l-72 13q-16 5 -22 11.5t-6 17.5q0 15 12 23t34 8h495q21 0 28 -7t7 -19q0 -13 -8.5 -21t-24.5 -13l-77 -15q-21 -4 -32.5 -15.5t-20.5 -39.5q-11 -38 -31 -111.5t-46 -168.5t-54 -201.5t-55.5 -211t-51 -196t-40 -158.5t-22.5 -96zM408 1613q8 30 22.5 42.5t36.5 12.5h456
q22 0 29.5 -12t-0.5 -42t-22 -42.5t-37 -12.5h-456q-22 0 -29 12.5t0 41.5z" />
    <glyph glyph-name="imacron" unicode="&#x12b;" horiz-adv-x="606" 
d="M380 120q-28 0 -34.5 30t21.5 111l143 420q31 83 25.5 137t-40.5 81t-95 27q-84 0 -162.5 -50.5t-130.5 -131.5q-11 -15 -11 -27t9 -17q8 -3 16.5 -0.5t19.5 9.5q36 40 59.5 54.5t41.5 14.5q29 0 33.5 -31t-26.5 -114l-145 -424q-28 -74 -25.5 -125.5t37 -77.5t100.5 -26
q99 0 173 46t114 119q11 19 11 32t-9 17q-7 5 -14.5 2t-17.5 -12q-32 -37 -53 -50.5t-40 -13.5zM225.32 1129q6.47949 30 18.2246 42.5t30.375 12.5h373.408q17.8203 0 23.8955 -12t-0.405273 -43q-6.47949 -30 -18.2246 -43t-29.5654 -13h-373.408q-18.6299 0 -24.2998 13
q-5.6709 13 0 43z" />
    <glyph glyph-name="Ibreve" unicode="&#x12c;" horiz-adv-x="760" 
d="M445 127q-6 -23 1 -37t28 -19l72 -12q14 -4 21 -10.5t7 -17.5q0 -14 -11.5 -22.5t-31.5 -8.5h-498q-21 0 -29 7.5t-8 19.5q0 13 9 21.5t23 11.5l73 12q23 5 36 18.5t22 42.5q10 37 29.5 107.5t45 163t53.5 196t55.5 207t51.5 196t42 163.5t26 107q5 24 -1.5 37t-28.5 17
l-72 13q-16 5 -22 11.5t-6 17.5q0 15 12 23t34 8h495q21 0 28 -7t7 -19q0 -13 -8.5 -21t-24.5 -13l-77 -15q-21 -4 -32.5 -15.5t-20.5 -39.5q-11 -38 -31 -111.5t-46 -168.5t-54 -201.5t-55.5 -211t-51 -196t-40 -158.5t-22.5 -96zM698 1640q73 0 129 29t103 94
q9 11 16.5 15.5t15.5 4.5q12 0 16 -9t-2 -25q-41 -123 -126 -190.5t-191 -67.5q-104 0 -154 67.5t-28 190.5q3 16 12 25t21 9q8 0 13.5 -4.5t8.5 -15.5q14 -67 56.5 -95t109.5 -28z" />
    <glyph glyph-name="ibreve" unicode="&#x12d;" horiz-adv-x="606" 
d="M380 120q-28 0 -34.5 30t21.5 111l143 420q31 83 25.5 137t-40.5 81t-95 27q-84 0 -162.5 -50.5t-130.5 -131.5q-11 -15 -11 -27t9 -17q8 -3 16.5 -0.5t19.5 9.5q36 40 59.5 54.5t41.5 14.5q29 0 33.5 -31t-26.5 -114l-145 -424q-28 -74 -25.5 -125.5t37 -77.5t100.5 -26
q99 0 173 46t114 119q11 19 11 32t-9 17q-7 5 -14.5 2t-17.5 -12q-32 -37 -53 -50.5t-40 -13.5zM484.408 1162q65.7021 0 116.554 33.5q50.8506 33.5 95.8525 103.5q16.2002 21 29.7002 21q11.7002 0 15.3008 -9.5t-1.7998 -26.5q-40.501 -134 -119.254 -205.5
q-78.752 -71.5 -173.254 -71.5q-92.7031 0 -138.604 71.5t-23.4004 205.5q2.7002 17 11.25 26.5q8.55078 9.5 19.3506 9.5q14.4004 0 18.9004 -21q13.501 -73 50.8516 -105q37.3516 -32 98.5527 -32z" />
    <glyph glyph-name="Iogonek" unicode="&#x12e;" horiz-adv-x="760" 
d="M422 33l8 -26q-108 -51 -168 -127t-60 -151q0 -43 19 -64t52 -21q31 0 61 16.5t53 40.5q9 8 16.5 11t15.5 1q6 -2 8 -11t-9 -23q-28 -42 -88.5 -73t-137.5 -31q-91 0 -137 34.5t-46 97.5q0 60 41.5 118t132.5 111t239 97zM445 127q-6 -23 1 -37t28 -19l72 -12
q14 -4 21 -10.5t7 -17.5q0 -14 -11.5 -22.5t-31.5 -8.5h-498q-21 0 -29 7.5t-8 19.5q0 13 9 21.5t23 11.5l73 12q23 5 36 18.5t22 42.5q10 37 29.5 107.5t45 163t53.5 196t55.5 207t51.5 196t42 163.5t26 107q5 24 -1.5 37t-28.5 17l-72 13q-16 5 -22 11.5t-6 17.5
q0 15 12 23t34 8h495q21 0 28 -7t7 -19q0 -13 -8.5 -21t-24.5 -13l-77 -15q-21 -4 -32.5 -15.5t-20.5 -39.5q-11 -38 -31 -111.5t-46 -168.5t-54 -201.5t-55.5 -211t-51 -196t-40 -158.5t-22.5 -96z" />
    <glyph glyph-name="iogonek" unicode="&#x12f;" horiz-adv-x="607" 
d="M384 52l8 -22q-72 -34 -122 -85t-76 -108t-26 -108q0 -46 20 -68t52 -22q30 0 61 16.5t54 40.5q9 8 16.5 11.5t14.5 0.5q7 -2 8.5 -11t-8.5 -24q-30 -42 -91.5 -73.5t-140.5 -31.5q-88 0 -134.5 35.5t-46.5 99.5q0 59 41 119t131.5 118t238.5 112zM367 259
q-27 -80 -19.5 -110t32.5 -30q17 0 37.5 13t50.5 46q13 13 21 16t16 0q9 -4 9 -17t-10 -33q-41 -74 -115 -119.5t-174 -45.5q-67 0 -100 27t-34.5 79t23.5 127l147 424q28 79 21.5 109t-31.5 30q-17 0 -38.5 -12.5t-54.5 -48.5q-13 -11 -21 -14t-16 0q-9 4 -8.5 16t9.5 30
q47 81 123 129.5t166 48.5q60 0 94 -27.5t39 -81.5t-23 -135zM455 1068q-65 0 -99.5 33t-31.5 81q1 43 27 84.5t71 68.5t104 27q71 0 103 -33.5t30 -81.5q-1 -47 -27 -88t-71.5 -66t-105.5 -25z" />
    <glyph glyph-name="Idotaccent" unicode="&#x130;" horiz-adv-x="760" 
d="M445 127q-6 -23 1 -37t28 -19l72 -12q14 -4 21 -10.5t7 -17.5q0 -14 -11.5 -22.5t-31.5 -8.5h-498q-21 0 -29 7.5t-8 19.5q0 13 9 21.5t23 11.5l73 12q23 5 36 18.5t22 42.5q10 37 29.5 107.5t45 163t53.5 196t55.5 207t51.5 196t42 163.5t26 107q5 24 -1.5 37t-28.5 17
l-72 13q-16 5 -22 11.5t-6 17.5q0 15 12 23t34 8h495q21 0 28 -7t7 -19q0 -13 -8.5 -21t-24.5 -13l-77 -15q-21 -4 -32.5 -15.5t-20.5 -39.5q-11 -38 -31 -111.5t-46 -168.5t-54 -201.5t-55.5 -211t-51 -196t-40 -158.5t-22.5 -96zM655 1504q-64 0 -93.5 36.5t-14.5 95.5
q16 58 64.5 94.5t113.5 36.5t94 -36.5t13 -94.5q-15 -59 -63 -95.5t-114 -36.5z" />
    <glyph glyph-name="dotlessi" unicode="&#x131;" horiz-adv-x="604" 
d="M380 120q-28 0 -34.5 30t21.5 111l143 420q31 83 25.5 137t-40.5 81t-95 27q-84 0 -162.5 -50.5t-130.5 -131.5q-11 -15 -11 -27t9 -17q8 -3 16.5 -0.5t19.5 9.5q36 40 59.5 54.5t41.5 14.5q29 0 33.5 -31t-26.5 -114l-145 -424q-28 -74 -25.5 -125.5t37 -77.5t100.5 -26
q99 0 173 46t114 119q11 19 11 32t-9 17q-7 5 -14.5 2t-17.5 -12q-32 -37 -53 -50.5t-40 -13.5z" />
    <glyph glyph-name="IJ" unicode="&#x132;" horiz-adv-x="1501" 
d="M445 127q-6 -23 1 -37t28 -19l72 -12q14 -4 21 -10.5t7 -17.5q0 -14 -11.5 -22.5t-31.5 -8.5h-498q-21 0 -29 7.5t-8 19.5q0 13 9 21.5t23 11.5l73 12q23 5 36 18.5t22 42.5q10 37 29.5 107.5t45 163t53.5 196t55.5 207t51.5 196t42 163.5t26 107q5 24 -1.5 37t-28.5 17
l-72 13q-16 5 -22 11.5t-6 17.5q0 15 12 23t34 8h495q21 0 28 -7t7 -19q0 -13 -8.5 -21t-24.5 -13l-77 -15q-21 -4 -32.5 -15.5t-20.5 -39.5q-11 -38 -31 -111.5t-46 -168.5t-54 -201.5t-55.5 -211t-51 -196t-40 -158.5t-22.5 -96zM1492 1248q-5 -17 -23.5 -86t-46 -173
t-59.5 -226t-65 -246t-61.5 -233.5t-49 -188t-28.5 -108.5q-27 -121 -85 -200t-137 -116.5t-172 -37.5q-78 0 -118 33.5t-40 82.5q0 42 28 70.5t77 28.5q31 0 60.5 -13.5t57 -30.5t53.5 -30.5t51 -13.5q33 0 54 24.5t22 84.5q0 21 -12.5 44t-30 49t-32.5 55.5t-21 64t6 75.5
q7 28 25 96.5t43.5 162.5t54 200t57 211t52.5 195t40.5 151.5t20.5 79.5q10 39 3.5 54t-33.5 21l-71 12q-15 5 -22 11.5t-7 17.5q0 14 11.5 22.5t33.5 8.5h496q21 0 28.5 -7t7.5 -19q0 -13 -8.5 -21.5t-23.5 -12.5l-74 -15q-16 -3 -26.5 -10.5t-18.5 -23t-17 -43.5z" />
    <glyph glyph-name="ij" unicode="&#x133;" horiz-adv-x="1176" 
d="M367 259q-27 -81 -19.5 -111t32.5 -30q17 0 37.5 13t50.5 47q13 13 21 16t16 0q9 -4 9 -17t-10 -34q-41 -74 -115 -119t-174 -45q-67 0 -100 27t-34.5 79t23.5 127l147 424q28 78 21.5 108.5t-31.5 30.5q-17 0 -38.5 -13t-54.5 -49q-13 -11 -21 -14t-16 0q-9 4 -8.5 16
t9.5 31q47 80 123 128.5t166 48.5q60 0 94 -27t39 -81.5t-23 -135.5zM455 1067q-65 0 -99.5 33t-31.5 82q1 43 27 84.5t71 68.5t104 27q71 0 103 -33.5t30 -81.5q-1 -48 -27 -89t-71.5 -66t-105.5 -25zM1116 678l-260 -879q-43 -145 -128.5 -215t-214.5 -70
q-77 0 -114.5 30.5t-37.5 78.5q0 42 28.5 71.5t76.5 29.5q42 0 75 -19t62.5 -37.5t62.5 -18.5q29 0 53 17.5t34 63.5q6 30 -2.5 59.5t-23 62t-28.5 67t-18.5 72.5t7.5 81l167 564q23 80 18 109.5t-31 29.5q-18 0 -39 -13t-55 -49q-12 -11 -20 -14t-16 0q-9 4 -9 16t10 31
q32 54 76.5 93.5t98.5 61.5t113 22q91 0 121 -60.5t-6 -184.5zM1045 1067q-65 0 -99.5 33t-32.5 82q2 43 28 84.5t71 68.5t104 27q71 0 103 -33.5t30 -81.5q-1 -48 -27 -89t-71.5 -66t-105.5 -25z" />
    <glyph glyph-name="Jcircumflex" unicode="&#x134;" horiz-adv-x="743" 
d="M735 1248q-5 -17 -23.5 -86t-46 -173t-59.5 -226t-65 -246t-61.5 -233.5t-49 -188t-28.5 -108.5q-27 -121 -85 -200t-137 -116.5t-172 -37.5q-78 0 -118 33.5t-40 82.5q0 42 28 70.5t77 28.5q31 0 60.5 -13.5t57 -30.5t53.5 -30.5t51 -13.5q33 0 54 24.5t22 84.5
q0 21 -12.5 44t-30 49t-32.5 55.5t-21 64t6 75.5q7 28 25 96.5t43.5 162.5t54 200t57 211t52.5 195t40.5 151.5t20.5 79.5q10 39 3.5 54t-33.5 21l-71 12q-15 5 -22 11.5t-7 17.5q0 14 11.5 22.5t33.5 8.5h496q21 0 28.5 -7t7.5 -19q0 -13 -8.5 -21.5t-23.5 -12.5l-74 -15
q-16 -3 -26.5 -10.5t-18.5 -23t-17 -43.5zM732 1653h-117l251 -152q24 -16 43 -4q8 5 11.5 15.5t-3.5 21.5l-153 230q-11 17 -21.5 26.5t-30.5 9.5q-19 0 -34.5 -9.5t-36.5 -26.5l-271 -230q-14 -11 -16 -21.5t2 -15.5q7 -6 18.5 -5t27.5 9z" />
    <glyph glyph-name="jcircumflex" unicode="&#x135;" horiz-adv-x="568" 
d="M507 677l-257 -883q-42 -144 -128 -214.5t-216 -70.5q-77 0 -116 30t-39 77q0 40 29.5 68t80.5 28q41 0 74 -17t63.5 -34.5t60.5 -17.5q32 0 55 23t25 63q0 19 -11.5 39t-26.5 44t-27 56.5t-13.5 75.5t14.5 102l169 581q23 79 22.5 115t-31.5 36q-19 0 -42.5 -14.5
t-59.5 -54.5q-10 -8 -18 -9.5t-15 0.5q-9 4 -10 15.5t9 25.5q32 54 78.5 95.5t102 66t113.5 24.5q97 0 124 -63t-10 -187zM483.839 1206h-100.297l206.544 -197q8.5 -9 18.6992 -9.5t17.8496 5.5q6.7998 6 9.77441 16q2.97559 10 -2.97461 22l-123.247 270
q-8.49902 18 -18.2744 27.5q-9.77441 9.5 -25.9238 9.5q-16.999 0 -31.0244 -9.5q-14.0244 -9.5 -31.0234 -27.5l-240.543 -270q-11.0498 -12 -13.5996 -22q-2.55078 -10 1.69922 -16q5.9502 -6 16.1494 -5.5q10.2002 0.5 22.9502 9.5z" />
    <glyph glyph-name="Kcommaaccent" unicode="&#x136;" horiz-adv-x="1420" 
d="M436 124q-4 -20 3 -33t28 -18l70 -12q13 -4 21.5 -11t8.5 -19q0 -14 -11.5 -22.5t-31.5 -8.5h-493q-21 0 -29 7.5t-8 19.5q0 13 9 21.5t23 11.5l73 12q23 5 36 19.5t22 41.5q10 37 29.5 107.5t45 163.5t53.5 196.5t56 207.5t52.5 196.5t42.5 163.5t26 108q5 23 -2.5 35.5
t-28.5 16.5l-71 12q-15 5 -21.5 11.5t-6.5 17.5q0 15 12 23t34 8h496q17 0 25 -7t8 -20t-8.5 -20t-26.5 -13l-81 -18q-20 -4 -31.5 -14.5t-19.5 -36.5q-11 -38 -31.5 -111t-46.5 -169t-54.5 -203t-56 -212t-51.5 -197t-41 -159t-23 -96zM709 720l208 205l232 -683
q20 -57 41 -83.5t52 -26.5q20 0 36 11.5t33 35.5q16 16 31 11q9 -2 13 -12t-4 -28q-24 -55 -63.5 -94.5t-91 -60.5t-111.5 -21q-72 0 -113 37t-70 126zM457 405l-22 56l752 806q54 58 100 94t90 52.5t92 16.5q61 0 93.5 -32.5t28.5 -81.5q-3 -55 -41 -85t-100 -30
q-38 0 -66.5 9.5t-61.5 9.5q-49 0 -94 -21t-97 -77zM662 -319q-62 0 -83 31t-10 74q13 51 57 83t99 32q61 0 88 -39.5t7 -116.5q-27 -103 -101 -168t-189 -87q-16 -4 -23.5 0.5t-7.5 14.5q0 9 7 17t21 11q58 10 100.5 31.5t68 48t30.5 48.5q5 20 -17 20h-47z" />
    <glyph glyph-name="kcommaaccent" unicode="&#x137;" horiz-adv-x="1084" 
d="M413 552q9 41 23.5 95t34 124.5t45 161t57.5 202.5q22 81 55 130.5t73 72.5t85 23q35 0 68.5 -22.5t67 -51.5t69.5 -51t77 -22q54 0 84.5 30t30.5 73q0 57 -61 93.5t-180 36.5q-183 0 -316 -58.5t-220 -172.5t-134 -282l-225 -807q-14 -49 -13 -81.5t21.5 -49t65.5 -16.5
q68 0 116 11.5t73.5 33t25.5 50.5q0 23 -8 40.5t-8 41.5q0 19 3.5 45.5t15 74t32.5 128.5q25 94 69 171.5t97.5 133t108.5 84.5t102 26q43 -2 63.5 -31.5t11.5 -81.5q-12 -73 -66 -134.5t-159.5 -108t-274.5 -76.5l2 -51q251 42 411.5 100t241 131.5t91.5 160.5
q13 93 -38.5 143.5t-150.5 52.5q-80 2 -155.5 -25.5t-142 -79.5t-118 -124.5t-80.5 -160.5zM503 395l70 -257q22 -83 61 -120.5t105 -38.5q61 -1 110.5 20.5t87 64t59.5 106.5q4 16 0.5 24t-11.5 11q-7 2 -15 -1t-18 -14q-20 -29 -39.5 -43.5t-41.5 -13.5q-26 0 -45.5 21
t-35.5 71l-73 228zM407 -319q-62 0 -83 31t-10 74q13 51 57 83t99 32q61 0 88 -39.5t7 -116.5q-27 -103 -101 -168t-189 -87q-16 -4 -23.5 0.5t-7.5 14.5q0 9 7 17t21 11q58 10 100.5 31.5t68 48t30.5 48.5q5 20 -17 20h-47z" />
    <glyph glyph-name="kra" unicode="&#x138;" horiz-adv-x="1100" 
d="M506 449l177 162l129 -396q14 -42 31.5 -61t40.5 -21q22 0 43 14t44 49q15 15 31 8q10 -3 13 -10t-1 -22q-22 -65 -62 -108t-91.5 -64t-109.5 -19q-61 2 -97 37.5t-57 111.5zM525 817q0 -21 -13.5 -72.5t-34 -120.5t-44 -143.5t-44 -142t-34 -116.5t-13.5 -65
q0 -23 9 -40.5t9 -41.5q0 -42 -57.5 -68.5t-157.5 -26.5q-44 0 -65.5 17.5t-21 52.5t19.5 85l166 498q30 84 26 114.5t-34 30.5q-18 0 -41 -14.5t-60 -54.5q-11 -7 -19.5 -9.5t-16.5 0.5q-9 5 -8.5 17.5t10.5 26.5q53 83 135 132.5t164 49.5q62 0 93.5 -27.5t31.5 -81.5z
M317 253l-19 48l482 478q53 50 93 81.5t76.5 47t76.5 16.5q53 1 80 -28.5t25 -73.5q-2 -50 -41.5 -79.5t-104.5 -30.5q-37 0 -66 7t-66 7q-31 -1 -62 -20.5t-77 -64.5z" />
    <glyph glyph-name="Lacute" unicode="&#x139;" horiz-adv-x="1120" 
d="M662 0h-630q-21 0 -29.5 7.5t-7.5 20.5q0 12 9 20.5t24 12.5l72 12q24 5 37 20.5t22 45.5q11 38 30.5 109t45 164t53.5 197t55.5 207t51.5 195t41.5 161t25.5 104q4 23 -3 35t-25 16l-75 14q-14 4 -21 10.5t-7 17.5q0 14 11 22.5t31 8.5h498q21 0 28.5 -7.5t7.5 -19.5
t-8.5 -20.5t-23.5 -12.5l-80 -15q-19 -4 -30.5 -17t-20.5 -41q-12 -41 -32.5 -114t-45.5 -165.5t-52 -194t-53.5 -201.5t-49 -188.5t-39 -155t-24.5 -98.5q-11 -52 7.5 -72.5t66.5 -20.5h112q72 0 130 31.5t114.5 104.5t124.5 198q11 22 21.5 31t22.5 9q15 0 22 -10.5
t6 -29.5q-6 -98 -30 -175t-61 -130.5t-83.5 -81t-99.5 -27.5q-22 0 -42.5 5.5t-42.5 11.5t-54 6zM790 1713q46 48 88.5 74.5t83.5 19.5q41 -6 54 -38t-1 -65q-18 -47 -59.5 -74t-96.5 -47l-226 -91q-10 -3 -20 -2.5t-14 6.5q-4 7 1 15.5t13 17.5z" />
    <glyph glyph-name="lacute" unicode="&#x13a;" horiz-adv-x="595" 
d="M695 1447q85 0 125.5 -33.5t40.5 -80.5q0 -43 -27 -70t-77 -27q-32 0 -59.5 12t-52.5 28.5t-49 28.5t-50 12q-24 0 -44 -14t-31.5 -36.5t-13.5 -48.5q0 -25 11.5 -49.5t26.5 -51t27.5 -59.5t15 -74t-12.5 -94l-187 -625q-25 -87 -18 -116.5t34 -29.5q23 0 49 15.5
t56 52.5q12 12 19 15t15 0q9 -3 10 -16t-9 -33q-25 -51 -70 -90t-104.5 -61.5t-129.5 -22.5q-68 0 -101 26.5t-36 79.5t20 130l285 955q44 144 129.5 210.5t207.5 66.5zM788 1745q46 48 88.5 74.5t83.5 19.5q41 -6 54 -38t-1 -65q-18 -47 -59.5 -74t-96.5 -47l-226 -91
q-10 -3 -20 -2.5t-14 6.5q-4 7 1 15.5t13 17.5z" />
    <glyph glyph-name="Lcommaaccent" unicode="&#x13b;" horiz-adv-x="1120" 
d="M662 0h-630q-21 0 -29.5 7.5t-7.5 20.5q0 12 9 20.5t24 12.5l72 12q24 5 37 20.5t22 45.5q11 38 30.5 109t45 164t53.5 197t55.5 207t51.5 195t41.5 161t25.5 104q4 23 -3 35t-25 16l-75 14q-14 4 -21 10.5t-7 17.5q0 14 11 22.5t31 8.5h498q21 0 28.5 -7.5t7.5 -19.5
t-8.5 -20.5t-23.5 -12.5l-80 -15q-19 -4 -30.5 -17t-20.5 -41q-12 -41 -32.5 -114t-45.5 -165.5t-52 -194t-53.5 -201.5t-49 -188.5t-39 -155t-24.5 -98.5q-11 -52 7.5 -72.5t66.5 -20.5h112q72 0 130 31.5t114.5 104.5t124.5 198q11 22 21.5 31t22.5 9q15 0 22 -10.5
t6 -29.5q-6 -98 -30 -175t-61 -130.5t-83.5 -81t-99.5 -27.5q-22 0 -42.5 5.5t-42.5 11.5t-54 6zM450 -319q-62 0 -83 31t-10 74q13 51 57 83t99 32q61 0 88 -39.5t7 -116.5q-27 -103 -101 -168t-189 -87q-16 -4 -23.5 0.5t-7.5 14.5q0 9 7 17t21 11q58 10 100.5 31.5t68 48
t30.5 48.5q5 20 -17 20h-47z" />
    <glyph glyph-name="lcommaaccent" unicode="&#x13c;" horiz-adv-x="595" 
d="M695 1447q85 0 125.5 -33.5t40.5 -80.5q0 -43 -27 -70t-77 -27q-32 0 -59.5 12t-52.5 28.5t-49 28.5t-50 12q-24 0 -44 -14t-31.5 -36.5t-13.5 -48.5q0 -25 11.5 -49.5t26.5 -51t27.5 -59.5t15 -74t-12.5 -94l-187 -625q-25 -87 -18 -116.5t34 -29.5q23 0 49 15.5
t56 52.5q12 12 19 15t15 0q9 -3 10 -16t-9 -33q-25 -51 -70 -90t-104.5 -61.5t-129.5 -22.5q-68 0 -101 26.5t-36 79.5t20 130l285 955q44 144 129.5 210.5t207.5 66.5zM149 -319q-62 0 -83 31t-10 74q13 51 57 83t99 32q61 0 88 -39.5t7 -116.5q-27 -103 -101 -168
t-189 -87q-16 -4 -23.5 0.5t-7.5 14.5q0 9 7 17t21 11q58 10 100.5 31.5t68 48t30.5 48.5q5 20 -17 20h-47z" />
    <glyph glyph-name="Lcaron" unicode="&#x13d;" horiz-adv-x="1120" 
d="M662 0h-630q-21 0 -29.5 7.5t-7.5 20.5q0 12 9 20.5t24 12.5l72 12q24 5 37 20.5t22 45.5q11 38 30.5 109t45 164t53.5 197t55.5 207t51.5 195t41.5 161t25.5 104q4 23 -3 35t-25 16l-75 14q-14 4 -21 10.5t-7 17.5q0 14 11 22.5t31 8.5h498q21 0 28.5 -7.5t7.5 -19.5
t-8.5 -20.5t-23.5 -12.5l-80 -15q-19 -4 -30.5 -17t-20.5 -41q-12 -41 -32.5 -114t-45.5 -165.5t-52 -194t-53.5 -201.5t-49 -188.5t-39 -155t-24.5 -98.5q-11 -52 7.5 -72.5t66.5 -20.5h112q72 0 130 31.5t114.5 104.5t124.5 198q11 22 21.5 31t22.5 9q15 0 22 -10.5
t6 -29.5q-6 -98 -30 -175t-61 -130.5t-83.5 -81t-99.5 -27.5q-22 0 -42.5 5.5t-42.5 11.5t-54 6zM954 1297q22 65 54 105t79 47q46 9 70 -14t20 -56q-3 -40 -28 -75t-65 -71l-167 -174q-8 -7 -17.5 -10t-16.5 0q-7 5 -6 13t4 18z" />
    <glyph glyph-name="lcaron" unicode="&#x13e;" horiz-adv-x="596" 
d="M622 1212l-277 -947q-25 -87 -18 -116.5t35 -29.5q22 0 48 15.5t56 52.5q12 12 19 15t15 0q9 -3 10 -16t-9 -33q-25 -51 -69.5 -90t-105 -61.5t-132.5 -22.5q-68 0 -100.5 26t-34.5 79t21 131l281 955q22 73 15 100.5t-30 27.5q-17 0 -38 -11.5t-52 -44.5
q-12 -10 -20.5 -13.5t-16.5 -0.5q-8 5 -8 17t10 30q30 52 74.5 90.5t99 60t113.5 21.5q63 0 95.5 -26.5t37 -79t-18.5 -129.5zM754 1361q22 65 54 105t79 47q46 9 70 -14t20 -56q-3 -40 -28 -75t-65 -71l-167 -174q-8 -7 -17.5 -10t-16.5 0q-7 5 -6 13t4 18z" />
    <glyph glyph-name="Ldot" unicode="&#x13f;" horiz-adv-x="1120" 
d="M662 0h-630q-21 0 -29.5 7.5t-7.5 20.5q0 12 9 20.5t24 12.5l72 12q24 5 37 20.5t22 45.5q11 38 30.5 109t45 164t53.5 197t55.5 207t51.5 195t41.5 161t25.5 104q4 23 -3 35t-25 16l-75 14q-14 4 -21 10.5t-7 17.5q0 14 11 22.5t31 8.5h498q21 0 28.5 -7.5t7.5 -19.5
t-8.5 -20.5t-23.5 -12.5l-80 -15q-19 -4 -30.5 -17t-20.5 -41q-12 -41 -32.5 -114t-45.5 -165.5t-52 -194t-53.5 -201.5t-49 -188.5t-39 -155t-24.5 -98.5q-11 -52 7.5 -72.5t66.5 -20.5h112q72 0 130 31.5t114.5 104.5t124.5 198q11 22 21.5 31t22.5 9q15 0 22 -10.5
t6 -29.5q-6 -98 -30 -175t-61 -130.5t-83.5 -81t-99.5 -27.5q-22 0 -42.5 5.5t-42.5 11.5t-54 6zM1032 668q-64 0 -93.5 36.5t-14.5 95.5q16 58 64.5 94.5t113.5 36.5t94 -36.5t13 -94.5q-15 -59 -63 -95.5t-114 -36.5z" />
    <glyph glyph-name="ldot" unicode="&#x140;" horiz-adv-x="757" 
d="M695 1447q85 0 125.5 -33.5t40.5 -80.5q0 -43 -27 -70t-77 -27q-32 0 -59.5 12t-52.5 28.5t-49 28.5t-50 12q-24 0 -44 -14t-31.5 -36.5t-13.5 -48.5q0 -25 11.5 -49.5t26.5 -51t27.5 -59.5t15 -74t-12.5 -94l-187 -625q-25 -87 -18 -116.5t34 -29.5q23 0 49 15.5
t56 52.5q12 12 19 15t15 0q9 -3 10 -16t-9 -33q-25 -51 -70 -90t-104.5 -61.5t-129.5 -22.5q-68 0 -101 26.5t-36 79.5t20 130l285 955q44 144 129.5 210.5t207.5 66.5zM699 605q-64 0 -92.5 37t-12.5 97q15 59 63 96t112 37q65 0 93 -37t12 -96q-15 -60 -63 -97t-112 -37z
" />
    <glyph glyph-name="Lslash" unicode="&#x141;" horiz-adv-x="1114" 
d="M108 555q-1 9 5.5 17.5t18.5 12.5l741 334q13 5 21.5 2.5t10.5 -11.5t-4.5 -17.5t-18.5 -12.5l-742 -335q-12 -4 -20.5 -1.5t-11.5 11.5zM664 0h-630q-21 0 -29.5 7.5t-7.5 20.5q0 12 9.5 20.5t23.5 12.5l72 12q25 5 37.5 20.5t21.5 45.5q11 38 30.5 109t45 164t53.5 197
t55.5 207t52 195t42 161t24.5 104q5 23 -2.5 35t-25.5 16l-75 14q-13 4 -20.5 10.5t-7.5 17.5q0 14 11 22.5t31 8.5h498q21 0 29 -7.5t8 -19.5t-9 -20.5t-24 -12.5l-80 -15q-19 -4 -30.5 -17t-19.5 -41q-13 -41 -33.5 -114t-45 -165.5t-51.5 -194t-53.5 -201.5t-49.5 -188.5
t-39.5 -155t-23.5 -98.5q-12 -52 6.5 -72.5t66.5 -20.5h112q73 0 130.5 31.5t114 104.5t124.5 198q11 22 21.5 31t22.5 9q16 0 22.5 -10.5t5.5 -29.5q-6 -98 -29.5 -175t-61 -130.5t-83.5 -81t-99 -27.5q-23 0 -43 5.5t-42.5 11.5t-54.5 6z" />
    <glyph glyph-name="lslash" unicode="&#x142;" horiz-adv-x="598" 
d="M40 550q-4 8 0 17t14 14l261 181l132 44l217 153q10 6 19.5 5.5t13.5 -8.5q5 -8 1 -16t-14 -15l-252 -174l-130 -43l-229 -161q-11 -6 -19.5 -5.5t-13.5 8.5zM704 1447q85 0 125.5 -33.5t40.5 -80.5q0 -43 -27 -70t-77 -27q-32 0 -59.5 12t-52.5 28.5t-49 28.5t-50 12
q-24 0 -43.5 -14t-31.5 -36.5t-14 -48.5q0 -25 11.5 -49.5t27 -51t28 -59.5t14.5 -74t-13 -94l-186 -625q-26 -87 -19 -116.5t35 -29.5q22 0 48 15.5t56 52.5q12 12 19 15t15 0q9 -3 10.5 -16t-8.5 -33q-25 -51 -70.5 -90t-105 -61.5t-129.5 -22.5q-68 0 -101 26.5
t-35.5 79.5t20.5 130l285 955q43 144 128.5 210.5t207.5 66.5z" />
    <glyph glyph-name="Nacute" unicode="&#x143;" horiz-adv-x="1338" 
d="M254 253l233 879l-56 -9q39 -106 81 -215t82.5 -216t78 -205t69 -182t53.5 -149q13 -27 17.5 -49t3.5 -51q0 -27 12 -41.5t37 -14.5h244q25 0 34 17.5t-1 42.5l-52 154q-10 28 -10.5 46t6.5 44l158 659q14 54 35.5 93t54 70t78.5 58q65 41 94 78.5t30 83.5q0 43 -27.5 68
t-73.5 25q-66 0 -118.5 -54.5t-82.5 -169.5l-238 -979l64 30q-30 80 -62.5 161.5t-66 165.5t-69 171t-72 179t-73 190t-73.5 203q-15 35 -33.5 49.5t-51.5 14.5h-206q-20 0 -30 -10t-9 -24t12 -29l61 -146q15 -22 18.5 -50.5t-5.5 -59.5l-216 -821q-21 -84 -63.5 -130.5
t-92.5 -59.5l-37 -9q-31 -10 -31 -33q0 -13 9.5 -20.5t29.5 -7.5h356q16 0 26 7t10 22q0 11 -7 18t-18 11l-38 8q-58 17 -75.5 63t1.5 124zM1138 1713q46 48 88.5 74.5t83.5 19.5q41 -6 54 -38t-1 -65q-18 -47 -59.5 -74t-96.5 -47l-226 -91q-10 -3 -20 -2.5t-14 6.5
q-4 7 1 15.5t13 17.5z" />
    <glyph glyph-name="nacute" unicode="&#x144;" horiz-adv-x="1139" 
d="M105 699q-9 4 -9 16.5t10 30.5q48 81 126.5 129t169.5 48q59 0 91 -25.5t32 -75.5q0 -32 -13 -74.5t-32 -92t-40 -103t-37 -107.5l-11 17q56 131 122.5 219.5t137 141.5t138 76.5t124.5 23.5q77 0 112 -33.5t35.5 -95.5t-27.5 -146l-128 -390q-27 -81 -19.5 -110.5
t31.5 -29.5q18 0 38.5 13t50.5 47q13 13 20.5 16t15.5 -1q9 -4 9 -16.5t-10 -33.5q-40 -74 -114 -119t-174 -45q-67 0 -100 26.5t-35 78.5t23 127l129 392q31 91 21.5 127t-55.5 36q-33 0 -76 -24t-90.5 -73t-92.5 -124.5t-81 -179.5q-20 -57 -32 -97t-17 -67t-5 -45
q0 -24 8.5 -41t8.5 -40q0 -43 -56.5 -69.5t-155.5 -26.5q-70 0 -84 40.5t14 122.5l167 494q27 79 21 109t-31 30q-17 0 -38.5 -13t-55.5 -49q-12 -11 -20 -14t-16 0zM828 1252q42 61 83.5 94t89.5 29q46 -3 61.5 -34t2.5 -65q-14 -43 -50 -74.5t-89 -60.5l-219 -132
q-10 -4 -20 -4t-15 6q-6 7 -1.5 15.5t12.5 17.5z" />
    <glyph glyph-name="Ncommaaccent" unicode="&#x145;" horiz-adv-x="1338" 
d="M254 253l233 879l-56 -9q39 -106 81 -215t82.5 -216t78 -205t69 -182t53.5 -149q13 -27 17.5 -49t3.5 -51q0 -27 12 -41.5t37 -14.5h244q25 0 34 17.5t-1 42.5l-52 154q-10 28 -10.5 46t6.5 44l158 659q14 54 35.5 93t54 70t78.5 58q65 41 94 78.5t30 83.5q0 43 -27.5 68
t-73.5 25q-66 0 -118.5 -54.5t-82.5 -169.5l-238 -979l64 30q-30 80 -62.5 161.5t-66 165.5t-69 171t-72 179t-73 190t-73.5 203q-15 35 -33.5 49.5t-51.5 14.5h-206q-20 0 -30 -10t-9 -24t12 -29l61 -146q15 -22 18.5 -50.5t-5.5 -59.5l-216 -821q-21 -84 -63.5 -130.5
t-92.5 -59.5l-37 -9q-31 -10 -31 -33q0 -13 9.5 -20.5t29.5 -7.5h356q16 0 26 7t10 22q0 11 -7 18t-18 11l-38 8q-58 17 -75.5 63t1.5 124zM557 -319q-62 0 -83 31t-10 74q13 51 57 83t99 32q61 0 88 -39.5t7 -116.5q-27 -103 -101 -168t-189 -87q-16 -4 -23.5 0.5
t-7.5 14.5q0 9 7 17t21 11q58 10 100.5 31.5t68 48t30.5 48.5q5 20 -17 20h-47z" />
    <glyph glyph-name="ncommaaccent" unicode="&#x146;" horiz-adv-x="1139" 
d="M105 699q-9 4 -9 16.5t10 30.5q48 81 126.5 129t169.5 48q59 0 91 -25.5t32 -75.5q0 -32 -13 -74.5t-32 -92t-40 -103t-37 -107.5l-11 17q56 131 122.5 219.5t137 141.5t138 76.5t124.5 23.5q77 0 112 -33.5t35.5 -95.5t-27.5 -146l-128 -390q-27 -81 -19.5 -110.5
t31.5 -29.5q18 0 38.5 13t50.5 47q13 13 20.5 16t15.5 -1q9 -4 9 -16.5t-10 -33.5q-40 -74 -114 -119t-174 -45q-67 0 -100 26.5t-35 78.5t23 127l129 392q31 91 21.5 127t-55.5 36q-33 0 -76 -24t-90.5 -73t-92.5 -124.5t-81 -179.5q-20 -57 -32 -97t-17 -67t-5 -45
q0 -24 8.5 -41t8.5 -40q0 -43 -56.5 -69.5t-155.5 -26.5q-70 0 -84 40.5t14 122.5l167 494q27 79 21 109t-31 30q-17 0 -38.5 -13t-55.5 -49q-12 -11 -20 -14t-16 0zM439 -319q-62 0 -83 31t-10 74q13 51 57 83t99 32q61 0 88 -39.5t7 -116.5q-27 -103 -101 -168t-189 -87
q-16 -4 -23.5 0.5t-7.5 14.5q0 9 7 17t21 11q58 10 100.5 31.5t68 48t30.5 48.5q5 20 -17 20h-47z" />
    <glyph glyph-name="Ncaron" unicode="&#x147;" horiz-adv-x="1338" 
d="M254 253l233 879l-56 -9q39 -106 81 -215t82.5 -216t78 -205t69 -182t53.5 -149q13 -27 17.5 -49t3.5 -51q0 -27 12 -41.5t37 -14.5h244q25 0 34 17.5t-1 42.5l-52 154q-10 28 -10.5 46t6.5 44l158 659q14 54 35.5 93t54 70t78.5 58q65 41 94 78.5t30 83.5q0 43 -27.5 68
t-73.5 25q-66 0 -118.5 -54.5t-82.5 -169.5l-238 -979l64 30q-30 80 -62.5 161.5t-66 165.5t-69 171t-72 179t-73 190t-73.5 203q-15 35 -33.5 49.5t-51.5 14.5h-206q-20 0 -30 -10t-9 -24t12 -29l61 -146q15 -22 18.5 -50.5t-5.5 -59.5l-216 -821q-21 -84 -63.5 -130.5
t-92.5 -59.5l-37 -9q-31 -10 -31 -33q0 -13 9.5 -20.5t29.5 -7.5h356q16 0 26 7t10 22q0 11 -7 18t-18 11l-38 8q-58 17 -75.5 63t1.5 124zM1036 1636l-251 152q-23 17 -43 4q-8 -5 -11.5 -15t4.5 -22l152 -230q12 -16 22.5 -26t30.5 -10q19 0 34.5 10t36.5 26l270 230
q15 12 17.5 22t-3.5 15q-6 6 -17.5 5t-27.5 -9l-330 -152h116z" />
    <glyph glyph-name="ncaron" unicode="&#x148;" horiz-adv-x="1139" 
d="M105 699q-9 4 -9 16.5t10 30.5q48 81 126.5 129t169.5 48q59 0 91 -25.5t32 -75.5q0 -32 -13 -74.5t-32 -92t-40 -103t-37 -107.5l-11 17q56 131 122.5 219.5t137 141.5t138 76.5t124.5 23.5q77 0 112 -33.5t35.5 -95.5t-27.5 -146l-128 -390q-27 -81 -19.5 -110.5
t31.5 -29.5q18 0 38.5 13t50.5 47q13 13 20.5 16t15.5 -1q9 -4 9 -16.5t-10 -33.5q-40 -74 -114 -119t-174 -45q-67 0 -100 26.5t-35 78.5t23 127l129 392q31 91 21.5 127t-55.5 36q-33 0 -76 -24t-90.5 -73t-92.5 -124.5t-81 -179.5q-20 -57 -32 -97t-17 -67t-5 -45
q0 -24 8.5 -41t8.5 -40q0 -43 -56.5 -69.5t-155.5 -26.5q-70 0 -84 40.5t14 122.5l167 494q27 79 21 109t-31 30q-17 0 -38.5 -13t-55.5 -49q-12 -11 -20 -14t-16 0zM767 1141l-243 197q-10 9 -21.5 9.5t-21.5 -5.5q-8 -6 -11.5 -16t3.5 -22l145 -270q10 -18 21.5 -27.5
t31.5 -9.5t36 9.5t36 27.5l282 270q14 12 17 22t-2 16q-6 6 -18.5 5.5t-27.5 -9.5l-345 -197h118z" />
    <glyph glyph-name="Eng" unicode="&#x14a;" horiz-adv-x="1372" 
d="M1299 1216l-267 -1012l40 39q-26 78 -56.5 164t-63 178t-67 187.5t-69 193.5t-68 197.5t-65.5 197.5q-10 25 -23 32t-33 7h-248q-19 0 -29.5 -9.5t-11.5 -25t8 -32.5l60 -150q10 -20 12 -37t-7 -44l-242 -881q-18 -67 -58 -102t-92 -49l-34 -7q-17 -6 -27 -14t-13 -20
q-4 -13 4.5 -21t28.5 -8h350q19 0 30 7.5t15 21.5q3 11 -2 19t-19 14l-34 8q-47 14 -68 49t-3 101l258 936l-56 -35q29 -79 59 -161.5t60.5 -166.5t60.5 -167.5t58.5 -163.5t55 -155.5t48.5 -143.5q17 -51 35.5 -81t50.5 -58q21 -24 33 -55t16.5 -63t3.5 -61t-6 -52
q-13 -64 -49.5 -97t-82.5 -33q-30 0 -53 11t-45 26t-46.5 26t-58.5 11q-41 0 -71 -20.5t-38 -60.5q-8 -36 8.5 -67t56.5 -49.5t104 -18.5q128 0 218 71t127 203l315 1173q15 53 36.5 91t53.5 68t78 58q65 40 94.5 77.5t29.5 83.5q1 43 -27 68t-74 25q-66 0 -117.5 -55
t-83.5 -168z" />
    <glyph glyph-name="eng" unicode="&#x14b;" horiz-adv-x="1084" 
d="M768 -206q-43 -144 -129 -214.5t-215 -70.5q-77 0 -116 30t-39 77q0 40 29 68t80 28q41 0 74.5 -17t63.5 -34.5t61 -17.5t54.5 21.5t25.5 59.5q0 21 -11.5 41t-26 45t-26 57.5t-12.5 76.5t16 103l166 557q27 94 18.5 129.5t-55.5 35.5q-32 0 -74.5 -23.5t-88.5 -72.5
t-89.5 -125.5t-78.5 -181.5q-19 -57 -30 -97t-16 -67t-5 -45q0 -23 8.5 -40.5t8.5 -41.5q0 -42 -57 -68.5t-157 -26.5q-70 0 -84.5 39.5t14.5 115.5l167 498q29 84 25 114.5t-34 30.5q-17 0 -40.5 -14.5t-60.5 -54.5q-11 -7 -19.5 -9.5t-15.5 0.5q-9 5 -9 17.5t10 26.5
q54 83 136.5 132.5t165.5 49.5q61 0 91.5 -25t30.5 -76q0 -32 -13 -77t-32.5 -95t-38.5 -100t-31 -94l-20 5q61 130 127.5 218.5t135 142t133.5 77.5t123 24q68 0 101 -32t35.5 -92.5t-22.5 -143.5z" />
    <glyph glyph-name="Omacron" unicode="&#x14c;" 
d="M989 1425q132 -2 233.5 -56t165.5 -152.5t81 -233.5t-21 -300q-40 -172 -122.5 -304.5t-196 -223t-247.5 -135.5t-277 -43q-136 2 -239.5 55.5t-166 153t-75.5 239.5t33 315q39 149 117.5 275t188 218.5t243 142.5t283.5 49zM627 39q68 -2 136.5 30t134.5 107.5
t125.5 203.5t108.5 318q29 116 42.5 205.5t12.5 157.5q0 102 -28 168t-76.5 99.5t-110.5 35.5q-70 2 -141 -34t-137 -113.5t-123 -200t-99 -293.5q-32 -128 -46.5 -223.5t-14.5 -165.5q-1 -152 58.5 -222.5t157.5 -72.5zM761 1617q8 30 22.5 42.5t36.5 12.5h456
q22 0 29.5 -12t-0.5 -42t-22 -42.5t-37 -12.5h-456q-22 0 -29 12.5t0 41.5z" />
    <glyph glyph-name="omacron" unicode="&#x14d;" horiz-adv-x="1027" 
d="M612 926q127 -2 216 -58t128 -157.5t17 -240.5q-18 -107 -65.5 -197.5t-120.5 -157t-167.5 -102t-204.5 -34.5q-123 1 -212 55.5t-129.5 155.5t-18.5 241q18 112 66.5 203.5t122.5 157.5t167.5 101t200.5 33zM414 48q37 -3 73.5 23t71 74t64 111.5t51.5 137.5t34 151
q20 104 13.5 171.5t-33.5 102t-71 38.5q-37 3 -74.5 -22.5t-72 -73t-64.5 -111.5t-52.5 -139t-34.5 -155q-20 -105 -13 -172t35.5 -100t72.5 -36zM387 1129q8 30 22.5 42.5t37.5 12.5h461q22 0 29.5 -12t-0.5 -43q-8 -30 -22.5 -43t-36.5 -13h-461q-23 0 -30 13t0 43z" />
    <glyph glyph-name="Obreve" unicode="&#x14e;" 
d="M989 1425q132 -2 233.5 -56t165.5 -152.5t81 -233.5t-21 -300q-40 -172 -122.5 -304.5t-196 -223t-247.5 -135.5t-277 -43q-136 2 -239.5 55.5t-166 153t-75.5 239.5t33 315q39 149 117.5 275t188 218.5t243 142.5t283.5 49zM627 39q68 -2 136.5 30t134.5 107.5
t125.5 203.5t108.5 318q29 116 42.5 205.5t12.5 157.5q0 102 -28 168t-76.5 99.5t-110.5 35.5q-70 2 -141 -34t-137 -113.5t-123 -200t-99 -293.5q-32 -128 -46.5 -223.5t-14.5 -165.5q-1 -152 58.5 -222.5t157.5 -72.5zM1052 1644q73 0 129 29t103 94q9 11 16.5 15.5
t15.5 4.5q12 0 16 -9t-2 -25q-41 -123 -126 -190.5t-191 -67.5q-104 0 -154 67.5t-28 190.5q3 16 12 25t21 9q8 0 13.5 -4.5t8.5 -15.5q14 -67 56.5 -95t109.5 -28z" />
    <glyph glyph-name="obreve" unicode="&#x14f;" horiz-adv-x="1027" 
d="M612 926q127 -2 216 -58t128 -157.5t17 -240.5q-18 -107 -65.5 -197.5t-120.5 -157t-167.5 -102t-204.5 -34.5q-123 1 -212 55.5t-129.5 155.5t-18.5 241q18 112 66.5 203.5t122.5 157.5t167.5 101t200.5 33zM414 48q37 -3 73.5 23t71 74t64 111.5t51.5 137.5t34 151
q20 104 13.5 171.5t-33.5 102t-71 38.5q-37 3 -74.5 -22.5t-72 -73t-64.5 -111.5t-52.5 -139t-34.5 -155q-20 -105 -13 -172t35.5 -100t72.5 -36zM685 1162q73 0 129.5 33.5t106.5 103.5q18 21 33 21q13 0 17 -9.5t-2 -26.5q-45 -134 -132.5 -205.5t-192.5 -71.5
q-103 0 -154 71.5t-26 205.5q3 17 12.5 26.5t21.5 9.5q16 0 21 -21q15 -73 56.5 -105t109.5 -32z" />
    <glyph glyph-name="Ohungarumlaut" unicode="&#x150;" 
d="M989 1425q132 -2 233.5 -56t165.5 -152.5t81 -233.5t-21 -300q-40 -172 -122.5 -304.5t-196 -223t-247.5 -135.5t-277 -43q-136 2 -239.5 55.5t-166 153t-75.5 239.5t33 315q39 149 117.5 275t188 218.5t243 142.5t283.5 49zM627 39q68 -2 136.5 30t134.5 107.5
t125.5 203.5t108.5 318q29 116 42.5 205.5t12.5 157.5q0 102 -28 168t-76.5 99.5t-110.5 35.5q-70 2 -141 -34t-137 -113.5t-123 -200t-99 -293.5q-32 -128 -46.5 -223.5t-14.5 -165.5q-1 -152 58.5 -222.5t157.5 -72.5zM979 1715q39 53 78 82t81 26q38 -2 55.5 -29t5.5 -63
q-13 -41 -49 -70.5t-85 -53.5l-199 -107q-10 -5 -19.5 -6t-14.5 4q-4 6 -1 14t10 17zM1278 1715q40 52 79.5 81t80.5 24q38 -3 54.5 -30.5t3.5 -63.5q-14 -41 -50 -69.5t-86 -51.5l-200 -106q-10 -5 -19 -5t-14 5q-4 6 -0.5 14t11.5 17z" />
    </font>
</defs>
</svg>
