<?xml version="1.0" standalone="no"?>
<!DOCTYPE svg PUBLIC "-//W3C//DTD SVG 1.1//EN" "http://www.w3.org/Graphics/SVG/1.1/DTD/svg11.dtd" >
<svg xmlns="http://www.w3.org/2000/svg" xmlns:xlink="http://www.w3.org/1999/xlink" version="1.1">
<metadata>
Created by FontForge 20201107 at Mon Oct 26 20:10:00 2020
 By 
Copyright 2020 The Fraunces Project Authors (github.com/undercasetype/Fraunces)
</metadata>
<defs>
<font id="Fraunces72pt-LightItalic" horiz-adv-x="920" >
  <font-face 
    font-family="Fraunces 72pt Light"
    font-weight="300"
    font-style="italic"
    font-stretch="normal"
    units-per-em="2000"
    panose-1="0 0 0 0 0 0 0 0 0 0"
    ascent="1600"
    descent="-400"
    x-height="902"
    cap-height="1400"
    bbox="-265 -499 2668 2111.5"
    underline-thickness="50"
    underline-position="-325"
    slope="-16"
    unicode-range="U+0020-FB04"
  />
<missing-glyph horiz-adv-x="1000" 
d="M100 -490v2000h800v-2000h-800zM200 -390h600v1800h-600v-1800z" />
    <glyph glyph-name="f_f" unicode="ff" horiz-adv-x="1052" 
d="M349 830l16 43h237q11 0 17 -3.5t6 -12.5q0 -7 -6 -13.5t-16.5 -10t-23.5 -3.5h-230zM133 855q0 8 6.5 13.5t20.5 5.5h135l65 243q40 150 122 230t212 80q58 0 85.5 -21t27.5 -49q0 -29 -18 -47t-49 -18q-23 0 -41.5 9t-36 20.5t-35.5 20.5t-41 9q-53 0 -94 -42.5
t-54 -105.5q-7 -31 -6 -66.5t3.5 -73t2 -74t-9.5 -69.5l-285 -1026q-8 -32 -13 -56.5t-5 -44.5t7 -33.5t13.5 -25t6.5 -25.5q0 -18 -16.5 -34t-44 -25.5t-59.5 -9.5q-41 0 -52.5 32.5t7.5 102.5l275 966q13 46 -5 68t-98 25q-15 3 -20.5 9t-5.5 12zM875 830l16 43h237
q11 0 17 -3.5t6 -12.5q0 -7 -6 -13.5t-16.5 -10t-23.5 -3.5h-230zM659 855q0 8 6.5 13.5t20.5 5.5h135l65 243q40 150 122 230t212 80q58 0 85.5 -21t27.5 -49q0 -29 -18 -47t-49 -18q-23 0 -41.5 9t-36 20.5t-35.5 20.5t-41 9q-53 0 -94 -42.5t-54 -105.5q-7 -31 -6 -66.5
t3.5 -73t2 -74t-9.5 -69.5l-285 -1026q-8 -32 -13 -56.5t-5 -44.5t7 -33.5t13.5 -25t6.5 -25.5q0 -18 -16.5 -34t-44 -25.5t-59.5 -9.5q-41 0 -52.5 32.5t7.5 102.5l275 966q13 46 -5 68t-98 25q-15 3 -20.5 9t-5.5 12z" />
    <glyph glyph-name="fi" unicode="fi" horiz-adv-x="1055" 
d="M349 830l16 43h237q11 0 17 -3.5t6 -12.5q0 -7 -6 -13.5t-16.5 -10t-23.5 -3.5h-230zM133 855q0 8 6.5 13.5t20.5 5.5h135l65 243q40 150 122 230t212 80q58 0 85.5 -21t27.5 -49q0 -29 -18 -47t-49 -18q-23 0 -41.5 9t-36 20.5t-35.5 20.5t-41 9q-53 0 -94 -42.5
t-54 -105.5q-7 -31 -6 -66.5t3.5 -73t2 -74t-9.5 -69.5l-285 -1026q-8 -32 -13 -56.5t-5 -44.5t7 -33.5t13.5 -25t6.5 -25.5q0 -18 -16.5 -34t-44 -25.5t-59.5 -9.5q-41 0 -52.5 32.5t7.5 102.5l275 966q13 46 -5 68t-98 25q-15 3 -20.5 9t-5.5 12zM777 212
q-31 -87 -22.5 -120t36.5 -33q21 0 46 15t61 56q9 9 15.5 12.5t12.5 0.5t5 -11t-7 -19q-38 -62 -92 -96t-115 -34q-43 0 -68 22t-26.5 65t21.5 108l174 482q33 94 26 128.5t-38 34.5q-19 0 -44.5 -15t-62.5 -57q-9 -8 -15.5 -11t-12.5 -1q-6 3 -5 10.5t6 18.5q41 64 95.5 99
t112.5 35q42 0 66.5 -22t27 -67t-22.5 -115zM951 1100q-38 0 -58 23t-15 56q3 30 21.5 62t47.5 53.5t62 21.5q41 0 59.5 -22.5t13.5 -56.5q-2 -32 -21 -63.5t-47.5 -52.5t-62.5 -21z" />
    <glyph glyph-name="fl" unicode="fl" horiz-adv-x="1050" 
d="M349 830l16 43h237q11 0 17 -3.5t6 -12.5q0 -7 -6 -13.5t-16.5 -10t-23.5 -3.5h-230zM133 855q0 8 6.5 13.5t20.5 5.5h135l65 243q40 150 122 230t212 80q58 0 85.5 -21t27.5 -49q0 -29 -18 -47t-49 -18q-23 0 -41.5 9t-36 20.5t-35.5 20.5t-41 9q-53 0 -94 -42.5
t-54 -105.5q-7 -31 -6 -66.5t3.5 -73t2 -74t-9.5 -69.5l-285 -1026q-8 -32 -13 -56.5t-5 -44.5t7 -33.5t13.5 -25t6.5 -25.5q0 -18 -16.5 -34t-44 -25.5t-59.5 -9.5q-41 0 -52.5 32.5t7.5 102.5l275 966q13 46 -5 68t-98 25q-15 3 -20.5 9t-5.5 12zM1217 1439
q58 0 84.5 -19.5t26.5 -47.5q0 -25 -16.5 -41.5t-50.5 -16.5q-20 0 -38.5 7.5t-36 17t-36.5 17t-41 7.5q-29 0 -55 -20t-43 -52t-20 -67q-1 -20 2 -38.5t7 -37t6.5 -39t1 -43.5t-9.5 -50l-242 -790q-30 -99 -21.5 -132t43.5 -33q30 0 66 20t73 67q6 8 11 10.5t10 1.5
q7 -2 8.5 -9t-3.5 -19q-22 -44 -60 -77.5t-85.5 -52.5t-97.5 -19q-47 0 -72 21t-27 66t20 117l311 1019q37 118 108 175.5t177 57.5z" />
    <glyph glyph-name="f_f_i" unicode="ffi" horiz-adv-x="1581" 
d="M349 830l16 43h237q11 0 17 -3.5t6 -12.5q0 -7 -6 -13.5t-16.5 -10t-23.5 -3.5h-230zM133 855q0 8 6.5 13.5t20.5 5.5h135l65 243q40 150 122 230t212 80q58 0 85.5 -21t27.5 -49q0 -29 -18 -47t-49 -18q-23 0 -41.5 9t-36 20.5t-35.5 20.5t-41 9q-53 0 -94 -42.5
t-54 -105.5q-7 -31 -6 -66.5t3.5 -73t2 -74t-9.5 -69.5l-285 -1026q-8 -32 -13 -56.5t-5 -44.5t7 -33.5t13.5 -25t6.5 -25.5q0 -18 -16.5 -34t-44 -25.5t-59.5 -9.5q-41 0 -52.5 32.5t7.5 102.5l275 966q13 46 -5 68t-98 25q-15 3 -20.5 9t-5.5 12zM875 830l16 43h237
q11 0 17 -3.5t6 -12.5q0 -7 -6 -13.5t-16.5 -10t-23.5 -3.5h-230zM659 855q0 8 6.5 13.5t20.5 5.5h135l65 243q40 150 122 230t212 80q58 0 85.5 -21t27.5 -49q0 -29 -18 -47t-49 -18q-23 0 -41.5 9t-36 20.5t-35.5 20.5t-41 9q-53 0 -94 -42.5t-54 -105.5q-7 -31 -6 -66.5
t3.5 -73t2 -74t-9.5 -69.5l-285 -1026q-8 -32 -13 -56.5t-5 -44.5t7 -33.5t13.5 -25t6.5 -25.5q0 -18 -16.5 -34t-44 -25.5t-59.5 -9.5q-41 0 -52.5 32.5t7.5 102.5l275 966q13 46 -5 68t-98 25q-15 3 -20.5 9t-5.5 12zM1303 212q-31 -87 -22.5 -120t36.5 -33q21 0 46 15
t61 56q9 9 15.5 12.5t12.5 0.5t5 -11t-7 -19q-38 -62 -92 -96t-115 -34q-43 0 -68 22t-26.5 65t21.5 108l174 482q33 94 26 128.5t-38 34.5q-19 0 -44.5 -15t-62.5 -57q-9 -8 -15.5 -11t-12.5 -1q-6 3 -5 10.5t6 18.5q41 64 95.5 99t112.5 35q42 0 66.5 -22t27 -67
t-22.5 -115zM1477 1100q-38 0 -58 23t-15 56q3 30 21.5 62t47.5 53.5t62 21.5q41 0 59.5 -22.5t13.5 -56.5q-2 -32 -21 -63.5t-47.5 -52.5t-62.5 -21z" />
    <glyph glyph-name="f_f_l" unicode="ffl" horiz-adv-x="1576" 
d="M349 830l16 43h237q11 0 17 -3.5t6 -12.5q0 -7 -6 -13.5t-16.5 -10t-23.5 -3.5h-230zM133 855q0 8 6.5 13.5t20.5 5.5h135l65 243q40 150 122 230t212 80q58 0 85.5 -21t27.5 -49q0 -29 -18 -47t-49 -18q-23 0 -41.5 9t-36 20.5t-35.5 20.5t-41 9q-53 0 -94 -42.5
t-54 -105.5q-7 -31 -6 -66.5t3.5 -73t2 -74t-9.5 -69.5l-285 -1026q-8 -32 -13 -56.5t-5 -44.5t7 -33.5t13.5 -25t6.5 -25.5q0 -18 -16.5 -34t-44 -25.5t-59.5 -9.5q-41 0 -52.5 32.5t7.5 102.5l275 966q13 46 -5 68t-98 25q-15 3 -20.5 9t-5.5 12zM875 830l16 43h237
q11 0 17 -3.5t6 -12.5q0 -7 -6 -13.5t-16.5 -10t-23.5 -3.5h-230zM659 855q0 8 6.5 13.5t20.5 5.5h135l65 243q40 150 122 230t212 80q58 0 85.5 -21t27.5 -49q0 -29 -18 -47t-49 -18q-23 0 -41.5 9t-36 20.5t-35.5 20.5t-41 9q-53 0 -94 -42.5t-54 -105.5q-7 -31 -6 -66.5
t3.5 -73t2 -74t-9.5 -69.5l-285 -1026q-8 -32 -13 -56.5t-5 -44.5t7 -33.5t13.5 -25t6.5 -25.5q0 -18 -16.5 -34t-44 -25.5t-59.5 -9.5q-41 0 -52.5 32.5t7.5 102.5l275 966q13 46 -5 68t-98 25q-15 3 -20.5 9t-5.5 12zM1743 1439q58 0 84.5 -19.5t26.5 -47.5
q0 -25 -16.5 -41.5t-50.5 -16.5q-20 0 -38.5 7.5t-36 17t-36.5 17t-41 7.5q-29 0 -55 -20t-43 -52t-20 -67q-1 -20 2 -38.5t7 -37t6.5 -39t1 -43.5t-9.5 -50l-242 -790q-30 -99 -21.5 -132t43.5 -33q30 0 66 20t73 67q6 8 11 10.5t10 1.5q7 -2 8.5 -9t-3.5 -19
q-22 -44 -60 -77.5t-85.5 -52.5t-97.5 -19q-47 0 -72 21t-27 66t20 117l311 1019q37 118 108 175.5t177 57.5z" />
    <glyph glyph-name=".notdef" horiz-adv-x="1000" 
d="M100 -490v2000h800v-2000h-800zM200 -390h600v1800h-600v-1800z" />
    <glyph glyph-name=".null" horiz-adv-x="0" 
 />
    <glyph glyph-name="nonmarkingreturn" horiz-adv-x="666" 
 />
    <glyph glyph-name="space" unicode=" " horiz-adv-x="368" 
 />
    <glyph glyph-name="exclam" unicode="!" horiz-adv-x="541" 
d="M560 1469q40 0 54 -19.5t7 -48.5q-2 -12 -8 -30t-15 -38l-308 -904q-6 -13 -12.5 -19t-15.5 -6q-10 0 -13 6t-1 19l200 906q2 15 4.5 29.5t6.5 28.5q9 35 34 55.5t67 20.5zM148 -9q-40 0 -60 25.5t-14 62.5q5 29 22.5 52t44.5 37t58 14q41 0 60.5 -26t12.5 -64
q-4 -27 -21 -50t-43.5 -37t-59.5 -14z" />
    <glyph glyph-name="quotedbl" unicode="&#x22;" horiz-adv-x="527" 
d="M260 959q-8 0 -12.5 6t-2.5 19l83 454q7 55 32.5 83.5t61.5 28.5q38 0 47.5 -27.5t-13.5 -83.5l-167 -456q-5 -13 -12.5 -18.5t-16.5 -5.5zM529 959q-8 0 -12.5 6t-2.5 19l83 454q7 55 32.5 83.5t61.5 28.5q38 0 47.5 -27.5t-13.5 -83.5l-167 -456q-5 -13 -12.5 -18.5
t-16.5 -5.5z" />
    <glyph glyph-name="numbersign" unicode="#" horiz-adv-x="1166" 
d="M514 692q-13 -22 -42 -74t-66 -121.5t-76.5 -144.5t-76 -143.5t-63.5 -118.5t-39 -69q-19 -28 -40 -23q-21 4 -3 33q12 20 40.5 70t66 118.5t78.5 143.5t79.5 144.5t67.5 122t43 75.5q15 24 43 76.5t63.5 121t73 142.5t72 141.5t61 118t38.5 72.5q20 30 42 23
q19 -6 0 -36q-13 -22 -41 -73t-64 -119t-74.5 -141t-74.5 -142t-64.5 -121t-43.5 -76zM744 864q-24 0 -74 -0.5t-111.5 -1.5t-123.5 -1.5t-110.5 -0.5h-70.5q-32 0 -24 22q6 20 36 20q22 0 70 -0.5t109 -2t123 -2.5t111.5 -1.5t74.5 -0.5q23 0 70 0.5t105.5 1t116.5 1.5
t103.5 1.5t65.5 0.5q33 0 28 -20q-8 -22 -42 -23q-21 0 -66.5 1t-102.5 2t-114.5 2t-104 1.5t-69.5 0.5zM833 692q-14 -22 -42.5 -74t-65.5 -121.5t-76.5 -144.5t-76.5 -143.5t-64 -119t-38 -68.5q-19 -28 -41 -23q-20 4 -3 33q12 20 40.5 70t66 118.5t79 143.5t79.5 144.5
t67.5 122t43.5 75.5q15 24 43 76.5t63.5 121t72.5 142.5t71.5 141.5t61.5 118t39 71.5q20 31 41 24q19 -6 0 -36q-13 -22 -40.5 -73t-64 -119t-75 -141.5t-74.5 -142t-64.5 -120.5t-42.5 -76zM570 500q-23 0 -73 -0.5t-112 -1.5t-123.5 -1t-110.5 -0.5t-70 -0.5
q-31 0 -25 22q7 21 38 21q21 0 69 -1t109 -2.5t122.5 -2.5t111.5 -1.5t75 -0.5q23 0 70 0.5t105.5 1t116.5 1.5t103.5 1.5t65.5 0.5q33 0 28 -20q-8 -22 -43 -22q-20 0 -65.5 0.5t-102.5 1.5t-115 2t-104.5 1.5t-69.5 0.5z" />
    <glyph glyph-name="dollar" unicode="$" horiz-adv-x="1028" 
d="M419 6q-120 0 -202.5 34t-123.5 94.5t-34 139.5q3 57 26.5 85.5t53.5 28.5q27 0 39 -20t9 -59l-5 -76q-4 -63 21.5 -107t82 -67.5t141.5 -23.5q130 0 226 55.5t123 155.5q20 73 6 138t-68.5 126t-155.5 121q-123 72 -187 143t-78.5 148t9.5 165q17 64 59.5 119.5t105 97
t144 64.5t176.5 23q114 0 190 -32.5t113 -89.5t33 -130q-1 -48 -23 -74.5t-52 -26.5q-29 1 -42.5 18.5t-11.5 49.5l3 66q2 94 -50.5 142.5t-168.5 48.5q-90 0 -166.5 -29t-128.5 -80t-70 -120q-19 -70 -6 -132t69 -123.5t163 -131.5q116 -73 179 -146t80.5 -149t-5.5 -160
q-17 -67 -61 -119.5t-108.5 -90t-142.5 -57t-162 -19.5zM622 711h-32q58 201 93 334.5t54.5 217t30.5 132.5t19 79q6 21 19.5 32t29.5 11q15 0 22 -11t0 -33q-8 -28 -24 -75.5t-44 -131.5t-69 -218.5t-99 -336.5zM576 682h32q-56 -198 -90.5 -331t-54 -216t-29.5 -131
t-18 -76q-7 -22 -20 -33t-29 -11t-22.5 11t0.5 33q9 31 25 79.5t42.5 131t67 214.5t96.5 329z" />
    <glyph glyph-name="percent" unicode="%" horiz-adv-x="1245" 
d="M603 1422q120 0 171 -96.5t6 -266.5q-30 -112 -88.5 -188.5t-132 -116t-152.5 -39.5q-133 0 -182.5 97t-0.5 278q27 100 81.5 174.5t130.5 116t167 41.5zM667 1055q49 184 22 260t-102 76q-81 0 -146 -73.5t-105 -223.5q-50 -191 -23 -269t106 -78q45 0 90 27.5t86 95
t72 185.5zM757 754q-8 -10 -14.5 -12t-13.5 2q-5 3 -5 9t8 16q23 28 67.5 82t100 121t113 137t108 131t85.5 102.5t43 51.5q15 16 27 20t24 -4q12 -7 11 -19t-13 -27q-8 -9 -43.5 -49.5t-89 -100.5t-114 -128t-119 -134t-105 -118.5t-70.5 -79.5zM625 646q8 10 15 12t13 -2
q7 -3 6.5 -9.5t-9.5 -16.5q-21 -27 -65 -80.5t-99.5 -120.5t-114 -137.5t-110 -132.5t-87.5 -105t-45 -54q-14 -16 -27.5 -19.5t-25.5 3.5q-11 7 -9.5 19.5t14.5 27.5q9 11 46 52.5t90.5 102.5t114.5 129.5t119.5 134t105 117.5t68.5 79zM1019 688q120 0 171 -96.5t6 -266.5
q-30 -112 -88.5 -188.5t-132 -116t-152.5 -39.5q-133 0 -182.5 97t-0.5 278q27 100 81.5 174.5t130.5 116t167 41.5zM1083 321q49 184 22 260t-102 76q-81 0 -146 -73.5t-105 -223.5q-50 -191 -23 -269t106 -78q45 0 90 27.5t86 95t72 185.5z" />
    <glyph glyph-name="ampersand" unicode="&#x26;" horiz-adv-x="1220" 
d="M174 211l895 731q69 59 108.5 105.5t56 90t15.5 91.5q0 38 -19 65t-38 50.5t-20 52.5q0 28 17.5 48t49.5 20q37 1 68.5 -40t32.5 -114q0 -68 -23.5 -128.5t-77 -122.5t-144.5 -137l-888 -724q-69 -58 -113.5 -113t-66 -108.5t-21.5 -106.5q0 -45 20 -71.5t40 -46
t20 -45.5t-20 -46t-51 -20q-40 0 -67 38.5t-27 124.5q0 106 65 206t188 200zM1000 361q1 36 -8.5 64t-18.5 54t-9 53q1 21 11.5 40t29.5 31.5t45 12.5q34 0 52 -24.5t16 -70.5q-1 -113 -41.5 -212t-113 -172.5t-171.5 -115t-218 -41.5q-137 0 -235 66t-140 186.5t-12 282.5
q22 120 74.5 219.5t126.5 171.5t164.5 112t188.5 40q87 0 145.5 -32t88 -85t27.5 -119q0 -24 -10.5 -38t-28.5 -15q-33 -1 -63 -12.5t-66 -39.5q11 19 19.5 47.5t10.5 66.5q2 90 -34.5 143t-113.5 53q-86 0 -163.5 -61t-135 -174t-83.5 -270q-27 -163 4.5 -275t107 -169
t178.5 -57q80 0 148 29.5t118.5 78.5t79.5 109.5t30 122.5z" />
    <glyph glyph-name="quotesingle" unicode="'" horiz-adv-x="258" 
d="M260 959q-8 0 -12.5 6t-2.5 19l83 454q7 55 32.5 83.5t61.5 28.5q38 0 47.5 -27.5t-13.5 -83.5l-167 -456q-5 -13 -12.5 -18.5t-16.5 -5.5z" />
    <glyph glyph-name="parenleft" unicode="(" horiz-adv-x="672" 
d="M239 660q39 139 102.5 265t145.5 231.5t178.5 185.5t200.5 127q21 9 34 9.5t15 -5.5q1 -6 -6.5 -14.5t-29.5 -23.5q-129 -83 -229.5 -201.5t-173 -264t-118.5 -309.5q-52 -182 -54.5 -348t36 -297t112.5 -207q14 -14 17 -22.5t-3 -14.5q-13 -14 -46 3
q-68 42 -120.5 126.5t-81 202t-26 259.5t46.5 298z" />
    <glyph glyph-name="parenright" unicode=")" horiz-adv-x="668" 
d="M539 582q-39 -139 -102.5 -265t-145.5 -231.5t-178.5 -185.5t-200.5 -127q-21 -9 -34 -9.5t-15 5.5q-1 6 6.5 14.5t29.5 23.5q129 83 229.5 201.5t173 264t118.5 309.5q52 182 54.5 348t-36 297t-112.5 207q-14 14 -17 22.5t3 14.5q13 14 46 -3q68 -42 120.5 -126.5
t81 -202t26 -259.5t-46.5 -298z" />
    <glyph glyph-name="asterisk" unicode="*" horiz-adv-x="1162" 
d="M716 1027h-24q23 105 32 179t11 125t3.5 86.5t9.5 64.5q9 35 30 53t52 18q30 0 41.5 -18t2.5 -53q-7 -29 -24 -64.5t-39.5 -86.5t-47 -125t-47.5 -179zM703 1038q97 32 166.5 62.5t119.5 56t86.5 44t66.5 27.5q36 11 55 1t20 -40q3 -29 -14.5 -49.5t-53.5 -31.5
q-29 -9 -66.5 -12.5t-89 -9.5t-122 -21.5t-167.5 -48.5zM710 1038l-13 -21q-82 32 -146.5 47.5t-113 21.5t-84 9.5t-60.5 12.5q-30 11 -37 32t11 51q16 28 41 38t55 -1q25 -9 52 -27.5t64.5 -44t93 -55.5t137.5 -63zM695 1034l15 -13q-73 -84 -121.5 -148.5t-81 -112.5
t-56 -81.5t-46.5 -56.5q-55 -57 -98 -20q-19 18 -16 42.5t32 52.5q23 23 56.5 47t79 60t104 90.5t132.5 139.5zM691 1021l23 12q37 -84 71.5 -139t63.5 -90.5t50 -59.5t31 -47q13 -28 4.5 -52t-39.5 -44q-28 -16 -50.5 -11.5t-36.5 32.5q-11 23 -17 56.5t-15 81.5t-28.5 112
t-56.5 149z" />
    <glyph glyph-name="plus" unicode="+" horiz-adv-x="1007" 
d="M474 310q-11 0 -16 7.5t-1 17.5l180 712q4 9 12 15.5t20 5.5q12 0 16.5 -7t1.5 -17l-181 -712q-3 -10 -12 -16t-20 -6zM184 683q3 10 13.5 15.5t21.5 5.5h718q11 0 17 -5.5t3 -15.5t-13.5 -16t-21.5 -6h-717q-12 0 -18 6t-3 16z" />
    <glyph glyph-name="comma" unicode="," horiz-adv-x="361" 
d="M102 1q-35 1 -52.5 24.5t-10.5 59.5q4 27 21 49.5t43.5 36t56.5 13.5q45 0 64.5 -37t4.5 -107q-20 -101 -66 -173.5t-102.5 -117.5t-108.5 -64q-14 -4 -21 -2.5t-9 7.5q0 7 5 13.5t19 10.5q55 22 99.5 63t74.5 92t41 100q5 20 -1.5 25t-24.5 6z" />
    <glyph glyph-name="hyphen" unicode="-" horiz-adv-x="665" 
d="M582 541q26 0 15 -20l-27 -56q-5 -9 -12 -12.5t-19 -3.5h-450q-12 0 -15.5 6t1.5 16l27 54q5 9 11 12.5t17 3.5h452z" />
    <glyph glyph-name="period" unicode="." horiz-adv-x="357" 
d="M106 -15q-40 0 -60 25.5t-14 63.5q5 28 22.5 51.5t44.5 37t58 13.5q41 0 60.5 -26t12.5 -63q-4 -28 -21 -51t-43.5 -37t-59.5 -14z" />
    <glyph glyph-name="slash" unicode="/" horiz-adv-x="831" 
d="M463 612q-32 -61 -76 -148.5t-95 -189t-102 -203.5t-97.5 -194t-81.5 -160q-11 -20 -25.5 -28t-29.5 -3t-17.5 19t8.5 33q34 65 82 154.5t103 191t109.5 202.5t101.5 189.5t80 150.5q32 63 77.5 153t97 193.5t104 207t98.5 195t80 155.5q11 20 25 28.5t30 3.5
q12 -4 13 -19t-8 -34q-36 -69 -84.5 -161t-103.5 -194.5t-109 -203.5t-101 -189t-79 -149z" />
    <glyph glyph-name="zero" unicode="0" horiz-adv-x="1232" 
d="M901 1421q117 0 196.5 -50.5t119 -145t37 -227t-48.5 -297.5q-49 -174 -125 -309t-171.5 -226.5t-204 -139t-222.5 -47.5q-116 0 -195 51.5t-118 147t-36 230t49 301.5q62 220 170.5 379.5t249.5 246t299 86.5zM1051 682q67 244 68 399t-59 228.5t-174 73.5
q-116 0 -219.5 -77t-187.5 -222.5t-142 -350.5q-51 -188 -64 -324t10 -222.5t77 -128t135 -41.5q106 0 210 70.5t193.5 217.5t152.5 377z" />
    <glyph glyph-name="one" unicode="1" horiz-adv-x="792" 
d="M369 1300l178 -4q23 0 29.5 -11t-2.5 -39l-319 -1146q-7 -21 -23 -32.5t-38 -13.5l-192 -18q-12 -1 -19.5 -6t-9.5 -13q-1 -8 4.5 -12.5t17.5 -4.5h590q13 0 20.5 4.5t9.5 13.5q1 7 -4 11t-16 5l-166 19q-26 3 -32.5 14.5t-0.5 31.5l367 1313q4 15 -0.5 21.5t-18.5 6.5
q-8 0 -17 -5.5t-19 -17.5q-23 -29 -43.5 -44.5t-44 -21.5t-58.5 -6l-180 -4q-15 0 -24 -6t-11 -15q-3 -9 2 -14.5t20 -5.5z" />
    <glyph glyph-name="two" unicode="2" horiz-adv-x="1076" 
d="M147 212l-13 25l277 178q183 117 300.5 218t184.5 199.5t97 208.5q32 113 18 190t-64.5 116.5t-128.5 39.5q-87 0 -154.5 -33t-112 -87.5t-63.5 -119.5l-21 -76q-13 -48 -41.5 -73t-63.5 -25t-48.5 25.5t0.5 74.5q25 88 99 167.5t185.5 130t247.5 50.5q128 0 203.5 -50
t98.5 -137.5t-8 -199.5q-20 -70 -63 -137t-118.5 -139.5t-193 -157.5t-286.5 -189zM6 77q24 84 101.5 143.5t187.5 59.5q58 0 112.5 -25t106.5 -58.5t104 -58.5t105 -25q70 0 118.5 33.5t95.5 116.5q7 9 14 13t13 2q9 -1 11 -7t-5 -18q-45 -102 -94 -160.5t-103.5 -84
t-118.5 -25.5q-52 0 -93 16t-76 53.5t-71 98.5q-42 50 -71.5 72t-62.5 22q-38 0 -67.5 -35t-54.5 -117q-14 -40 -30.5 -64t-36.5 -34t-43 -10q-29 0 -41.5 23.5t-0.5 68.5z" />
    <glyph glyph-name="three" unicode="3" horiz-adv-x="987" 
d="M480 748l3 17q9 1 22.5 1.5t27.5 1t22 0.5q145 1 235.5 -42.5t120 -130.5t-7.5 -217q-34 -120 -115 -209.5t-195 -139.5t-247 -50q-124 0 -200 38.5t-103.5 103.5t-7.5 145q12 53 41 81.5t62 28.5q34 0 47.5 -24t1.5 -63l-23 -78q-25 -94 24.5 -146.5t175.5 -51.5
q86 0 164 40t137.5 116t90.5 184q52 189 -11 281.5t-232 92.5h-61q-13 0 -18.5 5.5t-2.5 14.5t11.5 17t23.5 19l594 529l-6 -27h-583q-22 0 -36.5 -9t-27.5 -29l-71 -120q-5 -9 -13 -14.5t-17 -5.5q-9 1 -12.5 8t2.5 20l100 229q8 17 21 26.5t35 9.5h708q13 0 18.5 -6
t2.5 -16q-2 -10 -13 -20t-30 -25z" />
    <glyph glyph-name="four" unicode="4" horiz-adv-x="1030" 
d="M725 818q4 13 11 22t17 17l112 99q9 7 15 10t12 3t8.5 -4.5t-0.5 -13.5l-236 -854q-7 -20 2 -32t32 -14l117 -14q11 -2 16.5 -7t2.5 -12q-3 -8 -10 -13t-21 -5h-483q-13 0 -18 4.5t-3 12.5q3 9 11 13.5t21 6.5l133 14q24 3 39 15t22 33zM709 1054q27 24 46.5 47t26.5 51
q7 22 5.5 42.5t-6 40t-6 40t4.5 42.5q13 44 47 72.5t81 28.5q41 0 60.5 -28t6.5 -76q-8 -36 -28 -69.5t-53.5 -70t-85.5 -81.5l-760 -710l-1 19h891q12 0 17 -4t3 -14q-3 -10 -11 -15.5t-22 -5.5l-897 1q-14 0 -19.5 6.5t-2.5 14.5q3 7 9 14.5t19 16.5z" />
    <glyph glyph-name="five" unicode="5" horiz-adv-x="1021" 
d="M73 276q7 30 22.5 53t35.5 35.5t42 12.5q35 0 48 -23.5t1 -63.5l-20 -73q-26 -94 23.5 -149t177.5 -55q86 0 166 42.5t144 129t101 218.5q53 192 0.5 293t-187.5 101q-62 0 -126 -26.5t-125 -74t-113 -111.5q-13 -10 -22.5 -15.5t-21.5 -5.5q-9 0 -12.5 6.5t-0.5 18.5
l225 801q4 15 16.5 24.5t30.5 9.5q9 0 16.5 -2.5t17.5 -7.5q50 -37 104.5 -64.5t115.5 -42.5t130 -15q111 0 193.5 30t130.5 95q11 8 18.5 11t13.5 0q4 -2 4.5 -7.5t-7.5 -18.5q-56 -112 -159 -170.5t-245 -58.5q-118 0 -215 35t-163 96l24 20l-202 -718l-13 4
q58 70 127.5 121t146.5 78.5t156 27.5q122 0 197.5 -53.5t98.5 -148t-13 -219.5q-38 -133 -123.5 -231.5t-201 -152t-246.5 -53.5q-120 0 -196 40.5t-105.5 108.5t-9.5 148z" />
    <glyph glyph-name="six" unicode="6" horiz-adv-x="1108" 
d="M915 1421q109 0 178.5 -37t97 -98t9.5 -132q-11 -51 -39.5 -78.5t-66.5 -27.5q-37 0 -51 24t-1 70l18 63q24 83 -15.5 131.5t-147.5 48.5q-103 0 -209 -73t-202.5 -233t-170.5 -423q-50 -177 -58.5 -299.5t17 -197.5t79.5 -109t130 -34q91 0 169.5 44t140 132t97.5 219
t21.5 218.5t-72 131.5t-151.5 44q-64 0 -130 -25.5t-125.5 -72.5t-105 -112t-69.5 -143l-24 9q25 89 77 160.5t121.5 122.5t149 78.5t160.5 27.5q119 0 198 -51t106 -146.5t-12 -230.5q-38 -132 -121.5 -231.5t-197.5 -155.5t-244 -56q-149 0 -237.5 80t-106.5 233t45 373
q73 256 189.5 423.5t259 250t294.5 82.5z" />
    <glyph glyph-name="seven" unicode="7" 
d="M1073 1296l3 -18h-655q-21 0 -33 -8.5t-23 -24.5l-71 -121q-6 -9 -14 -14.5t-18 -5.5q-9 0 -12.5 6.5t3.5 20.5l102 236q8 16 19.5 24.5t30.5 8.5h746q20 0 26.5 -6.5t2.5 -17.5q-3 -9 -10.5 -19.5t-23.5 -24.5l-467 -603q-76 -82 -133 -153.5t-93.5 -134t-53.5 -118.5
q-10 -37 -8 -70.5t9 -63.5t11.5 -58.5t-3.5 -55.5q-13 -41 -44 -66.5t-76 -25.5q-51 0 -67.5 45.5t10.5 137.5q18 63 52.5 127t84 132t113.5 142t140 159z" />
    <glyph glyph-name="eight" unicode="8" horiz-adv-x="1033" 
d="M390 -22q-127 0 -207.5 42.5t-108 120t2.5 180.5q20 67 77 135.5t146.5 124.5t207.5 84l5 -19q-83 -29 -147 -81t-106 -113.5t-60 -122.5q-32 -107 -14.5 -177.5t77 -105t150.5 -34.5q130 0 229 69.5t133 182.5q22 74 7 133.5t-72.5 110.5t-162.5 98
q-123 58 -192.5 121.5t-88 142.5t10.5 181q23 78 75 145.5t126.5 118t164 78.5t184.5 28q132 0 214 -48.5t109 -134.5t-8 -200q-20 -70 -66 -133t-109 -115t-139 -90.5t-158 -61.5l-10 18q128 57 225.5 152.5t136.5 223.5q50 161 -10 257.5t-207 96.5q-89 0 -170.5 -37.5
t-140.5 -102t-84 -146.5q-25 -87 -12 -158t72 -129.5t172 -111.5q182 -84 243 -182t26 -218q-28 -95 -103 -168t-183 -114t-235 -41z" />
    <glyph glyph-name="nine" unicode="9" horiz-adv-x="1105" 
d="M369 -21q-109 0 -181.5 37.5t-102.5 98.5t-13 132q13 51 41 78.5t66 27.5q37 0 50 -23.5t0 -69.5l-18 -64q-23 -82 22 -131t154 -49q103 0 206.5 73t198 234t170.5 424q68 235 63 375t-65.5 201.5t-162.5 61.5q-90 0 -170 -44t-142 -132.5t-99 -219.5
q-35 -131 -20.5 -218.5t72.5 -131.5t150 -44q86 0 173.5 44.5t157 124t99.5 183.5l24 -9q-25 -88 -76.5 -159.5t-121 -123t-149 -78.5t-161.5 -27q-119 0 -198 50.5t-105.5 145.5t10.5 229q38 133 123 233t200.5 156.5t244.5 56.5q149 0 237 -79.5t105 -232.5t-48 -374
q-75 -253 -189 -421t-254 -251.5t-291 -83.5z" />
    <glyph glyph-name="colon" unicode=":" horiz-adv-x="469" 
d="M115 -15q-40 0 -60 25.5t-14 63.5q5 28 22.5 51.5t44.5 37t58 13.5q41 0 60.5 -26t12.5 -63q-4 -28 -21 -51t-43.5 -37t-59.5 -14zM270 591q-40 0 -60 25.5t-14 63.5q5 28 22.5 51.5t44.5 37t58 13.5q41 0 60.5 -26t12.5 -63q-4 -28 -21 -51t-43.5 -37t-59.5 -14z" />
    <glyph glyph-name="semicolon" unicode=";" horiz-adv-x="490" 
d="M110 1q-35 1 -52.5 24.5t-10.5 59.5q4 27 21 49.5t43.5 36t56.5 13.5q45 0 64.5 -37t4.5 -107q-20 -101 -66 -173.5t-102.5 -117.5t-108.5 -64q-14 -4 -21 -2.5t-9 7.5q0 7 5 13.5t19 10.5q55 22 99.5 63t74.5 92t41 100q5 20 -1.5 25t-24.5 6zM284 590q-40 0 -60 25.5
t-14 63.5q5 28 22.5 51.5t44.5 37t58 13.5q41 0 60.5 -26t12.5 -63q-4 -28 -21 -51t-43.5 -37t-59.5 -14z" />
    <glyph glyph-name="less" unicode="&#x3c;" horiz-adv-x="946" 
d="M208 685l-2 -6l772 388q14 6 21.5 12.5t10.5 12.5q2 9 -1.5 14t-13.5 5q-8 0 -18 -2.5t-23 -8.5l-753 -377q-17 -7 -28 -16.5t-15 -20.5q-7 -25 21 -39l572 -378q11 -6 19 -10t16 -4q21 0 24 14q2 7 -2.5 13.5t-14.5 11.5z" />
    <glyph glyph-name="equal" unicode="=" horiz-adv-x="1015" 
d="M227 850q2 10 12.5 15.5t22.5 5.5h718q10 0 16 -5.5t3 -15.5t-13 -16t-22 -6h-716q-12 0 -18 6t-3 16zM144 523q2 10 12.5 15.5t22.5 5.5h718q10 0 16 -5.5t3 -15.5t-13 -16t-22 -6h-716q-12 0 -18 6t-3 16z" />
    <glyph glyph-name="greater" unicode="&#x3e;" horiz-adv-x="946" 
d="M882 683l2 6l-772 -388q-14 -6 -21.5 -12.5t-10.5 -12.5q-2 -9 1.5 -14t13.5 -5q8 0 18 2.5t23 8.5l753 377q17 7 28 16.5t15 20.5q7 25 -21 39l-572 378q-11 6 -19 10t-16 4q-21 0 -24 -14q-2 -7 2.5 -13.5t14.5 -11.5z" />
    <glyph glyph-name="question" unicode="?" horiz-adv-x="804" 
d="M333 628l-55 -221q-2 -14 2 -21t14 -7q9 0 17 6.5t14 20.5l63 211q9 27 23.5 44t45.5 28l56 21q181 73 283.5 180.5t140.5 244.5q29 100 5.5 174t-93.5 114.5t-182 40.5q-105 0 -199.5 -40.5t-160 -106t-86.5 -141.5q-11 -38 2.5 -62t45.5 -24q33 0 59 20.5t37 58.5
l19 68q25 84 93 136t175 52q66 0 108 -31t53 -93t-16 -157q-39 -139 -115.5 -236t-219.5 -166l-60 -28q-32 -15 -46.5 -35.5t-22.5 -50.5zM186 -17q-40 0 -60 25.5t-14 63.5q5 28 22.5 51.5t44.5 37t58 13.5q41 0 60.5 -26t12.5 -63q-4 -28 -21 -51t-43.5 -37t-59.5 -14z
" />
    <glyph glyph-name="at" unicode="@" horiz-adv-x="1568" 
d="M565 422q-17 -115 12 -164.5t80 -49.5q44 0 92.5 32.5t98.5 94.5t96.5 148.5t86 193.5t66.5 231q7 36 -5 54t-46 18q-66 0 -131 -29.5t-123 -82.5t-105.5 -123t-79 -152.5t-42.5 -170.5zM1044 149q-59 0 -87 27t-23 77q2 26 11 69.5t29.5 119t55.5 195.5l8 -12
q-58 -145 -128 -252.5t-148.5 -165.5t-163.5 -58q-82 0 -126 66t-24 215q11 116 67.5 222t143.5 189t193 131t218 48q56 0 93.5 -8.5t56.5 -21t18 -27.5q0 -12 -7.5 -20t-15.5 -16t-12 -20l-144 -557q-22 -86 -9 -118t47 -32q52 0 110 25.5t112 76t98.5 127t69.5 178.5
q57 228 11 392t-168.5 252t-298.5 88q-158 0 -298 -55.5t-254.5 -156.5t-195.5 -238t-121 -299q-59 -237 -12.5 -415.5t179.5 -278t331 -99.5q132 0 259.5 36.5t244.5 107.5t216 171q11 9 21 11.5t16 -4.5q6 -6 1.5 -14.5t-15.5 -17.5q-101 -107 -224 -179.5t-257.5 -110
t-273.5 -37.5q-155 0 -275 57.5t-194.5 166t-93 261.5t29.5 345q43 169 128.5 312.5t207 249.5t272 165t321.5 59q140 0 250.5 -52t180 -151t87.5 -241.5t-28 -323.5q-36 -146 -113.5 -248.5t-176.5 -156.5t-200 -54z" />
    <glyph glyph-name="A" unicode="A" horiz-adv-x="1153" 
d="M176 199q-40 -66 -26.5 -106.5t58.5 -48.5l49 -6q12 -2 17 -7t5 -12q0 -9 -7.5 -14t-21.5 -5h-295q-17 0 -24.5 5t-7.5 14t8 14.5t25 10.5q40 7 80 44t85 112l626 988q84 122 161.5 176t151.5 54q18 0 26 -5t7 -13q0 -8 -5.5 -13t-17.5 -7q-38 -3 -62 -33.5t-28 -87.5
q0 -24 -3 -91t-7.5 -163t-9.5 -206t-10 -220.5t-9 -207.5t-6.5 -166t-2.5 -96q0 -20 8 -34t30 -23.5t61 -17.5q19 -3 19 -17q0 -7 -6.5 -12t-20.5 -5h-379q-9 0 -15 4.5t-6 11.5t5.5 11.5t13.5 6.5l106 19q26 5 37 18.5t13 38.5q1 28 5 98.5t9 167.5t10.5 208.5t11 222.5
t10.5 208.5t8 168t3 98.5l22 -7q-9 -6 -22.5 -19t-32 -35.5t-44.5 -56.5zM311 460l17 34h542l-2 -34h-557z" />
    <glyph glyph-name="B" unicode="B" horiz-adv-x="1201" 
d="M636 1287q-25 -89 -53.5 -191t-58.5 -210.5t-60 -216.5t-56.5 -209.5t-48.5 -189t-36 -154.5q-7 -28 10 -46t60 -26.5t117 -8.5q187 0 299 85t133 233q20 135 -57 212t-237 77h-233l12 32h208q112 0 201 46.5t147 132.5t74 203q22 149 -54 229t-219 80q-77 0 -107.5 -20
t-40.5 -58zM392 1400h406q211 0 313.5 -95t79.5 -262q-15 -114 -86.5 -201t-181.5 -135.5t-242 -48.5l-12 8q144 0 241 -39t142 -111t32 -171q-20 -156 -166 -250.5t-415 -94.5h-483q-14 0 -20.5 4.5t-6.5 12.5q0 7 9.5 12t27.5 8l81 11q28 5 43.5 19t22.5 38
q24 74 49.5 162t52.5 184.5t54 194.5t52 192.5t46.5 180t38.5 156.5t27 122q5 25 -3 36.5t-25 15.5l-90 13q-14 3 -20 6.5t-6 10.5q0 9 9.5 15t29.5 6z" />
    <glyph glyph-name="C" unicode="C" horiz-adv-x="1223" 
d="M1123 373q8 -4 8 -15t-9 -28q-56 -114 -138 -192.5t-185.5 -118t-225.5 -39.5q-144 0 -251 73.5t-154 217.5t-14 354q25 159 95 302.5t174.5 255t234 176t274.5 64.5q66 0 111 -16t74 -36.5t45.5 -36t23.5 -15.5q9 0 21 15.5t24.5 35.5t24 35.5t20.5 15.5q10 0 16 -7
t7 -21l10 -329q0 -12 -6.5 -18.5t-16.5 -7.5q-17 -1 -26 23l-28 95q-36 121 -110.5 173.5t-185.5 52.5q-118 0 -221 -60t-186 -165t-139.5 -239.5t-80.5 -283.5q-34 -208 0 -339t118.5 -193t201.5 -62q85 0 167 31t155.5 99.5t132.5 181.5q10 14 20 20t19 1z" />
    <glyph glyph-name="D" unicode="D" horiz-adv-x="1384" 
d="M6 17q0 8 7.5 13t22.5 8l76 9q19 3 33.5 10.5t25 23t19.5 40.5q15 59 36 136.5t45.5 167t51 185t53 191.5t50.5 185.5t44 167t34 135.5q7 29 -1 42.5t-36 17.5l-76 13q-18 4 -24.5 7.5t-6.5 12.5t7 13.5t23 4.5h456q128 0 233.5 -45t178.5 -131t102.5 -210.5t4.5 -282.5
q-27 -165 -102.5 -299.5t-190.5 -231t-262 -148.5t-317 -52h-463q-13 0 -18.5 5t-5.5 12zM501 39q134 0 252 48t213 139.5t160 220t92 290.5q26 156 5.5 273.5t-76 196t-134.5 118t-171 39.5h-124q-25 0 -42 -14.5t-26 -44.5q-16 -61 -37 -140t-46.5 -170t-52.5 -188.5
t-54 -194t-51.5 -187t-44 -168t-32.5 -134.5q-9 -42 4 -63t50 -21h115z" />
    <glyph glyph-name="E" unicode="E" horiz-adv-x="1164" 
d="M430 718h356q50 0 81 32t33 121q1 8 6 13t12 5q10 0 16 -5.5t8 -16.5l47 -303q3 -17 -2 -24t-14 -8t-15 3.5t-11 13.5q-25 79 -59.5 107.5t-97.5 28.5h-370zM727 0h-698q-13 0 -19 5t-6 13q0 7 7 12.5t18 7.5l91 13q26 4 40.5 17t23.5 40q13 50 33.5 125t46 166.5
t53.5 192t56 201.5t53.5 195t45.5 172.5t33 132.5q5 24 -2 38.5t-24 17.5l-90 13q-12 3 -17.5 7.5t-5.5 11.5q0 9 7.5 14t19.5 5h672q47 0 74 16.5t47 16.5q24 0 29 -29l33 -268q4 -16 -1 -24t-14 -9q-12 -1 -19.5 5.5t-14.5 22.5q-28 99 -56.5 149.5t-63 69t-81.5 18.5
h-335q-20 -71 -45.5 -162t-53.5 -193t-57 -208.5t-57 -209.5t-52 -195t-42.5 -166t-29.5 -122q-7 -26 0 -44t33.5 -26.5t79.5 -8.5h235q71 0 130 29t109.5 92t95.5 164q10 19 23 19q17 0 16 -23q-2 -65 -24 -125.5t-56.5 -108.5t-76.5 -76t-84 -28q-20 0 -37 12t-43 12z" />
    <glyph glyph-name="F" unicode="F" horiz-adv-x="1103" 
d="M362 1382q2 9 10.5 13.5t21.5 4.5h655q47 0 73.5 16.5t48.5 16.5q23 0 27 -27l34 -273q4 -15 -0.5 -23t-14.5 -9q-12 0 -20 8t-16 25l-22 69q-17 58 -40.5 94.5t-58.5 53.5t-89 17h-309q-22 -78 -47.5 -169.5t-52.5 -190.5t-54.5 -201t-54 -201t-51 -190t-44 -169
t-33.5 -137q-7 -24 -1 -40t36 -20l110 -11q18 -1 26.5 -6t8.5 -12q0 -10 -9 -15.5t-31 -5.5h-435q-14 0 -20 4.5t-6 13.5q1 9 9.5 14.5t29.5 8.5l77 10q26 4 40 18t23 41q19 67 42.5 148.5t48.5 172.5t51 186.5t51.5 190.5t49 184t43 167t34.5 139q5 24 -3.5 35.5
t-26.5 15.5l-82 13q-15 4 -22 8t-7 12zM425 690h336q46 0 77 31.5t39 120.5q0 10 4.5 15.5t13.5 5.5q10 0 15.5 -6t7.5 -18l49 -307q4 -16 -1 -23t-15 -8q-9 -1 -15 4t-12 17q-20 51 -41 80.5t-49 42t-70 12.5h-350z" />
    <glyph glyph-name="G" unicode="G" horiz-adv-x="1309" 
d="M939 1428q79 0 130 -16.5t82 -37t47.5 -36.5t25.5 -16t21.5 13.5t25.5 32t24.5 32.5t19.5 14q12 0 18.5 -7t8.5 -24l6 -315q1 -12 -4.5 -18t-15.5 -6q-7 0 -14 5.5t-11 15.5l-25 78q-29 88 -73 142t-104 78.5t-138 24.5q-125 0 -235.5 -61t-200.5 -168t-150.5 -244.5
t-86.5 -288.5q-33 -212 -1 -346t114.5 -197.5t200.5 -63.5q87 0 160.5 28t124.5 78t70 116l72 256q9 28 2.5 44t-33.5 19l-97 13q-14 2 -19 7t-5 13q0 10 8 14.5t21 4.5h384q14 0 19 -4t4 -13q-1 -7 -8 -12.5t-23 -9.5l-68 -16q-21 -4 -32.5 -14.5t-17.5 -30.5l-145 -503
q-6 -18 -14 -25t-21 -7q-7 0 -14 11.5t-14.5 28.5t-15.5 34t-15 29t-13 12q-10 0 -33 -17.5t-63 -40.5t-100 -40.5t-145 -17.5q-153 0 -263 74.5t-157 217.5t-15 348q25 159 97.5 305t181 260t242 180.5t280.5 66.5z" />
    <glyph glyph-name="H" unicode="H" horiz-adv-x="1449" 
d="M326 112q-5 -27 1.5 -44t29.5 -20l88 -11q12 -2 17.5 -7t5.5 -13t-8 -12.5t-21 -4.5h-409q-14 0 -20 5t-6 12q-1 8 6.5 13.5t20.5 7.5l85 10q27 4 43 19.5t26 43.5q14 52 35 128t46.5 167.5t53 191.5l55 200t52 193t44 171.5t31.5 132.5q5 24 -2.5 37t-29.5 17l-86 13
q-16 4 -21.5 8.5t-5.5 12.5t10 12.5t27 4.5h406q14 0 19.5 -3.5t5.5 -10.5q0 -9 -7 -14t-24 -8l-93 -18q-24 -4 -37.5 -15.5t-20.5 -36.5q-16 -56 -38 -135.5t-48.5 -174.5t-54 -196.5t-54.5 -202t-51 -191t-42 -163.5t-29 -119zM421 680h761l-13 -36h-760zM1111 112
q-6 -27 0.5 -44t30.5 -20l87 -11q12 -2 18 -7t6 -13t-8.5 -12.5t-21.5 -4.5h-408q-15 0 -21 5t-6 12q-1 8 6.5 13.5t20.5 7.5l85 10q28 4 43.5 19.5t25.5 43.5q14 52 35 128t46.5 167.5t53 191.5l55 200t52 193t44 171.5t31.5 132.5q5 24 -2.5 37t-29.5 17l-86 13
q-15 4 -20.5 8.5t-5.5 12.5t9.5 12.5t26.5 4.5h407q14 0 19 -3.5t5 -10.5q0 -9 -7 -14t-23 -8l-94 -18q-23 -4 -37 -15.5t-21 -36.5q-16 -56 -38 -135.5t-48 -174.5t-54 -196.5t-55 -202t-51 -191t-42 -163.5t-28 -119z" />
    <glyph glyph-name="I" unicode="I" horiz-adv-x="671" 
d="M328 112q-6 -27 0.5 -44t30.5 -20l87 -11q13 -2 18.5 -7t5.5 -13t-8 -12.5t-21 -4.5h-409q-15 0 -21 5t-6 12q0 8 7.5 13.5t20.5 7.5l85 10q27 4 42.5 19.5t25.5 43.5q14 52 35 127.5t46.5 167.5t53.5 192t55 200t51.5 193t44 171t31.5 133q5 24 -2.5 37t-29.5 17l-86 13
q-16 4 -21 8.5t-5 12.5t9.5 12.5t26.5 4.5h407q13 0 18 -3.5t5 -10.5q0 -9 -6.5 -14t-23.5 -8l-93 -18q-23 -4 -37 -15.5t-21 -36.5q-16 -56 -38 -135.5t-48 -174.5t-54 -196.5t-55 -202t-50.5 -191t-42 -163.5t-28.5 -119z" />
    <glyph glyph-name="J" unicode="J" horiz-adv-x="642" 
d="M635 1286q-5 -17 -25 -90.5t-50 -184.5t-65 -241.5t-70.5 -262.5t-66.5 -247.5t-53 -198t-30 -110.5q-23 -100 -65.5 -162t-99.5 -91t-126 -29q-57 0 -85 22t-28 54q0 27 18.5 44.5t51.5 17.5q23 0 43 -8t39.5 -18.5t38 -18t37.5 -7.5q34 0 58.5 31.5t26.5 119.5
q0 14 -3.5 29t-8 31.5t-7.5 35t-2.5 38.5t7.5 42q5 16 24 84.5t47 171.5t61 223t65.5 240.5t60.5 224.5t46 174t22 88q7 31 -1 44.5t-36 17.5l-87 12q-13 3 -19.5 7.5t-6.5 12.5q0 9 8.5 13.5t25.5 4.5h409q14 0 19 -3.5t5 -11.5t-7 -13t-20 -8l-87 -18q-18 -3 -30 -9
t-20 -17.5t-14 -33.5z" />
    <glyph glyph-name="K" unicode="K" horiz-adv-x="1289" 
d="M325 111q-6 -26 0.5 -42.5t30.5 -19.5l87 -12q12 -2 18 -6.5t6 -13.5q0 -8 -8.5 -12.5t-20.5 -4.5h-408q-14 0 -20 5t-6 12q-1 8 6.5 13.5t20.5 7.5l85 10q27 4 43 19.5t26 43.5q14 52 35 127.5t46.5 167.5t53.5 192t55 200.5t51.5 193.5t44 171t31.5 132q5 25 -2.5 37.5
t-29.5 16.5l-86 13q-15 4 -21 8.5t-6 12.5t10 12.5t27 4.5h407q13 0 18 -3.5t5 -10.5q0 -9 -6.5 -13.5t-24.5 -9.5l-94 -18q-23 -3 -37 -14.5t-21 -35.5q-15 -56 -37.5 -136t-48.5 -175t-54 -196.5t-55 -202t-51 -191.5t-42 -164t-28 -119zM666 762l101 90l241 -667
q23 -68 45 -97.5t53 -29.5q19 0 33 9.5t26 28.5q11 13 24 9q6 -1 8 -8.5t-3 -18.5q-14 -31 -37.5 -53.5t-54.5 -34.5t-68 -12q-53 0 -87 35.5t-62 119.5zM375 431l-11 39l763 799q52 55 96.5 89t88.5 49.5t91 15.5q44 0 68 -21t23 -51q-1 -31 -25.5 -49.5t-64.5 -18.5
q-34 0 -59 13t-57 13q-33 0 -71 -21t-90 -75z" />
    <glyph glyph-name="L" unicode="L" horiz-adv-x="1009" 
d="M618 0h-586q-14 0 -21 5t-5 13q0 9 8.5 13.5t21.5 6.5l83 12q28 4 43.5 20t25.5 47q15 58 37 136.5t47.5 171t52.5 191.5t53.5 197.5t50.5 190t43 167.5t31 130q4 21 -3.5 32t-23.5 14l-93 16q-14 3 -20 7t-6 13q0 8 8 12.5t21 4.5h414q13 0 18.5 -4t5.5 -12t-7.5 -13.5
t-21.5 -7.5l-98 -17q-21 -3 -34 -16.5t-21 -40.5q-15 -55 -37 -133.5t-47.5 -171t-53 -192t-54.5 -198.5t-51 -189.5t-43 -165.5t-31 -126q-9 -42 10 -60t71 -18h172q79 0 136.5 29.5t103.5 93.5t92 166q7 15 13.5 21.5t15.5 6.5t13 -6t3 -17q-2 -70 -25.5 -134t-59 -112.5
t-76.5 -76.5t-79 -28q-16 0 -30 5.5t-29.5 11t-37.5 5.5z" />
    <glyph glyph-name="M" unicode="M" horiz-adv-x="1560" 
d="M795 323l-47 -44l660 1071q19 31 39.5 40.5t47.5 9.5h175q14 0 18.5 -4t3.5 -12q0 -10 -7.5 -15t-20.5 -7l-90 -16q-19 -4 -32.5 -16.5t-18.5 -38.5q-12 -60 -28.5 -141t-35.5 -173.5t-39.5 -191t-40.5 -195.5t-37.5 -187t-31.5 -164.5t-23 -126.5q-5 -25 2 -41t28 -21
l95 -13q10 -2 15.5 -6.5t4.5 -12.5q-1 -9 -8 -13.5t-20 -4.5h-406q-14 0 -20 5t-5 14t8.5 13t17.5 6l88 13q24 4 40 18t22 43q15 77 33.5 165.5t39.5 185.5t42.5 198.5t42.5 204.5t40.5 204t35.5 196l33 25l-666 -1084q-14 -19 -24 -28t-23 -9q-11 0 -17.5 11t-9.5 24
q-10 80 -21.5 169.5t-23.5 184t-24.5 190t-25 188.5t-24.5 180t-24 161l29 8l-345 -1097q-20 -68 -6 -100t60 -40l61 -11q21 -6 19 -19q-2 -9 -10 -14t-23 -5h-327q-15 0 -21.5 5t-6.5 14q1 10 9 15t22 7l50 9q30 5 54 20.5t43.5 48t35.5 86.5l336 1074q9 29 2 46t-29 21
l-95 16q-12 4 -17 8.5t-4 12.5q1 9 8.5 13t19.5 4h196q27 0 42 -13t20 -45q11 -74 21.5 -154.5t21 -166t22 -174t23.5 -177.5t25 -176t26 -171z" />
    <glyph glyph-name="N" unicode="N" horiz-adv-x="1295" 
d="M235 193l268 965l-36 -11q42 -108 88 -219.5t91.5 -222.5t88 -215t79 -196t63.5 -167q12 -27 15.5 -44t3.5 -39q0 -21 8.5 -32.5t27.5 -11.5h113q20 0 27 11t-1 31l-43 118q-10 27 -10 43t5 33l215 853q12 46 31.5 79t47.5 57t65 41q49 23 71 46.5t22 54.5q1 25 -16.5 41
t-46.5 16q-57 0 -108 -53.5t-82 -170.5l-259 -1013l39 12q-29 77 -65 162t-76.5 178.5t-83 192t-85.5 201t-85 207t-80 208.5q-12 28 -24.5 40t-34.5 12h-89q-13 0 -19 -6t-6 -15t6 -18l72 -158q12 -20 15 -44.5t-5 -51.5l-252 -911q-18 -69 -55.5 -105t-85.5 -45l-46 -7
q-26 -5 -26 -21q0 -9 8 -13.5t23 -4.5h345q11 0 17.5 4t6.5 13q0 8 -5.5 13t-15.5 7l-51 8q-50 10 -68.5 46t-1.5 102z" />
    <glyph glyph-name="O" unicode="O" horiz-adv-x="1440" 
d="M989 1423q119 -3 211.5 -57.5t149.5 -153t70 -233.5t-28 -299q-42 -168 -123 -300t-189.5 -223t-235 -137t-262.5 -43q-118 3 -212 58t-151.5 155t-68 240t37.5 312q43 152 124 278t189.5 217.5t233.5 140t254 45.5zM602 14q94 -2 186.5 35.5t177 118.5t155 209
t119.5 305q24 89 35 165t10 139q0 128 -42 216t-112 134.5t-157 49.5q-98 3 -195.5 -41t-183.5 -129.5t-152.5 -208t-104.5 -274.5q-23 -94 -34 -172.5t-11 -142.5q-2 -198 83.5 -299t225.5 -105z" />
    <glyph glyph-name="P" unicode="P" horiz-adv-x="1198" 
d="M1256 936q-15 -102 -63 -183.5t-122.5 -139t-170.5 -88t-210 -30.5q-93 0 -158.5 17.5t-130.5 53.5l19 31q61 -34 121.5 -50t130.5 -16q122 0 215 45.5t152 137.5t79 232q22 142 -14.5 235t-119 139t-203.5 46q-60 0 -94 -19t-47 -62q-5 -16 -23 -83t-45 -167t-58 -216.5
t-61.5 -233t-57.5 -217t-44.5 -168.5t-22.5 -86q-8 -30 0.5 -46.5t29.5 -19.5l97 -11q13 -2 19 -6.5t6 -11.5q0 -9 -7.5 -14t-22.5 -5h-421q-12 0 -18.5 4t-6.5 13t7.5 14t22.5 7l75 10q32 4 48 17t27 44q7 18 26 85.5t46 166.5l58.5 214.5t62 231.5t57.5 217.5t45 172.5
t23 95t-3 38.5t-30 18.5l-84 13q-14 3 -20 7.5t-6 12.5q0 10 8.5 14t25.5 4h412q115 0 206 -33.5t151 -95t85.5 -146.5t8.5 -189z" />
    <glyph glyph-name="Q" unicode="Q" horiz-adv-x="1442" 
d="M662 349q3 9 8 15.5t15 5.5q9 -2 11 -8.5t-2 -18.5q-40 -150 -40.5 -253t29.5 -166.5t84 -95t124 -40.5q69 -8 110 0.5t61.5 18.5t27.5 7q4 -2 6 -8t-3 -13l-61 -84q-7 -11 -21 -18.5t-36 -10t-56 -0.5q-124 7 -203 82.5t-96.5 222t42.5 364.5zM989 1423
q119 -3 211.5 -57.5t149.5 -153t70 -233.5t-28 -299q-42 -168 -123 -300t-189.5 -223t-235 -137t-262.5 -43q-118 3 -212 58t-151.5 155t-68 240t37.5 312q43 152 124 278t189.5 217.5t233.5 140t254 45.5zM602 14q94 -2 186.5 35.5t177 118.5t155 209t119.5 305
q24 89 35 165t10 139q0 128 -42 216t-112 134.5t-157 49.5q-98 3 -195.5 -41t-183.5 -129.5t-152.5 -208t-104.5 -274.5q-23 -94 -34 -172.5t-11 -142.5q-1 -132 37 -221t108.5 -134.5t163.5 -48.5z" />
    <glyph glyph-name="R" unicode="R" horiz-adv-x="1240" 
d="M400 619l26 27q42 -24 98 -40.5t123 -16.5q130 0 224 47t152.5 131.5t80.5 196.5q27 133 -5 222.5t-111 135t-195 45.5q-72 0 -107 -18.5t-48 -62.5q-14 -53 -34.5 -129.5t-46 -168t-53 -191.5t-54.5 -199.5t-51 -191t-43.5 -167.5t-30.5 -128q-7 -26 1 -42.5t27 -19.5
l90 -12q12 -2 18 -6.5t6 -12.5t-7.5 -13t-20.5 -5h-412q-12 0 -17.5 4.5t-5.5 12.5q0 9 7.5 14.5t22.5 6.5l79 10q27 4 44 18t27 44q14 51 35.5 127.5t47 169t53.5 193t55 201.5t52 193.5t44 170t31 130.5q4 26 -3 38t-29 16l-88 13q-14 3 -19 8t-5 12q0 8 7.5 13t20.5 5
h428q147 0 251 -54t150.5 -154.5t19.5 -241.5q-22 -113 -97 -202.5t-196 -141t-280 -52.5q-83 -1 -149 17.5t-113 47.5zM686 565l125 19l118 -363q21 -68 38.5 -103t36 -47.5t38.5 -12.5t35 9.5t28 29.5q4 6 11 8.5t12 0.5q7 -2 8.5 -9t-2.5 -15q-17 -43 -63 -73.5
t-106 -30.5q-36 0 -65.5 19t-54.5 65.5t-49 129.5z" />
    <glyph glyph-name="S" unicode="S" horiz-adv-x="1062" 
d="M478 -21q-83 0 -138 18t-87.5 41t-50 40.5t-27.5 17.5q-8 0 -21 -15.5t-27.5 -36t-27.5 -36t-21 -15.5q-12 0 -18 7t-4 20l49 357q2 14 8 20.5t15 6.5t15 -6.5t8 -19.5l11 -85q13 -138 93 -206.5t200 -68.5q88 0 155 35t108 95.5t49 137.5q13 92 -30.5 170t-168.5 169
q-140 103 -198.5 194t-47.5 207q8 99 67.5 189.5t164.5 148.5t249 58q120 0 202 -40.5t123 -104.5t39 -136q-1 -39 -18 -61.5t-43 -22.5q-23 0 -37 14.5t-22 43.5l-14 70q-23 103 -84.5 152t-155.5 49q-100 0 -176 -40t-120 -106.5t-50 -146.5q-11 -101 40.5 -183.5
t179.5 -182.5q97 -72 149.5 -135t71 -124.5t11.5 -130.5q-8 -111 -66 -191t-150.5 -123.5t-204.5 -43.5z" />
    <glyph glyph-name="T" unicode="T" horiz-adv-x="1050" 
d="M510 1424q44 0 107.5 -10t135.5 -25t140.5 -30t123 -25.5t81.5 -10.5q41 0 63.5 12.5t30.5 36.5q5 18 5 39.5t3 41.5q5 27 21 43t44 16q25 0 41 -18.5t16 -55.5q-1 -71 -53.5 -114.5t-131.5 -43.5q-40 0 -102 11t-135 27.5l-146 33t-135.5 27.5t-104.5 11
q-88 0 -128 -26.5t-44 -68.5q-5 -30 3.5 -51t18.5 -39t8 -40q0 -25 -18.5 -42.5t-48.5 -17.5q-37 2 -58 38t-12 94q6 56 38.5 98t91.5 65.5t145 23.5zM522 102q-7 -25 2 -37.5t30 -15.5l98 -13q23 -4 20 -18q-2 -9 -10 -13.5t-23 -4.5h-412q-13 0 -19.5 5t-5.5 12
q1 10 9 14.5t21 6.5l91 13q24 3 38 16t23 40q16 55 39.5 135.5t51 178t57.5 203.5t60 213.5t58 207.5t51.5 185t40.5 147l132 -26q-19 -62 -43.5 -147.5t-53 -185.5t-58 -206.5t-59 -211t-55.5 -199.5t-47.5 -172t-35.5 -127z" />
    <glyph glyph-name="U" unicode="U" horiz-adv-x="1295" 
d="M1009 396l243 812q18 64 4.5 98.5t-59.5 43.5l-52 9q-16 5 -23 10t-7 13t8 13t22 5h345q11 0 17.5 -4.5t6.5 -10.5q0 -9 -6 -14t-26 -10l-62 -12q-42 -10 -71.5 -41.5t-50.5 -103.5l-243 -808q-42 -142 -109.5 -235t-166 -138.5t-231.5 -45.5q-117 0 -193.5 40
t-114 110.5t-35.5 159.5q0 36 11 95t28 127.5t34 130.5l190 655q6 21 -2 35t-28 18l-86 14q-16 4 -21.5 8.5t-5.5 12.5t8.5 12.5t22.5 4.5h407q24 0 24 -14q0 -8 -7.5 -13.5t-26.5 -9.5l-94 -18q-20 -3 -33 -15t-21 -41l-188 -652q-35 -130 -53 -215t-19 -142
q-1 -125 70.5 -188.5t195.5 -63.5q136 0 238.5 87.5t159.5 280.5z" />
    <glyph glyph-name="V" unicode="V" horiz-adv-x="1112" 
d="M1018 1382q0 8 7.5 13t17.5 5h343q13 0 19.5 -4t6.5 -10q0 -8 -6 -14t-20 -10l-37 -10q-30 -9 -56.5 -30.5t-53 -54t-53.5 -77.5l-654 -1022q-10 -16 -19.5 -32.5t-15.5 -35.5l-17 -63q-6 -17 -17 -27t-29 -10h-86q-18 0 -24.5 13t0.5 32l20 68q8 21 9 36.5t1 35.5
q1 24 2.5 82t2 139.5t1.5 176.5t1 193.5t0.5 192t0.5 171.5t-1 131q0 34 -8.5 52.5t-31.5 23.5l-64 15q-13 2 -18 7.5t-5 12.5q0 8 8 13t18 5h395q10 0 15 -4t5 -12t-5.5 -13.5t-18.5 -7.5l-103 -18q-29 -4 -40 -27.5t-11 -56.5q-1 -61 -2.5 -144.5t-2 -181.5t-1.5 -203.5
t-1.5 -211t-1 -204.5t-1.5 -184l-35 -16l685 1078q26 41 26.5 73.5t-17 54.5t-46.5 28l-56 11q-26 7 -26 21z" />
    <glyph glyph-name="W" unicode="W" horiz-adv-x="1745" 
d="M1071 1161l15 -46l-566 -934q-14 -21 -22.5 -38.5t-15.5 -41.5l-19 -64q-6 -18 -18.5 -27.5t-32.5 -9.5h-68q-21 0 -30 11t-2 30l20 68q7 18 9 34.5t3 33.5q2 28 3.5 99t3.5 170.5t3.5 213.5t3 228.5t2 215t0.5 173.5q0 33 -9.5 49.5t-35.5 21.5l-50 13q-16 4 -23 9
t-7 12q0 10 7 14t21 4h384q14 0 20 -4t6 -13q0 -8 -7.5 -13t-24.5 -8l-86 -15q-32 -5 -45.5 -23.5t-14.5 -56.5q-1 -50 -2.5 -129t-3.5 -177t-3.5 -206t-3.5 -217t-4 -210t-4 -185l-31 -7zM1654 1382q0 8 7.5 13t20.5 5h331q14 0 19.5 -4t5.5 -12q0 -12 -41 -26l-24 -7
q-24 -8 -48.5 -27t-48 -47.5t-47.5 -67.5l-610 -1037q-9 -14 -17 -31t-16 -41l-18 -62q-6 -20 -18 -29t-29 -9h-75q-18 0 -26 12t0 33l21 67q6 19 8 37t2 37q1 29 1.5 108t1 187.5t0.5 228v232t-0.5 200.5t-1.5 132q-2 35 -12 52.5t-36 23.5l-55 12q-9 3 -15.5 8t-6.5 12
q0 9 8 13.5t22 4.5h376q11 0 16.5 -4t5.5 -12t-7 -13t-20 -9l-90 -16q-32 -5 -44.5 -23.5t-12.5 -61.5q-1 -38 -1 -122.5t-0.5 -196.5t-1 -233.5t-0.5 -234.5t0.5 -200t0.5 -128l-31 -9l640 1082q28 48 17.5 84t-63.5 48l-64 12q-24 6 -24 19z" />
    <glyph glyph-name="X" unicode="X" horiz-adv-x="1191" 
d="M631 725l22 -31l-382 -515q-49 -67 -46.5 -96.5t52.5 -36.5l52 -7q14 -2 20 -6t6 -12q0 -9 -8.5 -15t-23.5 -6h-350q-13 0 -18.5 4.5t-5.5 12.5q1 9 8 13t22 8q33 3 64.5 13t62.5 29t61.5 47.5t61.5 67.5zM568 1287q10 -32 32 -102.5t53 -166t66 -203.5t70.5 -217
t68 -205t57 -167.5t37.5 -104.5q10 -28 23.5 -44.5t36 -25.5t59.5 -15q26 -5 26 -18q0 -8 -8 -13t-22 -5h-361q-17 0 -23.5 4t-6.5 12t7 13.5t23 8.5l65 10q32 6 40 26t-3 55q-9 26 -30.5 92t-52.5 160t-66.5 201.5t-71.5 217t-69 208t-58 172.5t-38 110q-14 37 -34 51.5
t-67 20.5q-17 4 -24 9t-7 12q1 8 9 12.5t21 4.5h355q14 0 20.5 -4t6.5 -12q0 -7 -7 -12t-21 -9l-66 -9q-28 -4 -38 -21.5t-2 -45.5zM721 712l-27 26l351 495q52 67 97.5 109.5t90 62.5t89.5 20q41 0 59.5 -18t17.5 -42q0 -28 -21 -46t-58 -19q-28 -1 -50 3t-49 1
q-27 -4 -54.5 -19t-58 -44.5t-65.5 -78.5z" />
    <glyph glyph-name="Y" unicode="Y" horiz-adv-x="1066" 
d="M587 471l425 731q52 85 93.5 133.5t78.5 69t75 20.5q35 0 52 -16t17 -38q0 -34 -27.5 -55.5t-83.5 -33.5q-35 -7 -68 -24t-65.5 -49t-66.5 -85l-382 -647q-12 -20 -19 -35t-12 -32l-76 -299q-7 -27 0.5 -43t37.5 -21l71 -9q15 -3 21 -7.5t6 -10.5q0 -10 -9.5 -15
t-27.5 -5h-403q-13 0 -18.5 5t-5.5 13q0 15 29 21l75 8q36 5 56.5 23t29.5 48l79 296q7 22 6 42t-5 43q-3 21 -11.5 81t-20 142.5t-23.5 172.5t-23 172t-19.5 141t-12.5 78q-6 35 -31.5 53t-76.5 22q-14 2 -21.5 7t-7.5 13q0 9 7.5 14t20.5 5h144q43 0 65 -19t29 -59
q5 -21 14 -84t21 -150t25 -182.5t25 -184.5t22 -156t15 -95z" />
    <glyph glyph-name="Z" unicode="Z" horiz-adv-x="1117" 
d="M683 0h-650q-32 0 -32 22q1 10 7 19.5t16 20.5q25 25 81.5 90.5t134.5 158t168.5 201t185 221.5t183.5 220.5t164 197t127 150t72 80.5l15 -15h-486q-67 0 -137 -49t-148 -154q-11 -13 -23 -18t-21 0q-11 4 -10 14.5t12 26.5l128 210q13 19 22.5 26.5t21.5 7.5
q16 0 30.5 -7.5t33.5 -15t47 -7.5h634q17 0 24 -5t7 -15q0 -9 -7 -18t-18 -21q-20 -22 -71 -83.5t-125 -150.5t-162 -194.5t-181 -217t-183 -218.5t-167.5 -199t-134 -158.5t-82.5 -95.5l-16 11h492q59 0 116 22t112.5 82.5t107.5 177.5q7 13 12.5 18.5t13.5 5.5
q9 0 13 -6.5t3 -16.5q-2 -64 -24 -124.5t-57 -109.5t-75.5 -77.5t-78.5 -28.5q-17 0 -31.5 5.5t-29.5 11t-34 5.5z" />
    <glyph glyph-name="bracketleft" unicode="[" horiz-adv-x="686" 
d="M649 1422l-449 -1601q-3 -11 1 -16t16 -5h224q22 0 17 -19q-3 -9 -10.5 -14t-18.5 -5h-328q-16 0 -21.5 8t-0.5 24l464 1655q5 16 15.5 24t26.5 8h329q10 0 14.5 -4.5t1.5 -14.5q-5 -19 -29 -19h-224q-12 0 -18.5 -5t-9.5 -16z" />
    <glyph glyph-name="backslash" unicode="\" horiz-adv-x="812" 
d="M455.554 628.473q8.67676 -68.5439 19.3369 -166.199q10.6592 -97.6543 22.9873 -210.92q12.3271 -113.266 24.4795 -227q12.1523 -113.735 23.584 -216.496q11.4307 -102.76 20.4717 -178.934q3.32227 -22.6523 14.1426 -35.2549q10.8193 -12.6025 26.6689 -13.165
q15.8486 -0.5625 23.1074 11.7168q7.25977 12.2793 3.58594 33.9912q-9.15332 73.0039 -22.8701 173.941q-13.7178 100.937 -29.8037 215.604q-16.0869 114.669 -31.8789 228.691q-15.792 114.023 -28.9199 213.67t-22.3945 169.48q-7.97559 70.4238 -19.168 170.954
t-23.2881 215.85q-12.0967 115.32 -25.1318 230.991q-13.0361 115.671 -24.1729 217.786q-11.1357 102.114 -20.6406 174.179q-3.32227 22.6523 -13.4971 35.5498t-26.9629 13.8096q-12.6797 0.450195 -18.8799 -13.2949q-6.2002 -13.7441 -4.40625 -34.7549
q9.62988 -77.4648 22.9404 -180.927q13.3096 -103.461 29.0459 -219.069q15.7354 -115.607 31.0576 -229.455t28.626 -213.024q13.3027 -99.1768 21.9805 -167.721z" />
    <glyph glyph-name="bracketright" unicode="]" horiz-adv-x="686" 
d="M130 -179l449 1601q3 11 -1 16t-16 5h-224q-22 0 -17 19q3 9 10.5 14t18.5 5h328q16 0 21.5 -8t0.5 -24l-464 -1655q-5 -16 -15.5 -24t-26.5 -8h-329q-10 0 -14.5 4.5t-1.5 14.5q5 19 29 19h224q12 0 18.5 5t9.5 16z" />
    <glyph glyph-name="asciicircum" unicode="^" horiz-adv-x="774" 
d="M658 1383h-44l139 -557q5 -12 11.5 -16.5t15.5 -4.5q13 0 19 12t1 30l-120 541q-6 21 -13.5 27t-19.5 6q-8 0 -16 -2.5t-16.5 -9.5t-20.5 -21l-396 -539q-16 -17 -18 -30t12 -13q8 0 18.5 4.5t21.5 16.5z" />
    <glyph glyph-name="underscore" unicode="_" horiz-adv-x="802" 
d="M-82 -210q2 15 9 22t20 7h765q13 0 17.5 -7.5t2.5 -21.5q-2 -15 -9.5 -22t-20.5 -7h-764q-13 0 -17.5 7t-2.5 22z" />
    <glyph glyph-name="grave" unicode="`" horiz-adv-x="349" 
d="M141 1206l64 -189q2 -6 1.5 -11.5t-5.5 -9.5q-6 -4 -12 -3.5t-11 3.5l-138 143q-23 23 -37 45t-10 49q4 22 23.5 40.5t47.5 20.5q31 2 47.5 -21.5t29.5 -66.5z" />
    <glyph glyph-name="a" unicode="a" horiz-adv-x="958" 
d="M721 223q-25 -98 -19.5 -131.5t33.5 -33.5q21 0 45 15.5t60 55.5q10 10 16 13t12 0t5 -11t-7 -19q-38 -61 -92 -95t-111 -34q-42 0 -65 21.5t-23 66.5q0 22 5 52.5t17 79t33 121t53 176.5l12 -12q-61 -156 -136.5 -269.5t-161 -174.5t-175.5 -61t-138 69.5t-27 225.5
q11 98 53 189.5t107 170.5t147.5 138.5t175 92.5t187.5 33q59 0 98 -8.5t59 -22.5t20 -29q-1 -13 -9 -21.5t-16.5 -16.5t-12.5 -21zM185 272q-18 -121 12.5 -174t85.5 -53q46 0 98 35t104.5 100.5t102 156t91 203.5t70.5 243q8 40 -4 59t-46 19q-71 0 -140.5 -31.5
t-131.5 -87.5t-112.5 -130.5t-84 -161t-45.5 -178.5z" />
    <glyph glyph-name="b" unicode="b" horiz-adv-x="972" 
d="M461 1068l-167 -584h-21q48 123 121 217t161.5 147t179.5 53q94 0 148.5 -74.5t43.5 -221.5q-7 -127 -56 -240t-124 -198.5t-162.5 -134.5t-172.5 -49q-100 0 -157.5 51.5t-55.5 158.5l24 -8l-116 -164q-10 -14 -18.5 -20t-17.5 -5q-14 0 -18 13t5 46l253 908
q44 158 124.5 264t201.5 159t285 53q71 0 103 -20t32 -50q0 -26 -20 -42.5t-55 -16.5q-27 0 -52 10.5t-50 24t-51.5 24t-55.5 10.5q-105 0 -187.5 -80.5t-124.5 -230.5zM672 841q-59 -1 -119.5 -42t-115.5 -109.5t-99 -152.5t-69.5 -171.5t-26.5 -166.5q-1 -89 41 -130.5
t106 -41.5q51 0 106 31.5t106.5 87.5t93.5 129.5t69 158.5t32 173q7 87 -8 138.5t-45.5 74t-70.5 21.5z" />
    <glyph glyph-name="c" unicode="c" horiz-adv-x="789" 
d="M554 866q-75 0 -149 -59t-129 -161t-72 -231q-25 -181 25.5 -271t155.5 -90q54 0 108 25.5t99.5 76t70.5 126.5q6 12 11.5 17.5t12.5 5.5t11 -7t1 -20q-13 -57 -44 -110t-79.5 -95t-111.5 -67t-138 -25q-154 0 -222 110t-36 307q17 104 63 195.5t114 161.5t150.5 110
t172.5 40q70 0 117.5 -25.5t72 -67t23.5 -92.5q-2 -51 -24.5 -76.5t-51.5 -25.5q-24 0 -38.5 14.5t-13.5 37.5q0 24 7.5 49.5t8.5 52.5q0 42 -30.5 68t-84.5 26z" />
    <glyph glyph-name="d" unicode="d" horiz-adv-x="973" 
d="M838 792l-55 -16q-8 39 -35 63.5t-84 24.5q-67 0 -133 -33.5t-126.5 -92.5t-109 -136t-79.5 -163t-39 -173q-13 -117 18 -167t85 -50q44 0 103.5 43.5t123.5 120t119.5 178t90.5 217.5l176 596q36 119 106 177t182 58q57 0 84 -19.5t27 -47.5q0 -25 -16 -42t-49 -17
q-21 0 -39 8t-35 19t-35.5 19.5t-40.5 8.5q-42 0 -77 -38.5t-39 -95.5q-1 -19 2 -36t6.5 -33.5t6 -34.5t2 -39t-8.5 -46l-243 -824q-28 -95 -22.5 -129t36.5 -34q20 0 44.5 15t60.5 56q10 10 16 13t12 0t5 -11t-7 -19q-25 -41 -57.5 -69.5t-69 -44t-74.5 -15.5q-44 0 -69 22
t-25 66q0 28 9 70.5t31.5 119.5t60.5 203l19 -8q-71 -154 -155 -260t-169 -159.5t-159 -53.5q-55 0 -96.5 28.5t-60.5 91.5t-8 166q11 121 68.5 234t145.5 203.5t193.5 143t211.5 52.5q56 0 92.5 -14t55.5 -39t23 -57z" />
    <glyph glyph-name="e" unicode="e" horiz-adv-x="823" 
d="M139 416l40 16t103 41.5t133.5 54t133.5 54t102 41.5l-16 -22q6 16 9.5 38t3.5 56q0 74 -30.5 122.5t-78.5 48.5q-54 0 -109 -38t-104 -106t-83 -161t-46 -202q-15 -151 39.5 -229t154.5 -78q64 0 123 26.5t106.5 78.5t75.5 130q6 11 11.5 15.5t12.5 4.5t11 -7t1 -22
q-22 -82 -76.5 -149.5t-138 -106.5t-193.5 -39q-90 0 -152.5 40.5t-90.5 118t-18 188.5q11 115 56 218t115 183t154 126t173 46q65 0 109 -29t67.5 -77t24.5 -105q0 -12 6.5 -17.5t19.5 -3.5q10 2 15 -1t6 -11t-6.5 -14.5t-27.5 -14.5q-24 -10 -79.5 -31.5t-126.5 -49.5
t-145.5 -57.5t-138 -54t-102.5 -40l-39 -15.5z" />
    <glyph glyph-name="f" unicode="f" horiz-adv-x="526" 
d="M349 830l16 43h237q11 0 17 -3.5t6 -12.5q0 -7 -6 -13.5t-16.5 -10t-23.5 -3.5h-230zM133 855q0 8 6.5 13.5t20.5 5.5h135l65 243q40 150 122 230t212 80q58 0 85.5 -21t27.5 -49q0 -29 -18 -47t-49 -18q-23 0 -41.5 9t-36 20.5t-35.5 20.5t-41 9q-53 0 -94 -42.5
t-54 -105.5q-7 -31 -6 -66.5t3.5 -73t2 -74t-9.5 -69.5l-285 -1026q-8 -32 -13 -56.5t-5 -44.5t7 -33.5t13.5 -25t6.5 -25.5q0 -18 -16.5 -34t-44 -25.5t-59.5 -9.5q-41 0 -52.5 32.5t7.5 102.5l275 966q13 46 -5 68t-98 25q-15 3 -20.5 9t-5.5 12z" />
    <glyph glyph-name="g" unicode="g" horiz-adv-x="896" 
d="M672 -2q-42 -177 -132 -286.5t-216.5 -159t-278.5 -49.5q-82 0 -120.5 22.5t-38.5 58.5q0 25 19 42t53 17q28 0 55 -12t54 -27.5t56 -27t60 -11.5q70 0 136 34t119.5 109.5t83.5 198.5l141 555l17 -11q-65 -156 -141 -260.5t-157.5 -156t-164.5 -51.5q-54 0 -96.5 26
t-63.5 84t-11 153q10 105 50 201.5t103.5 179.5t146.5 145t178.5 96.5t198.5 34.5q55 0 93.5 -8t58.5 -20.5t20 -28.5q-1 -13 -8.5 -20.5l-15.5 -15.5t-11 -22zM177 265q-9 -85 5 -132.5t41 -66t59 -18.5q55 0 115.5 47.5t118 127t104.5 176.5t77 197t34 188q3 38 -8.5 57
t-42.5 19q-67 0 -135 -31.5t-130.5 -87.5t-113 -131t-83 -163t-41.5 -182z" />
    <glyph glyph-name="h" unicode="h" horiz-adv-x="1007" 
d="M258 305q42 129 100.5 225.5t122.5 161t124.5 97t106.5 32.5q54 0 67.5 -40.5t-23.5 -149.5l-152 -454q-21 -64 -19.5 -107.5t25.5 -65t68 -21.5q61 0 115 34t92 96q6 11 7 19t-6 10q-5 3 -11.5 0t-15.5 -12q-36 -41 -61.5 -56t-45.5 -15q-28 0 -36.5 31.5t21.5 120.5
l144 428q28 80 34 139t-21 91.5t-98 32.5q-73 0 -163 -44t-181 -143.5t-168 -265.5l10 -4l171 614q31 113 82 183.5t114.5 103.5t130.5 33q31 0 58.5 -10.5t53 -24t51 -24t51.5 -10.5q37 0 57 16.5t20 42.5q0 30 -32.5 50t-103.5 20q-173 0 -297.5 -52.5t-206 -160.5
t-128.5 -273l-240 -859q-11 -39 -11.5 -63.5t11 -36t37.5 -11.5q50 0 81.5 18t31.5 46q0 18 -5 30.5t-5 32.5q0 18 3.5 44t13.5 63t26 88z" />
    <glyph glyph-name="i" unicode="i" horiz-adv-x="529" 
d="M251 212q-31 -87 -22.5 -120t36.5 -33q21 0 46 15t61 56q9 9 15.5 12.5t12.5 0.5t5 -11t-7 -19q-38 -62 -92 -96t-115 -34q-43 0 -68 22t-26.5 65t21.5 108l174 482q33 94 26 128.5t-38 34.5q-19 0 -44.5 -15t-62.5 -57q-9 -8 -15.5 -11t-12.5 -1q-6 3 -5 10.5t6 18.5
q41 64 95.5 99t112.5 35q42 0 66.5 -22t27 -67t-22.5 -115zM425 1100q-38 0 -58 23t-15 56q3 30 21.5 62t47.5 53.5t62 21.5q41 0 59.5 -22.5t13.5 -56.5q-2 -32 -21 -63.5t-47.5 -52.5t-62.5 -21z" />
    <glyph glyph-name="j" unicode="j" horiz-adv-x="491" 
d="M420 698l-284 -951q-37 -126 -110 -184t-178 -58q-48 0 -72.5 19t-24.5 48q0 24 17.5 42.5t51.5 18.5q28 0 51 -10t44.5 -20.5t46.5 -10.5q32 0 64 24t46 89q4 22 3 44t-4.5 46t-6 50t0 55.5t11.5 62.5l210 697q29 95 22 129t-38 34q-21 0 -46 -15t-63 -57q-9 -8 -15 -11
t-12 -1q-6 3 -5 10.5t6 18.5q28 43 61 72.5t70.5 45.5t75.5 16q65 0 87.5 -48t-9.5 -156zM414 1100q-39 0 -58.5 23t-15.5 56q3 30 21.5 62t47.5 53.5t62 21.5q41 0 59.5 -22.5t13.5 -56.5q-2 -32 -20.5 -63.5t-47.5 -52.5t-62 -21z" />
    <glyph glyph-name="k" unicode="k" horiz-adv-x="971" 
d="M314 514q11 42 25.5 95t33.5 120t42 149t51 180q31 113 81.5 184t114 104t131.5 33q31 0 58.5 -10.5t53 -24t51 -24t51.5 -10.5q36 0 56.5 16.5t20.5 42.5q0 30 -33 50t-103 20q-168 0 -292 -50.5t-207 -155.5t-129 -269l-248 -883q-9 -31 -8.5 -52.5t12 -32.5t35.5 -11
q35 0 60.5 8t40 22.5t14.5 33.5q0 18 -5 30.5t-5 32.5q0 19 4.5 45t18.5 81t41 159q27 98 81 183t122 148t136.5 96t123.5 28q50 -5 70.5 -35.5t12.5 -82.5q-10 -72 -69.5 -140t-183.5 -126.5t-328 -102.5v-34q238 50 390.5 115t229.5 140t86 152q10 74 -30 118t-126 50
q-72 4 -147 -26t-144.5 -86.5t-125 -134t-89.5 -167.5zM470 403l90 -283q23 -75 52.5 -105t77.5 -32q40 -1 72.5 14t58.5 45.5t43 77.5q3 11 1 17t-8 7q-5 2 -10.5 -1t-13.5 -15q-18 -31 -39.5 -48.5t-43.5 -15.5q-25 1 -43 24t-37 81l-90 267z" />
    <glyph glyph-name="l" unicode="l" horiz-adv-x="513" 
d="M691 1439q58 0 84.5 -19.5t26.5 -47.5q0 -25 -16.5 -41.5t-50.5 -16.5q-20 0 -38.5 7.5t-36 17t-36.5 17t-41 7.5q-29 0 -55 -20t-43 -52t-20 -67q-1 -20 2 -38.5t7 -37t6.5 -39t1 -43.5t-9.5 -50l-242 -790q-30 -99 -21.5 -132t43.5 -33q30 0 66 20t73 67q6 8 11 10.5
t10 1.5q7 -2 8.5 -9t-3.5 -19q-22 -44 -60 -77.5t-85.5 -52.5t-97.5 -19q-47 0 -72 21t-27 66t20 117l311 1019q37 118 108 175.5t177 57.5z" />
    <glyph glyph-name="m" unicode="m" horiz-adv-x="1492" 
d="M582 117l175 514q36 107 22.5 148.5t-59.5 41.5q-53 0 -133 -52.5t-163 -165.5t-145 -293q-23 -68 -34.5 -106.5t-15.5 -59t-4 -33.5q0 -19 6.5 -31.5t6.5 -30.5q0 -29 -31 -47.5t-80 -18.5q-43 0 -49 32.5t21 109.5l189 544q30 86 23 120t-38 34q-19 0 -44.5 -15
t-62.5 -57q-9 -8 -15.5 -11t-12.5 -1q-5 3 -4.5 10.5t6.5 18.5q40 64 95.5 99t113.5 35q42 0 66.5 -20.5t24.5 -62.5q0 -31 -11 -70t-31 -89.5t-46 -115.5t-56 -148l1 30q76 177 167.5 281t181.5 149.5t159 45.5q57 0 84.5 -26.5t25.5 -78.5q-1 -26 -9 -58t-24.5 -77
t-41 -109.5t-57.5 -155.5l-2 30q57 131 122.5 221.5t134 146.5t132.5 81.5t117 25.5q62 0 88 -31.5t22 -90t-32 -141.5l-142 -428q-30 -89 -21 -120.5t36 -31.5q21 0 46 15t61 56q9 9 15.5 12t11.5 0q7 -2 6 -10t-7 -19q-38 -62 -92 -96t-115 -34q-44 0 -68 21.5t-25.5 65
t19.5 107.5l150 454q36 108 22 149t-59 41q-53 0 -132.5 -52.5t-162 -165.5t-144.5 -294q-22 -66 -33.5 -105.5t-15.5 -61t-4 -34.5q0 -19 6.5 -31t6.5 -30q0 -29 -31.5 -47.5t-80.5 -18.5q-28 0 -40 14t-9 44t19 78z" />
    <glyph glyph-name="n" unicode="n" horiz-adv-x="1025" 
d="M138 739q-5 3 -4.5 10.5t6.5 18.5q40 64 95.5 99t113.5 35q42 0 66.5 -20.5t24.5 -62.5q0 -29 -12 -71t-32 -95.5t-46 -118t-54 -137.5l1 29q57 133 124.5 224t137 146.5t135.5 80.5t119 25q70 0 97 -32.5t21 -91t-33 -139.5l-144 -428q-30 -89 -21.5 -120.5t36.5 -31.5
q20 0 45 15t62 56q9 9 15 12t12 0q6 -2 5.5 -10t-6.5 -19q-39 -62 -92.5 -96t-114.5 -34q-44 0 -68.5 21.5t-25.5 65t20 107.5l152 454q37 109 23.5 149.5t-67.5 40.5q-41 0 -99 -29t-121.5 -91t-123.5 -159t-106 -232q-22 -68 -34 -106.5t-16 -59t-4 -33.5q0 -20 6.5 -32
t6.5 -30q0 -28 -31 -47t-79 -19q-42 0 -50 30t16 97l191 551q33 94 26 128t-38 34q-19 0 -44.5 -15t-62.5 -57q-9 -8 -15.5 -11t-12.5 -1z" />
    <glyph glyph-name="o" unicode="o" 
d="M578 902q99 -5 168.5 -58.5t98.5 -151t6 -233.5q-17 -103 -63.5 -191t-115 -152.5t-151 -100t-173.5 -32.5q-94 2 -165.5 53t-103 147.5t-9.5 235.5q19 109 67 199.5t117.5 155.5t152 98.5t171.5 29.5zM355 23q48 -3 94.5 20t89.5 65.5t78.5 101.5t62 130t39.5 150
q22 125 9 205.5t-54 121t-101 45.5q-48 4 -95.5 -18t-91 -64.5t-80.5 -102t-64 -133t-41 -156.5q-22 -128 -7 -207.5t58 -117t103 -40.5z" />
    <glyph glyph-name="p" unicode="p" horiz-adv-x="943" 
d="M487 1023l-395 -1378q-9 -32 -3.5 -48.5t38.5 -20.5l74 -10q12 -2 17.5 -6.5t5.5 -11.5t-6.5 -12t-18.5 -6l-345 -9q-10 0 -15.5 4t-5.5 11t5 11.5t15 8.5q36 7 56.5 16t32.5 23.5t18 36.5l401 1362q4 13 13 25t21.5 22.5t25.5 18t25 12t20 4.5q17 0 23 -13t-2 -40z
M149 667q-7 -8 -16.5 -11t-16.5 2q-8 7 -5.5 17.5t11.5 20.5q62 73 134 122t153 71.5t170 16.5q109 -7 180.5 -60t101 -148t12.5 -226q-19 -149 -93 -261t-180.5 -173t-225.5 -56q-80 4 -134.5 37t-81.5 95l32 15q24 -48 65.5 -73t97.5 -29q88 -4 167.5 47t138 153.5
t79.5 251.5q18 123 0 207t-64.5 129t-115.5 52q-106 9 -210 -39.5t-199 -160.5z" />
    <glyph glyph-name="q" unicode="q" horiz-adv-x="931" 
d="M664 430l13 -10q-61 -135 -140.5 -233t-164.5 -151t-162 -53q-80 0 -126 51t-44 151q2 110 41.5 215t108 196t157 160t190 107.5t204.5 38.5q54 0 92.5 -8.5t59 -22.5t20.5 -32q-1 -16 -9 -29.5t-18.5 -30t-17.5 -42.5l-309 -1099q-9 -32 -2 -49t30 -22l54 -10
q10 -2 15.5 -6t5.5 -10q0 -8 -7 -12.5t-21 -5.5l-351 -14q-15 -1 -24.5 3.5t-9.5 13.5q0 6 7.5 12t29.5 9q49 6 78.5 16t46 28.5t24.5 47.5zM173 192q-1 -73 26 -106t72 -33q58 0 122.5 47.5t126 126t113 174t83.5 192t36 178.5q4 47 -9.5 68t-43.5 21q-75 0 -150 -36.5
t-142.5 -101t-120 -149.5t-82.5 -182.5t-31 -198.5z" />
    <glyph glyph-name="r" unicode="r" horiz-adv-x="778" 
d="M132 739q-5 3 -4.5 10.5t6.5 18.5q27 42 61 72t72 46t75 16q41 0 64 -20.5t23 -62.5q0 -36 -14 -83t-35.5 -104.5t-44 -122t-40.5 -134.5l-10 1q33 108 80.5 203t104.5 167.5t118 114t122 41.5q58 0 86 -32.5t27 -85.5q-2 -34 -14 -59t-31.5 -39t-42.5 -14
q-24 0 -37.5 12t-13.5 31q0 18 5.5 34.5t5.5 34.5q0 23 -9.5 37t-32.5 14q-49 0 -115 -61.5t-133.5 -182.5t-122.5 -299q-20 -62 -31 -101t-11 -71q0 -18 6.5 -29.5t13.5 -20.5t7 -23q0 -15 -15.5 -30.5t-43 -24.5t-63.5 -9q-29 0 -42.5 14t-11 44.5t17.5 79.5l172 540
q30 94 23.5 128t-37.5 34q-19 0 -44.5 -15t-62.5 -57q-9 -8 -15.5 -11t-12.5 -1z" />
    <glyph glyph-name="s" unicode="s" horiz-adv-x="735" 
d="M306 21q75 0 123 39.5t48 100.5q1 30 -11.5 60t-45 69.5t-93.5 95.5q-64 60 -99.5 102t-50 79t-13.5 82q1 69 42 126.5t114 92.5t170 35q77 0 131 -21.5t82.5 -56t28.5 -72.5q0 -25 -13 -39.5t-34 -14.5q-22 0 -37.5 14t-30.5 51q-23 51 -59 77.5t-85 26.5
q-85 0 -138 -47t-53 -118q0 -34 11 -66t44 -72.5t98 -101.5q64 -59 99 -100t48.5 -76.5t12.5 -77.5q-1 -66 -40 -117t-108.5 -80t-161.5 -29q-79 0 -138.5 26.5t-92.5 67.5t-33 85q0 24 11.5 38.5t31.5 14.5q21 0 38.5 -15.5t33.5 -52.5q35 -69 77.5 -97.5t92.5 -28.5z" />
    <glyph glyph-name="t" unicode="t" horiz-adv-x="611" 
d="M268 830l-92 13q-9 3 -13.5 8t-4.5 11q0 9 7 14t19 5h106q14 0 23.5 4.5t16.5 13.5l106 144q6 9 13.5 12.5t15.5 3.5t12.5 -4.5t4.5 -13.5q0 -7 -2 -16.5t-6 -23.5l-232 -775q-31 -101 -16.5 -133t60.5 -32q44 0 86.5 24.5t90.5 80.5q6 8 11.5 11t9.5 2q6 0 8.5 -5
t0.5 -13q-12 -31 -38.5 -62t-64 -57.5t-83.5 -42.5t-96 -16q-57 0 -86.5 23.5t-32 70.5t18.5 117l171 570q11 36 8 49.5t-22 16.5zM375 840l15 40h254q20 0 20 -15q0 -12 -11.5 -18.5t-30.5 -6.5h-247z" />
    <glyph glyph-name="u" unicode="u" horiz-adv-x="1021" 
d="M896 146q6 -3 5 -10.5t-6 -18.5q-41 -64 -96.5 -99t-113.5 -35q-42 0 -66.5 20.5t-24.5 62.5q0 29 12 71t32.5 95.5t46.5 118t54 137.5l-1 -30q-57 -132 -125 -223t-137.5 -147t-135 -80.5t-118.5 -24.5q-70 0 -97 32t-21.5 91.5t33.5 139.5l144 427q30 90 21.5 121.5
t-36.5 31.5q-19 0 -45 -15t-62 -56q-9 -9 -15.5 -12t-11.5 -1q-6 3 -5.5 11t6.5 19q38 62 92 96t115 34q45 0 68.5 -22t25.5 -64.5t-20 -107.5l-152 -454q-37 -109 -23.5 -149.5t67.5 -40.5q41 0 98.5 29t121 90.5t123.5 159t106 232.5q23 68 34.5 106.5t15.5 59t4 33.5
q0 20 -6.5 32t-6.5 30q0 28 31 47t80 19q42 0 49.5 -30t-16.5 -97l-191 -551q-32 -94 -25 -128t37 -34q20 0 45.5 15t62.5 56q9 9 15.5 12.5t11.5 0.5z" />
    <glyph glyph-name="v" unicode="v" horiz-adv-x="956" 
d="M911 755q0 -128 -32 -244t-87.5 -212.5t-127.5 -167.5t-153.5 -109.5t-163.5 -38.5q-73 0 -113 41.5t-39 128.5q2 79 32.5 154.5t75.5 145.5t93 131t85 112.5t50 90.5v-28q-38 0 -78 9t-80 20.5t-77.5 20.5t-70.5 9q-49 1 -78.5 -23t-29.5 -57q-2 -29 40 -48
q24 -9 34 -21t10 -30q-1 -21 -16 -33.5t-38 -12.5q-34 0 -56.5 27.5t-20.5 76.5q2 57 30 103.5t75.5 74t107.5 27.5q34 0 76 -9t81.5 -18t64.5 -9q24 0 35.5 8.5t18.5 17t19 7.5q10 0 12.5 -8.5t-0.5 -25.5q-9 -42 -36.5 -100.5t-63 -128.5t-69 -146t-56 -153.5
t-22.5 -151.5q0 -70 24.5 -102.5t68.5 -32.5q63 0 132 49t129.5 132.5t99 186.5t38.5 210q1 48 -7.5 70.5t-29.5 42.5q-22 21 -32.5 40.5t-10.5 43.5q1 22 10.5 39t26 27t36.5 10q38 0 60.5 -34.5t22.5 -111.5z" />
    <glyph glyph-name="w" unicode="w" horiz-adv-x="1407" 
d="M937 904q26 -4 30 -41.5t-22 -131.5q-56 -204 -123.5 -346.5t-143.5 -231.5t-158 -129.5t-166 -40.5q-79 0 -120 41.5t-39 128.5q1 80 31.5 154.5t75.5 143t93 129t85 112.5t50 94l-3 -26q-36 0 -75.5 9t-79.5 20t-77 20.5t-69 9.5q-53 1 -81 -23.5t-29 -54.5
q-1 -31 41 -51q23 -10 33 -20.5t9 -27.5q0 -23 -16 -36t-39 -13q-34 0 -55.5 27.5t-19.5 75.5q2 57 29 103.5t74 74.5t110 28q33 0 74.5 -9t81.5 -18t65 -9t37 9t20 17.5t19 7.5t14.5 -10.5t0.5 -28.5q-9 -42 -37 -98t-64.5 -123t-70.5 -141t-57 -152.5t-23 -157.5
q0 -72 27 -105t74 -33q51 0 107.5 32.5t115.5 103t117 185.5t111 280q-50 -183 -67.5 -301.5t-8.5 -185t38.5 -93.5t72.5 -27q44 0 96 33t101.5 95.5t90 150t60.5 195.5q10 52 8.5 92t-12 70.5t-29.5 52.5q-22 23 -33 45.5t-10 47.5q0 19 10 36t26 27.5t36 10.5q53 0 74 -73
t1 -219q-19 -138 -66.5 -253t-113 -198.5t-141.5 -129t-152 -45.5q-73 0 -114.5 45.5t-49 139t20 235.5t91.5 334q32 100 59.5 134.5t54.5 32.5z" />
    <glyph glyph-name="x" unicode="x" horiz-adv-x="1009" 
d="M466 448l32 -10q-44 -136 -89.5 -224.5t-91.5 -139t-91.5 -70.5t-90.5 -20q-68 0 -103 36t-33 102q0 51 21 83t52 32q22 0 35.5 -16t13.5 -42q0 -21 -6 -45.5t-6 -47.5q0 -22 14.5 -35t42.5 -13q38 0 84.5 31.5t101.5 119.5t114 259zM567 704l13 -500q2 -75 27.5 -109.5
t70.5 -34.5q38 0 70 20.5t71 80.5q12 16 19 21.5t14 2.5q8 -2 10 -10t-5 -23q-26 -53 -61 -91t-77.5 -58.5t-91.5 -20.5q-57 0 -92 24t-51.5 71.5t-19.5 115.5l-13 490q-2 82 -26.5 114.5t-65.5 32.5q-39 0 -73.5 -22t-73.5 -82q-11 -15 -17 -20.5t-14 -2.5q-8 2 -9.5 10.5
t6.5 24.5q26 51 62 87.5t80 56.5t96 20q50 0 82.5 -21.5t50 -65.5t18.5 -111zM561 399l-28 10q48 149 96 245.5t95 150.5t92.5 75t88.5 21q62 0 95.5 -36t31.5 -92q0 -65 -23.5 -100.5t-54.5 -35.5q-22 0 -34 14.5t-11 38.5q0 23 11 52t11 60q0 20 -15 30t-43 10
q-30 0 -64 -18.5t-73 -66.5t-82.5 -135t-92.5 -223z" />
    <glyph glyph-name="y" unicode="y" horiz-adv-x="872" 
d="M605 559q76 186 144 266t143 80q31 0 47 -14.5t16 -39.5q0 -31 -21.5 -52t-64.5 -34q-36 -7 -66.5 -23t-59.5 -48t-59 -85t-64 -135l-251 -613q-52 -131 -116 -209t-143 -112.5t-176 -34.5q-86 0 -131 27t-45 65q0 27 17 44.5t44 17.5q20 0 37 -10.5t33.5 -25t35.5 -29.5
t41.5 -25.5t51.5 -10.5q56 0 104.5 33t85 86.5t56.5 116.5t21 124q0 33 -2 95.5t-5 142.5t-7 167t-8.5 168.5t-8.5 146t-8 99.5q-2 44 -12.5 64.5t-30.5 20.5q-18 0 -37 -14t-42 -51q-7 -11 -12.5 -14.5t-11.5 -1.5t-7.5 9.5t3.5 18.5q21 46 49 75t60 43.5t67 14.5
q43 0 67 -28t28 -87q2 -31 5 -100t6 -160.5t6.5 -191.5t6.5 -195t6 -171l-18 18z" />
    <glyph glyph-name="z" unicode="z" horiz-adv-x="840" 
d="M186 147q22 23 62.5 64t99 99.5l133.5 133.5q73 76 127 130.5t91 90.5t61 55t38 24q38 14 61 42t23 63q0 23 -12 37.5t-34 14.5q-20 0 -33.5 -12t-24 -30t-20 -36t-19 -30.5t-22.5 -12.5q-20 0 -44 12.5t-53 31t-63.5 36.5t-75 30.5t-88.5 12.5q-70 0 -123 -32t-81.5 -84
t-28.5 -113q0 -43 18 -66t47 -23q20 0 32.5 12.5t12.5 31.5q0 14 -5 24.5t-20 21.5q-17 14 -25.5 26.5t-8.5 28.5q0 33 29.5 53.5t90.5 20.5q41 0 94.5 -11.5t109 -26t104 -25.5t81.5 -11v24q-11 -14 -50 -54.5t-100 -102.5t-137 -140q-64 -65 -117 -117.5t-93.5 -91
t-69 -61.5t-44.5 -30q-34 -14 -57 -34.5t-34.5 -43.5t-11.5 -46q0 -24 13 -37t35 -13q21 0 37.5 14.5t29 36t23.5 42.5t21.5 35t23.5 13q18 0 41 -14.5t51 -35.5t62 -41.5t74 -35t87 -14.5q63 0 114 28t85 81.5t46 127.5q0 14 -2.5 20t-8.5 6q-5 1 -9.5 -3.5t-8.5 -14.5
q-24 -74 -67.5 -98.5t-113.5 -24.5q-55 0 -116.5 17t-120.5 33t-106 16z" />
    <glyph glyph-name="braceleft" unicode="{" horiz-adv-x="710" 
d="M355 627q-5 -21 20 -21q60 0 95.5 -18t48 -49.5t1.5 -72.5q-13 -54 -54.5 -105t-92 -103.5t-94.5 -109.5t-63 -123t-6.5 -117t55.5 -80t115 -29h59q10 0 14 -4.5t2 -14.5q-3 -8 -10.5 -13t-17.5 -5h-78q-106 0 -170 34.5t-84 96t3 140.5q22 77 71.5 140.5t105 118t99 102
t55.5 93.5q10 43 -8.5 71t-68.5 28q-20 0 -37 -5.5t-33.5 -11t-36.5 -5.5q-33 0 -45.5 19.5t-5.5 44.5t30.5 44t56.5 19q20 0 34 -5t28.5 -10.5t34.5 -5.5q50 0 84 27t46 70q13 46 -5 93.5t-43.5 101t-38.5 116t8 139.5q22 78 75.5 137.5t134.5 93t187 33.5h77q11 0 15.5 -5
t1.5 -14t-10.5 -14t-18.5 -5h-58q-109 0 -183 -60.5t-101 -157.5q-18 -66 -6.5 -122.5t33.5 -108.5t36 -102t-1 -104q-18 -62 -76.5 -101.5t-148.5 -39.5q-12 0 -20 -5t-11 -15z" />
    <glyph glyph-name="bar" unicode="|" horiz-adv-x="555" 
d="M301 626q20 69 48 177t59.5 229t61.5 235.5t54 198.5q6 19 19 30.5t30 11.5q18 0 24 -11.5t1 -31.5q-16 -57 -41 -140.5t-54 -179.5t-57.5 -193t-54 -181.5t-41.5 -144.5q-17 -60 -40 -145t-48.5 -181.5l-51 -193t-47.5 -180.5t-39 -141q-5 -19 -18 -30.5t-31 -11.5
q-17 1 -23 12.5t-1 30.5q23 84 57.5 198t71.5 235.5t69.5 229t51.5 177.5z" />
    <glyph glyph-name="braceright" unicode="}" horiz-adv-x="708" 
d="M454 599q5 21 -20 21q-60 0 -95.5 18t-48 49.5t-1.5 72.5q13 54 54.5 105t92 103.5t94.5 109.5t63 123t6.5 117t-55.5 80t-115 29h-59q-10 0 -14 4.5t-2 14.5q3 8 10.5 13t17.5 5h78q106 0 170 -34.5t84 -96t-3 -140.5q-22 -77 -71.5 -140.5t-105 -118t-99 -102
t-55.5 -93.5q-10 -43 8.5 -71t68.5 -28q20 0 37 5.5t33.5 11t36.5 5.5q33 0 45.5 -19.5t5.5 -44.5t-30.5 -44t-56.5 -19q-20 0 -34 5t-28.5 10.5t-34.5 5.5q-50 0 -84 -27t-46 -70q-13 -46 5 -93.5t43.5 -101t38.5 -116t-8 -139.5q-22 -78 -75.5 -137.5t-134.5 -93
t-187 -33.5h-77q-11 0 -15.5 5t-1.5 14t10.5 14t18.5 5h58q109 0 183 60.5t101 157.5q18 66 6.5 122.5t-33.5 108.5t-36 102t1 104q18 62 76.5 101.5t148.5 39.5q12 0 20 5t11 15z" />
    <glyph glyph-name="asciitilde" unicode="~" horiz-adv-x="1114" 
d="M832 569q-64 0 -115 33t-96 76t-92 75.5t-103 32.5q-79 0 -138.5 -56t-91.5 -151q-5 -10 -13.5 -15.5t-18.5 -5.5q-23 0 -14 26q21 70 63.5 126.5t100.5 90t126 33.5q67 0 117.5 -32.5t95 -75t90.5 -75t104 -32.5q68 0 126 45.5t85 143.5q7 14 15.5 19.5t18.5 5.5
q11 0 15.5 -7t-0.5 -22q-17 -72 -58.5 -124.5t-97.5 -81.5t-119 -29z" />
    <glyph glyph-name="nbspace" unicode="&#xa0;" horiz-adv-x="368" 
 />
    <glyph glyph-name="exclamdown" unicode="&#xa1;" horiz-adv-x="538" 
d="M59 -331q-40 0 -54 19.5t-7 48.5q2 12 8 30t15 38l308 904q6 13 12.5 19t15.5 6q10 0 13 -6t1 -19l-200 -906q-2 -15 -4.5 -29.5t-6.5 -28.5q-9 -35 -34 -55.5t-67 -20.5zM471 1147q40 0 60 -25.5t14 -62.5q-5 -29 -22.5 -52t-44.5 -37t-58 -14q-41 0 -60.5 26t-12.5 64
q4 27 21 50t43.5 37t59.5 14z" />
    <glyph glyph-name="cent" unicode="&#xa2;" horiz-adv-x="878" 
d="M891 688q-6 -33 -29.5 -52t-50.5 -19q-28 0 -43 17.5t-8 50.5l8 41q11 46 -3 81.5t-52 56t-98 20.5q-88 0 -169 -51t-142 -142t-91 -210q-49 -201 17 -307t206 -106q102 0 186 54.5t138 150.5l10.5 10.5t11.5 4.5q8 0 10.5 -6.5t-1.5 -16.5q-38 -84 -102 -146.5
t-145 -96.5t-174 -34q-116 0 -193 54.5t-103.5 156.5t8.5 244q23 98 74.5 183t124.5 149.5t161 100.5t185 36q98 0 161.5 -31t90 -82t12.5 -111zM506 467q-14 -51 -32 -120t-35.5 -143.5t-34 -142.5t-28 -117.5t-16.5 -67.5q-4 -14 -13.5 -22.5t-22.5 -8.5q-12 0 -17.5 8
t-0.5 25q4 14 14.5 51t26 89t33 112t35 121.5t33.5 117.5l28 98q12 39 25.5 92t28 112.5t28.5 118.5t26 110.5t20.5 88t12.5 50.5q4 15 14.5 22.5t22.5 7.5q11 0 16.5 -7.5t0.5 -24.5q-3 -13 -14 -49.5t-26 -87.5t-32 -110t-34 -118.5t-32 -112.5t-27 -92z" />
    <glyph glyph-name="sterling" unicode="&#xa3;" horiz-adv-x="1116" 
d="M258 250l-23 12q86 39 138.5 94t69.5 117q14 53 6 108t-26 113t-34.5 120t-21.5 128.5t14 139.5q26 100 97.5 177.5t178.5 122t237 44.5q119 0 192.5 -39t105 -104t20.5 -142q-5 -37 -18 -62.5t-32 -38.5t-43 -13q-33 0 -48 23t-8 65l4 94q9 91 -40 138.5t-146 47.5
q-134 0 -226 -79t-132 -220q-20 -75 -16.5 -150.5t14.5 -151t14.5 -150.5t-17.5 -147q-21 -69 -87 -136t-173 -111zM-26 64q14 57 58 105.5t108 78t138 29.5q65 0 122 -25t110 -57.5t106.5 -57.5t111.5 -25q80 0 134.5 37t110.5 130q6 9 12.5 13t14.5 2q7 -1 9 -6t-3 -15
q-34 -79 -71.5 -135t-79 -91t-87 -51.5t-95.5 -16.5q-54 0 -95.5 17.5t-78 55t-78.5 98.5q-49 51 -81.5 71.5t-72.5 20.5q-48 0 -81.5 -36t-59.5 -121q-14 -39 -30.5 -62.5t-36 -33.5t-42.5 -10q-28 0 -40.5 22t-2.5 63zM186 653q2 6 10 11t17 5l251 2l11 -33h-273
q-9 0 -14 4t-2 11zM498 638l-1 31h430q10 0 14 -4.5t2 -11.5q-5 -15 -26 -15h-419z" />
    <glyph glyph-name="currency" unicode="&#xa4;" horiz-adv-x="1096" 
d="M541 397q90 0 170 39t139 108t83 160q25 92 3.5 160.5t-81 107t-148.5 38.5q-87 0 -166.5 -38.5t-138 -106.5t-83.5 -158q-24 -91 -3.5 -161t79.5 -109.5t146 -39.5zM555 435q-115 0 -166.5 77t-20.5 193q21 78 69.5 138.5t116 95t143.5 34.5q115 0 167 -75.5t21 -192.5
q-21 -77 -69.5 -138.5t-116 -96.5t-144.5 -35zM927 281q11 8 13 17.5t-5 17.5l-139 196l-47 -31l139 -196q8 -8 18.5 -9.5t20.5 5.5zM322 1125q-11 -8 -12 -17.5t5 -18.5l139 -195l47 32l-140 195q-6 7 -17 9t-22 -5zM99 283q6 -7 18 -6.5t24 9.5l241 195l-29 32l-241 -196
q-11 -8 -15.5 -17.5t2.5 -16.5zM1151 1124q-6 7 -18 6t-24 -9l-239 -195l28 -32l239 195q12 8 16.5 18t-2.5 17z" />
    <glyph glyph-name="yen" unicode="&#xa5;" horiz-adv-x="1106" 
d="M603 471l430 727q53 87 95 136t79 70t73 21t53.5 -16t16.5 -38q0 -33 -27 -55t-83 -34q-36 -7 -69.5 -24.5t-65 -49.5t-65.5 -84l-389 -647q-13 -20 -19.5 -35t-11.5 -32l-76 -299q-7 -27 0.5 -43t37.5 -21l71 -9q15 -3 21 -7.5t6 -10.5q0 -10 -9.5 -15t-27.5 -5h-403
q-12 0 -18 5t-6 13q0 15 29 21l75 8q36 5 56.5 23t29.5 48l79 296q7 22 6 42t-5 43q-3 21 -11.5 81t-20 142.5t-23.5 172.5t-23 172t-19.5 141t-12.5 78q-6 35 -31 53t-77 22q-14 2 -21.5 7t-7.5 13q0 9 7.5 14t20.5 5h144q43 0 65 -19t30 -59q4 -21 13 -84t21 -150
t25 -182.5t25.5 -184.5t22 -156t14.5 -95zM95 464q3 7 10 11.5t15 4.5h901q11 0 16.5 -4t2.5 -11q-2 -8 -10 -12.5t-19 -4.5h-902q-18 0 -14 16zM172 761q2 7 9 11.5t16 4.5h345l9 -32h-365q-19 0 -14 16zM787 745l25 32h288q10 0 14.5 -4.5t1.5 -11.5q-2 -8 -9 -12t-17 -4
h-303z" />
    <glyph glyph-name="brokenbar" unicode="&#xa6;" horiz-adv-x="558" 
d="M383 714q-4 -18 -12 -25.5t-21 -7.5q-10 0 -14 8t0 25q28 98 53 196.5t48.5 194t44.5 181t41 155.5q8 27 23 42t35 15q21 0 26.5 -15t-2.5 -42q-20 -70 -46.5 -155.5t-56.5 -181t-60.5 -194.5t-58.5 -196zM283 531q6 17 14 24.5t21 7.5q10 0 14 -8t-1 -24
q-28 -98 -53 -197t-48 -194.5t-44.5 -181t-41.5 -155.5q-8 -27 -22.5 -42.5t-35.5 -15.5q-20 0 -26 15.5t2 42.5q20 70 46.5 155.5t56.5 181t60.5 194.5t57.5 197z" />
    <glyph glyph-name="section" unicode="&#xa7;" horiz-adv-x="1025" 
d="M356 -368q-62 0 -105 14t-71 32t-44 32t-24 14q-7 0 -16.5 -13.5t-20 -30.5t-20 -30t-15.5 -13q-9 0 -13.5 4.5t-3.5 13.5l14 281q1 9 6 15.5t14 8.5q10 2 15.5 -1.5t8.5 -13.5q11 -100 50 -160.5t99 -88t132 -27.5q98 0 172 55t100 148q25 87 -18 164.5t-192 145.5
q-110 49 -168.5 105t-72 122t6.5 143q19 71 65.5 128t112.5 97t144 57l17 -27q-81 -18 -141.5 -75t-82.5 -139q-24 -92 18 -168.5t186 -143.5q116 -53 175.5 -111.5t73.5 -122.5t-6 -135q-21 -79 -76.5 -142.5t-137 -100.5t-182.5 -37zM789 1389q-113 0 -195.5 -64
t-112.5 -174q-24 -92 23.5 -171t173.5 -139q113 -52 174 -110.5t78.5 -123.5t-2.5 -138q-18 -71 -68.5 -130t-123.5 -96.5t-161 -46.5l1 32q88 11 151 66t86 135q25 85 -19.5 163t-196.5 149q-155 71 -209 171t-20 219q21 85 82.5 150.5t151 103.5t195.5 38q110 0 185 -38.5
t113 -100t36 -131.5q-1 -36 -17 -57.5t-42 -21.5q-22 0 -36.5 13.5t-20.5 40.5l-11 62q-12 67 -40 111t-71.5 66t-103.5 22z" />
    <glyph glyph-name="dieresis" unicode="&#xa8;" horiz-adv-x="557" 
d="M27 1017q-36 0 -51.5 24.5t-5.5 61.5q9 37 37.5 61.5t64.5 24.5q37 0 52 -24.5t5 -61.5q-9 -36 -37.5 -61t-64.5 -25zM341 1017q-35 0 -51 24.5t-7 61.5q10 37 39 61.5t64 24.5q37 0 52 -24.5t6 -61.5q-10 -36 -38 -61t-65 -25z" />
    <glyph glyph-name="copyright" unicode="&#xa9;" horiz-adv-x="1605" 
d="M688 -63q156 0 300 54.5t264.5 153.5t207 236t129.5 302q45 176 29 324t-85 256.5t-182.5 168.5t-261.5 60q-160 0 -307 -53.5t-270.5 -151.5t-211.5 -231.5t-130 -294.5q-45 -175 -28.5 -325t87.5 -262t187.5 -174.5t271.5 -62.5zM699 -27q-147 0 -256.5 59
t-175.5 165.5t-80.5 251t29.5 313.5q38 151 120.5 278t197.5 220t253.5 144.5t290.5 51.5q138 0 244 -57.5t171 -162t80 -245.5t-28 -307q-39 -154 -121.5 -283.5t-196.5 -225.5t-248.5 -149t-279.5 -53zM1191 459q-21 -54 -61.5 -102t-96 -84.5t-123 -57.5t-142.5 -21
q-114 0 -194 60t-111 171.5t2 268.5q23 109 76.5 206t130.5 172t169.5 117.5t193.5 42.5q74 0 116.5 -20t63 -40t28.5 -20q9 0 20 17.5t22.5 35t19.5 17.5q7 0 10.5 -4t3.5 -15l4 -267q1 -10 -5.5 -16.5t-15.5 -8.5q-8 0 -14.5 5.5t-8.5 14.5q-23 108 -57 165t-80 79
t-104 22q-76 0 -145.5 -38.5t-128 -106.5t-101 -157t-62.5 -190q-32 -152 -10 -250t85 -145.5t153 -47.5q83 0 163 41t136 134q18 12 28 21.5t16.5 14.5t12.5 4q12 -3 6 -18z" />
    <glyph glyph-name="ordfeminine" unicode="&#xaa;" horiz-adv-x="901" 
d="M785 834q-19 -77 -15.5 -103.5t31.5 -26.5q19 0 40 13t51 48q9 7 14.5 9.5t10.5 -0.5q5 -2 5.5 -8t-4.5 -16q-32 -53 -80 -83t-103 -30q-37 0 -57.5 18.5t-20.5 57.5q0 18 4.5 45t15.5 68.5t28.5 102.5t44.5 147l9 -11q-55 -131 -120.5 -227t-138.5 -148.5t-151 -52.5
q-76 0 -117.5 59.5t-24.5 194.5q10 104 61.5 199.5t132.5 170t180 118t204 43.5q54 0 90 -7.5t55 -19t18 -24.5q0 -11 -7 -18.5t-15 -14.5t-11 -17zM322 883q-14 -101 11.5 -146t70.5 -45q41 0 87 29.5t92.5 85t89.5 133t78.5 173.5t59.5 208q5 31 -6.5 47.5t-42.5 16.5
q-76 0 -149.5 -41t-135 -111.5t-102.5 -160.5t-53 -189z" />
    <glyph glyph-name="guillemetleft" unicode="&#xab;" horiz-adv-x="938" 
d="M117 500q3 10 14.5 18t42.5 26q92 49 163.5 89.5t126 76t96.5 68.5q9 7 18 9.5t13 -1.5q5 -5 2 -12t-12 -16q-29 -30 -69 -64.5t-87.5 -72t-98.5 -76.5t-101 -77l8 35q40 -52 77 -109t67.5 -110.5t48.5 -95.5q4 -8 3.5 -14.5t-6.5 -10.5q-7 -4 -13.5 -1t-12.5 10
q-27 41 -62.5 87t-81.5 95t-107 96q-22 18 -27 28.5t-2 21.5zM449 500q3 10 14.5 18t42.5 26q92 49 163.5 89.5t126 76t96.5 68.5q9 7 18 9.5t13 -1.5q5 -5 2 -12t-12 -16q-29 -30 -69 -64.5t-87.5 -72t-98.5 -76.5t-101 -77l8 35q40 -52 77 -109t67.5 -110.5t48.5 -95.5
q4 -8 3.5 -14.5t-6.5 -10.5q-7 -4 -13.5 -1t-12.5 10q-27 41 -62.5 87t-81.5 95t-107 96q-22 18 -27 28.5t-2 21.5z" />
    <glyph glyph-name="logicalnot" unicode="&#xac;" horiz-adv-x="1010" 
d="M221 816q4 11 14 16.5t22 5.5h689q14 0 20.5 -6.5t2.5 -19.5l-78 -306q-3 -9 -12 -15.5t-21 -6.5q-11 0 -16 7t-3 16l77 302l7 -14h-680q-12 0 -18.5 5.5t-3.5 15.5z" />
    <glyph glyph-name="hyphensoft" unicode="&#xad;" horiz-adv-x="637" 
d="M572 541q26 0 15 -20l-27 -56q-5 -9 -12 -12.5t-19 -3.5h-450q-12 0 -15.5 6t1.5 16l27 54q5 9 11 12.5t17 3.5h452z" />
    <glyph glyph-name="registered" unicode="&#xae;" horiz-adv-x="1303" 
d="M611 294q129 0 248 43t218.5 121.5t170.5 184.5t103 230q34 134 18 246t-75.5 195t-155 128.5t-220.5 45.5q-127 0 -245 -41.5t-216.5 -117.5t-168.5 -179t-102 -227q-35 -135 -20 -249.5t72 -200t152 -132.5t221 -47zM622 326q-156 0 -258.5 79t-138.5 214t6 305
q40 156 140.5 275.5t240.5 187.5t295 68q153 0 257.5 -75.5t144.5 -206.5t-2 -299q-40 -156 -142 -280t-243.5 -196t-299.5 -72zM1074 1018q-17 -74 -84 -127t-162 -66q-16 -2 -32.5 -4t-33.5 -2q-47 0 -84.5 10.5t-63.5 27.5l14 26q28 -18 62.5 -26.5t69.5 -8.5
q89 0 145 49t72 126q22 99 -20 155.5t-136 56.5q-41 0 -61 -11t-27 -35q-10 -39 -24.5 -96.5t-31 -124t-33 -133.5t-31 -125.5t-24.5 -99.5q-4 -16 0.5 -25.5t16.5 -12.5l44 -7q7 -1 10 -4t1 -9q-2 -11 -19 -11h-232q-18 0 -15 11q1 7 6.5 9.5t14.5 4.5l43 9q13 3 21.5 10.5
t12.5 24.5q11 41 26 100.5t31.5 127.5t33.5 135t31 125t23 96q3 16 0.5 24t-13.5 10l-41 8q-16 4 -14 15q4 12 21 12h237q136 0 203.5 -66.5t42.5 -178.5zM761 831l85 14l54 -190q15 -50 28 -65t28 -15q11 0 19.5 5t14.5 15q7 7 14 6q5 -1 6.5 -6t-2.5 -11q-10 -26 -36 -41
t-62 -15q-35 0 -59 24.5t-41 88.5z" />
    <glyph glyph-name="macron" unicode="&#xaf;" horiz-adv-x="581" 
d="M-48 1098q4 17 14 24.5t24 7.5h413q15 0 20.5 -7.5t1.5 -24.5q-5 -17 -14.5 -25t-24.5 -8h-413q-14 0 -19.5 8t-1.5 25z" />
    <glyph glyph-name="degree" unicode="&#xb0;" horiz-adv-x="708" 
d="M589 1421q75 0 124 -36t66.5 -98.5t-5.5 -144.5q-21 -75 -71 -131t-117.5 -87.5t-140.5 -31.5q-110 0 -163.5 77.5t-21.5 196.5q20 72 68.5 130t116 91.5t144.5 33.5zM578 1384q-93 0 -167.5 -62.5t-98.5 -155.5q-28 -104 14.5 -170t129.5 -66q88 0 164 58.5t102 152.5
q28 105 -13 174t-131 69z" />
    <glyph glyph-name="plusminus" unicode="&#xb1;" horiz-adv-x="1018" 
d="M509 470q-11 0 -16 7.5t-1 17.5l180 712q4 9 12 15.5t20 5.5q12 0 16.5 -7t1.5 -17l-181 -712q-3 -10 -12 -16t-20 -6zM219 843q3 10 13.5 15.5t21.5 5.5h718q11 0 17 -5.5t3 -15.5t-13.5 -16t-21.5 -6h-717q-12 0 -18 6t-3 16zM94 216q2 10 12.5 15.5t22.5 5.5h718
q10 0 16 -5.5t3 -15.5t-13 -16t-22 -6h-716q-12 0 -18 6t-3 16z" />
    <glyph glyph-name="twosuperior" unicode="&#xb2;" horiz-adv-x="633" 
d="M264 857l-15 14l151 80q114 59 173.5 120t82.5 149q23 83 -0.5 127t-78.5 44q-61 0 -99 -28.5t-51 -80.5l-13 -48q-8 -31 -27.5 -48t-43.5 -17q-22 0 -31.5 17t-0.5 48q19 69 94.5 125t187.5 56q106 0 148 -56.5t20 -136.5q-20 -76 -89.5 -139.5t-221.5 -138.5zM177 783
q12 47 57.5 79t113.5 32q30 0 57.5 -13t53.5 -30t51.5 -30t51.5 -13q38 0 61.5 18t48.5 61q5 6 9.5 8t9.5 1q14 -1 8 -16q-36 -89 -79 -124t-93 -35q-44 0 -72.5 20.5t-59.5 80.5q-15 21 -28 32.5t-31 11.5t-33 -17t-27 -61q-11 -34 -29 -50t-39 -16q-22 0 -30.5 17t-0.5 44
z" />
    <glyph glyph-name="threesuperior" unicode="&#xb3;" horiz-adv-x="598" 
d="M425 1082l-1 12q7 1 20.5 1h20.5q114 0 163 -52.5t26 -142.5q-21 -84 -101 -133.5t-186 -49.5t-150 46t-28 109q10 34 30.5 53t43.5 19t30 -15.5t1 -41.5l-12 -45q-12 -48 10.5 -74t85.5 -26q58 0 105.5 39t69.5 121q21 79 -9 122.5t-107 43.5h-32q-9 0 -13.5 4t-1.5 10
q1 6 6.5 11t13.5 10l289 235l-3 -19h-284q-23 0 -36 -23l-32 -60q-4 -7 -10 -10.5t-14 -3.5q-7 0 -10 4.5t1 12.5l53 138q5 10 13.5 16.5t21.5 6.5h382q8 0 12.5 -3.5t2.5 -9.5q-2 -5 -8 -10.5t-17 -12.5z" />
    <glyph glyph-name="acute" unicode="&#xb4;" horiz-adv-x="398" 
d="M142 1206q35 43 63.5 66.5t58.5 21.5q27 -2 36.5 -20.5t1.5 -40.5q-8 -27 -33.5 -49t-61.5 -45l-211 -143q-6 -3 -12.5 -3.5t-9.5 3.5q-4 4 -1 9.5t8 11.5z" />
    <glyph glyph-name="mu.math" unicode="&#xb5;" horiz-adv-x="1010" 
d="M124 225l23 -4q-37 -126 -59 -223t-34.5 -169t-21.5 -124t-20 -89q-8 -28 -27.5 -44t-42.5 -16q-25 0 -35 19.5t-1 52.5q11 36 33 87.5t51.5 123t64 167t69.5 219.5zM270 660q16 50 20.5 75t4.5 44q0 15 -7 29.5t-7 33.5q0 26 32.5 44.5t82.5 18.5q42 0 49.5 -27.5
t-12.5 -83.5l-176 -537q-36 -110 -22.5 -151.5t67.5 -41.5q41 0 98.5 30t121 93t122.5 160.5t103 233.5q21 67 32 105t14.5 58.5t3.5 34.5q0 15 -6.5 29.5t-6.5 33.5q0 26 32.5 44.5t82.5 18.5q42 0 49 -27t-15 -84l-194 -560q-35 -101 -28.5 -135.5t39.5 -34.5
q19 0 45 15.5t64 57.5q9 7 16 10t13 0t6 -11t-7 -17q-44 -65 -102 -100.5t-112 -35.5q-44 0 -67 20.5t-23 62.5q0 30 13 76t33.5 101t43 112.5t40.5 109.5l17 -3q-59 -133 -126.5 -225t-137 -148t-135 -81t-121.5 -25q-66 0 -91.5 33t-19 93t34.5 140z" />
    <glyph glyph-name="paragraph" unicode="&#xb6;" horiz-adv-x="1091" 
d="M235 1024q32 115 107.5 199t187 130.5t251.5 46.5h476q11 0 16 -4t2 -12q-1 -7 -8 -11t-19 -7l-91 -15q-25 -5 -40.5 -15.5t-21.5 -29.5l-337 -1210q-6 -21 2.5 -31.5t30.5 -14.5l79 -15q13 -2 18 -6t3 -12q-3 -9 -12 -13t-20 -4h-631q-10 0 -15 4.5t-2 11.5q2 8 9.5 12
t21.5 7l89 14q26 5 42.5 15.5t21.5 29.5l172 615q-15 -3 -37 -8.5t-57 -5.5q-152 0 -216.5 87t-21.5 242zM661 93l338 1213q7 21 -7.5 35t-61.5 14q-46 0 -70.5 -14.5t-31.5 -34.5l-338 -1213q-6 -19 10.5 -33t64.5 -14q46 0 68 13t28 34z" />
    <glyph glyph-name="periodcentered" unicode="&#xb7;" horiz-adv-x="446" 
d="M186 394q-40 0 -60 25.5t-14 63.5q5 28 22.5 51.5t44.5 37t58 13.5q41 0 60.5 -26t12.5 -63q-4 -28 -21 -51t-43.5 -37t-59.5 -14z" />
    <glyph glyph-name="cedilla" unicode="&#xb8;" horiz-adv-x="467" 
d="M332 6h36l-108 -142l-16 9q12 1 23.5 1h27.5q82 0 120 -39t22 -99q-17 -66 -75.5 -107t-137.5 -41q-66 0 -103.5 29.5t-33.5 72.5q2 10 8 15t13 6t11 -3t5 -11q1 -40 29.5 -57.5t66.5 -17.5q90 0 118 111q12 49 -4.5 79.5t-66.5 30.5h-33q-13 0 -14 8.5t8 19.5z" />
    <glyph glyph-name="onesuperior" unicode="&#xb9;" horiz-adv-x="492" 
d="M346 1344l76 -2q13 0 17 -5.5t-1 -21.5l-136 -517q-5 -16 -15 -24.5t-24 -11.5l-80 -8q-17 -3 -20 -14q-4 -13 13 -13h309q17 0 21 13q3 10 -10 13l-72 9q-13 3 -17 11.5t0 23.5l162 609q6 18 -12 18q-6 0 -12 -2.5t-12 -8.5q-21 -23 -43 -31t-56 -8l-79 -1q-8 0 -15 -4
t-8 -10q-3 -8 0.5 -11.5t13.5 -3.5z" />
    <glyph glyph-name="ordmasculine" unicode="&#xba;" horiz-adv-x="884" 
d="M690 1420q92 -5 151.5 -52.5t81.5 -131.5t2 -198q-23 -122 -91.5 -213t-164 -141t-200.5 -47q-86 2 -149 45t-90 126t-5 202q23 122 93 217t167.5 147t204.5 46zM483 669q65 -2 129.5 41.5t116 128.5t75.5 208q22 114 11.5 188.5t-46.5 111.5t-90 40q-69 5 -137 -41
t-121 -134.5t-77 -211.5q-23 -119 -10.5 -191.5t52.5 -105.5t97 -34z" />
    <glyph glyph-name="guillemetright" unicode="&#xbb;" horiz-adv-x="940" 
d="M855 455q-3 -10 -14.5 -18t-42.5 -26q-92 -49 -163.5 -89.5t-126 -76t-96.5 -68.5q-9 -7 -18 -9.5t-13 1.5q-5 5 -2 12t12 16q29 30 69 64.5t87.5 72t98.5 76.5t101 77l-8 -35q-40 52 -77 109t-67.5 110.5t-48.5 95.5q-4 8 -3.5 14.5t6.5 10.5q7 4 13.5 1t12.5 -10
q27 -41 62.5 -87t81.5 -95t107 -96q22 -18 27 -28.5t2 -21.5zM523 455q-3 -10 -14.5 -18t-42.5 -26q-92 -49 -163.5 -89.5t-126 -76t-96.5 -68.5q-9 -7 -18 -9.5t-13 1.5q-5 5 -2 12t12 16q29 30 69 64.5t87.5 72t98.5 76.5t101 77l-8 -35q-40 52 -77 109t-67.5 110.5
t-48.5 95.5q-4 8 -3.5 14.5t6.5 10.5q7 4 13.5 1t12.5 -10q27 -41 62.5 -87t81.5 -95t107 -96q22 -18 27 -28.5t2 -21.5z" />
    <glyph glyph-name="onequarter" unicode="&#xbc;" horiz-adv-x="1232" 
d="M383 1344l76 -2q13 0 17 -5.5t-1 -21.5l-136 -517q-5 -16 -15 -24.5t-24 -11.5l-80 -8q-17 -3 -20 -14q-4 -13 13 -13h309q17 0 21 13q3 10 -10 13l-72 9q-13 3 -17 11.5t0 23.5l162 609q6 18 -12 18q-6 0 -12 -2.5t-12 -8.5q-21 -23 -43 -31t-56 -8l-79 -1q-8 0 -15 -4
t-8 -10q-3 -8 0.5 -11.5t13.5 -3.5zM943 347q3 9 7 14.5t10 9.5l85 66q7 6 11 7t8 1q9 0 6 -10l-97 -372q-4 -12 0.5 -19t17.5 -10l51 -8q15 -3 12 -14q-5 -12 -21 -12h-263q-18 0 -14 12t20 14l57 8q13 2 22.5 9t12.5 20zM904 440q26 21 42.5 39.5t21.5 39.5t0 38.5t-10 36
t1 41.5q7 26 29 43t55 17q30 0 45 -25t3 -68q-10 -39 -40 -74.5t-88 -81.5l-350 -271l-2 17h504q7 0 10.5 -3t2.5 -10q-6 -15 -23 -15h-510q-9 0 -12.5 4t-1.5 10q1 4 5 8.5t13 9.5zM765 750q-8 -10 -14.5 -12t-13.5 2q-5 3 -5 9t8 16q23 28 67.5 82t100 121t113 137
t108 131t85.5 102.5t43 51.5q15 16 27 20t24 -4q12 -7 11 -19t-13 -27q-8 -9 -43.5 -49.5t-89 -100.5t-114 -128t-119 -134t-105 -118.5t-70.5 -79.5zM633 642q8 10 15 12t13 -2q7 -3 6.5 -9.5t-9.5 -16.5q-21 -27 -65 -80.5t-99.5 -120.5t-114 -137.5t-110 -132.5
t-87.5 -105t-45 -54q-14 -16 -27.5 -19.5t-25.5 3.5q-11 7 -9.5 19.5t14.5 27.5q9 11 46 52.5t90.5 102.5t114.5 129.5t119.5 134t105 117.5t68.5 79z" />
    <glyph glyph-name="onehalf" unicode="&#xbd;" horiz-adv-x="1279" 
d="M387 1344l76 -2q13 0 17 -5.5t-1 -21.5l-136 -517q-5 -16 -15 -24.5t-24 -11.5l-80 -8q-17 -3 -20 -14q-4 -13 13 -13h309q17 0 21 13q3 10 -10 13l-72 9q-13 3 -17 11.5t0 23.5l162 609q6 18 -12 18q-6 0 -12 -2.5t-12 -8.5q-21 -23 -43 -31t-56 -8l-79 -1q-8 0 -15 -4
t-8 -10q-3 -8 0.5 -11.5t13.5 -3.5zM766 750q-8 -10 -14.5 -12t-13.5 2q-5 3 -5 9t8 16q23 28 67.5 82t100 121t113 137t108 131t85.5 102.5t43 51.5q15 16 27 20t24 -4q12 -7 11 -19t-13 -27q-8 -9 -43.5 -49.5t-89 -100.5t-114 -128t-119 -134t-105 -118.5t-70.5 -79.5z
M634 642q8 10 15 12t13 -2q7 -3 6.5 -9.5t-9.5 -16.5q-21 -27 -65 -80.5t-99.5 -120.5t-114 -137.5t-110 -132.5t-87.5 -105t-45 -54q-14 -16 -27.5 -19.5t-25.5 3.5q-11 7 -9.5 19.5t14.5 27.5q9 11 46 52.5t90.5 102.5t114.5 129.5t119.5 134t105 117.5t68.5 79zM724 121
l-15 14l151 80q114 59 173.5 120t82.5 149q23 83 -0.5 127t-78.5 44q-61 0 -99 -28.5t-51 -80.5l-13 -48q-8 -31 -27.5 -48t-43.5 -17q-22 0 -31.5 17t-0.5 48q19 69 94.5 125t187.5 56q106 0 148 -56.5t20 -136.5q-20 -76 -89.5 -139.5t-221.5 -138.5zM637 47
q12 47 57.5 79t113.5 32q30 0 57.5 -13t53.5 -30t51.5 -30t51.5 -13q38 0 61.5 18t48.5 61q5 6 9.5 8t9.5 1q14 -1 8 -16q-36 -89 -79 -124t-93 -35q-44 0 -72.5 20.5t-59.5 80.5q-15 21 -28 32.5t-31 11.5t-33 -17t-27 -61q-11 -34 -29 -50t-39 -16q-22 0 -30.5 17t-0.5 44
z" />
    <glyph glyph-name="threequarters" unicode="&#xbe;" horiz-adv-x="1284" 
d="M982 347q3 9 7 14.5t10 9.5l85 66q7 6 11 7t8 1q9 0 6 -10l-97 -372q-4 -12 0.5 -19t17.5 -10l51 -8q15 -3 12 -14q-5 -12 -21 -12h-263q-18 0 -14 12t20 14l57 8q13 2 22.5 9t12.5 20zM943 440q26 21 42.5 39.5t21.5 39.5t0 38.5t-10 36t1 41.5q7 26 29 43t55 17
q30 0 45 -25t3 -68q-10 -39 -40 -74.5t-88 -81.5l-350 -271l-2 17h504q7 0 10.5 -3t2.5 -10q-6 -15 -23 -15h-510q-9 0 -12.5 4t-1.5 10q1 4 5 8.5t13 9.5zM807 750q-8 -10 -14.5 -12t-13.5 2q-5 3 -5 9t8 16q23 28 67.5 82t100 121t113 137t108 131t85.5 102.5t43 51.5
q15 16 27 20t24 -4q12 -7 11 -19t-13 -27q-8 -9 -43.5 -49.5t-89 -100.5t-114 -128t-119 -134t-105 -118.5t-70.5 -79.5zM675 642q8 10 15 12t13 -2q7 -3 6.5 -9.5t-9.5 -16.5q-21 -27 -65 -80.5t-99.5 -120.5t-114 -137.5t-110 -132.5t-87.5 -105t-45 -54
q-14 -16 -27.5 -19.5t-25.5 3.5q-11 7 -9.5 19.5t14.5 27.5q9 11 46 52.5t90.5 102.5t114.5 129.5t119.5 134t105 117.5t68.5 79zM455 1082l-1 12q7 1 20.5 1h20.5q114 0 163 -52.5t26 -142.5q-21 -84 -101 -133.5t-186 -49.5t-150 46t-28 109q10 34 30.5 53t43.5 19
t30 -15.5t1 -41.5l-12 -45q-12 -48 10.5 -74t85.5 -26q58 0 105.5 39t69.5 121q21 79 -9 122.5t-107 43.5h-32q-9 0 -13.5 4t-1.5 10q1 6 6.5 11t13.5 10l289 235l-3 -19h-284q-23 0 -36 -23l-32 -60q-4 -7 -10 -10.5t-14 -3.5q-7 0 -10 4.5t1 12.5l53 138q5 10 13.5 16.5
t21.5 6.5h382q8 0 12.5 -3.5t2.5 -9.5q-2 -5 -8 -10.5t-17 -12.5z" />
    <glyph glyph-name="questiondown" unicode="&#xbf;" horiz-adv-x="860" 
d="M589 510l55 221q2 14 -2 21t-14 7q-9 0 -17 -6.5t-14 -20.5l-63 -211q-9 -27 -23.5 -44t-45.5 -28l-56 -21q-181 -73 -283.5 -180.5t-140.5 -244.5q-29 -100 -5.5 -174t93.5 -114.5t182 -40.5q105 0 199.5 40.5t160 106t86.5 141.5q11 38 -2.5 62t-45.5 24
q-33 0 -59 -20.5t-37 -58.5l-19 -68q-25 -84 -93 -136t-175 -52q-66 0 -108 31t-53 93t16 157q39 139 115.5 236t219.5 166l60 28q32 15 46.5 35.5t22.5 50.5zM736 1155q40 0 60 -25.5t14 -63.5q-5 -28 -22.5 -51.5t-44.5 -37t-58 -13.5q-41 0 -60.5 26t-12.5 63q4 28 21 51
t43.5 37t59.5 14z" />
    <glyph glyph-name="Agrave" unicode="&#xc0;" horiz-adv-x="1153" 
d="M176 199q-40 -66 -26.5 -106.5t58.5 -48.5l49 -6q12 -2 17 -7t5 -12q0 -9 -7.5 -14t-21.5 -5h-295q-17 0 -24.5 5t-7.5 14t8 14.5t25 10.5q40 7 80 44t85 112l626 988q84 122 161.5 176t151.5 54q18 0 26 -5t7 -13q0 -8 -5.5 -13t-17.5 -7q-38 -3 -62 -33.5t-28 -87.5
q0 -24 -3 -91t-7.5 -163t-9.5 -206t-10 -220.5t-9 -207.5t-6.5 -166t-2.5 -96q0 -20 8 -34t30 -23.5t61 -17.5q19 -3 19 -17q0 -7 -6.5 -12t-20.5 -5h-379q-9 0 -15 4.5t-6 11.5t5.5 11.5t13.5 6.5l106 19q26 5 37 18.5t13 38.5q1 28 5 98.5t9 167.5t10.5 208.5t11 222.5
t10.5 208.5t8 168t3 98.5l22 -7q-9 -6 -22.5 -19t-32 -35.5t-44.5 -56.5zM311 460l17 34h542l-2 -34h-557zM915 1670l102 -164q2 -5 2.5 -10.5t-4.5 -10.5q-4 -4 -11 -4t-11 3l-168 106q-29 18 -48 36.5t-17 46.5q1 20 18.5 39.5t44.5 24.5q30 6 50.5 -13t41.5 -54z" />
    <glyph glyph-name="Aacute" unicode="&#xc1;" horiz-adv-x="1153" 
d="M177 199q-40 -66 -26.5 -106.5t58.5 -48.5l49 -6q12 -2 17 -7t5 -12q0 -9 -7.5 -14t-21.5 -5h-295q-17 0 -24.5 5t-7.5 14t8 14.5t25 10.5q40 7 80 44t85 112l626 988q84 122 161.5 176t151.5 54q18 0 26 -5t7 -13q0 -8 -5.5 -13t-17.5 -7q-38 -3 -62 -33.5t-28 -87.5
q0 -24 -3 -91t-7.5 -163t-9.5 -206t-10 -220.5t-9 -207.5t-6.5 -166t-2.5 -96q0 -20 8 -34t30 -23.5t61 -17.5q19 -3 19 -17q0 -7 -6.5 -12t-20.5 -5h-379q-9 0 -15 4.5t-6 11.5t5.5 11.5t13.5 6.5l106 19q26 5 37 18.5t13 38.5q1 28 5 98.5t9 167.5t10.5 208.5t11 222.5
t10.5 208.5t8 168t3 98.5l22 -7q-9 -6 -22.5 -19t-32 -35.5t-44.5 -56.5zM312 460l17 34h542l-2 -34h-557zM1118 1670q40 35 70 54t58 13q24 -5 30.5 -24.5t-3.5 -39.5q-12 -28 -40.5 -46.5t-66.5 -36.5l-222 -106q-6 -3 -12.5 -3t-9.5 4q-3 5 1 10.5t10 10.5z" />
    <glyph glyph-name="Acircumflex" unicode="&#xc2;" horiz-adv-x="1153" 
d="M176 199q-40 -66 -26.5 -106.5t58.5 -48.5l49 -6q12 -2 17 -7t5 -12q0 -9 -7.5 -14t-21.5 -5h-295q-17 0 -24.5 5t-7.5 14t8 14.5t25 10.5q40 7 80 44t85 112l626 988q84 122 161.5 176t151.5 54q18 0 26 -5t7 -13q0 -8 -5.5 -13t-17.5 -7q-38 -3 -62 -33.5t-28 -87.5
q0 -24 -3 -91t-7.5 -163t-9.5 -206t-10 -220.5t-9 -207.5t-6.5 -166t-2.5 -96q0 -20 8 -34t30 -23.5t61 -17.5q19 -3 19 -17q0 -7 -6.5 -12t-20.5 -5h-379q-9 0 -15 4.5t-6 11.5t5.5 11.5t13.5 6.5l106 19q26 5 37 18.5t13 38.5q1 28 5 98.5t9 167.5t10.5 208.5t11 222.5
t10.5 208.5t8 168t3 98.5l22 -7q-9 -6 -22.5 -19t-32 -35.5t-44.5 -56.5zM311 460l17 34h542l-2 -34h-557zM993 1637h-41l188 -145q15 -11 26 -4q6 3 8 9.5t-3 14.5l-132 201q-9 13 -17 20.5t-21 7.5t-25 -7.5t-28 -20.5l-236 -201q-9 -8 -10.5 -14.5t1.5 -9.5q5 -4 12 -2.5
t16 6.5z" />
    <glyph glyph-name="Atilde" unicode="&#xc3;" horiz-adv-x="1153" 
d="M176 199q-40 -66 -26.5 -106.5t58.5 -48.5l49 -6q12 -2 17 -7t5 -12q0 -9 -7.5 -14t-21.5 -5h-295q-17 0 -24.5 5t-7.5 14t8 14.5t25 10.5q40 7 80 44t85 112l626 988q84 122 161.5 176t151.5 54q18 0 26 -5t7 -13q0 -8 -5.5 -13t-17.5 -7q-38 -3 -62 -33.5t-28 -87.5
q0 -24 -3 -91t-7.5 -163t-9.5 -206t-10 -220.5t-9 -207.5t-6.5 -166t-2.5 -96q0 -20 8 -34t30 -23.5t61 -17.5q19 -3 19 -17q0 -7 -6.5 -12t-20.5 -5h-379q-9 0 -15 4.5t-6 11.5t5.5 11.5t13.5 6.5l106 19q26 5 37 18.5t13 38.5q1 28 5 98.5t9 167.5t10.5 208.5t11 222.5
t10.5 208.5t8 168t3 98.5l22 -7q-9 -6 -22.5 -19t-32 -35.5t-44.5 -56.5zM311 460l17 34h542l-2 -34h-557zM1044 1506q-37 0 -63.5 15t-48.5 34.5t-44.5 35t-51.5 15.5q-61 0 -86 -88q-8 -20 -24 -20q-18 0 -11 24q22 86 65 128.5t103 42.5q37 0 63.5 -15t48.5 -34.5
t44.5 -34.5t51.5 -15q62 0 86 86q7 21 24 21q19 0 11 -24q-22 -86 -65 -128.5t-103 -42.5z" />
    <glyph glyph-name="Adieresis" unicode="&#xc4;" horiz-adv-x="1153" 
d="M176 199q-40 -66 -26.5 -106.5t58.5 -48.5l49 -6q12 -2 17 -7t5 -12q0 -9 -7.5 -14t-21.5 -5h-295q-17 0 -24.5 5t-7.5 14t8 14.5t25 10.5q40 7 80 44t85 112l626 988q84 122 161.5 176t151.5 54q18 0 26 -5t7 -13q0 -8 -5.5 -13t-17.5 -7q-38 -3 -62 -33.5t-28 -87.5
q0 -24 -3 -91t-7.5 -163t-9.5 -206t-10 -220.5t-9 -207.5t-6.5 -166t-2.5 -96q0 -20 8 -34t30 -23.5t61 -17.5q19 -3 19 -17q0 -7 -6.5 -12t-20.5 -5h-379q-9 0 -15 4.5t-6 11.5t5.5 11.5t13.5 6.5l106 19q26 5 37 18.5t13 38.5q1 28 5 98.5t9 167.5t10.5 208.5t11 222.5
t10.5 208.5t8 168t3 98.5l22 -7q-9 -6 -22.5 -19t-32 -35.5t-44.5 -56.5zM311 460l17 34h542l-2 -34h-557zM778 1510q-36 0 -52 24.5t-7 60.5q10 37 39 61t65 24q37 0 52.5 -24t5.5 -61q-9 -36 -38 -60.5t-65 -24.5zM1094 1510q-36 0 -52 24.5t-7 61.5q10 36 39 60t65 24
q37 0 53 -24t6 -61q-9 -36 -38 -60.5t-66 -24.5z" />
    <glyph glyph-name="Aring" unicode="&#xc5;" horiz-adv-x="1153" 
d="M176 199q-40 -66 -26.5 -106.5t58.5 -48.5l49 -6q12 -2 17 -7t5 -12q0 -9 -7.5 -14t-21.5 -5h-295q-17 0 -24.5 5t-7.5 14t8 14.5t25 10.5q40 7 80 44t85 112l626 988q84 122 161.5 176t151.5 54q18 0 26 -5t7 -13q0 -8 -5.5 -13t-17.5 -7q-38 -3 -62 -33.5t-28 -87.5
q0 -24 -3 -91t-7.5 -163t-9.5 -206t-10 -220.5t-9 -207.5t-6.5 -166t-2.5 -96q0 -20 8 -34t30 -23.5t61 -17.5q19 -3 19 -17q0 -7 -6.5 -12t-20.5 -5h-379q-9 0 -15 4.5t-6 11.5t5.5 11.5t13.5 6.5l106 19q26 5 37 18.5t13 38.5q1 28 5 98.5t9 167.5t10.5 208.5t11 222.5
t10.5 208.5t8 168t3 98.5l22 -7q-9 -6 -22.5 -19t-32 -35.5t-44.5 -56.5zM311 460l17 34h542l-2 -34h-557zM936 1478q-70 0 -107.5 45t-20.5 112q17 66 78 110.5t131 44.5q71 0 108 -44.5t20 -110.5q-17 -67 -78 -112t-131 -45zM1007 1748q-42 0 -79.5 -31.5t-50.5 -81.5
t8 -82.5t63 -32.5t79 32.5t50 82.5q12 50 -8.5 81.5t-61.5 31.5z" />
    <glyph glyph-name="AE" unicode="&#xc6;" horiz-adv-x="1810" 
d="M1233 1400l-17 -39l-65 1l-1011 -1212q-39 -47 -33.5 -71.5t42.5 -34.5l57 -11q10 -2 14.5 -5.5t2.5 -11.5q-3 -7 -10 -11.5t-19 -4.5h-291q-11 0 -16 4.5t-2 11.5q2 7 8.5 11t17.5 7l39 11q30 9 60 32t69 71l973 1161q22 25 14.5 38t-40.5 17q-16 4 -22.5 8.5t-4.5 11.5
q3 8 10.5 12t19.5 4h204zM472 586h520l-7 -39h-538zM1077 718h355q51 0 82 32t32 121q2 8 6.5 13t12.5 5q11 0 16.5 -5.5t7.5 -16.5l47 -303q3 -17 -2 -24t-14 -8t-15 3.5t-10 13.5q-25 79 -60 107.5t-98 28.5h-370zM1374 0h-700q-13 0 -19 5t-6 13q1 7 7.5 13t19.5 7l88 13
q25 4 41 16t24 39q15 53 37.5 132t49.5 176t56.5 204t59 216.5t57.5 213t51.5 194t39.5 158.5h532q47 0 74 16.5t48 16.5q12 0 18.5 -6.5t9.5 -22.5l34 -268q3 -16 -2 -24t-14 -9q-11 -1 -19 5.5t-15 22.5q-28 99 -56.5 149.5t-63 69t-81.5 18.5h-335q-20 -71 -45 -162
t-52.5 -193t-56.5 -208.5t-56.5 -209.5t-52 -195t-44 -166t-31.5 -122q-6 -26 1 -44t33.5 -26.5t79.5 -8.5h235q71 0 130 29t109.5 92t95.5 164q11 19 23 19q9 0 13 -6t4 -17q-3 -65 -24.5 -125.5t-56.5 -108.5t-77 -76t-84 -28q-21 0 -37.5 12t-42.5 12z" />
    <glyph glyph-name="Ccedilla" unicode="&#xc7;" horiz-adv-x="1223" 
d="M1123 373q8 -4 8 -15t-9 -28q-56 -114 -138 -192.5t-185.5 -118t-225.5 -39.5q-144 0 -251 73.5t-154 217.5t-14 354q25 159 95 302.5t174.5 255t234 176t274.5 64.5q66 0 111 -16t74 -36.5t45.5 -36t23.5 -15.5q9 0 21 15.5t24.5 35.5t24 35.5t20.5 15.5q10 0 16 -7
t7 -21l10 -329q0 -12 -6.5 -18.5t-16.5 -7.5q-17 -1 -26 23l-28 95q-36 121 -110.5 173.5t-185.5 52.5q-118 0 -221 -60t-186 -165t-139.5 -239.5t-80.5 -283.5q-34 -208 0 -339t118.5 -193t201.5 -62q85 0 167 31t155.5 99.5t132.5 181.5q10 14 20 20t19 1zM614 6h36
l-108 -142l-16 9q12 1 23.5 1h27.5q82 0 120 -39t22 -99q-17 -66 -75.5 -107t-137.5 -41q-66 0 -103.5 29.5t-33.5 72.5q2 10 8 15t13 6t11 -3t5 -11q1 -40 29.5 -57.5t66.5 -17.5q90 0 118 111q12 49 -4.5 79.5t-66.5 30.5h-33q-13 0 -14 8.5t8 19.5z" />
    <glyph glyph-name="Egrave" unicode="&#xc8;" horiz-adv-x="1164" 
d="M430 718h356q50 0 81 32t33 121q1 8 6 13t12 5q10 0 16 -5.5t8 -16.5l47 -303q3 -17 -2 -24t-14 -8t-15 3.5t-11 13.5q-25 79 -59.5 107.5t-97.5 28.5h-370zM727 0h-698q-13 0 -19 5t-6 13q0 7 7 12.5t18 7.5l91 13q26 4 40.5 17t23.5 40q13 50 33.5 125t46 166.5
t53.5 192t56 201.5t53.5 195t45.5 172.5t33 132.5q5 24 -2 38.5t-24 17.5l-90 13q-12 3 -17.5 7.5t-5.5 11.5q0 9 7.5 14t19.5 5h672q47 0 74 16.5t47 16.5q24 0 29 -29l33 -268q4 -16 -1 -24t-14 -9q-12 -1 -19.5 5.5t-14.5 22.5q-28 99 -56.5 149.5t-63 69t-81.5 18.5
h-335q-20 -71 -45.5 -162t-53.5 -193t-57 -208.5t-57 -209.5t-52 -195t-42.5 -166t-29.5 -122q-7 -26 0 -44t33.5 -26.5t79.5 -8.5h235q71 0 130 29t109.5 92t95.5 164q10 19 23 19q17 0 16 -23q-2 -65 -24 -125.5t-56.5 -108.5t-76.5 -76t-84 -28q-20 0 -37 12t-43 12z
M821 1670l102 -164q2 -5 2.5 -10.5t-4.5 -10.5q-4 -4 -11 -4t-11 3l-168 106q-29 18 -48 36.5t-17 46.5q1 20 18.5 39.5t44.5 24.5q30 6 50.5 -13t41.5 -54z" />
    <glyph glyph-name="Eacute" unicode="&#xc9;" horiz-adv-x="1164" 
d="M430 718h356q50 0 81 32t33 121q1 8 6 13t12 5q10 0 16 -5.5t8 -16.5l47 -303q3 -17 -2 -24t-14 -8t-15 3.5t-11 13.5q-25 79 -59.5 107.5t-97.5 28.5h-370zM727 0h-698q-13 0 -19 5t-6 13q0 7 7 12.5t18 7.5l91 13q26 4 40.5 17t23.5 40q13 50 33.5 125t46 166.5
t53.5 192t56 201.5t53.5 195t45.5 172.5t33 132.5q5 24 -2 38.5t-24 17.5l-90 13q-12 3 -17.5 7.5t-5.5 11.5q0 9 7.5 14t19.5 5h672q47 0 74 16.5t47 16.5q24 0 29 -29l33 -268q4 -16 -1 -24t-14 -9q-12 -1 -19.5 5.5t-14.5 22.5q-28 99 -56.5 149.5t-63 69t-81.5 18.5
h-335q-20 -71 -45.5 -162t-53.5 -193t-57 -208.5t-57 -209.5t-52 -195t-42.5 -166t-29.5 -122q-7 -26 0 -44t33.5 -26.5t79.5 -8.5h235q71 0 130 29t109.5 92t95.5 164q10 19 23 19q17 0 16 -23q-2 -65 -24 -125.5t-56.5 -108.5t-76.5 -76t-84 -28q-20 0 -37 12t-43 12z
M1017 1670q40 35 70 54t58 13q24 -5 30.5 -24.5t-3.5 -39.5q-12 -28 -40.5 -46.5t-66.5 -36.5l-222 -106q-6 -3 -12.5 -3t-9.5 4q-3 5 1 10.5t10 10.5z" />
    <glyph glyph-name="Ecircumflex" unicode="&#xca;" horiz-adv-x="1164" 
d="M430 718h356q50 0 81 32t33 121q1 8 6 13t12 5q10 0 16 -5.5t8 -16.5l47 -303q3 -17 -2 -24t-14 -8t-15 3.5t-11 13.5q-25 79 -59.5 107.5t-97.5 28.5h-370zM727 0h-698q-13 0 -19 5t-6 13q0 7 7 12.5t18 7.5l91 13q26 4 40.5 17t23.5 40q13 50 33.5 125t46 166.5
t53.5 192t56 201.5t53.5 195t45.5 172.5t33 132.5q5 24 -2 38.5t-24 17.5l-90 13q-12 3 -17.5 7.5t-5.5 11.5q0 9 7.5 14t19.5 5h672q47 0 74 16.5t47 16.5q24 0 29 -29l33 -268q4 -16 -1 -24t-14 -9q-12 -1 -19.5 5.5t-14.5 22.5q-28 99 -56.5 149.5t-63 69t-81.5 18.5
h-335q-20 -71 -45.5 -162t-53.5 -193t-57 -208.5t-57 -209.5t-52 -195t-42.5 -166t-29.5 -122q-7 -26 0 -44t33.5 -26.5t79.5 -8.5h235q71 0 130 29t109.5 92t95.5 164q10 19 23 19q17 0 16 -23q-2 -65 -24 -125.5t-56.5 -108.5t-76.5 -76t-84 -28q-20 0 -37 12t-43 12z
M894 1637h-41l188 -145q15 -11 26 -4q6 3 8 9.5t-3 14.5l-132 201q-9 13 -17 20.5t-21 7.5t-25 -7.5t-28 -20.5l-236 -201q-9 -8 -10.5 -14.5t1.5 -9.5q5 -4 12 -2.5t16 6.5z" />
    <glyph glyph-name="Edieresis" unicode="&#xcb;" horiz-adv-x="1164" 
d="M430 718h356q50 0 81 32t33 121q1 8 6 13t12 5q10 0 16 -5.5t8 -16.5l47 -303q3 -17 -2 -24t-14 -8t-15 3.5t-11 13.5q-25 79 -59.5 107.5t-97.5 28.5h-370zM727 0h-698q-13 0 -19 5t-6 13q0 7 7 12.5t18 7.5l91 13q26 4 40.5 17t23.5 40q13 50 33.5 125t46 166.5
t53.5 192t56 201.5t53.5 195t45.5 172.5t33 132.5q5 24 -2 38.5t-24 17.5l-90 13q-12 3 -17.5 7.5t-5.5 11.5q0 9 7.5 14t19.5 5h672q47 0 74 16.5t47 16.5q24 0 29 -29l33 -268q4 -16 -1 -24t-14 -9q-12 -1 -19.5 5.5t-14.5 22.5q-28 99 -56.5 149.5t-63 69t-81.5 18.5
h-335q-20 -71 -45.5 -162t-53.5 -193t-57 -208.5t-57 -209.5t-52 -195t-42.5 -166t-29.5 -122q-7 -26 0 -44t33.5 -26.5t79.5 -8.5h235q71 0 130 29t109.5 92t95.5 164q10 19 23 19q17 0 16 -23q-2 -65 -24 -125.5t-56.5 -108.5t-76.5 -76t-84 -28q-20 0 -37 12t-43 12z
M679 1510q-36 0 -52 24.5t-7 60.5q10 37 39 61t65 24q37 0 52.5 -24t5.5 -61q-9 -36 -38 -60.5t-65 -24.5zM995 1510q-36 0 -52 24.5t-7 61.5q10 36 39 60t65 24q37 0 53 -24t6 -61q-9 -36 -38 -60.5t-66 -24.5z" />
    <glyph glyph-name="Igrave" unicode="&#xcc;" horiz-adv-x="671" 
d="M328 112q-6 -27 0.5 -44t30.5 -20l87 -11q13 -2 18.5 -7t5.5 -13t-8 -12.5t-21 -4.5h-409q-15 0 -21 5t-6 12q0 8 7.5 13.5t20.5 7.5l85 10q27 4 42.5 19.5t25.5 43.5q14 52 35 127.5t46.5 167.5t53.5 192t55 200t51.5 193t44 171t31.5 133q5 24 -2.5 37t-29.5 17l-86 13
q-16 4 -21 8.5t-5 12.5t9.5 12.5t26.5 4.5h407q13 0 18 -3.5t5 -10.5q0 -9 -6.5 -14t-23.5 -8l-93 -18q-23 -4 -37 -15.5t-21 -36.5q-16 -56 -38 -135.5t-48 -174.5t-54 -196.5t-55 -202t-50.5 -191t-42 -163.5t-28.5 -119zM588 1670l102 -164q2 -5 2.5 -10.5t-4.5 -10.5
q-4 -4 -11 -4t-11 3l-168 106q-29 18 -48 36.5t-17 46.5q1 20 18.5 39.5t44.5 24.5q30 6 50.5 -13t41.5 -54z" />
    <glyph glyph-name="Iacute" unicode="&#xcd;" horiz-adv-x="671" 
d="M328 112q-6 -27 0.5 -44t30.5 -20l87 -11q13 -2 18.5 -7t5.5 -13t-8 -12.5t-21 -4.5h-409q-15 0 -21 5t-6 12q0 8 7.5 13.5t20.5 7.5l85 10q27 4 42.5 19.5t25.5 43.5q14 52 35 127.5t46.5 167.5t53.5 192t55 200t51.5 193t44 171t31.5 133q5 24 -2.5 37t-29.5 17l-86 13
q-16 4 -21 8.5t-5 12.5t9.5 12.5t26.5 4.5h407q13 0 18 -3.5t5 -10.5q0 -9 -6.5 -14t-23.5 -8l-93 -18q-23 -4 -37 -15.5t-21 -36.5q-16 -56 -38 -135.5t-48 -174.5t-54 -196.5t-55 -202t-50.5 -191t-42 -163.5t-28.5 -119zM787 1670q40 35 70 54t58 13q24 -5 30.5 -24.5
t-3.5 -39.5q-12 -28 -40.5 -46.5t-66.5 -36.5l-222 -106q-6 -3 -12.5 -3t-9.5 4q-3 5 1 10.5t10 10.5z" />
    <glyph glyph-name="Icircumflex" unicode="&#xce;" horiz-adv-x="671" 
d="M328 112q-6 -27 0.5 -44t30.5 -20l87 -11q13 -2 18.5 -7t5.5 -13t-8 -12.5t-21 -4.5h-409q-15 0 -21 5t-6 12q0 8 7.5 13.5t20.5 7.5l85 10q27 4 42.5 19.5t25.5 43.5q14 52 35 127.5t46.5 167.5t53.5 192t55 200t51.5 193t44 171t31.5 133q5 24 -2.5 37t-29.5 17l-86 13
q-16 4 -21 8.5t-5 12.5t9.5 12.5t26.5 4.5h407q13 0 18 -3.5t5 -10.5q0 -9 -6.5 -14t-23.5 -8l-93 -18q-23 -4 -37 -15.5t-21 -36.5q-16 -56 -38 -135.5t-48 -174.5t-54 -196.5t-55 -202t-50.5 -191t-42 -163.5t-28.5 -119zM664 1637h-41l188 -145q15 -11 26 -4q6 3 8 9.5
t-3 14.5l-132 201q-9 13 -17 20.5t-21 7.5t-25 -7.5t-28 -20.5l-236 -201q-9 -8 -10.5 -14.5t1.5 -9.5q5 -4 12 -2.5t16 6.5z" />
    <glyph glyph-name="Idieresis" unicode="&#xcf;" horiz-adv-x="671" 
d="M328 112q-6 -27 0.5 -44t30.5 -20l87 -11q13 -2 18.5 -7t5.5 -13t-8 -12.5t-21 -4.5h-409q-15 0 -21 5t-6 12q0 8 7.5 13.5t20.5 7.5l85 10q27 4 42.5 19.5t25.5 43.5q14 52 35 127.5t46.5 167.5t53.5 192t55 200t51.5 193t44 171t31.5 133q5 24 -2.5 37t-29.5 17l-86 13
q-16 4 -21 8.5t-5 12.5t9.5 12.5t26.5 4.5h407q13 0 18 -3.5t5 -10.5q0 -9 -6.5 -14t-23.5 -8l-93 -18q-23 -4 -37 -15.5t-21 -36.5q-16 -56 -38 -135.5t-48 -174.5t-54 -196.5t-55 -202t-50.5 -191t-42 -163.5t-28.5 -119zM449 1510q-36 0 -52 24.5t-7 60.5q10 37 39 61
t65 24q37 0 52.5 -24t5.5 -61q-9 -36 -38 -60.5t-65 -24.5zM765 1510q-36 0 -52 24.5t-7 61.5q10 36 39 60t65 24q37 0 53 -24t6 -61q-9 -36 -38 -60.5t-66 -24.5z" />
    <glyph glyph-name="Eth" unicode="&#xd0;" horiz-adv-x="1384" 
d="M106 704q2 8 8.5 12.5t15.5 4.5h646q10 0 13 -4.5t0 -12.5q-2 -7 -8 -11.5t-16 -4.5h-646q-9 0 -12.5 4.5t-0.5 11.5zM7 17q0 8 7 13t23 8l76 9q19 3 33.5 10.5t25 23t19.5 40.5q15 59 36 136.5t45.5 167t51 185t53 191.5t50.5 185.5t44 167t33 135.5q8 29 0 42.5
t-36 17.5l-76 13q-19 4 -25.5 7.5t-6.5 12.5t7.5 13.5t23.5 4.5h456q127 0 233 -45t179 -131t102 -210.5t4 -282.5q-26 -165 -101.5 -299.5t-190.5 -231t-262 -148.5t-317 -52h-463q-13 0 -18.5 5t-5.5 12zM502 39q134 0 252 48t213 139.5t160 220t91 290.5
q26 156 5.5 273.5t-75.5 196t-134 118t-171 39.5h-124q-25 0 -42 -14.5t-27 -44.5q-15 -61 -36.5 -140t-46.5 -170t-52.5 -188.5t-54 -194t-51 -187t-44.5 -168t-33 -134.5q-8 -42 5 -63t50 -21h115z" />
    <glyph glyph-name="Ntilde" unicode="&#xd1;" horiz-adv-x="1294" 
d="M235 193l268 965l-36 -11q42 -108 88 -219.5t91.5 -222.5t88 -215t79 -196t63.5 -167q12 -27 15.5 -44t3.5 -39q0 -21 8.5 -32.5t27.5 -11.5h113q20 0 27 11t-1 31l-43 118q-10 27 -10 43t5 33l215 853q12 46 31.5 79t47.5 57t65 41q49 23 71 46.5t22 54.5q1 25 -16.5 41
t-46.5 16q-57 0 -108 -53.5t-82 -170.5l-259 -1013l39 12q-29 77 -65 162t-76.5 178.5t-83 192t-85.5 201t-85 207t-80 208.5q-12 28 -24.5 40t-34.5 12h-89q-13 0 -19 -6t-6 -15t6 -18l72 -158q12 -20 15 -44.5t-5 -51.5l-252 -911q-18 -69 -55.5 -105t-85.5 -45l-46 -7
q-26 -5 -26 -21q0 -9 8 -13.5t23 -4.5h345q11 0 17.5 4t6.5 13q0 8 -5.5 13t-15.5 7l-51 8q-50 10 -68.5 46t-1.5 102zM1036 1506q-37 0 -63.5 15t-48.5 34.5t-44.5 35t-51.5 15.5q-61 0 -86 -88q-8 -20 -24 -20q-18 0 -11 24q22 86 65 128.5t103 42.5q37 0 63.5 -15
t48.5 -34.5t44.5 -34.5t51.5 -15q62 0 86 86q7 21 24 21q19 0 11 -24q-22 -86 -65 -128.5t-103 -42.5z" />
    <glyph glyph-name="Ograve" unicode="&#xd2;" horiz-adv-x="1440" 
d="M989 1423q119 -3 211.5 -57.5t149.5 -153t70 -233.5t-28 -299q-42 -168 -123 -300t-189.5 -223t-235 -137t-262.5 -43q-118 3 -212 58t-151.5 155t-68 240t37.5 312q43 152 124 278t189.5 217.5t233.5 140t254 45.5zM602 14q94 -2 186.5 35.5t177 118.5t155 209
t119.5 305q24 89 35 165t10 139q0 128 -42 216t-112 134.5t-157 49.5q-98 3 -195.5 -41t-183.5 -129.5t-152.5 -208t-104.5 -274.5q-23 -94 -34 -172.5t-11 -142.5q-2 -198 83.5 -299t225.5 -105zM971 1670l102 -164q2 -5 2.5 -10.5t-4.5 -10.5q-4 -4 -11 -4t-11 3l-168 106
q-29 18 -48 36.5t-17 46.5q1 20 18.5 39.5t44.5 24.5q30 6 50.5 -13t41.5 -54z" />
    <glyph glyph-name="Oacute" unicode="&#xd3;" horiz-adv-x="1440" 
d="M989 1423q119 -3 211.5 -57.5t149.5 -153t70 -233.5t-28 -299q-42 -168 -123 -300t-189.5 -223t-235 -137t-262.5 -43q-118 3 -212 58t-151.5 155t-68 240t37.5 312q43 152 124 278t189.5 217.5t233.5 140t254 45.5zM602 14q94 -2 186.5 35.5t177 118.5t155 209
t119.5 305q24 89 35 165t10 139q0 128 -42 216t-112 134.5t-157 49.5q-98 3 -195.5 -41t-183.5 -129.5t-152.5 -208t-104.5 -274.5q-23 -94 -34 -172.5t-11 -142.5q-2 -198 83.5 -299t225.5 -105zM1172 1674q40 35 70 54t58 13q24 -5 30.5 -24.5t-3.5 -39.5
q-12 -28 -40.5 -46.5t-66.5 -36.5l-222 -106q-6 -3 -12.5 -3t-9.5 4q-3 5 1 10.5t10 10.5z" />
    <glyph glyph-name="Ocircumflex" unicode="&#xd4;" horiz-adv-x="1440" 
d="M989 1423q119 -3 211.5 -57.5t149.5 -153t70 -233.5t-28 -299q-42 -168 -123 -300t-189.5 -223t-235 -137t-262.5 -43q-118 3 -212 58t-151.5 155t-68 240t37.5 312q43 152 124 278t189.5 217.5t233.5 140t254 45.5zM602 14q94 -2 186.5 35.5t177 118.5t155 209
t119.5 305q24 89 35 165t10 139q0 128 -42 216t-112 134.5t-157 49.5q-98 3 -195.5 -41t-183.5 -129.5t-152.5 -208t-104.5 -274.5q-23 -94 -34 -172.5t-11 -142.5q-2 -198 83.5 -299t225.5 -105zM1049 1637h-41l188 -145q15 -11 26 -4q6 3 8 9.5t-3 14.5l-132 201
q-9 13 -17 20.5t-21 7.5t-25 -7.5t-28 -20.5l-236 -201q-9 -8 -10.5 -14.5t1.5 -9.5q5 -4 12 -2.5t16 6.5z" />
    <glyph glyph-name="Otilde" unicode="&#xd5;" horiz-adv-x="1440" 
d="M989 1423q119 -3 211.5 -57.5t149.5 -153t70 -233.5t-28 -299q-42 -168 -123 -300t-189.5 -223t-235 -137t-262.5 -43q-118 3 -212 58t-151.5 155t-68 240t37.5 312q43 152 124 278t189.5 217.5t233.5 140t254 45.5zM602 14q94 -2 186.5 35.5t177 118.5t155 209
t119.5 305q24 89 35 165t10 139q0 128 -42 216t-112 134.5t-157 49.5q-98 3 -195.5 -41t-183.5 -129.5t-152.5 -208t-104.5 -274.5q-23 -94 -34 -172.5t-11 -142.5q-2 -198 83.5 -299t225.5 -105zM1100 1510q-37 0 -63.5 15t-48.5 34.5t-44.5 35t-51.5 15.5q-61 0 -86 -88
q-8 -20 -24 -20q-18 0 -11 24q22 86 65 128.5t103 42.5q37 0 63.5 -15t48.5 -34.5t44.5 -34.5t51.5 -15q62 0 86 86q7 21 24 21q19 0 11 -24q-22 -86 -65 -128.5t-103 -42.5z" />
    <glyph glyph-name="Odieresis" unicode="&#xd6;" horiz-adv-x="1440" 
d="M989 1423q119 -3 211.5 -57.5t149.5 -153t70 -233.5t-28 -299q-42 -168 -123 -300t-189.5 -223t-235 -137t-262.5 -43q-118 3 -212 58t-151.5 155t-68 240t37.5 312q43 152 124 278t189.5 217.5t233.5 140t254 45.5zM602 14q94 -2 186.5 35.5t177 118.5t155 209
t119.5 305q24 89 35 165t10 139q0 128 -42 216t-112 134.5t-157 49.5q-98 3 -195.5 -41t-183.5 -129.5t-152.5 -208t-104.5 -274.5q-23 -94 -34 -172.5t-11 -142.5q-2 -198 83.5 -299t225.5 -105zM834 1510q-36 0 -52 24.5t-7 60.5q10 37 39 61t65 24q37 0 52.5 -24t5.5 -61
q-9 -36 -38 -60.5t-65 -24.5zM1150 1510q-36 0 -52 24.5t-7 61.5q10 36 39 60t65 24q37 0 53 -24t6 -61q-9 -36 -38 -60.5t-66 -24.5z" />
    <glyph glyph-name="multiply" unicode="&#xd7;" horiz-adv-x="896" 
d="M128 321q-7 8 -4 16.5t16 16.5l751 683q11 8 21 9t16 -6q8 -6 6 -14.5t-14 -17.5l-751 -683q-11 -8 -22.5 -9.5t-18.5 5.5zM746 322q-10 -6 -20.5 -3.5t-16.5 10.5l-409 679q-6 8 -3 16.5t13 13.5q19 11 33 -6l409 -679q6 -8 4.5 -16.5t-10.5 -14.5z" />
    <glyph glyph-name="Oslash" unicode="&#xd8;" horiz-adv-x="1440" 
d="M92 -44q-6 4 -6.5 10t6.5 12l1337 1471q6 6 13.5 7.5t13.5 -2.5q7 -4 6.5 -9.5t-7.5 -12.5l-1337 -1471q-6 -5 -13 -6.5t-13 1.5zM990 1423q119 -3 211.5 -57.5t149.5 -153t70 -233.5t-28 -299q-43 -168 -123.5 -300t-189 -223t-235.5 -137t-262 -43q-118 3 -212 58
t-151.5 155t-68 240t37.5 312q43 152 124 278t189 217.5t233 140t255 45.5zM602 14q94 -2 187 35.5t177.5 118.5t154.5 209t119 305q25 89 36 165t10 139q0 128 -42 216t-112.5 134.5t-156.5 49.5q-99 3 -196 -41t-183 -129.5t-152.5 -208t-104.5 -274.5q-23 -94 -34 -172.5
t-12 -142.5q-2 -198 83.5 -299t225.5 -105z" />
    <glyph glyph-name="Ugrave" unicode="&#xd9;" horiz-adv-x="1295" 
d="M1009 396l243 812q18 64 4.5 98.5t-59.5 43.5l-52 9q-16 5 -23 10t-7 13t8 13t22 5h345q11 0 17.5 -4.5t6.5 -10.5q0 -9 -6 -14t-26 -10l-62 -12q-42 -10 -71.5 -41.5t-50.5 -103.5l-243 -808q-42 -142 -109.5 -235t-166 -138.5t-231.5 -45.5q-117 0 -193.5 40
t-114 110.5t-35.5 159.5q0 36 11 95t28 127.5t34 130.5l190 655q6 21 -2 35t-28 18l-86 14q-16 4 -21.5 8.5t-5.5 12.5t8.5 12.5t22.5 4.5h407q24 0 24 -14q0 -8 -7.5 -13.5t-26.5 -9.5l-94 -18q-20 -3 -33 -15t-21 -41l-188 -652q-35 -130 -53 -215t-19 -142
q-1 -125 70.5 -188.5t195.5 -63.5q136 0 238.5 87.5t159.5 280.5zM934 1670l102 -164q2 -5 2.5 -10.5t-4.5 -10.5q-4 -4 -11 -4t-11 3l-168 106q-29 18 -48 36.5t-17 46.5q1 20 18.5 39.5t44.5 24.5q30 6 50.5 -13t41.5 -54z" />
    <glyph glyph-name="Uacute" unicode="&#xda;" horiz-adv-x="1295" 
d="M1009 396l243 812q18 64 4.5 98.5t-59.5 43.5l-52 9q-16 5 -23 10t-7 13t8 13t22 5h345q11 0 17.5 -4.5t6.5 -10.5q0 -9 -6 -14t-26 -10l-62 -12q-42 -10 -71.5 -41.5t-50.5 -103.5l-243 -808q-42 -142 -109.5 -235t-166 -138.5t-231.5 -45.5q-117 0 -193.5 40
t-114 110.5t-35.5 159.5q0 36 11 95t28 127.5t34 130.5l190 655q6 21 -2 35t-28 18l-86 14q-16 4 -21.5 8.5t-5.5 12.5t8.5 12.5t22.5 4.5h407q24 0 24 -14q0 -8 -7.5 -13.5t-26.5 -9.5l-94 -18q-20 -3 -33 -15t-21 -41l-188 -652q-35 -130 -53 -215t-19 -142
q-1 -125 70.5 -188.5t195.5 -63.5q136 0 238.5 87.5t159.5 280.5zM1136 1670q40 35 70 54t58 13q24 -5 30.5 -24.5t-3.5 -39.5q-12 -28 -40.5 -46.5t-66.5 -36.5l-222 -106q-6 -3 -12.5 -3t-9.5 4q-3 5 1 10.5t10 10.5z" />
    <glyph glyph-name="Ucircumflex" unicode="&#xdb;" horiz-adv-x="1295" 
d="M1009 396l243 812q18 64 4.5 98.5t-59.5 43.5l-52 9q-16 5 -23 10t-7 13t8 13t22 5h345q11 0 17.5 -4.5t6.5 -10.5q0 -9 -6 -14t-26 -10l-62 -12q-42 -10 -71.5 -41.5t-50.5 -103.5l-243 -808q-42 -142 -109.5 -235t-166 -138.5t-231.5 -45.5q-117 0 -193.5 40
t-114 110.5t-35.5 159.5q0 36 11 95t28 127.5t34 130.5l190 655q6 21 -2 35t-28 18l-86 14q-16 4 -21.5 8.5t-5.5 12.5t8.5 12.5t22.5 4.5h407q24 0 24 -14q0 -8 -7.5 -13.5t-26.5 -9.5l-94 -18q-20 -3 -33 -15t-21 -41l-188 -652q-35 -130 -53 -215t-19 -142
q-1 -125 70.5 -188.5t195.5 -63.5q136 0 238.5 87.5t159.5 280.5zM1013 1637h-41l188 -145q15 -11 26 -4q6 3 8 9.5t-3 14.5l-132 201q-9 13 -17 20.5t-21 7.5t-25 -7.5t-28 -20.5l-236 -201q-9 -8 -10.5 -14.5t1.5 -9.5q5 -4 12 -2.5t16 6.5z" />
    <glyph glyph-name="Udieresis" unicode="&#xdc;" horiz-adv-x="1295" 
d="M1009 396l243 812q18 64 4.5 98.5t-59.5 43.5l-52 9q-16 5 -23 10t-7 13t8 13t22 5h345q11 0 17.5 -4.5t6.5 -10.5q0 -9 -6 -14t-26 -10l-62 -12q-42 -10 -71.5 -41.5t-50.5 -103.5l-243 -808q-42 -142 -109.5 -235t-166 -138.5t-231.5 -45.5q-117 0 -193.5 40
t-114 110.5t-35.5 159.5q0 36 11 95t28 127.5t34 130.5l190 655q6 21 -2 35t-28 18l-86 14q-16 4 -21.5 8.5t-5.5 12.5t8.5 12.5t22.5 4.5h407q24 0 24 -14q0 -8 -7.5 -13.5t-26.5 -9.5l-94 -18q-20 -3 -33 -15t-21 -41l-188 -652q-35 -130 -53 -215t-19 -142
q-1 -125 70.5 -188.5t195.5 -63.5q136 0 238.5 87.5t159.5 280.5zM797 1510q-36 0 -52 24.5t-7 60.5q10 37 39 61t65 24q37 0 52.5 -24t5.5 -61q-9 -36 -38 -60.5t-65 -24.5zM1113 1510q-36 0 -52 24.5t-7 61.5q10 36 39 60t65 24q37 0 53 -24t6 -61q-9 -36 -38 -60.5
t-66 -24.5z" />
    <glyph glyph-name="Yacute" unicode="&#xdd;" horiz-adv-x="1066" 
d="M587 471l425 731q52 85 93.5 133.5t78.5 69t75 20.5q35 0 52 -16t17 -38q0 -34 -27.5 -55.5t-83.5 -33.5q-35 -7 -68 -24t-65.5 -49t-66.5 -85l-382 -647q-12 -20 -19 -35t-12 -32l-76 -299q-7 -27 0.5 -43t37.5 -21l71 -9q15 -3 21 -7.5t6 -10.5q0 -10 -9.5 -15
t-27.5 -5h-403q-13 0 -18.5 5t-5.5 13q0 15 29 21l75 8q36 5 56.5 23t29.5 48l79 296q7 22 6 42t-5 43q-3 21 -11.5 81t-20 142.5t-23.5 172.5t-23 172t-19.5 141t-12.5 78q-6 35 -31.5 53t-76.5 22q-14 2 -21.5 7t-7.5 13q0 9 7.5 14t20.5 5h144q43 0 65 -19t29 -59
q5 -21 14 -84t21 -150t25 -182.5t25 -184.5t22 -156t15 -95zM989 1670q40 35 70 54t58 13q24 -5 30.5 -24.5t-3.5 -39.5q-12 -28 -40.5 -46.5t-66.5 -36.5l-222 -106q-6 -3 -12.5 -3t-9.5 4q-3 5 1 10.5t10 10.5z" />
    <glyph glyph-name="Thorn" unicode="&#xde;" horiz-adv-x="1199" 
d="M325 111q-6 -27 1 -43.5t31 -19.5l85 -11q12 -3 18 -7.5t5 -12.5q0 -8 -8 -12.5t-20 -4.5h-409q-14 0 -20 5t-6 12q0 9 7.5 14t20.5 7l83 10q28 5 44 19.5t25 41.5q19 68 45 162t56.5 202.5t61.5 223t60.5 224.5t54 206.5t41.5 168.5q5 24 -3 36.5t-30 16.5l-84 13
q-15 4 -20.5 8.5t-5.5 12.5t9.5 12.5t27.5 4.5h406q14 0 19 -3.5t5 -10.5q-1 -9 -8 -14t-24 -9l-90 -17q-24 -4 -38.5 -15t-21.5 -34q-20 -74 -47.5 -173t-58.5 -211t-62.5 -227t-60.5 -223t-51.5 -198.5t-37.5 -153.5zM1186 660q-31 -113 -112.5 -192.5t-197.5 -122
t-252 -41.5q-54 0 -108.5 8t-102 26t-82.5 46l20 30q33 -27 78 -42.5t92 -22t85 -6.5q103 0 190.5 37t150.5 109t92 175q35 128 9.5 224.5t-107.5 150.5t-216 54h-188l12 36h202q172 0 283 -59.5t151 -165.5t1 -244z" />
    <glyph glyph-name="germandbls" unicode="&#xdf;" horiz-adv-x="1071" 
d="M-11 -233l284 1005q6 22 -0.5 38t-34.5 22l-69 16q-13 4 -21 9.5t-5 12.5q2 7 9.5 11.5t17.5 4.5h164l-36 -24l48 175q37 131 105.5 222.5t167 140t222.5 48.5q107 0 172.5 -46.5t86 -126t-6.5 -179.5q-26 -97 -95 -174t-172 -123t-231 -50l3 12q154 1 251 -63t132 -171
t1 -235q-26 -99 -88 -169.5t-150.5 -108t-194.5 -37.5q-92 0 -146 27t-70.5 80t2.5 131q11 50 18.5 62t14.5 12q9 0 12.5 -5t4.5 -14v-62q-3 -88 42.5 -139.5t128.5 -51.5q66 0 123.5 30t102 95t71.5 168q32 122 8 215t-102 146.5t-211 54.5q-16 1 -23 6t-4 14q2 7 8.5 12.5
t19.5 9.5q182 16 278.5 101.5t137.5 245.5q23 87 12.5 154t-50.5 105t-105 38q-80 0 -148 -39.5t-122 -123.5t-91 -219l-319 -1144q-9 -32 -13.5 -56.5t-4.5 -44.5t7 -33.5t13.5 -25t6.5 -25.5q0 -18 -17 -33.5t-44 -25.5t-59 -10q-41 0 -51.5 32.5t9.5 102.5z" />
    <glyph glyph-name="agrave" unicode="&#xe0;" horiz-adv-x="958" 
d="M721 223q-25 -98 -19.5 -131.5t33.5 -33.5q21 0 45 15.5t60 55.5q10 10 16 13t12 0t5 -11t-7 -19q-38 -61 -92 -95t-111 -34q-42 0 -65 21.5t-23 66.5q0 22 5 52.5t17 79t33 121t53 176.5l12 -12q-61 -156 -136.5 -269.5t-161 -174.5t-175.5 -61t-138 69.5t-27 225.5
q11 98 53 189.5t107 170.5t147.5 138.5t175 92.5t187.5 33q59 0 98 -8.5t59 -22.5t20 -29q-1 -13 -9 -21.5t-16.5 -16.5t-12.5 -21zM185 272q-18 -121 12.5 -174t85.5 -53q46 0 98 35t104.5 100.5t102 156t91 203.5t70.5 243q8 40 -4 59t-46 19q-71 0 -140.5 -31.5
t-131.5 -87.5t-112.5 -130.5t-84 -161t-45.5 -178.5zM591 1206l64 -189q2 -6 1.5 -11.5t-5.5 -9.5q-6 -4 -12 -3.5t-11 3.5l-138 143q-23 23 -37 45t-10 49q4 22 23.5 40.5t47.5 20.5q31 2 47.5 -21.5t29.5 -66.5z" />
    <glyph glyph-name="aacute" unicode="&#xe1;" horiz-adv-x="958" 
d="M721 223q-25 -98 -19.5 -131.5t33.5 -33.5q21 0 45 15.5t60 55.5q10 10 16 13t12 0t5 -11t-7 -19q-38 -61 -92 -95t-111 -34q-42 0 -65 21.5t-23 66.5q0 22 5 52.5t17 79t33 121t53 176.5l12 -12q-61 -156 -136.5 -269.5t-161 -174.5t-175.5 -61t-138 69.5t-27 225.5
q11 98 53 189.5t107 170.5t147.5 138.5t175 92.5t187.5 33q59 0 98 -8.5t59 -22.5t20 -29q-1 -13 -9 -21.5t-16.5 -16.5t-12.5 -21zM185 272q-18 -121 12.5 -174t85.5 -53q46 0 98 35t104.5 100.5t102 156t91 203.5t70.5 243q8 40 -4 59t-46 19q-71 0 -140.5 -31.5
t-131.5 -87.5t-112.5 -130.5t-84 -161t-45.5 -178.5zM775 1206q35 43 63.5 66.5t58.5 21.5q27 -2 36.5 -20.5t1.5 -40.5q-8 -27 -33.5 -49t-61.5 -45l-211 -143q-6 -3 -12.5 -3.5t-9.5 3.5q-4 4 -1 9.5t8 11.5z" />
    <glyph glyph-name="acircumflex" unicode="&#xe2;" horiz-adv-x="958" 
d="M721 223q-25 -98 -19.5 -131.5t33.5 -33.5q21 0 45 15.5t60 55.5q10 10 16 13t12 0t5 -11t-7 -19q-38 -61 -92 -95t-111 -34q-42 0 -65 21.5t-23 66.5q0 22 5 52.5t17 79t33 121t53 176.5l12 -12q-61 -156 -136.5 -269.5t-161 -174.5t-175.5 -61t-138 69.5t-27 225.5
q11 98 53 189.5t107 170.5t147.5 138.5t175 92.5t187.5 33q59 0 98 -8.5t59 -22.5t20 -29q-1 -13 -9 -21.5t-16.5 -16.5t-12.5 -21zM185 272q-18 -121 12.5 -174t85.5 -53q46 0 98 35t104.5 100.5t102 156t91 203.5t70.5 243q8 40 -4 59t-46 19q-71 0 -140.5 -31.5
t-131.5 -87.5t-112.5 -130.5t-84 -161t-45.5 -178.5zM678 1173h-43l182 -179q7 -6 13.5 -7t12.5 2q5 4 7 10.5t-3 13.5l-125 236q-7 14 -15.5 21t-22.5 7t-26.5 -7t-27.5 -21l-244 -236q-9 -7 -11 -13.5t1 -10.5q5 -3 12 -2t16 7z" />
    <glyph glyph-name="atilde" unicode="&#xe3;" horiz-adv-x="958" 
d="M721 223q-25 -98 -19.5 -131.5t33.5 -33.5q21 0 45 15.5t60 55.5q10 10 16 13t12 0t5 -11t-7 -19q-38 -61 -92 -95t-111 -34q-42 0 -65 21.5t-23 66.5q0 22 5 52.5t17 79t33 121t53 176.5l12 -12q-61 -156 -136.5 -269.5t-161 -174.5t-175.5 -61t-138 69.5t-27 225.5
q11 98 53 189.5t107 170.5t147.5 138.5t175 92.5t187.5 33q59 0 98 -8.5t59 -22.5t20 -29q-1 -13 -9 -21.5t-16.5 -16.5t-12.5 -21zM185 272q-18 -121 12.5 -174t85.5 -53q46 0 98 35t104.5 100.5t102 156t91 203.5t70.5 243q8 40 -4 59t-46 19q-71 0 -140.5 -31.5
t-131.5 -87.5t-112.5 -130.5t-84 -161t-45.5 -178.5zM715 1012q-36 0 -63 16t-48.5 37t-44.5 37t-52 16q-31 0 -53 -23.5t-35 -69.5q-7 -20 -23 -20q-18 0 -11 24q23 90 66.5 134t103.5 44q37 0 63.5 -16t48 -37t44.5 -37t53 -16q31 0 53 24t34 69q7 20 24 20t10 -24
q-22 -89 -66 -133.5t-104 -44.5z" />
    <glyph glyph-name="adieresis" unicode="&#xe4;" horiz-adv-x="958" 
d="M721 223q-25 -98 -19.5 -131.5t33.5 -33.5q21 0 45 15.5t60 55.5q10 10 16 13t12 0t5 -11t-7 -19q-38 -61 -92 -95t-111 -34q-42 0 -65 21.5t-23 66.5q0 22 5 52.5t17 79t33 121t53 176.5l12 -12q-61 -156 -136.5 -269.5t-161 -174.5t-175.5 -61t-138 69.5t-27 225.5
q11 98 53 189.5t107 170.5t147.5 138.5t175 92.5t187.5 33q59 0 98 -8.5t59 -22.5t20 -29q-1 -13 -9 -21.5t-16.5 -16.5t-12.5 -21zM185 272q-18 -121 12.5 -174t85.5 -53q46 0 98 35t104.5 100.5t102 156t91 203.5t70.5 243q8 40 -4 59t-46 19q-71 0 -140.5 -31.5
t-131.5 -87.5t-112.5 -130.5t-84 -161t-45.5 -178.5zM464 1017q-36 0 -51.5 24.5t-5.5 61.5q9 37 37.5 61.5t64.5 24.5q37 0 52 -24.5t5 -61.5q-9 -36 -37.5 -61t-64.5 -25zM778 1017q-35 0 -51 24.5t-7 61.5q10 37 39 61.5t64 24.5q37 0 52 -24.5t6 -61.5q-10 -36 -38 -61
t-65 -25z" />
    <glyph glyph-name="aring" unicode="&#xe5;" horiz-adv-x="958" 
d="M721 223q-25 -98 -19.5 -131.5t33.5 -33.5q21 0 45 15.5t60 55.5q10 10 16 13t12 0t5 -11t-7 -19q-38 -61 -92 -95t-111 -34q-42 0 -65 21.5t-23 66.5q0 22 5 52.5t17 79t33 121t53 176.5l12 -12q-61 -156 -136.5 -269.5t-161 -174.5t-175.5 -61t-138 69.5t-27 225.5
q11 98 53 189.5t107 170.5t147.5 138.5t175 92.5t187.5 33q59 0 98 -8.5t59 -22.5t20 -29q-1 -13 -9 -21.5t-16.5 -16.5t-12.5 -21zM185 272q-18 -121 12.5 -174t85.5 -53q46 0 98 35t104.5 100.5t102 156t91 203.5t70.5 243q8 40 -4 59t-46 19q-71 0 -140.5 -31.5
t-131.5 -87.5t-112.5 -130.5t-84 -161t-45.5 -178.5zM618 987q-70 0 -108.5 45.5t-19.5 114.5q17 68 78.5 113.5t132.5 45.5q70 0 108 -45.5t21 -113.5t-78.5 -114t-133.5 -46zM690 1264q-43 0 -81 -32.5t-52 -84.5q-12 -51 9.5 -84t64.5 -33t80.5 33t50.5 84t-8 84t-64 33z
" />
    <glyph glyph-name="ae" unicode="&#xe6;" horiz-adv-x="1334" 
d="M580 314q8 116 52 221.5t113 188.5t153.5 131t173.5 48q66 0 111 -33t67.5 -88t23.5 -122q0 -11 7 -16.5t19 -3.5q10 2 16 -2t7 -15q1 -8 -6 -14t-20 -10q-30 -9 -87.5 -25t-128.5 -35t-143 -38t-133 -34.5t-98.5 -25l-37.5 -9.5l-5 32l39 10t101 26t130.5 34.5t130 36
t98.5 30.5l-17 -24q7 19 10.5 42t3.5 58q0 84 -29.5 137.5t-79.5 53.5q-53 0 -109 -40t-105 -111t-83 -163.5t-43 -198.5q-12 -152 39 -226.5t150 -74.5q96 0 177.5 59t129.5 175q7 11 11.5 16t10.5 4q7 0 12 -7t0 -22q-29 -90 -86.5 -157t-138 -103t-179.5 -36
q-88 0 -149 39t-89 113.5t-19 178.5zM205 693q15 55 61.5 103t120 77.5t165.5 29.5q83 0 134 -44.5t66 -124.5t-12 -187l-119 -40l26 94q22 88 11.5 148.5t-43.5 91.5t-77 31q-73 0 -123.5 -42.5t-65.5 -98.5l-14 -51q-9 -33 -34.5 -51t-58.5 -18q-26 1 -37 22t0 60zM39 176
q19 71 90 127.5t196.5 101t305.5 77.5l2 -31q-152 -28 -246.5 -66.5t-143 -87t-63.5 -107.5q-15 -62 17.5 -105.5t96.5 -43.5q51 0 107 23.5t110.5 71.5t102.5 119l8 -25q-51 -80 -118 -136t-140.5 -85t-144.5 -29q-65 0 -110.5 26.5t-64.5 70.5t-5 99z" />
    <glyph glyph-name="ccedilla" unicode="&#xe7;" horiz-adv-x="789" 
d="M554 866q-75 0 -149 -59t-129 -161t-72 -231q-25 -181 25.5 -271t155.5 -90q54 0 108 25.5t99.5 76t70.5 126.5q6 12 11.5 17.5t12.5 5.5t11 -7t1 -20q-13 -57 -44 -110t-79.5 -95t-111.5 -67t-138 -25q-154 0 -222 110t-36 307q17 104 63 195.5t114 161.5t150.5 110
t172.5 40q70 0 117.5 -25.5t72 -67t23.5 -92.5q-2 -51 -24.5 -76.5t-51.5 -25.5q-24 0 -38.5 14.5t-13.5 37.5q0 24 7.5 49.5t8.5 52.5q0 42 -30.5 68t-84.5 26zM355 6h36l-108 -142l-16 9q12 1 23.5 1h27.5q82 0 120 -39t22 -99q-17 -66 -75.5 -107t-137.5 -41
q-66 0 -103.5 29.5t-33.5 72.5q2 10 8 15t13 6t11 -3t5 -11q1 -40 29.5 -57.5t66.5 -17.5q90 0 118 111q12 49 -4.5 79.5t-66.5 30.5h-33q-13 0 -14 8.5t8 19.5z" />
    <glyph glyph-name="egrave" unicode="&#xe8;" horiz-adv-x="823" 
d="M139 416l40 16t103 41.5t133.5 54t133.5 54t102 41.5l-16 -22q6 16 9.5 38t3.5 56q0 74 -30.5 122.5t-78.5 48.5q-54 0 -109 -38t-104 -106t-83 -161t-46 -202q-15 -151 39.5 -229t154.5 -78q64 0 123 26.5t106.5 78.5t75.5 130q6 11 11.5 15.5t12.5 4.5t11 -7t1 -22
q-22 -82 -76.5 -149.5t-138 -106.5t-193.5 -39q-90 0 -152.5 40.5t-90.5 118t-18 188.5q11 115 56 218t115 183t154 126t173 46q65 0 109 -29t67.5 -77t24.5 -105q0 -12 6.5 -17.5t19.5 -3.5q10 2 15 -1t6 -11t-6.5 -14.5t-27.5 -14.5q-24 -10 -79.5 -31.5t-126.5 -49.5
t-145.5 -57.5t-138 -54t-102.5 -40l-39 -15.5zM490 1206l64 -189q2 -6 1.5 -11.5t-5.5 -9.5q-6 -4 -12 -3.5t-11 3.5l-138 143q-23 23 -37 45t-10 49q4 22 23.5 40.5t47.5 20.5q31 2 47.5 -21.5t29.5 -66.5z" />
    <glyph glyph-name="eacute" unicode="&#xe9;" horiz-adv-x="823" 
d="M139 416l40 16t103 41.5t133.5 54t133.5 54t102 41.5l-16 -22q6 16 9.5 38t3.5 56q0 74 -30.5 122.5t-78.5 48.5q-54 0 -109 -38t-104 -106t-83 -161t-46 -202q-15 -151 39.5 -229t154.5 -78q64 0 123 26.5t106.5 78.5t75.5 130q6 11 11.5 15.5t12.5 4.5t11 -7t1 -22
q-22 -82 -76.5 -149.5t-138 -106.5t-193.5 -39q-90 0 -152.5 40.5t-90.5 118t-18 188.5q11 115 56 218t115 183t154 126t173 46q65 0 109 -29t67.5 -77t24.5 -105q0 -12 6.5 -17.5t19.5 -3.5q10 2 15 -1t6 -11t-6.5 -14.5t-27.5 -14.5q-24 -10 -79.5 -31.5t-126.5 -49.5
t-145.5 -57.5t-138 -54t-102.5 -40l-39 -15.5zM674 1206q35 43 63.5 66.5t58.5 21.5q27 -2 36.5 -20.5t1.5 -40.5q-8 -27 -33.5 -49t-61.5 -45l-211 -143q-6 -3 -12.5 -3.5t-9.5 3.5q-4 4 -1 9.5t8 11.5z" />
    <glyph glyph-name="ecircumflex" unicode="&#xea;" horiz-adv-x="823" 
d="M139 416l40 16t103 41.5t133.5 54t133.5 54t102 41.5l-16 -22q6 16 9.5 38t3.5 56q0 74 -30.5 122.5t-78.5 48.5q-54 0 -109 -38t-104 -106t-83 -161t-46 -202q-15 -151 39.5 -229t154.5 -78q64 0 123 26.5t106.5 78.5t75.5 130q6 11 11.5 15.5t12.5 4.5t11 -7t1 -22
q-22 -82 -76.5 -149.5t-138 -106.5t-193.5 -39q-90 0 -152.5 40.5t-90.5 118t-18 188.5q11 115 56 218t115 183t154 126t173 46q65 0 109 -29t67.5 -77t24.5 -105q0 -12 6.5 -17.5t19.5 -3.5q10 2 15 -1t6 -11t-6.5 -14.5t-27.5 -14.5q-24 -10 -79.5 -31.5t-126.5 -49.5
t-145.5 -57.5t-138 -54t-102.5 -40l-39 -15.5zM580 1173h-43l182 -179q7 -6 13.5 -7t12.5 2q5 4 7 10.5t-3 13.5l-125 236q-7 14 -15.5 21t-22.5 7t-26.5 -7t-27.5 -21l-244 -236q-9 -7 -11 -13.5t1 -10.5q5 -3 12 -2t16 7z" />
    <glyph glyph-name="edieresis" unicode="&#xeb;" horiz-adv-x="823" 
d="M139 416l40 16t103 41.5t133.5 54t133.5 54t102 41.5l-16 -22q6 16 9.5 38t3.5 56q0 74 -30.5 122.5t-78.5 48.5q-54 0 -109 -38t-104 -106t-83 -161t-46 -202q-15 -151 39.5 -229t154.5 -78q64 0 123 26.5t106.5 78.5t75.5 130q6 11 11.5 15.5t12.5 4.5t11 -7t1 -22
q-22 -82 -76.5 -149.5t-138 -106.5t-193.5 -39q-90 0 -152.5 40.5t-90.5 118t-18 188.5q11 115 56 218t115 183t154 126t173 46q65 0 109 -29t67.5 -77t24.5 -105q0 -12 6.5 -17.5t19.5 -3.5q10 2 15 -1t6 -11t-6.5 -14.5t-27.5 -14.5q-24 -10 -79.5 -31.5t-126.5 -49.5
t-145.5 -57.5t-138 -54t-102.5 -40l-39 -15.5zM363 1017q-36 0 -51.5 24.5t-5.5 61.5q9 37 37.5 61.5t64.5 24.5q37 0 52 -24.5t5 -61.5q-9 -36 -37.5 -61t-64.5 -25zM677 1017q-35 0 -51 24.5t-7 61.5q10 37 39 61.5t64 24.5q37 0 52 -24.5t6 -61.5q-10 -36 -38 -61
t-65 -25z" />
    <glyph glyph-name="igrave" unicode="&#xec;" horiz-adv-x="526" 
d="M265 60q-32 0 -39 32.5t25 122.5l172 487q27 73 24 118t-28.5 65t-66.5 20q-54 0 -110.5 -35.5t-99.5 -100.5q-7 -9 -7 -16.5t6 -11.5q6 -3 13 0.5t15 9.5q38 43 64.5 59t45.5 16q35 0 40 -36t-31 -137l-171 -480q-24 -65 -21.5 -107t28 -62t68.5 -20q61 0 115.5 34.5
t93.5 95.5q6 10 6 18t-6 11q-6 4 -12.5 0.5t-14.5 -10.5q-38 -42 -63 -57.5t-46 -15.5zM336 1206l64 -189q2 -6 1.5 -11.5t-5.5 -9.5q-6 -4 -12 -3.5t-11 3.5l-138 143q-23 23 -37 45t-10 49q4 22 23.5 40.5t47.5 20.5q31 2 47.5 -21.5t29.5 -66.5z" />
    <glyph glyph-name="iacute" unicode="&#xed;" horiz-adv-x="526" 
d="M265 60q-32 0 -39 32.5t25 122.5l172 487q27 73 24 118t-28.5 65t-66.5 20q-54 0 -110.5 -35.5t-99.5 -100.5q-7 -9 -7 -16.5t6 -11.5q6 -3 13 0.5t15 9.5q38 43 64.5 59t45.5 16q35 0 40 -36t-31 -137l-171 -480q-24 -65 -21.5 -107t28 -62t68.5 -20q61 0 115.5 34.5
t93.5 95.5q6 10 6 18t-6 11q-6 4 -12.5 0.5t-14.5 -10.5q-38 -42 -63 -57.5t-46 -15.5zM519 1206q35 43 63.5 66.5t58.5 21.5q27 -2 36.5 -20.5t1.5 -40.5q-8 -27 -33.5 -49t-61.5 -45l-211 -143q-6 -3 -12.5 -3.5t-9.5 3.5q-4 4 -1 9.5t8 11.5z" />
    <glyph glyph-name="icircumflex" unicode="&#xee;" horiz-adv-x="526" 
d="M265 60q-32 0 -39 32.5t25 122.5l172 487q27 73 24 118t-28.5 65t-66.5 20q-54 0 -110.5 -35.5t-99.5 -100.5q-7 -9 -7 -16.5t6 -11.5q6 -3 13 0.5t15 9.5q38 43 64.5 59t45.5 16q35 0 40 -36t-31 -137l-171 -480q-24 -65 -21.5 -107t28 -62t68.5 -20q61 0 115.5 34.5
t93.5 95.5q6 10 6 18t-6 11q-6 4 -12.5 0.5t-14.5 -10.5q-38 -42 -63 -57.5t-46 -15.5zM424.591 1181h-36.5488l154.695 -179q5.9502 -6 11.4746 -7q5.52539 -1 10.625 2q4.25 4 5.9502 10.5q1.69922 6.5 -2.55078 13.5l-106.246 236q-5.9502 14 -13.1748 21
q-7.22559 7 -19.125 7t-22.5244 -7q-10.624 -7 -23.374 -21l-207.394 -236q-7.65039 -7 -9.35059 -13.5q-1.69922 -6.5 0.850586 -10.5q4.25 -3 10.1992 -2q5.9502 1 13.5996 7z" />
    <glyph glyph-name="idieresis" unicode="&#xef;" horiz-adv-x="526" 
d="M265 60q-32 0 -39 32.5t25 122.5l172 487q27 73 24 118t-28.5 65t-66.5 20q-54 0 -110.5 -35.5t-99.5 -100.5q-7 -9 -7 -16.5t6 -11.5q6 -3 13 0.5t15 9.5q38 43 64.5 59t45.5 16q35 0 40 -36t-31 -137l-171 -480q-24 -65 -21.5 -107t28 -62t68.5 -20q61 0 115.5 34.5
t93.5 95.5q6 10 6 18t-6 11q-6 4 -12.5 0.5t-14.5 -10.5q-38 -42 -63 -57.5t-46 -15.5zM278.998 1017q-28.7998 0 -41.1992 24.5t-4.40039 61.5q7.2002 37 30 61.5t51.5996 24.5q29.5996 0 41.5986 -24.5q12 -24.5 4 -61.5q-7.19922 -36 -29.999 -61t-51.5996 -25z
M530.194 1017q-27.999 0 -40.7998 24.5q-12.7988 24.5 -5.59961 61.5q8 37 31.1992 61.5q23.2002 24.5 51.1992 24.5q29.5996 0 41.5996 -24.5t4.7998 -61.5q-7.99902 -36 -30.3994 -61q-22.3994 -25 -51.999 -25z" />
    <glyph glyph-name="eth" unicode="&#xf0;" horiz-adv-x="923" 
d="M853 453q-42 -153 -118 -259.5t-176 -161t-214 -53.5q-109 1 -181.5 68.5t-95 184.5t19.5 268q24 87 70 162t109 131.5t138 87.5t157 30q112 -1 165.5 -83t44.5 -242l-12 -3q13 175 2 318.5t-44 252.5t-86 180.5t-125 102.5q-9 5 -11.5 10.5t2.5 13.5q4 7 12.5 9t19.5 -1
q113 -35 194 -134t125.5 -241t47 -307.5t-43.5 -333.5zM364 19q40 -1 82 19t83 58t77.5 93t66 124.5t48.5 150.5q30 118 20 209t-54 143.5t-116 53.5q-49 1 -94.5 -20t-86.5 -60.5t-76 -94t-61.5 -119.5t-43.5 -138q-31 -121 -19.5 -215.5t57.5 -148t117 -55.5zM1008 1342
l-559 -239q-8 -3 -13.5 -1t-7.5 8q-4 15 15 22l558 239q11 4 16.5 1.5t6.5 -8.5q2 -7 -2.5 -12.5t-13.5 -9.5z" />
    <glyph glyph-name="ntilde" unicode="&#xf1;" horiz-adv-x="1025" 
d="M138 739q-5 3 -4.5 10.5t6.5 18.5q40 64 95.5 99t113.5 35q42 0 66.5 -20.5t24.5 -62.5q0 -29 -12 -71t-32 -95.5t-46 -118t-54 -137.5l1 29q57 133 124.5 224t137 146.5t135.5 80.5t119 25q70 0 97 -32.5t21 -91t-33 -139.5l-144 -428q-30 -89 -21.5 -120.5t36.5 -31.5
q20 0 45 15t62 56q9 9 15 12t12 0q6 -2 5.5 -10t-6.5 -19q-39 -62 -92.5 -96t-114.5 -34q-44 0 -68.5 21.5t-25.5 65t20 107.5l152 454q37 109 23.5 149.5t-67.5 40.5q-41 0 -99 -29t-121.5 -91t-123.5 -159t-106 -232q-22 -68 -34 -106.5t-16 -59t-4 -33.5q0 -20 6.5 -32
t6.5 -30q0 -28 -31 -47t-79 -19q-42 0 -50 30t16 97l191 551q33 94 26 128t-38 34q-19 0 -44.5 -15t-62.5 -57q-9 -8 -15.5 -11t-12.5 -1zM729 1012q-36 0 -63 16t-48.5 37t-44.5 37t-52 16q-31 0 -53 -23.5t-35 -69.5q-7 -20 -23 -20q-18 0 -11 24q23 90 66.5 134t103.5 44
q37 0 63.5 -16t48 -37t44.5 -37t53 -16q31 0 53 24t34 69q7 20 24 20t10 -24q-22 -89 -66 -133.5t-104 -44.5z" />
    <glyph glyph-name="ograve" unicode="&#xf2;" 
d="M578 902q99 -5 168.5 -58.5t98.5 -151t6 -233.5q-17 -103 -63.5 -191t-115 -152.5t-151 -100t-173.5 -32.5q-94 2 -165.5 53t-103 147.5t-9.5 235.5q19 109 67 199.5t117.5 155.5t152 98.5t171.5 29.5zM355 23q48 -3 94.5 20t89.5 65.5t78.5 101.5t62 130t39.5 150
q22 125 9 205.5t-54 121t-101 45.5q-48 4 -95.5 -18t-91 -64.5t-80.5 -102t-64 -133t-41 -156.5q-22 -128 -7 -207.5t58 -117t103 -40.5zM552 1206l64 -189q2 -6 1.5 -11.5t-5.5 -9.5q-6 -4 -12 -3.5t-11 3.5l-138 143q-23 23 -37 45t-10 49q4 22 23.5 40.5t47.5 20.5
q31 2 47.5 -21.5t29.5 -66.5z" />
    <glyph glyph-name="oacute" unicode="&#xf3;" 
d="M578 902q99 -5 168.5 -58.5t98.5 -151t6 -233.5q-17 -103 -63.5 -191t-115 -152.5t-151 -100t-173.5 -32.5q-94 2 -165.5 53t-103 147.5t-9.5 235.5q19 109 67 199.5t117.5 155.5t152 98.5t171.5 29.5zM355 23q48 -3 94.5 20t89.5 65.5t78.5 101.5t62 130t39.5 150
q22 125 9 205.5t-54 121t-101 45.5q-48 4 -95.5 -18t-91 -64.5t-80.5 -102t-64 -133t-41 -156.5q-22 -128 -7 -207.5t58 -117t103 -40.5zM736 1206q35 43 63.5 66.5t58.5 21.5q27 -2 36.5 -20.5t1.5 -40.5q-8 -27 -33.5 -49t-61.5 -45l-211 -143q-6 -3 -12.5 -3.5t-9.5 3.5
q-4 4 -1 9.5t8 11.5z" />
    <glyph glyph-name="ocircumflex" unicode="&#xf4;" 
d="M578 902q99 -5 168.5 -58.5t98.5 -151t6 -233.5q-17 -103 -63.5 -191t-115 -152.5t-151 -100t-173.5 -32.5q-94 2 -165.5 53t-103 147.5t-9.5 235.5q19 109 67 199.5t117.5 155.5t152 98.5t171.5 29.5zM355 23q48 -3 94.5 20t89.5 65.5t78.5 101.5t62 130t39.5 150
q22 125 9 205.5t-54 121t-101 45.5q-48 4 -95.5 -18t-91 -64.5t-80.5 -102t-64 -133t-41 -156.5q-22 -128 -7 -207.5t58 -117t103 -40.5zM639 1173h-43l182 -179q7 -6 13.5 -7t12.5 2q5 4 7 10.5t-3 13.5l-125 236q-7 14 -15.5 21t-22.5 7t-26.5 -7t-27.5 -21l-244 -236
q-9 -7 -11 -13.5t1 -10.5q5 -3 12 -2t16 7z" />
    <glyph glyph-name="otilde" unicode="&#xf5;" 
d="M578 902q99 -5 168.5 -58.5t98.5 -151t6 -233.5q-17 -103 -63.5 -191t-115 -152.5t-151 -100t-173.5 -32.5q-94 2 -165.5 53t-103 147.5t-9.5 235.5q19 109 67 199.5t117.5 155.5t152 98.5t171.5 29.5zM355 23q48 -3 94.5 20t89.5 65.5t78.5 101.5t62 130t39.5 150
q22 125 9 205.5t-54 121t-101 45.5q-48 4 -95.5 -18t-91 -64.5t-80.5 -102t-64 -133t-41 -156.5q-22 -128 -7 -207.5t58 -117t103 -40.5zM676 1012q-36 0 -63 16t-48.5 37t-44.5 37t-52 16q-31 0 -53 -23.5t-35 -69.5q-7 -20 -23 -20q-18 0 -11 24q23 90 66.5 134t103.5 44
q37 0 63.5 -16t48 -37t44.5 -37t53 -16q31 0 53 24t34 69q7 20 24 20t10 -24q-22 -89 -66 -133.5t-104 -44.5z" />
    <glyph glyph-name="odieresis" unicode="&#xf6;" 
d="M578 902q99 -5 168.5 -58.5t98.5 -151t6 -233.5q-17 -103 -63.5 -191t-115 -152.5t-151 -100t-173.5 -32.5q-94 2 -165.5 53t-103 147.5t-9.5 235.5q19 109 67 199.5t117.5 155.5t152 98.5t171.5 29.5zM355 23q48 -3 94.5 20t89.5 65.5t78.5 101.5t62 130t39.5 150
q22 125 9 205.5t-54 121t-101 45.5q-48 4 -95.5 -18t-91 -64.5t-80.5 -102t-64 -133t-41 -156.5q-22 -128 -7 -207.5t58 -117t103 -40.5zM425 1017q-36 0 -51.5 24.5t-5.5 61.5q9 37 37.5 61.5t64.5 24.5q37 0 52 -24.5t5 -61.5q-9 -36 -37.5 -61t-64.5 -25zM739 1017
q-35 0 -51 24.5t-7 61.5q10 37 39 61.5t64 24.5q37 0 52 -24.5t6 -61.5q-10 -36 -38 -61t-65 -25z" />
    <glyph glyph-name="divide" unicode="&#xf7;" horiz-adv-x="1007" 
d="M623.753 987.699q-24.0576 0 -36.0869 14.1113q-12.0283 14.1123 -8.41992 35.1416q3.00684 15.4951 13.5322 28.5t26.7646 20.4766q16.2383 7.4707 34.8828 7.4707q24.6592 0 36.3877 -14.3887q11.7275 -14.3887 7.51758 -34.8643q-2.40527 -15.4951 -12.6299 -28.2236
t-26.1631 -20.4766q-15.9375 -7.74707 -35.7852 -7.74707zM179 682q2 10 12.5 15.5t22.5 5.5h718q10 0 16 -5.5t3 -15.5t-13 -16t-22 -6h-716q-12 0 -18 6t-3 16zM453.753 272.699q-24.0576 0 -36.0869 14.1113q-12.0283 14.1123 -8.41992 35.1416
q3.00684 15.4951 13.5322 28.5t26.7646 20.4766q16.2383 7.4707 34.8828 7.4707q24.6592 0 36.3877 -14.3887q11.7275 -14.3887 7.51758 -34.8643q-2.40527 -15.4951 -12.6299 -28.2236t-26.1631 -20.4766q-15.9375 -7.74707 -35.7852 -7.74707z" />
    <glyph glyph-name="oslash" unicode="&#xf8;" 
d="M3 -51q-5 3 -5 9.5t6 12.5l160 174l17 17l537 592l15 19l149 162q7 7 14 9t13 -1t5.5 -9.5t-6.5 -13.5l-158 -172l-13 -13l-538 -595l-16 -18l-154 -167q-5 -7 -12 -8.5t-14 2.5zM578 902q99 -5 168.5 -58.5t98.5 -151t6 -233.5q-17 -103 -63.5 -191t-115 -152.5
t-151 -100t-173.5 -32.5q-94 2 -165.5 53t-103 147.5t-9.5 235.5q19 109 67 199.5t117.5 155.5t152 98.5t171.5 29.5zM355 23q48 -3 94.5 20t89.5 65.5t78.5 101.5t62 130t39.5 150q22 125 9 205.5t-54 121t-101 45.5q-48 4 -95.5 -18t-91 -64.5t-80.5 -102t-64 -133
t-41 -156.5q-22 -128 -7 -207.5t58 -117t103 -40.5z" />
    <glyph glyph-name="ugrave" unicode="&#xf9;" horiz-adv-x="1021" 
d="M896 146q6 -3 5 -10.5t-6 -18.5q-41 -64 -96.5 -99t-113.5 -35q-42 0 -66.5 20.5t-24.5 62.5q0 29 12 71t32.5 95.5t46.5 118t54 137.5l-1 -30q-57 -132 -125 -223t-137.5 -147t-135 -80.5t-118.5 -24.5q-70 0 -97 32t-21.5 91.5t33.5 139.5l144 427q30 90 21.5 121.5
t-36.5 31.5q-19 0 -45 -15t-62 -56q-9 -9 -15.5 -12t-11.5 -1q-6 3 -5.5 11t6.5 19q38 62 92 96t115 34q45 0 68.5 -22t25.5 -64.5t-20 -107.5l-152 -454q-37 -109 -23.5 -149.5t67.5 -40.5q41 0 98.5 29t121 90.5t123.5 159t106 232.5q23 68 34.5 106.5t15.5 59t4 33.5
q0 20 -6.5 32t-6.5 30q0 28 31 47t80 19q42 0 49.5 -30t-16.5 -97l-191 -551q-32 -94 -25 -128t37 -34q20 0 45.5 15t62.5 56q9 9 15.5 12.5t11.5 0.5zM593 1206l64 -189q2 -6 1.5 -11.5t-5.5 -9.5q-6 -4 -12 -3.5t-11 3.5l-138 143q-23 23 -37 45t-10 49q4 22 23.5 40.5
t47.5 20.5q31 2 47.5 -21.5t29.5 -66.5z" />
    <glyph glyph-name="uacute" unicode="&#xfa;" horiz-adv-x="1021" 
d="M896 146q6 -3 5 -10.5t-6 -18.5q-41 -64 -96.5 -99t-113.5 -35q-42 0 -66.5 20.5t-24.5 62.5q0 29 12 71t32.5 95.5t46.5 118t54 137.5l-1 -30q-57 -132 -125 -223t-137.5 -147t-135 -80.5t-118.5 -24.5q-70 0 -97 32t-21.5 91.5t33.5 139.5l144 427q30 90 21.5 121.5
t-36.5 31.5q-19 0 -45 -15t-62 -56q-9 -9 -15.5 -12t-11.5 -1q-6 3 -5.5 11t6.5 19q38 62 92 96t115 34q45 0 68.5 -22t25.5 -64.5t-20 -107.5l-152 -454q-37 -109 -23.5 -149.5t67.5 -40.5q41 0 98.5 29t121 90.5t123.5 159t106 232.5q23 68 34.5 106.5t15.5 59t4 33.5
q0 20 -6.5 32t-6.5 30q0 28 31 47t80 19q42 0 49.5 -30t-16.5 -97l-191 -551q-32 -94 -25 -128t37 -34q20 0 45.5 15t62.5 56q9 9 15.5 12.5t11.5 0.5zM776 1206q35 43 63.5 66.5t58.5 21.5q27 -2 36.5 -20.5t1.5 -40.5q-8 -27 -33.5 -49t-61.5 -45l-211 -143
q-6 -3 -12.5 -3.5t-9.5 3.5q-4 4 -1 9.5t8 11.5z" />
    <glyph glyph-name="ucircumflex" unicode="&#xfb;" horiz-adv-x="1021" 
d="M896 146q6 -3 5 -10.5t-6 -18.5q-41 -64 -96.5 -99t-113.5 -35q-42 0 -66.5 20.5t-24.5 62.5q0 29 12 71t32.5 95.5t46.5 118t54 137.5l-1 -30q-57 -132 -125 -223t-137.5 -147t-135 -80.5t-118.5 -24.5q-70 0 -97 32t-21.5 91.5t33.5 139.5l144 427q30 90 21.5 121.5
t-36.5 31.5q-19 0 -45 -15t-62 -56q-9 -9 -15.5 -12t-11.5 -1q-6 3 -5.5 11t6.5 19q38 62 92 96t115 34q45 0 68.5 -22t25.5 -64.5t-20 -107.5l-152 -454q-37 -109 -23.5 -149.5t67.5 -40.5q41 0 98.5 29t121 90.5t123.5 159t106 232.5q23 68 34.5 106.5t15.5 59t4 33.5
q0 20 -6.5 32t-6.5 30q0 28 31 47t80 19q42 0 49.5 -30t-16.5 -97l-191 -551q-32 -94 -25 -128t37 -34q20 0 45.5 15t62.5 56q9 9 15.5 12.5t11.5 0.5zM679 1173h-43l182 -179q7 -6 13.5 -7t12.5 2q5 4 7 10.5t-3 13.5l-125 236q-7 14 -15.5 21t-22.5 7t-26.5 -7t-27.5 -21
l-244 -236q-9 -7 -11 -13.5t1 -10.5q5 -3 12 -2t16 7z" />
    <glyph glyph-name="udieresis" unicode="&#xfc;" horiz-adv-x="1021" 
d="M896 146q6 -3 5 -10.5t-6 -18.5q-41 -64 -96.5 -99t-113.5 -35q-42 0 -66.5 20.5t-24.5 62.5q0 29 12 71t32.5 95.5t46.5 118t54 137.5l-1 -30q-57 -132 -125 -223t-137.5 -147t-135 -80.5t-118.5 -24.5q-70 0 -97 32t-21.5 91.5t33.5 139.5l144 427q30 90 21.5 121.5
t-36.5 31.5q-19 0 -45 -15t-62 -56q-9 -9 -15.5 -12t-11.5 -1q-6 3 -5.5 11t6.5 19q38 62 92 96t115 34q45 0 68.5 -22t25.5 -64.5t-20 -107.5l-152 -454q-37 -109 -23.5 -149.5t67.5 -40.5q41 0 98.5 29t121 90.5t123.5 159t106 232.5q23 68 34.5 106.5t15.5 59t4 33.5
q0 20 -6.5 32t-6.5 30q0 28 31 47t80 19q42 0 49.5 -30t-16.5 -97l-191 -551q-32 -94 -25 -128t37 -34q20 0 45.5 15t62.5 56q9 9 15.5 12.5t11.5 0.5zM466 1017q-36 0 -51.5 24.5t-5.5 61.5q9 37 37.5 61.5t64.5 24.5q37 0 52 -24.5t5 -61.5q-9 -36 -37.5 -61t-64.5 -25z
M780 1017q-35 0 -51 24.5t-7 61.5q10 37 39 61.5t64 24.5q37 0 52 -24.5t6 -61.5q-10 -36 -38 -61t-65 -25z" />
    <glyph glyph-name="yacute" unicode="&#xfd;" horiz-adv-x="872" 
d="M605 559q76 186 144 266t143 80q31 0 47 -14.5t16 -39.5q0 -31 -21.5 -52t-64.5 -34q-36 -7 -66.5 -23t-59.5 -48t-59 -85t-64 -135l-251 -613q-52 -131 -116 -209t-143 -112.5t-176 -34.5q-86 0 -131 27t-45 65q0 27 17 44.5t44 17.5q20 0 37 -10.5t33.5 -25t35.5 -29.5
t41.5 -25.5t51.5 -10.5q56 0 104.5 33t85 86.5t56.5 116.5t21 124q0 33 -2 95.5t-5 142.5t-7 167t-8.5 168.5t-8.5 146t-8 99.5q-2 44 -12.5 64.5t-30.5 20.5q-18 0 -37 -14t-42 -51q-7 -11 -12.5 -14.5t-11.5 -1.5t-7.5 9.5t3.5 18.5q21 46 49 75t60 43.5t67 14.5
q43 0 67 -28t28 -87q2 -31 5 -100t6 -160.5t6.5 -191.5t6.5 -195t6 -171l-18 18zM723 1206q35 43 63.5 66.5t58.5 21.5q27 -2 36.5 -20.5t1.5 -40.5q-8 -27 -33.5 -49t-61.5 -45l-211 -143q-6 -3 -12.5 -3.5t-9.5 3.5q-4 4 -1 9.5t8 11.5z" />
    <glyph glyph-name="thorn" unicode="&#xfe;" horiz-adv-x="940" 
d="M479 1465q62 0 82 -43.5t-9 -149.5l-468 -1637q-7 -28 -3.5 -46.5t38.5 -23.5l74 -10q13 -2 18 -6.5t5 -10.5q0 -8 -6.5 -13.5t-19.5 -5.5l-340 -8q-9 0 -15.5 4t-6.5 11t5 12t15 9q35 6 56 15t33 23t19 37l465 1615q19 62 20.5 93.5t-9 43t-30.5 11.5q-21 0 -43.5 -12
t-57.5 -45q-8 -6 -14.5 -9.5t-13.5 -0.5q-5 3 -6 10t7 17q25 36 58.5 62.5t71 42t75.5 15.5zM152 673q-9 -8 -18 -10t-16 3q-9 5 -7.5 15t11.5 19q64 76 136 125t153 71t170 16q106 -7 176.5 -61t100 -150t12.5 -227q-20 -150 -93.5 -262.5t-180 -173.5t-224.5 -56
q-79 4 -132 37t-80 96l32 14q23 -48 65 -73t98 -29q87 -5 166 46.5t137 154t79 251.5q19 125 1 210.5t-64 132t-112 52.5q-108 10 -212 -39t-198 -162z" />
    <glyph glyph-name="ydieresis" unicode="&#xff;" horiz-adv-x="872" 
d="M605 559q76 186 144 266t143 80q31 0 47 -14.5t16 -39.5q0 -31 -21.5 -52t-64.5 -34q-36 -7 -66.5 -23t-59.5 -48t-59 -85t-64 -135l-251 -613q-52 -131 -116 -209t-143 -112.5t-176 -34.5q-86 0 -131 27t-45 65q0 27 17 44.5t44 17.5q20 0 37 -10.5t33.5 -25t35.5 -29.5
t41.5 -25.5t51.5 -10.5q56 0 104.5 33t85 86.5t56.5 116.5t21 124q0 33 -2 95.5t-5 142.5t-7 167t-8.5 168.5t-8.5 146t-8 99.5q-2 44 -12.5 64.5t-30.5 20.5q-18 0 -37 -14t-42 -51q-7 -11 -12.5 -14.5t-11.5 -1.5t-7.5 9.5t3.5 18.5q21 46 49 75t60 43.5t67 14.5
q43 0 67 -28t28 -87q2 -31 5 -100t6 -160.5t6.5 -191.5t6.5 -195t6 -171l-18 18zM411 1017q-36 0 -51.5 24.5t-5.5 61.5q9 37 37.5 61.5t64.5 24.5q37 0 52 -24.5t5 -61.5q-9 -36 -37.5 -61t-64.5 -25zM725 1017q-35 0 -51 24.5t-7 61.5q10 37 39 61.5t64 24.5
q37 0 52 -24.5t6 -61.5q-10 -36 -38 -61t-65 -25z" />
    <glyph glyph-name="Amacron" unicode="&#x100;" horiz-adv-x="1153" 
d="M176 199q-40 -66 -26.5 -106.5t58.5 -48.5l49 -6q12 -2 17 -7t5 -12q0 -9 -7.5 -14t-21.5 -5h-295q-17 0 -24.5 5t-7.5 14t8 14.5t25 10.5q40 7 80 44t85 112l626 988q84 122 161.5 176t151.5 54q18 0 26 -5t7 -13q0 -8 -5.5 -13t-17.5 -7q-38 -3 -62 -33.5t-28 -87.5
q0 -24 -3 -91t-7.5 -163t-9.5 -206t-10 -220.5t-9 -207.5t-6.5 -166t-2.5 -96q0 -20 8 -34t30 -23.5t61 -17.5q19 -3 19 -17q0 -7 -6.5 -12t-20.5 -5h-379q-9 0 -15 4.5t-6 11.5t5.5 11.5t13.5 6.5l106 19q26 5 37 18.5t13 38.5q1 28 5 98.5t9 167.5t10.5 208.5t11 222.5
t10.5 208.5t8 168t3 98.5l22 -7q-9 -6 -22.5 -19t-32 -35.5t-44.5 -56.5zM311 460l17 34h542l-2 -34h-557zM728 1587q5 17 14.5 24.5t24.5 7.5h410q14 0 20 -7.5t1 -24.5q-4 -16 -14 -24t-25 -8h-410q-14 0 -19.5 8t-1.5 24z" />
    <glyph glyph-name="amacron" unicode="&#x101;" horiz-adv-x="958" 
d="M721 223q-25 -98 -19.5 -131.5t33.5 -33.5q21 0 45 15.5t60 55.5q10 10 16 13t12 0t5 -11t-7 -19q-38 -61 -92 -95t-111 -34q-42 0 -65 21.5t-23 66.5q0 22 5 52.5t17 79t33 121t53 176.5l12 -12q-61 -156 -136.5 -269.5t-161 -174.5t-175.5 -61t-138 69.5t-27 225.5
q11 98 53 189.5t107 170.5t147.5 138.5t175 92.5t187.5 33q59 0 98 -8.5t59 -22.5t20 -29q-1 -13 -9 -21.5t-16.5 -16.5t-12.5 -21zM185 272q-18 -121 12.5 -174t85.5 -53q46 0 98 35t104.5 100.5t102 156t91 203.5t70.5 243q8 40 -4 59t-46 19q-71 0 -140.5 -31.5
t-131.5 -87.5t-112.5 -130.5t-84 -161t-45.5 -178.5zM399 1098q4 17 14 24.5t24 7.5h413q15 0 20.5 -7.5t1.5 -24.5q-5 -17 -14.5 -25t-24.5 -8h-413q-14 0 -19.5 8t-1.5 25z" />
    <glyph glyph-name="Abreve" unicode="&#x102;" horiz-adv-x="1153" 
d="M176 199q-40 -66 -26.5 -106.5t58.5 -48.5l49 -6q12 -2 17 -7t5 -12q0 -9 -7.5 -14t-21.5 -5h-295q-17 0 -24.5 5t-7.5 14t8 14.5t25 10.5q40 7 80 44t85 112l626 988q84 122 161.5 176t151.5 54q18 0 26 -5t7 -13q0 -8 -5.5 -13t-17.5 -7q-38 -3 -62 -33.5t-28 -87.5
q0 -24 -3 -91t-7.5 -163t-9.5 -206t-10 -220.5t-9 -207.5t-6.5 -166t-2.5 -96q0 -20 8 -34t30 -23.5t61 -17.5q19 -3 19 -17q0 -7 -6.5 -12t-20.5 -5h-379q-9 0 -15 4.5t-6 11.5t5.5 11.5t13.5 6.5l106 19q26 5 37 18.5t13 38.5q1 28 5 98.5t9 167.5t10.5 208.5t11 222.5
t10.5 208.5t8 168t3 98.5l22 -7q-9 -6 -22.5 -19t-32 -35.5t-44.5 -56.5zM311 460l17 34h542l-2 -34h-557zM973 1576q67 0 120.5 33.5t95.5 110.5q6 10 11 13t10 3q7 0 9.5 -5.5t-0.5 -16.5q-34 -104 -105 -167t-165 -63t-132.5 63t-18.5 167q2 11 7.5 16.5t12.5 5.5
q5 0 8.5 -3t4.5 -13q3 -78 40 -111t102 -33z" />
    <glyph glyph-name="abreve" unicode="&#x103;" horiz-adv-x="958" 
d="M721 223q-25 -98 -19.5 -131.5t33.5 -33.5q21 0 45 15.5t60 55.5q10 10 16 13t12 0t5 -11t-7 -19q-38 -61 -92 -95t-111 -34q-42 0 -65 21.5t-23 66.5q0 22 5 52.5t17 79t33 121t53 176.5l12 -12q-61 -156 -136.5 -269.5t-161 -174.5t-175.5 -61t-138 69.5t-27 225.5
q11 98 53 189.5t107 170.5t147.5 138.5t175 92.5t187.5 33q59 0 98 -8.5t59 -22.5t20 -29q-1 -13 -9 -21.5t-16.5 -16.5t-12.5 -21zM185 272q-18 -121 12.5 -174t85.5 -53q46 0 98 35t104.5 100.5t102 156t91 203.5t70.5 243q8 40 -4 59t-46 19q-71 0 -140.5 -31.5
t-131.5 -87.5t-112.5 -130.5t-84 -161t-45.5 -178.5zM657 1091q67 0 121 35.5t97 114.5q10 17 22 17q7 0 9.5 -5.5t-1.5 -17.5q-35 -109 -107 -174t-166 -65t-132.5 65t-18.5 174q2 12 8.5 17.5t12.5 5.5q11 0 13 -17q3 -80 39.5 -115t102.5 -35z" />
    <glyph glyph-name="Aogonek" unicode="&#x104;" horiz-adv-x="1153" 
d="M935 29l6 -21q-113 -49 -175.5 -128t-63.5 -153q-1 -44 21 -67.5t60 -23.5q34 0 68 17.5t57 45.5q7 6 12 8.5t10 1.5t6 -6.5t-4 -13.5q-20 -35 -70.5 -64.5t-115.5 -29.5q-73 0 -112 31.5t-39 88.5q1 57 39 114.5t113.5 110t187.5 89.5zM176 199q-40 -66 -26.5 -106.5
t58.5 -48.5l49 -6q12 -2 17 -7t5 -12q0 -9 -7.5 -14t-21.5 -5h-295q-17 0 -24.5 5t-7.5 14t8 14.5t25 10.5q40 7 80 44t85 112l626 988q84 122 161.5 176t151.5 54q18 0 26 -5t7 -13q0 -8 -5.5 -13t-17.5 -7q-38 -3 -62 -33.5t-28 -87.5q0 -24 -3 -91t-7.5 -163t-9.5 -206
t-10 -220.5t-9 -207.5t-6.5 -166t-2.5 -96q0 -20 8 -34t30 -23.5t61 -17.5q19 -3 19 -17q0 -7 -6.5 -12t-20.5 -5h-379q-9 0 -15 4.5t-6 11.5t5.5 11.5t13.5 6.5l106 19q26 5 37 18.5t13 38.5q1 28 5 98.5t9 167.5t10.5 208.5t11 222.5t10.5 208.5t8 168t3 98.5l22 -7
q-9 -6 -22.5 -19t-32 -35.5t-44.5 -56.5zM311 460l17 34h542l-2 -34h-557z" />
    <glyph glyph-name="aogonek" unicode="&#x105;" horiz-adv-x="958" 
d="M745 27l8 -19q-105 -52 -163.5 -132.5t-58.5 -153.5q0 -45 23 -68.5t62 -23.5q34 0 68.5 18t57.5 46q5 7 10 9t10 1t6.5 -6t-4.5 -14q-20 -36 -70.5 -66t-116.5 -30q-74 0 -113.5 32t-39.5 88q0 57 35.5 114.5t107.5 110.5t178 94zM721 223q-25 -98 -19.5 -131.5
t33.5 -33.5q21 0 45 15.5t60 55.5q10 10 16 13t12 0t5 -11t-7 -19q-38 -61 -92 -95t-111 -34q-42 0 -65 21.5t-23 66.5q0 22 5 52.5t17 79t33 121t53 176.5l12 -12q-61 -156 -136.5 -269.5t-161 -174.5t-175.5 -61t-138 69.5t-27 225.5q11 98 53 189.5t107 170.5
t147.5 138.5t175 92.5t187.5 33q59 0 98 -8.5t59 -22.5t20 -29q-1 -13 -9 -21.5t-16.5 -16.5t-12.5 -21zM185 272q-18 -121 12.5 -174t85.5 -53q46 0 98 35t104.5 100.5t102 156t91 203.5t70.5 243q8 40 -4 59t-46 19q-71 0 -140.5 -31.5t-131.5 -87.5t-112.5 -130.5
t-84 -161t-45.5 -178.5z" />
    <glyph glyph-name="Cacute" unicode="&#x106;" horiz-adv-x="1223" 
d="M1123 373q8 -4 8 -15t-9 -28q-56 -114 -138 -192.5t-185.5 -118t-225.5 -39.5q-144 0 -251 73.5t-154 217.5t-14 354q25 159 95 302.5t174.5 255t234 176t274.5 64.5q66 0 111 -16t74 -36.5t45.5 -36t23.5 -15.5q9 0 21 15.5t24.5 35.5t24 35.5t20.5 15.5q10 0 16 -7
t7 -21l10 -329q0 -12 -6.5 -18.5t-16.5 -7.5q-17 -1 -26 23l-28 95q-36 121 -110.5 173.5t-185.5 52.5q-118 0 -221 -60t-186 -165t-139.5 -239.5t-80.5 -283.5q-34 -208 0 -339t118.5 -193t201.5 -62q85 0 167 31t155.5 99.5t132.5 181.5q10 14 20 20t19 1zM1095 1679
q40 35 70 54t58 13q24 -5 30.5 -24.5t-3.5 -39.5q-12 -28 -40.5 -46.5t-66.5 -36.5l-222 -106q-6 -3 -12.5 -3t-9.5 4q-3 5 1 10.5t10 10.5z" />
    <glyph glyph-name="cacute" unicode="&#x107;" horiz-adv-x="789" 
d="M554 866q-75 0 -149 -59t-129 -161t-72 -231q-25 -181 25.5 -271t155.5 -90q54 0 108 25.5t99.5 76t70.5 126.5q6 12 11.5 17.5t12.5 5.5t11 -7t1 -20q-13 -57 -44 -110t-79.5 -95t-111.5 -67t-138 -25q-154 0 -222 110t-36 307q17 104 63 195.5t114 161.5t150.5 110
t172.5 40q70 0 117.5 -25.5t72 -67t23.5 -92.5q-2 -51 -24.5 -76.5t-51.5 -25.5q-24 0 -38.5 14.5t-13.5 37.5q0 24 7.5 49.5t8.5 52.5q0 42 -30.5 68t-84.5 26zM697 1206q35 43 63.5 66.5t58.5 21.5q27 -2 36.5 -20.5t1.5 -40.5q-8 -27 -33.5 -49t-61.5 -45l-211 -143
q-6 -3 -12.5 -3.5t-9.5 3.5q-4 4 -1 9.5t8 11.5z" />
    <glyph glyph-name="Ccircumflex" unicode="&#x108;" horiz-adv-x="1223" 
d="M1123 373q8 -4 8 -15t-9 -28q-56 -114 -138 -192.5t-185.5 -118t-225.5 -39.5q-144 0 -251 73.5t-154 217.5t-14 354q25 159 95 302.5t174.5 255t234 176t274.5 64.5q66 0 111 -16t74 -36.5t45.5 -36t23.5 -15.5q9 0 21 15.5t24.5 35.5t24 35.5t20.5 15.5q10 0 16 -7
t7 -21l10 -329q0 -12 -6.5 -18.5t-16.5 -7.5q-17 -1 -26 23l-28 95q-36 121 -110.5 173.5t-185.5 52.5q-118 0 -221 -60t-186 -165t-139.5 -239.5t-80.5 -283.5q-34 -208 0 -339t118.5 -193t201.5 -62q85 0 167 31t155.5 99.5t132.5 181.5q10 14 20 20t19 1zM973 1642h-41
l188 -145q15 -11 26 -4q6 3 8 9.5t-3 14.5l-132 201q-9 13 -17 20.5t-21 7.5t-25 -7.5t-28 -20.5l-236 -201q-9 -8 -10.5 -14.5t1.5 -9.5q5 -4 12 -2.5t16 6.5z" />
    <glyph glyph-name="ccircumflex" unicode="&#x109;" horiz-adv-x="789" 
d="M554 866q-75 0 -149 -59t-129 -161t-72 -231q-25 -181 25.5 -271t155.5 -90q54 0 108 25.5t99.5 76t70.5 126.5q6 12 11.5 17.5t12.5 5.5t11 -7t1 -20q-13 -57 -44 -110t-79.5 -95t-111.5 -67t-138 -25q-154 0 -222 110t-36 307q17 104 63 195.5t114 161.5t150.5 110
t172.5 40q70 0 117.5 -25.5t72 -67t23.5 -92.5q-2 -51 -24.5 -76.5t-51.5 -25.5q-24 0 -38.5 14.5t-13.5 37.5q0 24 7.5 49.5t8.5 52.5q0 42 -30.5 68t-84.5 26zM600 1173h-43l182 -179q7 -6 13.5 -7t12.5 2q5 4 7 10.5t-3 13.5l-125 236q-7 14 -15.5 21t-22.5 7t-26.5 -7
t-27.5 -21l-244 -236q-9 -7 -11 -13.5t1 -10.5q5 -3 12 -2t16 7z" />
    <glyph glyph-name="Cdotaccent" unicode="&#x10a;" horiz-adv-x="1223" 
d="M1123 373q8 -4 8 -15t-9 -28q-56 -114 -138 -192.5t-185.5 -118t-225.5 -39.5q-144 0 -251 73.5t-154 217.5t-14 354q25 159 95 302.5t174.5 255t234 176t274.5 64.5q66 0 111 -16t74 -36.5t45.5 -36t23.5 -15.5q9 0 21 15.5t24.5 35.5t24 35.5t20.5 15.5q10 0 16 -7
t7 -21l10 -329q0 -12 -6.5 -18.5t-16.5 -7.5q-17 -1 -26 23l-28 95q-36 121 -110.5 173.5t-185.5 52.5q-118 0 -221 -60t-186 -165t-139.5 -239.5t-80.5 -283.5q-34 -208 0 -339t118.5 -193t201.5 -62q85 0 167 31t155.5 99.5t132.5 181.5q10 14 20 20t19 1zM921 1519
q-37 0 -54 25t-8 62q10 37 40 61.5t69 24.5q38 0 54.5 -24.5t6.5 -61.5t-39.5 -62t-68.5 -25z" />
    <glyph glyph-name="cdotaccent" unicode="&#x10b;" horiz-adv-x="789" 
d="M554 866q-75 0 -149 -59t-129 -161t-72 -231q-25 -181 25.5 -271t155.5 -90q54 0 108 25.5t99.5 76t70.5 126.5q6 12 11.5 17.5t12.5 5.5t11 -7t1 -20q-13 -57 -44 -110t-79.5 -95t-111.5 -67t-138 -25q-154 0 -222 110t-36 307q17 104 63 195.5t114 161.5t150.5 110
t172.5 40q70 0 117.5 -25.5t72 -67t23.5 -92.5q-2 -51 -24.5 -76.5t-51.5 -25.5q-24 0 -38.5 14.5t-13.5 37.5q0 24 7.5 49.5t8.5 52.5q0 42 -30.5 68t-84.5 26zM554 1017q-37 0 -53 25t-7 63q10 37 39.5 62.5t67.5 25.5t54 -25.5t6 -62.5q-10 -38 -39.5 -63t-67.5 -25z" />
    <glyph glyph-name="Ccaron" unicode="&#x10c;" horiz-adv-x="1223" 
d="M1123 373q8 -4 8 -15t-9 -28q-56 -114 -138 -192.5t-185.5 -118t-225.5 -39.5q-144 0 -251 73.5t-154 217.5t-14 354q25 159 95 302.5t174.5 255t234 176t274.5 64.5q66 0 111 -16t74 -36.5t45.5 -36t23.5 -15.5q9 0 21 15.5t24.5 35.5t24 35.5t20.5 15.5q10 0 16 -7
t7 -21l10 -329q0 -12 -6.5 -18.5t-16.5 -7.5q-17 -1 -26 23l-28 95q-36 121 -110.5 173.5t-185.5 52.5q-118 0 -221 -60t-186 -165t-139.5 -239.5t-80.5 -283.5q-34 -208 0 -339t118.5 -193t201.5 -62q85 0 167 31t155.5 99.5t132.5 181.5q10 14 20 20t19 1zM957 1596
l-188 145q-14 12 -26 4q-5 -3 -7 -9.5t3 -14.5l132 -201q9 -13 17 -20.5t22 -7.5t25 7.5t27 20.5l235 201q10 8 12 14.5t-2 9.5q-4 4 -11.5 2.5t-17.5 -6.5l-262 -145h41z" />
    <glyph glyph-name="ccaron" unicode="&#x10d;" horiz-adv-x="789" 
d="M554 866q-75 0 -149 -59t-129 -161t-72 -231q-25 -181 25.5 -271t155.5 -90q54 0 108 25.5t99.5 76t70.5 126.5q6 12 11.5 17.5t12.5 5.5t11 -7t1 -20q-13 -57 -44 -110t-79.5 -95t-111.5 -67t-138 -25q-154 0 -222 110t-36 307q17 104 63 195.5t114 161.5t150.5 110
t172.5 40q70 0 117.5 -25.5t72 -67t23.5 -92.5q-2 -51 -24.5 -76.5t-51.5 -25.5q-24 0 -38.5 14.5t-13.5 37.5q0 24 7.5 49.5t8.5 52.5q0 42 -30.5 68t-84.5 26zM581 1092l-181 179q-6 6 -12.5 7.5t-13.5 -2.5q-5 -3 -6.5 -9.5t2.5 -15.5l125 -235q8 -14 17 -21t22 -7
q14 0 26 7t28 21l244 235q9 9 11 15.5t-2 9.5q-4 4 -11 2.5t-17 -7.5l-273 -179h41z" />
    <glyph glyph-name="Dcaron" unicode="&#x10e;" horiz-adv-x="1384" 
d="M6 17q0 8 7.5 13t22.5 8l76 9q19 3 33.5 10.5t25 23t19.5 40.5q15 59 36 136.5t45.5 167t51 185t53 191.5t50.5 185.5t44 167t34 135.5q7 29 -1 42.5t-36 17.5l-76 13q-18 4 -24.5 7.5t-6.5 12.5t7 13.5t23 4.5h456q128 0 233.5 -45t178.5 -131t102.5 -210.5t4.5 -282.5
q-27 -165 -102.5 -299.5t-190.5 -231t-262 -148.5t-317 -52h-463q-13 0 -18.5 5t-5.5 12zM501 39q134 0 252 48t213 139.5t160 220t92 290.5q26 156 5.5 273.5t-76 196t-134.5 118t-171 39.5h-124q-25 0 -42 -14.5t-26 -44.5q-16 -61 -37 -140t-46.5 -170t-52.5 -188.5
t-54 -194t-51.5 -187t-44 -168t-32.5 -134.5q-9 -42 4 -63t50 -21h115zM972 1587l-188 145q-14 12 -26 4q-5 -3 -7 -9.5t3 -14.5l132 -201q9 -13 17 -20.5t22 -7.5t25 7.5t27 20.5l235 201q10 8 12 14.5t-2 9.5q-4 4 -11.5 2.5t-17.5 -6.5l-262 -145h41z" />
    <glyph glyph-name="dcaron" unicode="&#x10f;" horiz-adv-x="974" 
d="M1027 1244l-300 -1019q-19 -66 -22.5 -102t6 -50.5t29.5 -14.5t44.5 15t61.5 56q9 10 15 13t12 0t5.5 -11t-6.5 -19q-26 -41 -58.5 -69.5t-69 -44t-74.5 -15.5q-44 0 -69 22t-25 66q0 28 10 72.5t32 121t59 198.5l18 -8q-70 -151 -153.5 -256.5t-168.5 -160.5t-161 -55
q-82 0 -129 62t-38 197q7 130 64.5 248.5t147 211.5t196.5 146.5t214 53.5q56 0 92.5 -14t55.5 -39t22 -57l-55 -16q-7 39 -34 63.5t-85 24.5q-66 0 -133.5 -34t-129 -94.5t-111 -140t-80 -170.5t-35.5 -186q-7 -106 24.5 -147.5t79.5 -41.5q45 0 105 42.5t123.5 118.5
t119 177.5t90.5 219.5l182 612q25 82 15.5 111.5t-36.5 29.5q-19 0 -43 -13t-57 -47q-9 -9 -15.5 -12t-12.5 -1q-5 3 -4.5 10.5t6.5 18.5q25 39 57 66.5t69.5 41.5t73.5 14q43 0 66.5 -21t26.5 -64t-17 -110zM1148 1369q18 53 38.5 83t54.5 35q27 3 42 -10.5t12 -36.5
q-2 -23 -17.5 -47.5t-38.5 -51.5l-137 -186q-5 -6 -10 -8.5t-11 -1.5q-5 3 -4.5 8.5t3.5 12.5z" />
    <glyph glyph-name="Dcroat" unicode="&#x110;" horiz-adv-x="1381" 
d="M103 704q2 8 8.5 12.5t15.5 4.5h646q10 0 13 -4.5t0 -12.5q-2 -7 -8 -11.5t-16 -4.5h-646q-9 0 -12.5 4.5t-0.5 11.5zM4 17q0 8 7 13t23 8l76 9q19 3 33.5 10.5t25 23t19.5 40.5q15 59 36 136.5t45.5 167t51 185t53 191.5t50.5 185.5t44 167t33 135.5q8 29 0 42.5
t-36 17.5l-76 13q-19 4 -25.5 7.5t-6.5 12.5t7.5 13.5t23.5 4.5h456q127 0 233 -45t179 -131t102 -210.5t4 -282.5q-26 -165 -101.5 -299.5t-190.5 -231t-262 -148.5t-317 -52h-463q-13 0 -18.5 5t-5.5 12zM499 39q134 0 252 48t213 139.5t160 220t91 290.5
q26 156 5.5 273.5t-75.5 196t-134 118t-171 39.5h-124q-25 0 -42 -14.5t-27 -44.5q-15 -61 -36.5 -140t-46.5 -170t-52.5 -188.5t-54 -194t-51 -187t-44.5 -168t-33 -134.5q-8 -42 5 -63t50 -21h115z" />
    <glyph glyph-name="dcroat" unicode="&#x111;" horiz-adv-x="969" 
d="M1076 1426l-344 -1171q-25 -84 -32 -125.5t3 -55t33 -13.5q21 0 46 15.5t61 56.5q8 7 14.5 10.5t12.5 -0.5q6 -3 6 -11t-7 -18q-25 -40 -58.5 -69.5t-71 -45.5t-76.5 -16q-45 0 -69.5 21.5t-24.5 66.5q0 28 10 72t32 120.5t60 199.5l14 -3q-70 -153 -153.5 -259.5
t-168 -162t-159.5 -55.5q-78 0 -122.5 60.5t-37.5 185.5q6 134 63 256t147 216.5t197.5 149.5t214.5 55q58 0 93.5 -15.5t52.5 -42.5t19 -60l-57 -11q-5 39 -31 65.5t-86 26.5q-65 0 -132.5 -35t-129 -96t-111 -142.5t-80 -175.5t-34.5 -193q-5 -101 26 -139t76 -38
q36 0 82 27.5t97 78.5t100.5 120t91 153.5t68.5 178.5l232 773q4 13 14 25.5t23.5 23.5t28 19.5t28 13t23.5 4.5q15 0 19 -10.5t-3 -30.5zM622 1142q2 8 8 12.5t13 4.5h471q8 0 11.5 -4.5t1.5 -11.5q-4 -17 -22 -17h-470q-19 0 -13 16z" />
    <glyph glyph-name="Emacron" unicode="&#x112;" horiz-adv-x="1164" 
d="M430 718h356q50 0 81 32t33 121q1 8 6 13t12 5q10 0 16 -5.5t8 -16.5l47 -303q3 -17 -2 -24t-14 -8t-15 3.5t-11 13.5q-25 79 -59.5 107.5t-97.5 28.5h-370zM727 0h-698q-13 0 -19 5t-6 13q0 7 7 12.5t18 7.5l91 13q26 4 40.5 17t23.5 40q13 50 33.5 125t46 166.5
t53.5 192t56 201.5t53.5 195t45.5 172.5t33 132.5q5 24 -2 38.5t-24 17.5l-90 13q-12 3 -17.5 7.5t-5.5 11.5q0 9 7.5 14t19.5 5h672q47 0 74 16.5t47 16.5q24 0 29 -29l33 -268q4 -16 -1 -24t-14 -9q-12 -1 -19.5 5.5t-14.5 22.5q-28 99 -56.5 149.5t-63 69t-81.5 18.5
h-335q-20 -71 -45.5 -162t-53.5 -193t-57 -208.5t-57 -209.5t-52 -195t-42.5 -166t-29.5 -122q-7 -26 0 -44t33.5 -26.5t79.5 -8.5h235q71 0 130 29t109.5 92t95.5 164q10 19 23 19q17 0 16 -23q-2 -65 -24 -125.5t-56.5 -108.5t-76.5 -76t-84 -28q-20 0 -37 12t-43 12z
M628 1587q5 17 14.5 24.5t24.5 7.5h410q14 0 20 -7.5t1 -24.5q-4 -16 -14 -24t-25 -8h-410q-14 0 -19.5 8t-1.5 24z" />
    <glyph glyph-name="emacron" unicode="&#x113;" horiz-adv-x="823" 
d="M139 416l40 16t103 41.5t133.5 54t133.5 54t102 41.5l-16 -22q6 16 9.5 38t3.5 56q0 74 -30.5 122.5t-78.5 48.5q-54 0 -109 -38t-104 -106t-83 -161t-46 -202q-15 -151 39.5 -229t154.5 -78q64 0 123 26.5t106.5 78.5t75.5 130q6 11 11.5 15.5t12.5 4.5t11 -7t1 -22
q-22 -82 -76.5 -149.5t-138 -106.5t-193.5 -39q-90 0 -152.5 40.5t-90.5 118t-18 188.5q11 115 56 218t115 183t154 126t173 46q65 0 109 -29t67.5 -77t24.5 -105q0 -12 6.5 -17.5t19.5 -3.5q10 2 15 -1t6 -11t-6.5 -14.5t-27.5 -14.5q-24 -10 -79.5 -31.5t-126.5 -49.5
t-145.5 -57.5t-138 -54t-102.5 -40l-39 -15.5zM297 1098q4 17 14 24.5t24 7.5h413q15 0 20.5 -7.5t1.5 -24.5q-5 -17 -14.5 -25t-24.5 -8h-413q-14 0 -19.5 8t-1.5 25z" />
    <glyph glyph-name="Ebreve" unicode="&#x114;" horiz-adv-x="1164" 
d="M430 718h356q50 0 81 32t33 121q1 8 6 13t12 5q10 0 16 -5.5t8 -16.5l47 -303q3 -17 -2 -24t-14 -8t-15 3.5t-11 13.5q-25 79 -59.5 107.5t-97.5 28.5h-370zM727 0h-698q-13 0 -19 5t-6 13q0 7 7 12.5t18 7.5l91 13q26 4 40.5 17t23.5 40q13 50 33.5 125t46 166.5
t53.5 192t56 201.5t53.5 195t45.5 172.5t33 132.5q5 24 -2 38.5t-24 17.5l-90 13q-12 3 -17.5 7.5t-5.5 11.5q0 9 7.5 14t19.5 5h672q47 0 74 16.5t47 16.5q24 0 29 -29l33 -268q4 -16 -1 -24t-14 -9q-12 -1 -19.5 5.5t-14.5 22.5q-28 99 -56.5 149.5t-63 69t-81.5 18.5
h-335q-20 -71 -45.5 -162t-53.5 -193t-57 -208.5t-57 -209.5t-52 -195t-42.5 -166t-29.5 -122q-7 -26 0 -44t33.5 -26.5t79.5 -8.5h235q71 0 130 29t109.5 92t95.5 164q10 19 23 19q17 0 16 -23q-2 -65 -24 -125.5t-56.5 -108.5t-76.5 -76t-84 -28q-20 0 -37 12t-43 12z
M874 1576q67 0 120.5 33.5t95.5 110.5q6 10 11 13t10 3q7 0 9.5 -5.5t-0.5 -16.5q-34 -104 -105 -167t-165 -63t-132.5 63t-18.5 167q2 11 7.5 16.5t12.5 5.5q5 0 8.5 -3t4.5 -13q3 -78 40 -111t102 -33z" />
    <glyph glyph-name="ebreve" unicode="&#x115;" horiz-adv-x="823" 
d="M139 416l40 16t103 41.5t133.5 54t133.5 54t102 41.5l-16 -22q6 16 9.5 38t3.5 56q0 74 -30.5 122.5t-78.5 48.5q-54 0 -109 -38t-104 -106t-83 -161t-46 -202q-15 -151 39.5 -229t154.5 -78q64 0 123 26.5t106.5 78.5t75.5 130q6 11 11.5 15.5t12.5 4.5t11 -7t1 -22
q-22 -82 -76.5 -149.5t-138 -106.5t-193.5 -39q-90 0 -152.5 40.5t-90.5 118t-18 188.5q11 115 56 218t115 183t154 126t173 46q65 0 109 -29t67.5 -77t24.5 -105q0 -12 6.5 -17.5t19.5 -3.5q10 2 15 -1t6 -11t-6.5 -14.5t-27.5 -14.5q-24 -10 -79.5 -31.5t-126.5 -49.5
t-145.5 -57.5t-138 -54t-102.5 -40l-39 -15.5zM555 1091q67 0 121 35.5t97 114.5q10 17 22 17q7 0 9.5 -5.5t-1.5 -17.5q-35 -109 -107 -174t-166 -65t-132.5 65t-18.5 174q2 12 8.5 17.5t12.5 5.5q11 0 13 -17q3 -80 39.5 -115t102.5 -35z" />
    <glyph glyph-name="Edotaccent" unicode="&#x116;" horiz-adv-x="1164" 
d="M430 718h356q50 0 81 32t33 121q1 8 6 13t12 5q10 0 16 -5.5t8 -16.5l47 -303q3 -17 -2 -24t-14 -8t-15 3.5t-11 13.5q-25 79 -59.5 107.5t-97.5 28.5h-370zM727 0h-698q-13 0 -19 5t-6 13q0 7 7 12.5t18 7.5l91 13q26 4 40.5 17t23.5 40q13 50 33.5 125t46 166.5
t53.5 192t56 201.5t53.5 195t45.5 172.5t33 132.5q5 24 -2 38.5t-24 17.5l-90 13q-12 3 -17.5 7.5t-5.5 11.5q0 9 7.5 14t19.5 5h672q47 0 74 16.5t47 16.5q24 0 29 -29l33 -268q4 -16 -1 -24t-14 -9q-12 -1 -19.5 5.5t-14.5 22.5q-28 99 -56.5 149.5t-63 69t-81.5 18.5
h-335q-20 -71 -45.5 -162t-53.5 -193t-57 -208.5t-57 -209.5t-52 -195t-42.5 -166t-29.5 -122q-7 -26 0 -44t33.5 -26.5t79.5 -8.5h235q71 0 130 29t109.5 92t95.5 164q10 19 23 19q17 0 16 -23q-2 -65 -24 -125.5t-56.5 -108.5t-76.5 -76t-84 -28q-20 0 -37 12t-43 12z
M844 1510q-37 0 -54 25t-8 62q10 37 40 61.5t69 24.5q38 0 54.5 -24.5t6.5 -61.5t-39.5 -62t-68.5 -25z" />
    <glyph glyph-name="edotaccent" unicode="&#x117;" horiz-adv-x="823" 
d="M139 416l40 16t103 41.5t133.5 54t133.5 54t102 41.5l-16 -22q6 16 9.5 38t3.5 56q0 74 -30.5 122.5t-78.5 48.5q-54 0 -109 -38t-104 -106t-83 -161t-46 -202q-15 -151 39.5 -229t154.5 -78q64 0 123 26.5t106.5 78.5t75.5 130q6 11 11.5 15.5t12.5 4.5t11 -7t1 -22
q-22 -82 -76.5 -149.5t-138 -106.5t-193.5 -39q-90 0 -152.5 40.5t-90.5 118t-18 188.5q11 115 56 218t115 183t154 126t173 46q65 0 109 -29t67.5 -77t24.5 -105q0 -12 6.5 -17.5t19.5 -3.5q10 2 15 -1t6 -11t-6.5 -14.5t-27.5 -14.5q-24 -10 -79.5 -31.5t-126.5 -49.5
t-145.5 -57.5t-138 -54t-102.5 -40l-39 -15.5zM530 1017q-37 0 -53 25t-7 63q10 37 39.5 62.5t67.5 25.5t54 -25.5t6 -62.5q-10 -38 -39.5 -63t-67.5 -25z" />
    <glyph glyph-name="Eogonek" unicode="&#x118;" horiz-adv-x="1164" 
d="M430 718h356q50 0 81 32t33 121q1 8 6 13t12 5q10 0 16 -5.5t8 -16.5l47 -303q3 -17 -2 -24t-14 -8t-15 3.5t-11 13.5q-25 79 -59.5 107.5t-97.5 28.5h-370zM727 0h-698q-13 0 -19 5t-6 13q0 7 7 12.5t18 7.5l91 13q26 4 40.5 17t23.5 40q13 50 33.5 125t46 166.5
t53.5 192t56 201.5t53.5 195t45.5 172.5t33 132.5q5 24 -2 38.5t-24 17.5l-90 13q-12 3 -17.5 7.5t-5.5 11.5q0 9 7.5 14t19.5 5h672q47 0 74 16.5t47 16.5q24 0 29 -29l33 -268q4 -16 -1 -24t-14 -9q-12 -1 -19.5 5.5t-14.5 22.5q-28 99 -56.5 149.5t-63 69t-81.5 18.5
h-335q-20 -71 -45.5 -162t-53.5 -193t-57 -208.5t-57 -209.5t-52 -195t-42.5 -166t-29.5 -122q-7 -26 0 -44t33.5 -26.5t79.5 -8.5h235q71 0 130 29t109.5 92t95.5 164q10 19 23 19q17 0 16 -23q-2 -65 -24 -125.5t-56.5 -108.5t-76.5 -76t-84 -28q-20 0 -37 12t-43 12z
M876 20l7 -21q-102 -44 -159.5 -103t-76.5 -135q-16 -64 5.5 -97.5t72.5 -33.5q34 0 68.5 18t57.5 46q6 7 10.5 9t10.5 1q5 -1 6 -6t-4 -14q-21 -36 -72 -66t-117 -30q-87 0 -126 43t-20 118q14 54 54.5 103t111 91.5t171.5 76.5z" />
    <glyph glyph-name="eogonek" unicode="&#x119;" horiz-adv-x="796" 
d="M143 397l-5 30q76 30 167.5 66.5t186 74.5t177.5 70l-32 -27q7 31 9.5 51.5t2.5 41.5q0 73 -30 119.5t-80 46.5q-54 0 -109.5 -38t-104.5 -107.5t-83.5 -162.5t-45.5 -203q-15 -152 39.5 -229.5t152.5 -77.5q95 0 175.5 58.5t128.5 178.5q6 10 11 14t12 4q8 0 11 -6.5
t2 -16.5q-14 -58 -43.5 -107t-73.5 -88t-103 -69q-73 -37 -123.5 -86.5t-76 -102.5t-25.5 -102q0 -48 22 -73.5t62 -25.5q34 0 68.5 18t56.5 46q6 7 11 9t11 1q4 -1 5.5 -6t-4.5 -14q-20 -36 -71 -66t-116 -30q-74 0 -113 33t-39 92q0 45 24.5 94.5t78 99.5t139.5 97l4 -9
q-40 -7 -62 -9.5t-42 -2.5q-88 0 -149 40.5t-88.5 118t-17.5 188.5q11 115 56 218.5t114.5 184.5t154.5 127.5t174 46.5q64 0 107 -28.5t65 -75.5t23 -104q1 -11 7.5 -16t19.5 -3q9 2 14.5 -1.5t5.5 -11.5q1 -8 -5 -14t-18 -11q-68 -27 -149.5 -58t-167 -64t-168 -64
t-153.5 -59z" />
    <glyph glyph-name="Ecaron" unicode="&#x11a;" horiz-adv-x="1164" 
d="M430 718h356q50 0 81 32t33 121q1 8 6 13t12 5q10 0 16 -5.5t8 -16.5l47 -303q3 -17 -2 -24t-14 -8t-15 3.5t-11 13.5q-25 79 -59.5 107.5t-97.5 28.5h-370zM727 0h-698q-13 0 -19 5t-6 13q0 7 7 12.5t18 7.5l91 13q26 4 40.5 17t23.5 40q13 50 33.5 125t46 166.5
t53.5 192t56 201.5t53.5 195t45.5 172.5t33 132.5q5 24 -2 38.5t-24 17.5l-90 13q-12 3 -17.5 7.5t-5.5 11.5q0 9 7.5 14t19.5 5h672q47 0 74 16.5t47 16.5q24 0 29 -29l33 -268q4 -16 -1 -24t-14 -9q-12 -1 -19.5 5.5t-14.5 22.5q-28 99 -56.5 149.5t-63 69t-81.5 18.5
h-335q-20 -71 -45.5 -162t-53.5 -193t-57 -208.5t-57 -209.5t-52 -195t-42.5 -166t-29.5 -122q-7 -26 0 -44t33.5 -26.5t79.5 -8.5h235q71 0 130 29t109.5 92t95.5 164q10 19 23 19q17 0 16 -23q-2 -65 -24 -125.5t-56.5 -108.5t-76.5 -76t-84 -28q-20 0 -37 12t-43 12z
M879 1587l-188 145q-14 12 -26 4q-5 -3 -7 -9.5t3 -14.5l132 -201q9 -13 17 -20.5t22 -7.5t25 7.5t27 20.5l235 201q10 8 12 14.5t-2 9.5q-4 4 -11.5 2.5t-17.5 -6.5l-262 -145h41z" />
    <glyph glyph-name="ecaron" unicode="&#x11b;" horiz-adv-x="823" 
d="M139 416l40 16t103 41.5t133.5 54t133.5 54t102 41.5l-16 -22q6 16 9.5 38t3.5 56q0 74 -30.5 122.5t-78.5 48.5q-54 0 -109 -38t-104 -106t-83 -161t-46 -202q-15 -151 39.5 -229t154.5 -78q64 0 123 26.5t106.5 78.5t75.5 130q6 11 11.5 15.5t12.5 4.5t11 -7t1 -22
q-22 -82 -76.5 -149.5t-138 -106.5t-193.5 -39q-90 0 -152.5 40.5t-90.5 118t-18 188.5q11 115 56 218t115 183t154 126t173 46q65 0 109 -29t67.5 -77t24.5 -105q0 -12 6.5 -17.5t19.5 -3.5q10 2 15 -1t6 -11t-6.5 -14.5t-27.5 -14.5q-24 -10 -79.5 -31.5t-126.5 -49.5
t-145.5 -57.5t-138 -54t-102.5 -40l-39 -15.5zM557 1092l-181 179q-6 6 -12.5 7.5t-13.5 -2.5q-5 -3 -6.5 -9.5t2.5 -15.5l125 -235q8 -14 17 -21t22 -7q14 0 26 7t28 21l244 235q9 9 11 15.5t-2 9.5q-4 4 -11 2.5t-17 -7.5l-273 -179h41z" />
    <glyph glyph-name="Gcircumflex" unicode="&#x11c;" horiz-adv-x="1309" 
d="M939 1428q79 0 130 -16.5t82 -37t47.5 -36.5t25.5 -16t21.5 13.5t25.5 32t24.5 32.5t19.5 14q12 0 18.5 -7t8.5 -24l6 -315q1 -12 -4.5 -18t-15.5 -6q-7 0 -14 5.5t-11 15.5l-25 78q-29 88 -73 142t-104 78.5t-138 24.5q-125 0 -235.5 -61t-200.5 -168t-150.5 -244.5
t-86.5 -288.5q-33 -212 -1 -346t114.5 -197.5t200.5 -63.5q87 0 160.5 28t124.5 78t70 116l72 256q9 28 2.5 44t-33.5 19l-97 13q-14 2 -19 7t-5 13q0 10 8 14.5t21 4.5h384q14 0 19 -4t4 -13q-1 -7 -8 -12.5t-23 -9.5l-68 -16q-21 -4 -32.5 -14.5t-17.5 -30.5l-145 -503
q-6 -18 -14 -25t-21 -7q-7 0 -14 11.5t-14.5 28.5t-15.5 34t-15 29t-13 12q-10 0 -33 -17.5t-63 -40.5t-100 -40.5t-145 -17.5q-153 0 -263 74.5t-157 217.5t-15 348q25 159 97.5 305t181 260t242 180.5t280.5 66.5zM997 1642h-41l188 -145q15 -11 26 -4q6 3 8 9.5t-3 14.5
l-132 201q-9 13 -17 20.5t-21 7.5t-25 -7.5t-28 -20.5l-236 -201q-9 -8 -10.5 -14.5t1.5 -9.5q5 -4 12 -2.5t16 6.5z" />
    <glyph glyph-name="gcircumflex" unicode="&#x11d;" horiz-adv-x="896" 
d="M672 -2q-42 -177 -132 -286.5t-216.5 -159t-278.5 -49.5q-82 0 -120.5 22.5t-38.5 58.5q0 25 19 42t53 17q28 0 55 -12t54 -27.5t56 -27t60 -11.5q70 0 136 34t119.5 109.5t83.5 198.5l141 555l17 -11q-65 -156 -141 -260.5t-157.5 -156t-164.5 -51.5q-54 0 -96.5 26
t-63.5 84t-11 153q10 105 50 201.5t103.5 179.5t146.5 145t178.5 96.5t198.5 34.5q55 0 93.5 -8t58.5 -20.5t20 -28.5q-1 -13 -8.5 -20.5l-15.5 -15.5t-11 -22zM177 265q-9 -85 5 -132.5t41 -66t59 -18.5q55 0 115.5 47.5t118 127t104.5 176.5t77 197t34 188q3 38 -8.5 57
t-42.5 19q-67 0 -135 -31.5t-130.5 -87.5t-113 -131t-83 -163t-41.5 -182zM674 1173h-43l182 -179q7 -6 13.5 -7t12.5 2q5 4 7 10.5t-3 13.5l-125 236q-7 14 -15.5 21t-22.5 7t-26.5 -7t-27.5 -21l-244 -236q-9 -7 -11 -13.5t1 -10.5q5 -3 12 -2t16 7z" />
    <glyph glyph-name="Gbreve" unicode="&#x11e;" horiz-adv-x="1309" 
d="M939 1428q79 0 130 -16.5t82 -37t47.5 -36.5t25.5 -16t21.5 13.5t25.5 32t24.5 32.5t19.5 14q12 0 18.5 -7t8.5 -24l6 -315q1 -12 -4.5 -18t-15.5 -6q-7 0 -14 5.5t-11 15.5l-25 78q-29 88 -73 142t-104 78.5t-138 24.5q-125 0 -235.5 -61t-200.5 -168t-150.5 -244.5
t-86.5 -288.5q-33 -212 -1 -346t114.5 -197.5t200.5 -63.5q87 0 160.5 28t124.5 78t70 116l72 256q9 28 2.5 44t-33.5 19l-97 13q-14 2 -19 7t-5 13q0 10 8 14.5t21 4.5h384q14 0 19 -4t4 -13q-1 -7 -8 -12.5t-23 -9.5l-68 -16q-21 -4 -32.5 -14.5t-17.5 -30.5l-145 -503
q-6 -18 -14 -25t-21 -7q-7 0 -14 11.5t-14.5 28.5t-15.5 34t-15 29t-13 12q-10 0 -33 -17.5t-63 -40.5t-100 -40.5t-145 -17.5q-153 0 -263 74.5t-157 217.5t-15 348q25 159 97.5 305t181 260t242 180.5t280.5 66.5zM977 1585q67 0 120.5 33.5t95.5 110.5q6 10 11 13t10 3
q7 0 9.5 -5.5t-0.5 -16.5q-34 -104 -105 -167t-165 -63t-132.5 63t-18.5 167q2 11 7.5 16.5t12.5 5.5q5 0 8.5 -3t4.5 -13q3 -78 40 -111t102 -33z" />
    <glyph glyph-name="gbreve" unicode="&#x11f;" horiz-adv-x="896" 
d="M672 -2q-42 -177 -132 -286.5t-216.5 -159t-278.5 -49.5q-82 0 -120.5 22.5t-38.5 58.5q0 25 19 42t53 17q28 0 55 -12t54 -27.5t56 -27t60 -11.5q70 0 136 34t119.5 109.5t83.5 198.5l141 555l17 -11q-65 -156 -141 -260.5t-157.5 -156t-164.5 -51.5q-54 0 -96.5 26
t-63.5 84t-11 153q10 105 50 201.5t103.5 179.5t146.5 145t178.5 96.5t198.5 34.5q55 0 93.5 -8t58.5 -20.5t20 -28.5q-1 -13 -8.5 -20.5l-15.5 -15.5t-11 -22zM177 265q-9 -85 5 -132.5t41 -66t59 -18.5q55 0 115.5 47.5t118 127t104.5 176.5t77 197t34 188q3 38 -8.5 57
t-42.5 19q-67 0 -135 -31.5t-130.5 -87.5t-113 -131t-83 -163t-41.5 -182zM657 1091q67 0 121 35.5t97 114.5q10 17 22 17q7 0 9.5 -5.5t-1.5 -17.5q-35 -109 -107 -174t-166 -65t-132.5 65t-18.5 174q2 12 8.5 17.5t12.5 5.5q11 0 13 -17q3 -80 39.5 -115t102.5 -35z" />
    <glyph glyph-name="Gdotaccent" unicode="&#x120;" horiz-adv-x="1309" 
d="M939 1428q79 0 130 -16.5t82 -37t47.5 -36.5t25.5 -16t21.5 13.5t25.5 32t24.5 32.5t19.5 14q12 0 18.5 -7t8.5 -24l6 -315q1 -12 -4.5 -18t-15.5 -6q-7 0 -14 5.5t-11 15.5l-25 78q-29 88 -73 142t-104 78.5t-138 24.5q-125 0 -235.5 -61t-200.5 -168t-150.5 -244.5
t-86.5 -288.5q-33 -212 -1 -346t114.5 -197.5t200.5 -63.5q87 0 160.5 28t124.5 78t70 116l72 256q9 28 2.5 44t-33.5 19l-97 13q-14 2 -19 7t-5 13q0 10 8 14.5t21 4.5h384q14 0 19 -4t4 -13q-1 -7 -8 -12.5t-23 -9.5l-68 -16q-21 -4 -32.5 -14.5t-17.5 -30.5l-145 -503
q-6 -18 -14 -25t-21 -7q-7 0 -14 11.5t-14.5 28.5t-15.5 34t-15 29t-13 12q-10 0 -33 -17.5t-63 -40.5t-100 -40.5t-145 -17.5q-153 0 -263 74.5t-157 217.5t-15 348q25 159 97.5 305t181 260t242 180.5t280.5 66.5zM947 1519q-37 0 -54 25t-8 62q10 37 40 61.5t69 24.5
q38 0 54.5 -24.5t6.5 -61.5t-39.5 -62t-68.5 -25z" />
    <glyph glyph-name="gdotaccent" unicode="&#x121;" horiz-adv-x="896" 
d="M672 -2q-42 -177 -132 -286.5t-216.5 -159t-278.5 -49.5q-82 0 -120.5 22.5t-38.5 58.5q0 25 19 42t53 17q28 0 55 -12t54 -27.5t56 -27t60 -11.5q70 0 136 34t119.5 109.5t83.5 198.5l141 555l17 -11q-65 -156 -141 -260.5t-157.5 -156t-164.5 -51.5q-54 0 -96.5 26
t-63.5 84t-11 153q10 105 50 201.5t103.5 179.5t146.5 145t178.5 96.5t198.5 34.5q55 0 93.5 -8t58.5 -20.5t20 -28.5q-1 -13 -8.5 -20.5l-15.5 -15.5t-11 -22zM177 265q-9 -85 5 -132.5t41 -66t59 -18.5q55 0 115.5 47.5t118 127t104.5 176.5t77 197t34 188q3 38 -8.5 57
t-42.5 19q-67 0 -135 -31.5t-130.5 -87.5t-113 -131t-83 -163t-41.5 -182zM632 1017q-37 0 -53 25t-7 63q10 37 39.5 62.5t67.5 25.5t54 -25.5t6 -62.5q-10 -38 -39.5 -63t-67.5 -25z" />
    <glyph glyph-name="Gcommaaccent" unicode="&#x122;" horiz-adv-x="1309" 
d="M939 1428q79 0 130 -16.5t82 -37t47.5 -36.5t25.5 -16t21.5 13.5t25.5 32t24.5 32.5t19.5 14q12 0 18.5 -7t8.5 -24l6 -315q1 -12 -4.5 -18t-15.5 -6q-7 0 -14 5.5t-11 15.5l-25 78q-29 88 -73 142t-104 78.5t-138 24.5q-125 0 -235.5 -61t-200.5 -168t-150.5 -244.5
t-86.5 -288.5q-33 -212 -1 -346t114.5 -197.5t200.5 -63.5q87 0 160.5 28t124.5 78t70 116l72 256q9 28 2.5 44t-33.5 19l-97 13q-14 2 -19 7t-5 13q0 10 8 14.5t21 4.5h384q14 0 19 -4t4 -13q-1 -7 -8 -12.5t-23 -9.5l-68 -16q-21 -4 -32.5 -14.5t-17.5 -30.5l-145 -503
q-6 -18 -14 -25t-21 -7q-7 0 -14 11.5t-14.5 28.5t-15.5 34t-15 29t-13 12q-10 0 -33 -17.5t-63 -40.5t-100 -40.5t-145 -17.5q-153 0 -263 74.5t-157 217.5t-15 348q25 159 97.5 305t181 260t242 180.5t280.5 66.5zM578 -282q-39 0 -53.5 21.5t-6.5 51.5q9 36 37.5 58
t62.5 22q39 0 56 -30.5t0 -92.5q-19 -77 -73.5 -128t-130.5 -69q-10 -3 -15.5 -1t-6.5 8q0 6 4.5 11t12.5 7q43 11 75.5 31t53 44.5t25.5 46.5q5 20 -14 20h-27z" />
    <glyph glyph-name="gcommaaccent" unicode="&#x123;" horiz-adv-x="896" 
d="M672 -2q-42 -177 -132 -286.5t-216.5 -159t-278.5 -49.5q-82 0 -120.5 22.5t-38.5 58.5q0 25 19 42t53 17q28 0 55 -12t54 -27.5t56 -27t60 -11.5q70 0 136 34t119.5 109.5t83.5 198.5l141 555l17 -11q-65 -156 -141 -260.5t-157.5 -156t-164.5 -51.5q-54 0 -96.5 26
t-63.5 84t-11 153q10 105 50 201.5t103.5 179.5t146.5 145t178.5 96.5t198.5 34.5q55 0 93.5 -8t58.5 -20.5t20 -28.5q-1 -13 -8.5 -20.5l-15.5 -15.5t-11 -22zM177 265q-9 -85 5 -132.5t41 -66t59 -18.5q55 0 115.5 47.5t118 127t104.5 176.5t77 197t34 188q3 38 -8.5 57
t-42.5 19q-67 0 -135 -31.5t-130.5 -87.5t-113 -131t-83 -163t-41.5 -182zM632 1155q40 0 54.5 -21.5t6.5 -53.5q-9 -35 -37 -57t-62 -22q-40 0 -56.5 31t-1.5 92q21 78 75.5 128.5t129.5 69.5q12 3 17 1t5 -9q1 -5 -3.5 -10.5t-13.5 -7.5q-42 -10 -74.5 -30t-52.5 -44
t-26 -47q-6 -20 13 -20h26z" />
    <glyph glyph-name="Hcircumflex" unicode="&#x124;" horiz-adv-x="1449" 
d="M326 112q-5 -27 1.5 -44t29.5 -20l88 -11q12 -2 17.5 -7t5.5 -13t-8 -12.5t-21 -4.5h-409q-14 0 -20 5t-6 12q-1 8 6.5 13.5t20.5 7.5l85 10q27 4 43 19.5t26 43.5q14 52 35 128t46.5 167.5t53 191.5l55 200t52 193t44 171.5t31.5 132.5q5 24 -2.5 37t-29.5 17l-86 13
q-16 4 -21.5 8.5t-5.5 12.5t10 12.5t27 4.5h406q14 0 19.5 -3.5t5.5 -10.5q0 -9 -7 -14t-24 -8l-93 -18q-24 -4 -37.5 -15.5t-20.5 -36.5q-16 -56 -38 -135.5t-48.5 -174.5t-54 -196.5t-54.5 -202t-51 -191t-42 -163.5t-29 -119zM421 680h761l-13 -36h-760zM1111 112
q-6 -27 0.5 -44t30.5 -20l87 -11q12 -2 18 -7t6 -13t-8.5 -12.5t-21.5 -4.5h-408q-15 0 -21 5t-6 12q-1 8 6.5 13.5t20.5 7.5l85 10q28 4 43.5 19.5t25.5 43.5q14 52 35 128t46.5 167.5t53 191.5l55 200t52 193t44 171.5t31.5 132.5q5 24 -2.5 37t-29.5 17l-86 13
q-15 4 -20.5 8.5t-5.5 12.5t9.5 12.5t26.5 4.5h407q14 0 19 -3.5t5 -10.5q0 -9 -7 -14t-23 -8l-94 -18q-23 -4 -37 -15.5t-21 -36.5q-16 -56 -38 -135.5t-48 -174.5t-54 -196.5t-55 -202t-51 -191t-42 -163.5t-28 -119zM1046 1637h-41l188 -145q15 -11 26 -4q6 3 8 9.5
t-3 14.5l-132 201q-9 13 -17 20.5t-21 7.5t-25 -7.5t-28 -20.5l-236 -201q-9 -8 -10.5 -14.5t1.5 -9.5q5 -4 12 -2.5t16 6.5z" />
    <glyph glyph-name="hcircumflex" unicode="&#x125;" horiz-adv-x="1007" 
d="M258 305q42 129 100.5 225.5t122.5 161t124.5 97t106.5 32.5q54 0 67.5 -40.5t-23.5 -149.5l-152 -454q-21 -64 -19.5 -107.5t25.5 -65t68 -21.5q61 0 115 34t92 96q6 11 7 19t-6 10q-5 3 -11.5 0t-15.5 -12q-36 -41 -61.5 -56t-45.5 -15q-28 0 -36.5 31.5t21.5 120.5
l144 428q28 80 34 139t-21 91.5t-98 32.5q-73 0 -163 -44t-181 -143.5t-168 -265.5l10 -4l171 614q31 113 82 183.5t114.5 103.5t130.5 33q31 0 58.5 -10.5t53 -24t51 -24t51.5 -10.5q37 0 57 16.5t20 42.5q0 30 -32.5 50t-103.5 20q-173 0 -297.5 -52.5t-206 -160.5
t-128.5 -273l-240 -859q-11 -39 -11.5 -63.5t11 -36t37.5 -11.5q50 0 81.5 18t31.5 46q0 18 -5 30.5t-5 32.5q0 18 3.5 44t13.5 63t26 88zM822 1673h-41l188 -145q15 -11 26 -4q6 3 8 9.5t-3 14.5l-132 201q-9 13 -17 20.5t-21 7.5t-25 -7.5t-28 -20.5l-236 -201
q-9 -8 -10.5 -14.5t1.5 -9.5q5 -4 12 -2.5t16 6.5z" />
    <glyph glyph-name="Hbar" unicode="&#x126;" horiz-adv-x="1449" 
d="M219 1008q3 7 9 11.5t14 4.5h1289q9 0 12 -4.5t1 -11.5q-3 -7 -8.5 -11.5t-14.5 -4.5h-1290q-17 0 -12 16zM326 112q-5 -27 1.5 -44t29.5 -20l88 -11q12 -2 17.5 -7t5.5 -13t-8 -12.5t-21 -4.5h-409q-14 0 -20 5t-6 12q-1 8 6.5 13.5t20.5 7.5l85 10q27 4 43 19.5
t26 43.5q14 52 35 128t46.5 167.5t53 191.5l55 200t52 193t44 171.5t31.5 132.5q5 24 -2.5 37t-29.5 17l-86 13q-16 4 -21.5 8.5t-5.5 12.5t10 12.5t27 4.5h406q14 0 19.5 -3.5t5.5 -10.5q0 -9 -7 -14t-24 -8l-93 -18q-24 -4 -37.5 -15.5t-20.5 -36.5q-16 -56 -38 -135.5
t-48.5 -174.5t-54 -196.5t-54.5 -202t-51 -191t-42 -163.5t-29 -119zM421 680h761l-13 -36h-760zM1111 112q-6 -27 0.5 -44t30.5 -20l87 -11q12 -2 18 -7t6 -13t-8.5 -12.5t-21.5 -4.5h-408q-15 0 -21 5t-6 12q-1 8 6.5 13.5t20.5 7.5l85 10q28 4 43.5 19.5t25.5 43.5
q14 52 35 128t46.5 167.5t53 191.5l55 200t52 193t44 171.5t31.5 132.5q5 24 -2.5 37t-29.5 17l-86 13q-15 4 -20.5 8.5t-5.5 12.5t9.5 12.5t26.5 4.5h407q14 0 19 -3.5t5 -10.5q0 -9 -7 -14t-23 -8l-94 -18q-23 -4 -37 -15.5t-21 -36.5q-16 -56 -38 -135.5t-48 -174.5
t-54 -196.5t-55 -202t-51 -191t-42 -163.5t-28 -119z" />
    <glyph glyph-name="hbar" unicode="&#x127;" horiz-adv-x="1000" 
d="M579 1429l-284 -976l-8 3q74 150 160 249.5t177 149.5t177 50q66 0 90.5 -33t18.5 -92.5t-34 -140.5l-142 -427q-29 -90 -21 -120.5t38 -30.5q20 0 45.5 15t61.5 57q8 7 14 10.5t13 -0.5q6 -3 5.5 -10.5t-5.5 -17.5q-38 -62 -92.5 -97t-116.5 -35q-45 0 -69.5 20
t-25.5 62t21 107l150 459q38 112 23.5 153t-68.5 41q-40 0 -96.5 -28t-120 -89.5t-124.5 -160t-109 -239.5q-19 -57 -28.5 -93t-12.5 -59.5t-3 -43.5q0 -18 7 -31.5t7 -32.5q0 -27 -32.5 -46t-83.5 -19q-28 0 -39.5 11t-8 39.5t18.5 80.5l360 1267q4 11 14.5 23.5t25 24
t30 20t29.5 13.5t23 5q13 0 16.5 -10.5t-1.5 -27.5zM232 1142q3 8 9 12.5t14 4.5h497q9 0 12.5 -4.5t0.5 -11.5q-5 -17 -22 -17h-498q-18 0 -13 16z" />
    <glyph glyph-name="Itilde" unicode="&#x128;" horiz-adv-x="671" 
d="M328 112q-6 -27 0.5 -44t30.5 -20l87 -11q13 -2 18.5 -7t5.5 -13t-8 -12.5t-21 -4.5h-409q-15 0 -21 5t-6 12q0 8 7.5 13.5t20.5 7.5l85 10q27 4 42.5 19.5t25.5 43.5q14 52 35 127.5t46.5 167.5t53.5 192t55 200t51.5 193t44 171t31.5 133q5 24 -2.5 37t-29.5 17l-86 13
q-16 4 -21 8.5t-5 12.5t9.5 12.5t26.5 4.5h407q13 0 18 -3.5t5 -10.5q0 -9 -6.5 -14t-23.5 -8l-93 -18q-23 -4 -37 -15.5t-21 -36.5q-16 -56 -38 -135.5t-48 -174.5t-54 -196.5t-55 -202t-50.5 -191t-42 -163.5t-28.5 -119zM715 1506q-37 0 -63.5 15t-48.5 34.5t-44.5 35
t-51.5 15.5q-61 0 -86 -88q-8 -20 -24 -20q-18 0 -11 24q22 86 65 128.5t103 42.5q37 0 63.5 -15t48.5 -34.5t44.5 -34.5t51.5 -15q62 0 86 86q7 21 24 21q19 0 11 -24q-22 -86 -65 -128.5t-103 -42.5z" />
    <glyph glyph-name="itilde" unicode="&#x129;" horiz-adv-x="526" 
d="M265 60q-32 0 -39 32.5t25 122.5l172 487q27 73 24 118t-28.5 65t-66.5 20q-54 0 -110.5 -35.5t-99.5 -100.5q-7 -9 -7 -16.5t6 -11.5q6 -3 13 0.5t15 9.5q38 43 64.5 59t45.5 16q35 0 40 -36t-31 -137l-171 -480q-24 -65 -21.5 -107t28 -62t68.5 -20q61 0 115.5 34.5
t93.5 95.5q6 10 6 18t-6 11q-6 4 -12.5 0.5t-14.5 -10.5q-38 -42 -63 -57.5t-46 -15.5zM507.41 1012q-32.4014 0 -56.7021 16q-24.2998 16 -43.6504 37t-40.0518 37q-20.7002 16 -46.8008 16q-27.9014 0 -47.7012 -23.5q-19.8008 -23.5 -31.501 -69.5
q-6.30078 -20 -20.7012 -20q-16.2002 0 -9.89941 24q20.7002 90 59.8516 134q39.1504 44 93.1523 44q33.3008 0 57.1514 -16t43.2012 -37t40.0508 -37q20.7012 -16 47.7012 -16q27.9014 0 47.7021 24q19.7998 24 30.6006 69q6.2998 20 21.6006 20q15.2998 0 9 -24
q-19.8008 -89 -59.4014 -133.5q-39.6016 -44.5 -93.6025 -44.5z" />
    <glyph glyph-name="Imacron" unicode="&#x12a;" horiz-adv-x="671" 
d="M328 112q-6 -27 0.5 -44t30.5 -20l87 -11q13 -2 18.5 -7t5.5 -13t-8 -12.5t-21 -4.5h-409q-15 0 -21 5t-6 12q0 8 7.5 13.5t20.5 7.5l85 10q27 4 42.5 19.5t25.5 43.5q14 52 35 127.5t46.5 167.5t53.5 192t55 200t51.5 193t44 171t31.5 133q5 24 -2.5 37t-29.5 17l-86 13
q-16 4 -21 8.5t-5 12.5t9.5 12.5t26.5 4.5h407q13 0 18 -3.5t5 -10.5q0 -9 -6.5 -14t-23.5 -8l-93 -18q-23 -4 -37 -15.5t-21 -36.5q-16 -56 -38 -135.5t-48 -174.5t-54 -196.5t-55 -202t-50.5 -191t-42 -163.5t-28.5 -119zM398 1587q5 17 14.5 24.5t24.5 7.5h410
q14 0 20 -7.5t1 -24.5q-4 -16 -14 -24t-25 -8h-410q-14 0 -19.5 8t-1.5 24z" />
    <glyph glyph-name="imacron" unicode="&#x12b;" horiz-adv-x="526" 
d="M265 60q-32 0 -39 32.5t25 122.5l172 487q27 73 24 118t-28.5 65t-66.5 20q-54 0 -110.5 -35.5t-99.5 -100.5q-7 -9 -7 -16.5t6 -11.5q6 -3 13 0.5t15 9.5q38 43 64.5 59t45.5 16q35 0 40 -36t-31 -137l-171 -480q-24 -65 -21.5 -107t28 -62t68.5 -20q61 0 115.5 34.5
t93.5 95.5q6 10 6 18t-6 11q-6 4 -12.5 0.5t-14.5 -10.5q-38 -42 -63 -57.5t-46 -15.5zM224.56 1098q3.24023 17 11.3398 24.5q8.10059 7.5 19.4404 7.5h334.529q12.1494 0 16.6045 -7.5t1.21484 -24.5q-4.0498 -17 -11.7451 -25q-7.69434 -8 -19.8447 -8h-334.529
q-11.3398 0 -15.7949 8q-4.4541 8 -1.21484 25z" />
    <glyph glyph-name="Ibreve" unicode="&#x12c;" horiz-adv-x="671" 
d="M328 112q-6 -27 0.5 -44t30.5 -20l87 -11q13 -2 18.5 -7t5.5 -13t-8 -12.5t-21 -4.5h-409q-15 0 -21 5t-6 12q0 8 7.5 13.5t20.5 7.5l85 10q27 4 42.5 19.5t25.5 43.5q14 52 35 127.5t46.5 167.5t53.5 192t55 200t51.5 193t44 171t31.5 133q5 24 -2.5 37t-29.5 17l-86 13
q-16 4 -21 8.5t-5 12.5t9.5 12.5t26.5 4.5h407q13 0 18 -3.5t5 -10.5q0 -9 -6.5 -14t-23.5 -8l-93 -18q-23 -4 -37 -15.5t-21 -36.5q-16 -56 -38 -135.5t-48 -174.5t-54 -196.5t-55 -202t-50.5 -191t-42 -163.5t-28.5 -119zM643 1576q67 0 120.5 33.5t95.5 110.5q6 10 11 13
t10 3q7 0 9.5 -5.5t-0.5 -16.5q-34 -104 -105 -167t-165 -63t-132.5 63t-18.5 167q2 11 7.5 16.5t12.5 5.5q5 0 8.5 -3t4.5 -13q3 -78 40 -111t102 -33z" />
    <glyph glyph-name="ibreve" unicode="&#x12d;" horiz-adv-x="526" 
d="M265 60q-32 0 -39 32.5t25 122.5l172 487q27 73 24 118t-28.5 65t-66.5 20q-54 0 -110.5 -35.5t-99.5 -100.5q-7 -9 -7 -16.5t6 -11.5q6 -3 13 0.5t15 9.5q38 43 64.5 59t45.5 16q35 0 40 -36t-31 -137l-171 -480q-24 -65 -21.5 -107t28 -62t68.5 -20q61 0 115.5 34.5
t93.5 95.5q6 10 6 18t-6 11q-6 4 -12.5 0.5t-14.5 -10.5q-38 -42 -63 -57.5t-46 -15.5zM438.107 1091q60.3008 0 108.902 35.5t87.3027 114.5q9 17 19.8008 17q6.2998 0 8.5498 -5.5t-1.34961 -17.5q-31.501 -109 -96.3027 -174t-149.404 -65t-119.253 65
q-34.6514 65 -16.6504 174q1.7998 12 7.64941 17.5q5.85059 5.5 11.251 5.5q9.90039 0 11.7002 -17q2.7002 -80 35.5508 -115t92.2529 -35z" />
    <glyph glyph-name="Iogonek" unicode="&#x12e;" horiz-adv-x="671" 
d="M332 23l7 -20q-107 -48 -170.5 -125t-63.5 -151q-1 -46 21 -68.5t60 -22.5q34 0 68 17.5t57 45.5q7 6 11.5 8.5t10.5 1.5q5 -1 6 -6.5t-4 -13.5q-21 -35 -71 -64.5t-115 -29.5q-74 0 -112.5 31.5t-38.5 88.5q1 57 39 114t112.5 107.5t182.5 86.5zM328 112q-6 -27 0.5 -44
t30.5 -20l87 -11q13 -2 18.5 -7t5.5 -13t-8 -12.5t-21 -4.5h-409q-15 0 -21 5t-6 12q0 8 7.5 13.5t20.5 7.5l85 10q27 4 42.5 19.5t25.5 43.5q14 52 35 127.5t46.5 167.5t53.5 192t55 200t51.5 193t44 171t31.5 133q5 24 -2.5 37t-29.5 17l-86 13q-16 4 -21 8.5t-5 12.5
t9.5 12.5t26.5 4.5h407q13 0 18 -3.5t5 -10.5q0 -9 -6.5 -14t-23.5 -8l-93 -18q-23 -4 -37 -15.5t-21 -36.5q-16 -56 -38 -135.5t-48 -174.5t-54 -196.5t-55 -202t-50.5 -191t-42 -163.5t-28.5 -119z" />
    <glyph glyph-name="iogonek" unicode="&#x12f;" horiz-adv-x="529" 
d="M291 33l7 -19q-68 -33 -118 -80.5t-77 -101t-27 -106.5q0 -47 22 -71.5t60 -24.5q34 0 68.5 18t57.5 46q6 7 11 9t10 1t6 -6t-4 -14q-21 -36 -71.5 -66t-116.5 -30q-72 0 -111 33.5t-39 92.5q0 56 36.5 114t108.5 111t177 94zM251 212q-31 -87 -22.5 -120t36.5 -33
q21 0 46 15t61 56q9 10 15.5 13t12.5 0t5 -11t-7 -19q-38 -62 -92 -96t-115 -34q-43 0 -68 22t-26.5 65t21.5 108l174 482q33 94 26 128.5t-38 34.5q-19 0 -44.5 -15t-62.5 -56q-9 -9 -15.5 -12t-12.5 -1q-6 3 -5 10.5t6 18.5q41 64 95.5 99t112.5 35q42 0 66.5 -21.5
t27 -67t-22.5 -115.5zM425 1100q-38 0 -58 23t-15 56q3 30 21.5 62t47.5 53.5t62 21.5q41 0 59.5 -22.5t13.5 -56.5q-2 -32 -21 -63.5t-47.5 -52.5t-62.5 -21z" />
    <glyph glyph-name="Idotaccent" unicode="&#x130;" horiz-adv-x="671" 
d="M328 112q-6 -27 0.5 -44t30.5 -20l87 -11q13 -2 18.5 -7t5.5 -13t-8 -12.5t-21 -4.5h-409q-15 0 -21 5t-6 12q0 8 7.5 13.5t20.5 7.5l85 10q27 4 42.5 19.5t25.5 43.5q14 52 35 127.5t46.5 167.5t53.5 192t55 200t51.5 193t44 171t31.5 133q5 24 -2.5 37t-29.5 17l-86 13
q-16 4 -21 8.5t-5 12.5t9.5 12.5t26.5 4.5h407q13 0 18 -3.5t5 -10.5q0 -9 -6.5 -14t-23.5 -8l-93 -18q-23 -4 -37 -15.5t-21 -36.5q-16 -56 -38 -135.5t-48 -174.5t-54 -196.5t-55 -202t-50.5 -191t-42 -163.5t-28.5 -119zM619 1510q-37 0 -54 25t-8 62q10 37 40 61.5
t69 24.5q38 0 54.5 -24.5t6.5 -61.5t-39.5 -62t-68.5 -25z" />
    <glyph glyph-name="dotlessi" unicode="&#x131;" horiz-adv-x="525" 
d="M265 60q-32 0 -39 32.5t25 122.5l172 487q27 73 24 118t-28.5 65t-66.5 20q-54 0 -110.5 -35.5t-99.5 -100.5q-7 -9 -7 -16.5t6 -11.5q6 -3 13 0.5t15 9.5q38 43 64.5 59t45.5 16q35 0 40 -36t-31 -137l-171 -480q-24 -65 -21.5 -107t28 -62t68.5 -20q61 0 115.5 34.5
t93.5 95.5q6 10 6 18t-6 11q-6 4 -12.5 0.5t-14.5 -10.5q-38 -42 -63 -57.5t-46 -15.5z" />
    <glyph glyph-name="IJ" unicode="&#x132;" horiz-adv-x="1310" 
d="M328 112q-6 -27 0.5 -44t30.5 -20l87 -11q13 -2 18.5 -7t5.5 -13t-8 -12.5t-21 -4.5h-409q-15 0 -21 5t-6 12q0 8 7.5 13.5t20.5 7.5l85 10q27 4 42.5 19.5t25.5 43.5q14 52 35 127.5t46.5 167.5t53.5 192t55 200t51.5 193t44 171t31.5 133q5 24 -2.5 37t-29.5 17l-86 13
q-16 4 -21 8.5t-5 12.5t9.5 12.5t26.5 4.5h407q13 0 18 -3.5t5 -10.5q0 -9 -6.5 -14t-23.5 -8l-93 -18q-23 -4 -37 -15.5t-21 -36.5q-16 -56 -38 -135.5t-48 -174.5t-54 -196.5t-55 -202t-50.5 -191t-42 -163.5t-28.5 -119zM1301 1286q-5 -17 -25 -90.5t-50 -184.5
t-65 -241.5t-70.5 -262.5t-66.5 -247.5t-53 -198t-30 -110.5q-23 -100 -65.5 -162t-99.5 -91t-126 -29q-57 0 -85 22t-28 54q0 27 18.5 44.5t51.5 17.5q23 0 43 -8t39.5 -18.5t38 -18t37.5 -7.5q34 0 58.5 31.5t26.5 119.5q0 14 -3.5 29t-8 31.5t-7.5 35t-2.5 38.5t7.5 42
q5 16 24 84.5t47 171.5t61 223t65.5 240.5t60.5 224.5t46 174t22 88q7 31 -1 44.5t-36 17.5l-87 12q-13 3 -19.5 7.5t-6.5 12.5q0 9 8.5 13.5t25.5 4.5h409q14 0 19 -3.5t5 -11.5t-7 -13t-20 -8l-87 -18q-18 -3 -30 -9t-20 -17.5t-14 -33.5z" />
    <glyph glyph-name="ij" unicode="&#x133;" horiz-adv-x="1019" 
d="M251 212q-31 -87 -22.5 -120t36.5 -33q21 0 46 15t61 56q9 9 15.5 12.5t12.5 0.5t5 -11t-7 -19q-38 -62 -92 -96t-115 -34q-43 0 -68 22t-26.5 65t21.5 108l174 482q33 94 26 128.5t-38 34.5q-19 0 -44.5 -15t-62.5 -57q-9 -8 -15.5 -11t-12.5 -1q-6 3 -5 10.5t6 18.5
q41 64 95.5 99t112.5 35q42 0 66.5 -22t27 -67t-22.5 -115zM425 1100q-38 0 -58 23t-15 56q3 30 21.5 62t47.5 53.5t62 21.5q41 0 59.5 -22.5t13.5 -56.5q-2 -32 -21 -63.5t-47.5 -52.5t-62.5 -21zM949 698l-284 -951q-37 -126 -110 -184t-178 -58q-48 0 -72.5 19t-24.5 48
q0 24 17.5 42.5t51.5 18.5q28 0 51 -10t44.5 -20.5t46.5 -10.5q32 0 64 24t46 89q4 22 3 44t-4.5 46t-6 50t0 55.5t11.5 62.5l210 697q29 95 22 129t-38 34q-21 0 -46 -15t-63 -57q-9 -8 -15 -11t-12 -1q-6 3 -5 10.5t6 18.5q28 43 61 72.5t70.5 45.5t75.5 16q65 0 87.5 -48
t-9.5 -156zM943 1100q-39 0 -58.5 23t-15.5 56q3 30 21.5 62t47.5 53.5t62 21.5q41 0 59.5 -22.5t13.5 -56.5q-2 -32 -20.5 -63.5t-47.5 -52.5t-62 -21z" />
    <glyph glyph-name="Jcircumflex" unicode="&#x134;" horiz-adv-x="642" 
d="M635 1286q-5 -17 -25 -90.5t-50 -184.5t-65 -241.5t-70.5 -262.5t-66.5 -247.5t-53 -198t-30 -110.5q-23 -100 -65.5 -162t-99.5 -91t-126 -29q-57 0 -85 22t-28 54q0 27 18.5 44.5t51.5 17.5q23 0 43 -8t39.5 -18.5t38 -18t37.5 -7.5q34 0 58.5 31.5t26.5 119.5
q0 14 -3.5 29t-8 31.5t-7.5 35t-2.5 38.5t7.5 42q5 16 24 84.5t47 171.5t61 223t65.5 240.5t60.5 224.5t46 174t22 88q7 31 -1 44.5t-36 17.5l-87 12q-13 3 -19.5 7.5t-6.5 12.5q0 9 8.5 13.5t25.5 4.5h409q14 0 19 -3.5t5 -11.5t-7 -13t-20 -8l-87 -18q-18 -3 -30 -9
t-20 -17.5t-14 -33.5zM650 1637h-41l188 -145q15 -11 26 -4q6 3 8 9.5t-3 14.5l-132 201q-9 13 -17 20.5t-21 7.5t-25 -7.5t-28 -20.5l-236 -201q-9 -8 -10.5 -14.5t1.5 -9.5q5 -4 12 -2.5t16 6.5z" />
    <glyph glyph-name="jcircumflex" unicode="&#x135;" horiz-adv-x="489" 
d="M411 680l-275 -937q-37 -123 -110 -182.5t-179 -59.5q-48 0 -73 18.5t-25 47.5q0 24 18 41.5t53 17.5q28 0 50.5 -9.5t44.5 -19.5t46 -10q36 0 65.5 29t32.5 83q1 13 -2 27t-6.5 30t-5 35.5t0.5 43t10 51.5l220 749q31 104 29 147.5t-39 43.5q-21 0 -48 -16.5t-64 -59.5
q-6 -6 -11.5 -8t-11.5 -1q-6 2 -7.5 8.5t2.5 15.5q24 41 58.5 73t74.5 50t81 18q72 0 89.5 -53.5t-18.5 -172.5zM401.591 1181h-36.5488l154.695 -179q5.9502 -6 11.4746 -7q5.52539 -1 10.625 2q4.25 4 5.9502 10.5q1.69922 6.5 -2.55078 13.5l-106.246 236
q-5.9502 14 -13.1748 21q-7.22559 7 -19.125 7t-22.5244 -7q-10.624 -7 -23.374 -21l-207.394 -236q-7.65039 -7 -9.35059 -13.5q-1.69922 -6.5 0.850586 -10.5q4.25 -3 10.1992 -2q5.9502 1 13.5996 7z" />
    <glyph glyph-name="Kcommaaccent" unicode="&#x136;" horiz-adv-x="1289" 
d="M325 111q-6 -26 0.5 -42.5t30.5 -19.5l87 -12q12 -2 18 -6.5t6 -13.5q0 -8 -8.5 -12.5t-20.5 -4.5h-408q-14 0 -20 5t-6 12q-1 8 6.5 13.5t20.5 7.5l85 10q27 4 43 19.5t26 43.5q14 52 35 127.5t46.5 167.5t53.5 192t55 200.5t51.5 193.5t44 171t31.5 132q5 25 -2.5 37.5
t-29.5 16.5l-86 13q-15 4 -21 8.5t-6 12.5t10 12.5t27 4.5h407q13 0 18 -3.5t5 -10.5q0 -9 -6.5 -13.5t-24.5 -9.5l-94 -18q-23 -3 -37 -14.5t-21 -35.5q-15 -56 -37.5 -136t-48.5 -175t-54 -196.5t-55 -202t-51 -191.5t-42 -164t-28 -119zM666 762l101 90l241 -667
q23 -68 45 -97.5t53 -29.5q19 0 33 9.5t26 28.5q11 13 24 9q6 -1 8 -8.5t-3 -18.5q-14 -31 -37.5 -53.5t-54.5 -34.5t-68 -12q-53 0 -87 35.5t-62 119.5zM375 431l-11 39l763 799q52 55 96.5 89t88.5 49.5t91 15.5q44 0 68 -21t23 -51q-1 -31 -25.5 -49.5t-64.5 -18.5
q-34 0 -59 13t-57 13q-33 0 -71 -21t-90 -75zM616 -281q-39 0 -53.5 21.5t-6.5 51.5q9 36 37.5 58t62.5 22q39 0 56 -30.5t0 -92.5q-19 -77 -73.5 -128t-130.5 -69q-10 -3 -15.5 -1t-6.5 8q0 6 4.5 11t12.5 7q43 11 75.5 31t53 44.5t25.5 46.5q5 20 -14 20h-27z" />
    <glyph glyph-name="kcommaaccent" unicode="&#x137;" horiz-adv-x="971" 
d="M314 514q11 42 25.5 95t33.5 120t42 149t51 180q31 113 81.5 184t114 104t131.5 33q31 0 58.5 -10.5t53 -24t51 -24t51.5 -10.5q36 0 56.5 16.5t20.5 42.5q0 30 -33 50t-103 20q-168 0 -292 -50.5t-207 -155.5t-129 -269l-248 -883q-9 -31 -8.5 -52.5t12 -32.5t35.5 -11
q35 0 60.5 8t40 22.5t14.5 33.5q0 18 -5 30.5t-5 32.5q0 19 4.5 45t18.5 81t41 159q27 98 81 183t122 148t136.5 96t123.5 28q50 -5 70.5 -35.5t12.5 -82.5q-10 -72 -69.5 -140t-183.5 -126.5t-328 -102.5v-34q238 50 390.5 115t229.5 140t86 152q10 74 -30 118t-126 50
q-72 4 -147 -26t-144.5 -86.5t-125 -134t-89.5 -167.5zM470 403l90 -283q23 -75 52.5 -105t77.5 -32q40 -1 72.5 14t58.5 45.5t43 77.5q3 11 1 17t-8 7q-5 2 -10.5 -1t-13.5 -15q-18 -31 -39.5 -48.5t-43.5 -15.5q-25 1 -43 24t-37 81l-90 267zM368 -281q-39 0 -53.5 21.5
t-6.5 51.5q9 36 37.5 58t62.5 22q39 0 56 -30.5t0 -92.5q-19 -77 -73.5 -128t-130.5 -69q-10 -3 -15.5 -1t-6.5 8q0 6 4.5 11t12.5 7q43 11 75.5 31t53 44.5t25.5 46.5q5 20 -14 20h-27z" />
    <glyph glyph-name="kra" unicode="&#x138;" horiz-adv-x="976" 
d="M464 485l92 81l124 -399q18 -54 36.5 -76t44.5 -24q20 -1 42.5 15.5t43.5 53.5q10 12 22 8q6 -2 8 -7.5t-1 -16.5q-18 -47 -45 -78t-60.5 -45.5t-72.5 -12.5q-46 2 -75 31.5t-51 103.5zM439 820q0 -20 -15.5 -75.5t-40 -130t-52 -155.5t-52 -154.5t-40 -126t-15.5 -68.5
t7 -30t7 -33q0 -26 -33 -45t-83 -19q-27 0 -39 12t-10 37t17 62l193 560q35 102 29.5 136.5t-39.5 34.5q-20 0 -45.5 -15.5t-64.5 -58.5q-9 -6 -15.5 -9.5t-13.5 -0.5q-5 4 -5 11.5t6 16.5q44 66 101.5 101t111.5 35q46 0 68.5 -20.5t22.5 -64.5zM222 216l-7 41l475 502
q48 48 86 79.5t74 48t77 17.5q40 2 61.5 -16t21.5 -46q0 -29 -24.5 -48t-65.5 -20q-31 -1 -54 8.5t-53 8.5q-25 -1 -54.5 -21t-72.5 -65z" />
    <glyph glyph-name="Lacute" unicode="&#x139;" horiz-adv-x="1009" 
d="M618 0h-586q-14 0 -21 5t-5 13q0 9 8.5 13.5t21.5 6.5l83 12q28 4 43.5 20t25.5 47q15 58 37 136.5t47.5 171t52.5 191.5t53.5 197.5t50.5 190t43 167.5t31 130q4 21 -3.5 32t-23.5 14l-93 16q-14 3 -20 7t-6 13q0 8 8 12.5t21 4.5h414q13 0 18.5 -4t5.5 -12t-7.5 -13.5
t-21.5 -7.5l-98 -17q-21 -3 -34 -16.5t-21 -40.5q-15 -55 -37 -133.5t-47.5 -171t-53 -192t-54.5 -198.5t-51 -189.5t-43 -165.5t-31 -126q-9 -42 10 -60t71 -18h172q79 0 136.5 29.5t103.5 93.5t92 166q7 15 13.5 21.5t15.5 6.5t13 -6t3 -17q-2 -70 -25.5 -134t-59 -112.5
t-76.5 -76.5t-79 -28q-16 0 -30 5.5t-29.5 11t-37.5 5.5zM784 1670q40 35 70 54t58 13q24 -5 30.5 -24.5t-3.5 -39.5q-12 -28 -40.5 -46.5t-66.5 -36.5l-222 -106q-6 -3 -12.5 -3t-9.5 4q-3 5 1 10.5t10 10.5z" />
    <glyph glyph-name="lacute" unicode="&#x13a;" horiz-adv-x="524" 
d="M691 1439q58 0 84.5 -19.5t26.5 -47.5q0 -25 -16.5 -41.5t-50.5 -16.5q-20 0 -38.5 7.5t-36 17t-36.5 17t-41 7.5q-29 0 -55 -20t-43 -52t-20 -67q-1 -20 2 -38.5t7 -37t6.5 -39t1 -43.5t-9.5 -50l-242 -790q-30 -99 -21.5 -132t43.5 -33q30 0 66 20t73 67q6 8 11 10.5
t10 1.5q7 -2 8.5 -9t-3.5 -19q-22 -44 -60 -77.5t-85.5 -52.5t-97.5 -19q-47 0 -72 21t-27 66t20 117l311 1019q37 118 108 175.5t177 57.5zM805 1706q40 35 70 54t58 13q24 -5 30.5 -24.5t-3.5 -39.5q-12 -28 -40.5 -46.5t-66.5 -36.5l-222 -106q-6 -3 -12.5 -3t-9.5 4
q-3 5 1 10.5t10 10.5z" />
    <glyph glyph-name="Lcommaaccent" unicode="&#x13b;" horiz-adv-x="1009" 
d="M618 0h-586q-14 0 -21 5t-5 13q0 9 8.5 13.5t21.5 6.5l83 12q28 4 43.5 20t25.5 47q15 58 37 136.5t47.5 171t52.5 191.5t53.5 197.5t50.5 190t43 167.5t31 130q4 21 -3.5 32t-23.5 14l-93 16q-14 3 -20 7t-6 13q0 8 8 12.5t21 4.5h414q13 0 18.5 -4t5.5 -12t-7.5 -13.5
t-21.5 -7.5l-98 -17q-21 -3 -34 -16.5t-21 -40.5q-15 -55 -37 -133.5t-47.5 -171t-53 -192t-54.5 -198.5t-51 -189.5t-43 -165.5t-31 -126q-9 -42 10 -60t71 -18h172q79 0 136.5 29.5t103.5 93.5t92 166q7 15 13.5 21.5t15.5 6.5t13 -6t3 -17q-2 -70 -25.5 -134t-59 -112.5
t-76.5 -76.5t-79 -28q-16 0 -30 5.5t-29.5 11t-37.5 5.5zM433 -281q-39 0 -53.5 21.5t-6.5 51.5q9 36 37.5 58t62.5 22q39 0 56 -30.5t0 -92.5q-19 -77 -73.5 -128t-130.5 -69q-10 -3 -15.5 -1t-6.5 8q0 6 4.5 11t12.5 7q43 11 75.5 31t53 44.5t25.5 46.5q5 20 -14 20h-27z
" />
    <glyph glyph-name="lcommaaccent" unicode="&#x13c;" horiz-adv-x="524" 
d="M691 1439q58 0 84.5 -19.5t26.5 -47.5q0 -25 -16.5 -41.5t-50.5 -16.5q-20 0 -38.5 7.5t-36 17t-36.5 17t-41 7.5q-29 0 -55 -20t-43 -52t-20 -67q-1 -20 2 -38.5t7 -37t6.5 -39t1 -43.5t-9.5 -50l-242 -790q-30 -99 -21.5 -132t43.5 -33q30 0 66 20t73 67q6 8 11 10.5
t10 1.5q7 -2 8.5 -9t-3.5 -19q-22 -44 -60 -77.5t-85.5 -52.5t-97.5 -19q-47 0 -72 21t-27 66t20 117l311 1019q37 118 108 175.5t177 57.5zM139 -281q-39 0 -53.5 21.5t-6.5 51.5q9 36 37.5 58t62.5 22q39 0 56 -30.5t0 -92.5q-19 -77 -73.5 -128t-130.5 -69
q-10 -3 -15.5 -1t-6.5 8q0 6 4.5 11t12.5 7q43 11 75.5 31t53 44.5t25.5 46.5q5 20 -14 20h-27z" />
    <glyph glyph-name="Lcaron" unicode="&#x13d;" horiz-adv-x="1009" 
d="M618 0h-586q-14 0 -21 5t-5 13q0 9 8.5 13.5t21.5 6.5l83 12q28 4 43.5 20t25.5 47q15 58 37 136.5t47.5 171t52.5 191.5t53.5 197.5t50.5 190t43 167.5t31 130q4 21 -3.5 32t-23.5 14l-93 16q-14 3 -20 7t-6 13q0 8 8 12.5t21 4.5h414q13 0 18.5 -4t5.5 -12t-7.5 -13.5
t-21.5 -7.5l-98 -17q-21 -3 -34 -16.5t-21 -40.5q-15 -55 -37 -133.5t-47.5 -171t-53 -192t-54.5 -198.5t-51 -189.5t-43 -165.5t-31 -126q-9 -42 10 -60t71 -18h172q79 0 136.5 29.5t103.5 93.5t92 166q7 15 13.5 21.5t15.5 6.5t13 -6t3 -17q-2 -70 -25.5 -134t-59 -112.5
t-76.5 -76.5t-79 -28q-16 0 -30 5.5t-29.5 11t-37.5 5.5zM878 1333q18 53 38.5 83t54.5 35q27 3 42 -10.5t12 -36.5q-2 -23 -17.5 -47.5t-38.5 -51.5l-137 -186q-5 -6 -10 -8.5t-11 -1.5q-5 3 -4.5 8.5t3.5 12.5z" />
    <glyph glyph-name="lcaron" unicode="&#x13e;" horiz-adv-x="524" 
d="M536 1244l-301 -1018q-29 -99 -20.5 -132t42.5 -33q31 0 66.5 20t73.5 67q6 8 11 10.5t10 1.5q7 -2 8 -9t-4 -19q-21 -44 -59.5 -77.5t-86 -52.5t-98.5 -19q-46 0 -71 21t-26.5 66t20.5 117l306 1033q24 82 15 111.5t-36 29.5q-19 0 -43 -13t-57 -47q-9 -9 -15.5 -12
t-12.5 -1q-5 3 -4.5 10.5t6.5 18.5q25 39 57.5 66.5t69.5 41.5t74 14q42 0 66 -21t26.5 -64.5t-17.5 -109.5zM661 1369q18 53 38.5 83t54.5 35q27 3 42 -10.5t12 -36.5q-2 -23 -17.5 -47.5t-38.5 -51.5l-137 -186q-5 -6 -10 -8.5t-11 -1.5q-5 3 -4.5 8.5t3.5 12.5z" />
    <glyph glyph-name="Ldot" unicode="&#x13f;" horiz-adv-x="1009" 
d="M618 0h-586q-14 0 -21 5t-5 13q0 9 8.5 13.5t21.5 6.5l83 12q28 4 43.5 20t25.5 47q15 58 37 136.5t47.5 171t52.5 191.5t53.5 197.5t50.5 190t43 167.5t31 130q4 21 -3.5 32t-23.5 14l-93 16q-14 3 -20 7t-6 13q0 8 8 12.5t21 4.5h414q13 0 18.5 -4t5.5 -12t-7.5 -13.5
t-21.5 -7.5l-98 -17q-21 -3 -34 -16.5t-21 -40.5q-15 -55 -37 -133.5t-47.5 -171t-53 -192t-54.5 -198.5t-51 -189.5t-43 -165.5t-31 -126q-9 -42 10 -60t71 -18h172q79 0 136.5 29.5t103.5 93.5t92 166q7 15 13.5 21.5t15.5 6.5t13 -6t3 -17q-2 -70 -25.5 -134t-59 -112.5
t-76.5 -76.5t-79 -28q-16 0 -30 5.5t-29.5 11t-37.5 5.5zM961 702q-37 0 -54 25t-8 62q10 37 40 61.5t69 24.5q38 0 54.5 -24.5t6.5 -61.5t-39.5 -62t-68.5 -25z" />
    <glyph glyph-name="ldot" unicode="&#x140;" horiz-adv-x="578" 
d="M691 1439q58 0 84.5 -19.5t26.5 -47.5q0 -25 -16.5 -41.5t-50.5 -16.5q-20 0 -38.5 7.5t-36 17t-36.5 17t-41 7.5q-29 0 -55 -20t-43 -52t-20 -67q-1 -20 2 -38.5t7 -37t6.5 -39t1 -43.5t-9.5 -50l-242 -790q-30 -99 -21.5 -132t43.5 -33q30 0 66 20t73 67q6 8 11 10.5
t10 1.5q7 -2 8.5 -9t-3.5 -19q-22 -44 -60 -77.5t-85.5 -52.5t-97.5 -19q-47 0 -72 21t-27 66t20 117l311 1019q37 118 108 175.5t177 57.5zM593 656q-37 0 -53 25t-7 63q10 37 39.5 62.5t67.5 25.5t54 -25.5t6 -62.5q-10 -38 -39.5 -63t-67.5 -25z" />
    <glyph glyph-name="Lslash" unicode="&#x141;" horiz-adv-x="996" 
d="M113 536q-1 7 3.5 13t12.5 9l704 373q9 4 15 2t8 -8q2 -7 -2 -12.5t-14 -8.5l-704 -375q-9 -3 -14.5 -1t-8.5 8zM619 0h-586q-14 0 -21 5t-5 13q0 9 8.5 13.5t21.5 6.5l83 12q27 4 42.5 20t25.5 47q16 58 38 136.5t47.5 171t52.5 191.5t53.5 197.5t50.5 190t43 167.5
t31 130q4 21 -3.5 32t-24.5 14l-92 16q-14 3 -20 7t-6 13q0 8 8 12.5t21 4.5h414q12 0 18 -4t6 -12t-7.5 -13.5t-21.5 -7.5l-98 -17q-21 -3 -34 -16.5t-21 -40.5q-16 -55 -37.5 -133.5t-47 -171t-53 -192t-54.5 -198.5t-51 -189.5t-43 -165.5t-31 -126q-9 -42 10 -60t70 -18
h173q79 0 136 29.5t103.5 93.5t92.5 166q7 15 13.5 21.5t14.5 6.5q10 0 14 -6t3 -17q-3 -70 -26 -134t-59 -112.5t-76.5 -76.5t-78.5 -28q-17 0 -30.5 5.5t-29 11t-37.5 5.5z" />
    <glyph glyph-name="lslash" unicode="&#x142;" horiz-adv-x="516" 
d="M53 547q-3 6 -0.5 13t9.5 11l233 188l64 31l222 179q7 4 14 4t11 -7q3 -6 0.5 -12t-10.5 -11l-247 -195l-64 -30l-207 -174q-8 -4 -14.5 -3.5t-10.5 6.5zM694 1439q58 0 84.5 -19.5t26.5 -47.5q0 -25 -16.5 -41.5t-50.5 -16.5q-20 0 -38.5 7.5t-36 17t-36.5 17t-41 7.5
q-29 0 -55 -20t-43 -52t-20 -67q-1 -20 2 -38.5t7 -37t6.5 -39t1 -43.5t-9.5 -50l-242 -790q-30 -99 -21.5 -132t43.5 -33q30 0 66 20t73 67q6 8 11 10.5t11 1.5q6 -2 7.5 -9t-3.5 -19q-22 -44 -60 -77.5t-85.5 -52.5t-97.5 -19q-46 0 -71.5 21t-27.5 66t20 117l312 1019
q36 118 107 175.5t177 57.5z" />
    <glyph glyph-name="Nacute" unicode="&#x143;" horiz-adv-x="1294" 
d="M235 193l268 965l-36 -11q42 -108 88 -219.5t91.5 -222.5t88 -215t79 -196t63.5 -167q12 -27 15.5 -44t3.5 -39q0 -21 8.5 -32.5t27.5 -11.5h113q20 0 27 11t-1 31l-43 118q-10 27 -10 43t5 33l215 853q12 46 31.5 79t47.5 57t65 41q49 23 71 46.5t22 54.5q1 25 -16.5 41
t-46.5 16q-57 0 -108 -53.5t-82 -170.5l-259 -1013l39 12q-29 77 -65 162t-76.5 178.5t-83 192t-85.5 201t-85 207t-80 208.5q-12 28 -24.5 40t-34.5 12h-89q-13 0 -19 -6t-6 -15t6 -18l72 -158q12 -20 15 -44.5t-5 -51.5l-252 -911q-18 -69 -55.5 -105t-85.5 -45l-46 -7
q-26 -5 -26 -21q0 -9 8 -13.5t23 -4.5h345q11 0 17.5 4t6.5 13q0 8 -5.5 13t-15.5 7l-51 8q-50 10 -68.5 46t-1.5 102zM1109 1670q40 35 70 54t58 13q24 -5 30.5 -24.5t-3.5 -39.5q-12 -28 -40.5 -46.5t-66.5 -36.5l-222 -106q-6 -3 -12.5 -3t-9.5 4q-3 5 1 10.5t10 10.5z
" />
    <glyph glyph-name="nacute" unicode="&#x144;" horiz-adv-x="1025" 
d="M138 739q-5 3 -4.5 10.5t6.5 18.5q40 64 95.5 99t113.5 35q42 0 66.5 -20.5t24.5 -62.5q0 -29 -12 -71t-32 -95.5t-46 -118t-54 -137.5l1 29q57 133 124.5 224t137 146.5t135.5 80.5t119 25q70 0 97 -32.5t21 -91t-33 -139.5l-144 -428q-30 -89 -21.5 -120.5t36.5 -31.5
q20 0 45 15t62 56q9 9 15 12t12 0q6 -2 5.5 -10t-6.5 -19q-39 -62 -92.5 -96t-114.5 -34q-44 0 -68.5 21.5t-25.5 65t20 107.5l152 454q37 109 23.5 149.5t-67.5 40.5q-41 0 -99 -29t-121.5 -91t-123.5 -159t-106 -232q-22 -68 -34 -106.5t-16 -59t-4 -33.5q0 -20 6.5 -32
t6.5 -30q0 -28 -31 -47t-79 -19q-42 0 -50 30t16 97l191 551q33 94 26 128t-38 34q-19 0 -44.5 -15t-62.5 -57q-9 -8 -15.5 -11t-12.5 -1zM789 1206q35 43 63.5 66.5t58.5 21.5q27 -2 36.5 -20.5t1.5 -40.5q-8 -27 -33.5 -49t-61.5 -45l-211 -143q-6 -3 -12.5 -3.5t-9.5 3.5
q-4 4 -1 9.5t8 11.5z" />
    <glyph glyph-name="Ncommaaccent" unicode="&#x145;" horiz-adv-x="1294" 
d="M235 193l268 965l-36 -11q42 -108 88 -219.5t91.5 -222.5t88 -215t79 -196t63.5 -167q12 -27 15.5 -44t3.5 -39q0 -21 8.5 -32.5t27.5 -11.5h113q20 0 27 11t-1 31l-43 118q-10 27 -10 43t5 33l215 853q12 46 31.5 79t47.5 57t65 41q49 23 71 46.5t22 54.5q1 25 -16.5 41
t-46.5 16q-57 0 -108 -53.5t-82 -170.5l-259 -1013l39 12q-29 77 -65 162t-76.5 178.5t-83 192t-85.5 201t-85 207t-80 208.5q-12 28 -24.5 40t-34.5 12h-89q-13 0 -19 -6t-6 -15t6 -18l72 -158q12 -20 15 -44.5t-5 -51.5l-252 -911q-18 -69 -55.5 -105t-85.5 -45l-46 -7
q-26 -5 -26 -21q0 -9 8 -13.5t23 -4.5h345q11 0 17.5 4t6.5 13q0 8 -5.5 13t-15.5 7l-51 8q-50 10 -68.5 46t-1.5 102zM573 -281q-39 0 -53.5 21.5t-6.5 51.5q9 36 37.5 58t62.5 22q39 0 56 -30.5t0 -92.5q-19 -77 -73.5 -128t-130.5 -69q-10 -3 -15.5 -1t-6.5 8q0 6 4.5 11
t12.5 7q43 11 75.5 31t53 44.5t25.5 46.5q5 20 -14 20h-27z" />
    <glyph glyph-name="ncommaaccent" unicode="&#x146;" horiz-adv-x="1025" 
d="M138 739q-5 3 -4.5 10.5t6.5 18.5q40 64 95.5 99t113.5 35q42 0 66.5 -20.5t24.5 -62.5q0 -29 -12 -71t-32 -95.5t-46 -118t-54 -137.5l1 29q57 133 124.5 224t137 146.5t135.5 80.5t119 25q70 0 97 -32.5t21 -91t-33 -139.5l-144 -428q-30 -89 -21.5 -120.5t36.5 -31.5
q20 0 45 15t62 56q9 9 15 12t12 0q6 -2 5.5 -10t-6.5 -19q-39 -62 -92.5 -96t-114.5 -34q-44 0 -68.5 21.5t-25.5 65t20 107.5l152 454q37 109 23.5 149.5t-67.5 40.5q-41 0 -99 -29t-121.5 -91t-123.5 -159t-106 -232q-22 -68 -34 -106.5t-16 -59t-4 -33.5q0 -20 6.5 -32
t6.5 -30q0 -28 -31 -47t-79 -19q-42 0 -50 30t16 97l191 551q33 94 26 128t-38 34q-19 0 -44.5 -15t-62.5 -57q-9 -8 -15.5 -11t-12.5 -1zM394 -281q-39 0 -53.5 21.5t-6.5 51.5q9 36 37.5 58t62.5 22q39 0 56 -30.5t0 -92.5q-19 -77 -73.5 -128t-130.5 -69q-10 -3 -15.5 -1
t-6.5 8q0 6 4.5 11t12.5 7q43 11 75.5 31t53 44.5t25.5 46.5q5 20 -14 20h-27z" />
    <glyph glyph-name="Ncaron" unicode="&#x147;" horiz-adv-x="1294" 
d="M235 193l268 965l-36 -11q42 -108 88 -219.5t91.5 -222.5t88 -215t79 -196t63.5 -167q12 -27 15.5 -44t3.5 -39q0 -21 8.5 -32.5t27.5 -11.5h113q20 0 27 11t-1 31l-43 118q-10 27 -10 43t5 33l215 853q12 46 31.5 79t47.5 57t65 41q49 23 71 46.5t22 54.5q1 25 -16.5 41
t-46.5 16q-57 0 -108 -53.5t-82 -170.5l-259 -1013l39 12q-29 77 -65 162t-76.5 178.5t-83 192t-85.5 201t-85 207t-80 208.5q-12 28 -24.5 40t-34.5 12h-89q-13 0 -19 -6t-6 -15t6 -18l72 -158q12 -20 15 -44.5t-5 -51.5l-252 -911q-18 -69 -55.5 -105t-85.5 -45l-46 -7
q-26 -5 -26 -21q0 -9 8 -13.5t23 -4.5h345q11 0 17.5 4t6.5 13q0 8 -5.5 13t-15.5 7l-51 8q-50 10 -68.5 46t-1.5 102zM970 1587l-188 145q-14 12 -26 4q-5 -3 -7 -9.5t3 -14.5l132 -201q9 -13 17 -20.5t22 -7.5t25 7.5t27 20.5l235 201q10 8 12 14.5t-2 9.5q-4 4 -11.5 2.5
t-17.5 -6.5l-262 -145h41z" />
    <glyph glyph-name="ncaron" unicode="&#x148;" horiz-adv-x="1025" 
d="M138 739q-5 3 -4.5 10.5t6.5 18.5q40 64 95.5 99t113.5 35q42 0 66.5 -20.5t24.5 -62.5q0 -29 -12 -71t-32 -95.5t-46 -118t-54 -137.5l1 29q57 133 124.5 224t137 146.5t135.5 80.5t119 25q70 0 97 -32.5t21 -91t-33 -139.5l-144 -428q-30 -89 -21.5 -120.5t36.5 -31.5
q20 0 45 15t62 56q9 9 15 12t12 0q6 -2 5.5 -10t-6.5 -19q-39 -62 -92.5 -96t-114.5 -34q-44 0 -68.5 21.5t-25.5 65t20 107.5l152 454q37 109 23.5 149.5t-67.5 40.5q-41 0 -99 -29t-121.5 -91t-123.5 -159t-106 -232q-22 -68 -34 -106.5t-16 -59t-4 -33.5q0 -20 6.5 -32
t6.5 -30q0 -28 -31 -47t-79 -19q-42 0 -50 30t16 97l191 551q33 94 26 128t-38 34q-19 0 -44.5 -15t-62.5 -57q-9 -8 -15.5 -11t-12.5 -1zM669 1092l-181 179q-6 6 -12.5 7.5t-13.5 -2.5q-5 -3 -6.5 -9.5t2.5 -15.5l125 -235q8 -14 17 -21t22 -7q14 0 26 7t28 21l244 235
q9 9 11 15.5t-2 9.5q-4 4 -11 2.5t-17 -7.5l-273 -179h41z" />
    <glyph glyph-name="Eng" unicode="&#x14a;" horiz-adv-x="1294" 
d="M1251 1200l-286 -1060l28 17q-28 78 -62.5 168t-73 188.5t-79.5 203.5t-82.5 212.5t-80.5 215.5t-75 211q-10 25 -20.5 34.5t-28.5 9.5h-102q-12 0 -18.5 -6t-7 -15t5.5 -20l69 -159q11 -19 13 -39.5t-6 -47.5l-261 -930q-16 -63 -52.5 -95.5t-85.5 -41.5l-45 -7
q-13 -2 -20.5 -7.5t-8.5 -13.5q-1 -9 6.5 -13.5t22.5 -4.5h343q12 0 19 4.5t8 12.5t-4 13.5t-15 8.5l-51 7q-46 9 -65.5 41.5t-2.5 94.5l276 985l-36 -21q32 -83 66.5 -174t70.5 -185.5t71.5 -187t68 -180.5t60.5 -167t49 -144q11 -29 17.5 -51.5t12.5 -46.5q2 -27 -1 -63.5
t-8.5 -75t-12 -70.5t-9.5 -50q-15 -74 -51 -112t-83 -38q-20 0 -37 6t-33 14t-33.5 14.5t-38.5 6.5q-31 0 -49.5 -15.5t-21.5 -39.5q-3 -20 8 -37t35.5 -27t63.5 -10q107 0 179 59.5t105 176.5l366 1342q13 45 32.5 78t47 56.5t64.5 40.5q49 23 71 46.5t22 54.5
q1 25 -16.5 41t-46.5 16q-57 0 -107 -53.5t-84 -170.5z" />
    <glyph glyph-name="eng" unicode="&#x14b;" horiz-adv-x="965" 
d="M610 -257q-37 -123 -110.5 -182.5t-178.5 -59.5q-48 0 -72.5 18.5t-24.5 47.5q0 24 17.5 41.5t51.5 17.5q28 0 51 -9.5t45 -19.5t46 -10q36 0 66 27t33 77q0 14 -2.5 28.5t-5.5 31.5t-5 37.5t1 44.5t11 54l222 744q34 112 22 153t-67 41q-40 0 -96.5 -30.5t-118 -93.5
t-119 -160.5t-101.5 -232.5q-21 -67 -32 -105t-14.5 -58.5t-3.5 -34.5q0 -16 6.5 -30t6.5 -33q0 -26 -32.5 -45t-82.5 -19q-41 0 -48 27.5t14 83.5l193 560q36 102 30 136.5t-40 34.5q-19 0 -45 -15.5t-65 -58.5q-8 -6 -14.5 -9.5t-13.5 -0.5q-6 4 -6 11.5t7 16.5
q44 66 102 101t112 35q45 0 67.5 -20t22.5 -62q0 -31 -13 -77t-33.5 -100.5t-43 -112t-40.5 -110.5l-17 4q59 133 125 224.5t133.5 147.5t131.5 81t117 25q65 0 89.5 -32t19.5 -91t-30 -140z" />
    <glyph glyph-name="Omacron" unicode="&#x14c;" horiz-adv-x="1440" 
d="M989 1423q119 -3 211.5 -57.5t149.5 -153t70 -233.5t-28 -299q-42 -168 -123 -300t-189.5 -223t-235 -137t-262.5 -43q-118 3 -212 58t-151.5 155t-68 240t37.5 312q43 152 124 278t189.5 217.5t233.5 140t254 45.5zM602 14q94 -2 186.5 35.5t177 118.5t155 209
t119.5 305q24 89 35 165t10 139q0 128 -42 216t-112 134.5t-157 49.5q-98 3 -195.5 -41t-183.5 -129.5t-152.5 -208t-104.5 -274.5q-23 -94 -34 -172.5t-11 -142.5q-2 -198 83.5 -299t225.5 -105zM783 1591q5 17 14.5 24.5t24.5 7.5h410q14 0 20 -7.5t1 -24.5
q-4 -16 -14 -24t-25 -8h-410q-14 0 -19.5 8t-1.5 24z" />
    <glyph glyph-name="omacron" unicode="&#x14d;" 
d="M578 902q99 -5 168.5 -58.5t98.5 -151t6 -233.5q-17 -103 -63.5 -191t-115 -152.5t-151 -100t-173.5 -32.5q-94 2 -165.5 53t-103 147.5t-9.5 235.5q19 109 67 199.5t117.5 155.5t152 98.5t171.5 29.5zM355 23q48 -3 94.5 20t89.5 65.5t78.5 101.5t62 130t39.5 150
q22 125 9 205.5t-54 121t-101 45.5q-48 4 -95.5 -18t-91 -64.5t-80.5 -102t-64 -133t-41 -156.5q-22 -128 -7 -207.5t58 -117t103 -40.5zM360 1098q4 17 14 24.5t24 7.5h413q15 0 20.5 -7.5t1.5 -24.5q-5 -17 -14.5 -25t-24.5 -8h-413q-14 0 -19.5 8t-1.5 25z" />
    <glyph glyph-name="Obreve" unicode="&#x14e;" horiz-adv-x="1440" 
d="M989 1423q119 -3 211.5 -57.5t149.5 -153t70 -233.5t-28 -299q-42 -168 -123 -300t-189.5 -223t-235 -137t-262.5 -43q-118 3 -212 58t-151.5 155t-68 240t37.5 312q43 152 124 278t189.5 217.5t233.5 140t254 45.5zM602 14q94 -2 186.5 35.5t177 118.5t155 209
t119.5 305q24 89 35 165t10 139q0 128 -42 216t-112 134.5t-157 49.5q-98 3 -195.5 -41t-183.5 -129.5t-152.5 -208t-104.5 -274.5q-23 -94 -34 -172.5t-11 -142.5q-2 -198 83.5 -299t225.5 -105zM1029 1580q67 0 120.5 33.5t95.5 110.5q6 10 11 13t10 3q7 0 9.5 -5.5
t-0.5 -16.5q-34 -104 -105 -167t-165 -63t-132.5 63t-18.5 167q2 11 7.5 16.5t12.5 5.5q5 0 8.5 -3t4.5 -13q3 -78 40 -111t102 -33z" />
    <glyph glyph-name="obreve" unicode="&#x14f;" 
d="M578 902q99 -5 168.5 -58.5t98.5 -151t6 -233.5q-17 -103 -63.5 -191t-115 -152.5t-151 -100t-173.5 -32.5q-94 2 -165.5 53t-103 147.5t-9.5 235.5q19 109 67 199.5t117.5 155.5t152 98.5t171.5 29.5zM355 23q48 -3 94.5 20t89.5 65.5t78.5 101.5t62 130t39.5 150
q22 125 9 205.5t-54 121t-101 45.5q-48 4 -95.5 -18t-91 -64.5t-80.5 -102t-64 -133t-41 -156.5q-22 -128 -7 -207.5t58 -117t103 -40.5zM618 1091q67 0 121 35.5t97 114.5q10 17 22 17q7 0 9.5 -5.5t-1.5 -17.5q-35 -109 -107 -174t-166 -65t-132.5 65t-18.5 174
q2 12 8.5 17.5t12.5 5.5q11 0 13 -17q3 -80 39.5 -115t102.5 -35z" />
    <glyph glyph-name="Ohungarumlaut" unicode="&#x150;" horiz-adv-x="1440" 
d="M989 1423q119 -3 211.5 -57.5t149.5 -153t70 -233.5t-28 -299q-42 -168 -123 -300t-189.5 -223t-235 -137t-262.5 -43q-118 3 -212 58t-151.5 155t-68 240t37.5 312q43 152 124 278t189.5 217.5t233.5 140t254 45.5zM602 14q94 -2 186.5 35.5t177 118.5t155 209
t119.5 305q24 89 35 165t10 139q0 128 -42 216t-112 134.5t-157 49.5q-98 3 -195.5 -41t-183.5 -129.5t-152.5 -208t-104.5 -274.5q-23 -94 -34 -172.5t-11 -142.5q-2 -198 83.5 -299t225.5 -105zM997 1676q33 40 61 62.5t58 19.5q23 -3 32.5 -19.5t0.5 -40.5
q-9 -26 -33 -46t-56 -39l-185 -123q-7 -4 -13.5 -5t-10.5 3q-3 4 -0.5 9.5t8.5 12.5zM1246 1676q33 40 61.5 62.5t57.5 18.5q23 -4 32.5 -20.5t0.5 -39.5q-10 -27 -34 -46.5t-56 -38.5l-185 -122q-8 -4 -14 -5t-10 3q-3 4 -0.5 9.5t8.5 12.5z" />
    <glyph glyph-name="ohungarumlaut" unicode="&#x151;" 
d="M578 902q99 -5 168.5 -58.5t98.5 -151t6 -233.5q-17 -103 -63.5 -191t-115 -152.5t-151 -100t-173.5 -32.5q-94 2 -165.5 53t-103 147.5t-9.5 235.5q19 109 67 199.5t117.5 155.5t152 98.5t171.5 29.5zM355 23q48 -3 94.5 20t89.5 65.5t78.5 101.5t62 130t39.5 150
q22 125 9 205.5t-54 121t-101 45.5q-48 4 -95.5 -18t-91 -64.5t-80.5 -102t-64 -133t-41 -156.5q-22 -128 -7 -207.5t58 -117t103 -40.5zM570 1199q31 44 59 70t59 26q26 0 36 -16t2 -38q-9 -27 -31.5 -49t-53.5 -46l-182 -146q-7 -4 -13 -5.5t-11 1.5q-3 4 -1 9.5t7 13.5z
M816 1200q32 44 60 69.5t58 25.5q26 -1 36 -17t2 -38q-10 -27 -33 -49t-54 -45l-181 -145q-7 -5 -13.5 -6.5t-10.5 2.5t-1.5 9.5t7.5 12.5z" />
    <glyph glyph-name="OE" unicode="&#x152;" horiz-adv-x="1873" 
d="M1437 0h-765q-156 0 -268.5 53t-177 150.5t-76.5 231t34 293.5q44 155 129 278.5t204 212t264.5 135t309.5 46.5h683q47 0 74 16.5t47 16.5q24 0 29 -29l34 -268q3 -16 -1.5 -24t-15.5 -9q-10 -1 -18 5.5t-14 22.5q-29 99 -57.5 149.5t-63 69t-81.5 18.5h-336
q-19 -71 -44 -162t-53.5 -193t-57.5 -208.5t-57 -209.5t-52 -195t-42.5 -166t-29.5 -122q-7 -26 0 -44t34 -26.5t79 -8.5h235q71 0 130 29t109.5 92t95.5 164q10 19 23 19q17 0 16 -23q-2 -65 -24 -125.5t-56.5 -108.5t-76.5 -76t-84 -28q-20 0 -36.5 12t-42.5 12zM348 749
q-48 -168 -44 -299.5t53.5 -223t140.5 -139.5t218 -48h155l358 1321h-144q-173 0 -320.5 -71.5t-255 -207.5t-161.5 -332zM1139 718h355q50 0 81.5 32t33.5 121q1 8 5.5 13t12.5 5q11 0 16.5 -5.5t6.5 -16.5l48 -303q3 -17 -2 -24t-14 -8t-15 3.5t-11 13.5
q-25 79 -59.5 107.5t-97.5 28.5h-370z" />
    <glyph glyph-name="oe" unicode="&#x153;" horiz-adv-x="1415" 
d="M571 905q70 -4 121 -41t78.5 -103t28.5 -156l-21 3q44 91 105 158t133 104t145 37q64 0 107 -28.5t65 -76t23 -104.5q1 -11 7.5 -17.5t19.5 -3.5q10 2 15 -1.5t6 -12.5q1 -8 -5 -14t-19 -11q-26 -9 -80.5 -29.5t-123 -47t-139 -54t-130.5 -51t-96.5 -38l-36.5 -14.5
l-5 32l35 14.5t91.5 37.5t121.5 49t126.5 50.5t104.5 40.5l-11 -14q5 23 8 45t3 45q0 72 -30 118.5t-80 46.5q-52 0 -107 -38t-102.5 -107.5t-81.5 -162.5t-45 -202q-15 -152 38.5 -229.5t149.5 -77.5q94 0 174 58.5t128 178.5q6 10 11 14t12 4q8 0 11.5 -6.5t1.5 -16.5
q-21 -86 -75 -154t-135 -107.5t-184 -39.5q-70 0 -123 30t-82.5 91.5t-30.5 156.5l23 -4q-41 -90 -104 -152t-137 -93t-152 -29q-86 3 -153 53t-97 146t-8 234q19 109 65.5 201t114 158t150 100.5t171.5 29.5zM348 22q44 -1 88 22.5t85.5 68t76.5 106t61 135t39 155.5
q20 118 7 195.5t-50.5 118t-91.5 43.5q-47 4 -94.5 -20t-90.5 -70t-79.5 -109.5t-63 -139.5t-39.5 -159q-20 -123 -4.5 -199t57.5 -111t99 -36z" />
    <glyph glyph-name="Racute" unicode="&#x154;" horiz-adv-x="1240" 
d="M400 619l26 27q42 -24 98 -40.5t123 -16.5q130 0 224 47t152.5 131.5t80.5 196.5q27 133 -5 222.5t-111 135t-195 45.5q-72 0 -107 -18.5t-48 -62.5q-14 -53 -34.5 -129.5t-46 -168t-53 -191.5t-54.5 -199.5t-51 -191t-43.5 -167.5t-30.5 -128q-7 -26 1 -42.5t27 -19.5
l90 -12q12 -2 18 -6.5t6 -12.5t-7.5 -13t-20.5 -5h-412q-12 0 -17.5 4.5t-5.5 12.5q0 9 7.5 14.5t22.5 6.5l79 10q27 4 44 18t27 44q14 51 35.5 127.5t47 169t53.5 193t55 201.5t52 193.5t44 170t31 130.5q4 26 -3 38t-29 16l-88 13q-14 3 -19 8t-5 12q0 8 7.5 13t20.5 5
h428q147 0 251 -54t150.5 -154.5t19.5 -241.5q-22 -113 -97 -202.5t-196 -141t-280 -52.5q-83 -1 -149 17.5t-113 47.5zM686 565l125 19l118 -363q21 -68 38.5 -103t36 -47.5t38.5 -12.5t35 9.5t28 29.5q4 6 11 8.5t12 0.5q7 -2 8.5 -9t-2.5 -15q-17 -43 -63 -73.5
t-106 -30.5q-36 0 -65.5 19t-54.5 65.5t-49 129.5zM1037 1670q40 35 70 54t58 13q24 -5 30.5 -24.5t-3.5 -39.5q-12 -28 -40.5 -46.5t-66.5 -36.5l-222 -106q-6 -3 -12.5 -3t-9.5 4q-3 5 1 10.5t10 10.5z" />
    </font>
</defs>
</svg>
