<?xml version="1.0" standalone="no"?>
<!DOCTYPE svg PUBLIC "-//W3C//DTD SVG 1.1//EN" "http://www.w3.org/Graphics/SVG/1.1/DTD/svg11.dtd" >
<svg xmlns="http://www.w3.org/2000/svg" xmlns:xlink="http://www.w3.org/1999/xlink" version="1.1">
<metadata>
Created by FontForge 20201107 at Mon Oct 26 20:10:00 2020
 By 
Copyright 2020 The Fraunces Project Authors (github.com/undercasetype/Fraunces)
</metadata>
<defs>
<font id="Fraunces72pt-Bold" horiz-adv-x="1128" >
  <font-face 
    font-family="Fraunces 72pt"
    font-weight="700"
    font-stretch="normal"
    units-per-em="2000"
    panose-1="0 0 0 0 0 0 0 0 0 0"
    ascent="1600"
    descent="-400"
    x-height="924"
    cap-height="1400"
    bbox="-105 -549.684 2753.52 2191.12"
    underline-thickness="50"
    underline-position="-325"
    unicode-range="U+0020-FB04"
  />
<missing-glyph horiz-adv-x="1000" 
d="M100 -487v2002h800v-2002h-800zM200 -387h600v1802h-600v-1802z" />
    <glyph glyph-name="f_f" unicode="ff" horiz-adv-x="1468" 
d="M511 129q0 -23 8.5 -36t27.5 -16l105 -14q17 -2 24.5 -10.5t7.5 -21.5q0 -31 -38 -31h-545q-17 0 -27 8t-10 21t7.5 21t23.5 12l52 13q21 6 30 17.5t9 31.5v652q0 13 -7 23t-25 16l-72 22q-21 9 -29 17.5t-8 19.5q0 12 9 20t28 8h151l-46 -23v21q0 25 -15.5 50.5t-36 55
t-36 67.5t-15.5 89q0 131 89.5 207.5t248.5 76.5q102 0 170.5 -32.5t103 -86.5t34.5 -118q0 -71 -37.5 -107.5t-97.5 -36.5q-65 0 -105.5 41t-40.5 109v94q0 40 -19.5 59.5t-56.5 19.5q-47 0 -73 -31.5t-26 -89.5q0 -53 22 -97t55 -80.5t66 -69t55.5 -63.5t22.5 -64v-31
l-27 40h200q18 0 27.5 -7t9.5 -20q0 -21 -20.5 -34.5t-65.5 -13.5h-108v-698zM1245 129q0 -23 8.5 -36t27.5 -16l105 -14q17 -2 24.5 -10.5t7.5 -21.5q0 -31 -38 -31h-545q-17 0 -27 8t-10 21t7.5 21t23.5 12l52 13q21 6 30 17.5t9 31.5v652q0 13 -7 23t-25 16l-72 22
q-21 9 -29 17.5t-8 19.5q0 12 9 20t28 8h151l-46 -23v21q0 25 -15.5 50.5t-36 55t-36 67.5t-15.5 89q0 131 89.5 207.5t248.5 76.5q102 0 170.5 -32.5t103 -86.5t34.5 -118q0 -71 -37.5 -107.5t-97.5 -36.5q-65 0 -105.5 41t-40.5 109v94q0 40 -19.5 59.5t-56.5 19.5
q-47 0 -73 -31.5t-26 -89.5q0 -53 22 -97t55 -80.5t66 -69t55.5 -63.5t22.5 -64v-31l-27 40h200q18 0 27.5 -7t9.5 -20q0 -21 -20.5 -34.5t-65.5 -13.5h-108v-698z" />
    <glyph glyph-name="fi" unicode="fi" horiz-adv-x="1333" 
d="M511 129q0 -23 8.5 -36t27.5 -16l105 -14q17 -2 24.5 -10.5t7.5 -21.5q0 -31 -38 -31h-545q-17 0 -27 8t-10 21t7.5 21t23.5 12l52 13q21 6 30 17.5t9 31.5v652q0 13 -7 23t-25 16l-72 22q-21 9 -29 17.5t-8 19.5q0 12 9 20t28 8h151l-46 -23v21q0 25 -15.5 50.5t-36 55
t-36 67.5t-15.5 89q0 131 89.5 207.5t248.5 76.5q102 0 170.5 -32.5t103 -86.5t34.5 -118q0 -71 -37.5 -107.5t-97.5 -36.5q-65 0 -105.5 41t-40.5 109v94q0 40 -19.5 59.5t-56.5 19.5q-47 0 -73 -31.5t-26 -89.5q0 -53 22 -97t55 -80.5t66 -69t55.5 -63.5t22.5 -64v-31
l-27 40h200q18 0 27.5 -7t9.5 -20q0 -21 -20.5 -34.5t-65.5 -13.5h-108v-698zM1207 899v-772q0 -26 6.5 -38t21.5 -17l37 -10q15 -5 21 -12.5t6 -18.5q0 -15 -9.5 -23t-29.5 -8h-435q-20 0 -29.5 8t-9.5 23q0 10 6 18t20 13l38 10q16 5 22 17t6 38v614q0 18 -6 26.5
t-19 10.5l-44 3q-13 3 -19 10t-6 18q0 13 7.5 20t26.5 14l263 84q30 11 46.5 15.5t30.5 4.5q24 0 36.5 -13.5t12.5 -34.5zM1029 1054q-88 0 -140.5 48t-52.5 124q0 75 53 123t140 48q88 0 141.5 -48t53.5 -123q0 -76 -53.5 -124t-141.5 -48z" />
    <glyph glyph-name="fl" unicode="fl" horiz-adv-x="1341" 
d="M511 129q0 -23 8.5 -36t27.5 -16l105 -14q17 -2 24.5 -10.5t7.5 -21.5q0 -31 -38 -31h-545q-17 0 -27 8t-10 21t7.5 21t23.5 12l52 13q21 6 30 17.5t9 31.5v652q0 13 -7 23t-25 16l-72 22q-21 9 -29 17.5t-8 19.5q0 12 9 20t28 8h151l-46 -23v21q0 25 -15.5 50.5t-36 55
t-36 67.5t-15.5 89q0 131 89.5 207.5t248.5 76.5q102 0 170.5 -32.5t103 -86.5t34.5 -118q0 -71 -37.5 -107.5t-97.5 -36.5q-65 0 -105.5 41t-40.5 109v94q0 40 -19.5 59.5t-56.5 19.5q-47 0 -73 -31.5t-26 -89.5q0 -53 22 -97t55 -80.5t66 -69t55.5 -63.5t22.5 -64v-31
l-27 40h200q18 0 27.5 -7t9.5 -20q0 -21 -20.5 -34.5t-65.5 -13.5h-108v-698zM1211 1450v-1323q0 -26 6.5 -38t21.5 -17l37 -10q15 -5 21 -12.5t6 -18.5q0 -15 -9.5 -23t-30.5 -8h-435q-19 0 -29 8t-10 23q0 10 6.5 18t21.5 13l37 10q15 5 21.5 17t6.5 38v1165q0 19 -6 27
t-19 10l-44 3q-13 3 -19 10t-6 18q0 13 7.5 20t26.5 14l263 84q30 11 46.5 15.5t29.5 4.5q25 0 37.5 -13.5t12.5 -34.5z" />
    <glyph glyph-name="f_f_i" unicode="ffi" horiz-adv-x="2067" 
d="M511 129q0 -23 8.5 -36t27.5 -16l105 -14q17 -2 24.5 -10.5t7.5 -21.5q0 -31 -38 -31h-545q-17 0 -27 8t-10 21t7.5 21t23.5 12l52 13q21 6 30 17.5t9 31.5v652q0 13 -7 23t-25 16l-72 22q-21 9 -29 17.5t-8 19.5q0 12 9 20t28 8h151l-46 -23v21q0 25 -15.5 50.5t-36 55
t-36 67.5t-15.5 89q0 131 89.5 207.5t248.5 76.5q102 0 170.5 -32.5t103 -86.5t34.5 -118q0 -71 -37.5 -107.5t-97.5 -36.5q-65 0 -105.5 41t-40.5 109v94q0 40 -19.5 59.5t-56.5 19.5q-47 0 -73 -31.5t-26 -89.5q0 -53 22 -97t55 -80.5t66 -69t55.5 -63.5t22.5 -64v-31
l-27 40h200q18 0 27.5 -7t9.5 -20q0 -21 -20.5 -34.5t-65.5 -13.5h-108v-698zM1245 129q0 -23 8.5 -36t27.5 -16l105 -14q17 -2 24.5 -10.5t7.5 -21.5q0 -31 -38 -31h-545q-17 0 -27 8t-10 21t7.5 21t23.5 12l52 13q21 6 30 17.5t9 31.5v652q0 13 -7 23t-25 16l-72 22
q-21 9 -29 17.5t-8 19.5q0 12 9 20t28 8h151l-46 -23v21q0 25 -15.5 50.5t-36 55t-36 67.5t-15.5 89q0 131 89.5 207.5t248.5 76.5q102 0 170.5 -32.5t103 -86.5t34.5 -118q0 -71 -37.5 -107.5t-97.5 -36.5q-65 0 -105.5 41t-40.5 109v94q0 40 -19.5 59.5t-56.5 19.5
q-47 0 -73 -31.5t-26 -89.5q0 -53 22 -97t55 -80.5t66 -69t55.5 -63.5t22.5 -64v-31l-27 40h200q18 0 27.5 -7t9.5 -20q0 -21 -20.5 -34.5t-65.5 -13.5h-108v-698zM1941 899v-772q0 -26 6.5 -38t21.5 -17l37 -10q15 -5 21 -12.5t6 -18.5q0 -15 -9.5 -23t-29.5 -8h-435
q-20 0 -29.5 8t-9.5 23q0 10 6 18t20 13l38 10q16 5 22 17t6 38v614q0 18 -6 26.5t-19 10.5l-44 3q-13 3 -19 10t-6 18q0 13 7.5 20t26.5 14l263 84q30 11 46.5 15.5t30.5 4.5q24 0 36.5 -13.5t12.5 -34.5zM1763 1054q-88 0 -140.5 48t-52.5 124q0 75 53 123t140 48
q88 0 141.5 -48t53.5 -123q0 -76 -53.5 -124t-141.5 -48z" />
    <glyph glyph-name="f_f_l" unicode="ffl" horiz-adv-x="2075" 
d="M511 129q0 -23 8.5 -36t27.5 -16l105 -14q17 -2 24.5 -10.5t7.5 -21.5q0 -31 -38 -31h-545q-17 0 -27 8t-10 21t7.5 21t23.5 12l52 13q21 6 30 17.5t9 31.5v652q0 13 -7 23t-25 16l-72 22q-21 9 -29 17.5t-8 19.5q0 12 9 20t28 8h151l-46 -23v21q0 25 -15.5 50.5t-36 55
t-36 67.5t-15.5 89q0 131 89.5 207.5t248.5 76.5q102 0 170.5 -32.5t103 -86.5t34.5 -118q0 -71 -37.5 -107.5t-97.5 -36.5q-65 0 -105.5 41t-40.5 109v94q0 40 -19.5 59.5t-56.5 19.5q-47 0 -73 -31.5t-26 -89.5q0 -53 22 -97t55 -80.5t66 -69t55.5 -63.5t22.5 -64v-31
l-27 40h200q18 0 27.5 -7t9.5 -20q0 -21 -20.5 -34.5t-65.5 -13.5h-108v-698zM1245 129q0 -23 8.5 -36t27.5 -16l105 -14q17 -2 24.5 -10.5t7.5 -21.5q0 -31 -38 -31h-545q-17 0 -27 8t-10 21t7.5 21t23.5 12l52 13q21 6 30 17.5t9 31.5v652q0 13 -7 23t-25 16l-72 22
q-21 9 -29 17.5t-8 19.5q0 12 9 20t28 8h151l-46 -23v21q0 25 -15.5 50.5t-36 55t-36 67.5t-15.5 89q0 131 89.5 207.5t248.5 76.5q102 0 170.5 -32.5t103 -86.5t34.5 -118q0 -71 -37.5 -107.5t-97.5 -36.5q-65 0 -105.5 41t-40.5 109v94q0 40 -19.5 59.5t-56.5 19.5
q-47 0 -73 -31.5t-26 -89.5q0 -53 22 -97t55 -80.5t66 -69t55.5 -63.5t22.5 -64v-31l-27 40h200q18 0 27.5 -7t9.5 -20q0 -21 -20.5 -34.5t-65.5 -13.5h-108v-698zM1945 1450v-1323q0 -26 6.5 -38t21.5 -17l37 -10q15 -5 21 -12.5t6 -18.5q0 -15 -9.5 -23t-30.5 -8h-435
q-19 0 -29 8t-10 23q0 10 6.5 18t21.5 13l37 10q15 5 21.5 17t6.5 38v1165q0 19 -6 27t-19 10l-44 3q-13 3 -19 10t-6 18q0 13 7.5 20t26.5 14l263 84q30 11 46.5 15.5t29.5 4.5q25 0 37.5 -13.5t12.5 -34.5z" />
    <glyph glyph-name=".notdef" horiz-adv-x="1000" 
d="M100 -487v2002h800v-2002h-800zM200 -387h600v1802h-600v-1802z" />
    <glyph glyph-name=".null" horiz-adv-x="0" 
 />
    <glyph glyph-name="nonmarkingreturn" horiz-adv-x="666" 
 />
    <glyph glyph-name="space" unicode=" " horiz-adv-x="371" 
 />
    <glyph glyph-name="exclam" unicode="!" horiz-adv-x="612" 
d="M309 1483q105 0 153.5 -47.5t48.5 -123.5q0 -27 -4.5 -61.5t-14.5 -69.5l-145 -676q-6 -24 -15.5 -36t-27.5 -12t-27 12t-16 36l-142 678q-11 42 -15 71.5t-4 58.5q0 76 52 123t157 47zM301 -22q-54 0 -97 27t-68.5 72.5t-25.5 98.5q0 54 25.5 98t69 70.5t96.5 26.5
q55 0 98.5 -26.5t69 -70.5t25.5 -98q0 -53 -25.5 -98.5t-69 -72.5t-98.5 -27z" />
    <glyph glyph-name="quotedbl" unicode="&#x22;" horiz-adv-x="762" 
d="M565 835q-16 0 -29 12.5t-18 37.5l-89 475q-21 108 16.5 166.5t130.5 58.5t128.5 -60t12.5 -164l-101 -477q-6 -26 -18.5 -37.5t-32.5 -11.5zM180 834q-16 0 -29 12.5t-18 37.5l-89 475q-21 108 16.5 166.5t130.5 58.5t128.5 -60t12.5 -164l-101 -477q-6 -26 -18.5 -37.5
t-32.5 -11.5z" />
    <glyph glyph-name="numbersign" unicode="#" horiz-adv-x="1272" 
d="M485 690q-9 -34 -22.5 -85.5t-29.5 -113t-33 -126.5t-33 -127.5t-30 -116.5t-25 -92q-13 -43 -54 -34q-21 6 -28.5 20.5t-1.5 35.5q9 33 24.5 84.5t34.5 112.5t39.5 126t40 127.5t35 115t25.5 88.5q11 36 24 89.5t28 116.5t30.5 129.5t30 129.5t27.5 115.5t22 86.5
q14 43 55 34q22 -6 29 -20.5t1 -35.5q-10 -37 -25 -90.5t-33.5 -115.5t-37 -127t-36.5 -127t-32.5 -113.5t-24.5 -86.5zM675 953q35 0 86.5 1.5t111 3.5t118.5 4t109 3.5t84 1.5q22 0 35.5 -10t13.5 -30t-13.5 -31t-36.5 -11q-35 0 -86.5 1t-110.5 3t-117.5 4.5t-109 3.5
t-85.5 1q-34 -1 -85.5 -2t-111.5 -2.5l-120 -3t-113 -2.5t-88 -1q-23 0 -36.5 10.5t-13.5 30.5q0 21 13.5 31t36.5 11q33 0 84.5 -2t111.5 -4.5t121 -5t113.5 -4t88.5 -1.5zM606 467q-34 0 -85.5 -1t-111.5 -2.5t-120.5 -3t-112.5 -2.5t-88 -1q-23 0 -36.5 10.5t-13.5 30.5
q0 21 13.5 31t36.5 10q33 0 84.5 -1.5t111.5 -4t121 -5t113.5 -4t88.5 -1.5q35 0 86.5 1t111 3t118.5 4.5t109.5 3.5t83.5 2q22 0 35.5 -10.5t14.5 -30.5q-1 -20 -14.5 -30.5t-36.5 -11.5q-36 1 -87.5 2t-110.5 3t-117.5 4t-109 3t-84.5 1zM680 29q-13 -43 -54 -34
q-21 6 -28.5 20.5t-1.5 35.5q9 33 24.5 84t34.5 112.5t39.5 126.5t40 127t35.5 115t26 89t23 89.5t28 117t30.5 129.5t30.5 129t28 115t22 86q12 45 54 35q22 -6 29 -21t0 -36q-10 -36 -25 -89.5t-33 -115.5t-37 -127.5t-36.5 -127t-32 -113t-24.5 -86.5q-9 -34 -22.5 -85.5
t-29.5 -113t-33 -126.5t-33 -128t-30.5 -116.5t-24.5 -91.5z" />
    <glyph glyph-name="dollar" unicode="$" horiz-adv-x="1171" 
d="M616 1393q158 0 268.5 -42t169 -115.5t58.5 -169.5q0 -65 -36 -111.5t-107 -46.5q-75 0 -120 41t-45 108v85q0 95 -52 151.5t-143 56.5q-66 0 -116 -25t-78.5 -73t-28.5 -118q0 -64 28 -116t93 -94t175 -79q163 -55 257.5 -121t135.5 -144.5t41 -172.5q0 -120 -64.5 -211
t-185 -141t-286.5 -50q-170 0 -286.5 43t-176.5 115.5t-60 160.5q0 69 41 113.5t112 44.5q63 0 108 -43t45 -115v-89q0 -82 58.5 -134t159.5 -52q104 0 164.5 57t60.5 151q0 99 -63 168t-229 125q-159 55 -253.5 118.5t-135.5 142t-41 176.5q0 114 64.5 206t184 146
t283.5 54zM631 742h-45q0 133 -4 249.5t-9 216t-9 181t-4 144.5q0 26 13.5 40.5t35.5 14.5q21 0 35 -14.5t14 -41.5q0 -56 -4 -135t-9 -180t-9.5 -220.5t-4.5 -254.5zM562 680h44q0 -134 4.5 -253t9.5 -219.5t9 -180t4 -135.5q0 -26 -13.5 -40.5t-35.5 -14.5q-21 0 -35 14
t-14 42q0 62 4 143.5t9 180.5t9.5 215t4.5 248z" />
    <glyph glyph-name="percent" unicode="%" horiz-adv-x="1462" 
d="M404 1426q156 0 252 -97t96 -266q0 -123 -46 -209t-125.5 -130.5t-180.5 -44.5q-169 0 -262.5 97.5t-93.5 278.5q0 168 97 269.5t263 101.5zM507 1050q0 178 -28.5 251.5t-78.5 73.5q-53 0 -81.5 -75.5t-28.5 -233.5q0 -186 29 -261t82 -75q31 0 54.5 28.5t37.5 98.5
t14 193zM800 757q-11 -14 -20 -17.5t-22 3.5q-11 6 -12 16t6 25q12 20 40 68.5t65.5 112t78.5 131.5t77.5 129t63 104.5t35.5 57.5q17 27 41.5 34t51.5 -9q26 -15 29.5 -39t-13.5 -49q-8 -13 -38 -53.5t-72.5 -98.5t-90 -122t-92.5 -124t-79 -105t-49 -64zM664 647
q11 14 21 18t22 -2q12 -7 12 -17t-9 -26q-10 -20 -38.5 -68.5t-66 -112.5t-78 -132.5t-77.5 -130.5t-64 -105.5t-35 -57.5q-17 -25 -41.5 -31.5t-50.5 7.5q-26 15 -30 38.5t14 49.5q8 13 37.5 54.5t72.5 100t91 122.5t92.5 124t78.5 105.5t49 63.5zM1070 719q156 0 252 -97
t96 -266q0 -123 -46 -209t-125.5 -130.5t-180.5 -44.5q-169 0 -262.5 97.5t-93.5 278.5q0 168 97 269.5t263 101.5zM1173 343q0 178 -28.5 251.5t-78.5 73.5q-53 0 -81.5 -75.5t-28.5 -233.5q0 -186 29 -261t82 -75q31 0 54.5 28.5t37.5 98.5t14 193z" />
    <glyph glyph-name="ampersand" unicode="&#x26;" horiz-adv-x="1928" 
d="M1304 -35q175 0 298 64t188 187.5t65 302.5q0 193 -73.5 372t-210.5 322q-139 145 -329 229t-407 84q-231 0 -393.5 -67.5t-247 -187t-84.5 -278.5q0 -105 45.5 -166t126.5 -61q65 0 107 41t42 105q0 42 -9 74.5t-21 61.5t-21 61.5t-9 75.5q0 83 48.5 147t150 100.5
t259.5 36.5q207 0 385 -81.5t307 -218.5q132 -138 199.5 -308.5t67.5 -342.5q0 -145 -41.5 -240t-113 -141.5t-163.5 -46.5q-72 0 -133 30.5t-126.5 103t-150.5 196.5q-69 98 -114 189.5t-67 184t-22 194.5q0 99 32.5 162.5t79.5 63.5q38 0 56.5 -57t18.5 -147
q0 -96 -24 -165t-66 -106.5t-96 -41.5l9 -36q140 4 241 44.5t156 112.5t55 170q0 83 -42 147t-116.5 100.5t-171.5 36.5q-134 0 -229 -56.5t-146 -155t-51 -225.5q0 -93 20.5 -189t63.5 -195t113 -203q68 -102 150 -164t180 -90.5t214 -28.5zM1183 215l19 -35
q193 69 289 179t96 238q0 89 -41.5 137.5t-106.5 48.5q-67 0 -110 -45t-43 -106q0 -34 8.5 -60.5t17 -57t8.5 -74.5q0 -33 -13.5 -73.5t-43.5 -80t-80 -71.5zM619 634l-1 43q-167 -4 -283.5 -51t-178 -129.5t-61.5 -193.5q0 -154 101.5 -241.5t285.5 -87.5q104 0 181 18.5
t133 51.5t99 75l-30 50q-37 -31 -80 -48t-100 -17q-106 0 -168 74.5t-62 201.5q0 69 19 125t56 90t89 39z" />
    <glyph glyph-name="quotesingle" unicode="'" horiz-adv-x="378" 
d="M180 835q-16 0 -29 12.5t-18 37.5l-89 475q-21 108 16.5 166.5t130.5 58.5t128.5 -60t12.5 -164l-101 -477q-6 -26 -18.5 -37.5t-32.5 -11.5z" />
    <glyph glyph-name="parenleft" unicode="(" horiz-adv-x="711" 
d="M136 611q0 202 63 369.5t172 288.5t245 181q61 24 74 8q7 -9 1 -22.5t-29 -43.5q-73 -87 -129 -206.5t-87.5 -264.5t-31.5 -310t31.5 -310.5t87.5 -265t129 -205.5q23 -30 29 -43.5t-1 -22.5q-13 -17 -74 7q-136 61 -245 181.5t-172 288.5t-63 370z" />
    <glyph glyph-name="parenright" unicode=")" horiz-adv-x="707" 
d="M571 607q0 -202 -63 -369.5t-172 -288.5t-245 -181q-61 -24 -74 -8q-7 9 -1 22.5t29 43.5q73 87 129 206.5t87.5 264.5t31.5 310t-31.5 310.5t-87.5 265t-129 205.5q-23 30 -29 43.5t1 22.5q13 17 74 -7q136 -61 245 -181.5t172 -288.5t63 -370z" />
    <glyph glyph-name="asterisk" unicode="*" horiz-adv-x="1186" 
d="M607 1006h-24q0 80 -21 138t-47.5 103.5t-47 85t-20.5 83.5q0 130 148 130q70 0 108.5 -33t38.5 -97q0 -44 -20.5 -84t-47 -85t-47 -103t-20.5 -138zM599 1017l-8 -23q-76 25 -138 24t-113.5 -12.5t-96.5 -18.5t-87 6q-123 41 -77 180q22 66 65 92t104 6
q41 -13 73.5 -44.5t67.5 -71t84.5 -76.5t125.5 -62zM585 1012l19 -13q-46 -65 -64 -124t-23 -111.5t-12.5 -96.5t-32.5 -79q-76 -105 -197 -19q-56 41 -67.5 90t24.5 101q26 35 66.5 55.5t89 41.5t99.5 56t98 99zM585 999l19 13q48 -65 99 -100t99.5 -56t89 -41t65.5 -55
q76 -105 -44 -192q-55 -40 -106.5 -36t-88.5 56q-26 35 -33 79t-12 96.5t-23 111.5t-65 124zM591 1017q76 25 125.5 62t84.5 76.5t67 71t74 44.5q123 40 169 -99q22 -66 2.5 -112t-80.5 -67q-41 -13 -86 -6t-96.5 18.5t-113.5 12.5t-138 -24z" />
    <glyph glyph-name="plus" unicode="+" horiz-adv-x="1031" 
d="M105 682q0 19 12 30t29 11h741q16 0 27.5 -11t11.5 -30t-11.5 -30t-27.5 -11h-742q-16 0 -28 11t-12 30zM513 277q-19 0 -30 12t-11 29v741q0 16 11 27.5t30 11.5t30 -11.5t11 -27.5v-742q0 -16 -11 -28t-30 -12z" />
    <glyph glyph-name="comma" unicode="," horiz-adv-x="552" 
d="M276 -8q-95 0 -141.5 48t-46.5 127q0 80 54.5 133.5t137.5 53.5q85 0 145 -64t60 -194q0 -96 -22 -172t-64 -133t-102.5 -95t-136.5 -59q-27 -6 -42 -0.5t-18 18.5q-3 14 6.5 25.5t37.5 20.5q83 28 133 68.5t72 87.5t22 94q0 19 -8 30t-32 11h-55z" />
    <glyph glyph-name="hyphen" unicode="-" horiz-adv-x="665" 
d="M575 634q48 0 31 -50l-21 -104q-8 -25 -20 -33t-32 -8h-443q-48 0 -30 50l21 104q8 25 19.5 33t31.5 8h443z" />
    <glyph glyph-name="period" unicode="." horiz-adv-x="533" 
d="M266 -23q-54 0 -97.5 27.5t-69 72.5t-25.5 98q0 54 25.5 98t69 70.5t97.5 26.5t98 -26.5t69.5 -70.5t25.5 -98q0 -53 -25.5 -98t-69 -72.5t-98.5 -27.5z" />
    <glyph glyph-name="slash" unicode="/" horiz-adv-x="840" 
d="M470 592q-19 -46 -44 -111.5t-52.5 -142t-56.5 -157t-57 -158t-53 -144.5t-46 -116q-12 -25 -35.5 -33t-53.5 6q-30 13 -40.5 36t1.5 49q19 46 47 109.5t62 138t69.5 152.5t69.5 153t63 140t49 113t45.5 115.5t54 145.5t57.5 159.5t57 159t53 143.5t44 111q12 26 36 33.5
t54 -5.5q30 -14 40 -37t-1 -49q-20 -49 -49.5 -115t-63.5 -141.5t-69.5 -153.5t-69.5 -152.5t-62.5 -138t-48.5 -110.5z" />
    <glyph glyph-name="zero" unicode="0" horiz-adv-x="1344" 
d="M672 1428q194 0 331 -85.5t209 -248.5t72 -397q0 -228 -76.5 -390.5t-215 -249t-327.5 -86.5q-193 0 -328.5 86.5t-206 251.5t-70.5 401q0 220 75.5 381t213 249t323.5 88zM904 638q0 260 -26.5 420t-80 233t-136.5 73q-73 0 -122.5 -60.5t-74 -193t-24.5 -347.5
q0 -260 26.5 -420t80 -233.5t136.5 -73.5q72 0 121.5 58.5t74.5 191t25 352.5z" />
    <glyph glyph-name="one" unicode="1" horiz-adv-x="889" 
d="M121 1256l102 -1q26 0 38 -13.5t12 -47.5v-1022q0 -37 -17.5 -55t-47.5 -25l-108 -19q-39 -9 -39 -37q0 -17 11.5 -26.5t35.5 -9.5h692q21 0 31.5 9.5t10.5 25.5q0 29 -34 37l-104 20q-29 7 -44 26t-15 54v1226q0 44 -42 44q-15 0 -27 -4.5t-26 -14.5q-57 -47 -126.5 -66
t-184.5 -19l-116 -1q-23 0 -36.5 -11.5t-13.5 -28.5q0 -18 11.5 -29.5t36.5 -11.5z" />
    <glyph glyph-name="two" unicode="2" horiz-adv-x="1229" 
d="M223 320l-35 30l198 120q112 65 188.5 146t115.5 183.5t39 232.5q0 125 -20.5 200t-56 108.5t-81.5 33.5q-74 0 -110 -51t-36 -141v-136q0 -82 -47 -130t-122 -48q-77 0 -122 46t-45 130q0 99 58.5 186.5t178 142.5t299.5 55q163 0 271.5 -48.5t163 -135t54.5 -197.5
q0 -104 -54.5 -193.5t-173 -176t-308.5 -181.5zM61 141q0 118 89.5 188t260.5 70q70 0 136.5 -13.5t130.5 -31t127.5 -31t126.5 -13.5q74 0 115.5 29.5t70.5 99.5q8 14 18 19.5t21 4.5q13 -1 20 -12.5t5 -35.5q-14 -166 -57.5 -263t-113.5 -138.5t-162 -41.5
q-77 0 -134.5 24.5t-104 83.5t-91.5 164q-25 47 -42 62.5t-37 15.5q-24 0 -38.5 -25.5t-18.5 -91.5q-7 -89 -30.5 -140t-62.5 -71.5t-91 -20.5q-62 0 -100 46t-38 122z" />
    <glyph glyph-name="three" unicode="3" horiz-adv-x="1134" 
d="M491 734l-19 22q13 3 30.5 4.5t36 2.5t34.5 1q155 0 269.5 -41t177 -121t62.5 -198q0 -131 -66.5 -228.5t-186.5 -151t-283 -53.5q-158 0 -266 42t-163 113.5t-55 161.5q0 84 50.5 138t123.5 54q72 0 113.5 -44t41.5 -117v-117q0 -74 41.5 -124t115.5 -50q57 0 99 32
t65.5 102.5t23.5 186.5q0 173 -60.5 255t-166.5 82h-63q-23 0 -34 10t-11 28q0 14 7.5 25.5t25.5 27.5l413 402l6 -61h-555q-29 0 -46 -11.5t-24 -37.5l-32 -116q-4 -15 -14.5 -24.5t-29.5 -9.5q-18 1 -29.5 12t-9.5 31l42 377q2 28 20.5 44.5t49.5 16.5h825q30 0 43.5 -8.5
t13.5 -26.5q0 -12 -9 -27t-37 -42z" />
    <glyph glyph-name="four" unicode="4" horiz-adv-x="1263" 
d="M618 664q0 17 6 29.5t17 23.5l266 236q16 15 26 19.5t20 4.5q12 0 19.5 -7.5t7.5 -24.5l1 -799q0 -24 12 -36t34 -18l88 -21q17 -5 26.5 -13.5t9.5 -22.5q0 -16 -11 -25.5t-33 -9.5h-625q-45 0 -45 34q0 27 35 36l103 22q22 5 32.5 16.5t10.5 34.5v521zM442 826
q40 37 59.5 70.5t19.5 74.5q0 34 -16.5 65t-38.5 63.5t-38 70t-16 83.5q0 57 27.5 103t81.5 73t132 27q101 0 160.5 -54.5t59.5 -143.5q0 -46 -16 -91t-60 -101t-128 -134l-571 -563l-11 35h1061q20 0 32 -7.5t12 -24.5q0 -38 -48 -38h-1076q-22 0 -34.5 11.5t-12.5 30.5
q0 11 7.5 23.5t24.5 28.5z" />
    <glyph glyph-name="five" unicode="5" horiz-adv-x="1166" 
d="M83 289q0 80 51 132t126 52q72 0 113.5 -46t41.5 -121v-151q0 -54 37 -93t107 -39q76 0 125.5 90.5t49.5 269.5q0 192 -60 284t-163 92q-44 0 -85.5 -15.5t-80.5 -45.5t-76 -74q-18 -15 -31 -22t-29 -7q-17 0 -29.5 10.5t-12.5 30.5v728q0 28 15.5 43.5t47.5 15.5
q16 0 33.5 -4.5t44.5 -14.5q57 -20 122 -35t137 -23t148 -8q120 0 199.5 26t108.5 69q17 15 29 18t21 1q9 -3 14.5 -12t2.5 -27q-15 -143 -68 -228t-149 -122.5t-239 -37.5q-80 0 -159.5 11t-150 31.5t-124.5 47.5l49 56v-519l-31 7q53 62 109.5 102t125 59t159.5 19
q145 0 253.5 -51.5t169 -145t60.5 -219.5q0 -141 -68 -242t-192 -155.5t-291 -54.5q-146 0 -249.5 42.5t-157.5 114.5t-54 161z" />
    <glyph glyph-name="six" unicode="6" horiz-adv-x="1242" 
d="M704 1428q149 0 249.5 -41t151 -109t50.5 -150q0 -89 -50.5 -138t-136.5 -49q-83 0 -134.5 49t-51.5 135v113q0 61 -27.5 95t-84.5 34q-49 0 -92.5 -38.5t-76.5 -124.5t-52 -229t-19 -350q1 -229 29 -358.5t76 -183t107 -53.5q87 0 138.5 89t51.5 279q0 172 -62.5 259.5
t-159.5 87.5q-54 0 -100.5 -26t-76.5 -72.5t-35 -108.5l-42 20q3 79 55.5 145t142 106t204.5 40q131 0 227 -48.5t148 -140t50 -223.5q-2 -141 -69 -245.5t-188.5 -162.5t-286.5 -58q-176 0 -305.5 79.5t-200.5 231.5t-71 367q0 254 81.5 427.5t226.5 262.5t334 89z" />
    <glyph glyph-name="seven" unicode="7" horiz-adv-x="1059" 
d="M834 1124l36 -24h-621q-28 0 -42 -10t-21 -37l-36 -128q-5 -16 -16.5 -26t-29.5 -10q-20 0 -30.5 11.5t-8.5 32.5l41 411q2 25 17.5 40.5t42.5 15.5h854q30 0 46 -13.5t16 -35.5q0 -15 -9 -32.5t-34 -48.5l-265 -369q-56 -72 -93 -126.5t-59 -97t-30.5 -78.5t-8.5 -72
q0 -55 20 -97t46 -79.5t46 -80.5t20 -102q0 -80 -57 -139.5t-164 -59.5q-104 0 -165 62.5t-61 177.5q0 69 22.5 140.5t74 155.5t138.5 189z" />
    <glyph glyph-name="eight" unicode="8" horiz-adv-x="1225" 
d="M585 -28q-172 0 -284.5 42.5t-167.5 118.5t-55 174q0 78 42.5 143.5t136 111t246.5 64.5l5 -16q-44 -43 -65 -118.5t-21 -148.5q0 -159 52 -238.5t144 -79.5t138.5 59t46.5 162q0 67 -26 122t-86 99t-164 76q-237 77 -343 192t-106 262q0 118 64 216t190 156.5t310 58.5
q167 0 283 -46.5t176.5 -130.5t60.5 -198q0 -92 -48.5 -170t-147 -130.5t-248.5 -66.5l-17 18q36 31 64 81t43.5 113.5t15.5 134.5q0 113 -25 188.5t-72.5 114.5t-115.5 39q-59 0 -102 -29.5t-66 -81.5t-23 -120q0 -91 31 -162t101.5 -125t188.5 -92q225 -72 324.5 -173
t99.5 -221q0 -119 -68.5 -208.5t-198.5 -140t-313 -50.5z" />
    <glyph glyph-name="nine" unicode="9" horiz-adv-x="1250" 
d="M543 -28q-150 0 -251 41t-152 109.5t-51 149.5q0 88 50.5 137t137.5 49q86 0 135.5 -49t49.5 -141v-106q0 -57 29 -93t86 -36q67 0 121.5 70.5t87.5 233t33 439.5q0 228 -28 357t-75.5 182t-105.5 53q-90 0 -143 -89t-53 -274q0 -168 61 -254.5t155 -86.5q58 0 106.5 25
t79.5 70t35 105l42 -13q-3 -79 -53.5 -145t-140 -106t-210.5 -40q-131 0 -227 47.5t-147.5 138.5t-51.5 220q0 137 68 241t191.5 162.5t288.5 58.5q176 0 305.5 -79t200 -230.5t70.5 -366.5q0 -254 -81.5 -428t-226.5 -263t-336 -89z" />
    <glyph glyph-name="colon" unicode=":" horiz-adv-x="532" 
d="M265 -23q-54 0 -97.5 27.5t-69 72.5t-25.5 98q0 54 25.5 98t69 70.5t97.5 26.5t98 -26.5t69.5 -70.5t25.5 -98q0 -53 -25.5 -98t-69 -72.5t-98.5 -27.5zM265 550q-54 0 -97.5 27.5t-69 72.5t-25.5 98q0 54 25.5 98t69 70.5t97.5 26.5t98 -26.5t69.5 -70.5t25.5 -98
q0 -53 -25.5 -98t-69 -72.5t-98.5 -27.5z" />
    <glyph glyph-name="semicolon" unicode=";" horiz-adv-x="560" 
d="M279 546q-54 0 -97.5 27.5t-69 72.5t-25.5 98q0 54 25.5 98t69 70.5t97.5 26.5t98 -26.5t69.5 -70.5t25.5 -98q0 -53 -25.5 -98t-69 -72.5t-98.5 -27.5zM273 -8q-95 0 -141.5 48t-46.5 127q0 80 54.5 133.5t137.5 53.5q85 0 145 -64t60 -194q0 -96 -22 -172t-64 -133
t-102.5 -95t-136.5 -59q-27 -6 -42 -0.5t-18 18.5q-3 14 6.5 25.5t37.5 20.5q83 28 133 68.5t72 87.5t22 94q0 19 -8 30t-32 11h-55z" />
    <glyph glyph-name="less" unicode="&#x3c;" horiz-adv-x="963" 
d="M175 692v-15l637 373q21 11 30.5 24t9.5 25q0 16 -9 26.5t-31 10.5q-16 0 -32.5 -7t-41.5 -20l-618 -360q-24 -12 -36 -28.5t-12 -36.5q0 -22 12 -37.5t36 -28.5l626 -363q24 -11 41 -18.5t34 -7.5q20 0 29 10.5t9 26.5q0 12 -9.5 26t-29.5 24z" />
    <glyph glyph-name="equal" unicode="=" horiz-adv-x="1031" 
d="M109 852q0 19 12 30t29 11h741q16 0 27.5 -11t11.5 -30t-11.5 -30t-27.5 -11h-742q-16 0 -28 11t-12 30zM109 521q0 19 12 30t29 11h741q16 0 27.5 -11t11.5 -30t-11.5 -30t-27.5 -11h-742q-16 0 -28 11t-12 30z" />
    <glyph glyph-name="greater" unicode="&#x3e;" horiz-adv-x="963" 
d="M784 676v15l-637 -373q-21 -11 -30.5 -24t-9.5 -25q0 -16 9 -26.5t31 -10.5q16 0 32.5 7t41.5 20l618 360q24 12 36 28.5t12 36.5q0 22 -12 37.5t-36 28.5l-626 363q-24 11 -41 18.5t-34 7.5q-20 0 -29 -10.5t-9 -26.5q0 -12 9.5 -26t29.5 -24z" />
    <glyph glyph-name="question" unicode="?" horiz-adv-x="1116" 
d="M441 644l15 -144q5 -21 15.5 -31.5t31.5 -10.5q17 0 27.5 9.5t17.5 33.5l13 122q6 32 20 48t45 22l73 14q189 38 279 134.5t90 240.5q0 179 -130 276t-382 97q-145 0 -258 -47.5t-177.5 -126t-64.5 -173.5q0 -88 46 -136t122 -48q88 0 136 56t47 158v98q0 72 36 113
t102 41q69 0 104 -63t35 -187q0 -157 -29.5 -242.5t-104.5 -123.5l-51 -24q-38 -18 -51.5 -43t-6.5 -63zM495 -23q-53 0 -96.5 27t-69 72.5t-25.5 98.5q0 54 25.5 98t69 70.5t96.5 26.5q55 0 99 -26.5t69.5 -70.5t25.5 -98q0 -53 -25.5 -98.5t-69.5 -72.5t-99 -27z" />
    <glyph glyph-name="at" unicode="@" horiz-adv-x="1717" 
d="M993 513q-28 13 -52.5 19t-58.5 6q-55 0 -89.5 -39.5t-34.5 -114.5q0 -73 32 -110.5t81 -37.5q35 0 67.5 17t51.5 47l19 -35q-43 -69 -122 -106.5t-169 -37.5q-120 0 -194.5 59.5t-74.5 154.5q0 113 101 181.5t307 68.5q55 0 88 -9t65 -26zM1323 221q42 0 86.5 26.5
t82 78.5t60.5 128t23 175q0 218 -93.5 374t-251.5 239t-355 83q-165 0 -300.5 -57t-233 -160.5t-150.5 -244t-53 -306.5q0 -232 95.5 -406.5t265 -271t390.5 -96.5q192 0 361.5 73t301.5 224q18 18 32 21.5t25 -5.5q9 -8 6.5 -23.5t-19.5 -35.5q-74 -93 -180.5 -165
t-240 -112t-287.5 -40q-177 0 -328 57.5t-263 166.5t-174 264t-62 349q0 177 59.5 328t168 264t259 176t332.5 63q161 0 301 -51t245.5 -148.5t164.5 -238t59 -320.5q0 -154 -54 -268.5t-152.5 -177.5t-231.5 -63q-68 1 -118 16t-80 43.5t-37 70.5l-17 5v604q0 51 -23.5 81
t-66.5 30t-67 -23.5t-24 -59.5v-75q0 -62 -46 -101t-114 -39q-52 0 -89 28t-37 87q0 63 46.5 117.5t139 87.5t228.5 33q112 0 192 -29t123 -88t43 -147v-478q0 -31 14 -47t44 -16z" />
    <glyph glyph-name="A" unicode="A" horiz-adv-x="1420" 
d="M313 562h546l3 -79h-554zM427 34q0 -15 -10.5 -24.5t-32.5 -9.5h-333q-22 0 -33 9.5t-11 24.5q0 12 7 20t21 15l27 11q34 16 61.5 49.5t49.5 107.5l295 969q15 50 6.5 76t-41.5 41q-21 12 -30 21t-9 22q0 17 11 25.5t33 8.5h519q23 0 33.5 -8.5t10.5 -25.5
q0 -14 -9 -23.5t-29 -17.5q-22 -8 -27 -22.5t6 -49.5l348 -1087q13 -42 29 -62.5t41 -28.5q21 -9 28.5 -17.5t7.5 -23.5t-11 -24.5t-34 -9.5h-495q-23 0 -34 9.5t-11 24.5q0 14 8 21.5t24 13.5l43 11q26 9 27.5 25.5t-9.5 52.5l-346 1101l33 45l-321 -1058
q-14 -45 -7.5 -76.5t32 -53t68.5 -37.5l34 -11q14 -6 22 -13.5t8 -20.5z" />
    <glyph glyph-name="B" unicode="B" horiz-adv-x="1426" 
d="M1381 335q0 -149 -128 -242t-384 -93h-742q-23 0 -34 9.5t-11 24.5q0 28 32 38l57 12q24 7 35.5 19.5t11.5 35.5v1130q0 19 -10.5 29.5t-36.5 17.5l-57 12q-32 10 -32 38q0 16 11 25t34 9h556q196 0 334.5 -51.5t211 -143t72.5 -211.5q0 -101 -58 -178t-167.5 -121
t-263.5 -44l52 23q154 0 270.5 -43t181.5 -119.5t65 -176.5zM735 621h-219v61h202q80 0 134.5 32t81.5 96.5t27 161.5q0 109 -40 189.5t-111.5 124.5t-165.5 44h-58v-1182q0 -41 24.5 -59.5t69.5 -18.5h98q75 0 128 33.5t81 95t28 146.5q0 128 -72 202t-208 74z" />
    <glyph glyph-name="C" unicode="C" horiz-adv-x="1367" 
d="M1315 410q-4 -86 -45.5 -165.5t-116 -142.5t-177.5 -100t-228 -37q-213 0 -367.5 91.5t-238.5 253.5t-84 376q0 163 51 299t143 236.5t217.5 155.5t275.5 55q94 0 156 -18.5t98 -37.5t52 -19q21 0 42 18t42 35.5t39 17.5q13 0 22.5 -9t15.5 -31l99 -381q5 -19 -3 -32.5
t-26 -17.5q-19 -4 -33.5 3.5t-23.5 27.5q-55 134 -121 212t-139.5 111.5t-151.5 33.5q-81 0 -148 -38.5t-117 -111.5t-77 -177.5t-27 -238.5q0 -212 57 -354t157.5 -213t230.5 -71q128 0 223.5 70.5t139.5 204.5q8 18 18 24t23 4q12 -2 17.5 -11t4.5 -23z" />
    <glyph glyph-name="D" unicode="D" horiz-adv-x="1560" 
d="M82 34q0 28 31 38l60 13q23 6 34 17t11 30v1136q0 19 -11 30t-33 17l-62 14q-30 9 -30 37q0 16 11 25t33 9h553q183 0 334 -53.5t260 -153.5t168.5 -241.5t59.5 -317.5q0 -191 -89.5 -333.5t-253 -221.5t-388.5 -79h-644q-22 0 -33 9.5t-11 24.5zM747 75q107 0 190 60
t130.5 187.5t47.5 330.5q0 162 -31.5 287t-92 210.5t-145 130t-190.5 44.5h-66v-1178q0 -36 20 -54t59 -18h78z" />
    <glyph glyph-name="E" unicode="E" horiz-adv-x="1295" 
d="M485 757h258q75 0 109 31.5t51 119.5q5 19 14 27t22 8q29 1 37 -33l93 -336q5 -20 0 -31.5t-19 -16.5t-27 -1.5t-23 17.5q-40 57 -72.5 87.5t-69 42t-89.5 11.5h-284v74zM82 1366q0 16 11 25t34 9h820q33 0 56.5 8t42.5 16t38 8q21 0 32.5 -13.5t20.5 -45.5l87 -330
q6 -21 0.5 -33t-21.5 -18q-18 -6 -32 0.5t-25 25.5q-58 95 -106 155.5t-91 93.5t-87 45t-96 12h-176v-1167q0 -41 21.5 -61t63.5 -20h114q67 0 125.5 29t122.5 109.5t145 235.5q9 18 21.5 24t28.5 3q17 -3 25 -16.5t2 -35.5l-99 -397q-9 -31 -20.5 -45t-35.5 -14
q-17 0 -35.5 8t-43 15.5t-58.5 7.5h-840q-23 0 -34 9.5t-11 24.5q0 28 32 38l57 12q24 6 35.5 17t11.5 30v1138q0 19 -11.5 30t-35.5 17l-57 12q-32 10 -32 38z" />
    <glyph glyph-name="F" unicode="F" horiz-adv-x="1198" 
d="M904 1400q34 0 58.5 7.5t43 15t33.5 7.5q22 0 34 -12.5t20 -44.5l89 -340q5 -18 -4 -29.5t-25 -14.5q-14 -2 -27 3t-23 23q-69 123 -128 190t-116.5 93t-125.5 26h-143v-1193q0 -19 11.5 -31t36.5 -16l92 -12q19 -3 27 -12t8 -26q0 -15 -10.5 -24.5t-33.5 -9.5h-594
q-23 0 -34 9.5t-11 24.5q0 28 32 38l57 12q24 6 35.5 17t11.5 30v1138q0 19 -11.5 30t-35.5 17l-57 12q-32 10 -32 38q0 16 11 25t34 9h777zM474 724h261q79 0 115.5 31.5t54.5 121.5q5 18 14 24.5t21 7.5q31 0 39 -32l78 -337q5 -19 -0.5 -30t-19.5 -17q-14 -4 -26.5 0
t-25.5 20q-38 54 -69 83.5t-66 41.5t-86 12h-290v74z" />
    <glyph glyph-name="G" unicode="G" horiz-adv-x="1482" 
d="M1326 19q0 -27 -10 -38.5t-32 -11.5t-51.5 16.5t-62 38.5t-62 38.5t-52.5 16.5q-17 0 -43 -16.5t-64.5 -37.5t-93 -38t-129.5 -17q-152 0 -275 51t-210.5 145t-134.5 224t-47 289q0 165 52.5 302t148.5 237.5t227.5 155.5t288.5 55q91 0 150 -19t94 -38t52 -19
q25 0 50 18l50 36t47 18q13 0 22 -8.5t15 -32.5l90 -403q5 -18 -3 -31t-24 -17q-17 -4 -31 2.5t-23 25.5q-61 145 -134 230t-154 121.5t-166 36.5q-113 0 -197.5 -70.5t-130.5 -205.5t-46 -331q0 -211 53.5 -357t143.5 -221.5t200 -75.5q32 0 61 9.5t50.5 26.5t34 40.5
t12.5 51.5v310q0 18 -10.5 27.5t-38.5 14.5l-73 13q-19 4 -28.5 13t-9.5 22q0 15 11 24t33 9h515q23 0 34 -9t11 -23q0 -13 -7.5 -21t-24.5 -14l-39 -11q-19 -6 -29 -16t-10 -29v-507z" />
    <glyph glyph-name="H" unicode="H" horiz-adv-x="1664" 
d="M390 699h821v-78h-821v78zM593 131q0 -18 12 -29.5t35 -17.5l57 -12q32 -10 32 -38q0 -15 -11 -24.5t-34 -9.5h-554q-23 0 -33.5 9.5t-10.5 24.5q0 28 32 38l57 12q23 6 34.5 17.5t11.5 29.5v1138q0 18 -11.5 29.5t-34.5 17.5l-57 12q-32 10 -32 38q0 16 10.5 25t33.5 9
h554q23 0 34 -9t11 -25q0 -28 -32 -38l-57 -12q-23 -6 -35 -17.5t-12 -29.5v-1138zM1442 131q0 -18 12 -29.5t35 -17.5l57 -12q32 -10 32 -38q0 -15 -11 -24.5t-34 -9.5h-554q-23 0 -33.5 9.5t-10.5 24.5q0 28 32 38l57 12q23 6 34.5 17.5t11.5 29.5v1138q0 18 -11.5 29.5
t-34.5 17.5l-57 12q-32 10 -32 38q0 16 10.5 25t33.5 9h554q23 0 34 -9t11 -25q0 -28 -32 -38l-57 -12q-23 -6 -35 -17.5t-12 -29.5v-1138z" />
    <glyph glyph-name="I" unicode="I" horiz-adv-x="807" 
d="M589 131q0 -18 12 -29.5t35 -17.5l57 -12q32 -10 32 -38q0 -15 -10.5 -24.5t-33.5 -9.5h-555q-22 0 -33 9.5t-11 24.5q0 28 32 38l57 12q23 6 35 17.5t12 29.5v1138q0 18 -12 29.5t-35 17.5l-57 12q-32 10 -32 38q0 16 11 25t33 9h555q23 0 33.5 -9t10.5 -25
q0 -28 -32 -38l-57 -12q-23 -6 -35 -17.5t-12 -29.5v-1138z" />
    <glyph glyph-name="J" unicode="J" horiz-adv-x="987" 
d="M866 265q0 -134 -117 -215t-319 -81q-185 0 -287.5 71t-102.5 188q0 79 43 127.5t120 48.5q63 0 104.5 -46t41.5 -128v-87q0 -51 23.5 -80.5t75.5 -29.5t84 35.5t32 100.5q0 53 -25 101.5t-58.5 104t-58.5 127t-25 170.5v589q0 23 -9.5 36.5t-32.5 17.5l-68 12
q-19 4 -28 13t-9 25q0 17 11.5 26t33.5 9h561q24 0 35 -9t11 -25q0 -26 -38 -39l-51 -12q-22 -6 -33.5 -17t-11.5 -31v-580q0 -75 15 -130t34 -100t34 -90.5t15 -101.5z" />
    <glyph glyph-name="K" unicode="K" horiz-adv-x="1563" 
d="M498 547l533 541q54 53 70 99.5t-0.5 81t-63.5 50.5l-38 10q-16 6 -23.5 14.5t-7.5 22.5q0 16 11 25t33 9h435q23 0 33.5 -9t10.5 -25q0 -14 -9 -22t-33 -17q-21 -8 -44 -21t-56 -38.5t-82.5 -70.5t-125.5 -118l-610 -604zM701 720l278 248l455 -811q23 -42 43 -60
t49 -22q18 -7 25 -17.5t7 -23.5q0 -16 -11 -25t-34 -9h-535q-22 0 -33 9.5t-11 25.5q0 14 7 23t20 12l49 10q17 4 19.5 20t-17.5 52zM590 131q0 -19 10.5 -29.5t31.5 -17.5l53 -12q19 -7 25.5 -15.5t6.5 -22.5q0 -15 -11 -24.5t-34 -9.5h-545q-23 0 -34 9.5t-11 24.5
q0 28 32 38l57 12q24 6 35.5 17t11.5 30v1138q0 19 -11.5 30t-35.5 17l-57 12q-32 10 -32 38q0 16 11 25t34 9h554q23 0 33.5 -9t10.5 -25q0 -28 -31 -38l-58 -12q-22 -6 -34 -17t-12 -30v-1138z" />
    <glyph glyph-name="L" unicode="L" horiz-adv-x="1233" 
d="M693 1328l-57 -12q-23 -6 -35 -17t-12 -30v-1134q0 -33 17.5 -46t50.5 -13h122q52 0 96 17.5t85.5 64.5t85.5 135l87 172q9 18 22 24.5t29 1.5q18 -5 25 -17.5t1 -33.5l-95 -412q-9 -32 -21 -45.5t-34 -13.5q-15 0 -34 7.5t-44 15.5t-60 8h-796q-22 0 -33 9.5t-11 24.5
q0 28 32 38l57 12q23 6 35 17t12 30v1138q0 19 -12 30t-35 17l-57 12q-32 10 -32 38q0 16 11 25t33 9h555q23 0 33.5 -9t10.5 -25q0 -28 -32 -38z" />
    <glyph glyph-name="M" unicode="M" horiz-adv-x="1802" 
d="M953 506l-78 -34l310 850q16 45 37 61.5t57 16.5h365q23 0 34 -9t11 -25q0 -14 -8 -23.5t-24 -14.5l-56 -13q-27 -7 -37.5 -23.5t-8.5 -48.5l78 -1095q2 -33 11.5 -45t35.5 -19l55 -12q15 -5 22 -13.5t7 -22.5q0 -15 -11 -25.5t-33 -10.5h-546q-23 0 -34 9.5t-11 24.5
q0 14 7 23.5t25 14.5l55 12q29 8 39 21.5t8 42.5l-80 1088l69 14l-402 -1125q-15 -43 -31 -54.5t-36 -11.5q-14 0 -26.5 4.5t-23.5 19t-23 45.5l-427 1093l66 29l-83 -1045q-3 -47 26 -76t77 -47l44 -14q12 -5 18 -12.5t6 -20.5q0 -15 -10.5 -25t-32.5 -10h-339
q-22 0 -32.5 9.5t-10.5 24.5q0 16 9 24.5t24 14.5l34 11q42 14 70.5 44.5t32.5 78.5l77 972q6 64 -4 96t-42 40l-52 12q-18 6 -26.5 15t-8.5 23q0 35 47 35h368q33 0 53.5 -14.5t37.5 -58.5z" />
    <glyph glyph-name="N" unicode="N" horiz-adv-x="1459" 
d="M490 34q0 -15 -11 -24.5t-33 -9.5h-350q-23 0 -33.5 9.5t-10.5 24.5q0 26 32 39l37 12q50 18 77 49t27 92v883q0 25 -4.5 39t-23.5 39l-87 132q-12 18 -18.5 29.5t-6.5 21.5q0 14 10.5 22t27.5 8h331q21 0 35.5 -8.5t29.5 -30.5l686 -1065l-37 -97v975q0 60 -26 91.5
t-78 49.5l-44 12q-32 15 -32 39q0 16 10.5 25t32.5 9h351q22 0 33 -9t11 -25q0 -25 -33 -39l-37 -12q-50 -17 -77 -48.5t-27 -92.5v-899q0 -25 5 -44.5t16 -34.5l67 -102q18 -25 22.5 -37.5t4.5 -23.5q0 -15 -11 -24t-30 -9h-344q-38 0 -38 32q0 12 -4.5 25t-23.5 39
l-694 1067l87 42v-979q0 -60 26.5 -91t77.5 -50l44 -12q33 -14 33 -39z" />
    <glyph glyph-name="O" unicode="O" horiz-adv-x="1546" 
d="M764 1429q166 0 298.5 -52.5t227 -150t145 -231.5t50.5 -296q0 -159 -49.5 -292.5t-142.5 -231.5t-223 -151.5t-290 -53.5q-164 0 -297 52.5t-227.5 150.5t-145 233.5t-50.5 301.5q0 156 50.5 288t143.5 229t222.5 150.5t287.5 53.5zM1106 450q0 140 -23 272t-63.5 246
t-94 200t-114.5 134.5t-126 48.5q-75 0 -130 -45.5t-84.5 -133.5t-29.5 -216q0 -141 23 -274t63.5 -248t93.5 -201.5t114.5 -135.5t125.5 -49q78 0 133 45t83.5 134.5t28.5 222.5z" />
    <glyph glyph-name="P" unicode="P" horiz-adv-x="1394" 
d="M1350 873q0 -133 -66.5 -230.5t-187 -150.5t-282.5 -53q-118 0 -204.5 25.5t-154.5 71.5l10 66q41 -29 79.5 -47t78 -26t83.5 -8q78 0 142 40.5t102 120.5t38 199q0 141 -44.5 240t-122 151.5t-175.5 52.5h-56v-1193q0 -19 11 -31t35 -17l73 -12q18 -4 26 -12.5t8 -25.5
q0 -15 -10.5 -24.5t-33.5 -9.5h-572q-23 0 -34 9.5t-11 24.5q0 28 31 38l60 13q23 6 34 17t11 29v1136q0 19 -11 30.5t-33 17.5l-62 14q-30 9 -30 37q0 16 11 25t33 9h526q216 0 372.5 -67t241 -186t84.5 -274z" />
    <glyph glyph-name="Q" unicode="Q" horiz-adv-x="1560" 
d="M766 1429q165 0 298.5 -52.5t229.5 -150t147.5 -231.5t51.5 -296q0 -159 -50.5 -292.5t-144 -231.5t-224.5 -151.5t-292 -53.5q-168 0 -302 52.5t-229 149.5t-145 232.5t-50 303.5q0 156 50.5 288t144.5 229t224.5 150.5t290.5 53.5zM1111 450q0 140 -23 272.5t-64 247
t-95 201t-115.5 135t-126.5 48.5q-77 0 -132 -46t-84.5 -134.5t-29.5 -217.5q0 -141 23 -274.5t64 -249t94.5 -202.5t115.5 -136t127 -49q78 0 133 45.5t84 135.5t29 224zM813 361q-5 20 -0.5 35.5t22.5 20.5t30 -6t17 -31q39 -142 84 -232.5t99 -141t120 -70.5t149 -20
q55 0 84.5 8.5t48 20t36.5 19.5q12 4 19 0t9 -15q2 -8 -0.5 -19.5t-10.5 -26.5l-75 -141q-14 -28 -41 -41.5t-75 -13.5q-86 0 -160.5 35t-139 112t-118.5 202t-98 305z" />
    <glyph glyph-name="R" unicode="R" horiz-adv-x="1498" 
d="M1383 910q0 -97 -44.5 -176t-125.5 -132t-195 -73q-35 -6 -67 -13t-64.5 -11.5t-71.5 -4.5q-72 0 -128 9.5t-98.5 27t-78.5 42.5l7 66q29 -22 62.5 -36.5t72 -21.5t84.5 -7q124 0 196.5 77t72.5 239q0 126 -46 224t-125.5 154t-179.5 56h-65v-1191q0 -23 10.5 -35.5
t32.5 -19.5l58 -12q18 -7 24.5 -15.5t6.5 -22.5q0 -34 -44 -34h-551q-22 0 -33 9.5t-11 24.5q0 28 32 38l57 12q24 7 35.5 19.5t11.5 35.5v1130q0 19 -12 30t-35 17l-57 12q-32 10 -32 38q0 16 11 25t33 9h535q228 0 389.5 -61.5t247 -171.5t85.5 -257zM755 536l354 39
l261 -438q18 -29 35.5 -43t44.5 -23q19 -7 26.5 -15t7.5 -22q0 -15 -11 -24.5t-34 -9.5h-487q-43 0 -43 34q0 10 5 16t17 12l26 9q23 11 28 24.5t-11 42.5z" />
    <glyph glyph-name="S" unicode="S" horiz-adv-x="1212" 
d="M644 -26q-81 0 -136.5 21t-90 42t-50.5 21t-33.5 -13.5t-36 -31t-36 -31t-33.5 -13.5q-17 0 -29.5 11t-17.5 34l-66 394q-3 17 3.5 28.5t22.5 17.5q17 6 30.5 -1t22.5 -26q78 -149 149 -230.5t138.5 -113.5t134.5 -32q97 0 154 49.5t58 143.5q0 61 -26.5 109.5t-96 90.5
t-198.5 84q-158 51 -253 117.5t-137.5 154.5t-42.5 202q0 124 61.5 219t173 148.5t260.5 53.5q81 0 136.5 -17t91 -34t57.5 -17q20 0 43.5 18t48 36.5t47.5 18.5q17 0 29 -11t20 -40l100 -385q5 -20 -1.5 -35t-22.5 -21q-17 -5 -30.5 2t-22.5 24q-83 150 -161 233.5
t-152.5 117t-148.5 33.5q-92 0 -147.5 -56t-55.5 -150q0 -60 25 -110t92 -94.5t191 -88.5q161 -57 256 -123t136 -148t41 -188q0 -115 -59 -209t-170 -149.5t-268 -55.5z" />
    <glyph glyph-name="T" unicode="T" horiz-adv-x="1376" 
d="M290 1400h795q33 0 57 7.5t42.5 15t33.5 7.5q23 0 35 -12.5t20 -44.5l64 -369q5 -22 -2.5 -35.5t-24.5 -16.5q-16 -4 -29 2t-22 25q-65 142 -115 215.5t-94.5 100t-92.5 26.5h-83v-1190q0 -19 12 -30t35 -17l57 -12q32 -10 32 -38q0 -34 -45 -34h-554q-23 0 -34 9.5
t-11 24.5q0 28 32 38l57 12q24 6 35.5 17t11.5 30v1190h-83q-46 0 -90 -28t-94.5 -101.5t-117.5 -212.5q-9 -19 -22 -25t-29 -2q-17 3 -24 16.5t-3 35.5l64 369q8 32 20 44.5t35 12.5q15 0 33 -7.5t42 -15t57 -7.5z" />
    <glyph glyph-name="U" unicode="U" horiz-adv-x="1437" 
d="M1175 612l-36 564q-4 59 -29 92.5t-78 47.5l-41 10q-22 6 -30.5 15t-8.5 25q0 15 10.5 24.5t30.5 9.5h371q20 0 31 -9.5t11 -24.5q0 -16 -9.5 -24.5t-30.5 -15.5l-38 -10q-57 -16 -83 -52.5t-22 -90.5l37 -555q4 -53 7 -104.5t3 -105.5q1 -124 -52 -223t-166.5 -157.5
t-295.5 -58.5q-196 0 -325 54t-192.5 150t-62.5 224q0 24 2 61.5t5 83.5t6 96l39 630q2 20 -10.5 31.5t-41.5 16.5l-55 10q-41 9 -41 39q0 16 11 25.5t31 9.5h582q21 0 32 -9.5t11 -25.5q0 -15 -9.5 -24t-31.5 -14l-59 -11q-24 -5 -35.5 -16t-13.5 -32l-38 -628
q-5 -71 -6 -130t-1 -101q-1 -184 76.5 -267t208.5 -83q104 0 182 41.5t121 118.5t42 184q0 72 -2.5 119.5t-5.5 89.5z" />
    <glyph glyph-name="V" unicode="V" horiz-adv-x="1369" 
d="M962 1366q0 16 10.5 25t32.5 9h326q22 0 33 -9t11 -25q0 -12 -7.5 -19.5t-23.5 -14.5l-31 -12q-37 -16 -67 -52.5t-51 -106.5l-299 -961q-10 -34 -13.5 -56.5t-3.5 -46.5v-62q0 -16 -10 -25.5t-27 -9.5h-311q-16 0 -26 9.5t-10 27.5v60q0 15 -5.5 35.5t-13.5 45.5
l-353 1077q-9 28 -19 41t-28 20l-36 13q-28 13 -28 37q0 16 11 25t34 9h531q24 0 34.5 -9t10.5 -25q0 -13 -7.5 -20.5t-24.5 -14.5l-53 -12q-26 -9 -32 -27t6 -54l332 -1038l-73 -83l328 1049q17 55 1.5 94t-78.5 61l-40 11q-15 6 -22.5 13t-7.5 21z" />
    <glyph glyph-name="W" unicode="W" horiz-adv-x="2056" 
d="M1018 1097l80 -19l-264 -915q-6 -16 -9 -32t-3 -38v-57q0 -17 -9.5 -26.5t-24.5 -9.5h-311q-16 0 -25.5 9.5t-9.5 26.5v57q0 15 -2.5 26t-8.5 32l-299 1116q-7 24 -16.5 35t-27.5 17l-48 15q-13 4 -18.5 13t-5.5 20q0 15 10.5 24t31.5 9h526q21 0 31.5 -9t10.5 -24
q0 -24 -25 -31l-64 -13q-20 -5 -24.5 -21.5t3.5 -45.5l288 -1096l-79 -68zM1666 1366q0 16 10.5 25t32.5 9h312q23 0 33 -9t10 -25q0 -12 -6 -19.5t-23 -14.5l-30 -12q-39 -17 -69 -52.5t-46 -97.5l-249 -1007q-6 -23 -9 -37t-3 -33v-57q0 -17 -9 -26.5t-25 -9.5h-316
q-15 0 -24.5 9.5t-9.5 26.5v57q0 14 -2 25.5t-9 33.5l-296 1114q-9 30 -16.5 40.5t-21.5 14.5l-46 14q-14 6 -20 13t-6 18q0 16 10.5 25t31.5 9h516q22 0 32 -9t10 -25q0 -12 -7 -20t-21 -13l-57 -12q-20 -5 -24.5 -19.5t3.5 -47.5l284 -1098l-72 -63l273 1087
q13 53 -5.5 89t-75.5 55l-34 9q-14 6 -20 13.5t-6 19.5z" />
    <glyph glyph-name="X" unicode="X" horiz-adv-x="1412" 
d="M1252 156q19 -29 34.5 -45t34.5 -24t44 -15q17 -6 26 -15t9 -23q0 -15 -11 -24.5t-33 -9.5h-587q-23 0 -34 9.5t-11 24.5t9 24t30 16q37 8 52.5 20.5t14.5 31.5t-17 45l-649 1083q-14 24 -28 38.5t-30.5 22.5t-39.5 14q-19 7 -25.5 15.5t-6.5 21.5q0 16 11 25t33 9h574
q23 0 33 -9t10 -25q0 -14 -6 -22.5t-21 -12.5l-54 -10q-28 -6 -32.5 -21.5t13.5 -44.5zM816 710l-83 25l300 436q39 59 26.5 96.5t-61.5 52.5l-34 9q-14 5 -21 14t-7 23q0 16 10 25t31 9h329q43 0 43 -33q0 -14 -10 -23.5t-31 -19.5q-60 -23 -98.5 -64t-88.5 -112zM606 730
l82 -31l-339 -486q-36 -52 -24 -87t59 -50l33 -7q14 -6 21 -14t7 -21q0 -15 -10.5 -24.5t-31.5 -9.5h-333q-22 0 -33 9.5t-11 24.5q0 13 8 21.5t28 16.5q50 20 84.5 42.5t62 54.5t58.5 76z" />
    <glyph glyph-name="Y" unicode="Y" horiz-adv-x="1333" 
d="M848 466l-323 -44l-385 843q-13 28 -26 39.5t-33 17.5l-30 8q-16 6 -23 15t-7 21q0 16 11 25t34 9h535q23 0 34 -9t11 -25q0 -29 -34 -38l-50 -9q-29 -7 -34 -19.5t6 -39.5l310 -726l-77 -42l290 675q21 50 3.5 92.5t-77.5 61.5l-33 9q-12 5 -19.5 13.5t-7.5 22.5
q0 16 11 25t33 9h312q23 0 33.5 -9t10.5 -25q0 -12 -6 -20.5t-20 -14.5l-18 -8q-26 -9 -48 -28.5t-42.5 -51.5t-42.5 -84zM496 510l371 5v-384q0 -18 12 -29.5t35 -17.5l57 -12q32 -10 32 -38q0 -15 -11 -24.5t-34 -9.5h-554q-22 0 -33 9.5t-11 24.5q0 28 32 38l57 12
q24 6 35.5 17.5t11.5 29.5v379z" />
    <glyph glyph-name="Z" unicode="Z" horiz-adv-x="1241" 
d="M1174 1320l-755 -1293l-107 48h442q55 0 98.5 12t81.5 44t75.5 91t80.5 153l25 57q7 19 20.5 25t29.5 2q18 -3 24.5 -16t2.5 -32l-66 -382q-6 -29 -18.5 -43t-36.5 -14q-15 0 -32.5 7t-41 14t-55.5 7h-878q-20 0 -29.5 9t-9.5 25q0 9 4.5 21t13.5 26l758 1295l23 -51
h-341q-67 0 -117 -21.5t-92 -74t-88 -148.5l-27 -59q-10 -19 -24 -24.5t-28 -3.5q-17 3 -25 15t-4 34l55 329q6 30 19 43.5t36 13.5q15 0 33 -7t41.5 -14.5t54.5 -7.5h837q19 0 28.5 -8t9.5 -24q0 -9 -4.5 -20.5t-13.5 -27.5z" />
    <glyph glyph-name="bracketleft" unicode="[" horiz-adv-x="705" 
d="M423 1349v-1475q0 -23 12.5 -33.5t38.5 -10.5h175q43 0 43 -36q0 -15 -10.5 -25t-32.5 -10h-435q-32 0 -45.5 14.5t-13.5 45.5v1585q0 32 13.5 46.5t45.5 14.5h435q22 0 32.5 -10t10.5 -26q0 -35 -43 -35h-175q-26 0 -38.5 -10t-12.5 -35z" />
    <glyph glyph-name="backslash" unicode="\" horiz-adv-x="836" 
d="M366 592q19 -46 44 -111.5t52.5 -142t56.5 -157t57 -158t53 -144.5t46 -116q12 -25 35.5 -33t53.5 6q30 13 40.5 36t-1.5 49q-19 46 -47 109.5t-62 138t-69.5 152.5t-69.5 153t-63 140t-49 113t-45.5 115.5t-54 145.5t-57.5 159.5t-57 159t-53 143.5t-44 111
q-12 26 -36 33.5t-54 -5.5q-30 -14 -40 -37t1 -49q20 -49 49.5 -115t63.5 -141.5t69.5 -153.5t69.5 -152.5t62.5 -138t48.5 -110.5z" />
    <glyph glyph-name="bracketright" unicode="]" horiz-adv-x="714" 
d="M291 -125v1475q0 23 -12.5 33.5t-38.5 10.5h-175q-43 0 -43 36q0 15 10.5 25t32.5 10h435q32 0 45.5 -14.5t13.5 -45.5v-1585q0 -32 -13.5 -46.5t-45.5 -14.5h-435q-22 0 -32.5 10t-10.5 26q0 35 43 35h175q26 0 38.5 10t12.5 35z" />
    <glyph glyph-name="asciicircum" unicode="^" horiz-adv-x="791" 
d="M435 1343h-66l271 -531q20 -27 39.5 -33t36.5 2q15 7 17.5 24.5t-10.5 38.5l-236 517q-23 40 -41.5 52.5t-43.5 12.5q-24 0 -43 -12.5t-42 -52.5l-249 -513q-13 -22 -11 -40t18 -25q17 -8 36 -2t39 34z" />
    <glyph glyph-name="underscore" unicode="_" horiz-adv-x="894" 
d="M0 -279q0 24 10 36.5t32 12.5h810q22 0 31.5 -12.5t9.5 -36.5t-9.5 -36.5t-31.5 -12.5h-810q-22 0 -32 12.5t-10 36.5z" />
    <glyph glyph-name="grave" unicode="`" horiz-adv-x="529" 
d="M328 1276l82 -219q6 -11 8 -20.5t-7 -18.5q-7 -7 -19.5 -7t-23.5 5l-191 127q-52 31 -84 67t-35 87q-4 40 24 77.5t85 41.5q58 5 96 -33t65 -107z" />
    <glyph glyph-name="a" unicode="a" horiz-adv-x="1067" 
d="M619 114v17l-21 -5v652q0 54 -26 84.5t-72 30.5t-71.5 -22.5t-25.5 -55.5v-96q0 -66 -46 -106.5t-126 -40.5q-63 0 -98 31t-35 89q0 59 51 118t152 98t250 39q189 0 281.5 -74t92.5 -205v-503q0 -26 11 -39.5t30 -13.5q18 0 30.5 10.5t18.5 28.5q4 6 8 9t10 3
q9 0 13.5 -6.5t4.5 -17.5q0 -30 -24.5 -68t-75.5 -66t-132 -28q-97 0 -148.5 38.5t-51.5 98.5zM53 205q0 123 107.5 196.5t321.5 73.5q58 0 99 -10.5t71 -27.5l-19 -44q-28 15 -55.5 22t-61.5 7q-63 0 -98.5 -42.5t-35.5 -122.5q0 -79 33.5 -118.5t86.5 -39.5q38 0 73 19
t57 50l18 -41q-47 -72 -132 -111t-182 -39q-126 0 -204.5 64t-78.5 164z" />
    <glyph glyph-name="b" unicode="b" horiz-adv-x="1164" 
d="M441 1450v-1373l-200 -75q-39 -13 -56.5 -17.5t-32.5 -4.5q-18 0 -29 10t-11 29v1273q0 19 -6 27t-19 10l-44 3q-13 3 -19 10t-6 18q0 13 7.5 20t26.5 14l263 84q30 11 46.5 15.5t29.5 4.5q25 0 37.5 -13.5t12.5 -34.5zM396 683l-37 41q74 109 161.5 166.5t198.5 57.5
q115 0 204.5 -57t140 -159.5t50.5 -240.5q0 -155 -60 -271t-165 -179.5t-238 -63.5q-109 0 -184.5 44t-126.5 130l59 41q35 -63 79.5 -93.5t100.5 -30.5q58 0 102.5 38t69.5 124t25 229q0 130 -23.5 211t-64 118.5t-94.5 37.5q-55 0 -105 -34.5t-93 -108.5z" />
    <glyph glyph-name="c" unicode="c" horiz-adv-x="985" 
d="M938 675q0 -65 -43 -107.5t-117 -42.5q-72 0 -111 41t-39 112v57q0 65 -31 101.5t-83 36.5q-48 0 -86 -35t-59.5 -101.5t-21.5 -161.5q0 -125 38.5 -210.5t106 -129.5t154.5 -44q82 0 141.5 30.5t92.5 95.5q13 15 21 20t16 5q11 -1 16 -11.5t5 -25.5
q-10 -95 -65.5 -169.5t-147.5 -116.5t-211 -42q-135 0 -240.5 55t-166.5 158.5t-61 248.5q0 146 63 261t175.5 181.5t263.5 66.5q124 0 211 -36.5t133 -98.5t46 -138z" />
    <glyph glyph-name="d" unicode="d" horiz-adv-x="1178" 
d="M731 142l-7 4v1146q0 19 -6 27t-19 10l-44 3q-13 3 -18.5 10t-5.5 18q0 13 7 20t26 14l263 84q29 11 45.5 15.5t32.5 4.5q24 0 36 -13.5t12 -34.5v-1323q0 -26 6.5 -38t21.5 -17l37 -10q15 -5 21 -12.5t6 -18.5q0 -15 -9.5 -23t-29.5 -8h-285q-38 0 -64 25t-26 64v53z
M51 433q0 157 61 272.5t166 179t236 63.5q109 0 184.5 -44.5t126.5 -130.5l-59 -41q-35 63 -80 93.5t-101 30.5q-57 0 -101.5 -38t-69.5 -123.5t-25 -229.5q0 -129 23 -210t64.5 -118.5t94.5 -37.5q55 0 105 34.5t93 107.5l37 -41q-74 -108 -161.5 -165.5t-198.5 -57.5
q-115 0 -204.5 56.5t-140 159t-50.5 240.5z" />
    <glyph glyph-name="e" unicode="e" horiz-adv-x="1011" 
d="M965 557q0 -38 -21.5 -59t-61.5 -21h-616v58h336q37 0 37 36q0 157 -40.5 230t-99.5 73q-45 0 -80.5 -32.5t-55.5 -100.5t-20 -174q0 -196 85.5 -290.5t228.5 -94.5q91 0 156 39.5t91 113.5q12 15 20 20t15 5q11 0 16.5 -10.5t5.5 -26.5q-2 -95 -58.5 -174t-153.5 -125.5
t-222 -46.5q-140 0 -249 58t-171 163t-62 244q0 153 59.5 266.5t171 176.5t265.5 63q134 0 229 -51t145 -139t50 -201z" />
    <glyph glyph-name="f" unicode="f" horiz-adv-x="734" 
d="M511 129q0 -23 8.5 -36t27.5 -16l105 -14q17 -2 24.5 -10.5t7.5 -21.5q0 -31 -38 -31h-545q-17 0 -27 8t-10 21t7.5 21t23.5 12l52 13q21 6 30 17.5t9 31.5v652q0 13 -7 23t-25 16l-72 22q-21 9 -29 17.5t-8 19.5q0 12 9 20t28 8h151l-46 -23v21q0 25 -15.5 50.5t-36 55
t-36 67.5t-15.5 89q0 131 89.5 207.5t248.5 76.5q102 0 170.5 -32.5t103 -86.5t34.5 -118q0 -71 -37.5 -107.5t-97.5 -36.5q-65 0 -105.5 41t-40.5 109v94q0 40 -19.5 59.5t-56.5 19.5q-47 0 -73 -31.5t-26 -89.5q0 -53 22 -97t55 -80.5t66 -69t55.5 -63.5t22.5 -64v-31
l-27 40h200q18 0 27.5 -7t9.5 -20q0 -21 -20.5 -34.5t-65.5 -13.5h-108v-698z" />
    <glyph glyph-name="g" unicode="g" horiz-adv-x="1118" 
d="M692 96q-123 18 -180 32.5t-74 28t-17 29.5q0 17 12 29.5t32 18.5l-9 13q-110 -8 -174 -35.5t-91.5 -68t-27.5 -89.5q0 -53 30.5 -88t107 -60t214.5 -46q118 -18 183.5 -38t92 -46t26.5 -63q0 -44 -25 -73.5t-78.5 -44t-141.5 -14.5q-158 0 -228 61t-70 163q0 34 21.5 61
t60.5 37l-7 21q-174 -20 -243.5 -71.5t-69.5 -129.5q0 -63 47.5 -111t157 -75t293.5 -27q271 0 415.5 89t144.5 230q0 77 -37.5 129.5t-125.5 85.5t-239 52zM700 869l50 -2q27 62 49 87t55 25q29 0 47.5 -17t35 -40t37.5 -40.5t57 -17.5q54 0 84.5 36t30.5 97
q0 70 -41.5 110.5t-113.5 40.5q-87 0 -155 -59t-114 -168zM1020 596q0 96 -54 175.5t-157 126.5t-248 47q-152 0 -263 -48.5t-170.5 -134.5t-59.5 -196q0 -96 56 -174.5t161.5 -124.5t252.5 -46q144 0 252.5 48t169 133t60.5 194zM500 880q64 6 111 -68t66 -218
q20 -142 -6 -219.5t-87 -83.5q-42 -4 -78 27.5t-61.5 97t-38.5 161.5q-13 94 -5.5 160t33 102.5t66.5 40.5z" />
    <glyph glyph-name="h" unicode="h" horiz-adv-x="1212" 
d="M472 1450v-1323q0 -26 6.5 -38t21.5 -17l37 -10q22 -10 22 -30q0 -32 -40 -32h-429q-20 0 -29.5 8t-9.5 23q0 10 6 18t21 13l38 10q15 5 21 17t6 38v1165q0 19 -6 27t-19 10l-44 3q-13 3 -18.5 10t-5.5 18q0 13 7 20t26 14l263 84q29 11 45.5 15.5t32.5 4.5
q24 0 36 -13.5t12 -34.5zM443 676l-34 35l36 33q119 107 206 155.5t161 48.5q110 0 171.5 -71.5t74.5 -200.5l60 -547q3 -27 9 -40t21 -18l36 -9q14 -5 20 -13t6 -18q0 -15 -9 -23t-30 -8h-435q-41 0 -41 32q0 20 23 30l37 10q17 5 24.5 18t4.5 39l-51 505q-8 71 -34 105.5
t-79 34.5q-34 0 -69 -17t-71 -49z" />
    <glyph glyph-name="i" unicode="i" horiz-adv-x="598" 
d="M473 899v-772q0 -26 6.5 -38t21.5 -17l37 -10q15 -5 21 -12.5t6 -18.5q0 -15 -9.5 -23t-29.5 -8h-435q-20 0 -29.5 8t-9.5 23q0 10 6 18t20 13l38 10q16 5 22 17t6 38v614q0 18 -6 26.5t-19 10.5l-44 3q-13 3 -19 10t-6 18q0 13 7.5 20t26.5 14l263 84q30 11 46.5 15.5
t30.5 4.5q24 0 36.5 -13.5t12.5 -34.5zM295 1054q-88 0 -140.5 48t-52.5 124q0 75 53 123t140 48q88 0 141.5 -48t53.5 -123q0 -76 -53.5 -124t-141.5 -48z" />
    <glyph glyph-name="j" unicode="j" horiz-adv-x="598" 
d="M473 211q0 -63 15 -116t35 -100.5t35 -95.5t15 -101q0 -120 -82.5 -190.5t-226.5 -70.5q-107 0 -179.5 31t-109.5 83t-37 114q0 77 39.5 114t104.5 37t104.5 -43t39.5 -113v-88q0 -40 17.5 -58.5t51.5 -18.5q44 0 67 26.5t23 78.5t-24.5 98.5t-60 91.5t-71.5 88.5
t-60.5 88.5t-24.5 93v581q0 19 -6 27t-19 10l-44 3q-13 3 -19 10t-6 18q0 13 7.5 20t26.5 14l263 84q30 11 46.5 15.5t30.5 4.5q25 0 37 -13.5t12 -34.5v-688zM293 1054q-87 0 -140 48t-53 124q0 75 53 123t140 48q88 0 141.5 -48t53.5 -123q0 -76 -53.5 -124t-141.5 -48z
" />
    <glyph glyph-name="k" unicode="k" horiz-adv-x="1185" 
d="M89 0q-20 0 -29 8t-9 23q0 10 6 18t21 13l38 10q15 5 21 17t6 38v1165q0 19 -6 27t-19 10l-44 3q-13 3 -18.5 10t-5.5 18q0 13 7 20t26 14l263 84q29 11 45.5 15.5t32.5 4.5q24 0 36 -13.5t12 -34.5v-1323q0 -26 6.5 -38t21.5 -17l37 -10q22 -10 22 -30q0 -32 -40 -32
h-430zM395 390l386 345q41 37 32.5 71.5t-58.5 48.5l-34 9q-14 5 -19 12t-5 17q0 15 10.5 23t27.5 8h383q18 0 28.5 -8t10.5 -22q0 -13 -8.5 -22t-36.5 -16q-67 -15 -123 -46.5t-120 -88.5l-445 -390zM750 677l349 -555q16 -24 30.5 -35.5t36.5 -21.5q16 -9 23 -17.5
t7 -19.5q0 -13 -10 -20.5t-27 -7.5h-462q-16 0 -25.5 8t-9.5 22q0 10 5 16.5t17 11.5l32 9q23 6 26.5 20t-14.5 42l-202 334z" />
    <glyph glyph-name="l" unicode="l" horiz-adv-x="607" 
d="M477 1450v-1323q0 -26 6.5 -38t21.5 -17l37 -10q15 -5 21 -12.5t6 -18.5q0 -15 -9.5 -23t-30.5 -8h-435q-19 0 -29 8t-10 23q0 10 6.5 18t21.5 13l37 10q15 5 21.5 17t6.5 38v1165q0 19 -6 27t-19 10l-44 3q-13 3 -19 10t-6 18q0 13 7.5 20t26.5 14l263 84
q30 11 46.5 15.5t29.5 4.5q25 0 37.5 -13.5t12.5 -34.5z" />
    <glyph glyph-name="m" unicode="m" horiz-adv-x="1819" 
d="M472 899v-772q0 -25 7 -38t22 -18l36 -9q22 -10 22 -30q0 -32 -41 -32h-427q-21 0 -30.5 8.5t-9.5 22.5q0 10 6.5 18t20.5 13l38 10q15 5 21 17t6 36v614q0 19 -5.5 28t-18.5 11l-46 3q-12 3 -18 10t-6 18q0 12 7.5 19.5t26.5 14.5l264 85q27 10 44 14.5t33 4.5
q24 0 36 -14t12 -34zM443 675l-34 35l35 33q121 113 214.5 159t172.5 46q114 0 184 -73t70 -208v-543q0 -25 6.5 -36.5t21.5 -16.5l29 -9q22 -10 22 -30q0 -32 -42 -32h-410q-40 0 -40 32q0 20 22 30l33 8q18 6 24.5 20.5t6.5 41.5v493q0 72 -34 110.5t-92 38.5
q-40 0 -78 -16t-75 -50zM1055 675l-34 35l33 35q104 106 189 154.5t165 48.5q111 0 177.5 -73.5t80.5 -208.5l61 -540q3 -27 9 -39t20 -17l29 -8q14 -5 20 -13t6 -18q0 -15 -9.5 -23t-29.5 -8h-427q-40 0 -40 32q0 20 22 30l33 8q18 6 26 20.5t5 43.5l-50 491
q-8 72 -37.5 110.5t-85.5 38.5q-33 0 -65 -16.5t-64 -47.5z" />
    <glyph glyph-name="n" unicode="n" horiz-adv-x="1213" 
d="M472 899v-772q0 -26 6.5 -38t21.5 -17l37 -10q22 -10 22 -30q0 -32 -40 -32h-429q-20 0 -29.5 8t-9.5 23q0 10 6 18t20 13l39 10q15 5 21 17t6 38v614q0 18 -6 26.5t-19 10.5l-44 3q-13 3 -18.5 10t-5.5 18q0 13 7 20t26 14l263 84q29 11 45.5 15.5t32.5 4.5
q24 0 36 -13.5t12 -34.5zM443 676l-34 35l36 33q119 107 206 155.5t161 48.5q110 0 171.5 -71.5t74.5 -200.5l60 -547q3 -27 9 -40t21 -18l36 -9q14 -5 20 -13t6 -18q0 -15 -9 -23t-30 -8h-435q-41 0 -41 32q0 20 23 30l37 10q17 5 24.5 18t4.5 39l-51 505q-8 71 -34 105.5
t-79 34.5q-34 0 -69 -17t-71 -49z" />
    <glyph glyph-name="o" unicode="o" 
d="M570 947q151 0 265.5 -61.5t179 -172t64.5 -254.5q0 -139 -67 -248t-184 -171.5t-271 -62.5q-151 0 -265.5 61.5t-178.5 171t-64 252.5q0 140 67 249.5t184 172.5t270 63zM634 52q51 8 80.5 58t35 144t-17.5 233q-22 137 -57 225t-80.5 128t-99.5 31q-51 -8 -81 -58.5
t-34.5 -144t18.5 -232.5q22 -136 57 -224t80.5 -128t98.5 -32z" />
    <glyph glyph-name="p" unicode="p" horiz-adv-x="1189" 
d="M456 901v-110l8 -21v-1109q0 -26 6.5 -38.5t21.5 -16.5l44 -10q14 -5 20 -13t6 -19q0 -14 -9.5 -22t-29.5 -8h-439q-20 0 -29.5 8t-9.5 22q0 11 6 19t21 13l36 9q15 5 21.5 17.5t6.5 38.5v1081q0 19 -6 27.5t-19 10.5l-45 3q-13 3 -18.5 10t-5.5 17q0 13 7 19.5t26 14.5
l255 85q28 11 45 15t31 4q25 0 37.5 -13t12.5 -34zM420 682l-38 40q73 109 161.5 167.5t200.5 58.5q116 0 205 -57t139.5 -159.5t50.5 -240.5q0 -156 -60.5 -272t-165.5 -179.5t-236 -63.5q-109 0 -184.5 43.5t-125.5 132.5l58 41q36 -64 80 -94t98 -30q58 0 103 37
t70 122.5t25 229.5q0 132 -23.5 212.5t-64.5 118t-95 37.5t-104.5 -35t-93.5 -109z" />
    <glyph glyph-name="q" unicode="q" horiz-adv-x="1165" 
d="M664 -467q-20 0 -30 8.5t-10 22.5q0 11 6.5 19t20.5 13l44 10q17 4 23.5 16.5t6.5 39.5v1186l199 76q36 13 55 17.5t32 4.5q20 0 31 -10t11 -29v-1245q0 -27 7 -39.5t22 -17.5l37 -9q15 -5 21 -13t6 -19q0 -14 -9.5 -22.5t-29.5 -8.5h-443zM808 201q-70 -106 -159 -165
t-202 -59q-116 0 -205.5 56.5t-140 158.5t-50.5 240q0 155 60.5 271t165.5 180.5t238 64.5q109 0 183.5 -43t122.5 -129l-57 -40q-35 61 -78 90.5t-99 29.5q-59 0 -103.5 -37.5t-69.5 -123t-25 -228.5q0 -131 23.5 -212t65 -118.5t96.5 -37.5q56 0 105.5 35t90.5 108z" />
    <glyph glyph-name="r" unicode="r" horiz-adv-x="933" 
d="M446 530q0 139 40 232t104 139.5t136 46.5q90 0 138.5 -55t48.5 -162q0 -102 -44 -151t-112 -49q-67 0 -99.5 35.5t-34.5 101.5v37q-1 27 -12.5 42t-37.5 15t-49 -24.5t-37 -75t-14 -130.5zM461 895l12 -265v-499q0 -23 8.5 -35t32.5 -16l89 -16q17 -3 24.5 -11t7.5 -22
q0 -15 -10 -23t-30 -8h-503q-21 0 -31 8.5t-10 22.5q0 10 7 18.5t21 13.5l37 9q15 5 21.5 17t6.5 36v616q0 19 -5.5 28t-18.5 11l-46 3q-13 3 -18.5 10t-5.5 18q0 12 7.5 20t26.5 14l261 76q36 14 52.5 18t27.5 4q16 0 24.5 -11.5t11.5 -36.5z" />
    <glyph glyph-name="s" unicode="s" horiz-adv-x="926" 
d="M476 46q62 0 96 30.5t34 77.5q0 32 -14 58t-52.5 48.5t-111.5 40.5q-149 37 -230.5 86.5t-113 114t-31.5 143.5q0 143 98.5 223t277.5 80q67 0 109.5 -11.5t67 -23.5t38.5 -12q18 0 38.5 12t40.5 23.5t38 11.5q11 0 21 -7.5t16 -28.5l53 -242q9 -27 5.5 -44t-20.5 -23
q-16 -6 -28 -0.5t-24 22.5q-55 94 -109 150t-110 80.5t-118 24.5q-72 0 -108.5 -31.5t-36.5 -84.5q0 -35 17 -62.5t64 -50.5t135 -45q126 -29 199.5 -75.5t105.5 -110t32 -145.5q0 -90 -46 -157.5t-126 -104t-181 -36.5q-64 0 -104.5 13.5t-66 27t-41.5 13.5t-37 -13
t-42.5 -26t-37.5 -13q-12 0 -21.5 10t-14.5 33l-36 215q-5 30 -1 44.5t19 21.5t27 -0.5t25 -26.5q77 -124 153 -177t152 -53z" />
    <glyph glyph-name="t" unicode="t" horiz-adv-x="745" 
d="M103 846l-58 16q-16 6 -22.5 13.5t-6.5 17.5q0 15 10 23t25 8h70q14 0 24.5 5.5t24.5 21.5l185 177q18 18 34 27.5t31 9.5q17 0 26.5 -11t9.5 -32v-827q0 -78 28.5 -117t79.5 -39q28 0 47 11.5t32 29t25.5 37t26.5 34.5q11 4 19 -3t7 -25q-8 -74 -45 -129t-101.5 -85.5
t-150.5 -30.5q-140 0 -216 67t-76 204v555q0 19 -6.5 28t-22.5 14zM346 848l4 76h331q17 0 27 -7t10 -21q0 -20 -20.5 -34t-64.5 -14h-287z" />
    <glyph glyph-name="u" unicode="u" horiz-adv-x="1202" 
d="M741 106v81l-6 4v548q0 19 -6 27.5t-19 10.5l-44 3q-14 3 -19.5 10t-5.5 17q0 13 7.5 20.5t25.5 14.5l264 84q28 10 45 14.5t33 4.5q23 0 35 -13t12 -34v-771q0 -26 6.5 -38t21.5 -17l38 -10q14 -5 20.5 -12.5t6.5 -18.5q0 -15 -9.5 -23t-30.5 -8h-280q-40 0 -67.5 30.5
t-27.5 75.5zM127 258v481q0 19 -6 27.5t-19 10.5l-44 3q-13 3 -19 10t-6 17q0 13 7.5 20.5t26.5 14.5l263 84q30 11 46.5 15t30.5 4q24 0 36.5 -13t12.5 -34v-599q0 -75 34 -111.5t93 -36.5q38 0 78 16.5t78 49.5l37 32l34 -36l-36 -32q-122 -111 -216 -157.5t-174 -46.5
q-114 0 -185.5 73t-71.5 208z" />
    <glyph glyph-name="v" unicode="v" horiz-adv-x="1036" 
d="M590 -3h-130q-23 0 -40 12t-27 37l-295 753q-11 28 -20 39t-22 15l-32 9q-14 5 -20 12.5t-6 18.5q0 15 10.5 23t27.5 8h497q38 0 38 -31q0 -11 -7 -18.5t-23 -11.5l-39 -9q-45 -10 -54.5 -29.5t7.5 -65.5l217 -576l-70 -81l228 640q19 53 7.5 78t-53.5 34l-40 9
q-16 4 -23 11.5t-7 18.5q0 15 10.5 23t27.5 8h259q18 0 28 -8t10 -23q0 -10 -5.5 -17.5t-22.5 -12.5l-27 -7q-24 -7 -41.5 -31.5t-38.5 -81.5l-257 -702q-10 -25 -28 -34.5t-39 -9.5z" />
    <glyph glyph-name="w" unicode="w" horiz-adv-x="1587" 
d="M551 -2h-125q-24 0 -41 11t-26 37l-263 757q-9 27 -18.5 37t-22.5 13l-33 9q-13 5 -18.5 12.5t-5.5 18.5q0 15 10 23t28 8h474q18 0 28 -8t10 -23q0 -11 -6.5 -18.5t-22.5 -11.5l-41 -8q-27 -6 -32 -25t10 -65l181 -550l-74 -114l226 675l66 -40l-238 -695
q-10 -25 -27.5 -34t-38.5 -9zM1176 -2h-123q-22 0 -40 11t-27 38l-255 756q-9 28 -18 38t-21 13l-26 8q-14 5 -19.5 12.5t-5.5 18.5q0 31 38 31h465q38 0 38 -31q0 -11 -6.5 -19t-19.5 -10l-50 -10q-29 -6 -34 -24.5t9 -60.5l178 -556l-73 -114l197 633q19 60 11 88t-41 35
l-37 8q-16 4 -23 11.5t-7 18.5q0 15 10.5 23t27.5 8h234q18 0 28 -8t10 -23q0 -10 -5.5 -17.5t-21.5 -12.5l-25 -8q-22 -8 -40 -35.5t-36 -81.5l-226 -696q-8 -25 -26.5 -34.5t-39.5 -9.5z" />
    <glyph glyph-name="x" unicode="x" horiz-adv-x="1061" 
d="M399 482l58 -29l-183 -263q-31 -46 -24 -73.5t45 -41.5l32 -11q14 -6 20.5 -13t6.5 -18q0 -15 -10.5 -23.5t-28.5 -8.5h-262q-18 0 -28.5 8.5t-10.5 23.5q0 11 7 19t24 15q35 10 59.5 27.5t49 47.5t57.5 75zM501 788l182 -272l10 -12l241 -347q30 -43 50.5 -64t40.5 -27
q14 -7 20 -14.5t6 -18.5q0 -15 -11 -24t-31 -9h-491q-21 0 -32.5 9t-11.5 25q0 11 5.5 18t18.5 11l47 8q29 6 33.5 25t-19.5 54l-176 265l-10 12l-239 362q-21 31 -41 45t-41 20q-17 5 -24 14t-7 22q0 17 11.5 25.5t30.5 8.5h473q18 0 29 -8.5t11 -23.5q0 -10 -4.5 -17
t-15.5 -13l-40 -11q-22 -7 -27 -22t12 -41zM660 447l-56 31l168 248q32 50 24 85t-46 44l-30 7q-13 5 -19 12.5t-6 17.5q0 16 10.5 24t29.5 8h259q19 0 29.5 -8.5t10.5 -23.5q0 -10 -7 -18t-25 -16q-53 -16 -85 -50.5t-82 -105.5z" />
    <glyph glyph-name="y" unicode="y" horiz-adv-x="1076" 
d="M699 215l-170 -350l-398 884q-22 50 -45.5 76.5t-57.5 35.5q-16 6 -22 13.5t-6 18.5q0 15 10.5 23t28.5 8h496q18 0 28 -8t10 -23q0 -12 -6.5 -19t-22.5 -11l-44 -9q-35 -7 -41.5 -31t15.5 -75zM508 -139l59 146l31 65l255 658q22 56 13 82.5t-50 36.5l-43 12
q-16 4 -23 12t-7 20q0 15 10 23t28 8h265q18 0 28 -8t10 -23q0 -10 -6.5 -17.5t-21.5 -14.5q-48 -14 -74 -39.5t-49 -83.5l-341 -866q-52 -133 -93.5 -210t-91.5 -109.5t-132 -32.5q-111 0 -177 62.5t-66 153.5q0 68 34.5 106t88.5 38q52 0 82 -31t50 -86l16 -44
q11 -33 28 -56t40 -23q21 0 39.5 21.5t41.5 70t56 129.5z" />
    <glyph glyph-name="z" unicode="z" horiz-adv-x="953" 
d="M881 829l-499 -802l-48 39h218q53 0 93 16.5t78 60.5t87 127l42 73q10 16 22 21t25 2q15 -3 21 -13.5t2 -29.5l-58 -309q-5 -22 -13.5 -30.5t-22.5 -8.5q-19 0 -43 12.5t-70 12.5h-618q-29 0 -41 8t-12 24q0 12 5.5 26.5t19.5 36.5l500 800l57 -37h-234
q-46 0 -79.5 -13.5t-64.5 -49t-69 -101.5l-51 -90q-8 -14 -19.5 -19.5t-26.5 -1.5q-13 4 -19.5 16t-2.5 31l53 278q4 22 13 31.5t24 9.5q18 0 42 -12.5t69 -12.5h592q29 0 41.5 -8t12.5 -25q0 -11 -6 -25.5t-20 -36.5z" />
    <glyph glyph-name="braceleft" unicode="{" horiz-adv-x="793" 
d="M351 612q0 -24 30 -24q126 0 194 -46t68 -119q0 -50 -24 -98t-54.5 -96.5t-54 -98t-23.5 -101.5q0 -92 51 -145.5t138 -53.5h39q44 0 44 -36q0 -15 -11.5 -25t-38.5 -10h-108q-128 0 -218 36t-137 99.5t-47 143.5q0 78 29 139.5t66.5 113t66 97t28.5 90.5q0 39 -24.5 62
t-66.5 23q-26 0 -42.5 -10t-34 -20t-46.5 -10q-38 0 -60.5 26.5t-22.5 62.5q0 37 22.5 63t60.5 26q29 0 46.5 -10t34 -20.5t42.5 -10.5q42 0 66.5 24t24.5 62q0 45 -28.5 90.5t-66 97t-66.5 113t-29 139.5q0 81 47 143.5t137 99t218 36.5h108q27 0 38.5 -10t11.5 -25
q0 -36 -44 -36h-39q-87 0 -138 -53.5t-51 -145.5q0 -52 23.5 -101.5t54 -98t54.5 -97t24 -97.5q0 -73 -68 -119t-194 -46q-30 0 -30 -24z" />
    <glyph glyph-name="bar" unicode="|" horiz-adv-x="535" 
d="M228 614q0 71 -4.5 175.5t-10.5 221.5t-10.5 225.5t-4.5 186.5q0 35 17.5 55t51.5 20q35 0 52.5 -20t17.5 -55q0 -57 -3 -137.5t-7.5 -172.5t-9 -184.5t-7.5 -174t-3 -140.5q0 -73 4.5 -180t10.5 -225t10.5 -224.5t4.5 -179.5q0 -35 -17.5 -55t-52.5 -20q-34 0 -51.5 20
t-17.5 55q0 61 3 143.5t7.5 174.5t9 183t7.5 171t3 137z" />
    <glyph glyph-name="braceright" unicode="}" horiz-adv-x="793" 
d="M442 612q0 24 -30 24q-126 0 -194 46t-68 119q0 50 24 98t54.5 96.5t54 98t23.5 101.5q0 92 -51 145.5t-138 53.5h-39q-44 0 -44 36q0 15 11.5 25t38.5 10h108q128 0 218 -36t137 -99.5t47 -143.5q0 -78 -29 -139.5t-66.5 -113t-66 -97t-28.5 -90.5q0 -39 24.5 -62
t66.5 -23q26 0 42.5 10t34 20t46.5 10q38 0 60.5 -26.5t22.5 -62.5q0 -37 -22.5 -63t-60.5 -26q-29 0 -46.5 10t-34 20.5t-42.5 10.5q-42 0 -66.5 -24t-24.5 -62q0 -45 28.5 -90.5t66 -97t66.5 -113t29 -139.5q0 -81 -47 -143.5t-137 -99t-218 -36.5h-108q-27 0 -38.5 10
t-11.5 25q0 36 44 36h39q87 0 138 53.5t51 145.5q0 52 -23.5 101.5t-54 98t-54.5 97t-24 97.5q0 73 68 119t194 46q30 0 30 24z" />
    <glyph glyph-name="asciitilde" unicode="~" horiz-adv-x="1136" 
d="M798 548q-64 0 -122 31t-113.5 71t-110 71t-110.5 31q-72 0 -116.5 -47.5t-54.5 -131.5q-4 -16 -15 -24.5t-26 -8.5q-40 0 -40 46q0 70 32 129t88 94.5t127 35.5q72 0 132.5 -31t114 -71t105.5 -71t105 -31q67 0 115 41.5t53 128.5q5 20 17 29t26 9q40 0 40 -47
q0 -77 -33 -134t-89 -88.5t-125 -31.5z" />
    <glyph glyph-name="nbspace" unicode="&#xa0;" horiz-adv-x="371" 
 />
    <glyph glyph-name="exclamdown" unicode="&#xa1;" horiz-adv-x="595" 
d="M297 -333q-105 0 -153.5 47.5t-48.5 123.5q0 27 4.5 61.5t14.5 69.5l145 676q6 24 15.5 36t27.5 12t27 -12t16 -36l142 -678q11 -42 15 -71.5t4 -58.5q0 -76 -52 -123t-157 -47zM305 1172q54 0 97 -27t68.5 -72.5t25.5 -98.5q0 -54 -25.5 -98t-69 -70.5t-96.5 -26.5
q-55 0 -98.5 26.5t-69 70.5t-25.5 98q0 53 25.5 98.5t69 72.5t98.5 27z" />
    <glyph glyph-name="cent" unicode="&#xa2;" horiz-adv-x="980" 
d="M535 507q0 -91 1.5 -173.5t3 -154.5t3 -132t2.5 -107t1 -80q0 -16 -8.5 -25.5t-23.5 -9.5q-12 0 -21 9t-9 28q0 31 1 77t3 106t3 132t2 155t1 175q0 76 -1 145.5t-2.5 131t-3 112.5t-2.5 91t-1 66q0 17 9 26t24 9q12 0 20.5 -9t8.5 -27q0 -26 -1 -66t-2.5 -91t-3.5 -112
t-3 -130.5t-1 -145.5zM936 671q0 -66 -38.5 -107.5t-105.5 -41.5q-68 0 -106 43.5t-38 121.5v68q0 59 -33 92.5t-89 33.5q-53 0 -95 -37t-65.5 -107t-23.5 -170q0 -125 37.5 -210.5t103.5 -129t149 -43.5q88 0 148.5 36t91.5 104q11 10 17.5 14.5t13.5 3.5q9 -1 14.5 -8
t4.5 -21q-11 -96 -66 -168.5t-144.5 -113t-206.5 -40.5q-132 0 -236 53t-163.5 153t-59.5 242q0 144 62.5 256t174.5 177t261 65q126 0 213 -35.5t133 -95.5t46 -135z" />
    <glyph glyph-name="sterling" unicode="&#xa3;" horiz-adv-x="1243" 
d="M432 362l-54 6q43 25 64.5 55t21.5 66q-1 47 -32 92.5t-77 94.5t-92 103t-77 116t-31 135q0 119 60 208.5t182 139t307 49.5q160 0 263 -51.5t153 -134.5t50 -179q0 -87 -42.5 -136.5t-121.5 -49.5q-81 0 -129.5 52.5t-48.5 145.5v118q0 90 -34.5 137t-102.5 47
q-83 0 -122.5 -69t-39.5 -221q0 -60 8.5 -122t20 -123t20 -121t7.5 -116q-1 -74 -35.5 -140.5t-117.5 -101.5zM60 133q0 77 38 137.5t111.5 95t178.5 34.5q76 0 143.5 -14t130 -32t124 -32t124.5 -14q87 0 135 31.5t76 104.5q6 10 16 17t22 6q10 -1 17.5 -9.5t7.5 -23.5
q-10 -169 -54 -269.5t-116.5 -145t-168.5 -44.5q-69 0 -124.5 23.5t-103.5 83t-96 165.5q-28 43 -45 58.5t-40 15.5q-22 0 -35 -24t-17 -88q-5 -88 -27.5 -139.5t-61 -73.5t-93.5 -22q-69 0 -105.5 45t-36.5 114zM125 651q0 12 8.5 18.5t19.5 6.5l276 7l44 -54h-319
q-13 0 -21 6t-8 16zM522 629l-4 47h383q13 0 19.5 -6.5t6.5 -16.5q0 -24 -26 -24h-379z" />
    <glyph glyph-name="currency" unicode="&#xa4;" horiz-adv-x="1134" 
d="M128 308q-15 -13 -17 -31t13 -33q15 -13 34 -11t34 16l186 189l-65 60zM124 1118q-15 -14 -13 -32t17 -31l185 -190l64 60l-185 189q-15 14 -34 16t-34 -12zM1011 1119q-14 14 -34 12t-35 -16l-185 -189l64 -59l186 190q15 13 17.5 31t-13.5 31zM1011 243q16 15 13.5 32
t-17.5 31l-186 190l-64 -60l185 -189q16 -14 35.5 -16t33.5 12zM566 344q96 0 174.5 42t124.5 118t46 179t-46 178.5t-124 117t-174 41.5q-95 0 -172.5 -42t-124 -117.5t-46.5 -177.5t46 -178.5t123.5 -118.5t172.5 -42zM567 411q-78 0 -136 36.5t-89.5 98t-31.5 136.5
q0 77 31.5 138t89.5 97.5t137 36.5q78 0 136 -36.5t90 -97.5t32 -138q0 -75 -32 -136.5t-90 -98t-137 -36.5z" />
    <glyph glyph-name="yen" unicode="&#xa5;" horiz-adv-x="1333" 
d="M840 472l-315 -45l-374 838q-13 25 -25 37.5t-34 19.5l-30 8q-15 6 -22.5 15t-7.5 21q0 16 11.5 25t33.5 9h522q23 0 34.5 -9t11.5 -25q0 -27 -34 -38l-50 -9q-35 -10 -37.5 -22.5t9.5 -36.5l302 -721l-69 -41l280 669q21 51 3.5 93t-76.5 61l-33 9q-13 5 -20 13.5
t-7 22.5q0 16 11 25t33 9h309q23 0 33.5 -9t10.5 -25q0 -12 -6.5 -20t-20.5 -15l-17 -8q-25 -10 -47.5 -29t-43.5 -51t-43 -84zM495 516l361 7v-392q0 -17 11.5 -28.5t35.5 -18.5l57 -12q32 -13 32 -38q0 -15 -11 -24.5t-34 -9.5h-543q-23 0 -34 9.5t-11 24.5q0 26 32 38
l58 12q25 8 35.5 19.5t10.5 27.5v385zM153 492q0 13 8 19.5t21 6.5h982q14 0 22 -6.5t8 -19.5q0 -26 -30 -26h-983q-28 0 -28 26zM898 706l20 52h246q14 0 22 -7t8 -19q0 -26 -30 -26h-266zM153 732q0 12 8 19t21 7h488l23 -52h-512q-28 0 -28 26z" />
    <glyph glyph-name="brokenbar" unicode="&#xa6;" horiz-adv-x="575" 
d="M317 736q0 -28 -9.5 -41t-28.5 -13q-18 0 -28.5 13.5t-10.5 40.5q0 80 -4.5 171.5t-11 185t-11 178.5t-4.5 150q0 36 17.5 56t52.5 20t52 -20t17 -56q0 -64 -4.5 -148.5t-11 -178t-11 -186t-4.5 -172.5zM240 491q0 29 9.5 41.5t29.5 12.5q18 0 28 -13t10 -41
q0 -79 4.5 -171t11 -185.5t11 -178.5t4.5 -150q0 -36 -17.5 -56t-52.5 -20q-34 0 -51.5 20t-17.5 56q0 64 4.5 148.5t11 178.5t11 186t4.5 172z" />
    <glyph glyph-name="section" unicode="&#xa7;" horiz-adv-x="1139" 
d="M645 192l-16 51q102 5 155 47.5t53 108.5q0 54 -27 95.5t-93.5 78.5t-183.5 78q-152 49 -241.5 109.5t-128 136t-38.5 168.5q0 105 53 186t148 126.5t221 45.5q67 0 113 -14t75.5 -28t48.5 -14q18 0 39 15.5t42.5 30.5t39.5 15q16 0 26.5 -9.5t18.5 -34.5l85 -331
q6 -17 -1 -28.5t-21 -16.5q-28 -7 -45 22q-72 127 -138.5 198.5t-129.5 100t-126 28.5q-76 0 -122.5 -47.5t-46.5 -126.5q0 -56 22 -99t71.5 -77.5t130.5 -63.5q154 -51 241 -111t123 -131.5t36 -158.5q0 -92 -46 -169t-132 -125t-206 -56zM480 812l13 -50
q-83 -4 -137.5 -48t-54.5 -116q0 -57 32 -98.5t102 -76.5t183 -74q150 -48 237 -109.5t123.5 -135t36.5 -162.5q0 -101 -52 -180.5t-147 -125.5t-226 -46q-63 0 -107.5 13t-73 26.5t-44.5 13.5q-20 0 -43.5 -14.5t-45 -29t-38.5 -14.5t-26.5 8.5t-14.5 27.5l-75 325
q-8 30 20 39q14 4 26.5 -1.5t22.5 -20.5q70 -122 133 -188.5t123.5 -93t122.5 -26.5q77 0 123.5 47t46.5 123q0 52 -20 93.5t-67.5 75.5t-130.5 63q-155 51 -245 110.5t-127.5 133t-37.5 164.5q0 92 44 167t126.5 122.5t197.5 57.5z" />
    <glyph glyph-name="dieresis" unicode="&#xa8;" horiz-adv-x="793" 
d="M209 1016q-70 0 -112.5 41t-42.5 108q0 69 42.5 110t112.5 41q71 0 113 -41t42 -110q0 -67 -42 -108t-113 -41zM607 1016q-70 0 -113 41t-43 108q0 68 43 109.5t113 41.5q71 0 113.5 -41t42.5 -110q0 -67 -42.5 -108t-113.5 -41z" />
    <glyph glyph-name="copyright" unicode="&#xa9;" horiz-adv-x="1698" 
d="M849 -96q175 0 320.5 59.5t252 167.5t165 254.5t58.5 321.5q0 174 -58.5 319.5t-165 252.5t-252.5 165.5t-320 58.5t-319.5 -58.5t-252 -165.5t-165 -252.5t-58.5 -319.5t58.5 -320.5t165 -254.5t252 -168t319.5 -60zM849 -33q-213 0 -375 95.5t-253.5 263t-91.5 381.5
t91.5 379t253.5 259.5t375 94.5q159 0 290.5 -54t228 -152.5t149 -232.5t52.5 -294t-52.5 -295t-149 -235t-228 -155t-290.5 -55zM1298 506q-5 -64 -36.5 -123t-86.5 -105.5t-131 -73.5t-169 -27q-153 0 -265 65.5t-173.5 184t-61.5 274.5q0 152 65.5 269.5t180 184
t261.5 66.5q63 0 105.5 -13t68 -26.5t40.5 -13.5q16 0 33.5 9.5t33.5 19.5t27 10q14 0 21 -7.5t11 -25.5l52 -273q4 -17 -3.5 -27.5t-21.5 -13.5q-17 -3 -29 4t-18 26q-44 145 -109.5 201.5t-142.5 56.5q-70 0 -122.5 -47t-81.5 -135t-29 -211q0 -136 35.5 -227.5t100 -137
t150.5 -45.5q82 0 144 38.5t89 111.5q10 14 18 22.5t14.5 12t12.5 2.5q17 -3 17 -26z" />
    <glyph glyph-name="ordfeminine" unicode="&#xaa;" horiz-adv-x="1026" 
d="M131 1208q0 51 45.5 102t135.5 85t224 34q162 0 241.5 -65t79.5 -184v-427q0 -23 9.5 -35.5t26.5 -12.5q15 0 23 10.5t14 20.5t13 10q11 0 16 -6t5 -17q0 -24 -21.5 -55.5t-67 -54.5t-118.5 -23q-80 0 -126 32t-46 85l-15 13v563q0 45 -23.5 71.5t-63.5 26.5
q-43 0 -66 -21.5t-23 -52.5v-74q0 -56 -40.5 -93t-109.5 -37q-52 0 -82.5 26.5t-30.5 78.5zM601 954q-26 13 -50.5 19.5t-54.5 6.5q-57 0 -89 -37.5t-32 -108.5q0 -69 30.5 -103t80.5 -34q32 0 63 16.5t50 43.5l16 -35q-41 -64 -116 -98.5t-160 -34.5q-111 0 -181 56
t-70 143q0 108 96 171.5t289 63.5q49 0 84 -9t60 -24z" />
    <glyph glyph-name="guillemetleft" unicode="&#xab;" horiz-adv-x="1156" 
d="M93 479q0 17 12 36t37 38q51 38 108 81t112.5 86t102.5 79.5t75 59.5q15 12 25.5 14t18.5 -4q7 -6 6.5 -17t-8.5 -25q-23 -42 -56 -97l-76.5 -127.5t-100.5 -169.5v90q47 -78 91 -153t81 -137t61 -104q8 -14 9 -24.5t-7 -16.5q-9 -6 -19.5 -4.5t-24.5 12.5
q-26 23 -72.5 59.5t-103 80t-114.5 87.5t-107 81q-26 20 -38 38.5t-12 36.5zM571 479q0 17 12 36t37 38q51 38 108 81t112.5 86t102.5 79.5t75 59.5q15 12 25.5 14t18.5 -4q7 -6 6.5 -17t-8.5 -25q-23 -42 -56 -97l-76.5 -127.5t-100.5 -169.5v90q47 -78 91 -153t81 -137
t61 -104q8 -14 9 -24.5t-7 -16.5q-9 -6 -19.5 -4.5t-24.5 12.5q-26 23 -72.5 59.5t-103 80t-114.5 87.5t-107 81q-26 20 -38 38.5t-12 36.5z" />
    <glyph glyph-name="logicalnot" unicode="&#xac;" horiz-adv-x="1024" 
d="M106 807q0 20 14 31.5t32 11.5h701q24 0 39 -12.5t15 -36.5v-314q0 -16 -12.5 -28t-34.5 -12q-21 0 -34 12.5t-13 28.5v293l14 -15h-676q-18 0 -31.5 10.5t-13.5 30.5z" />
    <glyph glyph-name="hyphensoft" unicode="&#xad;" horiz-adv-x="665" 
d="M575 634q48 0 31 -50l-21 -104q-8 -25 -20 -33t-32 -8h-443q-48 0 -30 50l21 104q8 25 19.5 33t31.5 8h443z" />
    <glyph glyph-name="hyphensoft" unicode="&#x2010;" horiz-adv-x="665" 
d="M575 634q48 0 31 -50l-21 -104q-8 -25 -20 -33t-32 -8h-443q-48 0 -30 50l21 104q8 25 19.5 33t31.5 8h443z" />
    <glyph glyph-name="registered" unicode="&#xae;" horiz-adv-x="1347" 
d="M670 278q138 0 254 46.5t201 130t131 196.5t46 246q0 132 -46.5 243t-132 192.5t-201 126t-252.5 44.5q-136 0 -250.5 -44.5t-198.5 -126t-130 -192.5t-46 -243q0 -133 46 -246t129.5 -196.5t198 -130t251.5 -46.5zM670 334q-163 0 -288 73.5t-196 201t-71 289.5
q0 161 72 285t197 194.5t286 70.5t288.5 -71t200.5 -195.5t73 -283.5q0 -161 -72 -289t-199 -201.5t-291 -73.5zM1016 1005q0 -72 -51.5 -123t-138.5 -67q-28 -5 -52 -11t-55 -6q-60 0 -98 13t-67 32l3 43q30 -22 57.5 -30.5t62.5 -8.5q58 0 91 37t33 114q0 91 -40 150
t-104 59h-48v-578q0 -16 5.5 -23t16.5 -11l27 -8q10 -4 12.5 -8.5t2.5 -11.5q0 -19 -26 -19h-290q-27 0 -27 19q0 14 17 21l28 8q12 4 17.5 11t5.5 22v546q0 13 -5 20t-14 10l-32 8q-17 6 -17 22q0 19 27 19h301q169 0 263.5 -69t94.5 -180zM681 817l199 22l119 -215
q9 -15 18 -23t21 -12q11 -4 15 -8.5t4 -11.5q0 -10 -7 -16t-20 -6h-261q-26 0 -26 20q0 10 11 16l15 4q15 3 16.5 13.5t-8.5 28.5z" />
    <glyph glyph-name="macron" unicode="&#xaf;" horiz-adv-x="782" 
d="M54 1144q0 37 12.5 52t38.5 15h485q27 0 39.5 -14t12.5 -52q0 -37 -12.5 -52.5t-39.5 -15.5h-485q-26 0 -38.5 15.5t-12.5 51.5z" />
    <glyph glyph-name="degree" unicode="&#xb0;" horiz-adv-x="725" 
d="M362 1426q81 0 142.5 -36t97 -99t35.5 -145q0 -79 -36 -140t-98 -95t-141 -34t-141 35t-97.5 97t-35.5 141q0 77 34.5 139.5t96.5 99.5t143 37zM362 1359q-87 0 -139.5 -60.5t-52.5 -148.5q0 -91 54.5 -148.5t137.5 -57.5t138.5 57t55.5 146q0 92 -54 152t-140 60z" />
    <glyph glyph-name="plusminus" unicode="&#xb1;" horiz-adv-x="1034" 
d="M112 840q0 19 12 30t29 11h741q16 0 27.5 -11t11.5 -30t-11.5 -30t-27.5 -11h-742q-16 0 -28 11t-12 30zM520 435q-19 0 -30 12t-11 29v741q0 16 11 27.5t30 11.5t30 -11.5t11 -27.5v-742q0 -16 -11 -28t-30 -12zM108 196q0 19 12 30t29 11h741q16 0 27.5 -11t11.5 -30
t-11.5 -30t-27.5 -11h-742q-16 0 -28 11t-12 30z" />
    <glyph glyph-name="twosuperior" unicode="&#xb2;" horiz-adv-x="725" 
d="M155 872l-28 19l101 50q67 31 108.5 69t61.5 88.5t20 118.5q0 100 -19.5 138t-56.5 38q-38 0 -56 -24t-18 -67v-70q0 -48 -30.5 -76.5t-77.5 -28.5t-75 26t-28 72q0 76 77 138.5t237 62.5q140 0 211 -56.5t71 -146.5q0 -52 -28.5 -97t-91 -86t-167.5 -83zM44 782
q0 64 58 99.5t175 35.5q48 0 94.5 -11.5t89.5 -23t80 -11.5q36 0 57 15.5t34 52.5q3 10 10 13.5t14 2.5q26 -1 23 -31q-10 -131 -57.5 -183t-123.5 -52q-67 0 -110.5 29.5t-81.5 109.5q-15 23 -23.5 32.5t-18.5 9.5q-11 0 -17.5 -13.5t-7.5 -47.5q-3 -67 -28 -93.5
t-71 -26.5q-43 0 -69.5 26t-26.5 67z" />
    <glyph glyph-name="threesuperior" unicode="&#xb3;" horiz-adv-x="658" 
d="M295 1063l-12 12q12 3 28.5 4.5t32.5 1.5q128 0 206 -49t78 -143q0 -95 -85 -151.5t-227 -56.5q-134 0 -204 50.5t-70 123.5q0 45 31.5 74.5t77.5 29.5q44 0 70.5 -27t26.5 -70v-62q0 -35 18.5 -58.5t51.5 -23.5q38 0 59.5 33.5t21.5 118.5q0 84 -27.5 124t-72.5 40h-36
q-13 0 -22 6t-9 18q0 8 4.5 15.5t14.5 15.5l200 174l8 -37h-271q-33 0 -41 -27l-17 -54q-3 -9 -10 -14.5t-19 -5.5q-13 0 -21 6.5t-7 19.5l23 215q2 15 13.5 24.5t31.5 9.5h462q15 0 23.5 -7t8.5 -18q0 -8 -6.5 -16t-22.5 -19z" />
    <glyph glyph-name="acute" unicode="&#xb4;" horiz-adv-x="489" 
d="M144 1276q27 69 65 107t96 33q57 -4 85 -41.5t24 -77.5q-4 -51 -35.5 -87t-84.5 -67l-190 -127q-11 -5 -23 -5t-20 7q-8 9 -6.5 18.5t7.5 20.5z" />
    <glyph glyph-name="mu.math" unicode="&#xb5;" horiz-adv-x="1204" 
d="M125 265h35q0 -120 17.5 -211t39.5 -160t39 -122.5t17 -97.5q0 -56 -35 -90t-89 -34t-89.5 35t-35.5 95q0 41 15 95.5t35.5 125.5t35.5 160.5t15 203.5zM759 250l34 -36l-45 -40q-116 -104 -208.5 -150t-170.5 -46q-109 0 -176.5 69t-67.5 201v567q0 23 11.5 38t32.5 22
l182 55q23 8 36 11t29 3t25 -10t9 -25v-609q0 -75 32 -111.5t89 -36.5q37 0 74.5 15t73.5 47zM943 -23q-96 0 -150.5 47t-56.5 140l-6 27v622q0 24 12 39.5t33 22.5l181 55q23 8 36.5 11t29.5 3q15 0 24.5 -10t9.5 -25v-744q0 -25 11 -39t29 -14t28 12.5t17 24.5t15 12
q10 0 16 -6.5t6 -16.5q0 -31 -24.5 -68t-76 -65t-134.5 -28z" />
    <glyph glyph-name="paragraph" unicode="&#xb6;" horiz-adv-x="1350" 
d="M924 144v1109q0 26 -18 43t-58 17q-38 0 -56.5 -18t-18.5 -42v-1109q0 -24 18.5 -40.5t57.5 -16.5q40 0 57.5 16t17.5 41zM1227 0h-782q-16 0 -26 8.5t-10 21.5q0 18 10 28t26 14l68 14q27 7 40.5 18t13.5 29v442q-21 -4 -45.5 -9t-61.5 -5q-197 0 -313.5 105t-116.5 288
q0 136 60.5 235.5t173 155t268.5 55.5h698q16 0 28.5 -8.5t12.5 -24.5q0 -14 -7.5 -22.5t-21.5 -14.5l-61 -16q-25 -8 -38 -20.5t-13 -32.5v-1123q0 -20 12 -32.5t36 -19.5l61 -14q16 -4 24.5 -12.5t8.5 -23.5q0 -18 -14.5 -27t-30.5 -9z" />
    <glyph glyph-name="periodcentered" unicode="&#xb7;" horiz-adv-x="591" 
d="M295 340q-54 0 -97.5 27.5t-69 72.5t-25.5 98q0 54 25.5 98t69 70.5t97.5 26.5t98 -26.5t69.5 -70.5t25.5 -98q0 -53 -25.5 -98t-69 -72.5t-98.5 -27.5z" />
    <glyph glyph-name="cedilla" unicode="&#xb8;" horiz-adv-x="591" 
d="M248 9h57l-83 -138l-34 11q18 2 37.5 3.5t51.5 1.5q100 0 153 -41t53 -110q0 -75 -58.5 -120t-164.5 -45q-86 0 -139 29t-66 68q-2 13 5 21t17 9q10 2 18 -2.5t16 -10.5q20 -27 46.5 -40t57.5 -13q80 0 80 108q0 46 -23.5 71.5t-69.5 25.5h-21q-16 0 -20 10t3 23z" />
    <glyph glyph-name="onesuperior" unicode="&#xb9;" horiz-adv-x="608" 
d="M116 1325h49q16 0 23.5 -8t7.5 -28v-484q0 -22 -10 -32.5t-28 -14.5l-56 -12q-26 -5 -26 -23q0 -21 31 -21h407q31 0 31 21q0 17 -24 23l-56 12q-16 4 -24 15t-8 32v602q0 28 -29 28q-8 0 -15.5 -3t-17.5 -9q-29 -25 -73 -36t-120 -11h-61q-15 0 -23.5 -7.5t-8.5 -18.5
t7.5 -18t23.5 -7z" />
    <glyph glyph-name="ordmasculine" unicode="&#xba;" horiz-adv-x="1030" 
d="M520 1427q131 0 230 -53.5t155 -148.5t56 -221q0 -121 -58 -215.5t-160.5 -148.5t-236.5 -54q-130 0 -229.5 53t-155 147.5t-55.5 219.5q0 120 58 215.5t160.5 150.5t235.5 55zM574 651q42 6 67 51t30 127t-15 200t-50.5 194t-69 111t-81.5 28q-41 -7 -66.5 -51.5
t-29.5 -126t14 -200.5q21 -118 51 -194t68.5 -110.5t81.5 -28.5z" />
    <glyph glyph-name="guillemetright" unicode="&#xbb;" horiz-adv-x="1156" 
d="M1070 495q0 -17 -12 -36t-37 -38q-51 -38 -108 -81t-112.5 -86t-102.5 -79.5t-75 -59.5q-15 -12 -25.5 -14t-18.5 4q-7 6 -6.5 17t8.5 25q23 42 56 97l76.5 127.5t100.5 169.5v-90q-47 78 -91 153t-81 137t-61 104q-8 14 -9 24.5t7 16.5q9 6 19.5 4.5t24.5 -12.5
q26 -23 72.5 -59.5t103 -80t114.5 -87.5t107 -81q26 -20 38 -38.5t12 -36.5zM592 495q0 -17 -12 -36t-37 -38q-51 -38 -108 -81t-112.5 -86t-102.5 -79.5t-75 -59.5q-15 -12 -25.5 -14t-18.5 4q-7 6 -6.5 17t8.5 25q23 42 56 97l76.5 127.5t100.5 169.5v-90q-47 78 -91 153
t-81 137t-61 104q-8 14 -9 24.5t7 16.5q9 6 19.5 4.5t24.5 -12.5q26 -23 72.5 -59.5t103 -80t114.5 -87.5t107 -81q26 -20 38 -38.5t12 -36.5z" />
    <glyph glyph-name="onequarter" unicode="&#xbc;" horiz-adv-x="1402" 
d="M125 1325h49q16 0 23.5 -8t7.5 -28v-484q0 -22 -10 -32.5t-28 -14.5l-56 -12q-26 -5 -26 -23q0 -21 31 -21h407q31 0 31 21q0 17 -24 23l-56 12q-16 4 -24 15t-8 32v602q0 28 -29 28q-8 0 -15.5 -3t-17.5 -9q-29 -25 -73 -36t-120 -11h-61q-15 0 -23.5 -7.5t-8.5 -18.5
t7.5 -18t23.5 -7zM977 301q0 11 3.5 18.5t10.5 12.5l166 146q11 8 18.5 11.5t14.5 3.5q19 0 19 -21l1 -370q0 -20 8.5 -30.5t23.5 -14.5l47 -12q11 -3 18 -8t7 -14q0 -22 -31 -22h-385q-31 0 -31 22q0 16 26 22l47 12q17 4 27 14t10 31v199zM877 400q26 21 38 41.5t12 42.5
q0 25 -17.5 46.5t-35.5 47t-18 57.5q0 47 35.5 80t104.5 33q63 0 100.5 -31t37.5 -80q0 -41 -23 -83t-96 -104l-300 -258l-11 22h589q14 0 22 -5t8 -16q0 -24 -31 -24h-602q-14 0 -21.5 6.5t-7.5 17.5q0 7 4 15t16 16zM747 753q-11 -14 -20 -17.5t-22 3.5q-11 6 -12 16t6 25
q12 20 40 68.5t65.5 112t78.5 131.5t77.5 129t63 104.5t35.5 57.5q17 27 41.5 34t51.5 -9q26 -15 29.5 -39t-13.5 -49q-8 -13 -38 -53.5t-72.5 -98.5t-90 -122t-92.5 -124t-79 -105t-49 -64zM611 643q11 14 21 18t22 -2q12 -7 12 -17t-9 -26q-10 -20 -38.5 -68.5t-66 -112.5
t-78 -132.5t-77.5 -130.5t-64 -105.5t-35 -57.5q-17 -25 -41.5 -31.5t-50.5 7.5q-26 15 -30 38.5t14 49.5q8 13 37.5 54.5t72.5 100t91 122.5t92.5 124t78.5 105.5t49 63.5z" />
    <glyph glyph-name="onehalf" unicode="&#xbd;" horiz-adv-x="1459" 
d="M134 1325h49q16 0 23.5 -8t7.5 -28v-484q0 -22 -10 -32.5t-28 -14.5l-56 -12q-26 -5 -26 -23q0 -21 31 -21h407q31 0 31 21q0 17 -24 23l-56 12q-16 4 -24 15t-8 32v602q0 28 -29 28q-8 0 -15.5 -3t-17.5 -9q-29 -25 -73 -36t-120 -11h-61q-15 0 -23.5 -7.5t-8.5 -18.5
t7.5 -18t23.5 -7zM747 753q-11 -14 -20 -17.5t-22 3.5q-11 6 -12 16t6 25q12 20 40 68.5t65.5 112t78.5 131.5t77.5 129t63 104.5t35.5 57.5q17 27 41.5 34t51.5 -9q26 -15 29.5 -39t-13.5 -49q-8 -13 -38 -53.5t-72.5 -98.5t-90 -122t-92.5 -124t-79 -105t-49 -64zM611 643
q11 14 21 18t22 -2q12 -7 12 -17t-9 -26q-10 -20 -38.5 -68.5t-66 -112.5t-78 -132.5t-77.5 -130.5t-64 -105.5t-35 -57.5q-17 -25 -41.5 -31.5t-50.5 7.5q-26 15 -30 38.5t14 49.5q8 13 37.5 54.5t72.5 100t91 122.5t92.5 124t78.5 105.5t49 63.5zM865 174l-28 19l101 50
q67 31 108.5 69t61.5 88.5t20 118.5q0 100 -19.5 138t-56.5 38q-38 0 -56 -24t-18 -67v-70q0 -48 -30.5 -76.5t-77.5 -28.5t-75 26t-28 72q0 76 77 138.5t237 62.5q140 0 211 -56.5t71 -146.5q0 -52 -28.5 -97t-91 -86t-167.5 -83zM754 84q0 64 58 99.5t175 35.5
q48 0 94.5 -11.5t89.5 -23t80 -11.5q36 0 57 15.5t34 52.5q3 10 10 13.5t14 2.5q26 -1 23 -31q-10 -131 -57.5 -183t-123.5 -52q-67 0 -110.5 29.5t-81.5 109.5q-15 23 -23.5 32.5t-18.5 9.5q-11 0 -17.5 -13.5t-7.5 -47.5q-3 -67 -28 -93.5t-71 -26.5q-43 0 -69.5 26
t-26.5 67z" />
    <glyph glyph-name="threequarters" unicode="&#xbe;" horiz-adv-x="1448" 
d="M1022 299q0 11 3.5 18.5t10.5 12.5l166 146q11 8 18.5 11.5t14.5 3.5q19 0 19 -21l1 -370q0 -20 8.5 -30.5t23.5 -14.5l47 -12q11 -3 18 -8t7 -14q0 -22 -31 -22h-385q-31 0 -31 22q0 16 26 22l47 12q17 4 27 14t10 31v199zM922 398q26 21 38 41.5t12 42.5
q0 25 -17.5 46.5t-35.5 47t-18 57.5q0 47 35.5 80t104.5 33q63 0 100.5 -31t37.5 -80q0 -41 -23 -83t-96 -104l-300 -258l-11 22h589q14 0 22 -5t8 -16q0 -24 -31 -24h-602q-14 0 -21.5 6.5t-7.5 17.5q0 7 4 15t16 16zM802 753q-11 -14 -20 -17.5t-22 3.5q-11 6 -12 16t6 25
q12 20 40 68.5t65.5 112t78.5 131.5t77.5 129t63 104.5t35.5 57.5q17 27 41.5 34t51.5 -9q26 -15 29.5 -39t-13.5 -49q-8 -13 -38 -53.5t-72.5 -98.5t-90 -122t-92.5 -124t-79 -105t-49 -64zM666 643q11 14 21 18t22 -2q12 -7 12 -17t-9 -26q-10 -20 -38.5 -68.5t-66 -112.5
t-78 -132.5t-77.5 -130.5t-64 -105.5t-35 -57.5q-17 -25 -41.5 -31.5t-50.5 7.5q-26 15 -30 38.5t14 49.5q8 13 37.5 54.5t72.5 100t91 122.5t92.5 124t78.5 105.5t49 63.5zM337 1063l-12 12q12 3 28.5 4.5t32.5 1.5q128 0 206 -49t78 -143q0 -95 -85 -151.5t-227 -56.5
q-134 0 -204 50.5t-70 123.5q0 45 31.5 74.5t77.5 29.5q44 0 70.5 -27t26.5 -70v-62q0 -35 18.5 -58.5t51.5 -23.5q38 0 59.5 33.5t21.5 118.5q0 84 -27.5 124t-72.5 40h-36q-13 0 -22 6t-9 18q0 8 4.5 15.5t14.5 15.5l200 174l8 -37h-271q-33 0 -41 -27l-17 -54
q-3 -9 -10 -14.5t-19 -5.5q-13 0 -21 6.5t-7 19.5l23 215q2 15 13.5 24.5t31.5 9.5h462q15 0 23.5 -7t8.5 -18q0 -8 -6.5 -16t-22.5 -19z" />
    <glyph glyph-name="questiondown" unicode="&#xbf;" horiz-adv-x="1086" 
d="M685 507l-15 144q-5 21 -15.5 31.5t-31.5 10.5q-17 0 -27.5 -9.5t-17.5 -33.5l-13 -122q-6 -32 -20 -48t-45 -22l-73 -14q-189 -38 -279 -134.5t-90 -240.5q0 -179 130 -276t382 -97q145 0 258 47.5t177.5 126t64.5 173.5q0 88 -46 136t-122 48q-88 0 -136 -56t-47 -158
v-98q0 -72 -36 -113t-102 -41q-69 0 -104 63t-35 187q0 157 29.5 242.5t104.5 123.5l51 24q38 18 51.5 43t6.5 63zM631 1174q53 0 96.5 -27t69 -72.5t25.5 -98.5q0 -54 -25.5 -98t-69 -70.5t-96.5 -26.5q-55 0 -99 26.5t-69.5 70.5t-25.5 98q0 53 25.5 98.5t69.5 72.5t99 27
z" />
    <glyph glyph-name="Agrave" unicode="&#xc0;" horiz-adv-x="1420" 
d="M313 562h546l3 -79h-554zM427 34q0 -15 -10.5 -24.5t-32.5 -9.5h-333q-22 0 -33 9.5t-11 24.5q0 12 7 20t21 15l27 11q34 16 61.5 49.5t49.5 107.5l295 969q15 50 6.5 76t-41.5 41q-21 12 -30 21t-9 22q0 17 11 25.5t33 8.5h519q23 0 33.5 -8.5t10.5 -25.5
q0 -14 -9 -23.5t-29 -17.5q-22 -8 -27 -22.5t6 -49.5l348 -1087q13 -42 29 -62.5t41 -28.5q21 -9 28.5 -17.5t7.5 -23.5t-11 -24.5t-34 -9.5h-495q-23 0 -34 9.5t-11 24.5q0 14 8 21.5t24 13.5l43 11q26 9 27.5 25.5t-9.5 52.5l-346 1101l33 45l-321 -1058
q-14 -45 -7.5 -76.5t32 -53t68.5 -37.5l34 -11q14 -6 22 -13.5t8 -20.5zM698 1713l123 -194q7 -10 10 -20t-4 -18t-19.5 -8.5t-22.5 2.5l-207 83q-58 21 -97.5 52.5t-45.5 88.5q-6 39 20.5 77.5t77.5 44.5q50 7 90.5 -22.5t74.5 -85.5z" />
    <glyph glyph-name="Aacute" unicode="&#xc1;" horiz-adv-x="1420" 
d="M313 562h546l3 -79h-554zM427 34q0 -15 -10.5 -24.5t-32.5 -9.5h-333q-22 0 -33 9.5t-11 24.5q0 12 7 20t21 15l27 11q34 16 61.5 49.5t49.5 107.5l295 969q15 50 6.5 76t-41.5 41q-21 12 -30 21t-9 22q0 17 11 25.5t33 8.5h519q23 0 33.5 -8.5t10.5 -25.5
q0 -14 -9 -23.5t-29 -17.5q-22 -8 -27 -22.5t6 -49.5l348 -1087q13 -42 29 -62.5t41 -28.5q21 -9 28.5 -17.5t7.5 -23.5t-11 -24.5t-34 -9.5h-495q-23 0 -34 9.5t-11 24.5q0 14 8 21.5t24 13.5l43 11q26 9 27.5 25.5t-9.5 52.5l-346 1101l33 45l-321 -1058
q-14 -45 -7.5 -76.5t32 -53t68.5 -37.5l34 -11q14 -6 22 -13.5t8 -20.5zM784 1713q34 56 74.5 85.5t90.5 22.5q51 -6 77.5 -44.5t20.5 -77.5q-6 -57 -45.5 -88.5t-97.5 -52.5l-207 -83q-10 -3 -22.5 -2.5t-18.5 8.5q-7 8 -4.5 18t9.5 20z" />
    <glyph glyph-name="Acircumflex" unicode="&#xc2;" horiz-adv-x="1420" 
d="M313 562h546l3 -79h-554zM427 34q0 -15 -10.5 -24.5t-32.5 -9.5h-333q-22 0 -33 9.5t-11 24.5q0 12 7 20t21 15l27 11q34 16 61.5 49.5t49.5 107.5l295 969q15 50 6.5 76t-41.5 41q-21 12 -30 21t-9 22q0 17 11 25.5t33 8.5h519q23 0 33.5 -8.5t10.5 -25.5
q0 -14 -9 -23.5t-29 -17.5q-22 -8 -27 -22.5t6 -49.5l348 -1087q13 -42 29 -62.5t41 -28.5q21 -9 28.5 -17.5t7.5 -23.5t-11 -24.5t-34 -9.5h-495q-23 0 -34 9.5t-11 24.5q0 14 8 21.5t24 13.5l43 11q26 9 27.5 25.5t-9.5 52.5l-346 1101l33 45l-321 -1058
q-14 -45 -7.5 -76.5t32 -53t68.5 -37.5l34 -11q14 -6 22 -13.5t8 -20.5zM778 1640h-154l323 -156q34 -19 53 -3q8 6 8.5 18t-12.5 26l-225 243q-18 19 -32.5 29.5t-37.5 10.5q-22 0 -36.5 -10.5t-33.5 -29.5l-225 -243q-13 -14 -12 -26t9 -18q18 -16 52 3z" />
    <glyph glyph-name="Atilde" unicode="&#xc3;" horiz-adv-x="1420" 
d="M313 562h546l3 -79h-554zM427 34q0 -15 -10.5 -24.5t-32.5 -9.5h-333q-22 0 -33 9.5t-11 24.5q0 12 7 20t21 15l27 11q34 16 61.5 49.5t49.5 107.5l295 969q15 50 6.5 76t-41.5 41q-21 12 -30 21t-9 22q0 17 11 25.5t33 8.5h519q23 0 33.5 -8.5t10.5 -25.5
q0 -14 -9 -23.5t-29 -17.5q-22 -8 -27 -22.5t6 -49.5l348 -1087q13 -42 29 -62.5t41 -28.5q21 -9 28.5 -17.5t7.5 -23.5t-11 -24.5t-34 -9.5h-495q-23 0 -34 9.5t-11 24.5q0 14 8 21.5t24 13.5l43 11q26 9 27.5 25.5t-9.5 52.5l-346 1101l33 45l-321 -1058
q-14 -45 -7.5 -76.5t32 -53t68.5 -37.5l34 -11q14 -6 22 -13.5t8 -20.5zM820 1485q-43 0 -79.5 15.5t-68 36t-59.5 35.5t-56 15q-63 0 -71 -86q-7 -24 -30 -24q-29 0 -29 39q0 120 42 182.5t125 62.5q44 0 80.5 -15.5t67.5 -36t59.5 -36t56.5 -15.5q64 0 71 86q7 24 30 24
q29 0 29 -39q0 -119 -42 -181.5t-126 -62.5z" />
    <glyph glyph-name="Adieresis" unicode="&#xc4;" horiz-adv-x="1420" 
d="M313 562h546l3 -79h-554zM427 34q0 -15 -10.5 -24.5t-32.5 -9.5h-333q-22 0 -33 9.5t-11 24.5q0 12 7 20t21 15l27 11q34 16 61.5 49.5t49.5 107.5l295 969q15 50 6.5 76t-41.5 41q-21 12 -30 21t-9 22q0 17 11 25.5t33 8.5h519q23 0 33.5 -8.5t10.5 -25.5
q0 -14 -9 -23.5t-29 -17.5q-22 -8 -27 -22.5t6 -49.5l348 -1087q13 -42 29 -62.5t41 -28.5q21 -9 28.5 -17.5t7.5 -23.5t-11 -24.5t-34 -9.5h-495q-23 0 -34 9.5t-11 24.5q0 14 8 21.5t24 13.5l43 11q26 9 27.5 25.5t-9.5 52.5l-346 1101l33 45l-321 -1058
q-14 -45 -7.5 -76.5t32 -53t68.5 -37.5l34 -11q14 -6 22 -13.5t8 -20.5zM497 1480q-72 0 -115 40.5t-43 106.5q0 68 43 108.5t115 40.5t114.5 -40.5t42.5 -108.5q0 -66 -42.5 -106.5t-114.5 -40.5zM899 1480q-71 0 -114.5 40.5t-43.5 106.5q0 67 43.5 108t114.5 41
q74 0 117 -40.5t43 -108.5q0 -66 -43 -106.5t-117 -40.5z" />
    <glyph glyph-name="Aring" unicode="&#xc5;" horiz-adv-x="1420" 
d="M313 562h546l3 -79h-554zM427 34q0 -15 -10.5 -24.5t-32.5 -9.5h-333q-22 0 -33 9.5t-11 24.5q0 12 7 20t21 15l27 11q34 16 61.5 49.5t49.5 107.5l295 969q15 50 6.5 76t-41.5 41q-21 12 -30 21t-9 22q0 17 11 25.5t33 8.5h519q23 0 33.5 -8.5t10.5 -25.5
q0 -14 -9 -23.5t-29 -17.5q-22 -8 -27 -22.5t6 -49.5l348 -1087q13 -42 29 -62.5t41 -28.5q21 -9 28.5 -17.5t7.5 -23.5t-11 -24.5t-34 -9.5h-495q-23 0 -34 9.5t-11 24.5q0 14 8 21.5t24 13.5l43 11q26 9 27.5 25.5t-9.5 52.5l-346 1101l33 45l-321 -1058
q-14 -45 -7.5 -76.5t32 -53t68.5 -37.5l34 -11q14 -6 22 -13.5t8 -20.5zM705 1467q-94 0 -158 48t-64 134q0 87 64 134.5t158 47.5q96 0 159.5 -49t63.5 -133t-63.5 -133t-159.5 -49zM707 1775q-33 0 -54.5 -30.5t-21.5 -95.5q0 -63 21.5 -95t54.5 -32t53 32.5t20 94.5
q0 64 -20 95t-53 31z" />
    <glyph glyph-name="AE" unicode="&#xc6;" horiz-adv-x="1951" 
d="M964 1400l-26 -84h-66l-577 -1070q-34 -63 -13 -105t78 -62l33 -11q15 -6 23 -13.5t8 -20.5q0 -15 -10.5 -24.5t-33.5 -9.5h-344q-22 0 -32.5 9.5t-10.5 24.5q0 20 28 35l24 11q33 14 70.5 53.5t71.5 103.5l527 969q25 47 15 76t-49 41q-23 9 -32 19.5t-9 23.5
q0 16 11 25t34 9h280zM424 628h511l3 -78h-519zM1147 757h251q75 0 109 31.5t51 119.5q8 35 37 35q28 1 36 -33l94 -336q9 -38 -20 -48q-30 -11 -50 16q-40 57 -72.5 87.5t-69 42t-89.5 11.5h-277v74zM880 131v1269h722q33 0 56.5 8t42.5 16t38 8q21 0 32.5 -13.5
t20.5 -45.5l87 -330q6 -21 0.5 -33t-21.5 -18q-18 -6 -32 0.5t-25 25.5q-58 95 -106 155.5t-91 93.5t-87 45t-96 12h-169v-1167q0 -41 21.5 -61t63.5 -20h108q67 0 125.5 29t122.5 109.5t145 235.5q9 18 21.5 24t28.5 3q17 -3 25 -16.5t2 -35.5l-99 -397q-9 -31 -20.5 -45
t-35.5 -14q-17 0 -35.5 8t-43 15.5t-58.5 7.5h-834q-23 0 -34 9.5t-11 24.5q0 28 32 38l57 12q24 6 35.5 17t11.5 30z" />
    <glyph glyph-name="Ccedilla" unicode="&#xc7;" horiz-adv-x="1367" 
d="M1315 410q-4 -86 -45.5 -165.5t-116 -142.5t-177.5 -100t-228 -37q-213 0 -367.5 91.5t-238.5 253.5t-84 376q0 163 51 299t143 236.5t217.5 155.5t275.5 55q94 0 156 -18.5t98 -37.5t52 -19q21 0 42 18t42 35.5t39 17.5q13 0 22.5 -9t15.5 -31l99 -381q5 -19 -3 -32.5
t-26 -17.5q-19 -4 -33.5 3.5t-23.5 27.5q-55 134 -121 212t-139.5 111.5t-151.5 33.5q-81 0 -148 -38.5t-117 -111.5t-77 -177.5t-27 -238.5q0 -212 57 -354t157.5 -213t230.5 -71q128 0 223.5 70.5t139.5 204.5q8 18 18 24t23 4q12 -2 17.5 -11t4.5 -23zM705 9h57l-83 -138
l-34 11q18 2 37.5 3.5t51.5 1.5q100 0 153 -41t53 -110q0 -75 -58.5 -120t-164.5 -45q-86 0 -139 29t-66 68q-2 13 5 21t17 9q10 2 18 -2.5t16 -10.5q20 -27 46.5 -40t57.5 -13q80 0 80 108q0 46 -23.5 71.5t-69.5 25.5h-21q-16 0 -20 10t3 23z" />
    <glyph glyph-name="Egrave" unicode="&#xc8;" horiz-adv-x="1295" 
d="M485 757h258q75 0 109 31.5t51 119.5q5 19 14 27t22 8q29 1 37 -33l93 -336q5 -20 0 -31.5t-19 -16.5t-27 -1.5t-23 17.5q-40 57 -72.5 87.5t-69 42t-89.5 11.5h-284v74zM82 1366q0 16 11 25t34 9h820q33 0 56.5 8t42.5 16t38 8q21 0 32.5 -13.5t20.5 -45.5l87 -330
q6 -21 0.5 -33t-21.5 -18q-18 -6 -32 0.5t-25 25.5q-58 95 -106 155.5t-91 93.5t-87 45t-96 12h-176v-1167q0 -41 21.5 -61t63.5 -20h114q67 0 125.5 29t122.5 109.5t145 235.5q9 18 21.5 24t28.5 3q17 -3 25 -16.5t2 -35.5l-99 -397q-9 -31 -20.5 -45t-35.5 -14
q-17 0 -35.5 8t-43 15.5t-58.5 7.5h-840q-23 0 -34 9.5t-11 24.5q0 28 32 38l57 12q24 6 35.5 17t11.5 30v1138q0 19 -11.5 30t-35.5 17l-57 12q-32 10 -32 38zM652 1713l123 -194q7 -10 10 -20t-4 -18t-19.5 -8.5t-22.5 2.5l-207 83q-58 21 -97.5 52.5t-45.5 88.5
q-6 39 20.5 77.5t77.5 44.5q50 7 90.5 -22.5t74.5 -85.5z" />
    <glyph glyph-name="Eacute" unicode="&#xc9;" horiz-adv-x="1295" 
d="M485 757h258q75 0 109 31.5t51 119.5q5 19 14 27t22 8q29 1 37 -33l93 -336q5 -20 0 -31.5t-19 -16.5t-27 -1.5t-23 17.5q-40 57 -72.5 87.5t-69 42t-89.5 11.5h-284v74zM82 1366q0 16 11 25t34 9h820q33 0 56.5 8t42.5 16t38 8q21 0 32.5 -13.5t20.5 -45.5l87 -330
q6 -21 0.5 -33t-21.5 -18q-18 -6 -32 0.5t-25 25.5q-58 95 -106 155.5t-91 93.5t-87 45t-96 12h-176v-1167q0 -41 21.5 -61t63.5 -20h114q67 0 125.5 29t122.5 109.5t145 235.5q9 18 21.5 24t28.5 3q17 -3 25 -16.5t2 -35.5l-99 -397q-9 -31 -20.5 -45t-35.5 -14
q-17 0 -35.5 8t-43 15.5t-58.5 7.5h-840q-23 0 -34 9.5t-11 24.5q0 28 32 38l57 12q24 6 35.5 17t11.5 30v1138q0 19 -11.5 30t-35.5 17l-57 12q-32 10 -32 38zM733 1713q34 56 74.5 85.5t90.5 22.5q51 -6 77.5 -44.5t20.5 -77.5q-6 -57 -45.5 -88.5t-97.5 -52.5l-207 -83
q-10 -3 -22.5 -2.5t-18.5 8.5q-7 8 -4.5 18t9.5 20z" />
    <glyph glyph-name="Ecircumflex" unicode="&#xca;" horiz-adv-x="1295" 
d="M485 757h258q75 0 109 31.5t51 119.5q5 19 14 27t22 8q29 1 37 -33l93 -336q5 -20 0 -31.5t-19 -16.5t-27 -1.5t-23 17.5q-40 57 -72.5 87.5t-69 42t-89.5 11.5h-284v74zM82 1366q0 16 11 25t34 9h820q33 0 56.5 8t42.5 16t38 8q21 0 32.5 -13.5t20.5 -45.5l87 -330
q6 -21 0.5 -33t-21.5 -18q-18 -6 -32 0.5t-25 25.5q-58 95 -106 155.5t-91 93.5t-87 45t-96 12h-176v-1167q0 -41 21.5 -61t63.5 -20h114q67 0 125.5 29t122.5 109.5t145 235.5q9 18 21.5 24t28.5 3q17 -3 25 -16.5t2 -35.5l-99 -397q-9 -31 -20.5 -45t-35.5 -14
q-17 0 -35.5 8t-43 15.5t-58.5 7.5h-840q-23 0 -34 9.5t-11 24.5q0 28 32 38l57 12q24 6 35.5 17t11.5 30v1138q0 19 -11.5 30t-35.5 17l-57 12q-32 10 -32 38zM738 1640h-154l323 -156q34 -19 53 -3q8 6 8.5 18t-12.5 26l-225 243q-18 19 -32.5 29.5t-37.5 10.5
q-22 0 -36.5 -10.5t-33.5 -29.5l-225 -243q-13 -14 -12 -26t9 -18q18 -16 52 3z" />
    <glyph glyph-name="Edieresis" unicode="&#xcb;" horiz-adv-x="1295" 
d="M485 757h258q75 0 109 31.5t51 119.5q5 19 14 27t22 8q29 1 37 -33l93 -336q5 -20 0 -31.5t-19 -16.5t-27 -1.5t-23 17.5q-40 57 -72.5 87.5t-69 42t-89.5 11.5h-284v74zM82 1366q0 16 11 25t34 9h820q33 0 56.5 8t42.5 16t38 8q21 0 32.5 -13.5t20.5 -45.5l87 -330
q6 -21 0.5 -33t-21.5 -18q-18 -6 -32 0.5t-25 25.5q-58 95 -106 155.5t-91 93.5t-87 45t-96 12h-176v-1167q0 -41 21.5 -61t63.5 -20h114q67 0 125.5 29t122.5 109.5t145 235.5q9 18 21.5 24t28.5 3q17 -3 25 -16.5t2 -35.5l-99 -397q-9 -31 -20.5 -45t-35.5 -14
q-17 0 -35.5 8t-43 15.5t-58.5 7.5h-840q-23 0 -34 9.5t-11 24.5q0 28 32 38l57 12q24 6 35.5 17t11.5 30v1138q0 19 -11.5 30t-35.5 17l-57 12q-32 10 -32 38zM459 1480q-72 0 -115 40.5t-43 106.5q0 68 43 108.5t115 40.5t114.5 -40.5t42.5 -108.5q0 -66 -42.5 -106.5
t-114.5 -40.5zM861 1480q-71 0 -114.5 40.5t-43.5 106.5q0 67 43.5 108t114.5 41q74 0 117 -40.5t43 -108.5q0 -66 -43 -106.5t-117 -40.5z" />
    <glyph glyph-name="Igrave" unicode="&#xcc;" horiz-adv-x="807" 
d="M589 131q0 -18 12 -29.5t35 -17.5l57 -12q32 -10 32 -38q0 -15 -10.5 -24.5t-33.5 -9.5h-555q-22 0 -33 9.5t-11 24.5q0 28 32 38l57 12q23 6 35 17.5t12 29.5v1138q0 18 -12 29.5t-35 17.5l-57 12q-32 10 -32 38q0 16 11 25t33 9h555q23 0 33.5 -9t10.5 -25
q0 -28 -32 -38l-57 -12q-23 -6 -35 -17.5t-12 -29.5v-1138zM394 1713l123 -194q7 -10 10 -20t-4 -18t-19.5 -8.5t-22.5 2.5l-207 83q-58 21 -97.5 52.5t-45.5 88.5q-6 39 20.5 77.5t77.5 44.5q50 7 90.5 -22.5t74.5 -85.5z" />
    <glyph glyph-name="Iacute" unicode="&#xcd;" horiz-adv-x="807" 
d="M589 131q0 -18 12 -29.5t35 -17.5l57 -12q32 -10 32 -38q0 -15 -10.5 -24.5t-33.5 -9.5h-555q-22 0 -33 9.5t-11 24.5q0 28 32 38l57 12q23 6 35 17.5t12 29.5v1138q0 18 -12 29.5t-35 17.5l-57 12q-32 10 -32 38q0 16 11 25t33 9h555q23 0 33.5 -9t10.5 -25
q0 -28 -32 -38l-57 -12q-23 -6 -35 -17.5t-12 -29.5v-1138zM476 1713q34 56 74.5 85.5t90.5 22.5q51 -6 77.5 -44.5t20.5 -77.5q-6 -57 -45.5 -88.5t-97.5 -52.5l-207 -83q-10 -3 -22.5 -2.5t-18.5 8.5q-7 8 -4.5 18t9.5 20z" />
    <glyph glyph-name="Icircumflex" unicode="&#xce;" horiz-adv-x="807" 
d="M589 131q0 -18 12 -29.5t35 -17.5l57 -12q32 -10 32 -38q0 -15 -10.5 -24.5t-33.5 -9.5h-555q-22 0 -33 9.5t-11 24.5q0 28 32 38l57 12q23 6 35 17.5t12 29.5v1138q0 18 -12 29.5t-35 17.5l-57 12q-32 10 -32 38q0 16 11 25t33 9h555q23 0 33.5 -9t10.5 -25
q0 -28 -32 -38l-57 -12q-23 -6 -35 -17.5t-12 -29.5v-1138zM481 1640h-154l323 -156q34 -19 53 -3q8 6 8.5 18t-12.5 26l-225 243q-18 19 -32.5 29.5t-37.5 10.5q-22 0 -36.5 -10.5t-33.5 -29.5l-225 -243q-13 -14 -12 -26t9 -18q18 -16 52 3z" />
    <glyph glyph-name="Idieresis" unicode="&#xcf;" horiz-adv-x="807" 
d="M589 131q0 -18 12 -29.5t35 -17.5l57 -12q32 -10 32 -38q0 -15 -10.5 -24.5t-33.5 -9.5h-555q-22 0 -33 9.5t-11 24.5q0 28 32 38l57 12q23 6 35 17.5t12 29.5v1138q0 18 -12 29.5t-35 17.5l-57 12q-32 10 -32 38q0 16 11 25t33 9h555q23 0 33.5 -9t10.5 -25
q0 -28 -32 -38l-57 -12q-23 -6 -35 -17.5t-12 -29.5v-1138zM202 1480q-72 0 -115 40.5t-43 106.5q0 68 43 108.5t115 40.5t114.5 -40.5t42.5 -108.5q0 -66 -42.5 -106.5t-114.5 -40.5zM604 1480q-71 0 -114.5 40.5t-43.5 106.5q0 67 43.5 108t114.5 41q74 0 117 -40.5
t43 -108.5q0 -66 -43 -106.5t-117 -40.5z" />
    <glyph glyph-name="Eth" unicode="&#xd0;" horiz-adv-x="1560" 
d="M65 705q0 13 8.5 21t22.5 8h701q14 0 22.5 -8t8.5 -21q0 -14 -8.5 -21.5t-22.5 -7.5h-702q-14 0 -22 7.5t-8 21.5zM82 34q0 28 31 38l60 13q23 6 34 17t11 30v1136q0 19 -11 30t-34 17l-61 14q-30 9 -30 37q0 16 11 25t33 9h553q183 0 334 -53.5t260 -153.5t168.5 -241.5
t59.5 -317.5q0 -191 -89.5 -333.5t-253 -221.5t-388.5 -79h-644q-23 0 -33.5 9.5t-10.5 24.5zM746 75q108 0 191 60t130.5 187.5t47.5 330.5q0 162 -32 287t-92 210.5t-145 130t-190 44.5h-67v-1178q0 -36 20.5 -54t58.5 -18h78z" />
    <glyph glyph-name="Ntilde" unicode="&#xd1;" horiz-adv-x="1459" 
d="M490 34q0 -15 -11 -24.5t-33 -9.5h-350q-23 0 -33.5 9.5t-10.5 24.5q0 26 32 39l37 12q50 18 77 49t27 92v883q0 25 -4.5 39t-23.5 39l-87 132q-12 18 -18.5 29.5t-6.5 21.5q0 14 10.5 22t27.5 8h331q21 0 35.5 -8.5t29.5 -30.5l686 -1065l-37 -97v975q0 60 -26 91.5
t-78 49.5l-44 12q-32 15 -32 39q0 16 10.5 25t32.5 9h351q22 0 33 -9t11 -25q0 -25 -33 -39l-37 -12q-50 -17 -77 -48.5t-27 -92.5v-899q0 -25 5 -44.5t16 -34.5l67 -102q18 -25 22.5 -37.5t4.5 -23.5q0 -15 -11 -24t-30 -9h-344q-38 0 -38 32q0 12 -4.5 25t-23.5 39
l-694 1067l87 42v-979q0 -60 26.5 -91t77.5 -50l44 -12q33 -14 33 -39zM895 1485q-43 0 -79.5 15.5t-68 36t-59.5 35.5t-56 15q-63 0 -71 -86q-7 -24 -30 -24q-29 0 -29 39q0 120 42 182.5t125 62.5q44 0 80.5 -15.5t67.5 -36t59.5 -36t56.5 -15.5q64 0 71 86q7 24 30 24
q29 0 29 -39q0 -119 -42 -181.5t-126 -62.5z" />
    <glyph glyph-name="Ograve" unicode="&#xd2;" horiz-adv-x="1546" 
d="M764 1429q166 0 298.5 -52.5t227 -150t145 -231.5t50.5 -296q0 -159 -49.5 -292.5t-142.5 -231.5t-223 -151.5t-290 -53.5q-164 0 -297 52.5t-227.5 150.5t-145 233.5t-50.5 301.5q0 156 50.5 288t143.5 229t222.5 150.5t287.5 53.5zM1106 450q0 140 -23 272t-63.5 246
t-94 200t-114.5 134.5t-126 48.5q-75 0 -130 -45.5t-84.5 -133.5t-29.5 -216q0 -141 23 -274t63.5 -248t93.5 -201.5t114.5 -135.5t125.5 -49q78 0 133 45t83.5 134.5t28.5 222.5zM759 1713l123 -194q7 -10 10 -20t-4 -18t-19.5 -8.5t-22.5 2.5l-207 83q-58 21 -97.5 52.5
t-45.5 88.5q-6 39 20.5 77.5t77.5 44.5q50 7 90.5 -22.5t74.5 -85.5z" />
    <glyph glyph-name="Oacute" unicode="&#xd3;" horiz-adv-x="1546" 
d="M764 1429q166 0 298.5 -52.5t227 -150t145 -231.5t50.5 -296q0 -159 -49.5 -292.5t-142.5 -231.5t-223 -151.5t-290 -53.5q-164 0 -297 52.5t-227.5 150.5t-145 233.5t-50.5 301.5q0 156 50.5 288t143.5 229t222.5 150.5t287.5 53.5zM1106 450q0 140 -23 272t-63.5 246
t-94 200t-114.5 134.5t-126 48.5q-75 0 -130 -45.5t-84.5 -133.5t-29.5 -216q0 -141 23 -274t63.5 -248t93.5 -201.5t114.5 -135.5t125.5 -49q78 0 133 45t83.5 134.5t28.5 222.5zM845 1715q34 56 74.5 85.5t90.5 22.5q51 -6 77.5 -44.5t20.5 -77.5q-6 -57 -45.5 -88.5
t-97.5 -52.5l-207 -83q-10 -3 -22.5 -2.5t-18.5 8.5q-7 8 -4.5 18t9.5 20z" />
    <glyph glyph-name="Ocircumflex" unicode="&#xd4;" horiz-adv-x="1546" 
d="M764 1429q166 0 298.5 -52.5t227 -150t145 -231.5t50.5 -296q0 -159 -49.5 -292.5t-142.5 -231.5t-223 -151.5t-290 -53.5q-164 0 -297 52.5t-227.5 150.5t-145 233.5t-50.5 301.5q0 156 50.5 288t143.5 229t222.5 150.5t287.5 53.5zM1106 450q0 140 -23 272t-63.5 246
t-94 200t-114.5 134.5t-126 48.5q-75 0 -130 -45.5t-84.5 -133.5t-29.5 -216q0 -141 23 -274t63.5 -248t93.5 -201.5t114.5 -135.5t125.5 -49q78 0 133 45t83.5 134.5t28.5 222.5zM850 1640h-154l323 -156q34 -19 53 -3q8 6 8.5 18t-12.5 26l-225 243q-18 19 -32.5 29.5
t-37.5 10.5q-22 0 -36.5 -10.5t-33.5 -29.5l-225 -243q-13 -14 -12 -26t9 -18q18 -16 52 3z" />
    <glyph glyph-name="Otilde" unicode="&#xd5;" horiz-adv-x="1546" 
d="M764 1429q166 0 298.5 -52.5t227 -150t145 -231.5t50.5 -296q0 -159 -49.5 -292.5t-142.5 -231.5t-223 -151.5t-290 -53.5q-164 0 -297 52.5t-227.5 150.5t-145 233.5t-50.5 301.5q0 156 50.5 288t143.5 229t222.5 150.5t287.5 53.5zM1106 450q0 140 -23 272t-63.5 246
t-94 200t-114.5 134.5t-126 48.5q-75 0 -130 -45.5t-84.5 -133.5t-29.5 -216q0 -141 23 -274t63.5 -248t93.5 -201.5t114.5 -135.5t125.5 -49q78 0 133 45t83.5 134.5t28.5 222.5zM886 1487q-43 0 -79.5 15.5t-68 36t-59.5 35.5t-56 15q-63 0 -71 -86q-7 -24 -30 -24
q-29 0 -29 39q0 120 42 182.5t125 62.5q44 0 80.5 -15.5t67.5 -36t59.5 -36t56.5 -15.5q64 0 71 86q7 24 30 24q29 0 29 -39q0 -119 -42 -181.5t-126 -62.5z" />
    <glyph glyph-name="Odieresis" unicode="&#xd6;" horiz-adv-x="1546" 
d="M764 1429q166 0 298.5 -52.5t227 -150t145 -231.5t50.5 -296q0 -159 -49.5 -292.5t-142.5 -231.5t-223 -151.5t-290 -53.5q-164 0 -297 52.5t-227.5 150.5t-145 233.5t-50.5 301.5q0 156 50.5 288t143.5 229t222.5 150.5t287.5 53.5zM1106 450q0 140 -23 272t-63.5 246
t-94 200t-114.5 134.5t-126 48.5q-75 0 -130 -45.5t-84.5 -133.5t-29.5 -216q0 -141 23 -274t63.5 -248t93.5 -201.5t114.5 -135.5t125.5 -49q78 0 133 45t83.5 134.5t28.5 222.5zM571 1480q-72 0 -115 40.5t-43 106.5q0 68 43 108.5t115 40.5t114.5 -40.5t42.5 -108.5
q0 -66 -42.5 -106.5t-114.5 -40.5zM973 1480q-71 0 -114.5 40.5t-43.5 106.5q0 67 43.5 108t114.5 41q74 0 117 -40.5t43 -108.5q0 -66 -43 -106.5t-117 -40.5z" />
    <glyph glyph-name="multiply" unicode="&#xd7;" horiz-adv-x="950" 
d="M144 312q-32 28 1 59l600 678q14 13 30 14t31 -13q17 -14 17.5 -27t-15.5 -29l-600 -679q-15 -13 -31.5 -15t-32.5 12zM808 312q-15 -12 -33.5 -11t-30.5 13l-599 678q-15 15 -14.5 29.5t16.5 27.5q29 27 60 -1l602 -681q13 -12 13 -26.5t-14 -28.5z" />
    <glyph glyph-name="Oslash" unicode="&#xd8;" horiz-adv-x="1546" 
d="M156 -37q-10 7 -11.5 17.5t6.5 20.5l1185 1433q8 10 18.5 11.5t21.5 -6.5q10 -8 12 -17.5t-6 -18.5l-1186 -1435q-8 -11 -18.5 -12t-21.5 7zM764 1429q166 0 298.5 -52.5t227 -150t145 -231.5t50.5 -296q0 -159 -49.5 -292.5t-142.5 -231.5t-223 -151.5t-290 -53.5
q-164 0 -297 52.5t-227.5 150.5t-145 233.5t-50.5 301.5q0 156 50.5 288t143.5 229t222.5 150.5t287.5 53.5zM1106 450q0 140 -23 272t-63.5 246t-94 200t-114.5 134.5t-126 48.5q-75 0 -130 -45.5t-84.5 -133.5t-29.5 -216q0 -141 23 -274t63.5 -248t93.5 -201.5
t114.5 -135.5t125.5 -49q78 0 133 45t83.5 134.5t28.5 222.5z" />
    <glyph glyph-name="Ugrave" unicode="&#xd9;" horiz-adv-x="1437" 
d="M1175 612l-36 564q-4 59 -29 92.5t-78 47.5l-41 10q-22 6 -30.5 15t-8.5 25q0 15 10.5 24.5t30.5 9.5h371q20 0 31 -9.5t11 -24.5q0 -16 -9.5 -24.5t-30.5 -15.5l-38 -10q-57 -16 -83 -52.5t-22 -90.5l37 -555q4 -53 7 -104.5t3 -105.5q1 -124 -52 -223t-166.5 -157.5
t-295.5 -58.5q-196 0 -325 54t-192.5 150t-62.5 224q0 24 2 61.5t5 83.5t6 96l39 630q2 20 -10.5 31.5t-41.5 16.5l-55 10q-41 9 -41 39q0 16 11 25.5t31 9.5h582q21 0 32 -9.5t11 -25.5q0 -15 -9.5 -24t-31.5 -14l-59 -11q-24 -5 -35.5 -16t-13.5 -32l-38 -628
q-5 -71 -6 -130t-1 -101q-1 -184 76.5 -267t208.5 -83q104 0 182 41.5t121 118.5t42 184q0 72 -2.5 119.5t-5.5 89.5zM811 1713l123 -194q7 -10 10 -20t-4 -18t-19.5 -8.5t-22.5 2.5l-207 83q-58 21 -97.5 52.5t-45.5 88.5q-6 39 20.5 77.5t77.5 44.5q50 7 90.5 -22.5
t74.5 -85.5z" />
    <glyph glyph-name="Uacute" unicode="&#xda;" horiz-adv-x="1437" 
d="M1175 612l-36 564q-4 59 -29 92.5t-78 47.5l-41 10q-22 6 -30.5 15t-8.5 25q0 15 10.5 24.5t30.5 9.5h371q20 0 31 -9.5t11 -24.5q0 -16 -9.5 -24.5t-30.5 -15.5l-38 -10q-57 -16 -83 -52.5t-22 -90.5l37 -555q4 -53 7 -104.5t3 -105.5q1 -124 -52 -223t-166.5 -157.5
t-295.5 -58.5q-196 0 -325 54t-192.5 150t-62.5 224q0 24 2 61.5t5 83.5t6 96l39 630q2 20 -10.5 31.5t-41.5 16.5l-55 10q-41 9 -41 39q0 16 11 25.5t31 9.5h582q21 0 32 -9.5t11 -25.5q0 -15 -9.5 -24t-31.5 -14l-59 -11q-24 -5 -35.5 -16t-13.5 -32l-38 -628
q-5 -71 -6 -130t-1 -101q-1 -184 76.5 -267t208.5 -83q104 0 182 41.5t121 118.5t42 184q0 72 -2.5 119.5t-5.5 89.5zM893 1713q34 56 74.5 85.5t90.5 22.5q51 -6 77.5 -44.5t20.5 -77.5q-6 -57 -45.5 -88.5t-97.5 -52.5l-207 -83q-10 -3 -22.5 -2.5t-18.5 8.5q-7 8 -4.5 18
t9.5 20z" />
    <glyph glyph-name="Ucircumflex" unicode="&#xdb;" horiz-adv-x="1437" 
d="M1175 612l-36 564q-4 59 -29 92.5t-78 47.5l-41 10q-22 6 -30.5 15t-8.5 25q0 15 10.5 24.5t30.5 9.5h371q20 0 31 -9.5t11 -24.5q0 -16 -9.5 -24.5t-30.5 -15.5l-38 -10q-57 -16 -83 -52.5t-22 -90.5l37 -555q4 -53 7 -104.5t3 -105.5q1 -124 -52 -223t-166.5 -157.5
t-295.5 -58.5q-196 0 -325 54t-192.5 150t-62.5 224q0 24 2 61.5t5 83.5t6 96l39 630q2 20 -10.5 31.5t-41.5 16.5l-55 10q-41 9 -41 39q0 16 11 25.5t31 9.5h582q21 0 32 -9.5t11 -25.5q0 -15 -9.5 -24t-31.5 -14l-59 -11q-24 -5 -35.5 -16t-13.5 -32l-38 -628
q-5 -71 -6 -130t-1 -101q-1 -184 76.5 -267t208.5 -83q104 0 182 41.5t121 118.5t42 184q0 72 -2.5 119.5t-5.5 89.5zM898 1640h-154l323 -156q34 -19 53 -3q8 6 8.5 18t-12.5 26l-225 243q-18 19 -32.5 29.5t-37.5 10.5q-22 0 -36.5 -10.5t-33.5 -29.5l-225 -243
q-13 -14 -12 -26t9 -18q18 -16 52 3z" />
    <glyph glyph-name="Udieresis" unicode="&#xdc;" horiz-adv-x="1437" 
d="M1175 612l-36 564q-4 59 -29 92.5t-78 47.5l-41 10q-22 6 -30.5 15t-8.5 25q0 15 10.5 24.5t30.5 9.5h371q20 0 31 -9.5t11 -24.5q0 -16 -9.5 -24.5t-30.5 -15.5l-38 -10q-57 -16 -83 -52.5t-22 -90.5l37 -555q4 -53 7 -104.5t3 -105.5q1 -124 -52 -223t-166.5 -157.5
t-295.5 -58.5q-196 0 -325 54t-192.5 150t-62.5 224q0 24 2 61.5t5 83.5t6 96l39 630q2 20 -10.5 31.5t-41.5 16.5l-55 10q-41 9 -41 39q0 16 11 25.5t31 9.5h582q21 0 32 -9.5t11 -25.5q0 -15 -9.5 -24t-31.5 -14l-59 -11q-24 -5 -35.5 -16t-13.5 -32l-38 -628
q-5 -71 -6 -130t-1 -101q-1 -184 76.5 -267t208.5 -83q104 0 182 41.5t121 118.5t42 184q0 72 -2.5 119.5t-5.5 89.5zM619 1480q-72 0 -115 40.5t-43 106.5q0 68 43 108.5t115 40.5t114.5 -40.5t42.5 -108.5q0 -66 -42.5 -106.5t-114.5 -40.5zM1021 1480q-71 0 -114.5 40.5
t-43.5 106.5q0 67 43.5 108t114.5 41q74 0 117 -40.5t43 -108.5q0 -66 -43 -106.5t-117 -40.5z" />
    <glyph glyph-name="Yacute" unicode="&#xdd;" horiz-adv-x="1333" 
d="M848 466l-323 -44l-385 843q-13 28 -26 39.5t-33 17.5l-30 8q-16 6 -23 15t-7 21q0 16 11 25t34 9h535q23 0 34 -9t11 -25q0 -29 -34 -38l-50 -9q-29 -7 -34 -19.5t6 -39.5l310 -726l-77 -42l290 675q21 50 3.5 92.5t-77.5 61.5l-33 9q-12 5 -19.5 13.5t-7.5 22.5
q0 16 11 25t33 9h312q23 0 33.5 -9t10.5 -25q0 -12 -6 -20.5t-20 -14.5l-18 -8q-26 -9 -48 -28.5t-42.5 -51.5t-42.5 -84zM496 510l371 5v-384q0 -18 12 -29.5t35 -17.5l57 -12q32 -10 32 -38q0 -15 -11 -24.5t-34 -9.5h-554q-22 0 -33 9.5t-11 24.5q0 28 32 38l57 12
q24 6 35.5 17.5t11.5 29.5v379zM851 1713q34 56 74.5 85.5t90.5 22.5q51 -6 77.5 -44.5t20.5 -77.5q-6 -57 -45.5 -88.5t-97.5 -52.5l-207 -83q-10 -3 -22.5 -2.5t-18.5 8.5q-7 8 -4.5 18t9.5 20z" />
    <glyph glyph-name="Thorn" unicode="&#xde;" horiz-adv-x="1398" 
d="M430 1060v66h365q162 0 286 -51t194 -144.5t70 -223.5q0 -132 -67 -223.5t-188.5 -139.5t-285.5 -48q-87 0 -150.5 12.5t-112.5 34t-93 50.5l10 57q42 -28 81 -46t81.5 -27t93.5 -9q113 0 178.5 79t65.5 261q0 165 -78.5 258.5t-228.5 93.5h-221zM585 131q0 -20 13 -30
t34 -17l57 -15q15 -8 23.5 -15.5t8.5 -21.5t-11 -23t-34 -9h-550q-22 0 -33 9.5t-11 24.5q0 26 32 38l57 12q23 6 35 16.5t12 30.5v1138q0 20 -12 30.5t-35 16.5l-57 12q-32 12 -32 38q0 16 11 25t33 9h550q23 0 34 -8.5t11 -23.5q0 -13 -8.5 -21t-23.5 -16l-57 -15
q-21 -7 -34 -17t-13 -30v-1138z" />
    <glyph glyph-name="germandbls" unicode="&#xdf;" horiz-adv-x="1370" 
d="M1331 348q0 127 -62.5 221.5t-185 147t-304.5 52.5l-8 -20q150 7 252.5 54.5t155 126.5t52.5 180q0 95 -51.5 171.5t-160.5 121.5t-283 45q-184 0 -305.5 -68t-182 -189t-60.5 -278v-45l67 41h-176q-19 0 -29.5 -7.5t-10.5 -20.5q0 -14 10.5 -23t28.5 -15l76 -21
q14 -4 23 -12.5t9 -28.5v-660q0 -19 -9.5 -30.5t-26.5 -15.5l-56 -13q-31 -8 -31 -34q0 -12 10 -20t28 -8h351q29 0 40.5 14.5t11.5 41.5v911q0 207 58.5 312t163.5 105q82 0 129.5 -67t47.5 -190q0 -92 -21 -163t-70.5 -116t-133.5 -60q-26 -9 -36 -19.5t-10 -23.5
q0 -18 12 -27.5t40 -14.5q100 -8 171 -56t110 -130t39 -195q0 -121 -42.5 -174t-105.5 -53q-50 0 -89 34t-75 126l-24 53q-8 15 -18 24t-27 9q-15 0 -24.5 -11.5t-9.5 -29.5v-278q0 -16 10.5 -27t28.5 -11q12 0 30 12t38 27.5t36.5 27.5t25.5 12q11 0 35.5 -23t71 -45.5
t120.5 -22.5q100 0 178.5 46t123 131t44.5 199z" />
    <glyph glyph-name="agrave" unicode="&#xe0;" horiz-adv-x="1067" 
d="M619 114v17l-21 -5v652q0 54 -26 84.5t-72 30.5t-71.5 -22.5t-25.5 -55.5v-96q0 -66 -46 -106.5t-126 -40.5q-63 0 -98 31t-35 89q0 59 51 118t152 98t250 39q189 0 281.5 -74t92.5 -205v-503q0 -26 11 -39.5t30 -13.5q18 0 30.5 10.5t18.5 28.5q4 6 8 9t10 3
q9 0 13.5 -6.5t4.5 -17.5q0 -30 -24.5 -68t-75.5 -66t-132 -28q-97 0 -148.5 38.5t-51.5 98.5zM53 205q0 123 107.5 196.5t321.5 73.5q58 0 99 -10.5t71 -27.5l-19 -44q-28 15 -55.5 22t-61.5 7q-63 0 -98.5 -42.5t-35.5 -122.5q0 -79 33.5 -118.5t86.5 -39.5q38 0 73 19
t57 50l18 -41q-47 -72 -132 -111t-182 -39q-126 0 -204.5 64t-78.5 164zM540 1276l82 -219q6 -11 8 -20.5t-7 -18.5q-7 -7 -19.5 -7t-23.5 5l-191 127q-52 31 -84 67t-35 87q-4 40 24 77.5t85 41.5q58 5 96 -33t65 -107z" />
    <glyph glyph-name="aacute" unicode="&#xe1;" horiz-adv-x="1067" 
d="M619 114v17l-21 -5v652q0 54 -26 84.5t-72 30.5t-71.5 -22.5t-25.5 -55.5v-96q0 -66 -46 -106.5t-126 -40.5q-63 0 -98 31t-35 89q0 59 51 118t152 98t250 39q189 0 281.5 -74t92.5 -205v-503q0 -26 11 -39.5t30 -13.5q18 0 30.5 10.5t18.5 28.5q4 6 8 9t10 3
q9 0 13.5 -6.5t4.5 -17.5q0 -30 -24.5 -68t-75.5 -66t-132 -28q-97 0 -148.5 38.5t-51.5 98.5zM53 205q0 123 107.5 196.5t321.5 73.5q58 0 99 -10.5t71 -27.5l-19 -44q-28 15 -55.5 22t-61.5 7q-63 0 -98.5 -42.5t-35.5 -122.5q0 -79 33.5 -118.5t86.5 -39.5q38 0 73 19
t57 50l18 -41q-47 -72 -132 -111t-182 -39q-126 0 -204.5 64t-78.5 164zM583 1276q27 69 65 107t96 33q57 -4 85 -41.5t24 -77.5q-4 -51 -35.5 -87t-84.5 -67l-190 -127q-11 -5 -23 -5t-20 7q-8 9 -6.5 18.5t7.5 20.5z" />
    <glyph glyph-name="acircumflex" unicode="&#xe2;" horiz-adv-x="1067" 
d="M619 114v17l-21 -5v652q0 54 -26 84.5t-72 30.5t-71.5 -22.5t-25.5 -55.5v-96q0 -66 -46 -106.5t-126 -40.5q-63 0 -98 31t-35 89q0 59 51 118t152 98t250 39q189 0 281.5 -74t92.5 -205v-503q0 -26 11 -39.5t30 -13.5q18 0 30.5 10.5t18.5 28.5q4 6 8 9t10 3
q9 0 13.5 -6.5t4.5 -17.5q0 -30 -24.5 -68t-75.5 -66t-132 -28q-97 0 -148.5 38.5t-51.5 98.5zM53 205q0 123 107.5 196.5t321.5 73.5q58 0 99 -10.5t71 -27.5l-19 -44q-28 15 -55.5 22t-61.5 7q-63 0 -98.5 -42.5t-35.5 -122.5q0 -79 33.5 -118.5t86.5 -39.5q38 0 73 19
t57 50l18 -41q-47 -72 -132 -111t-182 -39q-126 0 -204.5 64t-78.5 164zM617 1216h-156l327 -206q15 -10 30 -10t23 7t8.5 19t-12.5 26l-228 287q-17 20 -32 30.5t-38 10.5q-22 0 -38 -10.5t-33 -30.5l-228 -287q-12 -14 -11.5 -26t7.5 -19q10 -7 24.5 -7t29.5 10z" />
    <glyph glyph-name="atilde" unicode="&#xe3;" horiz-adv-x="1067" 
d="M619 114v17l-21 -5v652q0 54 -26 84.5t-72 30.5t-71.5 -22.5t-25.5 -55.5v-96q0 -66 -46 -106.5t-126 -40.5q-63 0 -98 31t-35 89q0 59 51 118t152 98t250 39q189 0 281.5 -74t92.5 -205v-503q0 -26 11 -39.5t30 -13.5q18 0 30.5 10.5t18.5 28.5q4 6 8 9t10 3
q9 0 13.5 -6.5t4.5 -17.5q0 -30 -24.5 -68t-75.5 -66t-132 -28q-97 0 -148.5 38.5t-51.5 98.5zM53 205q0 123 107.5 196.5t321.5 73.5q58 0 99 -10.5t71 -27.5l-19 -44q-28 15 -55.5 22t-61.5 7q-63 0 -98.5 -42.5t-35.5 -122.5q0 -79 33.5 -118.5t86.5 -39.5q38 0 73 19
t57 50l18 -41q-47 -72 -132 -111t-182 -39q-126 0 -204.5 64t-78.5 164zM653 1021q-43 0 -80 18.5t-68.5 43.5t-60.5 44t-57 19q-33 0 -50 -26t-23 -80q-6 -24 -29 -24q-30 0 -30 40q0 130 42.5 198t127.5 68q44 0 80.5 -19t68 -43.5t60.5 -43.5t57 -19q34 0 51 26t22 80
q6 24 30 24q29 0 29 -40q0 -130 -42.5 -198t-127.5 -68z" />
    <glyph glyph-name="adieresis" unicode="&#xe4;" horiz-adv-x="1067" 
d="M619 114v17l-21 -5v652q0 54 -26 84.5t-72 30.5t-71.5 -22.5t-25.5 -55.5v-96q0 -66 -46 -106.5t-126 -40.5q-63 0 -98 31t-35 89q0 59 51 118t152 98t250 39q189 0 281.5 -74t92.5 -205v-503q0 -26 11 -39.5t30 -13.5q18 0 30.5 10.5t18.5 28.5q4 6 8 9t10 3
q9 0 13.5 -6.5t4.5 -17.5q0 -30 -24.5 -68t-75.5 -66t-132 -28q-97 0 -148.5 38.5t-51.5 98.5zM53 205q0 123 107.5 196.5t321.5 73.5q58 0 99 -10.5t71 -27.5l-19 -44q-28 15 -55.5 22t-61.5 7q-63 0 -98.5 -42.5t-35.5 -122.5q0 -79 33.5 -118.5t86.5 -39.5q38 0 73 19
t57 50l18 -41q-47 -72 -132 -111t-182 -39q-126 0 -204.5 64t-78.5 164zM339 1016q-70 0 -112.5 41t-42.5 108q0 69 42.5 110t112.5 41q71 0 113 -41t42 -110q0 -67 -42 -108t-113 -41zM737 1016q-70 0 -113 41t-43 108q0 68 43 109.5t113 41.5q71 0 113.5 -41t42.5 -110
q0 -67 -42.5 -108t-113.5 -41z" />
    <glyph glyph-name="aring" unicode="&#xe5;" horiz-adv-x="1067" 
d="M619 114v17l-21 -5v652q0 54 -26 84.5t-72 30.5t-71.5 -22.5t-25.5 -55.5v-96q0 -66 -46 -106.5t-126 -40.5q-63 0 -98 31t-35 89q0 59 51 118t152 98t250 39q189 0 281.5 -74t92.5 -205v-503q0 -26 11 -39.5t30 -13.5q18 0 30.5 10.5t18.5 28.5q4 6 8 9t10 3
q9 0 13.5 -6.5t4.5 -17.5q0 -30 -24.5 -68t-75.5 -66t-132 -28q-97 0 -148.5 38.5t-51.5 98.5zM53 205q0 123 107.5 196.5t321.5 73.5q58 0 99 -10.5t71 -27.5l-19 -44q-28 15 -55.5 22t-61.5 7q-63 0 -98.5 -42.5t-35.5 -122.5q0 -79 33.5 -118.5t86.5 -39.5q38 0 73 19
t57 50l18 -41q-47 -72 -132 -111t-182 -39q-126 0 -204.5 64t-78.5 164zM538 1004q-96 0 -162 50t-66 140t66 139.5t162 49.5q99 0 164 -51t65 -138q0 -88 -65 -139t-164 -51zM539 1326q-35 0 -58.5 -32.5t-23.5 -99.5q0 -66 23.5 -99.5t58.5 -33.5q37 0 59 34t22 99
q0 66 -22 99t-59 33z" />
    <glyph glyph-name="ae" unicode="&#xe6;" horiz-adv-x="1569" 
d="M632 397q-29 15 -57.5 21.5t-63.5 6.5q-61 0 -95.5 -43t-34.5 -124t35.5 -122t90.5 -41q50 0 95 28.5t78 76.5l38 -40q-53 -87 -150 -134.5t-215 -47.5q-136 0 -216.5 64t-80.5 167q0 122 107.5 194t321.5 72q57 0 96.5 -10t69.5 -27zM1518 550q0 -33 -21 -51t-62 -18
h-583v53h306q37 0 37 36q0 157 -40 230.5t-99 73.5q-46 0 -80.5 -31.5t-53.5 -100t-19 -178.5q0 -199 85 -295t226 -96q94 0 162.5 47.5t86.5 127.5q18 18 30 17q9 0 15.5 -6t6.5 -20q-3 -100 -58.5 -182t-152 -131t-221.5 -49q-150 0 -259 58.5t-167.5 162.5t-58.5 240v338
q0 54 -26 84t-72 30t-72 -23.5t-26 -58.5v-84q0 -64 -46 -106.5t-124 -42.5q-60 0 -94 30.5t-34 88.5q0 59 49 117t145.5 96.5t236.5 38.5q114 0 189.5 -41t106.5 -119l-83 -10q53 76 144 123t200 47q133 0 228 -52t146.5 -142t51.5 -202z" />
    <glyph glyph-name="ccedilla" unicode="&#xe7;" horiz-adv-x="985" 
d="M938 675q0 -65 -43 -107.5t-117 -42.5q-72 0 -111 41t-39 112v57q0 65 -31 101.5t-83 36.5q-48 0 -86 -35t-59.5 -101.5t-21.5 -161.5q0 -125 38.5 -210.5t106 -129.5t154.5 -44q82 0 141.5 30.5t92.5 95.5q13 15 21 20t16 5q11 -1 16 -11.5t5 -25.5
q-10 -95 -65.5 -169.5t-147.5 -116.5t-211 -42q-135 0 -240.5 55t-166.5 158.5t-61 248.5q0 146 63 261t175.5 181.5t263.5 66.5q124 0 211 -36.5t133 -98.5t46 -138zM482 9h57l-83 -138l-34 11q18 2 37.5 3.5t51.5 1.5q100 0 153 -41t53 -110q0 -75 -58.5 -120t-164.5 -45
q-86 0 -139 29t-66 68q-2 13 5 21t17 9q10 2 18 -2.5t16 -10.5q20 -27 46.5 -40t57.5 -13q80 0 80 108q0 46 -23.5 71.5t-69.5 25.5h-21q-16 0 -20 10t3 23z" />
    <glyph glyph-name="egrave" unicode="&#xe8;" horiz-adv-x="1011" 
d="M965 557q0 -38 -21.5 -59t-61.5 -21h-616v58h336q37 0 37 36q0 157 -40.5 230t-99.5 73q-45 0 -80.5 -32.5t-55.5 -100.5t-20 -174q0 -196 85.5 -290.5t228.5 -94.5q91 0 156 39.5t91 113.5q12 15 20 20t15 5q11 0 16.5 -10.5t5.5 -26.5q-2 -95 -58.5 -174t-153.5 -125.5
t-222 -46.5q-140 0 -249 58t-171 163t-62 244q0 153 59.5 266.5t171 176.5t265.5 63q134 0 229 -51t145 -139t50 -201zM519 1276l82 -219q6 -11 8 -20.5t-7 -18.5q-7 -7 -19.5 -7t-23.5 5l-191 127q-52 31 -84 67t-35 87q-4 40 24 77.5t85 41.5q58 5 96 -33t65 -107z" />
    <glyph glyph-name="eacute" unicode="&#xe9;" horiz-adv-x="1011" 
d="M965 557q0 -38 -21.5 -59t-61.5 -21h-616v58h336q37 0 37 36q0 157 -40.5 230t-99.5 73q-45 0 -80.5 -32.5t-55.5 -100.5t-20 -174q0 -196 85.5 -290.5t228.5 -94.5q91 0 156 39.5t91 113.5q12 15 20 20t15 5q11 0 16.5 -10.5t5.5 -26.5q-2 -95 -58.5 -174t-153.5 -125.5
t-222 -46.5q-140 0 -249 58t-171 163t-62 244q0 153 59.5 266.5t171 176.5t265.5 63q134 0 229 -51t145 -139t50 -201zM563 1276q27 69 65 107t96 33q57 -4 85 -41.5t24 -77.5q-4 -51 -35.5 -87t-84.5 -67l-190 -127q-11 -5 -23 -5t-20 7q-8 9 -6.5 18.5t7.5 20.5z" />
    <glyph glyph-name="ecircumflex" unicode="&#xea;" horiz-adv-x="1011" 
d="M965 557q0 -38 -21.5 -59t-61.5 -21h-616v58h336q37 0 37 36q0 157 -40.5 230t-99.5 73q-45 0 -80.5 -32.5t-55.5 -100.5t-20 -174q0 -196 85.5 -290.5t228.5 -94.5q91 0 156 39.5t91 113.5q12 15 20 20t15 5q11 0 16.5 -10.5t5.5 -26.5q-2 -95 -58.5 -174t-153.5 -125.5
t-222 -46.5q-140 0 -249 58t-171 163t-62 244q0 153 59.5 266.5t171 176.5t265.5 63q134 0 229 -51t145 -139t50 -201zM597 1216h-156l327 -206q15 -10 30 -10t23 7t8.5 19t-12.5 26l-228 287q-17 20 -32 30.5t-38 10.5q-22 0 -38 -10.5t-33 -30.5l-228 -287
q-12 -14 -11.5 -26t7.5 -19q10 -7 24.5 -7t29.5 10z" />
    <glyph glyph-name="edieresis" unicode="&#xeb;" horiz-adv-x="1011" 
d="M965 557q0 -38 -21.5 -59t-61.5 -21h-616v58h336q37 0 37 36q0 157 -40.5 230t-99.5 73q-45 0 -80.5 -32.5t-55.5 -100.5t-20 -174q0 -196 85.5 -290.5t228.5 -94.5q91 0 156 39.5t91 113.5q12 15 20 20t15 5q11 0 16.5 -10.5t5.5 -26.5q-2 -95 -58.5 -174t-153.5 -125.5
t-222 -46.5q-140 0 -249 58t-171 163t-62 244q0 153 59.5 266.5t171 176.5t265.5 63q134 0 229 -51t145 -139t50 -201zM320 1016q-70 0 -112.5 41t-42.5 108q0 69 42.5 110t112.5 41q71 0 113 -41t42 -110q0 -67 -42 -108t-113 -41zM718 1016q-70 0 -113 41t-43 108
q0 68 43 109.5t113 41.5q71 0 113.5 -41t42.5 -110q0 -67 -42.5 -108t-113.5 -41z" />
    <glyph glyph-name="igrave" unicode="&#xec;" horiz-adv-x="594" 
d="M470 910v-783q0 -25 7 -37t22 -18l36 -10q14 -5 20 -12.5t6 -19.5q0 -14 -10 -22t-28 -8h-432q-18 0 -28 8t-10 22q0 11 6.5 19t18.5 13l38 10q15 6 21.5 18t6.5 37v617q0 18 -6 26t-19 11l-44 2q-12 4 -18.5 10.5t-6.5 17.5q0 12 8.5 19.5t25.5 13.5l282 87
q25 8 38.5 11.5t29.5 3.5q17 0 26.5 -10t9.5 -26zM297 1276l82 -219q6 -11 8 -20.5t-7 -18.5q-7 -7 -19.5 -7t-23.5 5l-191 127q-52 31 -84 67t-35 87q-4 40 24 77.5t85 41.5q58 5 96 -33t65 -107z" />
    <glyph glyph-name="iacute" unicode="&#xed;" horiz-adv-x="594" 
d="M470 910v-783q0 -25 7 -37t22 -18l36 -10q14 -5 20 -12.5t6 -19.5q0 -14 -10 -22t-28 -8h-432q-18 0 -28 8t-10 22q0 11 6.5 19t18.5 13l38 10q15 6 21.5 18t6.5 37v617q0 18 -6 26t-19 11l-44 2q-12 4 -18.5 10.5t-6.5 17.5q0 12 8.5 19.5t25.5 13.5l282 87
q25 8 38.5 11.5t29.5 3.5q17 0 26.5 -10t9.5 -26zM343 1276q27 69 65 107t96 33q57 -4 85 -41.5t24 -77.5q-4 -51 -35.5 -87t-84.5 -67l-190 -127q-11 -5 -23 -5t-20 7q-8 9 -6.5 18.5t7.5 20.5z" />
    <glyph glyph-name="icircumflex" unicode="&#xee;" horiz-adv-x="594" 
d="M470 910v-783q0 -25 7 -37t22 -18l36 -10q14 -5 20 -12.5t6 -19.5q0 -14 -10 -22t-28 -8h-432q-18 0 -28 8t-10 22q0 11 6.5 19t18.5 13l38 10q15 6 21.5 18t6.5 37v617q0 18 -6 26t-19 11l-44 2q-12 4 -18.5 10.5t-6.5 17.5q0 12 8.5 19.5t25.5 13.5l282 87
q25 8 38.5 11.5t29.5 3.5q17 0 26.5 -10t9.5 -26zM367.711 1216h-140.404l294.309 -206q13.5 -10 27 -10q13.501 0 20.7012 7t7.65039 19q0.449219 12 -11.251 26l-205.205 287q-15.3008 20 -28.8008 30.5q-13.501 10.5 -34.2012 10.5q-19.8008 0 -34.2012 -10.5
t-29.7002 -30.5l-205.206 -287q-10.7998 -14 -10.3496 -26q0.449219 -12 6.75 -19q9 -7 22.0508 -7q13.0498 0 26.5498 10z" />
    <glyph glyph-name="idieresis" unicode="&#xef;" horiz-adv-x="594" 
d="M470 910v-783q0 -25 7 -37t22 -18l36 -10q14 -5 20 -12.5t6 -19.5q0 -14 -10 -22t-28 -8h-432q-18 0 -28 8t-10 22q0 11 6.5 19t18.5 13l38 10q15 6 21.5 18t6.5 37v617q0 18 -6 26t-19 11l-44 2q-12 4 -18.5 10.5t-6.5 17.5q0 12 8.5 19.5t25.5 13.5l282 87
q25 8 38.5 11.5t29.5 3.5q17 0 26.5 -10t9.5 -26zM132.197 1016q-55.999 0 -89.998 41q-34 41 -34 108q0 69 34 110q33.999 41 89.998 41q56.7988 0 90.3984 -41t33.5996 -110q0 -67 -33.5996 -108t-90.3984 -41zM450.593 1016q-55.999 0 -90.3984 41t-34.3994 108
q0 68 34.3994 109.5t90.3984 41.5q56.7988 0 90.7988 -41q33.999 -41 33.999 -110q0 -67 -33.999 -108q-34 -41 -90.7988 -41z" />
    <glyph glyph-name="eth" unicode="&#xf0;" 
d="M1079 564q0 -191 -66 -322.5t-183 -199t-270 -67.5q-157 0 -272 63.5t-176.5 178t-61.5 266.5q0 132 56.5 237.5t155.5 167t227 61.5q66 0 119 -22t88 -68t47 -118l-21 7q-29 160 -93 293.5t-149.5 229t-179.5 139.5q-28 13 -39 25.5t-10 27.5q1 17 18 27.5t52 5.5
q155 -27 292 -111.5t242 -210.5t164.5 -282.5t59.5 -327.5zM395 520q7 -134 39 -234t81 -154.5t105 -52.5q45 2 76.5 41t46 117.5t7.5 196.5q-7 143 -39 233t-79 133t-100 43q-50 0 -83.5 -33.5t-47.5 -104.5t-6 -185zM263 1111q-7 16 -3 29t21 21l571 286q20 9 33 4t20 -19
q17 -34 -21 -51l-571 -286q-17 -8 -30 -2.5t-20 18.5z" />
    <glyph glyph-name="ntilde" unicode="&#xf1;" horiz-adv-x="1213" 
d="M472 899v-772q0 -26 6.5 -38t21.5 -17l37 -10q22 -10 22 -30q0 -32 -40 -32h-429q-20 0 -29.5 8t-9.5 23q0 10 6 18t20 13l39 10q15 5 21 17t6 38v614q0 18 -6 26.5t-19 10.5l-44 3q-13 3 -18.5 10t-5.5 18q0 13 7 20t26 14l263 84q29 11 45.5 15.5t32.5 4.5
q24 0 36 -13.5t12 -34.5zM443 676l-34 35l36 33q119 107 206 155.5t161 48.5q110 0 171.5 -71.5t74.5 -200.5l60 -547q3 -27 9 -40t21 -18l36 -9q14 -5 20 -13t6 -18q0 -15 -9 -23t-30 -8h-435q-41 0 -41 32q0 20 23 30l37 10q17 5 24.5 18t4.5 39l-51 505q-8 71 -34 105.5
t-79 34.5q-34 0 -69 -17t-71 -49zM735 1021q-43 0 -80 18.5t-68.5 43.5t-60.5 44t-57 19q-33 0 -50 -26t-23 -80q-6 -24 -29 -24q-30 0 -30 40q0 130 42.5 198t127.5 68q44 0 80.5 -19t68 -43.5t60.5 -43.5t57 -19q34 0 51 26t22 80q6 24 30 24q29 0 29 -40
q0 -130 -42.5 -198t-127.5 -68z" />
    <glyph glyph-name="ograve" unicode="&#xf2;" 
d="M570 947q151 0 265.5 -61.5t179 -172t64.5 -254.5q0 -139 -67 -248t-184 -171.5t-271 -62.5q-151 0 -265.5 61.5t-178.5 171t-64 252.5q0 140 67 249.5t184 172.5t270 63zM634 52q51 8 80.5 58t35 144t-17.5 233q-22 137 -57 225t-80.5 128t-99.5 31q-51 -8 -81 -58.5
t-34.5 -144t18.5 -232.5q22 -136 57 -224t80.5 -128t98.5 -32zM564 1276l82 -219q6 -11 8 -20.5t-7 -18.5q-7 -7 -19.5 -7t-23.5 5l-191 127q-52 31 -84 67t-35 87q-4 40 24 77.5t85 41.5q58 5 96 -33t65 -107z" />
    <glyph glyph-name="oacute" unicode="&#xf3;" 
d="M570 947q151 0 265.5 -61.5t179 -172t64.5 -254.5q0 -139 -67 -248t-184 -171.5t-271 -62.5q-151 0 -265.5 61.5t-178.5 171t-64 252.5q0 140 67 249.5t184 172.5t270 63zM634 52q51 8 80.5 58t35 144t-17.5 233q-22 137 -57 225t-80.5 128t-99.5 31q-51 -8 -81 -58.5
t-34.5 -144t18.5 -232.5q22 -136 57 -224t80.5 -128t98.5 -32zM608 1276q27 69 65 107t96 33q57 -4 85 -41.5t24 -77.5q-4 -51 -35.5 -87t-84.5 -67l-190 -127q-11 -5 -23 -5t-20 7q-8 9 -6.5 18.5t7.5 20.5z" />
    <glyph glyph-name="ocircumflex" unicode="&#xf4;" 
d="M570 947q151 0 265.5 -61.5t179 -172t64.5 -254.5q0 -139 -67 -248t-184 -171.5t-271 -62.5q-151 0 -265.5 61.5t-178.5 171t-64 252.5q0 140 67 249.5t184 172.5t270 63zM634 52q51 8 80.5 58t35 144t-17.5 233q-22 137 -57 225t-80.5 128t-99.5 31q-51 -8 -81 -58.5
t-34.5 -144t18.5 -232.5q22 -136 57 -224t80.5 -128t98.5 -32zM642 1216h-156l327 -206q15 -10 30 -10t23 7t8.5 19t-12.5 26l-228 287q-17 20 -32 30.5t-38 10.5q-22 0 -38 -10.5t-33 -30.5l-228 -287q-12 -14 -11.5 -26t7.5 -19q10 -7 24.5 -7t29.5 10z" />
    <glyph glyph-name="otilde" unicode="&#xf5;" 
d="M570 947q151 0 265.5 -61.5t179 -172t64.5 -254.5q0 -139 -67 -248t-184 -171.5t-271 -62.5q-151 0 -265.5 61.5t-178.5 171t-64 252.5q0 140 67 249.5t184 172.5t270 63zM634 52q51 8 80.5 58t35 144t-17.5 233q-22 137 -57 225t-80.5 128t-99.5 31q-51 -8 -81 -58.5
t-34.5 -144t18.5 -232.5q22 -136 57 -224t80.5 -128t98.5 -32zM678 1021q-43 0 -80 18.5t-68.5 43.5t-60.5 44t-57 19q-33 0 -50 -26t-23 -80q-6 -24 -29 -24q-30 0 -30 40q0 130 42.5 198t127.5 68q44 0 80.5 -19t68 -43.5t60.5 -43.5t57 -19q34 0 51 26t22 80q6 24 30 24
q29 0 29 -40q0 -130 -42.5 -198t-127.5 -68z" />
    <glyph glyph-name="odieresis" unicode="&#xf6;" 
d="M570 947q151 0 265.5 -61.5t179 -172t64.5 -254.5q0 -139 -67 -248t-184 -171.5t-271 -62.5q-151 0 -265.5 61.5t-178.5 171t-64 252.5q0 140 67 249.5t184 172.5t270 63zM634 52q51 8 80.5 58t35 144t-17.5 233q-22 137 -57 225t-80.5 128t-99.5 31q-51 -8 -81 -58.5
t-34.5 -144t18.5 -232.5q22 -136 57 -224t80.5 -128t98.5 -32zM365 1016q-70 0 -112.5 41t-42.5 108q0 69 42.5 110t112.5 41q71 0 113 -41t42 -110q0 -67 -42 -108t-113 -41zM763 1016q-70 0 -113 41t-43 108q0 68 43 109.5t113 41.5q71 0 113.5 -41t42.5 -110
q0 -67 -42.5 -108t-113.5 -41z" />
    <glyph glyph-name="divide" unicode="&#xf7;" horiz-adv-x="1031" 
d="M551.983 976.271q-32.4775 0 -58.6406 15.2188t-41.499 40.1221q-15.3369 24.9033 -15.3369 54.2334q0 29.8838 15.3369 54.2344q15.3359 24.3496 41.499 39.0146t58.6406 14.665t58.9404 -14.665q26.4639 -14.665 41.8008 -39.0146q15.3369 -24.3506 15.3369 -54.2344
q0 -29.3301 -15.3369 -54.2334t-41.5 -40.1221q-26.1621 -15.2188 -59.2412 -15.2188zM109 682q0 19 12 30t29 11h741q16 0 27.5 -11t11.5 -30t-11.5 -30t-27.5 -11h-742q-16 0 -28 11t-12 30zM551.983 229.271q-32.4775 0 -58.6406 15.2188t-41.499 40.1221
q-15.3369 24.9033 -15.3369 54.2334q0 29.8838 15.3369 54.2344q15.3359 24.3496 41.499 39.0146t58.6406 14.665t58.9404 -14.665q26.4639 -14.665 41.8008 -39.0146q15.3369 -24.3506 15.3369 -54.2344q0 -29.3301 -15.3369 -54.2334t-41.5 -40.1221
q-26.1621 -15.2188 -59.2412 -15.2188z" />
    <glyph glyph-name="oslash" unicode="&#xf8;" horiz-adv-x="1120" 
d="M158 -43q-11 6 -13.5 16.5t4.5 20.5l167 220l30 26l395 489l12 22l169 216q8 10 18 12.5t21 -4.5q11 -6 14 -15.5t-5 -19.5l-178 -231l-19 -13l-393 -486l-19 -30l-164 -214q-15 -21 -39 -9zM570 947q151 0 265.5 -61.5t179 -172t64.5 -254.5q0 -139 -67 -248
t-184 -171.5t-271 -62.5q-151 0 -265.5 61.5t-178.5 171t-64 252.5q0 140 67 249.5t184 172.5t270 63zM634 52q51 8 80.5 58t35 144t-17.5 233q-22 137 -57 225t-80.5 128t-99.5 31q-51 -8 -81 -58.5t-34.5 -144t18.5 -232.5q22 -136 57 -224t80.5 -128t98.5 -32z" />
    <glyph glyph-name="ugrave" unicode="&#xf9;" horiz-adv-x="1202" 
d="M741 106v81l-6 4v548q0 19 -6 27.5t-19 10.5l-44 3q-14 3 -19.5 10t-5.5 17q0 13 7.5 20.5t25.5 14.5l264 84q28 10 45 14.5t33 4.5q23 0 35 -13t12 -34v-771q0 -26 6.5 -38t21.5 -17l38 -10q14 -5 20.5 -12.5t6.5 -18.5q0 -15 -9.5 -23t-30.5 -8h-280q-40 0 -67.5 30.5
t-27.5 75.5zM127 258v481q0 19 -6 27.5t-19 10.5l-44 3q-13 3 -19 10t-6 17q0 13 7.5 20.5t26.5 14.5l263 84q30 11 46.5 15t30.5 4q24 0 36.5 -13t12.5 -34v-599q0 -75 34 -111.5t93 -36.5q38 0 78 16.5t78 49.5l37 32l34 -36l-36 -32q-122 -111 -216 -157.5t-174 -46.5
q-114 0 -185.5 73t-71.5 208zM596 1276l82 -219q6 -11 8 -20.5t-7 -18.5q-7 -7 -19.5 -7t-23.5 5l-191 127q-52 31 -84 67t-35 87q-4 40 24 77.5t85 41.5q58 5 96 -33t65 -107z" />
    <glyph glyph-name="uacute" unicode="&#xfa;" horiz-adv-x="1202" 
d="M741 106v81l-6 4v548q0 19 -6 27.5t-19 10.5l-44 3q-14 3 -19.5 10t-5.5 17q0 13 7.5 20.5t25.5 14.5l264 84q28 10 45 14.5t33 4.5q23 0 35 -13t12 -34v-771q0 -26 6.5 -38t21.5 -17l38 -10q14 -5 20.5 -12.5t6.5 -18.5q0 -15 -9.5 -23t-30.5 -8h-280q-40 0 -67.5 30.5
t-27.5 75.5zM127 258v481q0 19 -6 27.5t-19 10.5l-44 3q-13 3 -19 10t-6 17q0 13 7.5 20.5t26.5 14.5l263 84q30 11 46.5 15t30.5 4q24 0 36.5 -13t12.5 -34v-599q0 -75 34 -111.5t93 -36.5q38 0 78 16.5t78 49.5l37 32l34 -36l-36 -32q-122 -111 -216 -157.5t-174 -46.5
q-114 0 -185.5 73t-71.5 208zM641 1276q27 69 65 107t96 33q57 -4 85 -41.5t24 -77.5q-4 -51 -35.5 -87t-84.5 -67l-190 -127q-11 -5 -23 -5t-20 7q-8 9 -6.5 18.5t7.5 20.5z" />
    <glyph glyph-name="ucircumflex" unicode="&#xfb;" horiz-adv-x="1202" 
d="M741 106v81l-6 4v548q0 19 -6 27.5t-19 10.5l-44 3q-14 3 -19.5 10t-5.5 17q0 13 7.5 20.5t25.5 14.5l264 84q28 10 45 14.5t33 4.5q23 0 35 -13t12 -34v-771q0 -26 6.5 -38t21.5 -17l38 -10q14 -5 20.5 -12.5t6.5 -18.5q0 -15 -9.5 -23t-30.5 -8h-280q-40 0 -67.5 30.5
t-27.5 75.5zM127 258v481q0 19 -6 27.5t-19 10.5l-44 3q-13 3 -19 10t-6 17q0 13 7.5 20.5t26.5 14.5l263 84q30 11 46.5 15t30.5 4q24 0 36.5 -13t12.5 -34v-599q0 -75 34 -111.5t93 -36.5q38 0 78 16.5t78 49.5l37 32l34 -36l-36 -32q-122 -111 -216 -157.5t-174 -46.5
q-114 0 -185.5 73t-71.5 208zM676 1216h-156l327 -206q15 -10 30 -10t23 7t8.5 19t-12.5 26l-228 287q-17 20 -32 30.5t-38 10.5q-22 0 -38 -10.5t-33 -30.5l-228 -287q-12 -14 -11.5 -26t7.5 -19q10 -7 24.5 -7t29.5 10z" />
    <glyph glyph-name="udieresis" unicode="&#xfc;" horiz-adv-x="1202" 
d="M741 106v81l-6 4v548q0 19 -6 27.5t-19 10.5l-44 3q-14 3 -19.5 10t-5.5 17q0 13 7.5 20.5t25.5 14.5l264 84q28 10 45 14.5t33 4.5q23 0 35 -13t12 -34v-771q0 -26 6.5 -38t21.5 -17l38 -10q14 -5 20.5 -12.5t6.5 -18.5q0 -15 -9.5 -23t-30.5 -8h-280q-40 0 -67.5 30.5
t-27.5 75.5zM127 258v481q0 19 -6 27.5t-19 10.5l-44 3q-13 3 -19 10t-6 17q0 13 7.5 20.5t26.5 14.5l263 84q30 11 46.5 15t30.5 4q24 0 36.5 -13t12.5 -34v-599q0 -75 34 -111.5t93 -36.5q38 0 78 16.5t78 49.5l37 32l34 -36l-36 -32q-122 -111 -216 -157.5t-174 -46.5
q-114 0 -185.5 73t-71.5 208zM397 1016q-70 0 -112.5 41t-42.5 108q0 69 42.5 110t112.5 41q71 0 113 -41t42 -110q0 -67 -42 -108t-113 -41zM795 1016q-70 0 -113 41t-43 108q0 68 43 109.5t113 41.5q71 0 113.5 -41t42.5 -110q0 -67 -42.5 -108t-113.5 -41z" />
    <glyph glyph-name="yacute" unicode="&#xfd;" horiz-adv-x="1076" 
d="M699 215l-170 -350l-398 884q-22 50 -45.5 76.5t-57.5 35.5q-16 6 -22 13.5t-6 18.5q0 15 10.5 23t28.5 8h496q18 0 28 -8t10 -23q0 -12 -6.5 -19t-22.5 -11l-44 -9q-35 -7 -41.5 -31t15.5 -75zM508 -139l59 146l31 65l255 658q22 56 13 82.5t-50 36.5l-43 12
q-16 4 -23 12t-7 20q0 15 10 23t28 8h265q18 0 28 -8t10 -23q0 -10 -6.5 -17.5t-21.5 -14.5q-48 -14 -74 -39.5t-49 -83.5l-341 -866q-52 -133 -93.5 -210t-91.5 -109.5t-132 -32.5q-111 0 -177 62.5t-66 153.5q0 68 34.5 106t88.5 38q52 0 82 -31t50 -86l16 -44
q11 -33 28 -56t40 -23q21 0 39.5 21.5t41.5 70t56 129.5zM663 1276q27 69 65 107t96 33q57 -4 85 -41.5t24 -77.5q-4 -51 -35.5 -87t-84.5 -67l-190 -127q-11 -5 -23 -5t-20 7q-8 9 -6.5 18.5t7.5 20.5z" />
    <glyph glyph-name="thorn" unicode="&#xfe;" horiz-adv-x="1159" 
d="M437 1479v-1824q0 -26 7 -38t22 -17l42 -10q13 -5 19.5 -12.5t6.5 -18.5q0 -15 -10 -23t-28 -8h-437q-17 0 -27.5 8t-10.5 23q0 10 7 18t20 13l35 10q15 5 22 17t7 38v1658q0 18 -6.5 26t-18.5 11l-45 2q-12 4 -18.5 10.5t-6.5 17.5q0 22 34 33l281 87q25 8 39 11t30 3
q17 0 26.5 -9.5t9.5 -25.5zM398 704l-31 36q70 100 154.5 153t192.5 53q116 0 205 -55.5t139.5 -158t50.5 -241.5q0 -156 -60 -271.5t-164 -179t-235 -63.5q-106 0 -177.5 40.5t-118.5 123.5l50 48q30 -62 73 -91t96 -29q59 0 104.5 37t71 122.5t25.5 229.5q0 135 -24 217.5
t-65.5 120.5t-96.5 38q-52 0 -100.5 -32t-89.5 -98z" />
    <glyph glyph-name="ydieresis" unicode="&#xff;" horiz-adv-x="1076" 
d="M699 215l-170 -350l-398 884q-22 50 -45.5 76.5t-57.5 35.5q-16 6 -22 13.5t-6 18.5q0 15 10.5 23t28.5 8h496q18 0 28 -8t10 -23q0 -12 -6.5 -19t-22.5 -11l-44 -9q-35 -7 -41.5 -31t15.5 -75zM508 -139l59 146l31 65l255 658q22 56 13 82.5t-50 36.5l-43 12
q-16 4 -23 12t-7 20q0 15 10 23t28 8h265q18 0 28 -8t10 -23q0 -10 -6.5 -17.5t-21.5 -14.5q-48 -14 -74 -39.5t-49 -83.5l-341 -866q-52 -133 -93.5 -210t-91.5 -109.5t-132 -32.5q-111 0 -177 62.5t-66 153.5q0 68 34.5 106t88.5 38q52 0 82 -31t50 -86l16 -44
q11 -33 28 -56t40 -23q21 0 39.5 21.5t41.5 70t56 129.5zM419 1016q-70 0 -112.5 41t-42.5 108q0 69 42.5 110t112.5 41q71 0 113 -41t42 -110q0 -67 -42 -108t-113 -41zM817 1016q-70 0 -113 41t-43 108q0 68 43 109.5t113 41.5q71 0 113.5 -41t42.5 -110q0 -67 -42.5 -108
t-113.5 -41z" />
    <glyph glyph-name="Amacron" unicode="&#x100;" horiz-adv-x="1420" 
d="M313 562h546l3 -79h-554zM427 34q0 -15 -10.5 -24.5t-32.5 -9.5h-333q-22 0 -33 9.5t-11 24.5q0 12 7 20t21 15l27 11q34 16 61.5 49.5t49.5 107.5l295 969q15 50 6.5 76t-41.5 41q-21 12 -30 21t-9 22q0 17 11 25.5t33 8.5h519q23 0 33.5 -8.5t10.5 -25.5
q0 -14 -9 -23.5t-29 -17.5q-22 -8 -27 -22.5t6 -49.5l348 -1087q13 -42 29 -62.5t41 -28.5q21 -9 28.5 -17.5t7.5 -23.5t-11 -24.5t-34 -9.5h-495q-23 0 -34 9.5t-11 24.5q0 14 8 21.5t24 13.5l43 11q26 9 27.5 25.5t-9.5 52.5l-346 1101l33 45l-321 -1058
q-14 -45 -7.5 -76.5t32 -53t68.5 -37.5l34 -11q14 -6 22 -13.5t8 -20.5zM409 1605q0 37 12.5 52t38.5 15h478q27 0 39 -14.5t12 -51.5q0 -36 -12 -51t-39 -15h-478q-26 0 -38.5 15t-12.5 50z" />
    <glyph glyph-name="amacron" unicode="&#x101;" horiz-adv-x="1067" 
d="M619 114v17l-21 -5v652q0 54 -26 84.5t-72 30.5t-71.5 -22.5t-25.5 -55.5v-96q0 -66 -46 -106.5t-126 -40.5q-63 0 -98 31t-35 89q0 59 51 118t152 98t250 39q189 0 281.5 -74t92.5 -205v-503q0 -26 11 -39.5t30 -13.5q18 0 30.5 10.5t18.5 28.5q4 6 8 9t10 3
q9 0 13.5 -6.5t4.5 -17.5q0 -30 -24.5 -68t-75.5 -66t-132 -28q-97 0 -148.5 38.5t-51.5 98.5zM53 205q0 123 107.5 196.5t321.5 73.5q58 0 99 -10.5t71 -27.5l-19 -44q-28 15 -55.5 22t-61.5 7q-63 0 -98.5 -42.5t-35.5 -122.5q0 -79 33.5 -118.5t86.5 -39.5q38 0 73 19
t57 50l18 -41q-47 -72 -132 -111t-182 -39q-126 0 -204.5 64t-78.5 164zM245 1144q0 37 12.5 52t38.5 15h485q27 0 39.5 -14t12.5 -52q0 -37 -12.5 -52.5t-39.5 -15.5h-485q-26 0 -38.5 15.5t-12.5 51.5z" />
    <glyph glyph-name="Abreve" unicode="&#x102;" horiz-adv-x="1420" 
d="M313 562h546l3 -79h-554zM427 34q0 -15 -10.5 -24.5t-32.5 -9.5h-333q-22 0 -33 9.5t-11 24.5q0 12 7 20t21 15l27 11q34 16 61.5 49.5t49.5 107.5l295 969q15 50 6.5 76t-41.5 41q-21 12 -30 21t-9 22q0 17 11 25.5t33 8.5h519q23 0 33.5 -8.5t10.5 -25.5
q0 -14 -9 -23.5t-29 -17.5q-22 -8 -27 -22.5t6 -49.5l348 -1087q13 -42 29 -62.5t41 -28.5q21 -9 28.5 -17.5t7.5 -23.5t-11 -24.5t-34 -9.5h-495q-23 0 -34 9.5t-11 24.5q0 14 8 21.5t24 13.5l43 11q26 9 27.5 25.5t-9.5 52.5l-346 1101l33 45l-321 -1058
q-14 -45 -7.5 -76.5t32 -53t68.5 -37.5l34 -11q14 -6 22 -13.5t8 -20.5zM701 1651q75 0 125.5 27t83.5 86q8 11 15.5 16.5t16.5 5.5q15 0 22.5 -11t5.5 -30q-10 -132 -84 -201.5t-185 -69.5q-110 0 -184.5 69.5t-84.5 201.5q-2 19 6 30t22 11q10 0 17.5 -5.5t15.5 -16.5
q34 -62 86.5 -87.5t121.5 -25.5z" />
    <glyph glyph-name="abreve" unicode="&#x103;" horiz-adv-x="1067" 
d="M619 114v17l-21 -5v652q0 54 -26 84.5t-72 30.5t-71.5 -22.5t-25.5 -55.5v-96q0 -66 -46 -106.5t-126 -40.5q-63 0 -98 31t-35 89q0 59 51 118t152 98t250 39q189 0 281.5 -74t92.5 -205v-503q0 -26 11 -39.5t30 -13.5q18 0 30.5 10.5t18.5 28.5q4 6 8 9t10 3
q9 0 13.5 -6.5t4.5 -17.5q0 -30 -24.5 -68t-75.5 -66t-132 -28q-97 0 -148.5 38.5t-51.5 98.5zM53 205q0 123 107.5 196.5t321.5 73.5q58 0 99 -10.5t71 -27.5l-19 -44q-28 15 -55.5 22t-61.5 7q-63 0 -98.5 -42.5t-35.5 -122.5q0 -79 33.5 -118.5t86.5 -39.5q38 0 73 19
t57 50l18 -41q-47 -72 -132 -111t-182 -39q-126 0 -204.5 64t-78.5 164zM538 1198q76 0 125.5 32.5t86.5 97.5q14 22 32 22q15 0 23 -11t6 -30q-11 -147 -86.5 -222t-186.5 -75q-108 0 -184 75t-88 222q-2 19 6 30t23 11q19 0 33 -22q38 -69 89.5 -99.5t120.5 -30.5z" />
    <glyph glyph-name="Aogonek" unicode="&#x104;" horiz-adv-x="1420" 
d="M1156 37l16 -29q-82 -44 -120.5 -98.5t-38.5 -132.5q0 -67 26 -98t65 -31q30 0 54 15.5t41 38.5q8 9 15.5 12.5t16.5 0.5q10 -3 14.5 -14t-4.5 -28q-20 -45 -76.5 -77t-140.5 -32q-115 0 -177 46t-62 130q0 60 35.5 111t116.5 97t219 89zM313 562h546l3 -79h-554zM427 34
q0 -15 -10.5 -24.5t-32.5 -9.5h-333q-22 0 -33 9.5t-11 24.5q0 12 7 20t21 15l27 11q34 16 61.5 49.5t49.5 107.5l295 969q15 50 6.5 76t-41.5 41q-21 12 -30 21t-9 22q0 17 11 25.5t33 8.5h519q23 0 33.5 -8.5t10.5 -25.5q0 -14 -9 -23.5t-29 -17.5q-22 -8 -27 -22.5
t6 -49.5l348 -1087q13 -42 29 -62.5t41 -28.5q21 -9 28.5 -17.5t7.5 -23.5t-11 -24.5t-34 -9.5h-495q-23 0 -34 9.5t-11 24.5q0 14 8 21.5t24 13.5l43 11q26 9 27.5 25.5t-9.5 52.5l-346 1101l33 45l-321 -1058q-14 -45 -7.5 -76.5t32 -53t68.5 -37.5l34 -11q14 -6 22 -13.5
t8 -20.5z" />
    <glyph glyph-name="aogonek" unicode="&#x105;" horiz-adv-x="1067" 
d="M873 37l16 -30q-82 -45 -121 -100t-39 -134q0 -67 26 -98.5t66 -31.5q30 0 54.5 15.5t41.5 38.5q8 9 16 12.5t17 0.5t14 -13.5t-4 -28.5q-21 -45 -78 -77.5t-143 -32.5q-116 0 -178.5 46.5t-62.5 130.5q0 61 35.5 113t118 98.5t221.5 90.5zM619 114v17l-21 -5v652
q0 54 -26 84.5t-72 30.5t-71.5 -22.5t-25.5 -55.5v-96q0 -66 -46 -106.5t-126 -40.5q-63 0 -98 31t-35 89q0 59 51 118t152 98t250 39q189 0 281.5 -74t92.5 -205v-503q0 -26 11 -39.5t30 -13.5q18 0 30.5 10.5t18.5 28.5q4 6 8 9t10 3q9 0 13.5 -6.5t4.5 -17.5
q0 -30 -24.5 -68t-75.5 -66t-132 -28q-97 0 -148.5 38.5t-51.5 98.5zM53 205q0 123 107.5 196.5t321.5 73.5q58 0 99 -10.5t71 -27.5l-19 -44q-28 15 -55.5 22t-61.5 7q-63 0 -98.5 -42.5t-35.5 -122.5q0 -79 33.5 -118.5t86.5 -39.5q38 0 73 19t57 50l18 -41
q-47 -72 -132 -111t-182 -39q-126 0 -204.5 64t-78.5 164z" />
    <glyph glyph-name="Cacute" unicode="&#x106;" horiz-adv-x="1367" 
d="M1315 410q-4 -86 -45.5 -165.5t-116 -142.5t-177.5 -100t-228 -37q-213 0 -367.5 91.5t-238.5 253.5t-84 376q0 163 51 299t143 236.5t217.5 155.5t275.5 55q94 0 156 -18.5t98 -37.5t52 -19q21 0 42 18t42 35.5t39 17.5q13 0 22.5 -9t15.5 -31l99 -381q5 -19 -3 -32.5
t-26 -17.5q-19 -4 -33.5 3.5t-23.5 27.5q-55 134 -121 212t-139.5 111.5t-151.5 33.5q-81 0 -148 -38.5t-117 -111.5t-77 -177.5t-27 -238.5q0 -212 57 -354t157.5 -213t230.5 -71q128 0 223.5 70.5t139.5 204.5q8 18 18 24t23 4q12 -2 17.5 -11t4.5 -23zM820 1720
q34 56 74.5 85.5t90.5 22.5q51 -6 77.5 -44.5t20.5 -77.5q-6 -57 -45.5 -88.5t-97.5 -52.5l-207 -83q-10 -3 -22.5 -2.5t-18.5 8.5q-7 8 -4.5 18t9.5 20z" />
    <glyph glyph-name="cacute" unicode="&#x107;" horiz-adv-x="985" 
d="M938 675q0 -65 -43 -107.5t-117 -42.5q-72 0 -111 41t-39 112v57q0 65 -31 101.5t-83 36.5q-48 0 -86 -35t-59.5 -101.5t-21.5 -161.5q0 -125 38.5 -210.5t106 -129.5t154.5 -44q82 0 141.5 30.5t92.5 95.5q13 15 21 20t16 5q11 -1 16 -11.5t5 -25.5
q-10 -95 -65.5 -169.5t-147.5 -116.5t-211 -42q-135 0 -240.5 55t-166.5 158.5t-61 248.5q0 146 63 261t175.5 181.5t263.5 66.5q124 0 211 -36.5t133 -98.5t46 -138zM557 1276q27 69 65 107t96 33q57 -4 85 -41.5t24 -77.5q-4 -51 -35.5 -87t-84.5 -67l-190 -127
q-11 -5 -23 -5t-20 7q-8 9 -6.5 18.5t7.5 20.5z" />
    <glyph glyph-name="Ccircumflex" unicode="&#x108;" horiz-adv-x="1367" 
d="M1315 410q-4 -86 -45.5 -165.5t-116 -142.5t-177.5 -100t-228 -37q-213 0 -367.5 91.5t-238.5 253.5t-84 376q0 163 51 299t143 236.5t217.5 155.5t275.5 55q94 0 156 -18.5t98 -37.5t52 -19q21 0 42 18t42 35.5t39 17.5q13 0 22.5 -9t15.5 -31l99 -381q5 -19 -3 -32.5
t-26 -17.5q-19 -4 -33.5 3.5t-23.5 27.5q-55 134 -121 212t-139.5 111.5t-151.5 33.5q-81 0 -148 -38.5t-117 -111.5t-77 -177.5t-27 -238.5q0 -212 57 -354t157.5 -213t230.5 -71q128 0 223.5 70.5t139.5 204.5q8 18 18 24t23 4q12 -2 17.5 -11t4.5 -23zM825 1645h-154
l323 -156q34 -19 53 -3q8 6 8.5 18t-12.5 26l-225 243q-18 19 -32.5 29.5t-37.5 10.5q-22 0 -36.5 -10.5t-33.5 -29.5l-225 -243q-13 -14 -12 -26t9 -18q18 -16 52 3z" />
    <glyph glyph-name="ccircumflex" unicode="&#x109;" horiz-adv-x="985" 
d="M938 675q0 -65 -43 -107.5t-117 -42.5q-72 0 -111 41t-39 112v57q0 65 -31 101.5t-83 36.5q-48 0 -86 -35t-59.5 -101.5t-21.5 -161.5q0 -125 38.5 -210.5t106 -129.5t154.5 -44q82 0 141.5 30.5t92.5 95.5q13 15 21 20t16 5q11 -1 16 -11.5t5 -25.5
q-10 -95 -65.5 -169.5t-147.5 -116.5t-211 -42q-135 0 -240.5 55t-166.5 158.5t-61 248.5q0 146 63 261t175.5 181.5t263.5 66.5q124 0 211 -36.5t133 -98.5t46 -138zM591 1216h-156l327 -206q15 -10 30 -10t23 7t8.5 19t-12.5 26l-228 287q-17 20 -32 30.5t-38 10.5
q-22 0 -38 -10.5t-33 -30.5l-228 -287q-12 -14 -11.5 -26t7.5 -19q10 -7 24.5 -7t29.5 10z" />
    <glyph glyph-name="Cdotaccent" unicode="&#x10a;" horiz-adv-x="1367" 
d="M1315 410q-4 -86 -45.5 -165.5t-116 -142.5t-177.5 -100t-228 -37q-213 0 -367.5 91.5t-238.5 253.5t-84 376q0 163 51 299t143 236.5t217.5 155.5t275.5 55q94 0 156 -18.5t98 -37.5t52 -19q21 0 42 18t42 35.5t39 17.5q13 0 22.5 -9t15.5 -31l99 -381q5 -19 -3 -32.5
t-26 -17.5q-19 -4 -33.5 3.5t-23.5 27.5q-55 134 -121 212t-139.5 111.5t-151.5 33.5q-81 0 -148 -38.5t-117 -111.5t-77 -177.5t-27 -238.5q0 -212 57 -354t157.5 -213t230.5 -71q128 0 223.5 70.5t139.5 204.5q8 18 18 24t23 4q12 -2 17.5 -11t4.5 -23zM748 1487
q-78 0 -124.5 42t-46.5 112q0 69 46.5 111.5t124.5 42.5q80 0 126 -42.5t46 -111.5t-46 -111.5t-126 -42.5z" />
    <glyph glyph-name="cdotaccent" unicode="&#x10b;" horiz-adv-x="985" 
d="M938 675q0 -65 -43 -107.5t-117 -42.5q-72 0 -111 41t-39 112v57q0 65 -31 101.5t-83 36.5q-48 0 -86 -35t-59.5 -101.5t-21.5 -161.5q0 -125 38.5 -210.5t106 -129.5t154.5 -44q82 0 141.5 30.5t92.5 95.5q13 15 21 20t16 5q11 -1 16 -11.5t5 -25.5
q-10 -95 -65.5 -169.5t-147.5 -116.5t-211 -42q-135 0 -240.5 55t-166.5 158.5t-61 248.5q0 146 63 261t175.5 181.5t263.5 66.5q124 0 211 -36.5t133 -98.5t46 -138zM513 1016q-77 0 -123 42.5t-46 113.5t46 113.5t123 42.5q78 0 123 -42.5t45 -113.5q0 -70 -45 -113
t-123 -43z" />
    <glyph glyph-name="Ccaron" unicode="&#x10c;" horiz-adv-x="1367" 
d="M1315 410q-4 -86 -45.5 -165.5t-116 -142.5t-177.5 -100t-228 -37q-213 0 -367.5 91.5t-238.5 253.5t-84 376q0 163 51 299t143 236.5t217.5 155.5t275.5 55q94 0 156 -18.5t98 -37.5t52 -19q21 0 42 18t42 35.5t39 17.5q13 0 22.5 -9t15.5 -31l99 -381q5 -19 -3 -32.5
t-26 -17.5q-19 -4 -33.5 3.5t-23.5 27.5q-55 134 -121 212t-139.5 111.5t-151.5 33.5q-81 0 -148 -38.5t-117 -111.5t-77 -177.5t-27 -238.5q0 -212 57 -354t157.5 -213t230.5 -71q128 0 223.5 70.5t139.5 204.5q8 18 18 24t23 4q12 -2 17.5 -11t4.5 -23zM825 1646l-323 157
q-34 18 -52 3q-8 -6 -9 -18t12 -26l225 -244q19 -18 33.5 -29t36.5 -11q23 0 37.5 11t32.5 29l225 244q13 14 12 26t-8 18q-19 15 -53 -3l-323 -157h154z" />
    <glyph glyph-name="ccaron" unicode="&#x10d;" horiz-adv-x="985" 
d="M938 675q0 -65 -43 -107.5t-117 -42.5q-72 0 -111 41t-39 112v57q0 65 -31 101.5t-83 36.5q-48 0 -86 -35t-59.5 -101.5t-21.5 -161.5q0 -125 38.5 -210.5t106 -129.5t154.5 -44q82 0 141.5 30.5t92.5 95.5q13 15 21 20t16 5q11 -1 16 -11.5t5 -25.5
q-10 -95 -65.5 -169.5t-147.5 -116.5t-211 -42q-135 0 -240.5 55t-166.5 158.5t-61 248.5q0 146 63 261t175.5 181.5t263.5 66.5q124 0 211 -36.5t133 -98.5t46 -138zM591 1165l-327 206q-15 11 -29.5 11t-24.5 -8q-7 -6 -7.5 -18t11.5 -26l228 -287q17 -20 33 -30.5
t38 -10.5q23 0 38 10.5t32 30.5l228 287q13 14 12.5 26t-8.5 18q-8 8 -23 8t-30 -11l-327 -206h156z" />
    <glyph glyph-name="Dcaron" unicode="&#x10e;" horiz-adv-x="1560" 
d="M82 34q0 28 31 38l60 13q23 6 34 17t11 30v1136q0 19 -11 30t-33 17l-62 14q-30 9 -30 37q0 16 11 25t33 9h553q183 0 334 -53.5t260 -153.5t168.5 -241.5t59.5 -317.5q0 -191 -89.5 -333.5t-253 -221.5t-388.5 -79h-644q-22 0 -33 9.5t-11 24.5zM747 75q107 0 190 60
t130.5 187.5t47.5 330.5q0 162 -31.5 287t-92 210.5t-145 130t-190.5 44.5h-66v-1178q0 -36 20 -54t59 -18h78zM837 1639l-323 157q-34 18 -52 3q-8 -6 -9 -18t12 -26l225 -244q19 -18 33.5 -29t36.5 -11q23 0 37.5 11t32.5 29l225 244q13 14 12 26t-8 18q-19 15 -53 -3
l-323 -157h154z" />
    <glyph glyph-name="dcaron" unicode="&#x10f;" horiz-adv-x="1178" 
d="M731 142l-7 4v1146q0 19 -6 27t-19 10l-44 3q-13 3 -18.5 10t-5.5 18q0 13 7 20t26 14l263 84q29 11 45.5 15.5t32.5 4.5q24 0 36 -13.5t12 -34.5v-1323q0 -26 6.5 -38t21.5 -17l37 -10q15 -5 21 -12.5t6 -18.5q0 -15 -9.5 -23t-29.5 -8h-285q-38 0 -64 25t-26 64v53z
M51 433q0 157 61 272.5t166 179t236 63.5q109 0 184.5 -44.5t126.5 -130.5l-59 -41q-35 63 -80 93.5t-101 30.5q-57 0 -101.5 -38t-69.5 -123.5t-25 -229.5q0 -129 23 -210t64.5 -118.5t94.5 -37.5q55 0 105 34.5t93 107.5l37 -41q-74 -108 -161.5 -165.5t-198.5 -57.5
q-115 0 -204.5 56.5t-140 159t-50.5 240.5zM1162 1357q5 70 30.5 115.5t77.5 53.5q53 11 88.5 -16.5t41.5 -65.5q9 -48 -10.5 -88.5t-57.5 -80.5l-139 -167q-7 -8 -17.5 -11t-19.5 0q-10 6 -11.5 15.5t-0.5 20.5z" />
    <glyph glyph-name="Dcroat" unicode="&#x110;" horiz-adv-x="1560" 
d="M65 705q0 13 8.5 21t22.5 8h701q14 0 22.5 -8t8.5 -21q0 -14 -8.5 -21.5t-22.5 -7.5h-702q-14 0 -22 7.5t-8 21.5zM82 34q0 28 31 38l60 13q23 6 34 17t11 30v1136q0 19 -11 30t-34 17l-61 14q-30 9 -30 37q0 16 11 25t33 9h553q183 0 334 -53.5t260 -153.5t168.5 -241.5
t59.5 -317.5q0 -191 -89.5 -333.5t-253 -221.5t-388.5 -79h-644q-23 0 -33.5 9.5t-10.5 24.5zM746 75q108 0 191 60t130.5 187.5t47.5 330.5q0 162 -32 287t-92 210.5t-145 130t-190 44.5h-67v-1178q0 -36 20.5 -54t58.5 -18h78z" />
    <glyph glyph-name="dcroat" unicode="&#x111;" horiz-adv-x="1172" 
d="M1047 1479v-1352q0 -25 7 -37t21 -18l37 -10q13 -5 19.5 -12.5t6.5 -19.5q0 -14 -10.5 -22t-27.5 -8h-295q-33 0 -55.5 19t-22.5 49l-6 76v1235q0 27 12.5 43t33.5 23l181 55q23 8 36 11t28 3q16 0 25.5 -9.5t9.5 -25.5zM759 218l32 -36q-71 -101 -154.5 -153t-190.5 -52
q-116 0 -205.5 56t-139.5 158.5t-50 241.5q0 156 60 271t164.5 178.5t234.5 63.5q107 0 179 -40.5t119 -122.5l-51 -47q-30 61 -73.5 90t-98.5 29q-58 0 -103.5 -37.5t-71 -123t-25.5 -229.5q0 -132 23.5 -215t66 -121t96.5 -38q53 0 101 31t87 96zM478 1222q0 14 7.5 22
t18.5 8h633q13 0 20.5 -8t7.5 -22q0 -13 -7.5 -21t-20.5 -8h-633q-26 0 -26 29z" />
    <glyph glyph-name="Emacron" unicode="&#x112;" horiz-adv-x="1295" 
d="M485 757h258q75 0 109 31.5t51 119.5q5 19 14 27t22 8q29 1 37 -33l93 -336q5 -20 0 -31.5t-19 -16.5t-27 -1.5t-23 17.5q-40 57 -72.5 87.5t-69 42t-89.5 11.5h-284v74zM82 1366q0 16 11 25t34 9h820q33 0 56.5 8t42.5 16t38 8q21 0 32.5 -13.5t20.5 -45.5l87 -330
q6 -21 0.5 -33t-21.5 -18q-18 -6 -32 0.5t-25 25.5q-58 95 -106 155.5t-91 93.5t-87 45t-96 12h-176v-1167q0 -41 21.5 -61t63.5 -20h114q67 0 125.5 29t122.5 109.5t145 235.5q9 18 21.5 24t28.5 3q17 -3 25 -16.5t2 -35.5l-99 -397q-9 -31 -20.5 -45t-35.5 -14
q-17 0 -35.5 8t-43 15.5t-58.5 7.5h-840q-23 0 -34 9.5t-11 24.5q0 28 32 38l57 12q24 6 35.5 17t11.5 30v1138q0 19 -11.5 30t-35.5 17l-57 12q-32 10 -32 38zM371 1605q0 37 12.5 52t38.5 15h478q27 0 39 -14.5t12 -51.5q0 -36 -12 -51t-39 -15h-478q-26 0 -38.5 15
t-12.5 50z" />
    <glyph glyph-name="emacron" unicode="&#x113;" horiz-adv-x="1011" 
d="M965 557q0 -38 -21.5 -59t-61.5 -21h-616v58h336q37 0 37 36q0 157 -40.5 230t-99.5 73q-45 0 -80.5 -32.5t-55.5 -100.5t-20 -174q0 -196 85.5 -290.5t228.5 -94.5q91 0 156 39.5t91 113.5q12 15 20 20t15 5q11 0 16.5 -10.5t5.5 -26.5q-2 -95 -58.5 -174t-153.5 -125.5
t-222 -46.5q-140 0 -249 58t-171 163t-62 244q0 153 59.5 266.5t171 176.5t265.5 63q134 0 229 -51t145 -139t50 -201zM225 1144q0 37 12.5 52t38.5 15h485q27 0 39.5 -14t12.5 -52q0 -37 -12.5 -52.5t-39.5 -15.5h-485q-26 0 -38.5 15.5t-12.5 51.5z" />
    <glyph glyph-name="Ebreve" unicode="&#x114;" horiz-adv-x="1295" 
d="M485 757h258q75 0 109 31.5t51 119.5q5 19 14 27t22 8q29 1 37 -33l93 -336q5 -20 0 -31.5t-19 -16.5t-27 -1.5t-23 17.5q-40 57 -72.5 87.5t-69 42t-89.5 11.5h-284v74zM82 1366q0 16 11 25t34 9h820q33 0 56.5 8t42.5 16t38 8q21 0 32.5 -13.5t20.5 -45.5l87 -330
q6 -21 0.5 -33t-21.5 -18q-18 -6 -32 0.5t-25 25.5q-58 95 -106 155.5t-91 93.5t-87 45t-96 12h-176v-1167q0 -41 21.5 -61t63.5 -20h114q67 0 125.5 29t122.5 109.5t145 235.5q9 18 21.5 24t28.5 3q17 -3 25 -16.5t2 -35.5l-99 -397q-9 -31 -20.5 -45t-35.5 -14
q-17 0 -35.5 8t-43 15.5t-58.5 7.5h-840q-23 0 -34 9.5t-11 24.5q0 28 32 38l57 12q24 6 35.5 17t11.5 30v1138q0 19 -11.5 30t-35.5 17l-57 12q-32 10 -32 38zM660 1651q75 0 125.5 27t83.5 86q8 11 15.5 16.5t16.5 5.5q15 0 22.5 -11t5.5 -30q-10 -132 -84 -201.5
t-185 -69.5q-110 0 -184.5 69.5t-84.5 201.5q-2 19 6 30t22 11q10 0 17.5 -5.5t15.5 -16.5q34 -62 86.5 -87.5t121.5 -25.5z" />
    <glyph glyph-name="ebreve" unicode="&#x115;" horiz-adv-x="1011" 
d="M965 557q0 -38 -21.5 -59t-61.5 -21h-616v58h336q37 0 37 36q0 157 -40.5 230t-99.5 73q-45 0 -80.5 -32.5t-55.5 -100.5t-20 -174q0 -196 85.5 -290.5t228.5 -94.5q91 0 156 39.5t91 113.5q12 15 20 20t15 5q11 0 16.5 -10.5t5.5 -26.5q-2 -95 -58.5 -174t-153.5 -125.5
t-222 -46.5q-140 0 -249 58t-171 163t-62 244q0 153 59.5 266.5t171 176.5t265.5 63q134 0 229 -51t145 -139t50 -201zM518 1198q76 0 125.5 32.5t86.5 97.5q14 22 32 22q15 0 23 -11t6 -30q-11 -147 -86.5 -222t-186.5 -75q-108 0 -184 75t-88 222q-2 19 6 30t23 11
q19 0 33 -22q38 -69 89.5 -99.5t120.5 -30.5z" />
    <glyph glyph-name="Edotaccent" unicode="&#x116;" horiz-adv-x="1295" 
d="M485 757h258q75 0 109 31.5t51 119.5q5 19 14 27t22 8q29 1 37 -33l93 -336q5 -20 0 -31.5t-19 -16.5t-27 -1.5t-23 17.5q-40 57 -72.5 87.5t-69 42t-89.5 11.5h-284v74zM82 1366q0 16 11 25t34 9h820q33 0 56.5 8t42.5 16t38 8q21 0 32.5 -13.5t20.5 -45.5l87 -330
q6 -21 0.5 -33t-21.5 -18q-18 -6 -32 0.5t-25 25.5q-58 95 -106 155.5t-91 93.5t-87 45t-96 12h-176v-1167q0 -41 21.5 -61t63.5 -20h114q67 0 125.5 29t122.5 109.5t145 235.5q9 18 21.5 24t28.5 3q17 -3 25 -16.5t2 -35.5l-99 -397q-9 -31 -20.5 -45t-35.5 -14
q-17 0 -35.5 8t-43 15.5t-58.5 7.5h-840q-23 0 -34 9.5t-11 24.5q0 28 32 38l57 12q24 6 35.5 17t11.5 30v1138q0 19 -11.5 30t-35.5 17l-57 12q-32 10 -32 38zM661 1480q-78 0 -124.5 42t-46.5 112q0 69 46.5 111.5t124.5 42.5q80 0 126 -42.5t46 -111.5t-46 -111.5
t-126 -42.5z" />
    <glyph glyph-name="edotaccent" unicode="&#x117;" horiz-adv-x="1011" 
d="M965 557q0 -38 -21.5 -59t-61.5 -21h-616v58h336q37 0 37 36q0 157 -40.5 230t-99.5 73q-45 0 -80.5 -32.5t-55.5 -100.5t-20 -174q0 -196 85.5 -290.5t228.5 -94.5q91 0 156 39.5t91 113.5q12 15 20 20t15 5q11 0 16.5 -10.5t5.5 -26.5q-2 -95 -58.5 -174t-153.5 -125.5
t-222 -46.5q-140 0 -249 58t-171 163t-62 244q0 153 59.5 266.5t171 176.5t265.5 63q134 0 229 -51t145 -139t50 -201zM520 1016q-77 0 -123 42.5t-46 113.5t46 113.5t123 42.5q78 0 123 -42.5t45 -113.5q0 -70 -45 -113t-123 -43z" />
    <glyph glyph-name="Eogonek" unicode="&#x118;" horiz-adv-x="1295" 
d="M485 757h258q75 0 109 31.5t51 119.5q5 19 14 27t22 8q29 1 37 -33l93 -336q5 -20 0 -31.5t-19 -16.5t-27 -1.5t-23 17.5q-40 57 -72.5 87.5t-69 42t-89.5 11.5h-284v74zM82 1366q0 16 11 25t34 9h820q33 0 56.5 8t42.5 16t38 8q21 0 32.5 -13.5t20.5 -45.5l87 -330
q6 -21 0.5 -33t-21.5 -18q-18 -6 -32 0.5t-25 25.5q-58 95 -106 155.5t-91 93.5t-87 45t-96 12h-176v-1167q0 -41 21.5 -61t63.5 -20h114q67 0 125.5 29t122.5 109.5t145 235.5q9 18 21.5 24t28.5 3q17 -3 25 -16.5t2 -35.5l-99 -397q-9 -31 -20.5 -45t-35.5 -14
q-17 0 -35.5 8t-43 15.5t-58.5 7.5h-840q-23 0 -34 9.5t-11 24.5q0 28 32 38l57 12q24 6 35.5 17t11.5 30v1138q0 19 -11.5 30t-35.5 17l-57 12q-32 10 -32 38zM1069 37l16 -30q-82 -45 -121 -100t-39 -134q0 -67 26 -98.5t66 -31.5q29 0 54 15.5t42 38.5q8 9 15.5 12.5
t17.5 0.5q9 -3 14 -13.5t-4 -28.5q-21 -45 -78.5 -77.5t-142.5 -32.5q-116 0 -178.5 46.5t-62.5 130.5q0 62 35.5 113.5t118 98t221.5 90.5z" />
    <glyph glyph-name="eogonek" unicode="&#x119;" horiz-adv-x="1008" 
d="M263 484v52h339q36 0 36 36q0 156 -42 229t-99 73q-44 0 -79 -31.5t-55.5 -99.5t-20.5 -178q0 -199 85.5 -295t227.5 -96q95 0 163.5 47t88.5 127q17 19 28 17q9 0 15.5 -6t6.5 -20q-2 -97 -53.5 -175t-142.5 -131q-84 -46 -125.5 -111t-41.5 -150q0 -66 26 -97.5
t67 -31.5q29 0 54 15.5t41 38.5q9 9 16.5 12.5t16.5 0.5t14.5 -13.5t-4.5 -28.5q-20 -45 -77.5 -77.5t-142.5 -32.5q-116 0 -179 46.5t-63 126.5q0 84 74.5 153t235.5 141l-35 -30q-32 -10 -64 -14t-53 -4q-141 0 -248 59.5t-167 165.5t-60 245q0 149 59 261.5t170.5 175
t264.5 62.5q129 0 223.5 -52t146 -141t51.5 -201q0 -33 -21 -50.5t-62 -17.5h-615z" />
    <glyph glyph-name="Ecaron" unicode="&#x11a;" horiz-adv-x="1295" 
d="M485 757h258q75 0 109 31.5t51 119.5q5 19 14 27t22 8q29 1 37 -33l93 -336q5 -20 0 -31.5t-19 -16.5t-27 -1.5t-23 17.5q-40 57 -72.5 87.5t-69 42t-89.5 11.5h-284v74zM82 1366q0 16 11 25t34 9h820q33 0 56.5 8t42.5 16t38 8q21 0 32.5 -13.5t20.5 -45.5l87 -330
q6 -21 0.5 -33t-21.5 -18q-18 -6 -32 0.5t-25 25.5q-58 95 -106 155.5t-91 93.5t-87 45t-96 12h-176v-1167q0 -41 21.5 -61t63.5 -20h114q67 0 125.5 29t122.5 109.5t145 235.5q9 18 21.5 24t28.5 3q17 -3 25 -16.5t2 -35.5l-99 -397q-9 -31 -20.5 -45t-35.5 -14
q-17 0 -35.5 8t-43 15.5t-58.5 7.5h-840q-23 0 -34 9.5t-11 24.5q0 28 32 38l57 12q24 6 35.5 17t11.5 30v1138q0 19 -11.5 30t-35.5 17l-57 12q-32 10 -32 38zM738 1639l-323 157q-34 18 -52 3q-8 -6 -9 -18t12 -26l225 -244q19 -18 33.5 -29t36.5 -11q23 0 37.5 11
t32.5 29l225 244q13 14 12 26t-8 18q-19 15 -53 -3l-323 -157h154z" />
    <glyph glyph-name="ecaron" unicode="&#x11b;" horiz-adv-x="1011" 
d="M965 557q0 -38 -21.5 -59t-61.5 -21h-616v58h336q37 0 37 36q0 157 -40.5 230t-99.5 73q-45 0 -80.5 -32.5t-55.5 -100.5t-20 -174q0 -196 85.5 -290.5t228.5 -94.5q91 0 156 39.5t91 113.5q12 15 20 20t15 5q11 0 16.5 -10.5t5.5 -26.5q-2 -95 -58.5 -174t-153.5 -125.5
t-222 -46.5q-140 0 -249 58t-171 163t-62 244q0 153 59.5 266.5t171 176.5t265.5 63q134 0 229 -51t145 -139t50 -201zM597 1165l-327 206q-15 11 -29.5 11t-24.5 -8q-7 -6 -7.5 -18t11.5 -26l228 -287q17 -20 33 -30.5t38 -10.5q23 0 38 10.5t32 30.5l228 287
q13 14 12.5 26t-8.5 18q-8 8 -23 8t-30 -11l-327 -206h156z" />
    <glyph glyph-name="Gcircumflex" unicode="&#x11c;" horiz-adv-x="1482" 
d="M1326 19q0 -27 -10 -38.5t-32 -11.5t-51.5 16.5t-62 38.5t-62 38.5t-52.5 16.5q-17 0 -43 -16.5t-64.5 -37.5t-93 -38t-129.5 -17q-152 0 -275 51t-210.5 145t-134.5 224t-47 289q0 165 52.5 302t148.5 237.5t227.5 155.5t288.5 55q91 0 150 -19t94 -38t52 -19
q25 0 50 18l50 36t47 18q13 0 22 -8.5t15 -32.5l90 -403q5 -18 -3 -31t-24 -17q-17 -4 -31 2.5t-23 25.5q-61 145 -134 230t-154 121.5t-166 36.5q-113 0 -197.5 -70.5t-130.5 -205.5t-46 -331q0 -211 53.5 -357t143.5 -221.5t200 -75.5q32 0 61 9.5t50.5 26.5t34 40.5
t12.5 51.5v310q0 18 -10.5 27.5t-38.5 14.5l-73 13q-19 4 -28.5 13t-9.5 22q0 15 11 24t33 9h515q23 0 34 -9t11 -23q0 -13 -7.5 -21t-24.5 -14l-39 -11q-19 -6 -29 -16t-10 -29v-507zM840 1645h-154l323 -156q34 -19 53 -3q8 6 8.5 18t-12.5 26l-225 243q-18 19 -32.5 29.5
t-37.5 10.5q-22 0 -36.5 -10.5t-33.5 -29.5l-225 -243q-13 -14 -12 -26t9 -18q18 -16 52 3z" />
    <glyph glyph-name="gcircumflex" unicode="&#x11d;" horiz-adv-x="1225" 
d="M695 87q-109 18 -165.5 31.5t-77 28.5t-20.5 35q0 19 13 32.5t31 19.5l-9 11q-114 -9 -180.5 -35.5t-94.5 -67t-28 -88.5q0 -54 31 -91t108.5 -62.5t214.5 -46.5q117 -18 182 -38t91 -46t26 -64q0 -44 -25 -73.5t-79 -44t-141 -14.5q-158 0 -228 61.5t-70 162.5
q0 34 21.5 61t60.5 37l-6 15q-171 -14 -242.5 -62.5t-71.5 -136.5q0 -94 117 -151.5t381 -57.5q267 0 409.5 89.5t142.5 229.5q0 77 -36.5 128.5t-122 84t-232.5 52.5zM779 839l52 -2q22 52 44.5 79t49.5 27q24 0 39.5 -17.5t31 -40.5t38 -41t61.5 -18q53 0 81 36t28 97
q0 69 -43 109t-109 40q-85 0 -146.5 -60.5t-105.5 -165.5zM1015 591q0 95 -54 175.5t-156 129.5t-248 49q-151 0 -261 -48.5t-169 -134t-59 -195.5q0 -96 58 -174t166 -124t258 -46q135 0 240 47.5t165 131t60 189.5zM505 885q70 3 117.5 -82.5t60.5 -235.5
q12 -131 -18.5 -205.5t-92.5 -77.5q-45 -2 -82.5 36t-62.5 111t-33 176q-8 83 3.5 145t39 96.5t68.5 36.5zM621 1216h-156l327 -206q15 -10 30 -10t23 7t8.5 19t-12.5 26l-228 287q-17 20 -32 30.5t-38 10.5q-22 0 -38 -10.5t-33 -30.5l-228 -287q-12 -14 -11.5 -26t7.5 -19
q10 -7 24.5 -7t29.5 10z" />
    <glyph glyph-name="Gbreve" unicode="&#x11e;" horiz-adv-x="1482" 
d="M1326 19q0 -27 -10 -38.5t-32 -11.5t-51.5 16.5t-62 38.5t-62 38.5t-52.5 16.5q-17 0 -43 -16.5t-64.5 -37.5t-93 -38t-129.5 -17q-152 0 -275 51t-210.5 145t-134.5 224t-47 289q0 165 52.5 302t148.5 237.5t227.5 155.5t288.5 55q91 0 150 -19t94 -38t52 -19
q25 0 50 18l50 36t47 18q13 0 22 -8.5t15 -32.5l90 -403q5 -18 -3 -31t-24 -17q-17 -4 -31 2.5t-23 25.5q-61 145 -134 230t-154 121.5t-166 36.5q-113 0 -197.5 -70.5t-130.5 -205.5t-46 -331q0 -211 53.5 -357t143.5 -221.5t200 -75.5q32 0 61 9.5t50.5 26.5t34 40.5
t12.5 51.5v310q0 18 -10.5 27.5t-38.5 14.5l-73 13q-19 4 -28.5 13t-9.5 22q0 15 11 24t33 9h515q23 0 34 -9t11 -23q0 -13 -7.5 -21t-24.5 -14l-39 -11q-19 -6 -29 -16t-10 -29v-507zM763 1658q75 0 125.5 27t83.5 86q8 11 15.5 16.5t16.5 5.5q15 0 22.5 -11t5.5 -30
q-10 -132 -84 -201.5t-185 -69.5q-110 0 -184.5 69.5t-84.5 201.5q-2 19 6 30t22 11q10 0 17.5 -5.5t15.5 -16.5q34 -62 86.5 -87.5t121.5 -25.5z" />
    <glyph glyph-name="gbreve" unicode="&#x11f;" horiz-adv-x="1112" 
d="M695 87q-109 18 -165.5 31.5t-77 28.5t-20.5 35q0 19 13 32.5t31 19.5l-9 11q-114 -9 -180.5 -35.5t-94.5 -67t-28 -88.5q0 -54 31 -91t108.5 -62.5t214.5 -46.5q117 -18 182 -38t91 -46t26 -64q0 -44 -25 -73.5t-79 -44t-141 -14.5q-158 0 -228 61.5t-70 162.5
q0 34 21.5 61t60.5 37l-6 15q-171 -14 -242.5 -62.5t-71.5 -136.5q0 -94 117 -151.5t381 -57.5q267 0 409.5 89.5t142.5 229.5q0 77 -36.5 128.5t-122 84t-232.5 52.5zM779 839l52 -2q22 52 44.5 79t49.5 27q24 0 39.5 -17.5t31 -40.5t38 -41t61.5 -18q53 0 81 36t28 97
q0 69 -43 109t-109 40q-85 0 -146.5 -60.5t-105.5 -165.5zM1015 591q0 95 -54 175.5t-156 129.5t-248 49q-151 0 -261 -48.5t-169 -134t-59 -195.5q0 -96 58 -174t166 -124t258 -46q135 0 240 47.5t165 131t60 189.5zM505 885q70 3 117.5 -82.5t60.5 -235.5
q12 -131 -18.5 -205.5t-92.5 -77.5q-45 -2 -82.5 36t-62.5 111t-33 176q-8 83 3.5 145t39 96.5t68.5 36.5zM540 1198q76 0 125.5 32.5t86.5 97.5q14 22 32 22q15 0 23 -11t6 -30q-11 -147 -86.5 -222t-186.5 -75q-108 0 -184 75t-88 222q-2 19 6 30t23 11q19 0 33 -22
q38 -69 89.5 -99.5t120.5 -30.5z" />
    <glyph glyph-name="Gdotaccent" unicode="&#x120;" horiz-adv-x="1482" 
d="M1326 19q0 -27 -10 -38.5t-32 -11.5t-51.5 16.5t-62 38.5t-62 38.5t-52.5 16.5q-17 0 -43 -16.5t-64.5 -37.5t-93 -38t-129.5 -17q-152 0 -275 51t-210.5 145t-134.5 224t-47 289q0 165 52.5 302t148.5 237.5t227.5 155.5t288.5 55q91 0 150 -19t94 -38t52 -19
q25 0 50 18l50 36t47 18q13 0 22 -8.5t15 -32.5l90 -403q5 -18 -3 -31t-24 -17q-17 -4 -31 2.5t-23 25.5q-61 145 -134 230t-154 121.5t-166 36.5q-113 0 -197.5 -70.5t-130.5 -205.5t-46 -331q0 -211 53.5 -357t143.5 -221.5t200 -75.5q32 0 61 9.5t50.5 26.5t34 40.5
t12.5 51.5v310q0 18 -10.5 27.5t-38.5 14.5l-73 13q-19 4 -28.5 13t-9.5 22q0 15 11 24t33 9h515q23 0 34 -9t11 -23q0 -13 -7.5 -21t-24.5 -14l-39 -11q-19 -6 -29 -16t-10 -29v-507zM763 1487q-78 0 -124.5 42t-46.5 112q0 69 46.5 111.5t124.5 42.5q80 0 126 -42.5
t46 -111.5t-46 -111.5t-126 -42.5z" />
    <glyph glyph-name="gdotaccent" unicode="&#x121;" horiz-adv-x="1112" 
d="M695 87q-109 18 -165.5 31.5t-77 28.5t-20.5 35q0 19 13 32.5t31 19.5l-9 11q-114 -9 -180.5 -35.5t-94.5 -67t-28 -88.5q0 -54 31 -91t108.5 -62.5t214.5 -46.5q117 -18 182 -38t91 -46t26 -64q0 -44 -25 -73.5t-79 -44t-141 -14.5q-158 0 -228 61.5t-70 162.5
q0 34 21.5 61t60.5 37l-6 15q-171 -14 -242.5 -62.5t-71.5 -136.5q0 -94 117 -151.5t381 -57.5q267 0 409.5 89.5t142.5 229.5q0 77 -36.5 128.5t-122 84t-232.5 52.5zM779 839l52 -2q22 52 44.5 79t49.5 27q24 0 39.5 -17.5t31 -40.5t38 -41t61.5 -18q53 0 81 36t28 97
q0 69 -43 109t-109 40q-85 0 -146.5 -60.5t-105.5 -165.5zM1015 591q0 95 -54 175.5t-156 129.5t-248 49q-151 0 -261 -48.5t-169 -134t-59 -195.5q0 -96 58 -174t166 -124t258 -46q135 0 240 47.5t165 131t60 189.5zM505 885q70 3 117.5 -82.5t60.5 -235.5
q12 -131 -18.5 -205.5t-92.5 -77.5q-45 -2 -82.5 36t-62.5 111t-33 176q-8 83 3.5 145t39 96.5t68.5 36.5zM541 1016q-77 0 -123 42.5t-46 113.5t46 113.5t123 42.5q78 0 123 -42.5t45 -113.5q0 -70 -45 -113t-123 -43z" />
    <glyph glyph-name="Gcommaaccent" unicode="&#x122;" horiz-adv-x="1482" 
d="M1326 19q0 -27 -10 -38.5t-32 -11.5t-51.5 16.5t-62 38.5t-62 38.5t-52.5 16.5q-17 0 -43 -16.5t-64.5 -37.5t-93 -38t-129.5 -17q-152 0 -275 51t-210.5 145t-134.5 224t-47 289q0 165 52.5 302t148.5 237.5t227.5 155.5t288.5 55q91 0 150 -19t94 -38t52 -19
q25 0 50 18l50 36t47 18q13 0 22 -8.5t15 -32.5l90 -403q5 -18 -3 -31t-24 -17q-17 -4 -31 2.5t-23 25.5q-61 145 -134 230t-154 121.5t-166 36.5q-113 0 -197.5 -70.5t-130.5 -205.5t-46 -331q0 -211 53.5 -357t143.5 -221.5t200 -75.5q32 0 61 9.5t50.5 26.5t34 40.5
t12.5 51.5v310q0 18 -10.5 27.5t-38.5 14.5l-73 13q-19 4 -28.5 13t-9.5 22q0 15 11 24t33 9h515q23 0 34 -9t11 -23q0 -13 -7.5 -21t-24.5 -14l-39 -11q-19 -6 -29 -16t-10 -29v-507zM752 -344q-73 0 -107 35t-34 85q0 59 42.5 96t107.5 37q72 0 115.5 -44t43.5 -129
q0 -115 -65 -187.5t-193 -96.5q-18 -4 -28 1.5t-13 17.5q-3 11 3 20t22 13q63 10 104.5 32.5t62.5 49.5t21 49q0 21 -24 21h-58z" />
    <glyph glyph-name="gcommaaccent" unicode="&#x123;" horiz-adv-x="1112" 
d="M695 87q-109 18 -165.5 31.5t-77 28.5t-20.5 35q0 19 13 32.5t31 19.5l-9 11q-114 -9 -180.5 -35.5t-94.5 -67t-28 -88.5q0 -54 31 -91t108.5 -62.5t214.5 -46.5q117 -18 182 -38t91 -46t26 -64q0 -44 -25 -73.5t-79 -44t-141 -14.5q-158 0 -228 61.5t-70 162.5
q0 34 21.5 61t60.5 37l-6 15q-171 -14 -242.5 -62.5t-71.5 -136.5q0 -94 117 -151.5t381 -57.5q267 0 409.5 89.5t142.5 229.5q0 77 -36.5 128.5t-122 84t-232.5 52.5zM779 839l52 -2q22 52 44.5 79t49.5 27q24 0 39.5 -17.5t31 -40.5t38 -41t61.5 -18q53 0 81 36t28 97
q0 69 -43 109t-109 40q-85 0 -146.5 -60.5t-105.5 -165.5zM1015 591q0 95 -54 175.5t-156 129.5t-248 49q-151 0 -261 -48.5t-169 -134t-59 -195.5q0 -96 58 -174t166 -124t258 -46q135 0 240 47.5t165 131t60 189.5zM505 885q70 3 117.5 -82.5t60.5 -235.5
q12 -131 -18.5 -205.5t-92.5 -77.5q-45 -2 -82.5 36t-62.5 111t-33 176q-8 83 3.5 145t39 96.5t68.5 36.5zM547 1265q77 0 111.5 -35t34.5 -88q0 -57 -41 -93.5t-104 -36.5q-73 0 -117.5 45t-44.5 128q0 116 65 188t193 96q17 4 27.5 -1t13.5 -18q3 -10 -3 -19.5t-22 -13.5
q-62 -10 -104 -32t-63 -48.5t-21 -49.5q0 -22 24 -22h51z" />
    <glyph glyph-name="Hcircumflex" unicode="&#x124;" horiz-adv-x="1664" 
d="M390 699h821v-78h-821v78zM593 131q0 -18 12 -29.5t35 -17.5l57 -12q32 -10 32 -38q0 -15 -11 -24.5t-34 -9.5h-554q-23 0 -33.5 9.5t-10.5 24.5q0 28 32 38l57 12q23 6 34.5 17.5t11.5 29.5v1138q0 18 -11.5 29.5t-34.5 17.5l-57 12q-32 10 -32 38q0 16 10.5 25t33.5 9
h554q23 0 34 -9t11 -25q0 -28 -32 -38l-57 -12q-23 -6 -35 -17.5t-12 -29.5v-1138zM1442 131q0 -18 12 -29.5t35 -17.5l57 -12q32 -10 32 -38q0 -15 -11 -24.5t-34 -9.5h-554q-23 0 -33.5 9.5t-10.5 24.5q0 28 32 38l57 12q23 6 34.5 17.5t11.5 29.5v1138q0 18 -11.5 29.5
t-34.5 17.5l-57 12q-32 10 -32 38q0 16 10.5 25t33.5 9h554q23 0 34 -9t11 -25q0 -28 -32 -38l-57 -12q-23 -6 -35 -17.5t-12 -29.5v-1138zM909 1640h-154l323 -156q34 -19 53 -3q8 6 8.5 18t-12.5 26l-225 243q-18 19 -32.5 29.5t-37.5 10.5q-22 0 -36.5 -10.5t-33.5 -29.5
l-225 -243q-13 -14 -12 -26t9 -18q18 -16 52 3z" />
    <glyph glyph-name="hcircumflex" unicode="&#x125;" horiz-adv-x="1212" 
d="M472 1450v-1323q0 -26 6.5 -38t21.5 -17l37 -10q22 -10 22 -30q0 -32 -40 -32h-429q-20 0 -29.5 8t-9.5 23q0 10 6 18t21 13l38 10q15 5 21 17t6 38v1165q0 19 -6 27t-19 10l-44 3q-13 3 -18.5 10t-5.5 18q0 13 7 20t26 14l263 84q29 11 45.5 15.5t32.5 4.5
q24 0 36 -13.5t12 -34.5zM443 676l-34 35l36 33q119 107 206 155.5t161 48.5q110 0 171.5 -71.5t74.5 -200.5l60 -547q3 -27 9 -40t21 -18l36 -9q14 -5 20 -13t6 -18q0 -15 -9 -23t-30 -8h-435q-41 0 -41 32q0 20 23 30l37 10q17 5 24.5 18t4.5 39l-51 505q-8 71 -34 105.5
t-79 34.5q-34 0 -69 -17t-71 -49zM380 1661h-154l323 -156q34 -19 53 -3q8 6 8.5 18t-12.5 26l-225 243q-18 19 -32.5 29.5t-37.5 10.5q-22 0 -36.5 -10.5t-33.5 -29.5l-225 -243q-13 -14 -12 -26t9 -18q18 -16 52 3z" />
    <glyph glyph-name="Hbar" unicode="&#x126;" horiz-adv-x="1664" 
d="M69 1015q0 11 7 18.5t19 7.5h1448q13 0 20 -7.5t7 -19.5q0 -11 -7 -18.5t-20 -7.5h-1449q-25 0 -25 27zM390 699h821v-78h-821v78zM593 131q0 -18 12 -29.5t35 -17.5l57 -12q32 -10 32 -38q0 -15 -11 -24.5t-34 -9.5h-554q-23 0 -33.5 9.5t-10.5 24.5q0 28 32 38l57 12
q23 6 34.5 17.5t11.5 29.5v1138q0 18 -11.5 29.5t-34.5 17.5l-57 12q-32 10 -32 38q0 16 10.5 25t33.5 9h554q23 0 34 -9t11 -25q0 -28 -32 -38l-57 -12q-23 -6 -35 -17.5t-12 -29.5v-1138zM1442 131q0 -18 12 -29.5t35 -17.5l57 -12q32 -10 32 -38q0 -15 -11 -24.5
t-34 -9.5h-554q-23 0 -33.5 9.5t-10.5 24.5q0 28 32 38l57 12q23 6 34.5 17.5t11.5 29.5v1138q0 18 -11.5 29.5t-34.5 17.5l-57 12q-32 10 -32 38q0 16 10.5 25t33.5 9h554q23 0 34 -9t11 -25q0 -28 -32 -38l-57 -12q-23 -6 -35 -17.5t-12 -29.5v-1138z" />
    <glyph glyph-name="hbar" unicode="&#x127;" horiz-adv-x="1206" 
d="M27 1222q0 14 7.5 22t18.5 8h698q13 0 20 -8t7 -22q0 -13 -7 -21t-20 -8h-699q-25 0 -25 29zM440 674l-34 36l43 39q119 107 213.5 152t172.5 45q112 0 181 -68.5t69 -202.5v-546q0 -26 7.5 -39t23.5 -19l35 -9q13 -6 19 -13.5t6 -18.5q0 -14 -10 -22t-28 -8h-433
q-34 0 -34 30q0 19 22 29l38 10q16 6 22.5 19.5t6.5 40.5v495q0 76 -33.5 112t-93.5 36q-37 0 -76.5 -15t-79.5 -50zM469 1479v-1352q0 -27 6.5 -39.5t21.5 -18.5l37 -10q23 -10 23 -29q0 -30 -35 -30h-432q-18 0 -28 8t-10 22q0 11 6.5 19t19.5 13l38 10q14 6 20.5 18
t6.5 37v1255q0 25 12 40.5t34 22.5l181 55q23 8 36 11t29 3t25 -9.5t9 -25.5z" />
    <glyph glyph-name="Itilde" unicode="&#x128;" horiz-adv-x="807" 
d="M589 131q0 -18 12 -29.5t35 -17.5l57 -12q32 -10 32 -38q0 -15 -10.5 -24.5t-33.5 -9.5h-555q-22 0 -33 9.5t-11 24.5q0 28 32 38l57 12q23 6 35 17.5t12 29.5v1138q0 18 -12 29.5t-35 17.5l-57 12q-32 10 -32 38q0 16 11 25t33 9h555q23 0 33.5 -9t10.5 -25
q0 -28 -32 -38l-57 -12q-23 -6 -35 -17.5t-12 -29.5v-1138zM516 1485q-43 0 -79.5 15.5t-68 36t-59.5 35.5t-56 15q-63 0 -71 -86q-7 -24 -30 -24q-29 0 -29 39q0 120 42 182.5t125 62.5q44 0 80.5 -15.5t67.5 -36t59.5 -36t56.5 -15.5q64 0 71 86q7 24 30 24q29 0 29 -39
q0 -119 -42 -181.5t-126 -62.5z" />
    <glyph glyph-name="itilde" unicode="&#x129;" horiz-adv-x="594" 
d="M470 910v-783q0 -25 7 -37t22 -18l36 -10q14 -5 20 -12.5t6 -19.5q0 -14 -10 -22t-28 -8h-432q-18 0 -28 8t-10 22q0 11 6.5 19t18.5 13l38 10q15 6 21.5 18t6.5 37v617q0 18 -6 26t-19 11l-44 2q-12 4 -18.5 10.5t-6.5 17.5q0 12 8.5 19.5t25.5 13.5l282 87
q25 8 38.5 11.5t29.5 3.5q17 0 26.5 -10t9.5 -26zM403.811 1021q-38.7002 0 -72.002 18.5q-33.3008 18.5 -61.6514 43.5t-54.4512 44t-51.3018 19q-29.7002 0 -45.001 -26t-20.7002 -80q-5.40039 -24 -26.1016 -24q-27 0 -27 40q0 130 38.251 198t114.753 68
q39.6016 0 72.4521 -19t61.2012 -43.5t54.4521 -43.5q26.1006 -19 51.3008 -19q30.6016 0 45.9014 26q15.3008 26 19.8008 80q5.40039 24 27.001 24q26.1006 0 26.1006 -40q0 -130 -38.251 -198t-114.754 -68z" />
    <glyph glyph-name="Imacron" unicode="&#x12a;" horiz-adv-x="807" 
d="M589 131q0 -18 12 -29.5t35 -17.5l57 -12q32 -10 32 -38q0 -15 -10.5 -24.5t-33.5 -9.5h-555q-22 0 -33 9.5t-11 24.5q0 28 32 38l57 12q23 6 35 17.5t12 29.5v1138q0 18 -12 29.5t-35 17.5l-57 12q-32 10 -32 38q0 16 11 25t33 9h555q23 0 33.5 -9t10.5 -25
q0 -28 -32 -38l-57 -12q-23 -6 -35 -17.5t-12 -29.5v-1138zM114 1605q0 37 12.5 52t38.5 15h478q27 0 39 -14.5t12 -51.5q0 -36 -12 -51t-39 -15h-478q-26 0 -38.5 15t-12.5 50z" />
    <glyph glyph-name="imacron" unicode="&#x12b;" horiz-adv-x="594" 
d="M470 910v-783q0 -25 7 -37t22 -18l36 -10q14 -5 20 -12.5t6 -19.5q0 -14 -10 -22t-28 -8h-432q-18 0 -28 8t-10 22q0 11 6.5 19t18.5 13l38 10q15 6 21.5 18t6.5 37v617q0 18 -6 26t-19 11l-44 2q-12 4 -18.5 10.5t-6.5 17.5q0 12 8.5 19.5t25.5 13.5l282 87
q25 8 38.5 11.5t29.5 3.5q17 0 26.5 -10t9.5 -26zM49.7402 1144q0 37 10.125 52t31.1846 15h392.849q21.8701 0 31.9951 -14t10.125 -52q0 -37 -10.125 -52.5t-31.9951 -15.5h-392.849q-21.0596 0 -31.1846 15.5t-10.125 51.5z" />
    <glyph glyph-name="Ibreve" unicode="&#x12c;" horiz-adv-x="807" 
d="M589 131q0 -18 12 -29.5t35 -17.5l57 -12q32 -10 32 -38q0 -15 -10.5 -24.5t-33.5 -9.5h-555q-22 0 -33 9.5t-11 24.5q0 28 32 38l57 12q23 6 35 17.5t12 29.5v1138q0 18 -12 29.5t-35 17.5l-57 12q-32 10 -32 38q0 16 11 25t33 9h555q23 0 33.5 -9t10.5 -25
q0 -28 -32 -38l-57 -12q-23 -6 -35 -17.5t-12 -29.5v-1138zM403 1651q75 0 125.5 27t83.5 86q8 11 15.5 16.5t16.5 5.5q15 0 22.5 -11t5.5 -30q-10 -132 -84 -201.5t-185 -69.5q-110 0 -184.5 69.5t-84.5 201.5q-2 19 6 30t22 11q10 0 17.5 -5.5t15.5 -16.5
q34 -62 86.5 -87.5t121.5 -25.5z" />
    <glyph glyph-name="ibreve" unicode="&#x12d;" horiz-adv-x="594" 
d="M470 910v-783q0 -25 7 -37t22 -18l36 -10q14 -5 20 -12.5t6 -19.5q0 -14 -10 -22t-28 -8h-432q-18 0 -28 8t-10 22q0 11 6.5 19t18.5 13l38 10q15 6 21.5 18t6.5 37v617q0 18 -6 26t-19 11l-44 2q-12 4 -18.5 10.5t-6.5 17.5q0 12 8.5 19.5t25.5 13.5l282 87
q25 8 38.5 11.5t29.5 3.5q17 0 26.5 -10t9.5 -26zM317 1198q76 0 125.5 32.5t86.5 97.5q14 22 32 22q15 0 23 -11t6 -30q-11 -147 -86.5 -222t-186.5 -75q-108 0 -184 75t-88 222q-2 19 6 30t23 11q19 0 33 -22q38 -69 89.5 -99.5t120.5 -30.5z" />
    <glyph glyph-name="Iogonek" unicode="&#x12e;" horiz-adv-x="807" 
d="M560 37l17 -30q-82 -44 -121 -98.5t-39 -131.5q0 -67 26 -98t66 -31q29 0 53.5 15.5t40.5 37.5q9 9 16.5 12.5t16.5 0.5t14 -13.5t-4 -27.5q-20 -45 -76.5 -77t-141.5 -32q-114 0 -176 46t-62 130q0 60 35 111t116 97t219 89zM589 131q0 -19 12 -30t35 -17l57 -12
q32 -10 32 -38q0 -15 -10.5 -24.5t-33.5 -9.5h-555q-22 0 -33 9.5t-11 24.5q0 28 32 38l57 12q23 6 35 17t12 30v1138q0 19 -12 30t-35 17l-57 12q-32 10 -32 38q0 16 11 25t33 9h555q23 0 33.5 -9t10.5 -25q0 -28 -32 -38l-57 -12q-23 -6 -35 -17t-12 -30v-1138z" />
    <glyph glyph-name="iogonek" unicode="&#x12f;" horiz-adv-x="598" 
d="M441 37l16 -30q-82 -44 -121.5 -99t-39.5 -134q0 -68 26 -99.5t67 -31.5q30 0 54.5 15.5t40.5 38.5q9 9 17 12.5t17 0.5t14 -13.5t-4 -28.5q-21 -45 -78 -77.5t-143 -32.5q-116 0 -178.5 46.5t-62.5 131.5q0 61 35.5 113t118 98.5t221.5 89.5zM473 899v-772
q0 -26 6.5 -38t21.5 -17l37 -10q15 -5 21 -12.5t6 -18.5q0 -15 -9.5 -23t-29.5 -8h-435q-20 0 -29.5 8t-9.5 23q0 10 6 18t20 13l38 10q16 5 22 17t6 38v614q0 18 -6 26.5t-19 10.5l-44 3q-13 3 -19 10t-6 18q0 13 7.5 20t26.5 14l263 84q30 11 46.5 15.5t30.5 4.5
q24 0 36.5 -13.5t12.5 -34.5zM295 1054q-88 0 -140.5 48t-52.5 124q0 75 53 123t140 48q88 0 141.5 -48t53.5 -123q0 -76 -53.5 -124t-141.5 -48z" />
    <glyph glyph-name="Idotaccent" unicode="&#x130;" horiz-adv-x="807" 
d="M589 131q0 -18 12 -29.5t35 -17.5l57 -12q32 -10 32 -38q0 -15 -10.5 -24.5t-33.5 -9.5h-555q-22 0 -33 9.5t-11 24.5q0 28 32 38l57 12q23 6 35 17.5t12 29.5v1138q0 18 -12 29.5t-35 17.5l-57 12q-32 10 -32 38q0 16 11 25t33 9h555q23 0 33.5 -9t10.5 -25
q0 -28 -32 -38l-57 -12q-23 -6 -35 -17.5t-12 -29.5v-1138zM404 1480q-78 0 -124.5 42t-46.5 112q0 69 46.5 111.5t124.5 42.5q80 0 126 -42.5t46 -111.5t-46 -111.5t-126 -42.5z" />
    <glyph glyph-name="dotlessi" unicode="&#x131;" horiz-adv-x="597" 
d="M470 910v-783q0 -25 7 -37t22 -18l36 -10q14 -5 20 -12.5t6 -19.5q0 -14 -10 -22t-28 -8h-432q-18 0 -28 8t-10 22q0 11 6.5 19t18.5 13l38 10q15 6 21.5 18t6.5 37v617q0 18 -6 26t-19 11l-44 2q-12 4 -18.5 10.5t-6.5 17.5q0 12 8.5 19.5t25.5 13.5l282 87
q25 8 38.5 11.5t29.5 3.5q17 0 26.5 -10t9.5 -26z" />
    <glyph glyph-name="IJ" unicode="&#x132;" horiz-adv-x="1794" 
d="M589 131q0 -18 12 -29.5t35 -17.5l57 -12q32 -10 32 -38q0 -15 -10.5 -24.5t-33.5 -9.5h-555q-22 0 -33 9.5t-11 24.5q0 28 32 38l57 12q23 6 35 17.5t12 29.5v1138q0 18 -12 29.5t-35 17.5l-57 12q-32 10 -32 38q0 16 11 25t33 9h555q23 0 33.5 -9t10.5 -25
q0 -28 -32 -38l-57 -12q-23 -6 -35 -17.5t-12 -29.5v-1138zM1673 265q0 -134 -117 -215t-319 -81q-185 0 -287.5 71t-102.5 188q0 79 43 127.5t120 48.5q63 0 104.5 -46t41.5 -128v-87q0 -51 23.5 -80.5t75.5 -29.5t84 35.5t32 100.5q0 53 -25 101.5t-58.5 104t-58.5 127
t-25 170.5v589q0 23 -9.5 36.5t-32.5 17.5l-68 12q-19 4 -28 13t-9 25q0 17 11.5 26t33.5 9h561q24 0 35 -9t11 -25q0 -26 -38 -39l-51 -12q-22 -6 -33.5 -17t-11.5 -31v-580q0 -75 15 -130t34 -100t34 -90.5t15 -101.5z" />
    <glyph glyph-name="ij" unicode="&#x133;" horiz-adv-x="1197" 
d="M473 899v-772q0 -26 6.5 -38t21.5 -17l37 -10q15 -5 21 -12.5t6 -18.5q0 -15 -9.5 -23t-29.5 -8h-435q-20 0 -29.5 8t-9.5 23q0 10 6 18t20 13l38 10q16 5 22 17t6 38v614q0 18 -6 26.5t-19 10.5l-44 3q-13 3 -19 10t-6 18q0 13 7.5 20t26.5 14l263 84q30 11 46.5 15.5
t30.5 4.5q24 0 36.5 -13.5t12.5 -34.5zM295 1054q-88 0 -140.5 48t-52.5 124q0 75 53 123t140 48q88 0 141.5 -48t53.5 -123q0 -76 -53.5 -124t-141.5 -48zM1071 211q0 -63 15 -116t35 -100.5t35 -95.5t15 -101q0 -120 -82.5 -190.5t-226.5 -70.5q-107 0 -179.5 31
t-109.5 83t-37 114q0 77 39.5 114t104.5 37t104.5 -43t39.5 -113v-88q0 -40 17.5 -58.5t51.5 -18.5q44 0 67 26.5t23 78.5t-24.5 98.5t-60 91.5t-71.5 88.5t-60.5 88.5t-24.5 93v581q0 19 -6 27t-19 10l-44 3q-13 3 -19 10t-6 18q0 13 7.5 20t26.5 14l263 84
q30 11 46.5 15.5t30.5 4.5q25 0 37 -13.5t12 -34.5v-688zM891 1054q-87 0 -140 48t-53 124q0 75 53 123t140 48q88 0 141.5 -48t53.5 -123q0 -76 -53.5 -124t-141.5 -48z" />
    <glyph glyph-name="Jcircumflex" unicode="&#x134;" horiz-adv-x="987" 
d="M866 265q0 -134 -117 -215t-319 -81q-185 0 -287.5 71t-102.5 188q0 79 43 127.5t120 48.5q63 0 104.5 -46t41.5 -128v-87q0 -51 23.5 -80.5t75.5 -29.5t84 35.5t32 100.5q0 53 -25 101.5t-58.5 104t-58.5 127t-25 170.5v589q0 23 -9.5 36.5t-32.5 17.5l-68 12
q-19 4 -28 13t-9 25q0 17 11.5 26t33.5 9h561q24 0 35 -9t11 -25q0 -26 -38 -39l-51 -12q-22 -6 -33.5 -17t-11.5 -31v-580q0 -75 15 -130t34 -100t34 -90.5t15 -101.5zM656 1640h-154l323 -156q34 -19 53 -3q8 6 8.5 18t-12.5 26l-225 243q-18 19 -32.5 29.5t-37.5 10.5
q-22 0 -36.5 -10.5t-33.5 -29.5l-225 -243q-13 -14 -12 -26t9 -18q18 -16 52 3z" />
    <glyph glyph-name="jcircumflex" unicode="&#x135;" horiz-adv-x="596" 
d="M472 211q0 -64 15 -117.5t34 -101.5t34 -96.5t15 -102.5q0 -120 -81 -190.5t-221 -70.5q-105 0 -175.5 31.5t-106.5 83.5t-36 113q0 75 38.5 111.5t101.5 36.5q64 0 103.5 -42t39.5 -110v-89q0 -39 16 -58t48 -19q42 0 64 26.5t22 79.5q0 51 -24 98.5t-59 92.5
t-70.5 89.5t-59.5 90t-24 93.5v584q0 19 -6 26.5t-19 10.5l-44 2q-12 4 -18.5 10.5t-6.5 17.5q0 22 34 33l281 87q25 8 39 11.5t30 3.5q17 0 26.5 -10t9.5 -27v-698zM345.829 1216h-126.359l264.869 -206q12.1494 -10 24.2998 -10q12.1494 0 18.6299 7q6.47949 7 6.88477 19
t-10.125 26l-184.68 287q-13.7695 20 -25.9199 30.5q-12.1494 10.5 -30.7793 10.5q-17.8203 0 -30.7803 -10.5t-26.7295 -30.5l-184.68 -287q-9.71973 -14 -9.31543 -26q0.405273 -12 6.0752 -19q8.10059 -7 19.8447 -7q11.7451 0 23.8955 10z" />
    <glyph glyph-name="Kcommaaccent" unicode="&#x136;" horiz-adv-x="1563" 
d="M498 547l533 541q54 53 70 99.5t-0.5 81t-63.5 50.5l-38 10q-16 6 -23.5 14.5t-7.5 22.5q0 16 11 25t33 9h435q23 0 33.5 -9t10.5 -25q0 -14 -9 -22t-33 -17q-21 -8 -44 -21t-56 -38.5t-82.5 -70.5t-125.5 -118l-610 -604zM701 720l278 248l455 -811q23 -42 43 -60
t49 -22q18 -7 25 -17.5t7 -23.5q0 -16 -11 -25t-34 -9h-535q-22 0 -33 9.5t-11 25.5q0 14 7 23t20 12l49 10q17 4 19.5 20t-17.5 52zM590 131q0 -19 10.5 -29.5t31.5 -17.5l53 -12q19 -7 25.5 -15.5t6.5 -22.5q0 -15 -11 -24.5t-34 -9.5h-545q-23 0 -34 9.5t-11 24.5
q0 28 32 38l57 12q24 6 35.5 17t11.5 30v1138q0 19 -11.5 30t-35.5 17l-57 12q-32 10 -32 38q0 16 11 25t34 9h554q23 0 33.5 -9t10.5 -25q0 -28 -31 -38l-58 -12q-22 -6 -34 -17t-12 -30v-1138zM804 -337q-73 0 -107 35t-34 85q0 59 42.5 96t107.5 37q72 0 115.5 -44
t43.5 -129q0 -115 -65 -187.5t-193 -96.5q-18 -4 -28 1.5t-13 17.5q-3 11 3 20t22 13q63 10 104.5 32.5t62.5 49.5t21 49q0 21 -24 21h-58z" />
    <glyph glyph-name="kcommaaccent" unicode="&#x137;" horiz-adv-x="1185" 
d="M89 0q-20 0 -29 8t-9 23q0 10 6 18t21 13l38 10q15 5 21 17t6 38v1165q0 19 -6 27t-19 10l-44 3q-13 3 -18.5 10t-5.5 18q0 13 7 20t26 14l263 84q29 11 45.5 15.5t32.5 4.5q24 0 36 -13.5t12 -34.5v-1323q0 -26 6.5 -38t21.5 -17l37 -10q22 -10 22 -30q0 -32 -40 -32
h-430zM395 390l386 345q41 37 32.5 71.5t-58.5 48.5l-34 9q-14 5 -19 12t-5 17q0 15 10.5 23t27.5 8h383q18 0 28.5 -8t10.5 -22q0 -13 -8.5 -22t-36.5 -16q-67 -15 -123 -46.5t-120 -88.5l-445 -390zM750 677l349 -555q16 -24 30.5 -35.5t36.5 -21.5q16 -9 23 -17.5
t7 -19.5q0 -13 -10 -20.5t-27 -7.5h-462q-16 0 -25.5 8t-9.5 22q0 10 5 16.5t17 11.5l32 9q23 6 26.5 20t-14.5 42l-202 334zM609 -337q-73 0 -107 35t-34 85q0 59 42.5 96t107.5 37q72 0 115.5 -44t43.5 -129q0 -115 -65 -187.5t-193 -96.5q-18 -4 -28 1.5t-13 17.5
q-3 11 3 20t22 13q63 10 104.5 32.5t62.5 49.5t21 49q0 21 -24 21h-58z" />
    <glyph glyph-name="kra" unicode="&#x138;" horiz-adv-x="1184" 
d="M89 0q-18 0 -27.5 8t-9.5 22q0 11 6.5 19t19.5 13l38 10q14 6 20.5 18t6.5 37v618q0 18 -6 26t-19 11l-44 2q-12 4 -18 10.5t-6 16.5q0 22 33 34l282 87q25 8 38.5 11.5t29.5 3.5q17 0 26.5 -10.5t9.5 -26.5v-783q0 -27 6.5 -39.5t21.5 -18.5l37 -10q23 -10 23 -29
q0 -30 -35 -30h-433zM397 379l386 356q40 39 30.5 72.5t-58.5 47.5l-35 9q-10 6 -15 13t-5 16q0 15 10 23t28 8h382q18 0 28.5 -8t10.5 -23q0 -12 -9 -21.5t-36 -15.5q-66 -15 -123 -46t-120 -89l-445 -400zM752 676l344 -554q16 -24 29.5 -35t35.5 -21q16 -10 24 -18.5
t8 -19.5q0 -13 -10 -20.5t-28 -7.5h-462q-15 0 -24.5 8t-9.5 22q0 10 4.5 16.5t15.5 10.5l34 10q27 9 27.5 22.5t-16.5 39.5l-196 334z" />
    <glyph glyph-name="Lacute" unicode="&#x139;" horiz-adv-x="1233" 
d="M693 1328l-57 -12q-23 -6 -35 -17t-12 -30v-1134q0 -33 17.5 -46t50.5 -13h122q52 0 96 17.5t85.5 64.5t85.5 135l87 172q9 18 22 24.5t29 1.5q18 -5 25 -17.5t1 -33.5l-95 -412q-9 -32 -21 -45.5t-34 -13.5q-15 0 -34 7.5t-44 15.5t-60 8h-796q-22 0 -33 9.5t-11 24.5
q0 28 32 38l57 12q23 6 35 17t12 30v1138q0 19 -12 30t-35 17l-57 12q-32 10 -32 38q0 16 11 25t33 9h555q23 0 33.5 -9t10.5 -25q0 -28 -32 -38zM590 1713q34 56 74.5 85.5t90.5 22.5q51 -6 77.5 -44.5t20.5 -77.5q-6 -57 -45.5 -88.5t-97.5 -52.5l-207 -83
q-10 -3 -22.5 -2.5t-18.5 8.5q-7 8 -4.5 18t9.5 20z" />
    <glyph glyph-name="lacute" unicode="&#x13a;" horiz-adv-x="607" 
d="M477 1450v-1323q0 -26 6.5 -38t21.5 -17l37 -10q15 -5 21 -12.5t6 -18.5q0 -15 -9.5 -23t-30.5 -8h-435q-19 0 -29 8t-10 23q0 10 6.5 18t21.5 13l37 10q15 5 21.5 17t6.5 38v1165q0 19 -6 27t-19 10l-44 3q-13 3 -19 10t-6 18q0 13 7.5 20t26.5 14l263 84
q30 11 46.5 15.5t29.5 4.5q25 0 37.5 -13.5t12.5 -34.5zM337 1743q34 56 74.5 85.5t90.5 22.5q51 -6 77.5 -44.5t20.5 -77.5q-6 -57 -45.5 -88.5t-97.5 -52.5l-207 -83q-10 -3 -22.5 -2.5t-18.5 8.5q-7 8 -4.5 18t9.5 20z" />
    <glyph glyph-name="Lcommaaccent" unicode="&#x13b;" horiz-adv-x="1233" 
d="M693 1328l-57 -12q-23 -6 -35 -17t-12 -30v-1134q0 -33 17.5 -46t50.5 -13h122q52 0 96 17.5t85.5 64.5t85.5 135l87 172q9 18 22 24.5t29 1.5q18 -5 25 -17.5t1 -33.5l-95 -412q-9 -32 -21 -45.5t-34 -13.5q-15 0 -34 7.5t-44 15.5t-60 8h-796q-22 0 -33 9.5t-11 24.5
q0 28 32 38l57 12q23 6 35 17t12 30v1138q0 19 -12 30t-35 17l-57 12q-32 10 -32 38q0 16 11 25t33 9h555q23 0 33.5 -9t10.5 -25q0 -28 -32 -38zM606 -337q-73 0 -107 35t-34 85q0 59 42.5 96t107.5 37q72 0 115.5 -44t43.5 -129q0 -115 -65 -187.5t-193 -96.5
q-18 -4 -28 1.5t-13 17.5q-3 11 3 20t22 13q63 10 104.5 32.5t62.5 49.5t21 49q0 21 -24 21h-58z" />
    <glyph glyph-name="lcommaaccent" unicode="&#x13c;" horiz-adv-x="607" 
d="M477 1450v-1323q0 -26 6.5 -38t21.5 -17l37 -10q15 -5 21 -12.5t6 -18.5q0 -15 -9.5 -23t-30.5 -8h-435q-19 0 -29 8t-10 23q0 10 6.5 18t21.5 13l37 10q15 5 21.5 17t6.5 38v1165q0 19 -6 27t-19 10l-44 3q-13 3 -19 10t-6 18q0 13 7.5 20t26.5 14l263 84
q30 11 46.5 15.5t29.5 4.5q25 0 37.5 -13.5t12.5 -34.5zM303 -337q-73 0 -107 35t-34 85q0 59 42.5 96t107.5 37q72 0 115.5 -44t43.5 -129q0 -115 -65 -187.5t-193 -96.5q-18 -4 -28 1.5t-13 17.5q-3 11 3 20t22 13q63 10 104.5 32.5t62.5 49.5t21 49q0 21 -24 21h-58z" />
    <glyph glyph-name="Lcaron" unicode="&#x13d;" horiz-adv-x="1233" 
d="M693 1328l-57 -12q-23 -6 -35 -17t-12 -30v-1134q0 -33 17.5 -46t50.5 -13h122q52 0 96 17.5t85.5 64.5t85.5 135l87 172q9 18 22 24.5t29 1.5q18 -5 25 -17.5t1 -33.5l-95 -412q-9 -32 -21 -45.5t-34 -13.5q-15 0 -34 7.5t-44 15.5t-60 8h-796q-22 0 -33 9.5t-11 24.5
q0 28 32 38l57 12q23 6 35 17t12 30v1138q0 19 -12 30t-35 17l-57 12q-32 10 -32 38q0 16 11 25t33 9h555q23 0 33.5 -9t10.5 -25q0 -28 -32 -38zM834 1318q5 70 30.5 115.5t77.5 53.5q53 11 88.5 -16.5t41.5 -65.5q9 -48 -10.5 -88.5t-57.5 -80.5l-139 -167
q-7 -8 -17.5 -11t-19.5 0q-10 6 -11.5 15.5t-0.5 20.5z" />
    <glyph glyph-name="lcaron" unicode="&#x13e;" horiz-adv-x="607" 
d="M477 1450v-1323q0 -26 6.5 -38t21.5 -17l37 -10q15 -5 21 -12.5t6 -18.5q0 -15 -9.5 -23t-30.5 -8h-435q-19 0 -29 8t-10 23q0 10 6.5 18t21.5 13l37 10q15 5 21.5 17t6.5 38v1165q0 19 -6 27t-19 10l-44 3q-13 3 -19 10t-6 18q0 13 7.5 20t26.5 14l263 84
q30 11 46.5 15.5t29.5 4.5q25 0 37.5 -13.5t12.5 -34.5zM602 1357q5 70 30.5 115.5t77.5 53.5q53 11 88.5 -16.5t41.5 -65.5q9 -48 -10.5 -88.5t-57.5 -80.5l-139 -167q-7 -8 -17.5 -11t-19.5 0q-10 6 -11.5 15.5t-0.5 20.5z" />
    <glyph glyph-name="Ldot" unicode="&#x13f;" horiz-adv-x="1233" 
d="M693 1328l-57 -12q-23 -6 -35 -17t-12 -30v-1134q0 -33 17.5 -46t50.5 -13h122q52 0 96 17.5t85.5 64.5t85.5 135l87 172q9 18 22 24.5t29 1.5q18 -5 25 -17.5t1 -33.5l-95 -412q-9 -32 -21 -45.5t-34 -13.5q-15 0 -34 7.5t-44 15.5t-60 8h-796q-22 0 -33 9.5t-11 24.5
q0 28 32 38l57 12q23 6 35 17t12 30v1138q0 19 -12 30t-35 17l-57 12q-32 10 -32 38q0 16 11 25t33 9h555q23 0 33.5 -9t10.5 -25q0 -28 -32 -38zM1060 644q-78 0 -124.5 42t-46.5 112q0 69 46.5 111.5t124.5 42.5q80 0 126 -42.5t46 -111.5t-46 -111.5t-126 -42.5z" />
    <glyph glyph-name="ldot" unicode="&#x140;" horiz-adv-x="887" 
d="M477 1450v-1323q0 -26 6.5 -38t21.5 -17l37 -10q15 -5 21 -12.5t6 -18.5q0 -15 -9.5 -23t-30.5 -8h-435q-19 0 -29 8t-10 23q0 10 6.5 18t21.5 13l37 10q15 5 21.5 17t6.5 38v1165q0 19 -6 27t-19 10l-44 3q-13 3 -19 10t-6 18q0 13 7.5 20t26.5 14l263 84
q30 11 46.5 15.5t29.5 4.5q25 0 37.5 -13.5t12.5 -34.5zM753 556q-77 0 -123 42.5t-46 113.5t46 113.5t123 42.5q78 0 123 -42.5t45 -113.5q0 -70 -45 -113t-123 -43z" />
    <glyph glyph-name="Lslash" unicode="&#x141;" horiz-adv-x="1237" 
d="M57 497q-6 10 -1.5 20t16.5 16l781 416q13 7 24 3.5t17 -13.5q5 -11 1 -21t-17 -16l-782 -417q-12 -6 -23 -3t-16 15zM694 1328l-57 -12q-23 -6 -35 -17t-12 -30v-1134q0 -33 17.5 -46t50.5 -13h122q52 0 95.5 17.5t85.5 64.5t86 135l87 172q9 18 21.5 24.5t29.5 1.5
q18 -5 25 -17.5t1 -33.5l-95 -412q-9 -32 -21 -45.5t-34 -13.5q-16 0 -34.5 7.5t-43.5 15.5t-60 8h-796q-22 0 -33 9.5t-11 24.5q0 28 32 38l57 12q23 6 35 17t12 30v1138q0 19 -12 30t-35 17l-57 12q-32 10 -32 38q0 16 11 25t33 9h555q22 0 33 -9t11 -25q0 -28 -32 -38z
" />
    <glyph glyph-name="lslash" unicode="&#x142;" horiz-adv-x="607" 
d="M12 559q-7 10 -5.5 21t11.5 19l234 187l111 58l218 179q10 8 22 7t20 -10q8 -10 6.5 -20t-12.5 -19l-230 -188l-111 -58l-223 -179q-22 -17 -41 3zM477 1450v-1323q0 -26 6.5 -38t21.5 -17l37 -10q15 -5 21 -12.5t6 -18.5q0 -15 -9.5 -23t-30.5 -8h-435q-19 0 -29 8
t-10 23q0 10 6.5 18t21.5 13l37 10q15 5 21.5 17t6.5 38v1165q0 19 -6 27t-19 10l-44 3q-13 3 -19 10t-6 18q0 13 7.5 20t26.5 14l263 84q30 11 46.5 15.5t29.5 4.5q25 0 37.5 -13.5t12.5 -34.5z" />
    <glyph glyph-name="Nacute" unicode="&#x143;" horiz-adv-x="1459" 
d="M490 34q0 -15 -11 -24.5t-33 -9.5h-350q-23 0 -33.5 9.5t-10.5 24.5q0 26 32 39l37 12q50 18 77 49t27 92v883q0 25 -4.5 39t-23.5 39l-87 132q-12 18 -18.5 29.5t-6.5 21.5q0 14 10.5 22t27.5 8h331q21 0 35.5 -8.5t29.5 -30.5l686 -1065l-37 -97v975q0 60 -26 91.5
t-78 49.5l-44 12q-32 15 -32 39q0 16 10.5 25t32.5 9h351q22 0 33 -9t11 -25q0 -25 -33 -39l-37 -12q-50 -17 -77 -48.5t-27 -92.5v-899q0 -25 5 -44.5t16 -34.5l67 -102q18 -25 22.5 -37.5t4.5 -23.5q0 -15 -11 -24t-30 -9h-344q-38 0 -38 32q0 12 -4.5 25t-23.5 39
l-694 1067l87 42v-979q0 -60 26.5 -91t77.5 -50l44 -12q33 -14 33 -39zM855 1713q34 56 74.5 85.5t90.5 22.5q51 -6 77.5 -44.5t20.5 -77.5q-6 -57 -45.5 -88.5t-97.5 -52.5l-207 -83q-10 -3 -22.5 -2.5t-18.5 8.5q-7 8 -4.5 18t9.5 20z" />
    <glyph glyph-name="nacute" unicode="&#x144;" horiz-adv-x="1213" 
d="M472 899v-772q0 -26 6.5 -38t21.5 -17l37 -10q22 -10 22 -30q0 -32 -40 -32h-429q-20 0 -29.5 8t-9.5 23q0 10 6 18t20 13l39 10q15 5 21 17t6 38v614q0 18 -6 26.5t-19 10.5l-44 3q-13 3 -18.5 10t-5.5 18q0 13 7 20t26 14l263 84q29 11 45.5 15.5t32.5 4.5
q24 0 36 -13.5t12 -34.5zM443 676l-34 35l36 33q119 107 206 155.5t161 48.5q110 0 171.5 -71.5t74.5 -200.5l60 -547q3 -27 9 -40t21 -18l36 -9q14 -5 20 -13t6 -18q0 -15 -9 -23t-30 -8h-435q-41 0 -41 32q0 20 23 30l37 10q17 5 24.5 18t4.5 39l-51 505q-8 71 -34 105.5
t-79 34.5q-34 0 -69 -17t-71 -49zM666 1276q27 69 65 107t96 33q57 -4 85 -41.5t24 -77.5q-4 -51 -35.5 -87t-84.5 -67l-190 -127q-11 -5 -23 -5t-20 7q-8 9 -6.5 18.5t7.5 20.5z" />
    <glyph glyph-name="Ncommaaccent" unicode="&#x145;" horiz-adv-x="1459" 
d="M490 34q0 -15 -11 -24.5t-33 -9.5h-350q-23 0 -33.5 9.5t-10.5 24.5q0 26 32 39l37 12q50 18 77 49t27 92v883q0 25 -4.5 39t-23.5 39l-87 132q-12 18 -18.5 29.5t-6.5 21.5q0 14 10.5 22t27.5 8h331q21 0 35.5 -8.5t29.5 -30.5l686 -1065l-37 -97v975q0 60 -26 91.5
t-78 49.5l-44 12q-32 15 -32 39q0 16 10.5 25t32.5 9h351q22 0 33 -9t11 -25q0 -25 -33 -39l-37 -12q-50 -17 -77 -48.5t-27 -92.5v-899q0 -25 5 -44.5t16 -34.5l67 -102q18 -25 22.5 -37.5t4.5 -23.5q0 -15 -11 -24t-30 -9h-344q-38 0 -38 32q0 12 -4.5 25t-23.5 39
l-694 1067l87 42v-979q0 -60 26.5 -91t77.5 -50l44 -12q33 -14 33 -39zM726 -337q-73 0 -107 35t-34 85q0 59 42.5 96t107.5 37q72 0 115.5 -44t43.5 -129q0 -115 -65 -187.5t-193 -96.5q-18 -4 -28 1.5t-13 17.5q-3 11 3 20t22 13q63 10 104.5 32.5t62.5 49.5t21 49
q0 21 -24 21h-58z" />
    <glyph glyph-name="ncommaaccent" unicode="&#x146;" horiz-adv-x="1213" 
d="M472 899v-772q0 -26 6.5 -38t21.5 -17l37 -10q22 -10 22 -30q0 -32 -40 -32h-429q-20 0 -29.5 8t-9.5 23q0 10 6 18t20 13l39 10q15 5 21 17t6 38v614q0 18 -6 26.5t-19 10.5l-44 3q-13 3 -18.5 10t-5.5 18q0 13 7 20t26 14l263 84q29 11 45.5 15.5t32.5 4.5
q24 0 36 -13.5t12 -34.5zM443 676l-34 35l36 33q119 107 206 155.5t161 48.5q110 0 171.5 -71.5t74.5 -200.5l60 -547q3 -27 9 -40t21 -18l36 -9q14 -5 20 -13t6 -18q0 -15 -9 -23t-30 -8h-435q-41 0 -41 32q0 20 23 30l37 10q17 5 24.5 18t4.5 39l-51 505q-8 71 -34 105.5
t-79 34.5q-34 0 -69 -17t-71 -49zM616 -337q-73 0 -107 35t-34 85q0 59 42.5 96t107.5 37q72 0 115.5 -44t43.5 -129q0 -115 -65 -187.5t-193 -96.5q-18 -4 -28 1.5t-13 17.5q-3 11 3 20t22 13q63 10 104.5 32.5t62.5 49.5t21 49q0 21 -24 21h-58z" />
    <glyph glyph-name="Ncaron" unicode="&#x147;" horiz-adv-x="1459" 
d="M490 34q0 -15 -11 -24.5t-33 -9.5h-350q-23 0 -33.5 9.5t-10.5 24.5q0 26 32 39l37 12q50 18 77 49t27 92v883q0 25 -4.5 39t-23.5 39l-87 132q-12 18 -18.5 29.5t-6.5 21.5q0 14 10.5 22t27.5 8h331q21 0 35.5 -8.5t29.5 -30.5l686 -1065l-37 -97v975q0 60 -26 91.5
t-78 49.5l-44 12q-32 15 -32 39q0 16 10.5 25t32.5 9h351q22 0 33 -9t11 -25q0 -25 -33 -39l-37 -12q-50 -17 -77 -48.5t-27 -92.5v-899q0 -25 5 -44.5t16 -34.5l67 -102q18 -25 22.5 -37.5t4.5 -23.5q0 -15 -11 -24t-30 -9h-344q-38 0 -38 32q0 12 -4.5 25t-23.5 39
l-694 1067l87 42v-979q0 -60 26.5 -91t77.5 -50l44 -12q33 -14 33 -39zM860 1639l-323 157q-34 18 -52 3q-8 -6 -9 -18t12 -26l225 -244q19 -18 33.5 -29t36.5 -11q23 0 37.5 11t32.5 29l225 244q13 14 12 26t-8 18q-19 15 -53 -3l-323 -157h154z" />
    <glyph glyph-name="ncaron" unicode="&#x148;" horiz-adv-x="1213" 
d="M472 899v-772q0 -26 6.5 -38t21.5 -17l37 -10q22 -10 22 -30q0 -32 -40 -32h-429q-20 0 -29.5 8t-9.5 23q0 10 6 18t20 13l39 10q15 5 21 17t6 38v614q0 18 -6 26.5t-19 10.5l-44 3q-13 3 -18.5 10t-5.5 18q0 13 7 20t26 14l263 84q29 11 45.5 15.5t32.5 4.5
q24 0 36 -13.5t12 -34.5zM443 676l-34 35l36 33q119 107 206 155.5t161 48.5q110 0 171.5 -71.5t74.5 -200.5l60 -547q3 -27 9 -40t21 -18l36 -9q14 -5 20 -13t6 -18q0 -15 -9 -23t-30 -8h-435q-41 0 -41 32q0 20 23 30l37 10q17 5 24.5 18t4.5 39l-51 505q-8 71 -34 105.5
t-79 34.5q-34 0 -69 -17t-71 -49zM699 1165l-327 206q-15 11 -29.5 11t-24.5 -8q-7 -6 -7.5 -18t11.5 -26l228 -287q17 -20 33 -30.5t38 -10.5q23 0 38 10.5t32 30.5l228 287q13 14 12.5 26t-8.5 18q-8 8 -23 8t-30 -11l-327 -206h156z" />
    <glyph glyph-name="Eng" unicode="&#x14a;" horiz-adv-x="1445" 
d="M833 238l-567 881l43 42v-935q0 -61 28.5 -93t75.5 -48l44 -12q33 -15 33 -39q0 -15 -11 -24.5t-33 -9.5h-350q-23 0 -33.5 9.5t-10.5 24.5q0 24 33 39l36 12q47 16 75.5 48t28.5 93v883q0 29 -5 42.5t-21 33.5l-86 136q-12 16 -21 27t-9 24t10.5 20.5t27.5 7.5h334
q19 0 33 -5.5t32 -27.5l671 -1082l-26 -62v951q0 61 -28.5 93.5t-76.5 47.5l-43 12q-33 15 -33 39q0 16 10.5 25t32.5 9h351q22 0 33 -9t11 -25q0 -24 -33 -39l-37 -12q-47 -15 -75.5 -47.5t-28.5 -93.5l2 -1352q0 -139 -77.5 -211t-199.5 -72q-112 0 -181.5 31t-101.5 81.5
t-32 110.5q0 74 38 110t101 36t102 -41.5t39 -108.5v-87q0 -39 15.5 -57t48.5 -18q76 0 123.5 50.5t47.5 146.5q0 69 -22.5 115t-60 80t-83 66.5t-91 75.5t-83.5 108z" />
    <glyph glyph-name="eng" unicode="&#x14b;" horiz-adv-x="1192" 
d="M469 910v-783q0 -27 6.5 -39.5t21.5 -18.5l37 -10q23 -10 23 -29q0 -30 -35 -30h-432q-18 0 -28 8t-10 22q0 11 6.5 19t18.5 13l39 10q14 6 20.5 18t6.5 37v617q0 18 -6 26t-19 11l-44 2q-12 4 -18 10.5t-6 17.5q0 21 33 33l282 87q25 8 38.5 11.5t29.5 3.5
q17 0 26.5 -10t9.5 -26zM745 160v464q0 76 -33.5 112t-93.5 36q-37 0 -76.5 -15t-78.5 -50l-38 -33l-34 36l43 39q120 107 214 152t173 45q111 0 180.5 -68.5t69.5 -202.5l-2 -464q0 -64 15 -117.5t34.5 -101.5t34 -96.5t14.5 -102.5q0 -120 -80.5 -190.5t-221.5 -70.5
q-105 0 -175.5 31.5t-106.5 83.5t-36 113q0 75 39 111.5t101 36.5q65 0 104.5 -42t39.5 -110v-89q0 -39 16 -58t47 -19q42 0 64 26.5t22 79.5q0 51 -23.5 98.5t-58.5 92.5t-70.5 89.5t-59 90t-23.5 93.5z" />
    <glyph glyph-name="Omacron" unicode="&#x14c;" horiz-adv-x="1546" 
d="M764 1429q166 0 298.5 -52.5t227 -150t145 -231.5t50.5 -296q0 -159 -49.5 -292.5t-142.5 -231.5t-223 -151.5t-290 -53.5q-164 0 -297 52.5t-227.5 150.5t-145 233.5t-50.5 301.5q0 156 50.5 288t143.5 229t222.5 150.5t287.5 53.5zM1106 450q0 140 -23 272t-63.5 246
t-94 200t-114.5 134.5t-126 48.5q-75 0 -130 -45.5t-84.5 -133.5t-29.5 -216q0 -141 23 -274t63.5 -248t93.5 -201.5t114.5 -135.5t125.5 -49q78 0 133 45t83.5 134.5t28.5 222.5zM483 1607q0 37 12.5 52t38.5 15h478q27 0 39 -14.5t12 -51.5q0 -36 -12 -51t-39 -15h-478
q-26 0 -38.5 15t-12.5 50z" />
    <glyph glyph-name="omacron" unicode="&#x14d;" 
d="M570 947q151 0 265.5 -61.5t179 -172t64.5 -254.5q0 -139 -67 -248t-184 -171.5t-271 -62.5q-151 0 -265.5 61.5t-178.5 171t-64 252.5q0 140 67 249.5t184 172.5t270 63zM634 52q51 8 80.5 58t35 144t-17.5 233q-22 137 -57 225t-80.5 128t-99.5 31q-51 -8 -81 -58.5
t-34.5 -144t18.5 -232.5q22 -136 57 -224t80.5 -128t98.5 -32zM270 1144q0 37 12.5 52t38.5 15h485q27 0 39.5 -14t12.5 -52q0 -37 -12.5 -52.5t-39.5 -15.5h-485q-26 0 -38.5 15.5t-12.5 51.5z" />
    <glyph glyph-name="Obreve" unicode="&#x14e;" horiz-adv-x="1546" 
d="M764 1429q166 0 298.5 -52.5t227 -150t145 -231.5t50.5 -296q0 -159 -49.5 -292.5t-142.5 -231.5t-223 -151.5t-290 -53.5q-164 0 -297 52.5t-227.5 150.5t-145 233.5t-50.5 301.5q0 156 50.5 288t143.5 229t222.5 150.5t287.5 53.5zM1106 450q0 140 -23 272t-63.5 246
t-94 200t-114.5 134.5t-126 48.5q-75 0 -130 -45.5t-84.5 -133.5t-29.5 -216q0 -141 23 -274t63.5 -248t93.5 -201.5t114.5 -135.5t125.5 -49q78 0 133 45t83.5 134.5t28.5 222.5zM773 1653q75 0 125.5 27t83.5 86q8 11 15.5 16.5t16.5 5.5q15 0 22.5 -11t5.5 -30
q-10 -132 -84 -201.5t-185 -69.5q-110 0 -184.5 69.5t-84.5 201.5q-2 19 6 30t22 11q10 0 17.5 -5.5t15.5 -16.5q34 -62 86.5 -87.5t121.5 -25.5z" />
    <glyph glyph-name="obreve" unicode="&#x14f;" 
d="M570 947q151 0 265.5 -61.5t179 -172t64.5 -254.5q0 -139 -67 -248t-184 -171.5t-271 -62.5q-151 0 -265.5 61.5t-178.5 171t-64 252.5q0 140 67 249.5t184 172.5t270 63zM634 52q51 8 80.5 58t35 144t-17.5 233q-22 137 -57 225t-80.5 128t-99.5 31q-51 -8 -81 -58.5
t-34.5 -144t18.5 -232.5q22 -136 57 -224t80.5 -128t98.5 -32zM563 1198q76 0 125.5 32.5t86.5 97.5q14 22 32 22q15 0 23 -11t6 -30q-11 -147 -86.5 -222t-186.5 -75q-108 0 -184 75t-88 222q-2 19 6 30t23 11q19 0 33 -22q38 -69 89.5 -99.5t120.5 -30.5z" />
    <glyph glyph-name="Ohungarumlaut" unicode="&#x150;" horiz-adv-x="1546" 
d="M764 1429q166 0 298.5 -52.5t227 -150t145 -231.5t50.5 -296q0 -159 -49.5 -292.5t-142.5 -231.5t-223 -151.5t-290 -53.5q-164 0 -297 52.5t-227.5 150.5t-145 233.5t-50.5 301.5q0 156 50.5 288t143.5 229t222.5 150.5t287.5 53.5zM1106 450q0 140 -23 272t-63.5 246
t-94 200t-114.5 134.5t-126 48.5q-75 0 -130 -45.5t-84.5 -133.5t-29.5 -216q0 -141 23 -274t63.5 -248t93.5 -201.5t114.5 -135.5t125.5 -49q78 0 133 45t83.5 134.5t28.5 222.5zM646 1711q27 59 62 92t84 30q47 -2 77 -34t27 -75q-2 -48 -34.5 -82t-83.5 -61l-181 -100
q-9 -5 -20 -5.5t-18 5.5q-8 7 -6.5 16t5.5 19zM969 1711q29 59 65 91t85 27q47 -4 75.5 -36.5t25.5 -74.5q-4 -49 -37.5 -81.5t-84.5 -58.5l-182 -98q-11 -5 -21.5 -5t-16.5 6q-8 8 -6.5 17t7.5 19z" />
    <glyph glyph-name="ohungarumlaut" unicode="&#x151;" 
d="M570 947q151 0 265.5 -61.5t179 -172t64.5 -254.5q0 -139 -67 -248t-184 -171.5t-271 -62.5q-151 0 -265.5 61.5t-178.5 171t-64 252.5q0 140 67 249.5t184 172.5t270 63zM634 52q51 8 80.5 58t35 144t-17.5 233q-22 137 -57 225t-80.5 128t-99.5 31q-51 -8 -81 -58.5
t-34.5 -144t18.5 -232.5q22 -136 57 -224t80.5 -128t98.5 -32zM428 1266q16 67 48 107t85 42q53 3 83 -28t32 -69q1 -48 -23.5 -85t-69.5 -72l-160 -138q-10 -6 -21 -7.5t-19 4.5q-9 6 -9 15t4 20zM749 1269q18 67 51.5 105.5t84.5 39.5q54 1 83 -30.5t30 -69.5
q1 -48 -25.5 -84.5t-71.5 -69.5l-162 -135q-10 -6 -21.5 -7.5t-18.5 5.5q-9 7 -8 16t5 19z" />
    <glyph glyph-name="OE" unicode="&#x152;" horiz-adv-x="2020" 
d="M868 1400h805q33 0 56.5 8t42 16t37.5 8q21 0 32.5 -13.5t20.5 -45.5l87 -330q6 -21 0.5 -33t-21.5 -18q-18 -6 -32 0.5t-25 25.5q-59 95 -106.5 155.5t-91 93.5t-87 45t-95.5 12h-170v-1167q0 -41 21.5 -61t63.5 -20h108q67 0 125.5 29t122.5 109.5t145 235.5
q9 18 21.5 24t28.5 3q17 -3 25 -16.5t2 -35.5l-99 -397q-9 -31 -20.5 -45t-35.5 -14q-17 0 -35.5 8t-43 15.5t-58.5 7.5h-833q-254 1 -433 82t-272.5 236.5t-93.5 377.5q0 216 98 374t279 244t431 86zM485 717q0 -229 52.5 -370t143 -205.5t203.5 -64.5h81v1247h-76
q-128 0 -218 -69t-138 -204.5t-48 -333.5zM1216 757h251q50 0 81 13t49 46t30 92q8 35 37 35q28 1 36 -33l94 -336q9 -38 -20 -48q-30 -11 -50 16q-40 57 -72.5 87.5t-69 42t-88.5 11.5h-278v74z" />
    <glyph glyph-name="oe" unicode="&#x153;" horiz-adv-x="1703" 
d="M626 54q47 7 74.5 58t33 145.5t-16.5 229.5q-23 136 -57 224t-77.5 127t-93.5 31q-46 -7 -74 -58t-33 -144.5t17 -229.5t56.5 -224t78 -127t92.5 -32zM545 946q126 0 222 -54t143 -140l32 -547q-37 -68 -95.5 -119.5t-134 -80t-164.5 -28.5q-147 0 -259.5 61.5
t-176 170.5t-63.5 253q0 139 64 248t176 172.5t256 63.5zM1652 550q0 -33 -21 -51t-62 -18h-612v53h336q36 0 36 36q0 157 -42 230.5t-98 73.5q-43 0 -77.5 -31.5t-54.5 -99.5t-20 -178q0 -199 85 -295.5t225 -96.5q95 0 163.5 47.5t87.5 127.5q17 18 29 17q9 0 15.5 -6
t6.5 -20q-3 -100 -58.5 -182t-151 -131t-218.5 -49q-131 0 -230 59.5t-154 165.5t-55 245q0 149 54.5 261.5t156 175t242.5 62.5q128 0 221.5 -52t144.5 -142t51 -202z" />
    <glyph glyph-name="Racute" unicode="&#x154;" horiz-adv-x="1498" 
d="M1383 910q0 -97 -44.5 -176t-125.5 -132t-195 -73q-35 -6 -67 -13t-64.5 -11.5t-71.5 -4.5q-72 0 -128 9.5t-98.5 27t-78.5 42.5l7 66q29 -22 62.5 -36.5t72 -21.5t84.5 -7q124 0 196.5 77t72.5 239q0 126 -46 224t-125.5 154t-179.5 56h-65v-1191q0 -23 10.5 -35.5
t32.5 -19.5l58 -12q18 -7 24.5 -15.5t6.5 -22.5q0 -34 -44 -34h-551q-22 0 -33 9.5t-11 24.5q0 28 32 38l57 12q24 7 35.5 19.5t11.5 35.5v1130q0 19 -12 30t-35 17l-57 12q-32 10 -32 38q0 16 11 25t33 9h535q228 0 389.5 -61.5t247 -171.5t85.5 -257zM755 536l354 39
l261 -438q18 -29 35.5 -43t44.5 -23q19 -7 26.5 -15t7.5 -22q0 -15 -11 -24.5t-34 -9.5h-487q-43 0 -43 34q0 10 5 16t17 12l26 9q23 11 28 24.5t-11 42.5zM813 1713q34 56 74.5 85.5t90.5 22.5q51 -6 77.5 -44.5t20.5 -77.5q-6 -57 -45.5 -88.5t-97.5 -52.5l-207 -83
q-10 -3 -22.5 -2.5t-18.5 8.5q-7 8 -4.5 18t9.5 20z" />
    <glyph glyph-name="racute" unicode="&#x155;" horiz-adv-x="933" 
d="M446 530q0 139 40 232t104 139.5t136 46.5q90 0 138.5 -55t48.5 -162q0 -102 -44 -151t-112 -49q-67 0 -99.5 35.5t-34.5 101.5v37q-1 27 -12.5 42t-37.5 15t-49 -24.5t-37 -75t-14 -130.5zM461 895l12 -265v-499q0 -23 8.5 -35t32.5 -16l89 -16q17 -3 24.5 -11t7.5 -22
q0 -15 -10 -23t-30 -8h-503q-21 0 -31 8.5t-10 22.5q0 10 7 18.5t21 13.5l37 9q15 5 21.5 17t6.5 36v616q0 19 -5.5 28t-18.5 11l-46 3q-13 3 -18.5 10t-5.5 18q0 12 7.5 20t26.5 14l261 76q36 14 52.5 18t27.5 4q16 0 24.5 -11.5t11.5 -36.5zM550 1276q27 69 65 107t96 33
q57 -4 85 -41.5t24 -77.5q-4 -51 -35.5 -87t-84.5 -67l-190 -127q-11 -5 -23 -5t-20 7q-8 9 -6.5 18.5t7.5 20.5z" />
    <glyph glyph-name="Rcommaaccent" unicode="&#x156;" horiz-adv-x="1498" 
d="M1383 910q0 -97 -44.5 -176t-125.5 -132t-195 -73q-35 -6 -67 -13t-64.5 -11.5t-71.5 -4.5q-72 0 -128 9.5t-98.5 27t-78.5 42.5l7 66q29 -22 62.5 -36.5t72 -21.5t84.5 -7q124 0 196.5 77t72.5 239q0 126 -46 224t-125.5 154t-179.5 56h-65v-1191q0 -23 10.5 -35.5
t32.5 -19.5l58 -12q18 -7 24.5 -15.5t6.5 -22.5q0 -34 -44 -34h-551q-22 0 -33 9.5t-11 24.5q0 28 32 38l57 12q24 7 35.5 19.5t11.5 35.5v1130q0 19 -12 30t-35 17l-57 12q-32 10 -32 38q0 16 11 25t33 9h535q228 0 389.5 -61.5t247 -171.5t85.5 -257zM755 536l354 39
l261 -438q18 -29 35.5 -43t44.5 -23q19 -7 26.5 -15t7.5 -22q0 -15 -11 -24.5t-34 -9.5h-487q-43 0 -43 34q0 10 5 16t17 12l26 9q23 11 28 24.5t-11 42.5zM777 -337q-73 0 -107 35t-34 85q0 59 42.5 96t107.5 37q72 0 115.5 -44t43.5 -129q0 -115 -65 -187.5t-193 -96.5
q-18 -4 -28 1.5t-13 17.5q-3 11 3 20t22 13q63 10 104.5 32.5t62.5 49.5t21 49q0 21 -24 21h-58z" />
    <glyph glyph-name="rcommaaccent" unicode="&#x157;" horiz-adv-x="933" 
d="M446 530q0 139 40 232t104 139.5t136 46.5q90 0 138.5 -55t48.5 -162q0 -102 -44 -151t-112 -49q-67 0 -99.5 35.5t-34.5 101.5v37q-1 27 -12.5 42t-37.5 15t-49 -24.5t-37 -75t-14 -130.5zM461 895l12 -265v-499q0 -23 8.5 -35t32.5 -16l89 -16q17 -3 24.5 -11t7.5 -22
q0 -15 -10 -23t-30 -8h-503q-21 0 -31 8.5t-10 22.5q0 10 7 18.5t21 13.5l37 9q15 5 21.5 17t6.5 36v616q0 19 -5.5 28t-18.5 11l-46 3q-13 3 -18.5 10t-5.5 18q0 12 7.5 20t26.5 14l261 76q36 14 52.5 18t27.5 4q16 0 24.5 -11.5t11.5 -36.5zM324 -337q-73 0 -107 35
t-34 85q0 59 42.5 96t107.5 37q72 0 115.5 -44t43.5 -129q0 -115 -65 -187.5t-193 -96.5q-18 -4 -28 1.5t-13 17.5q-3 11 3 20t22 13q63 10 104.5 32.5t62.5 49.5t21 49q0 21 -24 21h-58z" />
    <glyph glyph-name="Rcaron" unicode="&#x158;" horiz-adv-x="1498" 
d="M1383 910q0 -97 -44.5 -176t-125.5 -132t-195 -73q-35 -6 -67 -13t-64.5 -11.5t-71.5 -4.5q-72 0 -128 9.5t-98.5 27t-78.5 42.5l7 66q29 -22 62.5 -36.5t72 -21.5t84.5 -7q124 0 196.5 77t72.5 239q0 126 -46 224t-125.5 154t-179.5 56h-65v-1191q0 -23 10.5 -35.5
t32.5 -19.5l58 -12q18 -7 24.5 -15.5t6.5 -22.5q0 -34 -44 -34h-551q-22 0 -33 9.5t-11 24.5q0 28 32 38l57 12q24 7 35.5 19.5t11.5 35.5v1130q0 19 -12 30t-35 17l-57 12q-32 10 -32 38q0 16 11 25t33 9h535q228 0 389.5 -61.5t247 -171.5t85.5 -257zM755 536l354 39
l261 -438q18 -29 35.5 -43t44.5 -23q19 -7 26.5 -15t7.5 -22q0 -15 -11 -24.5t-34 -9.5h-487q-43 0 -43 34q0 10 5 16t17 12l26 9q23 11 28 24.5t-11 42.5zM818 1639l-323 157q-34 18 -52 3q-8 -6 -9 -18t12 -26l225 -244q19 -18 33.5 -29t36.5 -11q23 0 37.5 11t32.5 29
l225 244q13 14 12 26t-8 18q-19 15 -53 -3l-323 -157h154z" />
    <glyph glyph-name="rcaron" unicode="&#x159;" horiz-adv-x="933" 
d="M446 530q0 139 40 232t104 139.5t136 46.5q90 0 138.5 -55t48.5 -162q0 -102 -44 -151t-112 -49q-67 0 -99.5 35.5t-34.5 101.5v37q-1 27 -12.5 42t-37.5 15t-49 -24.5t-37 -75t-14 -130.5zM461 895l12 -265v-499q0 -23 8.5 -35t32.5 -16l89 -16q17 -3 24.5 -11t7.5 -22
q0 -15 -10 -23t-30 -8h-503q-21 0 -31 8.5t-10 22.5q0 10 7 18.5t21 13.5l37 9q15 5 21.5 17t6.5 36v616q0 19 -5.5 28t-18.5 11l-46 3q-13 3 -18.5 10t-5.5 18q0 12 7.5 20t26.5 14l261 76q36 14 52.5 18t27.5 4q16 0 24.5 -11.5t11.5 -36.5zM579 1165l-327 206
q-15 11 -29.5 11t-24.5 -8q-7 -6 -7.5 -18t11.5 -26l228 -287q17 -20 33 -30.5t38 -10.5q23 0 38 10.5t32 30.5l228 287q13 14 12.5 26t-8.5 18q-8 8 -23 8t-30 -11l-327 -206h156z" />
    <glyph glyph-name="Sacute" unicode="&#x15a;" horiz-adv-x="1212" 
d="M644 -26q-81 0 -136.5 21t-90 42t-50.5 21t-33.5 -13.5t-36 -31t-36 -31t-33.5 -13.5q-17 0 -29.5 11t-17.5 34l-66 394q-3 17 3.5 28.5t22.5 17.5q17 6 30.5 -1t22.5 -26q78 -149 149 -230.5t138.5 -113.5t134.5 -32q97 0 154 49.5t58 143.5q0 61 -26.5 109.5t-96 90.5
t-198.5 84q-158 51 -253 117.5t-137.5 154.5t-42.5 202q0 124 61.5 219t173 148.5t260.5 53.5q81 0 136.5 -17t91 -34t57.5 -17q20 0 43.5 18t48 36.5t47.5 18.5q17 0 29 -11t20 -40l100 -385q5 -20 -1.5 -35t-22.5 -21q-17 -5 -30.5 2t-22.5 24q-83 150 -161 233.5
t-152.5 117t-148.5 33.5q-92 0 -147.5 -56t-55.5 -150q0 -60 25 -110t92 -94.5t191 -88.5q161 -57 256 -123t136 -148t41 -188q0 -115 -59 -209t-170 -149.5t-268 -55.5zM681 1715q34 56 74.5 85.5t90.5 22.5q51 -6 77.5 -44.5t20.5 -77.5q-6 -57 -45.5 -88.5t-97.5 -52.5
l-207 -83q-10 -3 -22.5 -2.5t-18.5 8.5q-7 8 -4.5 18t9.5 20z" />
    <glyph glyph-name="sacute" unicode="&#x15b;" horiz-adv-x="926" 
d="M476 46q62 0 96 30.5t34 77.5q0 32 -14 58t-52.5 48.5t-111.5 40.5q-149 37 -230.5 86.5t-113 114t-31.5 143.5q0 143 98.5 223t277.5 80q67 0 109.5 -11.5t67 -23.5t38.5 -12q18 0 38.5 12t40.5 23.5t38 11.5q11 0 21 -7.5t16 -28.5l53 -242q9 -27 5.5 -44t-20.5 -23
q-16 -6 -28 -0.5t-24 22.5q-55 94 -109 150t-110 80.5t-118 24.5q-72 0 -108.5 -31.5t-36.5 -84.5q0 -35 17 -62.5t64 -50.5t135 -45q126 -29 199.5 -75.5t105.5 -110t32 -145.5q0 -90 -46 -157.5t-126 -104t-181 -36.5q-64 0 -104.5 13.5t-66 27t-41.5 13.5t-37 -13
t-42.5 -26t-37.5 -13q-12 0 -21.5 10t-14.5 33l-36 215q-5 30 -1 44.5t19 21.5t27 -0.5t25 -26.5q77 -124 153 -177t152 -53zM502 1276q27 69 65 107t96 33q57 -4 85 -41.5t24 -77.5q-4 -51 -35.5 -87t-84.5 -67l-190 -127q-11 -5 -23 -5t-20 7q-8 9 -6.5 18.5t7.5 20.5z
" />
    <glyph glyph-name="Scircumflex" unicode="&#x15c;" horiz-adv-x="1212" 
d="M644 -26q-81 0 -136.5 21t-90 42t-50.5 21t-33.5 -13.5t-36 -31t-36 -31t-33.5 -13.5q-17 0 -29.5 11t-17.5 34l-66 394q-3 17 3.5 28.5t22.5 17.5q17 6 30.5 -1t22.5 -26q78 -149 149 -230.5t138.5 -113.5t134.5 -32q97 0 154 49.5t58 143.5q0 61 -26.5 109.5t-96 90.5
t-198.5 84q-158 51 -253 117.5t-137.5 154.5t-42.5 202q0 124 61.5 219t173 148.5t260.5 53.5q81 0 136.5 -17t91 -34t57.5 -17q20 0 43.5 18t48 36.5t47.5 18.5q17 0 29 -11t20 -40l100 -385q5 -20 -1.5 -35t-22.5 -21q-17 -5 -30.5 2t-22.5 24q-83 150 -161 233.5
t-152.5 117t-148.5 33.5q-92 0 -147.5 -56t-55.5 -150q0 -60 25 -110t92 -94.5t191 -88.5q161 -57 256 -123t136 -148t41 -188q0 -115 -59 -209t-170 -149.5t-268 -55.5zM686 1640h-154l323 -156q34 -19 53 -3q8 6 8.5 18t-12.5 26l-225 243q-18 19 -32.5 29.5t-37.5 10.5
q-22 0 -36.5 -10.5t-33.5 -29.5l-225 -243q-13 -14 -12 -26t9 -18q18 -16 52 3z" />
    <glyph glyph-name="scircumflex" unicode="&#x15d;" horiz-adv-x="926" 
d="M476 46q62 0 96 30.5t34 77.5q0 32 -14 58t-52.5 48.5t-111.5 40.5q-149 37 -230.5 86.5t-113 114t-31.5 143.5q0 143 98.5 223t277.5 80q67 0 109.5 -11.5t67 -23.5t38.5 -12q18 0 38.5 12t40.5 23.5t38 11.5q11 0 21 -7.5t16 -28.5l53 -242q9 -27 5.5 -44t-20.5 -23
q-16 -6 -28 -0.5t-24 22.5q-55 94 -109 150t-110 80.5t-118 24.5q-72 0 -108.5 -31.5t-36.5 -84.5q0 -35 17 -62.5t64 -50.5t135 -45q126 -29 199.5 -75.5t105.5 -110t32 -145.5q0 -90 -46 -157.5t-126 -104t-181 -36.5q-64 0 -104.5 13.5t-66 27t-41.5 13.5t-37 -13
t-42.5 -26t-37.5 -13q-12 0 -21.5 10t-14.5 33l-36 215q-5 30 -1 44.5t19 21.5t27 -0.5t25 -26.5q77 -124 153 -177t152 -53zM540 1216h-156l327 -206q15 -10 30 -10t23 7t8.5 19t-12.5 26l-228 287q-17 20 -32 30.5t-38 10.5q-22 0 -38 -10.5t-33 -30.5l-228 -287
q-12 -14 -11.5 -26t7.5 -19q10 -7 24.5 -7t29.5 10z" />
    <glyph glyph-name="Scedilla" unicode="&#x15e;" horiz-adv-x="1212" 
d="M591 5h57l-80 -134l-34 11q17 2 37 3.5t52 1.5q100 0 153 -41t53 -110q0 -75 -58.5 -120t-164.5 -45q-86 0 -139.5 29t-65.5 68q-2 13 5 21t17 9q10 2 18 -2.5t16 -10.5q19 -27 46 -40t58 -13q80 0 80 108q0 46 -24 71.5t-69 25.5h-22q-15 0 -19.5 10t3.5 23zM644 -26
q-81 0 -136.5 21t-90 42t-50.5 21t-33.5 -13.5t-36 -31t-36 -31t-33.5 -13.5q-17 0 -29.5 11t-17.5 34l-66 394q-3 17 3.5 28.5t22.5 17.5q17 6 30.5 -1t22.5 -26q78 -149 149 -230.5t138.5 -113.5t134.5 -32q97 0 154 49.5t58 143.5q0 61 -26.5 109.5t-96 90.5t-198.5 84
q-158 51 -253 117.5t-137.5 154.5t-42.5 202q0 124 61.5 219t173 148.5t260.5 53.5q81 0 136.5 -17t91 -34t57.5 -17q20 0 43.5 18t48 36.5t47.5 18.5q17 0 29 -11t20 -40l100 -385q5 -20 -1.5 -35t-22.5 -21q-17 -5 -30.5 2t-22.5 24q-83 150 -161 233.5t-152.5 117
t-148.5 33.5q-92 0 -147.5 -56t-55.5 -150q0 -60 25 -110t92 -94.5t191 -88.5q161 -57 256 -123t136 -148t41 -188q0 -115 -59 -209t-170 -149.5t-268 -55.5z" />
    <glyph glyph-name="scedilla" unicode="&#x15f;" horiz-adv-x="926" 
d="M444 8h57l-82 -137l-34 11q17 2 37 3.5t52 1.5q100 0 153 -41t53 -110q0 -75 -58.5 -120t-164.5 -45q-86 0 -139.5 29t-65.5 68q-2 13 5 21t17 9q10 2 18 -2.5t16 -10.5q20 -27 46.5 -40t57.5 -13q80 0 80 108q0 46 -24 71.5t-69 25.5h-21q-16 0 -20.5 10t3.5 23zM476 46
q62 0 96 30.5t34 77.5q0 32 -14 58t-52.5 48.5t-111.5 40.5q-149 37 -230.5 86.5t-113 114t-31.5 143.5q0 143 98.5 223t277.5 80q67 0 109.5 -11.5t67 -23.5t38.5 -12q18 0 38.5 12t40.5 23.5t38 11.5q11 0 21 -7.5t16 -28.5l53 -242q9 -27 5.5 -44t-20.5 -23
q-16 -6 -28 -0.5t-24 22.5q-55 94 -109 150t-110 80.5t-118 24.5q-72 0 -108.5 -31.5t-36.5 -84.5q0 -35 17 -62.5t64 -50.5t135 -45q126 -29 199.5 -75.5t105.5 -110t32 -145.5q0 -90 -46 -157.5t-126 -104t-181 -36.5q-64 0 -104.5 13.5t-66 27t-41.5 13.5t-37 -13
t-42.5 -26t-37.5 -13q-12 0 -21.5 10t-14.5 33l-36 215q-5 30 -1 44.5t19 21.5t27 -0.5t25 -26.5q77 -124 153 -177t152 -53z" />
    <glyph glyph-name="Scaron" unicode="&#x160;" horiz-adv-x="1212" 
d="M644 -26q-81 0 -136.5 21t-90 42t-50.5 21t-33.5 -13.5t-36 -31t-36 -31t-33.5 -13.5q-17 0 -29.5 11t-17.5 34l-66 394q-3 17 3.5 28.5t22.5 17.5q17 6 30.5 -1t22.5 -26q78 -149 149 -230.5t138.5 -113.5t134.5 -32q97 0 154 49.5t58 143.5q0 61 -26.5 109.5t-96 90.5
t-198.5 84q-158 51 -253 117.5t-137.5 154.5t-42.5 202q0 124 61.5 219t173 148.5t260.5 53.5q81 0 136.5 -17t91 -34t57.5 -17q20 0 43.5 18t48 36.5t47.5 18.5q17 0 29 -11t20 -40l100 -385q5 -20 -1.5 -35t-22.5 -21q-17 -5 -30.5 2t-22.5 24q-83 150 -161 233.5
t-152.5 117t-148.5 33.5q-92 0 -147.5 -56t-55.5 -150q0 -60 25 -110t92 -94.5t191 -88.5q161 -57 256 -123t136 -148t41 -188q0 -115 -59 -209t-170 -149.5t-268 -55.5zM686 1641l-323 157q-34 18 -52 3q-8 -6 -9 -18t12 -26l225 -244q19 -18 33.5 -29t36.5 -11
q23 0 37.5 11t32.5 29l225 244q13 14 12 26t-8 18q-19 15 -53 -3l-323 -157h154z" />
    <glyph glyph-name="scaron" unicode="&#x161;" horiz-adv-x="926" 
d="M476 46q62 0 96 30.5t34 77.5q0 32 -14 58t-52.5 48.5t-111.5 40.5q-149 37 -230.5 86.5t-113 114t-31.5 143.5q0 143 98.5 223t277.5 80q67 0 109.5 -11.5t67 -23.5t38.5 -12q18 0 38.5 12t40.5 23.5t38 11.5q11 0 21 -7.5t16 -28.5l53 -242q9 -27 5.5 -44t-20.5 -23
q-16 -6 -28 -0.5t-24 22.5q-55 94 -109 150t-110 80.5t-118 24.5q-72 0 -108.5 -31.5t-36.5 -84.5q0 -35 17 -62.5t64 -50.5t135 -45q126 -29 199.5 -75.5t105.5 -110t32 -145.5q0 -90 -46 -157.5t-126 -104t-181 -36.5q-64 0 -104.5 13.5t-66 27t-41.5 13.5t-37 -13
t-42.5 -26t-37.5 -13q-12 0 -21.5 10t-14.5 33l-36 215q-5 30 -1 44.5t19 21.5t27 -0.5t25 -26.5q77 -124 153 -177t152 -53zM536 1165l-327 206q-15 11 -29.5 11t-24.5 -8q-7 -6 -7.5 -18t11.5 -26l228 -287q17 -20 33 -30.5t38 -10.5q23 0 38 10.5t32 30.5l228 287
q13 14 12.5 26t-8.5 18q-8 8 -23 8t-30 -11l-327 -206h156z" />
    <glyph glyph-name="Tcedilla" unicode="&#x162;" horiz-adv-x="1376" 
d="M290 1400h795q33 0 57 7.5t42.5 15t33.5 7.5q23 0 35 -12.5t20 -44.5l64 -369q5 -22 -2.5 -35.5t-24.5 -16.5q-16 -4 -29 2t-22 25q-65 142 -115 215.5t-94.5 100t-92.5 26.5h-83v-1190q0 -19 12 -30t35 -17l57 -12q32 -10 32 -38q0 -34 -45 -34h-554q-23 0 -34 9.5
t-11 24.5q0 28 32 38l57 12q24 6 35.5 17t11.5 30v1190h-83q-46 0 -90 -28t-94.5 -101.5t-117.5 -212.5q-9 -19 -22 -25t-29 -2q-17 3 -24 16.5t-3 35.5l64 369q8 32 20 44.5t35 12.5q15 0 33 -7.5t42 -15t57 -7.5zM668 9h57l-83 -138l-34 11q18 2 37.5 3.5t51.5 1.5
q100 0 153 -41t53 -110q0 -75 -58.5 -120t-164.5 -45q-86 0 -139 29t-66 68q-2 13 5 21t17 9q10 2 18 -2.5t16 -10.5q20 -27 46.5 -40t57.5 -13q80 0 80 108q0 46 -23.5 71.5t-69.5 25.5h-21q-16 0 -20 10t3 23z" />
    <glyph glyph-name="tcedilla" unicode="&#x163;" horiz-adv-x="745" 
d="M103 846l-58 16q-16 6 -22.5 13.5t-6.5 17.5q0 15 10 23t25 8h70q14 0 24.5 5.5t24.5 21.5l185 177q18 18 34 27.5t31 9.5q17 0 26.5 -11t9.5 -32v-827q0 -78 28.5 -117t79.5 -39q28 0 47 11.5t32 29t25.5 37t26.5 34.5q11 4 19 -3t7 -25q-8 -74 -45 -129t-101.5 -85.5
t-150.5 -30.5q-140 0 -216 67t-76 204v555q0 19 -6.5 28t-22.5 14zM346 848l4 76h331q17 0 27 -7t10 -21q0 -20 -20.5 -34t-64.5 -14h-287zM376 9h57l-83 -138l-34 11q18 2 37.5 3.5t51.5 1.5q100 0 153 -41t53 -110q0 -75 -58.5 -120t-164.5 -45q-86 0 -139 29t-66 68
q-2 13 5 21t17 9q10 2 18 -2.5t16 -10.5q20 -27 46.5 -40t57.5 -13q80 0 80 108q0 46 -23.5 71.5t-69.5 25.5h-21q-16 0 -20 10t3 23z" />
    <glyph glyph-name="Tcaron" unicode="&#x164;" horiz-adv-x="1376" 
d="M290 1400h795q33 0 57 7.5t42.5 15t33.5 7.5q23 0 35 -12.5t20 -44.5l64 -369q5 -22 -2.5 -35.5t-24.5 -16.5q-16 -4 -29 2t-22 25q-65 142 -115 215.5t-94.5 100t-92.5 26.5h-83v-1190q0 -19 12 -30t35 -17l57 -12q32 -10 32 -38q0 -34 -45 -34h-554q-23 0 -34 9.5
t-11 24.5q0 28 32 38l57 12q24 6 35.5 17t11.5 30v1190h-83q-46 0 -90 -28t-94.5 -101.5t-117.5 -212.5q-9 -19 -22 -25t-29 -2q-17 3 -24 16.5t-3 35.5l64 369q8 32 20 44.5t35 12.5q15 0 33 -7.5t42 -15t57 -7.5zM765 1639l-323 157q-34 18 -52 3q-8 -6 -9 -18t12 -26
l225 -244q19 -18 33.5 -29t36.5 -11q23 0 37.5 11t32.5 29l225 244q13 14 12 26t-8 18q-19 15 -53 -3l-323 -157h154z" />
    <glyph glyph-name="tcaron" unicode="&#x165;" horiz-adv-x="745" 
d="M103 846l-58 16q-16 6 -22.5 13.5t-6.5 17.5q0 15 10 23t25 8h70q14 0 24.5 5.5t24.5 21.5l185 177q18 18 34 27.5t31 9.5q17 0 26.5 -11t9.5 -32v-827q0 -78 28.5 -117t79.5 -39q28 0 47 11.5t32 29t25.5 37t26.5 34.5q11 4 19 -3t7 -25q-8 -74 -45 -129t-101.5 -85.5
t-150.5 -30.5q-140 0 -216 67t-76 204v555q0 19 -6.5 28t-22.5 14zM346 848l4 76h331q17 0 27 -7t10 -21q0 -20 -20.5 -34t-64.5 -14h-287zM649 1301q5 70 30.5 115.5t77.5 53.5q53 11 88.5 -16.5t41.5 -65.5q9 -48 -10.5 -88.5t-57.5 -80.5l-139 -167q-7 -8 -17.5 -11
t-19.5 0q-10 6 -11.5 15.5t-0.5 20.5z" />
    <glyph glyph-name="Tbar" unicode="&#x166;" horiz-adv-x="1376" 
d="M226 675q0 13 8.5 21t21.5 8h847q14 0 22.5 -8t8.5 -21q0 -14 -8.5 -22t-22.5 -8h-847q-14 0 -22 8t-8 22zM290 1400h795q33 0 57 7.5t42.5 15t33.5 7.5q23 0 35 -12.5t20 -44.5l64 -369q5 -22 -2.5 -35.5t-24.5 -16.5q-16 -4 -29 2t-22 25q-65 142 -115 215.5t-94.5 100
t-92.5 26.5h-83v-1190q0 -19 12 -30t35 -17l57 -12q32 -10 32 -38q0 -34 -45 -34h-554q-23 0 -34 9.5t-11 24.5q0 28 32 38l57 12q24 6 35.5 17t11.5 30v1190h-83q-46 0 -90 -28t-94.5 -101.5t-117.5 -212.5q-9 -19 -22 -25t-29 -2q-17 3 -24 16.5t-3 35.5l64 369
q8 32 20 44.5t35 12.5q15 0 33 -7.5t42 -15t57 -7.5z" />
    </font>
</defs>
</svg>
