<?xml version="1.0" standalone="no"?>
<!DOCTYPE svg PUBLIC "-//W3C//DTD SVG 1.1//EN" "http://www.w3.org/Graphics/SVG/1.1/DTD/svg11.dtd" >
<svg xmlns="http://www.w3.org/2000/svg" xmlns:xlink="http://www.w3.org/1999/xlink" version="1.1">
<metadata>
Created by FontForge 20201107 at Mon Oct 26 20:10:00 2020
 By 
Copyright 2020 The Fraunces Project Authors (github.com/undercasetype/Fraunces)
</metadata>
<defs>
<font id="Fraunces72pt-BoldItalic" horiz-adv-x="1499" >
  <font-face 
    font-family="Fraunces 72pt"
    font-weight="700"
    font-style="italic"
    font-stretch="normal"
    units-per-em="2000"
    panose-1="0 0 0 0 0 0 0 0 0 0"
    ascent="1600"
    descent="-400"
    x-height="934"
    cap-height="1400"
    bbox="-253 -545.684 2881 2216.12"
    underline-thickness="50"
    underline-position="-325"
    slope="-16"
    unicode-range="U+0020-FB04"
  />
<missing-glyph horiz-adv-x="1000" 
d="M100 -490v2000h800v-2000h-800zM200 -390h600v1800h-600v-1800z" />
    <glyph glyph-name="f_f" unicode="ff" horiz-adv-x="1327" 
d="M418 776l36 94h232q27 0 41 -8t14 -28q0 -16 -11.5 -29t-31.5 -21t-47 -8h-233zM106 834q0 17 13 27.5t39 10.5h105l55 215q44 180 139.5 270t253.5 90q96 0 145 -42.5t49 -99.5q0 -61 -38 -98.5t-101 -37.5q-40 0 -73 18.5t-60.5 42.5t-52.5 42.5t-50 18.5
q-29 0 -48.5 -19.5t-26.5 -51.5q-7 -36 13 -81t48 -95t45 -101t4 -100l-241 -903q-8 -31 -11.5 -53.5t-3.5 -39.5q0 -31 17 -49t34.5 -32t17.5 -35q0 -31 -45 -63.5t-116 -54.5t-151 -22t-101 50t8 155l238 855q20 71 7 99.5t-66 36.5q-28 13 -37 24t-9 23zM1081 776l36 94
h232q27 0 41 -8t14 -28q0 -16 -11.5 -29t-31.5 -21t-47 -8h-233zM769 834q0 17 13 27.5t39 10.5h105l55 215q44 180 139.5 270t253.5 90q96 0 145 -42.5t49 -99.5q0 -61 -38 -98.5t-101 -37.5q-40 0 -73 18.5t-60.5 42.5t-52.5 42.5t-50 18.5q-29 0 -48.5 -19.5t-26.5 -51.5
q-7 -36 13 -81t48 -95t45 -101t4 -100l-241 -903q-8 -31 -11.5 -53.5t-3.5 -39.5q0 -31 17 -49t34.5 -32t17.5 -35q0 -31 -45 -63.5t-116 -54.5t-151 -22t-101 50t8 155l238 855q20 71 7 99.5t-66 36.5q-28 13 -37 24t-9 23z" />
    <glyph glyph-name="fi" unicode="fi" horiz-adv-x="1310" 
d="M418 776l36 94h232q27 0 41 -8t14 -28q0 -16 -11.5 -29t-31.5 -21t-47 -8h-233zM106 834q0 17 13 27.5t39 10.5h105l55 215q44 180 139.5 270t253.5 90q96 0 145 -42.5t49 -99.5q0 -61 -38 -98.5t-101 -37.5q-40 0 -73 18.5t-60.5 42.5t-52.5 42.5t-50 18.5
q-29 0 -48.5 -19.5t-26.5 -51.5q-7 -36 13 -81t48 -95t45 -101t4 -100l-241 -903q-8 -31 -11.5 -53.5t-3.5 -39.5q0 -31 17 -49t34.5 -32t17.5 -35q0 -31 -45 -63.5t-116 -54.5t-151 -22t-101 50t8 155l238 855q20 71 7 99.5t-66 36.5q-28 13 -37 24t-9 23zM1089 282
q-26 -77 -19 -105.5t30 -28.5q16 0 34 12t45 42q15 14 23.5 17.5t17.5 -0.5q11 -5 11.5 -20.5t-12.5 -39.5q-41 -81 -125.5 -131.5t-203.5 -50.5q-79 0 -116.5 29.5t-39 86t25.5 136.5l134 394q24 72 18.5 100t-28.5 28q-16 0 -35 -11.5t-51 -45.5q-14 -12 -23 -15t-18 0
q-11 5 -11 19.5t12 35.5q50 90 136.5 145t192.5 55q69 0 107.5 -30t45 -89t-22.5 -145zM1133 1051q-78 0 -120 38t-41 94q1 50 31 96t83 76t124 30q87 0 126 -39t38 -95q-1 -54 -30.5 -100t-83 -73t-127.5 -27z" />
    <glyph glyph-name="fl" unicode="fl" horiz-adv-x="1294" 
d="M418 776l36 94h232q27 0 41 -8t14 -28q0 -16 -11.5 -29t-31.5 -21t-47 -8h-233zM106 834q0 17 13 27.5t39 10.5h105l55 215q44 180 139.5 270t253.5 90q96 0 145 -42.5t49 -99.5q0 -61 -38 -98.5t-101 -37.5q-40 0 -73 18.5t-60.5 42.5t-52.5 42.5t-50 18.5
q-29 0 -48.5 -19.5t-26.5 -51.5q-7 -36 13 -81t48 -95t45 -101t4 -100l-241 -903q-8 -31 -11.5 -53.5t-3.5 -39.5q0 -31 17 -49t34.5 -32t17.5 -35q0 -31 -45 -63.5t-116 -54.5t-151 -22t-101 50t8 155l238 855q20 71 7 99.5t-66 36.5q-28 13 -37 24t-9 23zM1360 1450
q98 0 145.5 -40t47.5 -96q0 -52 -32 -84.5t-91 -32.5q-38 0 -69.5 14.5t-60 34t-55.5 34t-55 14.5q-21 0 -37.5 -11t-26 -28.5t-10.5 -39.5q0 -28 15.5 -55t37 -58t39 -70t21.5 -89t-15 -116l-158 -542q-24 -81 -17.5 -109t30.5 -28q19 0 39.5 13.5t47.5 44.5
q14 14 22.5 17.5t17.5 -0.5q11 -4 12 -19.5t-12 -40.5q-26 -54 -75 -96t-115 -66t-144 -24q-79 0 -116.5 29.5t-40.5 86t21 137.5l271 922q47 157 139.5 227.5t223.5 70.5z" />
    <glyph glyph-name="f_f_i" unicode="ffi" horiz-adv-x="1973" 
d="M418 776l36 94h232q27 0 41 -8t14 -28q0 -16 -11.5 -29t-31.5 -21t-47 -8h-233zM106 834q0 17 13 27.5t39 10.5h105l55 215q44 180 139.5 270t253.5 90q96 0 145 -42.5t49 -99.5q0 -61 -38 -98.5t-101 -37.5q-40 0 -73 18.5t-60.5 42.5t-52.5 42.5t-50 18.5
q-29 0 -48.5 -19.5t-26.5 -51.5q-7 -36 13 -81t48 -95t45 -101t4 -100l-241 -903q-8 -31 -11.5 -53.5t-3.5 -39.5q0 -31 17 -49t34.5 -32t17.5 -35q0 -31 -45 -63.5t-116 -54.5t-151 -22t-101 50t8 155l238 855q20 71 7 99.5t-66 36.5q-28 13 -37 24t-9 23zM1081 776l36 94
h232q27 0 41 -8t14 -28q0 -16 -11.5 -29t-31.5 -21t-47 -8h-233zM769 834q0 17 13 27.5t39 10.5h105l55 215q44 180 139.5 270t253.5 90q96 0 145 -42.5t49 -99.5q0 -61 -38 -98.5t-101 -37.5q-40 0 -73 18.5t-60.5 42.5t-52.5 42.5t-50 18.5q-29 0 -48.5 -19.5t-26.5 -51.5
q-7 -36 13 -81t48 -95t45 -101t4 -100l-241 -903q-8 -31 -11.5 -53.5t-3.5 -39.5q0 -31 17 -49t34.5 -32t17.5 -35q0 -31 -45 -63.5t-116 -54.5t-151 -22t-101 50t8 155l238 855q20 71 7 99.5t-66 36.5q-28 13 -37 24t-9 23zM1753 282q-26 -77 -19 -105.5t30 -28.5
q16 0 34 12t45 42q15 14 23.5 17.5t17.5 -0.5q11 -5 11.5 -20.5t-12.5 -39.5q-41 -81 -125.5 -131.5t-203.5 -50.5q-79 0 -116.5 29.5t-39 86t25.5 136.5l134 394q24 72 18.5 100t-28.5 28q-16 0 -35 -11.5t-51 -45.5q-14 -12 -23 -15t-18 0q-11 5 -11 19.5t12 35.5
q50 90 136.5 145t192.5 55q69 0 107.5 -30t45 -89t-22.5 -145zM1797 1051q-78 0 -120 38t-41 94q1 50 31 96t83 76t124 30q87 0 126 -39t38 -95q-1 -54 -30.5 -100t-83 -73t-127.5 -27z" />
    <glyph glyph-name="f_f_l" unicode="ffl" horiz-adv-x="1957" 
d="M418 776l36 94h232q27 0 41 -8t14 -28q0 -16 -11.5 -29t-31.5 -21t-47 -8h-233zM106 834q0 17 13 27.5t39 10.5h105l55 215q44 180 139.5 270t253.5 90q96 0 145 -42.5t49 -99.5q0 -61 -38 -98.5t-101 -37.5q-40 0 -73 18.5t-60.5 42.5t-52.5 42.5t-50 18.5
q-29 0 -48.5 -19.5t-26.5 -51.5q-7 -36 13 -81t48 -95t45 -101t4 -100l-241 -903q-8 -31 -11.5 -53.5t-3.5 -39.5q0 -31 17 -49t34.5 -32t17.5 -35q0 -31 -45 -63.5t-116 -54.5t-151 -22t-101 50t8 155l238 855q20 71 7 99.5t-66 36.5q-28 13 -37 24t-9 23zM1081 776l36 94
h232q27 0 41 -8t14 -28q0 -16 -11.5 -29t-31.5 -21t-47 -8h-233zM769 834q0 17 13 27.5t39 10.5h105l55 215q44 180 139.5 270t253.5 90q96 0 145 -42.5t49 -99.5q0 -61 -38 -98.5t-101 -37.5q-40 0 -73 18.5t-60.5 42.5t-52.5 42.5t-50 18.5q-29 0 -48.5 -19.5t-26.5 -51.5
q-7 -36 13 -81t48 -95t45 -101t4 -100l-241 -903q-8 -31 -11.5 -53.5t-3.5 -39.5q0 -31 17 -49t34.5 -32t17.5 -35q0 -31 -45 -63.5t-116 -54.5t-151 -22t-101 50t8 155l238 855q20 71 7 99.5t-66 36.5q-28 13 -37 24t-9 23zM2024 1450q98 0 145.5 -40t47.5 -96
q0 -52 -32 -84.5t-91 -32.5q-38 0 -69.5 14.5t-60 34t-55.5 34t-55 14.5q-21 0 -37.5 -11t-26 -28.5t-10.5 -39.5q0 -28 15.5 -55t37 -58t39 -70t21.5 -89t-15 -116l-158 -542q-24 -81 -17.5 -109t30.5 -28q19 0 39.5 13.5t47.5 44.5q14 14 22.5 17.5t17.5 -0.5
q11 -4 12 -19.5t-12 -40.5q-26 -54 -75 -96t-115 -66t-144 -24q-79 0 -116.5 29.5t-40.5 86t21 137.5l271 922q47 157 139.5 227.5t223.5 70.5z" />
    <glyph glyph-name=".notdef" horiz-adv-x="1000" 
d="M100 -490v2000h800v-2000h-800zM200 -390h600v1800h-600v-1800z" />
    <glyph glyph-name=".null" horiz-adv-x="0" 
 />
    <glyph glyph-name="nonmarkingreturn" horiz-adv-x="666" 
 />
    <glyph glyph-name="space" unicode=" " horiz-adv-x="353" 
 />
    <glyph glyph-name="exclam" unicode="!" horiz-adv-x="703" 
d="M607 1496q94 0 133.5 -40t29.5 -107q-2 -28 -18 -71.5t-39 -86.5l-330 -700q-11 -20 -24 -29.5t-31 -9.5t-25.5 9.5t-6.5 30.5l56 706q1 32 4 62t9 55q21 88 80.5 134.5t161.5 46.5zM210 -18q-79 0 -121.5 40t-40.5 101q1 53 31.5 97.5t86.5 71.5t130 27q81 0 120.5 -41
t37.5 -103q-1 -50 -30.5 -94t-83.5 -71.5t-130 -27.5z" />
    <glyph glyph-name="quotedbl" unicode="&#x22;" horiz-adv-x="766" 
d="M281 834q-16 0 -25.5 12.5t-7.5 37.5l38 475q8 108 61.5 166.5t145.5 58.5q93 0 112.5 -60t-31.5 -164l-229 -477q-12 -26 -28 -37.5t-36 -11.5zM666 835q-16 0 -25.5 12.5t-7.5 37.5l38 475q8 108 61.5 166.5t145.5 58.5q93 0 112.5 -60t-31.5 -164l-229 -477
q-12 -26 -28 -37.5t-36 -11.5z" />
    <glyph glyph-name="numbersign" unicode="#" horiz-adv-x="1273" 
d="M553 690q-18 -33 -46 -85t-61 -114.5t-67.5 -128.5t-67.5 -129t-61 -116t-48 -89q-26 -42 -64 -32q-37 11 -13 53q19 33 48 83.5t64 112.5t73 128t74.5 129t66 116t49.5 88t47.5 88.5t59.5 117.5l65.5 131t65 130.5t58 115.5t43.5 84q26 43 65 33q37 -11 13 -55
q-20 -36 -49.5 -89t-64 -115.5t-70.5 -128.5t-70 -128t-62.5 -113.5t-47.5 -86.5zM797 894q-34 0 -86 -1t-112.5 -2.5t-121.5 -3t-114 -2t-88 -0.5q-49 -1 -38 40q12 39 61 40q32 0 82.5 -1.5t110.5 -4t120.5 -5t113 -4t88.5 -1.5q35 0 87.5 1.5t112.5 3t119.5 4t109.5 3.5
t82 2q49 0 38 -40q-13 -40 -62 -41q-34 0 -85 1t-109.5 3t-116.5 4t-108 3t-84 1zM921 690q-19 -33 -46.5 -85t-60.5 -114.5t-67.5 -128.5t-67.5 -129t-61 -116.5t-48 -88.5q-27 -42 -64 -32q-38 11 -13 53q17 33 46 83.5t65 112.5t74 128t74 129t66 116t50 88q19 35 47 89
t60 118t65 131t64.5 130t58 114.5t44.5 83.5q26 44 64 34q39 -11 12 -56q-20 -35 -49 -88t-63.5 -115.5t-70.5 -128.5t-70 -128.5t-62.5 -114t-46.5 -85.5zM614 470q-34 -1 -86 -2t-112.5 -2.5t-121.5 -2.5t-113.5 -2t-87.5 -1q-49 0 -38 40q12 40 61 40q33 0 83.5 -1.5
t110 -4t120 -5t113 -4t88.5 -1.5q35 0 87.5 1.5t112.5 3t119 4t109.5 3.5t82.5 2q49 0 39 -40q-13 -40 -63 -41q-35 0 -86 1.5t-109.5 3t-116.5 3.5t-108 3.5t-84 1.5z" />
    <glyph glyph-name="dollar" unicode="$" horiz-adv-x="1142" 
d="M455 5q-153 0 -250 36t-141.5 99t-43.5 146q2 83 48 134t113 51q57 0 85.5 -38.5t20.5 -105.5l-7 -103q-4 -54 14 -93.5t60 -60.5t109 -21q103 0 177 45.5t91 133.5q12 57 -3.5 108.5t-66.5 102.5t-145 107q-122 72 -187.5 147t-84.5 157t0 174q15 80 61 147t119.5 117
t171.5 77.5t216 27.5q144 0 237 -40t138 -105.5t44 -143.5q0 -73 -45.5 -121.5t-113.5 -47.5q-57 0 -88.5 37t-23.5 109l9 91q8 91 -31 134.5t-131 43.5q-65 0 -122 -20.5t-96.5 -62t-51.5 -104.5q-12 -59 4 -110t68.5 -102.5t147.5 -114.5q124 -80 191.5 -158.5t88 -154.5
t4.5 -153q-14 -82 -65 -149.5t-131 -116t-179.5 -74t-210.5 -25.5zM680 742h-44q37 132 65 248t49 215t38.5 181t34.5 144q7 26 24.5 40.5t39.5 14.5q21 0 30.5 -14.5t0.5 -41.5q-14 -55 -39 -134.5t-56.5 -179.5t-68 -219t-74.5 -254zM594 680h44q-37 -133 -65.5 -251.5
t-50 -219t-38.5 -180t-32 -134.5q-8 -27 -25 -41.5t-40 -14.5q-20 0 -30 14.5t-1 41.5q16 63 41.5 144t57 180t67 214.5t72.5 246.5z" />
    <glyph glyph-name="percent" unicode="%" horiz-adv-x="1460" 
d="M647 1426q153 0 223 -98t24 -269q-32 -122 -101.5 -207t-161 -129t-190.5 -44q-169 0 -236.5 98.5t-17.5 282.5q30 111 96 193t159.5 127.5t204.5 45.5zM645 1047q48 182 39 255t-57 73q-53 0 -101.5 -74.5t-90.5 -230.5q-50 -189 -40 -264.5t62 -75.5q29 0 60 28t63 97
t65 192zM877 755q-15 -14 -24.5 -17.5t-20.5 3.5q-9 6 -8 15t14 24q18 23 60 73t97.5 114.5t114.5 133t111.5 129t89 103t46.5 53.5q25 27 50.5 34t48.5 -9q21 -14 18.5 -37.5t-26.5 -48.5q-11 -11 -50 -51t-96.5 -97.5t-121.5 -122t-125.5 -125.5t-108.5 -107t-69 -67z
M715 650q14 14 25.5 18t21.5 -3q9 -6 7 -16t-15 -25q-18 -22 -60 -72t-97 -115t-114.5 -134t-112.5 -130.5t-90 -104.5t-48 -54q-24 -26 -50 -32.5t-48 8.5q-21 14 -18 37t28 50q10 11 50 51.5t97.5 99t122 123l125.5 125.5t108 107.5t68 66.5zM1146 719q153 0 223 -98
t24 -269q-32 -122 -101.5 -207t-161 -129t-190.5 -44q-169 0 -236.5 98.5t-17.5 282.5q30 111 96 193t159.5 127.5t204.5 45.5zM1144 340q48 182 39 255t-57 73q-53 0 -101.5 -74.5t-90.5 -230.5q-50 -189 -40 -264.5t62 -75.5q29 0 60 28t63 97t65 192z" />
    <glyph glyph-name="ampersand" unicode="&#x26;" horiz-adv-x="1388" 
d="M187 162l1022 822q45 36 72.5 69t40 67t10.5 73q0 47 -16 80t-31.5 63.5t-17.5 67.5q0 50 37 89t101 40q66 2 106.5 -43.5t41.5 -118.5q0 -61 -26 -121.5t-85.5 -126.5t-159.5 -144l-1011 -814q-56 -42 -88 -82t-45.5 -79.5t-13.5 -79.5q1 -47 17.5 -80t33.5 -62.5
t17 -67.5q1 -50 -36 -87.5t-97 -38.5q-65 -1 -105.5 43.5t-41.5 123.5q-1 89 61.5 189.5t213.5 217.5zM1013 279q4 43 -8.5 76t-24.5 66.5t-9 77.5q3 34 24.5 67.5t60.5 55.5t92 22q66 0 107 -39t36 -119q-6 -103 -58 -195t-140.5 -162.5t-207.5 -110.5t-261 -40
q-186 0 -305 76t-164 208.5t-10 302.5q28 130 97.5 236t169 181t218 115.5t245.5 40.5q118 0 202 -36t126.5 -95.5t36.5 -128.5q-2 -36 -16.5 -60t-45.5 -26q-74 -3 -146.5 -34t-163.5 -102q9 29 21.5 79t21.5 136q8 106 -15 157.5t-75 51.5q-58 0 -114 -50.5t-103.5 -154.5
t-80.5 -268q-36 -182 -15 -304t83.5 -183t149.5 -61q54 0 101.5 15t85 43t60 69t25.5 93z" />
    <glyph glyph-name="quotesingle" unicode="'" horiz-adv-x="381" 
d="M281 835q-16 0 -25.5 12.5t-7.5 37.5l38 475q8 108 61.5 166.5t145.5 58.5q93 0 112.5 -60t-31.5 -164l-229 -477q-12 -26 -28 -37.5t-36 -11.5z" />
    <glyph glyph-name="parenleft" unicode="(" horiz-adv-x="689" 
d="M190 629q41 152 110.5 283t159.5 238t194 186t214 127q35 13 55 13.5t22 -11.5q2 -8 -9 -20.5t-37 -37.5q-98 -86 -183.5 -205.5t-152.5 -264t-112 -308.5q-45 -168 -54.5 -317.5t13 -272t70.5 -207.5q13 -23 16.5 -36t-2.5 -22q-18 -23 -77 3q-81 46 -142.5 126.5
t-95 190.5t-32.5 245.5t43 289.5z" />
    <glyph glyph-name="parenright" unicode=")" horiz-adv-x="684" 
d="M584 606q-41 -152 -110.5 -283t-159.5 -238t-194 -186t-214 -127q-35 -13 -55 -13.5t-22 11.5q-2 8 9 20.5t37 37.5q98 86 183.5 205.5t152.5 264t112 308.5q45 168 54.5 317.5t-13 272t-70.5 207.5q-13 23 -16.5 36t2.5 22q18 23 77 -3q81 -46 142.5 -126.5t95 -190.5
t32.5 -245.5t-43 -289.5z" />
    <glyph glyph-name="asterisk" unicode="*" horiz-adv-x="1174" 
d="M722 1009h-25q20 81 15 139.5t-20 104.5t-24.5 86t2.5 83q17 63 63 96t119 33q69 0 99 -33t13 -96q-12 -43 -43 -83.5t-69.5 -86t-74 -104t-55.5 -139.5zM708 1020q81 25 139.5 62.5t104 76.5t86.5 70.5t86 45.5q65 19 100.5 -5.5t39.5 -94.5q4 -65 -27.5 -111t-96.5 -66
q-45 -13 -88 -6t-91.5 18t-109.5 12t-142 -24zM716 1020l-14 -22q-68 25 -130 24t-116.5 -12t-101.5 -18t-85 6q-54 20 -61.5 65t34.5 114q38 65 88.5 91t104.5 7q38 -14 62 -45.5t48.5 -70.5t63.5 -76.5t107 -62.5zM701 1015l15 -13q-62 -65 -95 -124.5t-52 -112t-38.5 -97
t-54.5 -79.5q-102 -103 -199 -18q-44 40 -43.5 89t51.5 100q35 35 81 55.5t100 42t113 57t122 100.5zM697 1002l23 13q30 -65 71.5 -100.5t84.5 -57t78 -42t51 -55.5q23 -51 -1 -99t-95 -91q-66 -40 -115.5 -36t-73.5 55q-16 35 -11.5 79.5t13 97t6.5 112t-31 124.5z" />
    <glyph glyph-name="plus" unicode="+" horiz-adv-x="1029" 
d="M463 282q-21 0 -29.5 11.5t-4.5 26.5l196 735q4 14 19.5 24.5t35.5 10.5q22 -1 30 -12.5t4 -25.5l-195 -735q-5 -15 -20 -25.5t-36 -9.5zM159 687q5 20 20.5 30.5t32.5 10.5h740q16 0 24.5 -10.5t2.5 -30.5q-5 -19 -22 -29.5t-35 -10.5h-729q-20 0 -30 10.5t-4 29.5z" />
    <glyph glyph-name="comma" unicode="," horiz-adv-x="552" 
d="M153 4q-60 4 -89.5 38t-27.5 86q1 48 31 93.5t82.5 75t119.5 29.5q84 0 125.5 -49.5t37.5 -133.5q-5 -120 -60.5 -220.5t-144 -173.5t-192.5 -110q-35 -12 -55 -9.5t-25 15.5q-6 15 3 26.5t37 21.5q95 34 157.5 83.5t95 98t35.5 81.5q1 22 -11.5 31t-46.5 11z" />
    <glyph glyph-name="hyphen" unicode="-" horiz-adv-x="654" 
d="M596 615q39 0 21 -36l-44 -116q-9 -18 -19.5 -24t-26.5 -6h-440q-19 0 -24.5 9t3.5 27l44 116q9 18 19 24t26 6h441z" />
    <glyph glyph-name="period" unicode="." horiz-adv-x="540" 
d="M183 -19q-79 0 -121.5 39.5t-40.5 100.5q1 53 32 98t86.5 72t129.5 27q81 0 120.5 -41.5t38.5 -103.5q-1 -49 -30.5 -93.5t-84 -71.5t-130.5 -27z" />
    <glyph glyph-name="slash" unicode="/" horiz-adv-x="870" 
d="M500 605q-33 -61 -78.5 -146t-97 -183t-103 -196.5t-98 -187t-81.5 -154.5q-18 -30 -39.5 -40.5t-45.5 -1.5q-23 9 -26.5 29t14.5 49q32 60 80.5 145t105 182t112.5 194.5t105.5 184t83.5 149.5q35 64 81.5 153t97.5 189.5t102.5 200.5t96 186.5t77.5 146.5
q18 29 39.5 40t46.5 1q23 -9 25 -28.5t-15 -48.5q-36 -66 -85 -154.5t-104 -186.5t-110 -195t-103 -182t-81 -146z" />
    <glyph glyph-name="zero" unicode="0" horiz-adv-x="1343" 
d="M937 1425q137 0 231 -55t144 -154t55 -232.5t-36 -290.5q-46 -172 -126 -305.5t-185.5 -225t-228 -138.5t-252.5 -47q-140 0 -235.5 55.5t-145.5 155.5t-54.5 234.5t37.5 294.5q57 217 174 376t277.5 245.5t344.5 86.5zM957 698q62 245 77 389t-16 206.5t-106 62.5
q-72 0 -143 -74.5t-135 -214t-114 -333.5q-50 -197 -71 -330t-15 -211.5t37 -112.5t86 -34q68 0 139 72t138 216.5t123 363.5z" />
    <glyph glyph-name="one" unicode="1" horiz-adv-x="884" 
d="M340 1256l113 -1q25 0 33 -14t-3 -49l-282 -1048q-7 -26 -21.5 -40t-35.5 -18l-133 -15q-18 -4 -28.5 -13.5t-10.5 -23.5q0 -16 9.5 -25t31.5 -9h669q23 0 36.5 10t14.5 28q0 12 -7.5 20t-22.5 11l-113 15q-30 4 -34 18t3 36l332 1247q7 23 -2 34t-31 11
q-11 0 -23.5 -5.5t-30.5 -15.5q-34 -23 -74 -39t-96 -24t-140 -8l-129 -1q-27 0 -42 -11.5t-19 -29.5q-5 -18 3.5 -29t32.5 -11z" />
    <glyph glyph-name="two" unicode="2" horiz-adv-x="1217" 
d="M213 318l-9 39l193 94q132 62 233 144t171 189.5t106 245.5q33 122 33 196.5t-26 108t-72 33.5q-51 0 -91 -22.5t-67.5 -64t-43.5 -99.5l-35 -131q-23 -84 -83 -133t-132 -49q-76 0 -108 45t-9 127q27 97 109.5 185.5t217 144.5t315.5 56q157 0 250 -50t123 -140.5
t-3 -209.5q-21 -77 -71.5 -147.5t-135 -137.5t-206 -133.5t-285.5 -136.5zM-1 137q32 119 140 190.5t275 71.5q69 0 133.5 -14.5t125 -33.5t116.5 -33t107 -14q69 0 117 30.5t91 105.5q10 15 22 21.5t23 5.5q17 -2 22 -14t-5 -38q-58 -164 -126 -260.5t-146.5 -138
t-168.5 -41.5q-79 0 -131 25.5t-82 89t-45 175.5q-12 40 -23 56t-32 16t-41 -25.5t-41 -89.5q-33 -96 -70 -149.5t-79.5 -75t-92.5 -21.5q-60 0 -84.5 44.5t-4.5 116.5z" />
    <glyph glyph-name="three" unicode="3" horiz-adv-x="1131" 
d="M568 739l-13 20q13 3 30 5.5t36 4.5t37 2q158 6 259.5 -40.5t138.5 -137t0 -217.5q-35 -121 -126 -211t-223 -140.5t-294 -50.5q-148 0 -239 42.5t-128 111t-24 148.5q11 83 64.5 131t119.5 48q79 0 112 -52t12 -126l-24 -80q-22 -82 9.5 -124t110.5 -42q53 0 103.5 33.5
t93.5 103t73 179.5q48 178 6.5 262t-147.5 84h-53q-19 0 -28.5 8.5t-4.5 27.5q4 14 16.5 26.5t33.5 27.5l497 396l-20 -68h-535q-30 0 -47.5 -8.5t-29.5 -29.5l-50 -91q-9 -16 -22.5 -26t-31.5 -9t-26 12t1 33l135 352q10 27 31.5 41.5t52.5 14.5h800q24 0 34.5 -11.5
t5.5 -29.5q-4 -14 -20.5 -28.5t-45.5 -34.5z" />
    <glyph glyph-name="four" unicode="4" horiz-adv-x="1182" 
d="M648 655q5 17 15 29.5t24 22.5l318 259q20 14 31.5 18.5t22.5 4.5q12 0 17 -7.5t0 -24.5l-219 -819q-6 -22 2 -34t29 -17l78 -16q17 -5 25 -13.5t4 -22.5q-5 -16 -18.5 -25.5t-37.5 -9.5h-596q-23 0 -31.5 9t-3.5 25q3 15 15.5 24t31.5 13l95 15q22 4 36 18.5t21 39.5z
M517 832q49 37 80 70.5t41 73.5q9 29 5.5 60t-9.5 64t-8.5 68.5t7.5 74.5q25 87 94.5 139.5t170.5 52.5q79 0 118.5 -38.5t27.5 -107.5q-5 -45 -32 -93t-80 -102t-137 -121l-727 -610l-5 33h1018q20 0 30 -8t6 -25q-5 -18 -19 -28t-37 -10l-1038 1q-22 0 -30.5 11t-3.5 29
q3 11 14 24t34 28z" />
    <glyph glyph-name="five" unicode="5" horiz-adv-x="1151" 
d="M43 276q7 55 34 95.5t66 62.5t84 22q78 0 111 -49.5t10 -129.5l-23 -79q-22 -82 9.5 -124.5t110.5 -42.5q52 0 102 33.5t94 108t77 197.5q53 190 12.5 284.5t-140.5 94.5q-40 0 -85 -15.5t-95 -47.5t-103 -80q-26 -15 -40 -22.5t-31 -7.5q-16 0 -24 10.5t-3 30.5l201 748
q9 28 27.5 43.5t49.5 15.5q15 0 30 -3.5t30 -8.5q55 -24 115.5 -45.5t124.5 -34.5t130 -13q119 0 203 23.5t134 75.5q13 8 24 12.5t21 0.5q7 -4 9 -13.5t-8 -29.5q-73 -197 -200 -282t-318 -85q-128 0 -232.5 32t-171.5 78l71 66l-155 -564l-25 12q78 67 146.5 107.5t141 59
t162.5 18.5q141 0 234 -53t126.5 -150t-4.5 -229q-38 -130 -131 -225t-225.5 -147t-293.5 -52q-143 0 -232 42.5t-126 111.5t-24 148z" />
    <glyph glyph-name="six" unicode="6" horiz-adv-x="1226" 
d="M954 1427q129 0 213.5 -41t123 -106.5t27.5 -138.5q-12 -84 -66.5 -130t-124.5 -46q-83 0 -115.5 48t-9.5 129l20 69q20 71 -4.5 110.5t-95.5 39.5q-69 0 -141.5 -71.5t-146 -230t-145.5 -421.5q-47 -173 -64 -288.5t-8.5 -183t39 -96.5t77.5 -29q61 0 111.5 40
t91.5 119.5t71 197.5q34 129 29 209.5t-40.5 118.5t-94.5 38q-39 0 -79 -16t-77 -45.5t-66.5 -71t-47.5 -93.5l-36 20q22 67 64 120.5t100.5 91.5t130 58.5t152.5 20.5q123 0 207.5 -54t115 -155.5t-10.5 -244.5q-36 -130 -128 -224.5t-221.5 -145t-279.5 -50.5
q-180 0 -286 91.5t-130 257.5t39 388q66 232 188.5 391t282 241.5t335.5 82.5z" />
    <glyph glyph-name="seven" unicode="7" horiz-adv-x="1029" 
d="M1008 1129l6 -30h-612q-30 0 -44.5 -8.5t-26.5 -28.5l-63 -100q-9 -16 -23 -26t-33 -9q-20 1 -26.5 12.5t2.5 32.5l157 372q11 25 30 40.5t47 15.5h814q32 0 44.5 -13t5.5 -34q-3 -15 -18 -35t-49 -47l-404 -470q-63 -57 -102.5 -101t-62 -84t-36.5 -86
q-15 -54 -13 -98.5t9.5 -86t10.5 -85t-11 -94.5q-22 -79 -93.5 -137t-175.5 -58q-105 0 -145.5 59t-10.5 169q18 63 62.5 126.5t109.5 131t146 142.5t170 161z" />
    <glyph glyph-name="eight" unicode="8" horiz-adv-x="1159" 
d="M425 -25q-154 0 -246 46.5t-122.5 125.5t-3.5 176q21 72 85 136t166 109t237 60l-1 -18q-44 -31 -82.5 -74.5t-67.5 -94.5t-46 -104q-34 -105 -28 -173t44.5 -100t101.5 -32q84 0 146 57t88 142q22 69 12.5 125t-53 101.5t-124.5 85.5q-130 75 -206 143.5t-99 148.5
t4 188q21 81 78.5 154t145 129t199.5 88.5t241 32.5q142 0 237 -49t130.5 -136t-0.5 -203q-21 -68 -72.5 -129t-123.5 -109t-156.5 -79.5t-170.5 -42.5l-11 21q77 57 143 140.5t99 180.5q56 162 21 254t-147 92q-60 0 -113.5 -28.5t-93.5 -78t-60 -114.5
q-26 -89 -10.5 -156.5t71.5 -122.5t149 -108q173 -101 235.5 -200t26.5 -225q-29 -106 -114 -187t-215 -126.5t-294 -45.5z" />
    <glyph glyph-name="nine" unicode="9" horiz-adv-x="1220" 
d="M415 -25q-128 0 -214 41t-124.5 107t-27.5 139q11 83 65.5 129.5t125.5 46.5q82 0 114.5 -48t9.5 -129l-20 -69q-20 -71 6 -111t97 -40q70 0 142 71.5t144.5 230.5t143.5 421q63 226 73.5 356.5t-21 185.5t-94.5 55q-60 0 -111 -40t-92.5 -119.5t-72.5 -199.5
q-33 -129 -27.5 -210.5t41.5 -119.5t92 -38q52 0 105 28t97 78.5t68 119.5l35 -21q-21 -66 -63.5 -119.5t-100.5 -91.5t-129.5 -58.5t-152.5 -20.5q-122 0 -207 53.5t-116.5 153t6.5 236.5q38 134 132.5 231.5t225.5 150.5t278 53q179 0 285 -91t130.5 -257.5t-40.5 -391.5
q-67 -230 -188.5 -389t-279.5 -241t-335 -82z" />
    <glyph glyph-name="colon" unicode=":" horiz-adv-x="655" 
d="M192 -19q-79 0 -121.5 39.5t-40.5 100.5q1 53 32 98t86.5 72t129.5 27q81 0 120.5 -41.5t38.5 -103.5q-1 -49 -30.5 -93.5t-84 -71.5t-130.5 -27zM341 569q-79 0 -121.5 39.5t-40.5 100.5q1 53 32 98t86.5 72t129.5 27q81 0 120.5 -41.5t38.5 -103.5q-1 -49 -30.5 -93.5
t-84 -71.5t-130.5 -27z" />
    <glyph glyph-name="semicolon" unicode=";" horiz-adv-x="658" 
d="M157 4q-60 4 -89.5 38t-27.5 86q1 48 31 93.5t82.5 75t119.5 29.5q84 0 125.5 -49.5t37.5 -133.5q-5 -120 -60.5 -220.5t-144 -173.5t-192.5 -110q-35 -12 -55 -9.5t-25 15.5q-6 15 3 26.5t37 21.5q95 34 157.5 83.5t95 98t35.5 81.5q1 22 -11.5 31t-46.5 11zM339 559
q-79 0 -121.5 39.5t-40.5 100.5q1 53 32 98t86.5 72t129.5 27q81 0 120.5 -41.5t38.5 -103.5q-1 -49 -30.5 -93.5t-84 -71.5t-130.5 -27z" />
    <glyph glyph-name="less" unicode="&#x3c;" horiz-adv-x="963" 
d="M253 683l-5 -15l734 374q24 11 37 23t17 25q7 19 -1 32.5t-27 13.5q-16 0 -35 -7t-48 -19l-711 -361q-28 -12 -44.5 -28t-22.5 -37q-12 -42 28 -66l532 -362q21 -12 36.5 -19t32.5 -7q39 0 48 30q3 11 -3 22.5t-23 21.5z" />
    <glyph glyph-name="equal" unicode="=" horiz-adv-x="1031" 
d="M224 859q5 19 20.5 30t32.5 11h740q16 0 24.5 -11t3.5 -30q-6 -20 -23 -30.5t-35 -10.5h-729q-20 0 -30 10.5t-4 30.5zM134 512q5 19 20.5 30t32.5 11h740q16 0 24.5 -11t3.5 -30q-6 -20 -23 -30.5t-35 -10.5h-729q-20 0 -30 10.5t-4 30.5z" />
    <glyph glyph-name="greater" unicode="&#x3e;" horiz-adv-x="963" 
d="M836 685l5 15l-734 -374q-24 -11 -37 -23t-17 -25q-7 -19 1 -32.5t27 -13.5q16 0 35 7t48 19l711 361q28 12 44.5 28t22.5 37q12 42 -28 66l-532 362q-21 12 -36.5 19t-32.5 7q-39 0 -48 -30q-3 -11 3 -22.5t23 -21.5z" />
    <glyph glyph-name="question" unicode="?" horiz-adv-x="1039" 
d="M410 641l-29 -134q-2 -27 7 -42t31 -15q21 0 36 13t34 45l35 111q11 28 27.5 45t55.5 25l68 15q197 45 319 141t162 245q30 112 -7.5 198t-137.5 134t-257 48q-148 0 -266.5 -47t-195 -122t-100.5 -160q-20 -74 11 -122.5t100 -48.5q77 0 129.5 42t78.5 129l27 97
q23 81 67.5 122t115.5 41q45 0 71.5 -28t30 -85.5t-21.5 -146.5q-44 -155 -102.5 -240t-149.5 -129l-54 -26q-43 -20 -61.5 -44.5t-23.5 -60.5zM293 -20q-79 0 -121.5 40t-40.5 101q1 53 32 97.5t86.5 72t129.5 27.5q81 0 120.5 -41.5t38.5 -103.5q-1 -50 -30.5 -94
t-84 -71.5t-130.5 -27.5z" />
    <glyph glyph-name="at" unicode="@" horiz-adv-x="1720" 
d="M721 408q-9 -80 8.5 -112t45.5 -32q29 0 60.5 26t63 75t62 118.5t58 157.5t50.5 191q13 59 4.5 92.5t-42.5 33.5q-41 0 -83 -33.5t-80 -90.5t-69.5 -128t-52 -148t-25.5 -150zM1094 132q-76 0 -112 34.5t-35 94.5q1 26 7 62t16.5 80t23.5 93l12 -35
q-48 -108 -102.5 -181.5t-122 -110.5t-154.5 -37q-108 0 -166.5 72t-46.5 214q7 117 59.5 227t142.5 197.5t210 139.5t262 52q106 0 181 -14t115 -35.5t37 -43.5q-1 -20 -14.5 -29.5t-28.5 -19t-21 -29.5l-118 -448q-25 -94 -16.5 -130t48.5 -36q37 0 85.5 24t98 71.5
t92 118t66.5 164.5q59 221 8.5 379t-183.5 243t-325 85q-162 0 -311.5 -55.5t-273.5 -156t-212.5 -236.5t-131.5 -298q-62 -236 -12 -414t193 -276.5t360 -98.5q129 0 258 34t250.5 99.5t228.5 161.5q20 13 39 18t29 -7q9 -10 1.5 -27.5t-26.5 -32.5q-96 -96 -223.5 -166
t-274 -108.5t-304.5 -38.5q-176 0 -311.5 59t-218.5 171t-104 270t31 356q46 172 144.5 319t237.5 256.5t306 171t349 61.5q160 0 285 -51.5t204 -150.5t100 -241.5t-27 -324.5q-40 -152 -132 -263t-215 -172t-258 -61z" />
    <glyph glyph-name="A" unicode="A" horiz-adv-x="1294" 
d="M250 297q-52 -83 -35.5 -140t82.5 -76l35 -11q15 -6 21 -14t6 -18q0 -18 -13 -28t-35 -10h-356q-22 0 -33 8.5t-11 23.5q0 16 10.5 27.5t39.5 27.5q45 21 97.5 80t105.5 147l471 758q115 180 251 265t285 85q40 0 56 -10.5t16 -28.5q0 -12 -6 -20.5t-21 -15.5
q-48 -9 -75 -42t-29 -97q-1 -29 -2.5 -92t-3.5 -148.5t-4.5 -181.5t-4.5 -192t-4 -179.5t-3 -143.5t-1 -84q1 -34 5.5 -55t21.5 -34.5t53 -25.5q25 -14 25 -35q0 -16 -13 -26.5t-37 -10.5h-515q-22 0 -31 9.5t-9 23.5q0 15 9.5 24t27.5 16l67 12q28 8 40 32t13 59q1 31 3 92
t5.5 141.5t7 171.5t7 183t6 175.5t4.5 149t2 103.5l50 -11q-12 -7 -28.5 -21.5t-40.5 -45t-61 -86.5zM290 444l18 67h543l-5 -67h-556z" />
    <glyph glyph-name="B" unicode="B" horiz-adv-x="1388" 
d="M779 1215q-17 -68 -41 -157.5t-50.5 -189.5t-53 -201.5t-50.5 -194.5t-43 -167t-30 -120q-10 -38 2 -64t44.5 -38.5t84.5 -12.5q122 0 200 70.5t102 212.5q22 134 -34 200.5t-165 66.5h-223l19 62h210q89 0 157.5 49t112 137.5t56.5 208.5q17 127 -29 190.5t-129 63.5
q-59 0 -90.5 -26t-49.5 -90zM370 1400h604q239 0 345.5 -94.5t87.5 -259.5q-14 -116 -87 -204.5t-197 -138.5t-293 -50l-7 12q176 0 286 -39t158 -110t36 -170q-20 -161 -172 -253.5t-442 -92.5h-658q-25 0 -34 9t-9 24q0 13 9.5 23t26.5 16l66 12q23 6 34 20.5t19 40.5
q11 33 30 102.5t44 162t52.5 195.5t54.5 204.5t50 189.5t39 150t21 85q9 40 6.5 57.5t-29.5 25.5l-64 12q-15 6 -22 13.5t-7 18.5q0 17 13 28t39 11z" />
    <glyph glyph-name="C" unicode="C" horiz-adv-x="1289" 
d="M1201 453q13 -5 17 -22t-14 -51q-61 -136 -152 -225.5t-204.5 -133.5t-243.5 -44q-170 0 -293 79t-175.5 232.5t-10.5 374.5q31 167 106 306t183 241.5t238.5 158.5t271.5 56q69 0 116.5 -16t79 -37t51 -37t31.5 -16q13 0 33 15.5t42 35.5t41.5 36t32.5 16q17 0 27.5 -11
t9.5 -31l-19 -409q-1 -21 -12.5 -31t-28.5 -10q-33 -1 -46 39l-18 64q-47 163 -115.5 231t-163.5 68q-76 0 -146.5 -43.5t-130.5 -124.5t-105.5 -195t-72.5 -255q-41 -216 -20 -343.5t87.5 -183t160.5 -55.5q65 0 130.5 28t129 91.5t118.5 168.5q20 22 35 30.5t30 2.5z" />
    <glyph glyph-name="D" unicode="D" horiz-adv-x="1506" 
d="M-8 33q0 13 9 23.5t25 15.5l65 12q16 3 26.5 12t19 27t18.5 49q11 42 31 114.5t44.5 164t51 192t53 198.5t48.5 183t38 146.5t22 87.5q6 27 -1 40.5t-30 18.5l-61 12q-16 6 -23.5 13.5t-7.5 19.5q0 17 13 27.5t37 10.5h579q144 0 258 -46.5t189 -137t101.5 -221.5
t-7.5 -301q-31 -163 -107 -291.5t-189 -218t-256.5 -137t-310.5 -47.5h-594q-24 0 -32.5 9t-8.5 24zM644 77q70 0 138 34.5t129.5 109.5t113 195t86.5 290q35 162 35.5 279t-25.5 192.5t-72 111.5t-104 36h-42q-40 0 -69 -27.5t-48 -89.5q-9 -32 -25.5 -92.5t-38 -140
t-45.5 -169t-48 -179.5t-44.5 -171t-36 -143t-22.5 -96q-15 -72 2.5 -106t67.5 -34h48z" />
    <glyph glyph-name="E" unicode="E" horiz-adv-x="1291" 
d="M538 761h278q62 0 111.5 35.5t69.5 127.5q7 14 16 20.5t20 6.5q17 0 26 -10t11 -27l35 -356q4 -27 -5.5 -39.5t-27.5 -13.5q-14 0 -23.5 7t-16.5 22q-32 85 -81 122.5t-140 37.5h-295zM754 0h-723q-24 0 -33 9t-9 24q0 14 9 24t25 15l68 12q21 5 32.5 20.5t20.5 43.5
q7 23 24.5 87.5t42 155.5t52.5 196t56.5 210.5t53 198.5t42 160t24.5 94q7 33 1.5 47.5t-27.5 19.5l-65 12q-12 5 -20 12t-8 21q0 17 12.5 27.5t36.5 10.5h790q60 0 92 16t56 16q40 0 45 -44l6 -348q3 -23 -5 -36t-25 -15q-20 -2 -33.5 8t-24.5 40q-33 120 -67.5 184t-80 88
t-112.5 24h-194q-9 -31 -28.5 -103t-46 -171.5t-56.5 -211t-59 -223t-54.5 -208.5t-42.5 -165.5t-23 -93.5q-7 -32 -2.5 -52t23.5 -29t56 -9h131q77 0 141 30t126 101t132 193q24 41 49 41q35 0 33 -48q-6 -101 -28 -177.5t-58 -128t-85 -77.5t-110 -26q-41 0 -77 12.5
t-83 12.5z" />
    <glyph glyph-name="F" unicode="F" horiz-adv-x="1228" 
d="M319 1362q0 17 13 27.5t37 10.5h768q60 0 92 16t57 16q39 0 44 -44l6 -359q3 -23 -5 -35.5t-26 -14.5q-19 -3 -32 8t-25 38l-18 61q-27 95 -58.5 148.5t-75.5 76t-110 22.5h-169q-10 -36 -31 -110.5t-47 -173.5t-55.5 -210t-58 -221t-53.5 -206t-43 -165t-24 -98
q-8 -27 -4.5 -44t32.5 -21l105 -12q16 -3 24.5 -11.5t8.5 -21.5q0 -17 -13 -28t-40 -11h-587q-24 0 -33 9t-9 24q0 14 9.5 24t27.5 16l65 12q21 4 33 20t20 44q10 34 29 103t44.5 161t52.5 195t54 205t50.5 191.5t40 154t23.5 92.5q8 32 2 46t-28 20l-63 12
q-15 6 -22.5 13.5t-7.5 19.5zM528 730h274q71 0 115.5 40t65.5 132q7 15 15.5 22t20.5 7q17 0 26 -10.5t11 -28.5l45 -376q4 -27 -5.5 -39t-27.5 -14q-14 0 -23 7.5t-17 22.5q-22 57 -50.5 94.5t-71 56.5t-109.5 19h-291z" />
    <glyph glyph-name="G" unicode="G" horiz-adv-x="1444" 
d="M920 1426q82 0 138 -18t92.5 -42t58 -42t34.5 -18q14 0 36 17.5t45.5 40.5t45 40.5t34.5 17.5q19 0 30 -12.5t12 -38.5l-19 -398q1 -23 -9 -33t-26 -11q-16 -2 -28 6.5t-19 26.5l-33 94q-33 100 -79 162t-102.5 90.5t-124.5 28.5q-85 0 -162.5 -47t-142 -136.5
t-113 -217.5t-78.5 -290q-38 -216 -25.5 -343t63 -182.5t127.5 -55.5q57 0 110 22.5t92.5 67t57.5 110.5l67 260q6 24 -0.5 39.5t-29.5 18.5l-95 12q-16 3 -22.5 11.5t-6.5 20.5q0 18 12.5 28.5t37.5 10.5h518q25 0 33.5 -9t8.5 -24q-1 -14 -10.5 -23.5t-25.5 -15.5l-53 -14
q-19 -5 -30 -18.5t-18 -36.5l-133 -488q-10 -34 -23 -47t-36 -13q-11 0 -35 9t-52.5 22.5t-57.5 27.5t-52 23.5t-33 9.5q-13 0 -37.5 -14t-61.5 -32.5t-87.5 -32t-116.5 -13.5q-174 0 -294.5 80t-170 232t-12.5 366q29 169 103.5 310t182 244t239 160t276.5 57z" />
    <glyph glyph-name="H" unicode="H" horiz-adv-x="1599" 
d="M501 135q-5 -22 2 -34.5t26 -17.5l65 -12q15 -5 22.5 -13t7.5 -20q0 -17 -13 -27.5t-37 -10.5h-543q-24 0 -33 9t-9 24t10 24.5t24 14.5l67 12q20 5 32 18t21 42q8 29 27 97t44 161t53.5 198.5t56.5 210.5t52.5 197t41.5 159.5t23 95.5q5 23 -1.5 35.5t-28.5 18.5l-64 12
q-15 6 -22 13.5t-7 19.5q0 18 13 28t38 10h538q25 0 33.5 -9t8.5 -23t-9.5 -24.5t-25.5 -14.5l-69 -14q-20 -5 -29.5 -16.5t-20.5 -41.5q-9 -29 -28 -98.5t-45 -165.5t-54 -204t-56 -215.5t-51.5 -199.5t-39.5 -155.5t-20 -83.5zM496 698h740l-20 -73h-741zM1296 135
q-5 -22 2 -34.5t27 -17.5l63 -12q16 -5 23.5 -13t7.5 -20q0 -17 -13 -27.5t-37 -10.5h-542q-25 0 -34 9t-9 24t10 24.5t25 14.5l66 12q21 5 32.5 18t20.5 42t27.5 97t43.5 161t53.5 198.5t56.5 210.5t52.5 197t41.5 159.5t23 95.5q5 23 -1.5 35.5t-28.5 18.5l-64 12
q-16 6 -22.5 13.5t-6.5 19.5q0 18 13 28t38 10h538q25 0 33.5 -9t8.5 -23t-9.5 -24.5t-25.5 -14.5l-69 -14q-19 -5 -29.5 -16.5t-19.5 -41.5q-9 -29 -29 -98.5t-45.5 -165.5t-53.5 -204t-56 -215.5t-51.5 -199.5t-39 -155.5t-20.5 -83.5z" />
    <glyph glyph-name="I" unicode="I" horiz-adv-x="804" 
d="M503 135q-5 -22 2 -34.5t27 -17.5l63 -12q16 -5 23.5 -13t7.5 -20q0 -17 -13 -27.5t-37 -10.5h-542q-25 0 -34 9t-9 24t10 24.5t25 14.5l66 12q21 5 32.5 18t20.5 42t27.5 97t43.5 161t53.5 198t56 210.5t51.5 197.5t41.5 159.5t23.5 95.5q4 23 -2 35.5t-28 18.5l-64 12
q-16 6 -22.5 13.5t-6.5 19.5q0 18 13 28t38 10h538q25 0 33.5 -9t8.5 -23t-9.5 -24.5t-25.5 -14.5l-69 -14q-20 -5 -30 -16.5t-20 -41.5q-9 -29 -28 -98.5t-44.5 -165.5t-54 -204t-56 -215.5t-51 -199.5t-39 -155.5t-20.5 -83.5z" />
    <glyph glyph-name="J" unicode="J" horiz-adv-x="793" 
d="M786 1229q-5 -17 -23 -84t-44.5 -167t-57.5 -218t-62 -238t-58.5 -226t-47.5 -183t-28 -107q-29 -133 -94.5 -220t-155.5 -129.5t-194 -42.5q-90 0 -136 39.5t-46 96.5q0 50 33.5 84t90.5 34q35 0 68.5 -16t65 -36.5t61.5 -36.5t59 -16q31 0 50.5 20.5t19.5 66.5
q0 26 -17 52.5t-41 57t-45 65.5t-30 77t5 93q9 34 26.5 102t41.5 157.5t50.5 189t52.5 196.5t48.5 180t37.5 140l20 76q11 43 5.5 58.5t-31.5 22.5l-64 12q-16 6 -22.5 13.5t-6.5 19.5q0 17 12.5 27.5t37.5 10.5h539q25 0 33.5 -9t8.5 -23t-9.5 -24.5t-24.5 -14.5l-68 -14
q-15 -4 -24.5 -12t-17.5 -25.5t-18 -48.5z" />
    <glyph glyph-name="K" unicode="K" horiz-adv-x="1486" 
d="M492 130q-4 -16 3.5 -27.5t26.5 -17.5l63 -12q13 -6 22.5 -13.5t9.5 -22.5q0 -17 -13 -27t-37 -10h-535q-25 0 -34 9t-9 24t10 24.5t25 14.5l66 12q22 5 33.5 19.5t19.5 40.5q9 29 27.5 97.5t44 161.5t53.5 198.5l56 211t52.5 198t41.5 160t24 95.5q5 23 -2.5 35
t-28.5 16l-63 12q-15 6 -22 13.5t-7 20.5q0 17 13.5 27t36.5 10h541q20 0 29 -9t9 -24t-9.5 -23.5t-27.5 -15.5l-74 -17q-18 -5 -28.5 -15.5t-18.5 -35.5q-9 -29 -28.5 -99.5t-45.5 -167t-55 -205.5t-57 -216.5t-52 -200.5t-40 -156.5t-20 -84.5zM731 700l261 262l228 -691
q18 -52 38.5 -76.5t50.5 -24.5q21 0 38.5 12.5t36.5 38.5q19 17 34 12q11 -3 16 -14.5t-4 -32.5q-29 -67 -77 -115t-109.5 -73.5t-132.5 -25.5q-83 0 -127.5 38t-73.5 129zM498 393l-28 64l747 809q55 59 101.5 96t91 54t92.5 17q69 0 105.5 -38t32.5 -97
q-4 -67 -48.5 -102.5t-117.5 -35.5q-40 0 -70.5 8t-65.5 8q-57 0 -105 -21t-100 -78z" />
    <glyph glyph-name="L" unicode="L" horiz-adv-x="1176" 
d="M684 0h-652q-25 0 -34 9t-9 24q1 14 10.5 24t24.5 15l67 12q22 6 33 21.5t21 44.5q8 28 26.5 95.5t44 161t54 199.5t56.5 211.5t52.5 197.5t41 157.5t21.5 90.5q5 24 -2 36.5t-26 16.5l-66 14q-14 4 -21.5 12t-7.5 20q0 17 12.5 27.5t36.5 10.5h540q24 0 33 -9t9 -23
q0 -15 -9.5 -25t-24.5 -15l-71 -13q-18 -5 -29 -18t-19 -41q-12 -34 -31.5 -104t-44 -162.5t-51.5 -195t-53 -203.5t-48 -188t-37.5 -149t-20.5 -86q-13 -56 5 -78.5t65 -22.5h82q69 0 127 33t119.5 110.5t140.5 213.5q13 26 25.5 36t26.5 10q19 0 27 -13t7 -35
q-8 -112 -32 -196t-62 -139.5t-87 -83t-109 -27.5q-26 0 -49.5 6t-49.5 12t-62 6z" />
    <glyph glyph-name="M" unicode="M" horiz-adv-x="1761" 
d="M921 473l-98 -60l557 898q34 55 65.5 72t69.5 17h331q24 0 33 -8.5t9 -23.5t-9.5 -25t-25.5 -15l-73 -13q-18 -4 -30 -19.5t-17 -41.5q-7 -30 -21.5 -98t-34 -160.5t-41.5 -197t-43.5 -208t-40 -195t-32 -157t-18.5 -93.5q-4 -23 2.5 -39.5t27.5 -21.5l70 -13
q15 -5 22.5 -12.5t7.5 -20.5q0 -17 -13 -27.5t-37 -10.5h-543q-23 0 -32.5 9t-9.5 25q0 15 10 24t24 14l68 13q21 5 33.5 21.5t19.5 48.5q16 74 33 153t35.5 163t37.5 171t37.5 177t37.5 181.5t37 182.5l22 3l-625 -1028q-24 -36 -42.5 -51t-44.5 -15q-22 0 -37.5 20
t-22.5 57q-8 65 -18 139t-20 154.5t-21.5 167t-23.5 178.5t-25 187.5t-26 193.5l28 9l-267 -937q-22 -80 -3.5 -122.5t70.5 -57.5l34 -10q28 -12 28 -33q-1 -17 -14 -27.5t-36 -10.5h-340q-24 0 -33.5 9t-9.5 24q1 15 10.5 24.5t24.5 15.5l30 8q31 10 61 31.5t57 67.5
t50 128l267 940q9 31 2 46.5t-30 21.5l-66 13q-15 6 -21.5 13.5t-6.5 20.5q1 17 14 27t35 10h333q37 0 62.5 -17t34.5 -66q8 -59 17 -123t18.5 -131.5t19.5 -138t20.5 -144.5t22 -150.5t23.5 -156.5z" />
    <glyph glyph-name="N" unicode="N" horiz-adv-x="1361" 
d="M264 283l215 835l-67 -7q39 -106 78.5 -213.5t78 -212l73.5 -199.5t63.5 -175.5t48.5 -139.5q13 -28 18.5 -52.5t3.5 -56.5q-1 -30 13.5 -46t41.5 -16h309q29 0 39 20.5t-2 48.5l-56 173q-11 27 -11 46.5t7 48.5l130 564q15 58 37 100t57 76t85 67q74 48 107 92.5
t33 98.5q1 52 -32 82t-88 30q-70 0 -123.5 -55.5t-81.5 -168.5l-229 -963l77 39q-31 83 -61 162.5t-61 158.5t-62.5 160.5t-64.5 168.5t-67 181t-70 200q-18 38 -39 54t-59 16h-265q-24 0 -35.5 -11.5t-10.5 -29t14 -33.5l56 -141q16 -23 20.5 -53.5t-4.5 -63.5l-199 -776
q-23 -92 -68 -143.5t-96 -66.5l-32 -10q-33 -13 -33 -39q0 -15 10 -24t33 -9h361q19 0 30.5 8.5t11.5 25.5q0 13 -7.5 21.5t-20.5 13.5l-30 8q-62 20 -79.5 71t3.5 135z" />
    <glyph glyph-name="O" unicode="O" 
d="M989 1425q138 -1 244.5 -55t173.5 -152t86.5 -233t-17.5 -300q-39 -174 -122.5 -307t-199.5 -223t-253.5 -135t-284.5 -43q-144 1 -252.5 54t-173.5 152t-79.5 239.5t30.5 316.5q37 148 114.5 273.5t187.5 218.5t248 144.5t298 49.5zM640 51q54 -1 111 27.5t113.5 101.5
t111 201t102.5 325q32 129 46 226t14 167q0 88 -21.5 143t-58.5 82t-86 28q-56 3 -114 -29t-114 -105.5t-108 -196.5t-97 -303q-36 -145 -52.5 -249t-17.5 -176q0 -130 46.5 -185t124.5 -57z" />
    <glyph glyph-name="P" unicode="P" horiz-adv-x="1365" 
d="M1423 933q-17 -109 -72 -196t-140.5 -147.5t-195 -92.5t-236.5 -32q-98 0 -157 15.5t-118 43.5l27 66q50 -29 96.5 -40t95.5 -11q89 0 162 44.5t124.5 136.5t75.5 233q24 134 5 216t-67 119.5t-113 37.5q-51 0 -81 -25t-47 -78q-4 -13 -19 -72.5t-38.5 -149t-51.5 -195.5
t-55.5 -213t-52 -201t-41.5 -160.5t-23 -89.5q-7 -26 -1 -40t23 -17l108 -14q17 -3 24 -11.5t7 -20.5q0 -17 -12.5 -28t-37.5 -11h-583q-25 0 -33.5 9t-8.5 24t10 24.5t25 14.5l64 12q23 5 34.5 18.5t19.5 39.5q7 21 25.5 88.5t45 164.5t56 208t59 221.5t54 204.5t40.5 157
t19 78q5 24 -2.5 36t-27.5 17l-64 12q-15 6 -22 13.5t-7 19.5q0 18 13 28t37 10h606q115 0 206.5 -33t152 -94.5t85.5 -147.5t7 -192z" />
    <glyph glyph-name="Q" unicode="Q" 
d="M693 378q4 14 12 22t20 5q12 -2 15 -11.5t-1 -25.5q-31 -141 -31 -237.5t28 -156.5t83 -91.5t134 -42.5q84 -12 134.5 -3t77 20.5t36.5 5.5q8 -3 9 -15.5t-8 -25.5l-96 -141q-12 -17 -33.5 -29.5t-55 -17t-83.5 0.5q-124 12 -197.5 98t-86.5 246.5t43 398.5zM989 1425
q138 -1 244.5 -55t173.5 -152t86.5 -233t-17.5 -300q-39 -174 -122.5 -307t-199.5 -223t-253.5 -135t-284.5 -43q-144 1 -252.5 54t-173.5 152t-79.5 239.5t30.5 316.5q37 148 114.5 273.5t187.5 218.5t248 144.5t298 49.5zM640 51q54 -1 111 27.5t113.5 101.5t111 201
t102.5 325q32 129 46 226t14 167q0 88 -21.5 143t-58.5 82t-86 28q-56 3 -114 -29t-114 -105.5t-108 -196.5t-97 -303q-36 -145 -52.5 -249t-17.5 -176q1 -87 21.5 -139.5t59 -77t90.5 -25.5z" />
    <glyph glyph-name="R" unicode="R" horiz-adv-x="1434" 
d="M489 600l52 54q48 -26 97.5 -37.5t103.5 -11.5q93 0 165.5 45t121.5 131t70 211q20 119 0 194t-68.5 110t-115.5 35q-57 0 -86 -24t-45 -71q-8 -27 -26 -93t-42 -156.5t-51.5 -194t-54.5 -206.5t-50.5 -194t-40.5 -157.5t-23 -94.5q-6 -25 1.5 -37t26.5 -17l63 -13
q15 -6 23 -14t8 -21q0 -17 -12 -27.5t-37 -10.5h-538q-24 0 -33 9t-9 24t10 25t25 14l66 12q21 5 33 19t20 39q7 25 25 91t43 158.5t53.5 198.5t56.5 212t52.5 199t41.5 158.5t22 90.5q8 31 3.5 45.5t-29.5 21.5l-64 12q-14 6 -21 13.5t-7 19.5q0 17 13 27.5t36 10.5h598
q163 0 276.5 -54t164 -153t25.5 -234q-21 -127 -108 -221.5t-227.5 -147.5t-321.5 -54q-105 -1 -170 18t-116 46zM738 548l322 53l105 -332q11 -36 23.5 -58t28 -31.5t32.5 -9.5q22 0 41.5 12.5t40.5 40.5q6 7 15 10t16 0q13 -4 15.5 -16.5t-4.5 -29.5q-45 -101 -135.5 -158
t-200.5 -57q-52 0 -90 17.5t-64 55t-42 98.5z" />
    <glyph glyph-name="S" unicode="S" horiz-adv-x="1172" 
d="M566 -23q-88 0 -146 19t-93 44t-54 44t-30 19t-33 -16.5t-48 -38t-49.5 -38.5t-37.5 -17q-21 0 -31 12t-8 38l71 397q3 28 14.5 42t29.5 14t29 -12t21 -38l34 -161q23 -109 92.5 -165.5t161.5 -56.5q56 0 98 20t69 57.5t36 87.5q17 87 -25.5 166t-169.5 162
q-149 98 -207 198t-45 233q12 119 84 219t199.5 160t304.5 60q149 0 246 -47t142.5 -121.5t40.5 -157.5q-4 -68 -38 -110t-92 -42q-44 0 -70.5 28t-43.5 91l-21 98q-23 101 -70 145.5t-116 44.5q-66 0 -116.5 -29.5t-81.5 -78.5t-38 -109q-12 -96 30.5 -172t160.5 -162
q123 -89 187.5 -166.5t84.5 -154t7 -160.5q-13 -103 -78 -180.5t-168.5 -121.5t-232.5 -44z" />
    <glyph glyph-name="T" unicode="T" horiz-adv-x="1220" 
d="M527 1424q60 0 135 -11.5t155 -29t153.5 -35t130.5 -29t85 -11.5q29 0 45.5 12t21.5 35q3 22 -1 49.5t-2 63.5q4 54 36.5 88.5t91.5 34.5q50 0 84 -38t33 -107q-1 -102 -68 -163t-172 -61q-48 0 -119.5 13.5t-154.5 33.5l-166 40t-155 33.5t-121 13.5q-63 0 -94 -26.5
t-33 -79.5q-1 -33 7 -59.5t16 -52.5t8 -60q-1 -51 -35.5 -84.5t-91.5 -33.5q-63 0 -100.5 46.5t-34.5 127.5q3 80 44.5 145.5t118 105t183.5 39.5zM732 142q-8 -26 -1.5 -40t25.5 -18l69 -14q30 -11 29 -33q0 -18 -14 -27.5t-37 -9.5h-543q-22 0 -32 8.5t-10 23.5t9.5 24.5
t25.5 15.5l70 13q17 4 30 20.5t23 48.5q10 30 31 103.5t49.5 174t60.5 215.5l64 230t60 215.5t48.5 173.5t28.5 103l334 -68q-10 -31 -30.5 -102.5t-47.5 -169t-57 -207.5t-59.5 -219.5t-55.5 -204.5t-44 -163t-26 -93z" />
    <glyph glyph-name="U" unicode="U" horiz-adv-x="1369" 
d="M1079 441l184 638q30 106 8 165t-82 74l-33 7q-21 9 -29 17.5t-8 22.5q0 15 12 25t36 10h389q20 0 30 -8.5t10 -22.5q0 -17 -10 -26.5t-31 -17.5l-30 -8q-55 -19 -100 -74.5t-77 -169.5l-184 -638q-46 -163 -123 -263.5t-188 -147.5t-261 -47q-140 0 -233.5 45.5
t-140 124.5t-46.5 179q1 36 9.5 88t22 108.5t25.5 102.5l165 614q9 30 2 51.5t-27 27.5l-60 12q-16 9 -23 16.5t-6 21.5q0 13 10.5 22.5t29.5 9.5h552q41 0 41 -30q-1 -13 -9.5 -25t-27.5 -18l-65 -12q-24 -6 -36 -25.5t-25 -64.5l-161 -597q-32 -120 -46 -197.5t-15 -130.5
q-1 -109 53 -162.5t145 -53.5q113 0 205 81t148 276z" />
    <glyph glyph-name="V" unicode="V" horiz-adv-x="1275" 
d="M1053 1364q0 16 10 26t27 10h400q21 0 32 -9t11 -24q0 -17 -7.5 -27t-26.5 -18l-24 -9q-35 -15 -73 -53t-77.5 -91.5t-79.5 -115.5l-525 -829q-14 -22 -23.5 -42t-17.5 -47l-22 -75q-8 -26 -25 -43t-49 -17h-242q-28 0 -40.5 19t-3.5 51l26 98q7 21 6.5 46.5t-1.5 41.5
q1 22 1 75.5v128v161.5v176.5t-0.5 173.5t-0.5 152.5t-1 112.5q1 37 -7.5 55t-31.5 25l-42 11q-13 5 -20 14t-7 22q0 16 14.5 26.5t33.5 10.5h529q17 0 26.5 -8.5t9.5 -23.5q0 -16 -8 -26t-25 -15l-67 -12q-30 -6 -44 -31t-14 -76q-1 -43 -2 -107.5t-1.5 -145t-1 -172
t-1.5 -190t-2.5 -199.5t-3.5 -199l-90 -56l588 935q41 64 43.5 112.5t-21 81.5t-63.5 47l-36 12q-30 14 -30 37z" />
    <glyph glyph-name="W" unicode="W" horiz-adv-x="1949" 
d="M1136 1147l46 -69l-493 -851q-17 -30 -26.5 -50.5t-20.5 -53.5l-20 -66q-9 -28 -28.5 -42.5t-56.5 -14.5h-199q-34 0 -49 15t-5 47l26 98q5 17 7 37t2 42q0 27 1 95t1.5 161.5t1.5 198.5t2 208.5t1 191.5v146q0 33 -6.5 52t-29.5 25l-40 11q-16 6 -24 14.5t-8 22.5
q0 17 13 26t37 9h514q25 0 34.5 -8.5t9.5 -23.5q0 -14 -9 -24t-27 -16l-62 -13q-32 -7 -45 -29t-15 -70q-1 -34 -2.5 -94.5t-3.5 -140t-4.5 -172t-5 -192.5t-4.5 -201.5t-4 -197.5l-77 -37zM1731 1363q0 16 13 26.5t36 10.5h387q23 0 32.5 -8.5t9.5 -24.5q0 -24 -37 -40
l-26 -11q-31 -14 -68.5 -50t-74.5 -86.5t-68 -106.5l-477 -845q-12 -21 -21 -42.5t-19 -56.5l-20 -69q-8 -30 -28 -45t-48 -15h-210q-27 0 -41 19t-4 51l19 68q6 20 10 40.5t3 40.5v118.5t0.5 180t0.5 210.5v210.5t-1 182t-3 122.5q-3 35 -10.5 53t-32.5 25l-28 9
q-12 6 -19 13.5t-7 18.5q0 19 13 28.5t37 9.5h473q20 0 30.5 -8t10.5 -25q0 -13 -9.5 -23t-27.5 -17l-54 -13q-32 -9 -44 -32t-12 -72v-103t-0.5 -163t-1 -196t-0.5 -203.5t0.5 -185.5t1.5 -142l-72 -26l505 897q45 82 31 144.5t-83 86.5l-41 13q-25 10 -25 31z" />
    <glyph glyph-name="X" unicode="X" horiz-adv-x="1317" 
d="M601 708l51 -59l-327 -403q-54 -65 -49 -109.5t56 -58.5l33 -8q13 -4 19.5 -11.5t6.5 -20.5q0 -17 -13 -27.5t-34 -10.5h-357q-22 0 -32 8.5t-10 24.5t10.5 26t35.5 21q17 5 44.5 19.5t58.5 37t63 50.5t57 59zM745 1229q9 -30 28.5 -91t46 -143t56.5 -175.5t61 -188.5
t60 -182.5t52.5 -157t38.5 -111.5q12 -37 25 -57.5t35 -31.5t60 -19q34 -12 34 -36q0 -16 -12.5 -26t-33.5 -10h-542q-26 0 -36 9.5t-10 24.5q0 13 8.5 22.5t28.5 16.5l53 9q33 9 33.5 32.5t-14.5 75.5q-7 27 -26.5 88t-46 145.5t-57 180.5t-62 193t-61 184t-52 153
t-35.5 100q-15 43 -35.5 63t-72.5 30q-23 8 -31.5 17t-8.5 21q0 16 13 25.5t36 9.5h556q23 0 33.5 -8.5t10.5 -23.5q0 -14 -9 -24.5t-28 -16.5l-57 -11q-30 -5 -40 -27t1 -60zM820 708l-63 44l374 503q50 66 91.5 106.5t82 59t87.5 18.5q57 0 87 -31.5t30 -79.5
q0 -62 -40 -100.5t-106 -45.5q-28 -2 -48.5 -3t-39.5 -4q-44 -6 -79.5 -21.5t-69.5 -46.5t-76 -86z" />
    <glyph glyph-name="Y" unicode="Y" horiz-adv-x="1201" 
d="M707 487l367 710q49 93 91.5 145.5t84.5 74.5t90 22q58 0 90 -31.5t32 -79.5q0 -61 -47.5 -104t-139.5 -75q-53 -18 -95 -41.5t-75.5 -58.5t-63.5 -90l-245 -465q-15 -29 -22.5 -50t-12.5 -39l-66 -270q-6 -22 1.5 -34.5t28.5 -17.5l60 -12q18 -6 24.5 -14t6.5 -18
q0 -19 -14 -29t-38 -10h-540q-24 0 -33 8.5t-9 24.5q0 27 35 39l64 12q26 5 37.5 20.5t19.5 40.5l74 278q8 28 5.5 56t-6.5 58q-2 18 -8.5 73.5t-15 133t-17.5 161.5t-18 160t-15.5 129.5t-10.5 67.5q-5 31 -21.5 45t-63.5 21q-16 5 -24.5 13t-8.5 21q0 17 12.5 27.5
t36.5 10.5h316q40 0 60 -17t25 -51q4 -18 11.5 -79.5t18 -148.5t22 -183t22 -184.5t19 -154.5t12.5 -90z" />
    <glyph glyph-name="Z" unicode="Z" horiz-adv-x="1246" 
d="M694 0h-657q-54 0 -54 45q0 18 12.5 37.5t30.5 39.5q25 29 76 93t119 151t146.5 188t159.5 205.5t158 203.5t141.5 182.5t110.5 142t66 80.5l30 -33h-266q-116 0 -216.5 -72t-203.5 -213q-19 -26 -37 -32.5t-35 1.5q-16 6 -17.5 23t12.5 44l115 294q16 31 26.5 41.5
t31.5 10.5q14 0 30.5 -8t40 -16t58.5 -8h772q29 0 42.5 -9t13.5 -29q0 -18 -13 -36.5t-34 -40.5q-35 -47 -87.5 -117t-117.5 -155t-137 -179t-146 -189.5t-145 -186t-133.5 -170t-112 -141t-79.5 -96.5l-29 17h266q79 0 148.5 27.5t138.5 100.5t147 209q14 25 24.5 34.5
t25.5 9.5q18 0 26.5 -13t8.5 -35q-7 -105 -28.5 -184t-58 -133t-86 -81t-110.5 -27q-30 0 -54.5 6t-52 12t-67.5 6z" />
    <glyph glyph-name="bracketleft" unicode="[" horiz-adv-x="730" 
d="M698 1365l-400 -1490q-7 -23 1 -33t35 -10h165q42 0 33 -35q-5 -15 -18.5 -25t-35.5 -10h-411q-30 0 -39 14.5t0 44.5l432 1599q10 31 26.5 45t47.5 14h411q22 0 29.5 -10t3.5 -25q-12 -35 -54 -35h-166q-25 0 -39 -9.5t-21 -34.5z" />
    <glyph glyph-name="backslash" unicode="\" horiz-adv-x="798" 
d="M391.33 607.871q9.61621 -68.8955 22.5625 -164.727q12.9463 -95.832 26.9707 -205.983q14.0254 -110.151 27.875 -220.773t26.5078 -210.093t22.4014 -173.766q6.39355 -34.5039 22.9141 -51.9111q16.5215 -17.4072 42.2305 -17.3662q24.7695 0.390625 35.0723 17.957
t3.55957 51.1309q-9.02832 67.6045 -24.793 164.487q-15.7656 96.8838 -34.8398 207.85t-37.5029 222.226q-18.4297 111.261 -34.6084 209.904t-26.0332 169.769q-10.4443 72.416 -22.9277 172.356q-12.4824 99.9414 -25.1611 212.267q-12.6787 112.326 -26.002 224.357
t-24.8037 208.921q-11.4805 96.8906 -21.4482 164.846q-6.74316 33.5645 -23.0889 51.4414t-43.3457 17.2471q-24.7695 -0.390625 -33.4873 -18.0137q-8.71875 -17.6221 -2.91406 -50.8359q10.6826 -74.6455 25.6895 -174.993q15.0078 -100.348 32.3213 -211.728
q17.3145 -111.379 34.9795 -221.818q17.6641 -110.439 32.96 -207.148q15.2949 -96.708 24.9121 -165.603z" />
    <glyph glyph-name="bracketright" unicode="]" horiz-adv-x="729" 
d="M116 -124l400 1490q7 23 -1 33t-35 10h-165q-42 0 -33 35q5 15 18.5 25t35.5 10h411q30 0 39 -14.5t0 -44.5l-432 -1599q-10 -31 -26.5 -45t-47.5 -14h-411q-22 0 -29.5 10t-3.5 25q12 35 54 35h166q25 0 39 9.5t21 34.5z" />
    <glyph glyph-name="asciicircum" unicode="^" horiz-adv-x="774" 
d="M665 1343h-65l125 -517q11 -25 24 -35t30 -10q25 0 36 21.5t2 52.5l-100 507q-11 40 -26 52t-39 12q-16 0 -31 -5t-32 -19t-39 -40l-374 -503q-28 -30 -30.5 -53t22.5 -23q18 0 41 10t49 35z" />
    <glyph glyph-name="underscore" unicode="_" horiz-adv-x="844" 
d="M-108 -267q5 23 17 35t31 12h819q18 0 23 -12.5t-1 -36.5q-6 -22 -17.5 -34.5t-30.5 -12.5h-819q-18 0 -23.5 13t1.5 36z" />
    <glyph glyph-name="grave" unicode="`" horiz-adv-x="517" 
d="M366 1276l26 -219q3 -11 2 -20.5t-12 -18.5q-10 -7 -22 -7t-22 5l-158 127q-44 31 -66.5 67t-12.5 87q7 40 45 77.5t96 41.5q59 5 87 -33t37 -107z" />
    <glyph glyph-name="a" unicode="a" horiz-adv-x="1131" 
d="M916 285q-21 -82 -15 -110.5t28 -28.5q17 0 34.5 12t44.5 42q15 15 23.5 18t17.5 -1q11 -5 11.5 -20t-12.5 -40q-41 -80 -123 -130t-184 -50q-76 0 -108 35t-32 97q0 21 3 48t9.5 59t15.5 69t21 78l18 -36q-39 -110 -98.5 -188.5t-136 -120t-168.5 -41.5q-119 0 -183 77
t-50 228q7 99 45.5 194t103.5 177.5t153 145.5t196.5 99t232.5 36q107 0 185 -15t120 -37.5t39 -46.5q-2 -21 -16.5 -30.5t-30 -19t-21.5 -32.5zM360 271q-8 -85 10 -118.5t48 -33.5q31 0 64 27.5t67 79t66.5 124.5t61.5 165t52 200q16 70 8 105t-44 35q-45 0 -90 -35
t-86 -95.5t-74.5 -136.5t-55 -157.5t-27.5 -159.5z" />
    <glyph glyph-name="b" unicode="b" horiz-adv-x="1118" 
d="M632 1179l-191 -639l-38 -1q45 137 115.5 224t154 129t167.5 42q121 0 187 -80t63 -218q-2 -130 -48.5 -248.5t-125 -211t-176.5 -146t-203 -53.5t-172 52t-61 165l43 -36l-218 -133q-23 -19 -42.5 -28t-36.5 -9q-28 1 -35 27t11 92l225 812q47 169 136 287.5t225.5 181
t324.5 62.5q143 0 217 -44.5t74 -114.5q0 -52 -34.5 -89t-96.5 -37q-48 0 -89 28t-78 65.5t-73 65.5t-74 28q-50 0 -87.5 -41.5t-63.5 -131.5zM681 795q-39 -4 -79 -42.5t-77 -101t-66.5 -139t-48.5 -157.5t-22 -156q-3 -64 22 -97t62 -33t76.5 37.5t76.5 99.5t67 139.5
t48 158.5t19 155q2 51 -7.5 81t-27.5 43.5t-43 11.5z" />
    <glyph glyph-name="c" unicode="c" horiz-adv-x="957" 
d="M612 859q-42 0 -87 -41.5t-80.5 -119t-51.5 -186.5q-26 -180 21 -265t150 -85q45 0 86.5 17.5t77.5 53.5t65 89q18 22 29 32.5t26 9.5q16 -1 23.5 -17.5t-1.5 -45.5q-25 -72 -68 -132t-103.5 -103t-137.5 -66.5t-170 -23.5q-189 0 -281 118t-60 330q16 107 65 200.5
t126 164t177 110t216 39.5q108 0 178.5 -34.5t103.5 -91t27 -122.5q-5 -71 -52 -107.5t-102 -36.5t-86.5 29t-29.5 76q1 36 8 60.5t8 62.5q0 36 -19 60.5t-58 24.5z" />
    <glyph glyph-name="d" unicode="d" horiz-adv-x="1134" 
d="M913 776l-157 -14q3 44 -11.5 70t-61.5 26q-49 0 -96 -38t-89 -101.5t-75.5 -142t-53 -161.5t-21.5 -158q-3 -78 18 -108.5t55 -30.5q25 0 56 20t63.5 60.5t62.5 99.5t52 138l206 715q45 158 139.5 228.5t227.5 70.5q97 0 145 -39t48 -93q0 -55 -33 -90.5t-93 -35.5
q-38 0 -69 15.5t-59 36t-54.5 36t-53.5 15.5q-31 0 -51.5 -22t-22.5 -56q0 -27 15.5 -53.5t36.5 -57t38 -69t22 -88.5t-13 -115l-157 -562q-20 -70 -14.5 -98t30.5 -28q17 0 34.5 12t44.5 42q15 15 23.5 18t17.5 -1q11 -5 11.5 -20t-12.5 -40q-27 -53 -73 -93.5
t-105.5 -63.5t-127.5 -23q-78 0 -112.5 35.5t-34.5 96.5q0 28 4.5 61t14 74.5t23.5 92.5l31 -12q-46 -115 -109.5 -192.5t-140 -116.5t-162.5 -39q-87 0 -145 36t-84 106.5t-16 173.5q9 121 63.5 235.5t143.5 206t206 145.5t251 54q78 0 127.5 -20.5t73 -56.5t23.5 -81z" />
    <glyph glyph-name="e" unicode="e" horiz-adv-x="992" 
d="M207 419l34 10.5t89 27.5t117 36.5t120.5 37.5t98.5 30l-31 -32q12 36 20.5 86.5t8.5 115.5q1 59 -17.5 94.5t-52.5 35.5t-68 -27.5t-64 -79.5t-52.5 -125t-32.5 -163q-16 -149 33.5 -227.5t160.5 -78.5q54 0 102 20.5t89.5 59.5t73.5 96q16 20 27 27t24 6q16 -1 24 -15
t0 -43q-33 -96 -101 -172t-170 -119t-238 -43q-130 0 -214.5 48t-120.5 138.5t-23 217.5q13 116 61.5 217t127 177.5t180 119.5t218.5 43q99 0 162.5 -35t95 -93.5t34.5 -129.5q2 -16 8.5 -28t22.5 -16q11 -2 16.5 -7.5t5.5 -15.5q0 -13 -10 -24.5t-39 -19.5q-33 -9 -97 -28
t-144.5 -43t-163 -48.5t-152 -45.5t-112 -34l-42.5 -13z" />
    <glyph glyph-name="f" unicode="f" horiz-adv-x="663" 
d="M418 776l36 94h232q27 0 41 -8t14 -28q0 -16 -11.5 -29t-31.5 -21t-47 -8h-233zM106 834q0 17 13 27.5t39 10.5h105l55 215q44 180 139.5 270t253.5 90q96 0 145 -42.5t49 -99.5q0 -61 -38 -98.5t-101 -37.5q-40 0 -73 18.5t-60.5 42.5t-52.5 42.5t-50 18.5
q-29 0 -48.5 -19.5t-26.5 -51.5q-7 -36 13 -81t48 -95t45 -101t4 -100l-241 -903q-8 -31 -11.5 -53.5t-3.5 -39.5q0 -31 17 -49t34.5 -32t17.5 -35q0 -31 -45 -63.5t-116 -54.5t-151 -22t-101 50t8 155l238 855q20 71 7 99.5t-66 36.5q-28 13 -37 24t-9 23z" />
    <glyph glyph-name="g" unicode="g" horiz-adv-x="1074" 
d="M866 41q-41 -175 -133 -295.5t-231 -183t-326 -62.5q-140 0 -214 47t-74 121q0 50 34 85t94 35q49 0 89.5 -29t77 -67.5t71.5 -67.5t72 -29q34 0 63.5 18.5t54 59t42.5 107.5l151 563l28 -17q-39 -114 -98.5 -192t-136 -117.5t-166.5 -39.5q-78 0 -134 33t-82.5 99
t-18.5 165q7 100 44.5 196.5t102.5 180.5t153.5 147.5t197.5 99.5t234 36q107 0 184.5 -14.5t119.5 -37t40 -46.5q-3 -22 -17.5 -30.5t-30 -18t-20.5 -33.5zM358 269q-5 -57 3 -89.5t23.5 -46t33.5 -13.5q33 0 68.5 30.5t70.5 85.5t66.5 129.5t57.5 163.5t44 186
q14 69 6.5 104.5t-43.5 35.5q-44 0 -89 -35.5t-85.5 -96t-74 -136.5t-54.5 -158t-27 -160z" />
    <glyph glyph-name="h" unicode="h" horiz-adv-x="1159" 
d="M418 392q30 86 67.5 151t76.5 108.5t76 65t66 21.5q42 0 49 -33t-20 -116l-118 -362q-26 -79 -24 -135t39.5 -85.5t115.5 -29.5q120 0 204 50.5t125 130.5q13 25 12.5 40.5t-11.5 20.5q-9 4 -17.5 0.5t-23.5 -17.5q-27 -30 -45 -42t-34 -12q-22 0 -29.5 28t18.5 106
l120 371q29 85 25.5 148t-43 98t-119.5 35q-74 0 -163 -37t-177 -124t-161 -237l15 -5l184 646q18 63 41.5 101.5t52 56t60.5 17.5q39 0 75 -28t73.5 -65.5t78.5 -65.5t89 -28q63 0 99 37t36 89q0 70 -75 114.5t-219 44.5q-191 0 -328.5 -62.5t-226.5 -181.5t-137 -290
l-212 -763q-16 -59 -15.5 -98.5t25.5 -58.5t81 -19q126 0 195.5 30t69.5 80q0 26 -9.5 45.5t-9.5 46.5q0 20 5 51.5t15.5 72.5t27.5 89z" />
    <glyph glyph-name="i" unicode="i" horiz-adv-x="647" 
d="M426 282q-26 -77 -19 -105.5t30 -28.5q16 0 34 12t45 42q15 14 23.5 17.5t17.5 -0.5q11 -5 11.5 -20.5t-12.5 -39.5q-41 -81 -125.5 -131.5t-203.5 -50.5q-79 0 -116.5 29.5t-39 86t25.5 136.5l134 394q24 72 18.5 100t-28.5 28q-16 0 -35 -11.5t-51 -45.5
q-14 -12 -23 -15t-18 0q-11 5 -11 19.5t12 35.5q50 90 136.5 145t192.5 55q69 0 107.5 -30t45 -89t-22.5 -145zM470 1051q-78 0 -120 38t-41 94q1 50 31 96t83 76t124 30q87 0 126 -39t38 -95q-1 -54 -30.5 -100t-83 -73t-127.5 -27z" />
    <glyph glyph-name="j" unicode="j" horiz-adv-x="608" 
d="M553 669l-247 -844q-46 -155 -138 -231t-234 -76q-90 0 -134.5 36.5t-44.5 94.5q0 50 34 85t89 35q50 0 87.5 -23t71.5 -46t71 -23q27 0 47 14.5t28 51.5q7 33 -5 67t-32.5 70t-40 75t-28 81.5t5.5 90.5l146 496q21 73 16.5 100.5t-27.5 27.5q-16 0 -35.5 -11.5
t-51.5 -45.5q-14 -12 -23 -15t-18 0q-10 5 -10 19.5t11 35.5q34 60 84 105t112.5 70t133.5 25q103 0 137 -67t-5 -198zM450 1051q-78 0 -119.5 38t-40.5 94q0 50 30 96t83 76t125 30q86 0 125 -39t38 -95q-1 -54 -30.5 -100t-83 -73t-127.5 -27z" />
    <glyph glyph-name="k" unicode="k" horiz-adv-x="1141" 
d="M463 571q8 40 22 94.5t34.5 127.5t47 167t60.5 213q18 65 41.5 104t52 57t61.5 18q38 0 74.5 -28t73.5 -65.5t78.5 -65.5t89.5 -28q63 0 99 37t36 89q0 70 -75 114.5t-220 44.5q-190 0 -327 -62t-226.5 -180.5t-136.5 -288.5l-214 -769q-16 -58 -15 -96.5t26.5 -57.5
t80.5 -19q85 0 144 13.5t90 38.5t31 59q0 26 -9.5 45.5t-9.5 45.5q0 20 3.5 46.5t13 70t28.5 113.5q24 92 62.5 166t85 125.5t94.5 78.5t92 26q39 -2 59 -31t11 -80q-13 -74 -63.5 -132.5t-147.5 -99t-248 -62.5l3 -61q258 39 422 94t246.5 127.5t94.5 163.5
q14 102 -43.5 156t-162.5 55q-83 1 -159 -25.5t-141 -76t-114 -120t-77 -156.5zM519 391l61 -244q21 -87 64.5 -128.5t119.5 -41.5q71 0 129 24.5t101.5 73t67.5 119.5q5 19 0.5 28.5t-14.5 12.5q-7 2 -16 -1t-20 -14q-22 -27 -40.5 -40t-40.5 -13q-25 1 -45.5 20.5
t-34.5 66.5l-65 207z" />
    <glyph glyph-name="l" unicode="l" horiz-adv-x="627" 
d="M697 1450q98 0 145.5 -40t47.5 -96q0 -52 -32 -84.5t-91 -32.5q-38 0 -69.5 14.5t-60 34t-55.5 34t-55 14.5q-21 0 -37.5 -11t-26 -28.5t-10.5 -39.5q0 -28 15.5 -55t37 -58t39 -70t21.5 -89t-15 -116l-158 -542q-24 -81 -17.5 -109t30.5 -28q19 0 39.5 13.5t47.5 44.5
q14 14 22.5 17.5t17.5 -0.5q11 -4 12 -19.5t-12 -40.5q-26 -54 -75 -96t-115 -66t-144 -24q-79 0 -116.5 29.5t-40.5 86t21 137.5l271 922q47 157 139.5 227.5t223.5 70.5z" />
    <glyph glyph-name="m" unicode="m" horiz-adv-x="1738" 
d="M624 160l138 429q27 82 19.5 115.5t-46.5 33.5q-36 0 -86 -37.5t-100.5 -114t-92.5 -193.5q-19 -52 -31 -93t-17.5 -71t-5.5 -50q0 -26 9.5 -45.5t9.5 -45.5q0 -51 -69 -81t-194 -30q-84 0 -101 46t15 138l154 465q24 69 18 97t-29 28q-15 0 -34.5 -11.5t-51.5 -45.5
q-14 -12 -23 -15t-18 0q-10 5 -10 19.5t11 35.5q51 90 141.5 145t198.5 55q67 0 102.5 -28t35.5 -82q0 -34 -13 -76.5t-31.5 -89t-37 -95t-29.5 -95.5l-16 12q73 173 164.5 271.5t185.5 140.5t174 42q77 0 115.5 -29t38.5 -90q0 -30 -12 -69t-30 -84.5t-36 -94t-31 -98.5
l-20 13q55 124 119 210t133 139.5t138 78t132 24.5q77 0 116 -34.5t42.5 -97.5t-24.5 -149l-118 -371q-25 -78 -17.5 -106t29.5 -28q18 0 35.5 12t43.5 42q16 14 25 17.5t17 -0.5q11 -5 11.5 -20.5t-12.5 -40.5q-41 -80 -125 -130.5t-204 -50.5q-79 0 -115.5 29.5t-39 85.5
t23.5 135l115 362q28 82 20 115.5t-47 33.5q-37 0 -86.5 -37.5t-100 -114t-92.5 -193.5q-18 -51 -30 -92.5t-17.5 -72t-5.5 -50.5q0 -26 9.5 -45.5t9.5 -45.5q0 -50 -69 -80.5t-193 -30.5q-56 0 -82 20.5t-26 61.5t20 102z" />
    <glyph glyph-name="n" unicode="n" horiz-adv-x="1196" 
d="M88 679q-10 5 -10 19.5t11 35.5q51 90 141.5 145t198.5 55q67 0 102.5 -28t35.5 -82q0 -34 -13 -77t-31.5 -90t-37 -95.5t-29.5 -92.5l-16 11q55 129 121.5 216.5t137 139.5t139 75t127.5 23q80 0 119 -34.5t42.5 -97.5t-24.5 -149l-120 -371q-26 -78 -19 -106t30 -28
q16 0 34 12t45 42q15 14 23.5 17.5t17.5 -0.5q11 -5 11.5 -20.5t-12.5 -40.5q-41 -80 -125 -130.5t-204 -50.5q-78 0 -115.5 29.5t-39.5 85.5t24 135l118 362q29 82 21 115.5t-50 33.5q-28 0 -64.5 -21t-75.5 -63.5t-76.5 -107.5t-68.5 -153q-18 -52 -30.5 -93t-18 -71
t-5.5 -50q0 -27 9.5 -46t9.5 -45q0 -50 -69 -80.5t-194 -30.5q-84 0 -101.5 45.5t13.5 135.5l155 466q25 71 19 99t-29 28q-15 0 -34.5 -11.5t-51.5 -45.5q-14 -12 -23 -15t-18 0z" />
    <glyph glyph-name="o" unicode="o" horiz-adv-x="1080" 
d="M629 938q141 -1 239.5 -58t143 -160.5t21.5 -244.5q-17 -109 -65 -201t-124 -158.5t-175.5 -103t-219.5 -35.5q-138 0 -236 56.5t-142.5 160t-23.5 244.5q18 112 67 204.5t125 159t174.5 102t215.5 34.5zM443 60q32 -2 63.5 25.5t62 78t56.5 116t46.5 141t31.5 152.5
q18 93 15 154t-23 92t-56 36q-32 3 -64 -24.5t-62.5 -78t-57 -116.5t-46.5 -142t-31 -154q-18 -93 -15 -154t24 -91.5t56 -34.5z" />
    <glyph glyph-name="p" unicode="p" horiz-adv-x="1130" 
d="M630 1025l-355 -1319q-11 -44 -8 -66t38 -28l66 -11q21 -4 30.5 -13t9.5 -23q0 -16 -14 -26t-37 -11l-501 -8q-19 -1 -29.5 8t-10.5 23t8.5 24.5t31.5 20.5q33 10 50.5 20t26.5 25t16 41l359 1278q7 25 31 49t57.5 45.5t69 38t66.5 25.5t49 9q39 0 49.5 -24.5t-3.5 -77.5
zM149 669q-15 -12 -30.5 -13.5t-25.5 8.5q-10 11 -4.5 29t24.5 35q65 64 147 112t185 74t231 25q141 -2 236.5 -59.5t138.5 -163.5t25 -253t-92.5 -256t-187 -168.5t-246.5 -58.5q-113 1 -181.5 45.5t-93.5 115.5l59 27q23 -44 55.5 -68t75.5 -25q60 -1 115.5 43t99.5 137
t68 240q21 123 9.5 203t-47 120t-89.5 43q-117 6 -237.5 -40t-234.5 -152z" />
    <glyph glyph-name="q" unicode="q" horiz-adv-x="1084" 
d="M637 335l27 -17q-37 -109 -98 -185.5t-138.5 -116t-165.5 -39.5q-117 0 -180.5 72.5t-53.5 209.5q5 102 42.5 200t103.5 184t156 151.5t200 102.5t236 37q106 0 184 -14.5t120 -37.5t39 -48q-2 -22 -16.5 -32.5t-31 -22t-22.5 -38.5l-276 -1045q-12 -48 -7.5 -67.5
t28.5 -28.5l38 -13q14 -6 21 -13t7 -18q0 -17 -12.5 -25t-35.5 -8l-490 -13q-22 0 -33 7.5t-11 22.5q0 14 11.5 25t39.5 17q44 9 68 18.5t37 30t24 58.5zM357 251q-4 -73 13.5 -101.5t44.5 -28.5q34 0 70.5 30.5t72.5 85.5t69 129t59.5 162t43.5 184q14 72 6 107.5t-43 35.5
q-46 0 -92.5 -36.5t-89 -99t-76 -141t-54 -163t-24.5 -164.5z" />
    <glyph glyph-name="r" unicode="r" horiz-adv-x="970" 
d="M87 679q-10 5 -10.5 19t11.5 36q34 60 85.5 105t116 70t133.5 25q66 0 97.5 -28.5t31.5 -80.5q0 -40 -14 -87t-33.5 -98t-38 -105.5t-27.5 -109.5l-15 5q36 127 84.5 221.5t105 157.5t116 94t117.5 31q80 0 120 -54t33 -137q-5 -68 -32.5 -115.5t-69 -72.5t-90.5 -25
q-53 0 -80 24.5t-27 62.5q0 25 7 48t7 45q0 21 -9 32t-26 11q-29 0 -65.5 -37t-76 -115t-77.5 -200q-23 -72 -34.5 -119.5t-11.5 -81.5q0 -30 14 -45.5t28 -27.5t14 -34q0 -27 -37 -54t-104 -44.5t-159 -17.5q-59 0 -86 23t-28 65.5t19 102.5l148 456q24 71 18.5 99
t-28.5 28q-16 0 -35.5 -11.5t-50.5 -45.5q-14 -12 -23 -15t-18 0z" />
    <glyph glyph-name="s" unicode="s" horiz-adv-x="920" 
d="M384 47q49 0 81 32t32 81q0 32 -13.5 59.5t-47.5 58t-96 70.5q-73 49 -119.5 92t-67 88.5t-18.5 101.5q3 82 56 152t151.5 113t238.5 43q112 0 186.5 -28t111.5 -75t38 -103q1 -57 -24 -88.5t-68 -31.5q-45 0 -77 30.5t-59 109.5q-24 62 -57.5 90.5t-80.5 28.5
q-51 0 -82 -31.5t-31 -85.5q-1 -34 13.5 -65t53.5 -68t112 -89q76 -51 119.5 -93.5t60 -85.5t12.5 -96q-5 -82 -62 -145t-155 -99t-228 -36q-123 0 -202 31.5t-116 82.5t-37 109q1 51 24.5 82.5t66.5 31.5q51 0 83 -34t58 -109q28 -69 62 -96.5t81 -27.5z" />
    <glyph glyph-name="t" unicode="t" horiz-adv-x="729" 
d="M207 809l-61 14q-15 5 -21.5 15t-6.5 22q0 18 14.5 27.5t37.5 9.5h79q22 0 40 9t37 28l211 170q13 13 27 19t30 6q18 0 27 -10t9 -26q0 -9 -3 -26t-9 -39l-209 -741q-23 -81 -10 -110.5t53 -29.5q33 0 65 20.5t69 65.5q12 15 20 20t17 5q12 -1 17.5 -10.5t0.5 -26.5
q-13 -44 -48 -87.5t-87.5 -79t-120 -56.5t-145.5 -21q-80 0 -122.5 30t-48.5 92t22 157l134 464q13 45 8.5 64t-26.5 25zM495 812l28 82h225q32 0 32 -28q0 -25 -20.5 -39.5t-54.5 -14.5h-210z" />
    <glyph glyph-name="u" unicode="u" horiz-adv-x="1193" 
d="M1111 232q11 -5 11 -19.5t-12 -36.5q-51 -89 -141.5 -144t-198.5 -55q-67 0 -102.5 28t-35.5 82q0 34 13 76.5t31.5 90t37.5 96t29 92.5l16 -11q-54 -129 -120.5 -216.5t-137 -140t-139 -75t-127.5 -22.5q-78 0 -117.5 34.5t-43 97.5t24.5 149l120 371q26 78 19 106
t-30 28q-16 0 -34 -11.5t-45 -42.5q-15 -14 -23.5 -17t-17.5 0q-11 5 -11.5 20t12.5 40q41 81 125.5 131.5t203.5 50.5q79 0 116 -29.5t39.5 -85t-24.5 -135.5l-118 -362q-28 -82 -20 -116t49 -34q28 0 63.5 21.5t74.5 64t76.5 107.5t68.5 153q19 51 31 92t18 71.5t6 50.5
q0 27 -10 46t-10 45q0 50 69 80.5t194 30.5q85 0 102 -45.5t-14 -135.5l-155 -466q-24 -71 -18.5 -99t28.5 -28q16 0 35.5 12t50.5 45q14 12 23 15t18 0z" />
    <glyph glyph-name="v" unicode="v" horiz-adv-x="1151" 
d="M1133 734q0 -113 -35.5 -222.5t-100.5 -206t-154 -170.5t-195.5 -116t-224.5 -42q-107 0 -169 46t-61 135q0 81 39.5 144t98.5 113t122 92t113 80.5t68 79.5l3 -34q-72 0 -133.5 17.5t-114 40t-99.5 41t-90 20.5q-36 2 -54 -14t-21 -39q-6 -45 60 -70q44 -16 66 -38
t20 -56q-3 -38 -30 -59.5t-65 -21.5q-66 0 -107 53.5t-32 143.5q8 81 50.5 145t111.5 101t156 37q49 0 97 -9.5t89.5 -19t71.5 -9.5q26 0 40.5 9t26.5 17.5t29 8.5q16 0 24 -12t7 -37q-2 -48 -18 -107.5t-38 -127t-44 -137t-36.5 -137.5t-14.5 -130q0 -65 21 -94.5t57 -30.5
q38 0 86 35t92 93.5t73.5 128t31.5 136.5q3 44 -13 72.5t-43 53.5q-39 31 -54.5 61.5t-13.5 72.5q2 43 24 80t58 60t80 23q70 0 107.5 -51t37.5 -149z" />
    <glyph glyph-name="w" unicode="w" horiz-adv-x="1672" 
d="M1138 934q62 -3 82.5 -67.5t-14.5 -182.5q-54 -186 -132.5 -320t-177.5 -220t-216.5 -126.5t-251.5 -40.5q-115 0 -177.5 46t-62.5 135q1 81 41 144t100.5 112.5t124 91.5t113.5 81t68 81l-4 -35q-71 0 -132.5 17.5t-114 40t-99 41t-89.5 20.5q-37 2 -55 -14t-20 -38
q-7 -46 59 -71q45 -17 66.5 -38.5t19.5 -54.5q-2 -39 -30 -60.5t-65 -21.5q-66 0 -106.5 53.5t-31.5 142.5q7 82 49.5 146t111 101t156.5 37q49 0 97 -9.5t89.5 -19t71.5 -9.5q26 0 41.5 9t29 18t32.5 8q21 0 33.5 -15t12.5 -43q-3 -44 -21 -97t-43 -113.5t-49.5 -125.5
t-41 -132.5t-16.5 -136.5q0 -74 30 -107.5t85 -33.5q56 0 117.5 35.5t125 107.5t123.5 183t110 263q-44 -184 -57.5 -302t-3.5 -184t37.5 -93t65.5 -27q37 0 75.5 26.5t74 74t63 111t41.5 136.5q7 40 -0.5 71.5t-24.5 55.5t-39 43q-41 31 -58.5 65t-15.5 81q3 40 24 76.5
t56.5 60t80.5 23.5q83 0 118.5 -75t21.5 -209q-11 -127 -58 -247t-120.5 -216.5t-167 -153t-197.5 -56.5q-101 0 -164 47t-88 134.5t-14.5 209t55.5 270.5q44 150 112.5 224.5t143.5 71.5z" />
    <glyph glyph-name="x" unicode="x" horiz-adv-x="1166" 
d="M445 461l51 -16q-14 -119 -43.5 -207t-73 -145.5t-99 -85.5t-120.5 -28q-81 0 -123.5 47t-41.5 125q0 89 43.5 147.5t110.5 58.5q48 0 77.5 -31t29.5 -82q0 -30 -9.5 -57.5t-9.5 -50.5q0 -15 8.5 -25t24.5 -10q24 0 57.5 34t66 112.5t51.5 213.5zM712 705l30 -407
q4 -61 26 -96t67 -35q37 0 65 22t65 74q15 17 25 23t21 5q14 -1 20 -11.5t1 -29.5q-27 -71 -78 -133.5t-119.5 -101t-149.5 -38.5q-79 0 -128.5 29.5t-74.5 89.5t-33 149l-31 397q-4 58 -23.5 85.5t-52.5 27.5q-31 0 -62.5 -22t-73.5 -81q-9 -12 -17 -17.5t-18 -3.5
q-13 1 -19.5 12t-0.5 33q29 67 80.5 125.5t122.5 95.5t158 37q64 0 106.5 -28.5t66 -80t27.5 -120.5zM722 405l-43 13q13 129 46.5 225.5t80.5 160.5t103.5 96t114.5 32q83 0 125.5 -52t40.5 -132q-2 -95 -48 -145.5t-109 -50.5q-47 0 -75.5 27t-25.5 74q1 20 10.5 49
t9.5 55q0 15 -9.5 24.5t-26.5 9.5q-26 0 -53.5 -24.5t-54 -73.5t-49 -121t-37.5 -167z" />
    <glyph glyph-name="y" unicode="y" horiz-adv-x="1032" 
d="M717 653q48 141 107.5 211.5t136.5 70.5q55 0 86.5 -35.5t31.5 -94.5q0 -75 -47 -129.5t-125 -92.5q-38 -18 -69 -38t-57 -47.5t-48.5 -68.5t-44.5 -101l-142 -394q-54 -156 -127 -250.5t-169.5 -136.5t-220.5 -42q-135 0 -205 48t-70 126q0 55 35 94t90 39
q40 0 69 -21.5t52.5 -53.5t46 -64.5t47.5 -54t59 -21.5q27 0 51 13t41 37.5t26.5 58.5t9.5 77q0 31 -4.5 95.5t-12 149.5t-16.5 177.5t-19 182.5t-18.5 164t-15.5 119q-5 43 -16 61.5t-28 18.5q-14 0 -28.5 -13t-34.5 -45q-8 -10 -15.5 -14t-16.5 -2q-8 2 -13.5 13t1.5 33
q23 62 67 109.5t103.5 74.5t126.5 27q65 0 104.5 -41t47.5 -123q4 -40 9 -109.5t10.5 -154.5t10 -174.5t8.5 -171t6 -142.5l-29 5z" />
    <glyph glyph-name="z" unicode="z" horiz-adv-x="1050" 
d="M393 290q18 13 52 37t83.5 59t112.5 79q48 36 90 64.5t79 51t70 39t63 26.5q78 29 116 73t38 110q0 48 -25.5 78t-77.5 30q-48 0 -78.5 -26.5t-49.5 -65.5t-32 -78.5t-26 -66t-30 -26.5q-18 0 -36 26.5t-40.5 66t-56.5 78.5t-85.5 66t-126.5 27q-98 0 -172.5 -49.5
t-116 -125.5t-41.5 -158q0 -68 34 -105.5t85 -37.5q34 0 55.5 19t21.5 50q0 21 -10.5 36t-38.5 27q-33 14 -49.5 26.5t-16.5 31.5q0 18 15.5 30.5t48.5 12.5q37 0 100 -15.5t135.5 -36.5t139.5 -36.5t112 -15.5l13 42q-12 -10 -44.5 -33.5t-80 -58.5t-106.5 -78
q-45 -32 -88 -60.5t-84.5 -53t-81.5 -44.5t-80 -35q-61 -22 -99.5 -53.5t-56 -68t-17.5 -74.5q0 -45 27.5 -71t72.5 -26q50 0 83 28t55.5 69.5t39 83t31 69t33.5 25.5q17 -1 30 -29.5t28.5 -69t41 -81t68 -68t109.5 -27.5q86 0 162 41t128.5 123.5t68.5 208.5q1 23 -4 33
t-16 10q-9 0 -16 -5.5t-17 -22.5q-27 -51 -79 -69.5t-124 -18.5q-55 0 -118 12.5t-119.5 24.5t-91.5 12z" />
    <glyph glyph-name="braceleft" unicode="{" horiz-adv-x="790" 
d="M373 641q-5 -22 25 -22q80 0 126 -21.5t64 -59.5t12 -89q-8 -49 -33.5 -97t-58.5 -97t-63 -99.5t-47 -103.5q-20 -66 -9.5 -115.5t46 -77t89.5 -27.5h38q21 0 29 -9.5t3 -27.5q-5 -14 -18 -23.5t-35 -9.5h-107q-122 0 -201.5 40.5t-108.5 111t-1 160.5q24 76 62.5 138.5
t78.5 115t69.5 97.5t35.5 86q5 39 -6 63.5t-46 24.5q-25 0 -45 -8t-40 -17t-44 -9q-36 0 -51 23.5t-5 55.5q8 33 36.5 56.5t64.5 23.5q25 0 41.5 -8l33 -16t41.5 -8q37 0 58.5 22t31.5 59q12 44 3 87.5t-23 92.5t-18.5 108t15.5 132q23 84 85 148.5t156.5 101t214.5 36.5
h107q22 0 29.5 -10t2.5 -24q-5 -18 -18 -27t-35 -9h-38q-81 0 -143 -52t-85 -142q-14 -50 -10 -97.5t14 -94.5t14.5 -93t-8.5 -94q-21 -76 -97 -124t-195 -48q-16 0 -25 -6.5t-12 -16.5z" />
    <glyph glyph-name="bar" unicode="|" horiz-adv-x="544" 
d="M278 622q19 72 45 178t54.5 224t55.5 228.5t49 188.5q8 29 27 45t47 15t38 -17t2 -44q-15 -56 -38.5 -137t-51.5 -174t-55.5 -186.5t-52 -177t-40.5 -143.5t-37 -143.5t-44 -177.5t-46 -187.5t-43 -174.5t-36 -137q-8 -29 -27 -44.5t-47 -14.5q-28 2 -38 18t-2 45
q21 79 54 188.5t68.5 227.5t67 223.5t50.5 176.5z" />
    <glyph glyph-name="braceright" unicode="}" horiz-adv-x="782" 
d="M490 596q5 22 -25 22q-80 0 -126 21.5t-64 59.5t-12 89q8 49 33.5 97t58.5 97t63 99.5t47 103.5q20 66 9.5 115.5t-46 77t-89.5 27.5h-38q-21 0 -29 9.5t-3 27.5q5 14 18 23.5t35 9.5h107q122 0 201.5 -40.5t108.5 -111t1 -160.5q-24 -76 -62.5 -138.5t-78.5 -115
t-69.5 -97.5t-35.5 -86q-5 -39 6 -63.5t46 -24.5q25 0 45 8t40 17t44 9q36 0 51 -23.5t5 -55.5q-8 -33 -36.5 -56.5t-64.5 -23.5q-25 0 -41.5 8l-33 16t-41.5 8q-37 0 -58.5 -22t-31.5 -59q-12 -44 -3 -87.5t23 -92.5t18.5 -108t-15.5 -132q-23 -84 -85 -148.5t-156.5 -101
t-214.5 -36.5h-107q-22 0 -29.5 10t-2.5 24q5 18 18 27t35 9h38q81 0 143 52t85 142q14 50 10 97.5t-14 94.5t-14.5 93t8.5 94q21 76 97 124t195 48q16 0 25 6.5t12 16.5z" />
    <glyph glyph-name="asciitilde" unicode="~" horiz-adv-x="1121" 
d="M816 549q-63 0 -113 30.5t-94.5 70.5t-91 71t-102.5 31q-73 0 -130 -49t-89 -133q-8 -15 -22 -23.5t-29 -8.5q-40 0 -26 46q19 70 67 129.5t114 95t138 35.5q71 0 123.5 -30.5t95.5 -70.5t86.5 -70.5t96.5 -30.5q67 0 125 41.5t85 127.5q11 21 25.5 29.5t28.5 8.5
q20 0 27 -11.5t0 -35.5q-20 -77 -68.5 -133.5t-112.5 -88t-134 -31.5z" />
    <glyph glyph-name="nbspace" unicode="&#xa0;" horiz-adv-x="353" 
 />
    <glyph glyph-name="exclamdown" unicode="&#xa1;" horiz-adv-x="712" 
d="M135 -431q-94 0 -133.5 40t-29.5 107q2 28 18 71.5t39 86.5l330 700q11 20 24 29.5t31 9.5t25.5 -9.5t6.5 -30.5l-56 -706q-1 -32 -4 -62t-9 -55q-21 -88 -80.5 -134.5t-161.5 -46.5zM532 1083q79 0 121.5 -40t40.5 -101q-1 -53 -31.5 -97.5t-86.5 -71.5t-130 -27
q-81 0 -120.5 41t-37.5 103q1 50 30.5 94t83.5 71.5t130 27.5z" />
    <glyph glyph-name="cent" unicode="&#xa2;" horiz-adv-x="987" 
d="M978 692q-6 -62 -48.5 -94t-95.5 -32q-48 0 -79 31t-24 94l7 74q6 37 -3 63.5t-32 41t-61 14.5q-52 0 -104.5 -41t-93.5 -118.5t-61 -188.5q-33 -186 22.5 -275.5t173.5 -89.5q78 0 142 41t112 121q11 10 20 18.5t22 7.5t22 -15t-1 -38q-41 -96 -109.5 -167
t-161.5 -109.5t-208 -38.5q-131 0 -220 53.5t-126 153.5t-13 242q18 107 70 198.5t131 160t179.5 106.5t213.5 38q116 0 191.5 -35t109.5 -92t25 -124zM572 510q-25 -92 -46 -174.5t-38.5 -154.5t-32 -133t-26 -108t-20.5 -80q-5 -16 -15.5 -25t-25.5 -9q-12 0 -18 8.5
t-1 27.5q7 26 17.5 62.5t24 82.5t29 101.5t33.5 119t37.5 134t39.5 148.5q18 63 33.5 122t28.5 113t24.5 101t20.5 86.5t17.5 71.5t13.5 53q5 17 16.5 25.5t25.5 8.5q12 0 18 -8.5t1 -26.5q-6 -22 -15.5 -53.5t-21 -71t-25.5 -86.5t-29.5 -100.5t-32 -112.5t-33.5 -122z" />
    <glyph glyph-name="sterling" unicode="&#xa3;" horiz-adv-x="1222" 
d="M374 362l-51 7q53 27 82.5 58.5t37.5 70.5q8 44 -10 87.5t-48.5 90.5t-59.5 100t-43.5 114.5t-0.5 135.5q22 115 102.5 205.5t216 142.5t319.5 52q144 0 232 -47.5t123.5 -124t21.5 -162.5q-8 -60 -37 -106.5t-72.5 -72.5t-97.5 -26q-77 0 -109.5 52t-10.5 141l27 128
q17 83 -5.5 125t-85.5 42q-80 0 -137 -67t-97 -215q-17 -62 -25 -125t-14 -125t-14.5 -123t-25.5 -119q-21 -72 -73 -138t-145 -101zM-39 116q15 82 72 146t145 101t196 37q73 0 135 -14.5t119 -33.5t112.5 -34t117.5 -15q78 0 128 33t95 107q10 16 21 23t24 5
q13 -3 19 -12.5t2 -24.5q-37 -118 -84 -205t-104.5 -143t-124 -83.5t-141.5 -27.5q-78 0 -130 26t-82.5 90t-47.5 177q-13 41 -25.5 55.5t-30.5 14.5q-22 0 -40 -24.5t-39 -87.5q-36 -98 -72.5 -152.5t-78 -77t-89.5 -22.5q-59 0 -83.5 40.5t-13.5 101.5zM156 650
q3 12 14 19t23 7l271 7l28 -54h-315q-12 0 -18 5.5t-3 15.5zM537 629l10 47h386q12 0 17 -6.5t2 -16.5q-7 -24 -34 -24h-381z" />
    <glyph glyph-name="currency" unicode="&#xa4;" horiz-adv-x="1118" 
d="M535 348q96 0 185.5 41.5t156.5 116t94 175.5q28 104 2 180.5t-92.5 118.5t-162.5 42t-185 -40.5t-155 -115t-93 -175.5q-28 -103 -3 -180.5t91.5 -120t161.5 -42.5zM556 414q-118 0 -167 79t-19 193q21 76 68.5 137.5t115 97.5t145.5 36q117 0 167.5 -78.5t19.5 -192.5
q-19 -76 -67.5 -137.5t-116 -98t-146.5 -36.5zM952 244q21 14 23 31.5t-9 31.5l-135 191l-81 -57l136 -190q11 -14 29.5 -17.5t36.5 10.5zM301 1123q-20 -14 -22 -31.5t9 -31.5l136 -191l79 57l-135 190q-11 14 -29.5 17.5t-37.5 -10.5zM79 249q10 -13 30.5 -13t39.5 15
l224 191l-50 59l-224 -191q-18 -15 -25 -31t5 -30zM1175 1120q-11 14 -31 13.5t-39 -16.5l-224 -190l51 -59l223 191q19 15 25 31t-5 30z" />
    <glyph glyph-name="yen" unicode="&#xa5;" horiz-adv-x="1252" 
d="M711 487l361 696q52 98 95.5 152.5t85.5 77t88 22.5q60 0 91.5 -31t31.5 -78q0 -57 -44.5 -101t-137.5 -77q-59 -20 -101.5 -44t-74 -58.5t-59.5 -86.5l-247 -465q-15 -29 -22.5 -50t-12.5 -39l-66 -270q-6 -22 1.5 -34.5t28.5 -17.5l60 -12q18 -6 24.5 -14t6.5 -18
q0 -19 -14 -29t-38 -10h-540q-24 0 -33 8.5t-9 24.5q0 27 35 39l64 12q26 5 37.5 20.5t19.5 40.5l74 278q8 28 5.5 56t-6.5 58q-2 18 -8.5 73.5t-15 133t-17.5 161.5t-18 160t-15.5 129.5t-10.5 67.5q-5 31 -21.5 45t-63.5 21q-16 5 -24.5 13t-8.5 21q0 17 12.5 27.5
t36.5 10.5h316q40 0 60 -17t26 -51q3 -18 10.5 -79.5t18 -148.5t22 -183t22 -184.5t19 -154.5t12.5 -90zM107 458q3 13 13.5 19.5t23.5 6.5h946q20 0 28 -6.5t4 -19.5t-16.5 -19.5t-30.5 -6.5h-948q-27 0 -20 26zM172 737q4 13 14 19.5t22 6.5h449l9 -52h-474q-27 0 -20 26z
M887 711l35 52h242q14 0 20.5 -6.5t2.5 -19.5q-3 -13 -13.5 -19.5t-24.5 -6.5h-262z" />
    <glyph glyph-name="brokenbar" unicode="&#xa6;" horiz-adv-x="571" 
d="M406 735q-8 -29 -21 -41.5t-32 -12.5q-18 0 -25 13t0 41q23 84 43.5 176t39.5 184t37 175t35 147q11 37 33.5 57.5t57.5 20.5t46.5 -20.5t1.5 -57.5q-18 -64 -45 -147t-58 -175t-61 -184.5t-52 -175.5zM263 494q8 29 21 41.5t33 12.5q18 0 24.5 -13t-0.5 -41
q-23 -83 -43.5 -175.5t-39.5 -184.5t-36.5 -175t-35.5 -147q-10 -37 -33 -57.5t-58 -20.5q-34 0 -45.5 20.5t-2.5 57.5q18 64 45 147t58 175t61 184.5t52 175.5z" />
    <glyph glyph-name="section" unicode="&#xa7;" horiz-adv-x="1145" 
d="M366 -415q-57 0 -96 14.5t-64 33t-40.5 32.5t-26.5 14q-13 0 -30 -12.5t-34 -29t-31.5 -29t-22.5 -12.5q-17 0 -23 9t-4 27l55 326q2 16 10.5 26t23.5 13t25 -3t16 -23q14 -125 47 -194.5t82 -97.5t107 -28q75 0 126.5 39.5t69.5 105.5q19 73 -15 137.5t-148 126.5
q-118 56 -180.5 116t-79 126.5t1.5 143.5q19 85 78 151.5t149.5 108t202.5 51.5l6 -49q-57 -9 -97 -48.5t-51 -94.5q-14 -76 29.5 -138.5t148.5 -120.5q113 -58 174.5 -119t80.5 -127.5t2 -141.5q-20 -99 -87.5 -174t-171 -117t-233.5 -42zM862 1359q-86 0 -146.5 -57.5
t-75.5 -144.5q-13 -74 28 -132.5t130 -109.5q108 -60 173.5 -124t89.5 -133.5t7 -147.5q-18 -85 -80 -152.5t-156.5 -108.5t-209.5 -48l-1 52q58 8 98.5 45t54.5 89q21 76 -19.5 144.5t-163.5 137.5q-159 77 -214.5 172.5t-30.5 214.5q17 100 85.5 184.5t182 134.5t263.5 50
q126 0 207.5 -40.5t119.5 -105.5t34 -136q-3 -60 -34 -97.5t-84 -37.5q-43 0 -72 25t-37 80l-8 64q-4 59 -18.5 99.5t-43 61.5t-79.5 21z" />
    <glyph glyph-name="dieresis" unicode="&#xa8;" horiz-adv-x="787" 
d="M182 1016q-70 0 -102 41t-14 108q18 69 71 110t123 41q71 0 102.5 -41t13.5 -110q-18 -67 -71 -108t-123 -41zM579 1016q-70 0 -102 41t-14 108q18 68 71.5 109.5t123.5 41.5q72 0 103.5 -41t13.5 -110q-18 -67 -71 -108t-125 -41z" />
    <glyph glyph-name="copyright" unicode="&#xa9;" horiz-adv-x="1684" 
d="M696 -81q168 0 325 56t289 158.5t227.5 243t141.5 311.5q49 179 32 329t-92 259.5t-199.5 170.5t-290.5 61q-169 0 -326.5 -56t-290 -157.5t-228 -240t-140.5 -305.5q-48 -177 -31 -328.5t91.5 -264t199.5 -175t292 -62.5zM715 -18q-152 0 -264.5 57.5t-178.5 161
t-79.5 244t30.5 305.5q41 152 126 279t203.5 220.5t261 144.5t295.5 51q149 0 260.5 -56.5t179 -158.5t83 -240t-29.5 -302q-42 -153 -129 -282t-206.5 -224.5t-260.5 -147.5t-291 -52zM1300 505q-21 -65 -69 -124t-116 -105t-151 -73t-175 -27q-133 0 -222.5 70.5
t-120.5 195t11 286.5q27 106 87 199.5t145 164t186 110t211 39.5q66 0 105 -13.5t61.5 -28t35.5 -14.5q14 0 34.5 11t39.5 21.5t29 10.5q16 0 20 -7.5t4 -26.5l-23 -273q0 -16 -11.5 -26.5t-29.5 -13.5q-16 -2 -28 4.5t-15 23.5q-7 102 -31 159t-60.5 81t-82.5 24
q-55 0 -106.5 -29t-96 -83t-80.5 -130.5t-60 -170.5q-38 -152 -25.5 -250t65 -145.5t133.5 -47.5q78 0 150 48.5t129 144.5q10 9 18.5 14t15.5 7t13 0q17 -6 10 -26z" />
    <glyph glyph-name="ordfeminine" unicode="&#xaa;" horiz-adv-x="1059" 
d="M945 860q-17 -67 -12.5 -91.5t27.5 -24.5q17 0 33.5 12t39.5 41q10 9 17 11t13 0q7 -3 9.5 -15t-7.5 -34q-32 -72 -105.5 -117.5t-176.5 -45.5q-60 0 -88.5 30t-28.5 84q0 18 3 41.5t8.5 52t13.5 60t18 66.5l13 -31q-44 -100 -95.5 -167.5t-115 -101.5t-145.5 -34
q-102 0 -157 66.5t-45 196.5q6 109 55.5 211t135 183t198.5 129.5t246 48.5q101 0 172.5 -13t109 -32.5t35.5 -40.5q-1 -18 -14 -26.5t-27 -17t-20 -27.5zM455 849q-7 -73 9 -101.5t42 -28.5q27 0 56.5 24t59.5 69t58.5 109t54.5 145.5t46 177.5q12 54 4.5 85t-39.5 31
q-49 0 -97.5 -47t-90 -123.5t-69 -166.5t-34.5 -174z" />
    <glyph glyph-name="guillemetleft" unicode="&#xab;" horiz-adv-x="1124" 
d="M100 508q6 17 22 31.5t46 30.5q133 69 225 121.5t151 92t93 69.5q18 13 32.5 16t22.5 -4q7 -8 3.5 -20t-16.5 -28q-23 -29 -52.5 -65.5t-68.5 -81.5t-90.5 -101.5t-119.5 -124.5l14 78q44 -91 68.5 -162t38.5 -125t25 -94q4 -15 2 -27t-12 -18q-11 -6 -21.5 -2.5
t-20.5 16.5q-19 34 -54.5 83.5t-97 113t-158.5 135.5q-22 19 -29 34t-3 32zM541 508q6 17 22 31.5t46 30.5q133 69 225 121.5t151 92t93 69.5q18 13 32.5 16t22.5 -4q7 -8 3.5 -20t-16.5 -28q-23 -29 -52.5 -65.5t-68.5 -81.5t-90.5 -101.5t-119.5 -124.5l14 78
q44 -91 68.5 -162t38.5 -125t25 -94q4 -15 2 -27t-12 -18q-11 -6 -21.5 -2.5t-20.5 16.5q-19 34 -54.5 83.5t-97 113t-158.5 135.5q-22 19 -29 34t-3 32z" />
    <glyph glyph-name="logicalnot" unicode="&#xac;" horiz-adv-x="1024" 
d="M194 807q6 20 23.5 31.5t35.5 11.5h701q25 0 36 -12.5t4 -36.5l-84 -314q-4 -16 -20 -28t-38 -12q-24 0 -33.5 13t-4.5 31l76 292l12 -17h-675q-18 0 -28.5 10.5t-4.5 30.5z" />
    <glyph glyph-name="hyphensoft" unicode="&#xad;" horiz-adv-x="647" 
d="M596 615q39 0 21 -36l-44 -116q-9 -18 -19.5 -24t-26.5 -6h-440q-19 0 -24.5 9t3.5 27l44 116q9 18 19 24t26 6h441z" />
    <glyph glyph-name="registered" unicode="&#xae;" horiz-adv-x="1331" 
d="M598 279q137 0 264 45t233 126.5t182.5 191t111.5 238.5q37 135 20.5 249t-79 197.5t-164 129.5t-235.5 46q-135 0 -260 -43t-229.5 -122t-179.5 -186t-111 -236q-37 -136 -22 -252t75 -202.5t160 -134t234 -47.5zM615 334q-159 0 -262 76.5t-138.5 208t8.5 297.5
q42 156 145.5 275.5t245.5 187.5t300 68q157 0 263 -73.5t145.5 -201.5t-4.5 -292q-41 -155 -146.5 -278.5t-250.5 -195.5t-306 -72zM1138 1005q-18 -71 -84 -122t-159 -67q-29 -4 -54.5 -10t-55.5 -6q-59 0 -92 12t-55 30l16 43q23 -20 46 -28t59 -8q61 0 103.5 37
t61.5 113q24 93 -3.5 152.5t-86.5 59.5q-25 0 -38 -10.5t-19 -32.5q-12 -46 -26 -99t-28.5 -109.5t-29.5 -114t-29.5 -112.5t-27.5 -104q-4 -16 -1 -23t13 -11l24 -8q8 -4 9.5 -8.5t-0.5 -11.5q-6 -19 -32 -19h-288q-27 0 -21 19q2 8 8 13t15 8l30 8q12 4 20 11t12 22
q14 50 29 106t30 114.5t30 116t28.5 110.5t24.5 99q4 13 1 20t-11 10l-29 8q-15 6 -11 22q6 19 32 19h297q167 0 244.5 -68t47.5 -181zM752 823l180 28l46 -168q7 -27 18 -38t23 -11q11 0 20.5 6t19.5 18q7 6 15 5q7 0 9 -7.5t-2 -17.5q-24 -52 -75 -79.5t-112 -27.5
q-42 0 -68 22.5t-35 73.5z" />
    <glyph glyph-name="macron" unicode="&#xaf;" horiz-adv-x="776" 
d="M40 1144q10 37 26.5 52t43.5 15h485q26 0 34.5 -14t-2.5 -52q-9 -37 -25.5 -52.5t-43.5 -15.5h-485q-26 0 -34.5 15.5t1.5 51.5z" />
    <glyph glyph-name="degree" unicode="&#xb0;" horiz-adv-x="724" 
d="M599 1426q79 0 131 -36t70.5 -99t-4.5 -146q-21 -78 -73.5 -137.5t-123 -93t-148.5 -33.5q-117 0 -173.5 77.5t-24.5 195.5q21 77 72 138t122 97.5t152 36.5zM580 1360q-86 0 -154.5 -59.5t-91.5 -146.5q-25 -92 14.5 -149.5t121.5 -57.5q81 0 151.5 55.5t93.5 143.5
q25 94 -13 154t-122 60z" />
    <glyph glyph-name="plusminus" unicode="&#xb1;" horiz-adv-x="1034" 
d="M508 440q-21 0 -29.5 11.5t-4.5 26.5l196 735q4 14 19.5 24.5t35.5 10.5q22 -1 30 -12.5t4 -25.5l-195 -735q-5 -15 -20 -25.5t-36 -9.5zM204 845q5 20 20.5 30.5t32.5 10.5h740q16 0 24.5 -10.5t2.5 -30.5q-5 -19 -22 -29.5t-35 -10.5h-729q-20 0 -30 10.5t-4 29.5z
M61 196q5 19 20.5 30t32.5 11h740q16 0 24.5 -11t3.5 -30q-6 -20 -23 -30.5t-35 -10.5h-729q-20 0 -30 10.5t-4 30.5z" />
    <glyph glyph-name="twosuperior" unicode="&#xb2;" horiz-adv-x="724" 
d="M274 873l-24 19l115 48q110 44 172.5 107.5t89.5 166.5q27 100 17.5 139t-46.5 39q-38 0 -62 -24t-36 -68l-18 -69q-13 -47 -51.5 -76t-85.5 -29q-46 0 -66.5 26.5t-7.5 72.5q20 76 113 138t252 62q141 0 196 -58t31 -148q-21 -78 -103 -141t-253 -123zM138 783
q17 64 85 99t184 35q35 0 68.5 -7t64.5 -16t61 -16t57 -7q36 0 61 16t49 54q6 9 14 12.5t14 2.5q26 -1 14 -30q-46 -132 -107 -184.5t-137 -52.5q-68 0 -103.5 29.5t-54.5 110.5q-8 23 -13 32.5t-15 9.5q-11 0 -20.5 -14t-20.5 -48q-21 -66 -52.5 -93t-78.5 -27
q-42 0 -61.5 26t-8.5 68z" />
    <glyph glyph-name="threesuperior" unicode="&#xb3;" horiz-adv-x="658" 
d="M457 1064l-9 12q12 2 30 3.5t33 1.5q129 0 192.5 -50.5t38.5 -144.5t-125 -149t-241 -55q-135 0 -191.5 50t-37.5 123q13 46 52.5 75.5t85.5 29.5q44 0 63 -27t7 -71l-16 -62q-9 -35 3 -58t47 -23q37 0 67.5 34t52.5 119q22 82 5 122.5t-61 40.5h-36q-13 0 -20.5 6
t-3.5 18q3 9 9.5 16t18.5 14l246 174l-3 -36h-270q-33 0 -49 -27l-30 -54q-6 -10 -14.5 -15.5t-21.5 -5.5t-18.5 6.5t-0.5 19.5l80 215q5 15 19.5 24.5t34.5 9.5h461q15 0 22 -7t4 -18q-3 -8 -12.5 -16t-28.5 -19z" />
    <glyph glyph-name="acute" unicode="&#xb4;" horiz-adv-x="492" 
d="M192 1276q45 69 93.5 107t104.5 33q56 -4 74 -41.5t3 -77.5q-17 -51 -58 -87t-103 -67l-222 -127q-13 -5 -25 -5t-17 7q-7 9 -2 18.5t14 20.5z" />
    <glyph glyph-name="mu.math" unicode="&#xb5;" horiz-adv-x="1189" 
d="M91 247l25 -11q-31 -115 -38.5 -201t-3.5 -151.5t6.5 -117t-10.5 -97.5q-14 -53 -57 -85t-94 -32q-55 0 -80 40t-6 106q11 40 41 90.5t69.5 116.5t79 150.5t68.5 191.5zM194 564q19 62 27 99t8 72q0 25 -12 45t-12 46q0 50 70 80.5t195 30.5q83 0 100 -45t-12 -132
l-132 -436q-24 -83 -17 -117t49 -34q28 0 63.5 20.5t74 62.5t75 107.5t67.5 156.5q18 52 29.5 93t17 71.5t5.5 50.5q0 25 -10 45t-10 46q0 50 69.5 80.5t194.5 30.5q84 0 102.5 -45.5t-15.5 -131.5l-153 -468q-26 -74 -22.5 -102.5t30.5 -28.5q18 0 39.5 14t56.5 51
q13 8 22.5 10t17.5 -1q11 -5 10.5 -19.5t-12.5 -31.5q-58 -92 -152.5 -149t-193.5 -57q-68 0 -103 28t-35 82q0 34 13 78t32 91.5t36.5 94.5t25.5 86l22 -5q-61 -129 -129.5 -216.5t-139.5 -140t-139.5 -75.5t-129.5 -23q-76 0 -112.5 35t-37.5 98.5t29 148.5z" />
    <glyph glyph-name="paragraph" unicode="&#xb6;" horiz-adv-x="1349" 
d="M181 954q37 136 124 235.5t214.5 155t283.5 55.5h700q16 0 26.5 -8.5t5.5 -24.5q-4 -14 -14.5 -22.5t-26.5 -14.5l-66 -16q-28 -8 -45 -21t-23 -33l-298 -1119q-7 -21 1.5 -34.5t31.5 -19.5l58 -15q15 -4 21 -12.5t1 -23.5q-5 -18 -22 -27t-34 -9h-783q-16 0 -23.5 8.5
t-3.5 21.5q6 18 18 28t31 14l69 15q30 6 47.5 18t22.5 30l118 441q-22 -4 -48 -9.5t-63 -5.5q-197 0 -284.5 105t-38.5 288zM856 144l296 1111q7 26 -6 42.5t-53 16.5q-38 0 -61.5 -17.5t-30.5 -41.5l-295 -1111q-7 -24 7 -40.5t53 -16.5t61 16t29 41z" />
    <glyph glyph-name="periodcentered" unicode="&#xb7;" horiz-adv-x="595" 
d="M265 366q-79 0 -121.5 39.5t-40.5 100.5q1 53 32 98t86.5 72t129.5 27q81 0 120.5 -41.5t38.5 -103.5q-1 -49 -30.5 -93.5t-84 -71.5t-130.5 -27z" />
    <glyph glyph-name="cedilla" unicode="&#xb8;" horiz-adv-x="593" 
d="M379 9h56l-118 -138l-31 11q18 2 38 3.5t52 1.5q100 0 142.5 -41t24.5 -110q-20 -75 -90.5 -120t-176.5 -45q-86 0 -132 29t-48 68q2 13 11.5 21t19.5 9q11 2 18 -2.5t12 -10.5q14 -27 37 -40t54 -13q80 0 107 108q12 46 -5 71.5t-63 25.5h-21q-16 0 -17.5 10t10.5 23z
" />
    <glyph glyph-name="onesuperior" unicode="&#xb9;" horiz-adv-x="606" 
d="M346 1325h49q16 0 21 -8t0 -28l-127 -484q-7 -22 -19.5 -32.5t-30.5 -14.5l-60 -12q-27 -5 -32 -23q-7 -21 25 -21h406q30 0 37 21q5 17 -17 23l-52 12q-15 4 -20.5 15t0.5 32l160 602q8 27 -22 27q-8 0 -16 -2.5t-19 -7.5q-36 -26 -83 -37t-123 -11h-61
q-15 0 -25.5 -7.5t-13.5 -17.5q-4 -12 1.5 -19t21.5 -7z" />
    <glyph glyph-name="ordmasculine" unicode="&#xba;" horiz-adv-x="1036" 
d="M772 1429q124 -2 203.5 -54.5t109.5 -145.5t4 -218t-108 -221t-199 -149t-251 -51q-122 2 -202 53t-110.5 142.5t-4.5 215.5q27 124 104.5 222t194 153.5t259.5 52.5zM555 654q36 -1 76.5 30t81.5 112.5t77 228.5q30 125 32.5 198.5t-16 106.5t-52.5 34
q-37 2 -80.5 -35.5t-85 -121.5t-75.5 -221q-31 -128 -32.5 -200t19 -101.5t55.5 -30.5z" />
    <glyph glyph-name="guillemetright" unicode="&#xbb;" horiz-adv-x="1133" 
d="M1060 477q-6 -17 -22 -31.5t-46 -30.5q-133 -69 -225 -121.5t-151 -92t-93 -69.5q-18 -13 -32.5 -16t-22.5 4q-7 8 -3.5 20t16.5 28q23 29 52.5 65.5t68.5 81.5t90.5 101.5t119.5 124.5l-14 -78q-44 91 -68.5 162t-38.5 125t-25 94q-4 15 -2 27t12 18q11 6 21.5 2.5
t20.5 -16.5q19 -34 54.5 -83.5t97 -113t158.5 -135.5q22 -19 29 -34t3 -32zM619 477q-6 -17 -22 -31.5t-46 -30.5q-133 -69 -225 -121.5t-151 -92t-93 -69.5q-18 -13 -32.5 -16t-22.5 4q-7 8 -3.5 20t16.5 28q23 29 52.5 65.5t68.5 81.5t90.5 101.5t119.5 124.5l-14 -78
q-44 91 -68.5 162t-38.5 125t-25 94q-4 15 -2 27t12 18q11 6 21.5 2.5t20.5 -16.5q19 -34 54.5 -83.5t97 -113t158.5 -135.5q22 -19 29 -34t3 -32z" />
    <glyph glyph-name="onequarter" unicode="&#xbc;" horiz-adv-x="1394" 
d="M356 1325h49q16 0 21 -8t0 -28l-127 -484q-7 -22 -19.5 -32.5t-30.5 -14.5l-60 -12q-27 -5 -32 -23q-7 -21 25 -21h406q30 0 37 21q5 17 -17 23l-52 12q-15 4 -20.5 15t0.5 32l160 602q8 27 -22 27q-8 0 -16 -2.5t-19 -7.5q-36 -26 -83 -37t-123 -11h-61
q-15 0 -25.5 -7.5t-13.5 -17.5q-4 -12 1.5 -19t21.5 -7zM960 300q4 11 9.5 18.5t14.5 12.5l204 147q14 8 22 11.5t15 3.5q20 0 13 -20l-96 -371q-6 -20 0 -30.5t20 -14.5l44 -12q22 -8 17 -22q-7 -22 -37 -22h-384q-32 0 -25 22q5 17 32 22l51 12q18 4 30.5 14t18.5 31z
M887 397q31 21 49 41t24 43q7 26 -5 48.5t-23 48t-2 58.5q13 47 57 79.5t113 32.5q62 0 92 -32t16 -82q-11 -41 -45 -83t-124 -104l-369 -257l-5 23h595q13 0 19.5 -5t3.5 -16q-7 -24 -39 -24h-606q-14 0 -19.5 6.5t-2.5 17.5q2 7 8.5 14.5t21.5 15.5zM842 751
q-15 -14 -24.5 -17.5t-20.5 3.5q-9 6 -8 15t14 24q18 23 60 73t97.5 114.5t114.5 133t111.5 129t89 103t46.5 53.5q25 27 50.5 34t48.5 -9q21 -14 18.5 -37.5t-26.5 -48.5q-11 -11 -50 -51t-96.5 -97.5t-121.5 -122t-125.5 -125.5t-108.5 -107t-69 -67zM680 646
q14 14 25.5 18t21.5 -3q9 -6 7 -16t-15 -25q-18 -22 -60 -72t-97 -115t-114.5 -134t-112.5 -130.5t-90 -104.5t-48 -54q-24 -26 -50 -32.5t-48 8.5q-21 14 -18 37t28 50q10 11 50 51.5t97.5 99t122 123l125.5 125.5t108 107.5t68 66.5z" />
    <glyph glyph-name="onehalf" unicode="&#xbd;" horiz-adv-x="1452" 
d="M365 1325h49q16 0 21 -8t0 -28l-127 -484q-7 -22 -19.5 -32.5t-30.5 -14.5l-60 -12q-27 -5 -32 -23q-7 -21 25 -21h406q30 0 37 21q5 17 -17 23l-52 12q-15 4 -20.5 15t0.5 32l160 602q8 27 -22 27q-8 0 -16 -2.5t-19 -7.5q-36 -26 -83 -37t-123 -11h-61
q-15 0 -25.5 -7.5t-13.5 -17.5q-4 -12 1.5 -19t21.5 -7zM845 751q-15 -14 -24.5 -17.5t-20.5 3.5q-9 6 -8 15t14 24q18 23 60 73t97.5 114.5t114.5 133t111.5 129t89 103t46.5 53.5q25 27 50.5 34t48.5 -9q21 -14 18.5 -37.5t-26.5 -48.5q-11 -11 -50 -51t-96.5 -97.5
t-121.5 -122t-125.5 -125.5t-108.5 -107t-69 -67zM683 646q14 14 25.5 18t21.5 -3q9 -6 7 -16t-15 -25q-18 -22 -60 -72t-97 -115t-114.5 -134t-112.5 -130.5t-90 -104.5t-48 -54q-24 -26 -50 -32.5t-48 8.5q-21 14 -18 37t28 50q10 11 50 51.5t97.5 99t122 123l125.5 125.5
t108 107.5t68 66.5zM799 165l-24 19l115 48q110 44 172.5 107.5t89.5 166.5q27 100 17.5 139t-46.5 39q-38 0 -62 -24t-36 -68l-18 -69q-13 -47 -51.5 -76t-85.5 -29q-46 0 -66.5 26.5t-7.5 72.5q20 76 113 138t252 62q141 0 196 -58t31 -148q-21 -78 -103 -141t-253 -123z
M663 75q17 64 85 99t184 35q35 0 68.5 -7t64.5 -16t61 -16t57 -7q36 0 61 16t49 54q6 9 14 12.5t14 2.5q26 -1 14 -30q-46 -132 -107 -184.5t-137 -52.5q-68 0 -103.5 29.5t-54.5 110.5q-8 23 -13 32.5t-15 9.5q-11 0 -20.5 -14t-20.5 -48q-21 -66 -52.5 -93t-78.5 -27
q-42 0 -61.5 26t-8.5 68z" />
    <glyph glyph-name="threequarters" unicode="&#xbe;" horiz-adv-x="1451" 
d="M1015 298q4 11 9.5 18.5t14.5 12.5l204 147q14 8 22 11.5t15 3.5q20 0 13 -20l-96 -371q-6 -20 0 -30.5t20 -14.5l44 -12q22 -8 17 -22q-7 -22 -37 -22h-384q-32 0 -25 22q5 17 32 22l51 12q18 4 30.5 14t18.5 31zM942 395q31 21 49 41t24 43q7 26 -5 48.5t-23 48
t-2 58.5q13 47 57 79.5t113 32.5q62 0 92 -32t16 -82q-11 -41 -45 -83t-124 -104l-369 -257l-5 23h595q13 0 19.5 -5t3.5 -16q-7 -24 -39 -24h-606q-14 0 -19.5 6.5t-2.5 17.5q2 7 8.5 14.5t21.5 15.5zM898 751q-15 -14 -24.5 -17.5t-20.5 3.5q-9 6 -8 15t14 24q18 23 60 73
t97.5 114.5t114.5 133t111.5 129t89 103t46.5 53.5q25 27 50.5 34t48.5 -9q21 -14 18.5 -37.5t-26.5 -48.5q-11 -11 -50 -51t-96.5 -97.5t-121.5 -122t-125.5 -125.5t-108.5 -107t-69 -67zM736 646q14 14 25.5 18t21.5 -3q9 -6 7 -16t-15 -25q-18 -22 -60 -72t-97 -115
t-114.5 -134t-112.5 -130.5t-90 -104.5t-48 -54q-24 -26 -50 -32.5t-48 8.5q-21 14 -18 37t28 50q10 11 50 51.5t97.5 99t122 123l125.5 125.5t108 107.5t68 66.5zM498 1064l-9 12q12 2 30 3.5t33 1.5q129 0 192.5 -50.5t38.5 -144.5t-125 -149t-241 -55q-135 0 -191.5 50
t-37.5 123q13 46 52.5 75.5t85.5 29.5q44 0 63 -27t7 -71l-16 -62q-9 -35 3 -58t47 -23q37 0 67.5 34t52.5 119q22 82 5 122.5t-61 40.5h-36q-13 0 -20.5 6t-3.5 18q3 9 9.5 16t18.5 14l246 174l-3 -36h-270q-33 0 -49 -27l-30 -54q-6 -10 -14.5 -15.5t-21.5 -5.5t-18.5 6.5
t-0.5 19.5l80 215q5 15 19.5 24.5t34.5 9.5h461q15 0 22 -7t4 -18q-3 -8 -12.5 -16t-28.5 -19z" />
    <glyph glyph-name="questiondown" unicode="&#xbf;" horiz-adv-x="1059" 
d="M708 411l29 134q2 27 -7 42t-31 15q-21 0 -36 -13t-34 -45l-35 -111q-11 -28 -27.5 -45t-55.5 -25l-68 -15q-197 -45 -319 -141t-162 -245q-30 -112 7.5 -198t137.5 -134t257 -48q148 0 266.5 47t195 122t100.5 160q20 74 -11 122.5t-100 48.5q-77 0 -129.5 -42
t-78.5 -129l-27 -97q-23 -81 -67.5 -122t-115.5 -41q-45 0 -71.5 28t-30 85.5t21.5 146.5q44 155 102.5 240t149.5 129l54 26q43 20 61.5 44.5t23.5 60.5zM825 1072q79 0 121.5 -40t40.5 -101q-1 -53 -32 -97.5t-86.5 -72t-129.5 -27.5q-81 0 -120.5 41.5t-38.5 103.5
q1 50 30.5 94t84 71.5t130.5 27.5z" />
    <glyph glyph-name="Agrave" unicode="&#xc0;" horiz-adv-x="1294" 
d="M250 297q-52 -83 -35.5 -140t82.5 -76l35 -11q15 -6 21 -14t6 -18q0 -18 -13 -28t-35 -10h-356q-22 0 -33 8.5t-11 23.5q0 16 10.5 27.5t39.5 27.5q45 21 97.5 80t105.5 147l471 758q115 180 251 265t285 85q40 0 56 -10.5t16 -28.5q0 -12 -6 -20.5t-21 -15.5
q-48 -9 -75 -42t-29 -97q-1 -29 -2.5 -92t-3.5 -148.5t-4.5 -181.5t-4.5 -192t-4 -179.5t-3 -143.5t-1 -84q1 -34 5.5 -55t21.5 -34.5t53 -25.5q25 -14 25 -35q0 -16 -13 -26.5t-37 -10.5h-515q-22 0 -31 9.5t-9 23.5q0 15 9.5 24t27.5 16l67 12q28 8 40 32t13 59q1 31 3 92
t5.5 141.5t7 171.5t7 183t6 175.5t4.5 149t2 103.5l50 -11q-12 -7 -28.5 -21.5t-40.5 -45t-61 -86.5zM290 444l18 67h543l-5 -67h-556zM1022 1733l73 -194q4 -10 3.5 -20t-9.5 -18t-21.5 -8.5t-21.5 2.5l-186 83q-52 21 -83.5 52.5t-22.5 88.5q5 39 41.5 77.5t89.5 44.5
q52 7 84.5 -22.5t52.5 -85.5z" />
    <glyph glyph-name="Aacute" unicode="&#xc1;" horiz-adv-x="1294" 
d="M253 297q-52 -83 -35.5 -140t82.5 -76l35 -11q15 -6 21 -14t6 -18q0 -18 -13 -28t-35 -10h-356q-22 0 -33 8.5t-11 23.5q0 16 10.5 27.5t39.5 27.5q45 21 97.5 80t105.5 147l471 758q115 180 251 265t285 85q40 0 56 -10.5t16 -28.5q0 -12 -6 -20.5t-21 -15.5
q-48 -9 -75 -42t-29 -97q-1 -29 -2.5 -92t-3.5 -148.5t-4.5 -181.5t-4.5 -192t-4 -179.5t-3 -143.5t-1 -84q1 -34 5.5 -55t21.5 -34.5t53 -25.5q25 -14 25 -35q0 -16 -13 -26.5t-37 -10.5h-515q-22 0 -31 9.5t-9 23.5q0 15 9.5 24t27.5 16l67 12q28 8 40 32t13 59q1 31 3 92
t5.5 141.5t7 171.5t7 183t6 175.5t4.5 149t2 103.5l50 -11q-12 -7 -28.5 -21.5t-40.5 -45t-61 -86.5zM293 444l18 67h543l-5 -67h-556zM1194 1733q50 56 98 85.5t96 22.5q49 -6 65.5 -44.5t-0.5 -77.5q-20 -57 -68 -88.5t-112 -52.5l-228 -83q-11 -3 -23 -2.5t-17 8.5
q-4 8 1.5 18t14.5 20z" />
    <glyph glyph-name="Acircumflex" unicode="&#xc2;" horiz-adv-x="1294" 
d="M250 297q-52 -83 -35.5 -140t82.5 -76l35 -11q15 -6 21 -14t6 -18q0 -18 -13 -28t-35 -10h-356q-22 0 -33 8.5t-11 23.5q0 16 10.5 27.5t39.5 27.5q45 21 97.5 80t105.5 147l471 758q115 180 251 265t285 85q40 0 56 -10.5t16 -28.5q0 -12 -6 -20.5t-21 -15.5
q-48 -9 -75 -42t-29 -97q-1 -29 -2.5 -92t-3.5 -148.5t-4.5 -181.5t-4.5 -192t-4 -179.5t-3 -143.5t-1 -84q1 -34 5.5 -55t21.5 -34.5t53 -25.5q25 -14 25 -35q0 -16 -13 -26.5t-37 -10.5h-515q-22 0 -31 9.5t-9 23.5q0 15 9.5 24t27.5 16l67 12q28 8 40 32t13 59q1 31 3 92
t5.5 141.5t7 171.5t7 183t6 175.5t4.5 149t2 103.5l50 -11q-12 -7 -28.5 -21.5t-40.5 -45t-61 -86.5zM290 444l18 67h543l-5 -67h-556zM1121 1660h-154l282 -156q29 -19 52 -3q9 6 13.5 18t-5.5 26l-163 243q-12 19 -24 29.5t-34 10.5t-39.5 -10.5t-41.5 -29.5l-287 -243
q-17 -14 -19.5 -26t2.5 -18q8 -8 21.5 -7t32.5 10z" />
    <glyph glyph-name="Atilde" unicode="&#xc3;" horiz-adv-x="1294" 
d="M250 297q-52 -83 -35.5 -140t82.5 -76l35 -11q15 -6 21 -14t6 -18q0 -18 -13 -28t-35 -10h-356q-22 0 -33 8.5t-11 23.5q0 16 10.5 27.5t39.5 27.5q45 21 97.5 80t105.5 147l471 758q115 180 251 265t285 85q40 0 56 -10.5t16 -28.5q0 -12 -6 -20.5t-21 -15.5
q-48 -9 -75 -42t-29 -97q-1 -29 -2.5 -92t-3.5 -148.5t-4.5 -181.5t-4.5 -192t-4 -179.5t-3 -143.5t-1 -84q1 -34 5.5 -55t21.5 -34.5t53 -25.5q25 -14 25 -35q0 -16 -13 -26.5t-37 -10.5h-515q-22 0 -31 9.5t-9 23.5q0 15 9.5 24t27.5 16l67 12q28 8 40 32t13 59q1 31 3 92
t5.5 141.5t7 171.5t7 183t6 175.5t4.5 149t2 103.5l50 -11q-12 -7 -28.5 -21.5t-40.5 -45t-61 -86.5zM290 444l18 67h543l-5 -67h-556zM1123 1507q-43 0 -75.5 15.5t-58.5 36t-50 35.5t-52 15q-63 0 -95 -86q-12 -24 -35 -24q-30 0 -18 39q31 120 89 182.5t142 62.5
q43 0 75.5 -15.5t58.5 -36t50.5 -36t51.5 -15.5q64 0 95 86q12 24 35 24q30 0 18 -39q-31 -120 -89 -182t-142 -62z" />
    <glyph glyph-name="Adieresis" unicode="&#xc4;" horiz-adv-x="1294" 
d="M250 297q-52 -83 -35.5 -140t82.5 -76l35 -11q15 -6 21 -14t6 -18q0 -18 -13 -28t-35 -10h-356q-22 0 -33 8.5t-11 23.5q0 16 10.5 27.5t39.5 27.5q45 21 97.5 80t105.5 147l471 758q115 180 251 265t285 85q40 0 56 -10.5t16 -28.5q0 -12 -6 -20.5t-21 -15.5
q-48 -9 -75 -42t-29 -97q-1 -29 -2.5 -92t-3.5 -148.5t-4.5 -181.5t-4.5 -192t-4 -179.5t-3 -143.5t-1 -84q1 -34 5.5 -55t21.5 -34.5t53 -25.5q25 -14 25 -35q0 -16 -13 -26.5t-37 -10.5h-515q-22 0 -31 9.5t-9 23.5q0 15 9.5 24t27.5 16l67 12q28 8 40 32t13 59q1 31 3 92
t5.5 141.5t7 171.5t7 183t6 175.5t4.5 149t2 103.5l50 -11q-12 -7 -28.5 -21.5t-40.5 -45t-61 -86.5zM290 444l18 67h543l-5 -67h-556zM811 1500q-72 0 -104.5 40.5t-14.5 106.5q17 68 71 108.5t126 40.5t104 -40.5t14 -108.5q-18 -66 -71 -106.5t-125 -40.5zM1213 1500
q-71 0 -104 40.5t-15 106.5q18 67 72 108t125 41q74 0 106.5 -40.5t14.5 -108.5q-18 -66 -72 -106.5t-127 -40.5z" />
    <glyph glyph-name="Aring" unicode="&#xc5;" horiz-adv-x="1294" 
d="M250 297q-52 -83 -35.5 -140t82.5 -76l35 -11q15 -6 21 -14t6 -18q0 -18 -13 -28t-35 -10h-356q-22 0 -33 8.5t-11 23.5q0 16 10.5 27.5t39.5 27.5q45 21 97.5 80t105.5 147l471 758q115 180 251 265t285 85q40 0 56 -10.5t16 -28.5q0 -12 -6 -20.5t-21 -15.5
q-48 -9 -75 -42t-29 -97q-1 -29 -2.5 -92t-3.5 -148.5t-4.5 -181.5t-4.5 -192t-4 -179.5t-3 -143.5t-1 -84q1 -34 5.5 -55t21.5 -34.5t53 -25.5q25 -14 25 -35q0 -16 -13 -26.5t-37 -10.5h-515q-22 0 -31 9.5t-9 23.5q0 15 9.5 24t27.5 16l67 12q28 8 40 32t13 59q1 31 3 92
t5.5 141.5t7 171.5t7 183t6 175.5t4.5 149t2 103.5l50 -11q-12 -7 -28.5 -21.5t-40.5 -45t-61 -86.5zM290 444l18 67h543l-5 -67h-556zM1012 1487q-94 0 -145.5 48t-29.5 134q24 87 100.5 134.5t170.5 47.5q96 0 146.5 -49t28.5 -133t-98.5 -133t-172.5 -49zM1094 1795
q-33 0 -62.5 -30.5t-45.5 -95.5q-16 -63 -3 -95t46 -32t61.5 32.5t44.5 94.5q16 64 3.5 95t-44.5 31z" />
    <glyph glyph-name="AE" unicode="&#xc6;" horiz-adv-x="1945" 
d="M1214 1400l-51 -84h-68l-851 -1070q-50 -63 -42 -105.5t61 -61.5l30 -11q13 -5 18.5 -13t1.5 -21q-5 -15 -18.5 -24.5t-35.5 -9.5h-349q-22 0 -30 9.5t-3 24.5q4 12 13.5 20t24.5 15l28 11q36 14 85 53.5t99 103.5l781 969q37 46 35.5 75.5t-38.5 41.5q-19 9 -24.5 19.5
t-2.5 23.5q6 16 19.5 25t36.5 9h280zM477 625h507l-19 -75h-516zM1192 761h279q62 0 111.5 35.5t69.5 127.5q7 14 15.5 20.5t20.5 6.5q17 0 26 -10t11 -27l35 -356q4 -27 -5.5 -39.5t-27.5 -13.5q-13 0 -22.5 7t-17.5 22q-32 85 -81 122.5t-139 37.5h-297zM1407 0h-729
q-24 0 -33 10t-8 24t10.5 23.5t25.5 15.5l59 11q23 6 36.5 18t21.5 37q9 31 29 103t47.5 171.5t59 214.5t63 231.5t60.5 223t51.5 189.5t33.5 128h680q60 0 92 16t56 16q20 0 31 -10.5t14 -33.5l6 -348q3 -23 -5 -36t-25 -15q-20 -2 -33.5 8t-24.5 40q-32 120 -66.5 184
t-80.5 88t-113 24h-193q-10 -31 -29.5 -103t-46 -171.5t-56 -211.5t-59 -223t-54.5 -208t-42.5 -165.5t-23.5 -93.5q-7 -32 -2.5 -52t24 -29t55.5 -9h132q76 0 140 30t126 101t131 193q25 41 50 41q17 0 25.5 -12.5t8.5 -35.5q-7 -101 -29 -177.5t-58 -128t-85.5 -77.5
t-110.5 -26q-40 0 -76.5 12.5t-84.5 12.5z" />
    <glyph glyph-name="Ccedilla" unicode="&#xc7;" horiz-adv-x="1289" 
d="M1201 453q13 -5 17 -22t-14 -51q-61 -136 -152 -225.5t-204.5 -133.5t-243.5 -44q-170 0 -293 79t-175.5 232.5t-10.5 374.5q31 167 106 306t183 241.5t238.5 158.5t271.5 56q69 0 116.5 -16t79 -37t51 -37t31.5 -16q13 0 33 15.5t42 35.5t41.5 36t32.5 16q17 0 27.5 -11
t9.5 -31l-19 -409q-1 -21 -12.5 -31t-28.5 -10q-33 -1 -46 39l-18 64q-47 163 -115.5 231t-163.5 68q-76 0 -146.5 -43.5t-130.5 -124.5t-105.5 -195t-72.5 -255q-41 -216 -20 -343.5t87.5 -183t160.5 -55.5q65 0 130.5 28t129 91.5t118.5 168.5q20 22 35 30.5t30 2.5z
M605 9h56l-118 -138l-31 11q18 2 38 3.5t52 1.5q100 0 142.5 -41t24.5 -110q-20 -75 -90.5 -120t-176.5 -45q-86 0 -132 29t-48 68q2 13 11.5 21t19.5 9q11 2 18 -2.5t12 -10.5q14 -27 37 -40t54 -13q80 0 107 108q12 46 -5 71.5t-63 25.5h-21q-16 0 -17.5 10t10.5 23z" />
    <glyph glyph-name="Egrave" unicode="&#xc8;" horiz-adv-x="1291" 
d="M538 761h278q62 0 111.5 35.5t69.5 127.5q7 14 16 20.5t20 6.5q17 0 26 -10t11 -27l35 -356q4 -27 -5.5 -39.5t-27.5 -13.5q-14 0 -23.5 7t-16.5 22q-32 85 -81 122.5t-140 37.5h-295zM754 0h-723q-24 0 -33 9t-9 24q0 14 9 24t25 15l68 12q21 5 32.5 20.5t20.5 43.5
q7 23 24.5 87.5t42 155.5t52.5 196t56.5 210.5t53 198.5t42 160t24.5 94q7 33 1.5 47.5t-27.5 19.5l-65 12q-12 5 -20 12t-8 21q0 17 12.5 27.5t36.5 10.5h790q60 0 92 16t56 16q40 0 45 -44l6 -348q3 -23 -5 -36t-25 -15q-20 -2 -33.5 8t-24.5 40q-33 120 -67.5 184t-80 88
t-112.5 24h-194q-9 -31 -28.5 -103t-46 -171.5t-56.5 -211t-59 -223t-54.5 -208.5t-42.5 -165.5t-23 -93.5q-7 -32 -2.5 -52t23.5 -29t56 -9h131q77 0 141 30t126 101t132 193q24 41 49 41q35 0 33 -48q-6 -101 -28 -177.5t-58 -128t-85 -77.5t-110 -26q-41 0 -77 12.5
t-83 12.5zM904 1733l73 -194q4 -10 3.5 -20t-9.5 -18t-21.5 -8.5t-21.5 2.5l-186 83q-52 21 -83.5 52.5t-22.5 88.5q5 39 41.5 77.5t89.5 44.5q52 7 84.5 -22.5t52.5 -85.5z" />
    <glyph glyph-name="Eacute" unicode="&#xc9;" horiz-adv-x="1291" 
d="M538 761h278q62 0 111.5 35.5t69.5 127.5q7 14 16 20.5t20 6.5q17 0 26 -10t11 -27l35 -356q4 -27 -5.5 -39.5t-27.5 -13.5q-14 0 -23.5 7t-16.5 22q-32 85 -81 122.5t-140 37.5h-295zM754 0h-723q-24 0 -33 9t-9 24q0 14 9 24t25 15l68 12q21 5 32.5 20.5t20.5 43.5
q7 23 24.5 87.5t42 155.5t52.5 196t56.5 210.5t53 198.5t42 160t24.5 94q7 33 1.5 47.5t-27.5 19.5l-65 12q-12 5 -20 12t-8 21q0 17 12.5 27.5t36.5 10.5h790q60 0 92 16t56 16q40 0 45 -44l6 -348q3 -23 -5 -36t-25 -15q-20 -2 -33.5 8t-24.5 40q-33 120 -67.5 184t-80 88
t-112.5 24h-194q-9 -31 -28.5 -103t-46 -171.5t-56.5 -211t-59 -223t-54.5 -208.5t-42.5 -165.5t-23 -93.5q-7 -32 -2.5 -52t23.5 -29t56 -9h131q77 0 141 30t126 101t132 193q24 41 49 41q35 0 33 -48q-6 -101 -28 -177.5t-58 -128t-85 -77.5t-110 -26q-41 0 -77 12.5
t-83 12.5zM1055 1733q50 56 98 85.5t96 22.5q49 -6 65.5 -44.5t-0.5 -77.5q-20 -57 -68 -88.5t-112 -52.5l-228 -83q-11 -3 -23 -2.5t-17 8.5q-4 8 1.5 18t14.5 20z" />
    <glyph glyph-name="Ecircumflex" unicode="&#xca;" horiz-adv-x="1291" 
d="M538 761h278q62 0 111.5 35.5t69.5 127.5q7 14 16 20.5t20 6.5q17 0 26 -10t11 -27l35 -356q4 -27 -5.5 -39.5t-27.5 -13.5q-14 0 -23.5 7t-16.5 22q-32 85 -81 122.5t-140 37.5h-295zM754 0h-723q-24 0 -33 9t-9 24q0 14 9 24t25 15l68 12q21 5 32.5 20.5t20.5 43.5
q7 23 24.5 87.5t42 155.5t52.5 196t56.5 210.5t53 198.5t42 160t24.5 94q7 33 1.5 47.5t-27.5 19.5l-65 12q-12 5 -20 12t-8 21q0 17 12.5 27.5t36.5 10.5h790q60 0 92 16t56 16q40 0 45 -44l6 -348q3 -23 -5 -36t-25 -15q-20 -2 -33.5 8t-24.5 40q-33 120 -67.5 184t-80 88
t-112.5 24h-194q-9 -31 -28.5 -103t-46 -171.5t-56.5 -211t-59 -223t-54.5 -208.5t-42.5 -165.5t-23 -93.5q-7 -32 -2.5 -52t23.5 -29t56 -9h131q77 0 141 30t126 101t132 193q24 41 49 41q35 0 33 -48q-6 -101 -28 -177.5t-58 -128t-85 -77.5t-110 -26q-41 0 -77 12.5
t-83 12.5zM984 1660h-154l282 -156q29 -19 52 -3q9 6 13.5 18t-5.5 26l-163 243q-12 19 -24 29.5t-34 10.5t-39.5 -10.5t-41.5 -29.5l-287 -243q-17 -14 -19.5 -26t2.5 -18q8 -8 21.5 -7t32.5 10z" />
    <glyph glyph-name="Edieresis" unicode="&#xcb;" horiz-adv-x="1291" 
d="M538 761h278q62 0 111.5 35.5t69.5 127.5q7 14 16 20.5t20 6.5q17 0 26 -10t11 -27l35 -356q4 -27 -5.5 -39.5t-27.5 -13.5q-14 0 -23.5 7t-16.5 22q-32 85 -81 122.5t-140 37.5h-295zM754 0h-723q-24 0 -33 9t-9 24q0 14 9 24t25 15l68 12q21 5 32.5 20.5t20.5 43.5
q7 23 24.5 87.5t42 155.5t52.5 196t56.5 210.5t53 198.5t42 160t24.5 94q7 33 1.5 47.5t-27.5 19.5l-65 12q-12 5 -20 12t-8 21q0 17 12.5 27.5t36.5 10.5h790q60 0 92 16t56 16q40 0 45 -44l6 -348q3 -23 -5 -36t-25 -15q-20 -2 -33.5 8t-24.5 40q-33 120 -67.5 184t-80 88
t-112.5 24h-194q-9 -31 -28.5 -103t-46 -171.5t-56.5 -211t-59 -223t-54.5 -208.5t-42.5 -165.5t-23 -93.5q-7 -32 -2.5 -52t23.5 -29t56 -9h131q77 0 141 30t126 101t132 193q24 41 49 41q35 0 33 -48q-6 -101 -28 -177.5t-58 -128t-85 -77.5t-110 -26q-41 0 -77 12.5
t-83 12.5zM674 1500q-72 0 -104.5 40.5t-14.5 106.5q17 68 71 108.5t126 40.5t104 -40.5t14 -108.5q-18 -66 -71 -106.5t-125 -40.5zM1076 1500q-71 0 -104 40.5t-15 106.5q18 67 72 108t125 41q74 0 106.5 -40.5t14.5 -108.5q-18 -66 -72 -106.5t-127 -40.5z" />
    <glyph glyph-name="Igrave" unicode="&#xcc;" horiz-adv-x="804" 
d="M503 135q-5 -22 2 -34.5t27 -17.5l63 -12q16 -5 23.5 -13t7.5 -20q0 -17 -13 -27.5t-37 -10.5h-542q-25 0 -34 9t-9 24t10 24.5t25 14.5l66 12q21 5 32.5 18t20.5 42t27.5 97t43.5 161t53.5 198t56 210.5t51.5 197.5t41.5 159.5t23.5 95.5q4 23 -2 35.5t-28 18.5l-64 12
q-16 6 -22.5 13.5t-6.5 19.5q0 18 13 28t38 10h538q25 0 33.5 -9t8.5 -23t-9.5 -24.5t-25.5 -14.5l-69 -14q-20 -5 -30 -16.5t-20 -41.5q-9 -29 -28 -98.5t-44.5 -165.5t-54 -204t-56 -215.5t-51 -199.5t-39 -155.5t-20.5 -83.5zM685 1733l73 -194q4 -10 3.5 -20t-9.5 -18
t-21.5 -8.5t-21.5 2.5l-186 83q-52 21 -83.5 52.5t-22.5 88.5q5 39 41.5 77.5t89.5 44.5q52 7 84.5 -22.5t52.5 -85.5z" />
    <glyph glyph-name="Iacute" unicode="&#xcd;" horiz-adv-x="804" 
d="M503 135q-5 -22 2 -34.5t27 -17.5l63 -12q16 -5 23.5 -13t7.5 -20q0 -17 -13 -27.5t-37 -10.5h-542q-25 0 -34 9t-9 24t10 24.5t25 14.5l66 12q21 5 32.5 18t20.5 42t27.5 97t43.5 161t53.5 198t56 210.5t51.5 197.5t41.5 159.5t23.5 95.5q4 23 -2 35.5t-28 18.5l-64 12
q-16 6 -22.5 13.5t-6.5 19.5q0 18 13 28t38 10h538q25 0 33.5 -9t8.5 -23t-9.5 -24.5t-25.5 -14.5l-69 -14q-20 -5 -30 -16.5t-20 -41.5q-9 -29 -28 -98.5t-44.5 -165.5t-54 -204t-56 -215.5t-51 -199.5t-39 -155.5t-20.5 -83.5zM843 1733q50 56 98 85.5t96 22.5
q49 -6 65.5 -44.5t-0.5 -77.5q-20 -57 -68 -88.5t-112 -52.5l-228 -83q-11 -3 -23 -2.5t-17 8.5q-4 8 1.5 18t14.5 20z" />
    <glyph glyph-name="Icircumflex" unicode="&#xce;" horiz-adv-x="804" 
d="M503 135q-5 -22 2 -34.5t27 -17.5l63 -12q16 -5 23.5 -13t7.5 -20q0 -17 -13 -27.5t-37 -10.5h-542q-25 0 -34 9t-9 24t10 24.5t25 14.5l66 12q21 5 32.5 18t20.5 42t27.5 97t43.5 161t53.5 198t56 210.5t51.5 197.5t41.5 159.5t23.5 95.5q4 23 -2 35.5t-28 18.5l-64 12
q-16 6 -22.5 13.5t-6.5 19.5q0 18 13 28t38 10h538q25 0 33.5 -9t8.5 -23t-9.5 -24.5t-25.5 -14.5l-69 -14q-20 -5 -30 -16.5t-20 -41.5q-9 -29 -28 -98.5t-44.5 -165.5t-54 -204t-56 -215.5t-51 -199.5t-39 -155.5t-20.5 -83.5zM773 1660h-154l282 -156q29 -19 52 -3
q9 6 13.5 18t-5.5 26l-163 243q-12 19 -24 29.5t-34 10.5t-39.5 -10.5t-41.5 -29.5l-287 -243q-17 -14 -19.5 -26t2.5 -18q8 -8 21.5 -7t32.5 10z" />
    <glyph glyph-name="Idieresis" unicode="&#xcf;" horiz-adv-x="804" 
d="M503 135q-5 -22 2 -34.5t27 -17.5l63 -12q16 -5 23.5 -13t7.5 -20q0 -17 -13 -27.5t-37 -10.5h-542q-25 0 -34 9t-9 24t10 24.5t25 14.5l66 12q21 5 32.5 18t20.5 42t27.5 97t43.5 161t53.5 198t56 210.5t51.5 197.5t41.5 159.5t23.5 95.5q4 23 -2 35.5t-28 18.5l-64 12
q-16 6 -22.5 13.5t-6.5 19.5q0 18 13 28t38 10h538q25 0 33.5 -9t8.5 -23t-9.5 -24.5t-25.5 -14.5l-69 -14q-20 -5 -30 -16.5t-20 -41.5q-9 -29 -28 -98.5t-44.5 -165.5t-54 -204t-56 -215.5t-51 -199.5t-39 -155.5t-20.5 -83.5zM463 1500q-72 0 -104.5 40.5t-14.5 106.5
q17 68 71 108.5t126 40.5t104 -40.5t14 -108.5q-18 -66 -71 -106.5t-125 -40.5zM865 1500q-71 0 -104 40.5t-15 106.5q18 67 72 108t125 41q74 0 106.5 -40.5t14.5 -108.5q-18 -66 -72 -106.5t-127 -40.5z" />
    <glyph glyph-name="Eth" unicode="&#xd0;" horiz-adv-x="1506" 
d="M116 698q5 12 16 19.5t23 7.5h685q14 0 20 -7.5t2 -19.5q-4 -13 -14.5 -20.5t-24.5 -7.5h-685q-13 0 -19.5 7.5t-2.5 20.5zM-5 33q0 13 9 23.5t25 15.5l65 12q16 3 26.5 12t19 27t18.5 49q11 42 31 114.5t44.5 164t51 192t53 198.5t48.5 183t38 146.5t22 87.5
q6 27 -1 40.5t-30 18.5l-61 12q-16 6 -23.5 13.5t-7.5 19.5q0 17 13 27.5t37 10.5h579q144 0 258 -46.5t189 -137t101.5 -221.5t-7.5 -301q-31 -163 -107 -291.5t-189 -218t-256.5 -137t-310.5 -47.5h-594q-24 0 -32.5 9t-8.5 24zM647 77q70 0 138 34.5t129.5 109.5t113 195
t86.5 290q35 162 35.5 279t-25.5 192.5t-72 111.5t-104 36h-42q-40 0 -69 -27.5t-48 -89.5q-9 -32 -25.5 -92.5t-38 -140t-45.5 -169t-48 -179.5t-45 -171t-36 -143t-22 -96q-16 -72 2 -106t68 -34h48z" />
    <glyph glyph-name="Ntilde" unicode="&#xd1;" horiz-adv-x="1361" 
d="M264 283l215 835l-67 -7q39 -106 78.5 -213.5t78 -212l73.5 -199.5t63.5 -175.5t48.5 -139.5q13 -28 18.5 -52.5t3.5 -56.5q-1 -30 13.5 -46t41.5 -16h309q29 0 39 20.5t-2 48.5l-56 173q-11 27 -11 46.5t7 48.5l130 564q15 58 37 100t57 76t85 67q74 48 107 92.5
t33 98.5q1 52 -32 82t-88 30q-70 0 -123.5 -55.5t-81.5 -168.5l-229 -963l77 39q-31 83 -61 162.5t-61 158.5t-62.5 160.5t-64.5 168.5t-67 181t-70 200q-18 38 -39 54t-59 16h-265q-24 0 -35.5 -11.5t-10.5 -29t14 -33.5l56 -141q16 -23 20.5 -53.5t-4.5 -63.5l-199 -776
q-23 -92 -68 -143.5t-96 -66.5l-32 -10q-33 -13 -33 -39q0 -15 10 -24t33 -9h361q19 0 30.5 8.5t11.5 25.5q0 13 -7.5 21.5t-20.5 13.5l-30 8q-62 20 -79.5 71t3.5 135zM1083 1507q-43 0 -75.5 15.5t-58.5 36t-50 35.5t-52 15q-63 0 -95 -86q-12 -24 -35 -24q-30 0 -18 39
q31 120 89 182.5t142 62.5q43 0 75.5 -15.5t58.5 -36t50.5 -36t51.5 -15.5q64 0 95 86q12 24 35 24q30 0 18 -39q-31 -120 -89 -182t-142 -62z" />
    <glyph glyph-name="Ograve" unicode="&#xd2;" 
d="M989 1425q138 -1 244.5 -55t173.5 -152t86.5 -233t-17.5 -300q-39 -174 -122.5 -307t-199.5 -223t-253.5 -135t-284.5 -43q-144 1 -252.5 54t-173.5 152t-79.5 239.5t30.5 316.5q37 148 114.5 273.5t187.5 218.5t248 144.5t298 49.5zM640 51q54 -1 111 27.5t113.5 101.5
t111 201t102.5 325q32 129 46 226t14 167q0 88 -21.5 143t-58.5 82t-86 28q-56 3 -114 -29t-114 -105.5t-108 -196.5t-97 -303q-36 -145 -52.5 -249t-17.5 -176q0 -130 46.5 -185t124.5 -57zM1012 1733l73 -194q4 -10 3.5 -20t-9.5 -18t-21.5 -8.5t-21.5 2.5l-186 83
q-52 21 -83.5 52.5t-22.5 88.5q5 39 41.5 77.5t89.5 44.5q52 7 84.5 -22.5t52.5 -85.5z" />
    <glyph glyph-name="Oacute" unicode="&#xd3;" 
d="M989 1425q138 -1 244.5 -55t173.5 -152t86.5 -233t-17.5 -300q-39 -174 -122.5 -307t-199.5 -223t-253.5 -135t-284.5 -43q-144 1 -252.5 54t-173.5 152t-79.5 239.5t30.5 316.5q37 148 114.5 273.5t187.5 218.5t248 144.5t298 49.5zM640 51q54 -1 111 27.5t113.5 101.5
t111 201t102.5 325q32 129 46 226t14 167q0 88 -21.5 143t-58.5 82t-86 28q-56 3 -114 -29t-114 -105.5t-108 -196.5t-97 -303q-36 -145 -52.5 -249t-17.5 -176q0 -130 46.5 -185t124.5 -57zM1181 1737q50 56 98 85.5t96 22.5q49 -6 65.5 -44.5t-0.5 -77.5
q-20 -57 -68 -88.5t-112 -52.5l-228 -83q-11 -3 -23 -2.5t-17 8.5q-4 8 1.5 18t14.5 20z" />
    <glyph glyph-name="Ocircumflex" unicode="&#xd4;" 
d="M989 1425q138 -1 244.5 -55t173.5 -152t86.5 -233t-17.5 -300q-39 -174 -122.5 -307t-199.5 -223t-253.5 -135t-284.5 -43q-144 1 -252.5 54t-173.5 152t-79.5 239.5t30.5 316.5q37 148 114.5 273.5t187.5 218.5t248 144.5t298 49.5zM640 51q54 -1 111 27.5t113.5 101.5
t111 201t102.5 325q32 129 46 226t14 167q0 88 -21.5 143t-58.5 82t-86 28q-56 3 -114 -29t-114 -105.5t-108 -196.5t-97 -303q-36 -145 -52.5 -249t-17.5 -176q0 -130 46.5 -185t124.5 -57zM1110 1660h-154l282 -156q29 -19 52 -3q9 6 13.5 18t-5.5 26l-163 243
q-12 19 -24 29.5t-34 10.5t-39.5 -10.5t-41.5 -29.5l-287 -243q-17 -14 -19.5 -26t2.5 -18q8 -8 21.5 -7t32.5 10z" />
    <glyph glyph-name="Otilde" unicode="&#xd5;" 
d="M989 1425q138 -1 244.5 -55t173.5 -152t86.5 -233t-17.5 -300q-39 -174 -122.5 -307t-199.5 -223t-253.5 -135t-284.5 -43q-144 1 -252.5 54t-173.5 152t-79.5 239.5t30.5 316.5q37 148 114.5 273.5t187.5 218.5t248 144.5t298 49.5zM640 51q54 -1 111 27.5t113.5 101.5
t111 201t102.5 325q32 129 46 226t14 167q0 88 -21.5 143t-58.5 82t-86 28q-56 3 -114 -29t-114 -105.5t-108 -196.5t-97 -303q-36 -145 -52.5 -249t-17.5 -176q0 -130 46.5 -185t124.5 -57zM1113 1511q-43 0 -75.5 15.5t-58.5 36t-50 35.5t-52 15q-63 0 -95 -86
q-12 -24 -35 -24q-30 0 -18 39q31 120 89 182.5t142 62.5q43 0 75.5 -15.5t58.5 -36t50.5 -36t51.5 -15.5q64 0 95 86q12 24 35 24q30 0 18 -39q-31 -120 -89 -182t-142 -62z" />
    <glyph glyph-name="Odieresis" unicode="&#xd6;" 
d="M989 1425q138 -1 244.5 -55t173.5 -152t86.5 -233t-17.5 -300q-39 -174 -122.5 -307t-199.5 -223t-253.5 -135t-284.5 -43q-144 1 -252.5 54t-173.5 152t-79.5 239.5t30.5 316.5q37 148 114.5 273.5t187.5 218.5t248 144.5t298 49.5zM640 51q54 -1 111 27.5t113.5 101.5
t111 201t102.5 325q32 129 46 226t14 167q0 88 -21.5 143t-58.5 82t-86 28q-56 3 -114 -29t-114 -105.5t-108 -196.5t-97 -303q-36 -145 -52.5 -249t-17.5 -176q0 -130 46.5 -185t124.5 -57zM801 1500q-72 0 -104.5 40.5t-14.5 106.5q17 68 71 108.5t126 40.5t104 -40.5
t14 -108.5q-18 -66 -71 -106.5t-125 -40.5zM1203 1500q-71 0 -104 40.5t-15 106.5q18 67 72 108t125 41q74 0 106.5 -40.5t14.5 -108.5q-18 -66 -72 -106.5t-127 -40.5z" />
    <glyph glyph-name="multiply" unicode="&#xd7;" horiz-adv-x="970" 
d="M129 312q-11 14 -6.5 28.5t26.5 30.5l776 678q18 13 34.5 14t27.5 -13q13 -14 9.5 -27t-24.5 -30l-776 -678q-20 -13 -37.5 -15t-29.5 12zM793 313q-18 -13 -36 -11.5t-27 13.5l-421 678q-11 14 -6 29t24 27q38 27 61 -2l422 -680q10 -12 5.5 -27t-22.5 -27z" />
    <glyph glyph-name="Oslash" unicode="&#xd8;" 
d="M92 -86q-9 5 -9 14.5t9 20.5l1372 1515q9 10 19.5 13t19.5 -2q10 -6 10 -14.5t-9 -18.5l-1372 -1517q-9 -10 -20 -13t-20 2zM992 1425q138 -1 244.5 -55t173.5 -152t86.5 -233t-17.5 -300q-39 -174 -122.5 -307t-199.5 -223t-253.5 -135t-284.5 -43q-144 1 -252.5 54
t-173.5 152t-79.5 239.5t30.5 316.5q37 148 114 273.5t187.5 218.5t248.5 144.5t298 49.5zM643 51q54 -1 111 27.5t113.5 101.5t111 201t102.5 325q32 129 46 226t14 167q0 88 -21.5 143t-58.5 82t-86 28q-56 3 -114 -29t-114 -105.5t-108 -196.5t-97 -303
q-36 -145 -52.5 -249t-17.5 -176q0 -130 46.5 -185t124.5 -57z" />
    <glyph glyph-name="Ugrave" unicode="&#xd9;" horiz-adv-x="1369" 
d="M1079 441l184 638q30 106 8 165t-82 74l-33 7q-21 9 -29 17.5t-8 22.5q0 15 12 25t36 10h389q20 0 30 -8.5t10 -22.5q0 -17 -10 -26.5t-31 -17.5l-30 -8q-55 -19 -100 -74.5t-77 -169.5l-184 -638q-46 -163 -123 -263.5t-188 -147.5t-261 -47q-140 0 -233.5 45.5
t-140 124.5t-46.5 179q1 36 9.5 88t22 108.5t25.5 102.5l165 614q9 30 2 51.5t-27 27.5l-60 12q-16 9 -23 16.5t-6 21.5q0 13 10.5 22.5t29.5 9.5h552q41 0 41 -30q-1 -13 -9.5 -25t-27.5 -18l-65 -12q-24 -6 -36 -25.5t-25 -64.5l-161 -597q-32 -120 -46 -197.5t-15 -130.5
q-1 -109 53 -162.5t145 -53.5q113 0 205 81t148 276zM1015 1733l73 -194q4 -10 3.5 -20t-9.5 -18t-21.5 -8.5t-21.5 2.5l-186 83q-52 21 -83.5 52.5t-22.5 88.5q5 39 41.5 77.5t89.5 44.5q52 7 84.5 -22.5t52.5 -85.5z" />
    <glyph glyph-name="Uacute" unicode="&#xda;" horiz-adv-x="1369" 
d="M1079 441l184 638q30 106 8 165t-82 74l-33 7q-21 9 -29 17.5t-8 22.5q0 15 12 25t36 10h389q20 0 30 -8.5t10 -22.5q0 -17 -10 -26.5t-31 -17.5l-30 -8q-55 -19 -100 -74.5t-77 -169.5l-184 -638q-46 -163 -123 -263.5t-188 -147.5t-261 -47q-140 0 -233.5 45.5
t-140 124.5t-46.5 179q1 36 9.5 88t22 108.5t25.5 102.5l165 614q9 30 2 51.5t-27 27.5l-60 12q-16 9 -23 16.5t-6 21.5q0 13 10.5 22.5t29.5 9.5h552q41 0 41 -30q-1 -13 -9.5 -25t-27.5 -18l-65 -12q-24 -6 -36 -25.5t-25 -64.5l-161 -597q-32 -120 -46 -197.5t-15 -130.5
q-1 -109 53 -162.5t145 -53.5q113 0 205 81t148 276zM1185 1733q50 56 98 85.5t96 22.5q49 -6 65.5 -44.5t-0.5 -77.5q-20 -57 -68 -88.5t-112 -52.5l-228 -83q-11 -3 -23 -2.5t-17 8.5q-4 8 1.5 18t14.5 20z" />
    <glyph glyph-name="Ucircumflex" unicode="&#xdb;" horiz-adv-x="1369" 
d="M1079 441l184 638q30 106 8 165t-82 74l-33 7q-21 9 -29 17.5t-8 22.5q0 15 12 25t36 10h389q20 0 30 -8.5t10 -22.5q0 -17 -10 -26.5t-31 -17.5l-30 -8q-55 -19 -100 -74.5t-77 -169.5l-184 -638q-46 -163 -123 -263.5t-188 -147.5t-261 -47q-140 0 -233.5 45.5
t-140 124.5t-46.5 179q1 36 9.5 88t22 108.5t25.5 102.5l165 614q9 30 2 51.5t-27 27.5l-60 12q-16 9 -23 16.5t-6 21.5q0 13 10.5 22.5t29.5 9.5h552q41 0 41 -30q-1 -13 -9.5 -25t-27.5 -18l-65 -12q-24 -6 -36 -25.5t-25 -64.5l-161 -597q-32 -120 -46 -197.5t-15 -130.5
q-1 -109 53 -162.5t145 -53.5q113 0 205 81t148 276zM1114 1660h-154l282 -156q29 -19 52 -3q9 6 13.5 18t-5.5 26l-163 243q-12 19 -24 29.5t-34 10.5t-39.5 -10.5t-41.5 -29.5l-287 -243q-17 -14 -19.5 -26t2.5 -18q8 -8 21.5 -7t32.5 10z" />
    <glyph glyph-name="Udieresis" unicode="&#xdc;" horiz-adv-x="1369" 
d="M1079 441l184 638q30 106 8 165t-82 74l-33 7q-21 9 -29 17.5t-8 22.5q0 15 12 25t36 10h389q20 0 30 -8.5t10 -22.5q0 -17 -10 -26.5t-31 -17.5l-30 -8q-55 -19 -100 -74.5t-77 -169.5l-184 -638q-46 -163 -123 -263.5t-188 -147.5t-261 -47q-140 0 -233.5 45.5
t-140 124.5t-46.5 179q1 36 9.5 88t22 108.5t25.5 102.5l165 614q9 30 2 51.5t-27 27.5l-60 12q-16 9 -23 16.5t-6 21.5q0 13 10.5 22.5t29.5 9.5h552q41 0 41 -30q-1 -13 -9.5 -25t-27.5 -18l-65 -12q-24 -6 -36 -25.5t-25 -64.5l-161 -597q-32 -120 -46 -197.5t-15 -130.5
q-1 -109 53 -162.5t145 -53.5q113 0 205 81t148 276zM804 1500q-72 0 -104.5 40.5t-14.5 106.5q17 68 71 108.5t126 40.5t104 -40.5t14 -108.5q-18 -66 -71 -106.5t-125 -40.5zM1206 1500q-71 0 -104 40.5t-15 106.5q18 67 72 108t125 41q74 0 106.5 -40.5t14.5 -108.5
q-18 -66 -72 -106.5t-127 -40.5z" />
    <glyph glyph-name="Yacute" unicode="&#xdd;" horiz-adv-x="1201" 
d="M707 487l367 710q49 93 91.5 145.5t84.5 74.5t90 22q58 0 90 -31.5t32 -79.5q0 -61 -47.5 -104t-139.5 -75q-53 -18 -95 -41.5t-75.5 -58.5t-63.5 -90l-245 -465q-15 -29 -22.5 -50t-12.5 -39l-66 -270q-6 -22 1.5 -34.5t28.5 -17.5l60 -12q18 -6 24.5 -14t6.5 -18
q0 -19 -14 -29t-38 -10h-540q-24 0 -33 8.5t-9 24.5q0 27 35 39l64 12q26 5 37.5 20.5t19.5 40.5l74 278q8 28 5.5 56t-6.5 58q-2 18 -8.5 73.5t-15 133t-17.5 161.5t-18 160t-15.5 129.5t-10.5 67.5q-5 31 -21.5 45t-63.5 21q-16 5 -24.5 13t-8.5 21q0 17 12.5 27.5
t36.5 10.5h316q40 0 60 -17t25 -51q4 -18 11.5 -79.5t18 -148.5t22 -183t22 -184.5t19 -154.5t12.5 -90zM1080 1733q50 56 98 85.5t96 22.5q49 -6 65.5 -44.5t-0.5 -77.5q-20 -57 -68 -88.5t-112 -52.5l-228 -83q-11 -3 -23 -2.5t-17 8.5q-4 8 1.5 18t14.5 20z" />
    <glyph glyph-name="Thorn" unicode="&#xde;" horiz-adv-x="1386" 
d="M491 132q-5 -22 3.5 -33t28.5 -16l54 -13q15 -5 22.5 -12.5t6.5 -19.5q-1 -17 -13.5 -27.5t-35.5 -10.5h-539q-24 0 -33 9.5t-8 23.5q0 16 10 25.5t26 14.5l58 11q24 6 37 16.5t20 33.5q19 68 44.5 158.5t53.5 194.5t56.5 212.5t56 213.5t51.5 197t41 160q4 19 -3.5 30
t-28.5 17l-55 12q-15 6 -22 13.5t-7 19.5q1 17 14 27.5t37 10.5h538q25 0 33.5 -9t7.5 -24q0 -15 -10.5 -24.5t-27.5 -14.5l-58 -13q-24 -6 -36.5 -16t-18.5 -32q-20 -70 -46.5 -164.5t-55.5 -203t-58.5 -220.5t-56.5 -215.5t-49 -189.5t-37 -142zM1394 669
q-37 -134 -130 -226t-228 -139t-300 -47q-74 0 -135 12t-108.5 33.5t-81.5 50.5l33 57q27 -25 62 -43t73 -28t77 -10q75 -1 142.5 33.5t122 110t86.5 197.5q36 133 23.5 228t-72.5 146t-168 51h-194l21 67h253q206 0 336.5 -63.5t179 -174.5t8.5 -255z" />
    <glyph glyph-name="germandbls" unicode="&#xdf;" horiz-adv-x="1330" 
d="M-16 -211l262 951q9 23 2.5 37.5t-20.5 20.5l-72 29q-16 11 -26 19.5t-6 23.5q5 15 21.5 23t38.5 8h177l-78 -40l25 90q40 147 126.5 260t223.5 177.5t329 64.5q162 0 256 -46t125 -125.5t3 -180.5q-27 -100 -100.5 -178t-185.5 -123t-256 -50l7 20q179 0 286.5 -64.5
t143 -173.5t-0.5 -241q-27 -103 -97.5 -174.5t-176 -108.5t-240.5 -37q-116 0 -180.5 28.5t-80 95t13.5 181.5q10 40 22.5 55.5t26.5 15.5q18 0 26 -9.5t11 -23.5l10 -107q5 -80 36 -120t85 -40q43 0 80.5 23.5t70.5 82t59 162.5q31 112 13.5 199t-76.5 136.5t-155 50.5
q-23 0 -34 9t-7 28q5 14 17 24t41 22q129 26 202 113.5t110 229.5q21 80 15 138.5t-35.5 91t-80.5 32.5q-68 0 -128.5 -45t-109.5 -133.5t-85 -220.5l-284 -1057q-8 -31 -12 -53.5t-4 -40.5q0 -31 17 -48.5t34.5 -32t17.5 -35.5q0 -31 -45 -63t-116 -54t-151 -22
t-100.5 49.5t9.5 155.5z" />
    <glyph glyph-name="agrave" unicode="&#xe0;" horiz-adv-x="1131" 
d="M916 285q-21 -82 -15 -110.5t28 -28.5q17 0 34.5 12t44.5 42q15 15 23.5 18t17.5 -1q11 -5 11.5 -20t-12.5 -40q-41 -80 -123 -130t-184 -50q-76 0 -108 35t-32 97q0 21 3 48t9.5 59t15.5 69t21 78l18 -36q-39 -110 -98.5 -188.5t-136 -120t-168.5 -41.5q-119 0 -183 77
t-50 228q7 99 45.5 194t103.5 177.5t153 145.5t196.5 99t232.5 36q107 0 185 -15t120 -37.5t39 -46.5q-2 -21 -16.5 -30.5t-30 -19t-21.5 -32.5zM360 271q-8 -85 10 -118.5t48 -33.5q31 0 64 27.5t67 79t66.5 124.5t61.5 165t52 200q16 70 8 105t-44 35q-45 0 -90 -35
t-86 -95.5t-74.5 -136.5t-55 -157.5t-27.5 -159.5zM750 1276l26 -219q3 -11 2 -20.5t-12 -18.5q-10 -7 -22 -7t-22 5l-158 127q-44 31 -66.5 67t-12.5 87q7 40 45 77.5t96 41.5q59 5 87 -33t37 -107z" />
    <glyph glyph-name="aacute" unicode="&#xe1;" horiz-adv-x="1131" 
d="M916 285q-21 -82 -15 -110.5t28 -28.5q17 0 34.5 12t44.5 42q15 15 23.5 18t17.5 -1q11 -5 11.5 -20t-12.5 -40q-41 -80 -123 -130t-184 -50q-76 0 -108 35t-32 97q0 21 3 48t9.5 59t15.5 69t21 78l18 -36q-39 -110 -98.5 -188.5t-136 -120t-168.5 -41.5q-119 0 -183 77
t-50 228q7 99 45.5 194t103.5 177.5t153 145.5t196.5 99t232.5 36q107 0 185 -15t120 -37.5t39 -46.5q-2 -21 -16.5 -30.5t-30 -19t-21.5 -32.5zM360 271q-8 -85 10 -118.5t48 -33.5q31 0 64 27.5t67 79t66.5 124.5t61.5 165t52 200q16 70 8 105t-44 35q-45 0 -90 -35
t-86 -95.5t-74.5 -136.5t-55 -157.5t-27.5 -159.5zM851 1276q45 69 93.5 107t104.5 33q56 -4 74 -41.5t3 -77.5q-17 -51 -58 -87t-103 -67l-222 -127q-13 -5 -25 -5t-17 7q-7 9 -2 18.5t14 20.5z" />
    <glyph glyph-name="acircumflex" unicode="&#xe2;" horiz-adv-x="1131" 
d="M916 285q-21 -82 -15 -110.5t28 -28.5q17 0 34.5 12t44.5 42q15 15 23.5 18t17.5 -1q11 -5 11.5 -20t-12.5 -40q-41 -80 -123 -130t-184 -50q-76 0 -108 35t-32 97q0 21 3 48t9.5 59t15.5 69t21 78l18 -36q-39 -110 -98.5 -188.5t-136 -120t-168.5 -41.5q-119 0 -183 77
t-50 228q7 99 45.5 194t103.5 177.5t153 145.5t196.5 99t232.5 36q107 0 185 -15t120 -37.5t39 -46.5q-2 -21 -16.5 -30.5t-30 -19t-21.5 -32.5zM360 271q-8 -85 10 -118.5t48 -33.5q31 0 64 27.5t67 79t66.5 124.5t61.5 165t52 200q16 70 8 105t-44 35q-45 0 -90 -35
t-86 -95.5t-74.5 -136.5t-55 -157.5t-27.5 -159.5zM833 1216h-157l274 -206q12 -10 26.5 -10t25.5 7q10 7 14 19t-5 26l-154 287q-11 20 -24 30.5t-36 10.5t-41 -10.5t-41 -30.5l-301 -287q-16 -14 -19.5 -26t2.5 -19q8 -7 22.5 -7t32.5 10z" />
    <glyph glyph-name="atilde" unicode="&#xe3;" horiz-adv-x="1131" 
d="M916 285q-21 -82 -15 -110.5t28 -28.5q17 0 34.5 12t44.5 42q15 15 23.5 18t17.5 -1q11 -5 11.5 -20t-12.5 -40q-41 -80 -123 -130t-184 -50q-76 0 -108 35t-32 97q0 21 3 48t9.5 59t15.5 69t21 78l18 -36q-39 -110 -98.5 -188.5t-136 -120t-168.5 -41.5q-119 0 -183 77
t-50 228q7 99 45.5 194t103.5 177.5t153 145.5t196.5 99t232.5 36q107 0 185 -15t120 -37.5t39 -46.5q-2 -21 -16.5 -30.5t-30 -19t-21.5 -32.5zM360 271q-8 -85 10 -118.5t48 -33.5q31 0 64 27.5t67 79t66.5 124.5t61.5 165t52 200q16 70 8 105t-44 35q-45 0 -90 -35
t-86 -95.5t-74.5 -136.5t-55 -157.5t-27.5 -159.5zM819 1022q-44 0 -75.5 19t-57 43.5t-49 43.5t-51.5 19q-33 0 -57 -26t-43 -79q-13 -25 -36 -25q-31 0 -19 40q34 131 93.5 198.5t145.5 67.5q44 0 76 -19t56.5 -43.5t48.5 -43t52 -18.5q34 0 58 26t43 79q12 24 36 24
q29 0 18 -39q-34 -131 -94 -199t-145 -68z" />
    <glyph glyph-name="adieresis" unicode="&#xe4;" horiz-adv-x="1131" 
d="M916 285q-21 -82 -15 -110.5t28 -28.5q17 0 34.5 12t44.5 42q15 15 23.5 18t17.5 -1q11 -5 11.5 -20t-12.5 -40q-41 -80 -123 -130t-184 -50q-76 0 -108 35t-32 97q0 21 3 48t9.5 59t15.5 69t21 78l18 -36q-39 -110 -98.5 -188.5t-136 -120t-168.5 -41.5q-119 0 -183 77
t-50 228q7 99 45.5 194t103.5 177.5t153 145.5t196.5 99t232.5 36q107 0 185 -15t120 -37.5t39 -46.5q-2 -21 -16.5 -30.5t-30 -19t-21.5 -32.5zM360 271q-8 -85 10 -118.5t48 -33.5q31 0 64 27.5t67 79t66.5 124.5t61.5 165t52 200q16 70 8 105t-44 35q-45 0 -90 -35
t-86 -95.5t-74.5 -136.5t-55 -157.5t-27.5 -159.5zM507 1016q-70 0 -102 41t-14 108q18 69 71 110t123 41q71 0 102.5 -41t13.5 -110q-18 -67 -71 -108t-123 -41zM904 1016q-70 0 -102 41t-14 108q18 68 71.5 109.5t123.5 41.5q72 0 103.5 -41t13.5 -110q-18 -67 -71 -108
t-125 -41z" />
    <glyph glyph-name="aring" unicode="&#xe5;" horiz-adv-x="1131" 
d="M916 285q-21 -82 -15 -110.5t28 -28.5q17 0 34.5 12t44.5 42q15 15 23.5 18t17.5 -1q11 -5 11.5 -20t-12.5 -40q-41 -80 -123 -130t-184 -50q-76 0 -108 35t-32 97q0 21 3 48t9.5 59t15.5 69t21 78l18 -36q-39 -110 -98.5 -188.5t-136 -120t-168.5 -41.5q-119 0 -183 77
t-50 228q7 99 45.5 194t103.5 177.5t153 145.5t196.5 99t232.5 36q107 0 185 -15t120 -37.5t39 -46.5q-2 -21 -16.5 -30.5t-30 -19t-21.5 -32.5zM360 271q-8 -85 10 -118.5t48 -33.5q31 0 64 27.5t67 79t66.5 124.5t61.5 165t52 200q16 70 8 105t-44 35q-45 0 -90 -35
t-86 -95.5t-74.5 -136.5t-55 -157.5t-27.5 -159.5zM713 1004q-96 0 -149 49.5t-29 140.5q24 90 103 139.5t175 49.5q98 0 150 -51t29 -138q-23 -88 -101.5 -139t-177.5 -51zM798 1326q-36 0 -67.5 -32.5t-48.5 -99.5q-16 -66 -1.5 -99.5t49.5 -33.5q37 0 68 34t47 99
q17 66 3 99t-50 33z" />
    <glyph glyph-name="ae" unicode="&#xe6;" horiz-adv-x="1544" 
d="M617 377q11 116 58.5 218t125 179t177 120.5t214.5 43.5q99 0 163 -37t95.5 -99t34.5 -137q1 -16 8 -28t22 -16q11 -2 17 -8t6 -17q0 -12 -10.5 -23.5t-37.5 -18.5q-33 -9 -96 -25t-141.5 -35t-158.5 -38.5t-147 -35.5t-108.5 -26l-41.5 -10l-7 64l32.5 7.5t85 19.5
t112 26.5t115 28.5t92.5 26l-32 -33q13 37 21 87.5t9 115.5q1 62 -17.5 98.5t-52.5 36.5t-68.5 -28t-64.5 -80.5t-52 -125t-32 -162.5q-15 -149 33.5 -226.5t159.5 -77.5q81 0 148 45t118 130q16 20 27 27.5t24 5.5q15 0 23.5 -14.5t-0.5 -42.5q-35 -99 -103.5 -174.5
t-169.5 -118t-236 -42.5q-125 0 -206.5 47.5t-116.5 137t-22 215.5zM194 697q20 62 81 116.5t160.5 88t230.5 33.5q109 0 176 -38t93 -109.5t9 -170.5l-294 -88l52 191q13 48 7.5 83t-25.5 53.5t-51 18.5q-44 0 -77.5 -25.5t-46.5 -69.5l-20 -70q-20 -65 -74.5 -105.5
t-132.5 -40.5q-55 0 -81.5 34t-6.5 99zM24 201q19 81 96 143t215.5 107t343.5 77l15 -52q-106 -18 -173.5 -49.5t-103 -75t-46.5 -97.5q-12 -60 11.5 -99t74.5 -39q41 0 81 16t78 47t71 75l10 -46q-52 -72 -124 -123.5t-157 -79.5t-177 -28q-81 0 -134.5 30t-75 80.5
t-5.5 113.5z" />
    <glyph glyph-name="ccedilla" unicode="&#xe7;" horiz-adv-x="957" 
d="M612 859q-42 0 -87 -41.5t-80.5 -119t-51.5 -186.5q-26 -180 21 -265t150 -85q45 0 86.5 17.5t77.5 53.5t65 89q18 22 29 32.5t26 9.5q16 -1 23.5 -17.5t-1.5 -45.5q-25 -72 -68 -132t-103.5 -103t-137.5 -66.5t-170 -23.5q-189 0 -281 118t-60 330q16 107 65 200.5
t126 164t177 110t216 39.5q108 0 178.5 -34.5t103.5 -91t27 -122.5q-5 -71 -52 -107.5t-102 -36.5t-86.5 29t-29.5 76q1 36 8 60.5t8 62.5q0 36 -19 60.5t-58 24.5zM426 9h56l-118 -138l-31 11q18 2 38 3.5t52 1.5q100 0 142.5 -41t24.5 -110q-20 -75 -90.5 -120t-176.5 -45
q-86 0 -132 29t-48 68q2 13 11.5 21t19.5 9q11 2 18 -2.5t12 -10.5q14 -27 37 -40t54 -13q80 0 107 108q12 46 -5 71.5t-63 25.5h-21q-16 0 -17.5 10t10.5 23z" />
    <glyph glyph-name="egrave" unicode="&#xe8;" horiz-adv-x="992" 
d="M207 419l34 10.5t89 27.5t117 36.5t120.5 37.5t98.5 30l-31 -32q12 36 20.5 86.5t8.5 115.5q1 59 -17.5 94.5t-52.5 35.5t-68 -27.5t-64 -79.5t-52.5 -125t-32.5 -163q-16 -149 33.5 -227.5t160.5 -78.5q54 0 102 20.5t89.5 59.5t73.5 96q16 20 27 27t24 6q16 -1 24 -15
t0 -43q-33 -96 -101 -172t-170 -119t-238 -43q-130 0 -214.5 48t-120.5 138.5t-23 217.5q13 116 61.5 217t127 177.5t180 119.5t218.5 43q99 0 162.5 -35t95 -93.5t34.5 -129.5q2 -16 8.5 -28t22.5 -16q11 -2 16.5 -7.5t5.5 -15.5q0 -13 -10 -24.5t-39 -19.5q-33 -9 -97 -28
t-144.5 -43t-163 -48.5t-152 -45.5t-112 -34l-42.5 -13zM623 1276l26 -219q3 -11 2 -20.5t-12 -18.5q-10 -7 -22 -7t-22 5l-158 127q-44 31 -66.5 67t-12.5 87q7 40 45 77.5t96 41.5q59 5 87 -33t37 -107z" />
    <glyph glyph-name="eacute" unicode="&#xe9;" horiz-adv-x="992" 
d="M207 419l34 10.5t89 27.5t117 36.5t120.5 37.5t98.5 30l-31 -32q12 36 20.5 86.5t8.5 115.5q1 59 -17.5 94.5t-52.5 35.5t-68 -27.5t-64 -79.5t-52.5 -125t-32.5 -163q-16 -149 33.5 -227.5t160.5 -78.5q54 0 102 20.5t89.5 59.5t73.5 96q16 20 27 27t24 6q16 -1 24 -15
t0 -43q-33 -96 -101 -172t-170 -119t-238 -43q-130 0 -214.5 48t-120.5 138.5t-23 217.5q13 116 61.5 217t127 177.5t180 119.5t218.5 43q99 0 162.5 -35t95 -93.5t34.5 -129.5q2 -16 8.5 -28t22.5 -16q11 -2 16.5 -7.5t5.5 -15.5q0 -13 -10 -24.5t-39 -19.5q-33 -9 -97 -28
t-144.5 -43t-163 -48.5t-152 -45.5t-112 -34l-42.5 -13zM725 1276q45 69 93.5 107t104.5 33q56 -4 74 -41.5t3 -77.5q-17 -51 -58 -87t-103 -67l-222 -127q-13 -5 -25 -5t-17 7q-7 9 -2 18.5t14 20.5z" />
    <glyph glyph-name="ecircumflex" unicode="&#xea;" horiz-adv-x="992" 
d="M207 419l34 10.5t89 27.5t117 36.5t120.5 37.5t98.5 30l-31 -32q12 36 20.5 86.5t8.5 115.5q1 59 -17.5 94.5t-52.5 35.5t-68 -27.5t-64 -79.5t-52.5 -125t-32.5 -163q-16 -149 33.5 -227.5t160.5 -78.5q54 0 102 20.5t89.5 59.5t73.5 96q16 20 27 27t24 6q16 -1 24 -15
t0 -43q-33 -96 -101 -172t-170 -119t-238 -43q-130 0 -214.5 48t-120.5 138.5t-23 217.5q13 116 61.5 217t127 177.5t180 119.5t218.5 43q99 0 162.5 -35t95 -93.5t34.5 -129.5q2 -16 8.5 -28t22.5 -16q11 -2 16.5 -7.5t5.5 -15.5q0 -13 -10 -24.5t-39 -19.5q-33 -9 -97 -28
t-144.5 -43t-163 -48.5t-152 -45.5t-112 -34l-42.5 -13zM707 1216h-157l274 -206q12 -10 26.5 -10t25.5 7q10 7 14 19t-5 26l-154 287q-11 20 -24 30.5t-36 10.5t-41 -10.5t-41 -30.5l-301 -287q-16 -14 -19.5 -26t2.5 -19q8 -7 22.5 -7t32.5 10z" />
    <glyph glyph-name="edieresis" unicode="&#xeb;" horiz-adv-x="992" 
d="M207 419l34 10.5t89 27.5t117 36.5t120.5 37.5t98.5 30l-31 -32q12 36 20.5 86.5t8.5 115.5q1 59 -17.5 94.5t-52.5 35.5t-68 -27.5t-64 -79.5t-52.5 -125t-32.5 -163q-16 -149 33.5 -227.5t160.5 -78.5q54 0 102 20.5t89.5 59.5t73.5 96q16 20 27 27t24 6q16 -1 24 -15
t0 -43q-33 -96 -101 -172t-170 -119t-238 -43q-130 0 -214.5 48t-120.5 138.5t-23 217.5q13 116 61.5 217t127 177.5t180 119.5t218.5 43q99 0 162.5 -35t95 -93.5t34.5 -129.5q2 -16 8.5 -28t22.5 -16q11 -2 16.5 -7.5t5.5 -15.5q0 -13 -10 -24.5t-39 -19.5q-33 -9 -97 -28
t-144.5 -43t-163 -48.5t-152 -45.5t-112 -34l-42.5 -13zM380 1016q-70 0 -102 41t-14 108q18 69 71 110t123 41q71 0 102.5 -41t13.5 -110q-18 -67 -71 -108t-123 -41zM777 1016q-70 0 -102 41t-14 108q18 68 71.5 109.5t123.5 41.5q72 0 103.5 -41t13.5 -110
q-18 -67 -71 -108t-125 -41z" />
    <glyph glyph-name="igrave" unicode="&#xec;" horiz-adv-x="646" 
d="M437 149q-26 0 -32 29t21 106l128 387q33 87 26 146t-47 89.5t-109 30.5q-99 0 -188.5 -58.5t-145.5 -147.5q-13 -17 -13 -31.5t10 -20.5q8 -3 17.5 -1t22.5 11q35 37 57 51.5t39 14.5q27 0 30.5 -29t-23.5 -103l-133 -396q-29 -79 -26.5 -134.5t41 -85t117.5 -29.5
q117 0 200.5 51.5t124.5 131.5q13 23 13 38.5t-10 20.5q-8 4 -15.5 2t-19.5 -13q-29 -34 -48 -47t-37 -13zM465 1276l26 -219q3 -11 2 -20.5t-12 -18.5q-10 -7 -22 -7t-22 5l-158 127q-44 31 -66.5 67t-12.5 87q7 40 45 77.5t96 41.5q59 5 87 -33t37 -107z" />
    <glyph glyph-name="iacute" unicode="&#xed;" horiz-adv-x="646" 
d="M437 149q-26 0 -32 29t21 106l128 387q33 87 26 146t-47 89.5t-109 30.5q-99 0 -188.5 -58.5t-145.5 -147.5q-13 -17 -13 -31.5t10 -20.5q8 -3 17.5 -1t22.5 11q35 37 57 51.5t39 14.5q27 0 30.5 -29t-23.5 -103l-133 -396q-29 -79 -26.5 -134.5t41 -85t117.5 -29.5
q117 0 200.5 51.5t124.5 131.5q13 23 13 38.5t-10 20.5q-8 4 -15.5 2t-19.5 -13q-29 -34 -48 -47t-37 -13zM566 1276q45 69 93.5 107t104.5 33q56 -4 74 -41.5t3 -77.5q-17 -51 -58 -87t-103 -67l-222 -127q-13 -5 -25 -5t-17 7q-7 9 -2 18.5t14 20.5z" />
    <glyph glyph-name="icircumflex" unicode="&#xee;" horiz-adv-x="646" 
d="M437 149q-26 0 -32 29t21 106l128 387q33 87 26 146t-47 89.5t-109 30.5q-99 0 -188.5 -58.5t-145.5 -147.5q-13 -17 -13 -31.5t10 -20.5q8 -3 17.5 -1t22.5 11q35 37 57 51.5t39 14.5q27 0 30.5 -29t-23.5 -103l-133 -396q-29 -79 -26.5 -134.5t41 -85t117.5 -29.5
q117 0 200.5 51.5t124.5 131.5q13 23 13 38.5t-10 20.5q-8 4 -15.5 2t-19.5 -13q-29 -34 -48 -47t-37 -13zM544.388 1218h-133.446l232.894 -206q10.1992 -10 22.5244 -10q12.3242 0 21.6738 7q8.5 7 11.9004 19q3.39941 12 -4.25 26l-130.896 287
q-9.34961 20 -20.3994 30.5t-30.5986 10.5q-19.5498 0 -34.8496 -10.5t-34.8486 -30.5l-255.843 -287q-13.5996 -14 -16.5742 -26q-2.97559 -12 2.125 -19q6.79883 -7 19.124 -7q12.3242 0 27.624 10z" />
    <glyph glyph-name="idieresis" unicode="&#xef;" horiz-adv-x="646" 
d="M437 149q-26 0 -32 29t21 106l128 387q33 87 26 146t-47 89.5t-109 30.5q-99 0 -188.5 -58.5t-145.5 -147.5q-13 -17 -13 -31.5t10 -20.5q8 -3 17.5 -1t22.5 11q35 37 57 51.5t39 14.5q27 0 30.5 -29t-23.5 -103l-133 -396q-29 -79 -26.5 -134.5t41 -85t117.5 -29.5
q117 0 200.5 51.5t124.5 131.5q13 23 13 38.5t-10 20.5q-8 4 -15.5 2t-19.5 -13q-29 -34 -48 -47t-37 -13zM284.598 1016q-55.999 0 -81.5986 41t-11.2002 108q14.3994 69 56.7988 110t98.3984 41q56.7998 0 81.999 -41q25.2002 -41 10.7998 -110
q-14.3994 -67 -56.7988 -108t-98.3984 -41zM602.192 1016q-55.999 0 -81.5986 41t-11.2002 108q14.4004 68 57.1992 109.5q42.7998 41.5 98.7988 41.5q57.5986 0 82.7988 -41q25.1992 -41 10.7998 -110q-14.3994 -67 -56.7988 -108t-99.999 -41z" />
    <glyph glyph-name="eth" unicode="&#xf0;" horiz-adv-x="1083" 
d="M1041 508q-50 -183 -143.5 -301t-217.5 -174.5t-263 -55.5q-146 0 -239.5 71t-125 194.5t10.5 280.5q25 92 77.5 169t124 134t155.5 88t172 31q96 -1 144.5 -48t44.5 -142l-25 -5q14 144 6 261.5t-36 206t-75 148t-111 85.5q-20 10 -26 19.5t-2 21.5q4 13 20.5 20.5
t43.5 3.5q138 -24 247 -111t176 -222.5t80.5 -307t-38.5 -367.5zM444 56q30 -1 62 33t64 92.5t59.5 133.5t48.5 158t30 164q13 76 7 124t-28 71.5t-57 24.5t-69.5 -34.5t-67 -96.5t-60 -137t-46.5 -157.5t-28 -157.5q-11 -74 -4 -122t30.5 -71.5t58.5 -24.5zM1148 1399
l-708 -295q-15 -6 -24 -2.5t-12 14.5q-5 24 26 36l708 296q18 7 27 3t11 -15q3 -11 -3.5 -20.5t-24.5 -16.5z" />
    <glyph glyph-name="ntilde" unicode="&#xf1;" horiz-adv-x="1196" 
d="M88 679q-10 5 -10 19.5t11 35.5q51 90 141.5 145t198.5 55q67 0 102.5 -28t35.5 -82q0 -34 -13 -77t-31.5 -90t-37 -95.5t-29.5 -92.5l-16 11q55 129 121.5 216.5t137 139.5t139 75t127.5 23q80 0 119 -34.5t42.5 -97.5t-24.5 -149l-120 -371q-26 -78 -19 -106t30 -28
q16 0 34 12t45 42q15 14 23.5 17.5t17.5 -0.5q11 -5 11.5 -20.5t-12.5 -40.5q-41 -80 -125 -130.5t-204 -50.5q-78 0 -115.5 29.5t-39.5 85.5t24 135l118 362q29 82 21 115.5t-50 33.5q-28 0 -64.5 -21t-75.5 -63.5t-76.5 -107.5t-68.5 -153q-18 -52 -30.5 -93t-18 -71
t-5.5 -50q0 -27 9.5 -46t9.5 -45q0 -50 -69 -80.5t-194 -30.5q-84 0 -101.5 45.5t13.5 135.5l155 466q25 71 19 99t-29 28q-15 0 -34.5 -11.5t-51.5 -45.5q-14 -12 -23 -15t-18 0zM816 1022q-44 0 -75.5 19t-57 43.5t-49 43.5t-51.5 19q-33 0 -57 -26t-43 -79
q-13 -25 -36 -25q-31 0 -19 40q34 131 93.5 198.5t145.5 67.5q44 0 76 -19t56.5 -43.5t48.5 -43t52 -18.5q34 0 58 26t43 79q12 24 36 24q29 0 18 -39q-34 -131 -94 -199t-145 -68z" />
    <glyph glyph-name="ograve" unicode="&#xf2;" horiz-adv-x="1080" 
d="M629 938q141 -1 239.5 -58t143 -160.5t21.5 -244.5q-17 -109 -65 -201t-124 -158.5t-175.5 -103t-219.5 -35.5q-138 0 -236 56.5t-142.5 160t-23.5 244.5q18 112 67 204.5t125 159t174.5 102t215.5 34.5zM443 60q32 -2 63.5 25.5t62 78t56.5 116t46.5 141t31.5 152.5
q18 93 15 154t-23 92t-56 36q-32 3 -64 -24.5t-62.5 -78t-57 -116.5t-46.5 -142t-31 -154q-18 -93 -15 -154t24 -91.5t56 -34.5zM694 1276l26 -219q3 -11 2 -20.5t-12 -18.5q-10 -7 -22 -7t-22 5l-158 127q-44 31 -66.5 67t-12.5 87q7 40 45 77.5t96 41.5q59 5 87 -33
t37 -107z" />
    <glyph glyph-name="oacute" unicode="&#xf3;" horiz-adv-x="1080" 
d="M629 938q141 -1 239.5 -58t143 -160.5t21.5 -244.5q-17 -109 -65 -201t-124 -158.5t-175.5 -103t-219.5 -35.5q-138 0 -236 56.5t-142.5 160t-23.5 244.5q18 112 67 204.5t125 159t174.5 102t215.5 34.5zM443 60q32 -2 63.5 25.5t62 78t56.5 116t46.5 141t31.5 152.5
q18 93 15 154t-23 92t-56 36q-32 3 -64 -24.5t-62.5 -78t-57 -116.5t-46.5 -142t-31 -154q-18 -93 -15 -154t24 -91.5t56 -34.5zM795 1276q45 69 93.5 107t104.5 33q56 -4 74 -41.5t3 -77.5q-17 -51 -58 -87t-103 -67l-222 -127q-13 -5 -25 -5t-17 7q-7 9 -2 18.5t14 20.5z
" />
    <glyph glyph-name="ocircumflex" unicode="&#xf4;" horiz-adv-x="1080" 
d="M629 938q141 -1 239.5 -58t143 -160.5t21.5 -244.5q-17 -109 -65 -201t-124 -158.5t-175.5 -103t-219.5 -35.5q-138 0 -236 56.5t-142.5 160t-23.5 244.5q18 112 67 204.5t125 159t174.5 102t215.5 34.5zM443 60q32 -2 63.5 25.5t62 78t56.5 116t46.5 141t31.5 152.5
q18 93 15 154t-23 92t-56 36q-32 3 -64 -24.5t-62.5 -78t-57 -116.5t-46.5 -142t-31 -154q-18 -93 -15 -154t24 -91.5t56 -34.5zM777 1216h-157l274 -206q12 -10 26.5 -10t25.5 7q10 7 14 19t-5 26l-154 287q-11 20 -24 30.5t-36 10.5t-41 -10.5t-41 -30.5l-301 -287
q-16 -14 -19.5 -26t2.5 -19q8 -7 22.5 -7t32.5 10z" />
    <glyph glyph-name="otilde" unicode="&#xf5;" horiz-adv-x="1080" 
d="M629 938q141 -1 239.5 -58t143 -160.5t21.5 -244.5q-17 -109 -65 -201t-124 -158.5t-175.5 -103t-219.5 -35.5q-138 0 -236 56.5t-142.5 160t-23.5 244.5q18 112 67 204.5t125 159t174.5 102t215.5 34.5zM443 60q32 -2 63.5 25.5t62 78t56.5 116t46.5 141t31.5 152.5
q18 93 15 154t-23 92t-56 36q-32 3 -64 -24.5t-62.5 -78t-57 -116.5t-46.5 -142t-31 -154q-18 -93 -15 -154t24 -91.5t56 -34.5zM763 1022q-44 0 -75.5 19t-57 43.5t-49 43.5t-51.5 19q-33 0 -57 -26t-43 -79q-13 -25 -36 -25q-31 0 -19 40q34 131 93.5 198.5t145.5 67.5
q44 0 76 -19t56.5 -43.5t48.5 -43t52 -18.5q34 0 58 26t43 79q12 24 36 24q29 0 18 -39q-34 -131 -94 -199t-145 -68z" />
    <glyph glyph-name="odieresis" unicode="&#xf6;" horiz-adv-x="1080" 
d="M629 938q141 -1 239.5 -58t143 -160.5t21.5 -244.5q-17 -109 -65 -201t-124 -158.5t-175.5 -103t-219.5 -35.5q-138 0 -236 56.5t-142.5 160t-23.5 244.5q18 112 67 204.5t125 159t174.5 102t215.5 34.5zM443 60q32 -2 63.5 25.5t62 78t56.5 116t46.5 141t31.5 152.5
q18 93 15 154t-23 92t-56 36q-32 3 -64 -24.5t-62.5 -78t-57 -116.5t-46.5 -142t-31 -154q-18 -93 -15 -154t24 -91.5t56 -34.5zM452 1016q-70 0 -102 41t-14 108q18 69 71 110t123 41q71 0 102.5 -41t13.5 -110q-18 -67 -71 -108t-123 -41zM849 1016q-70 0 -102 41t-14 108
q18 68 71.5 109.5t123.5 41.5q72 0 103.5 -41t13.5 -110q-18 -67 -71 -108t-125 -41z" />
    <glyph glyph-name="divide" unicode="&#xf7;" horiz-adv-x="1029" 
d="M685.063 984.485q-47.5137 0 -73.0752 21.8594q-25.5605 21.8594 -24.3584 55.6172q0.601562 29.3311 19.2461 54.2344q18.6455 24.9033 52.0254 39.8447q33.3799 14.9424 77.8857 14.9424q48.7168 0 72.4736 -22.9668q23.7568 -22.9658 23.1553 -57.2773
q-0.600586 -27.1172 -18.3438 -51.7432q-17.7422 -24.627 -50.5205 -39.5684q-32.7783 -14.9424 -78.4883 -14.9424zM165 682q5 19 20.5 30t32.5 11h740q16 0 24.5 -11t3.5 -30q-6 -20 -23 -30.5t-35 -10.5h-729q-20 0 -30 10.5t-4 30.5zM487.063 234.485
q-47.5137 0 -73.0752 21.8594q-25.5605 21.8594 -24.3584 55.6172q0.601562 29.3311 19.2461 54.2344q18.6455 24.9033 52.0254 39.8447q33.3799 14.9424 77.8857 14.9424q48.7168 0 72.4736 -22.9668q23.7568 -22.9658 23.1553 -57.2773
q-0.600586 -27.1172 -18.3438 -51.7432q-17.7422 -24.627 -50.5205 -39.5684q-32.7783 -14.9424 -78.4883 -14.9424z" />
    <glyph glyph-name="oslash" unicode="&#xf8;" horiz-adv-x="1079" 
d="M33 -76q-9 5 -9 14t8 18l255 263l33 25l466 486l21 28l222 227q9 10 19 12.5t19 -2.5q9 -4 10 -13t-7 -18l-244 -250l-25 -18l-461 -480l-26 -34l-243 -248q-9 -11 -19 -13t-19 3zM629 938q141 -1 239.5 -58t143 -160.5t21.5 -244.5q-17 -109 -65 -201t-124 -158.5
t-175.5 -103t-219.5 -35.5q-138 0 -236 56.5t-142.5 160t-23.5 244.5q18 112 67 204.5t125 159t174.5 102t215.5 34.5zM443 60q32 -2 63.5 25.5t62 78t56.5 116t46.5 141t31.5 152.5q18 93 15 154t-23 92t-56 36q-32 3 -64 -24.5t-62.5 -78t-57 -116.5t-46.5 -142t-31 -154
q-18 -93 -15 -154t24 -91.5t56 -34.5z" />
    <glyph glyph-name="ugrave" unicode="&#xf9;" horiz-adv-x="1193" 
d="M1111 232q11 -5 11 -19.5t-12 -36.5q-51 -89 -141.5 -144t-198.5 -55q-67 0 -102.5 28t-35.5 82q0 34 13 76.5t31.5 90t37.5 96t29 92.5l16 -11q-54 -129 -120.5 -216.5t-137 -140t-139 -75t-127.5 -22.5q-78 0 -117.5 34.5t-43 97.5t24.5 149l120 371q26 78 19 106
t-30 28q-16 0 -34 -11.5t-45 -42.5q-15 -14 -23.5 -17t-17.5 0q-11 5 -11.5 20t12.5 40q41 81 125.5 131.5t203.5 50.5q79 0 116 -29.5t39.5 -85t-24.5 -135.5l-118 -362q-28 -82 -20 -116t49 -34q28 0 63.5 21.5t74.5 64t76.5 107.5t68.5 153q19 51 31 92t18 71.5t6 50.5
q0 27 -10 46t-10 45q0 50 69 80.5t194 30.5q85 0 102 -45.5t-14 -135.5l-155 -466q-24 -71 -18.5 -99t28.5 -28q16 0 35.5 12t50.5 45q14 12 23 15t18 0zM729 1276l26 -219q3 -11 2 -20.5t-12 -18.5q-10 -7 -22 -7t-22 5l-158 127q-44 31 -66.5 67t-12.5 87q7 40 45 77.5
t96 41.5q59 5 87 -33t37 -107z" />
    <glyph glyph-name="uacute" unicode="&#xfa;" horiz-adv-x="1193" 
d="M1111 232q11 -5 11 -19.5t-12 -36.5q-51 -89 -141.5 -144t-198.5 -55q-67 0 -102.5 28t-35.5 82q0 34 13 76.5t31.5 90t37.5 96t29 92.5l16 -11q-54 -129 -120.5 -216.5t-137 -140t-139 -75t-127.5 -22.5q-78 0 -117.5 34.5t-43 97.5t24.5 149l120 371q26 78 19 106
t-30 28q-16 0 -34 -11.5t-45 -42.5q-15 -14 -23.5 -17t-17.5 0q-11 5 -11.5 20t12.5 40q41 81 125.5 131.5t203.5 50.5q79 0 116 -29.5t39.5 -85t-24.5 -135.5l-118 -362q-28 -82 -20 -116t49 -34q28 0 63.5 21.5t74.5 64t76.5 107.5t68.5 153q19 51 31 92t18 71.5t6 50.5
q0 27 -10 46t-10 45q0 50 69 80.5t194 30.5q85 0 102 -45.5t-14 -135.5l-155 -466q-24 -71 -18.5 -99t28.5 -28q16 0 35.5 12t50.5 45q14 12 23 15t18 0zM830 1276q45 69 93.5 107t104.5 33q56 -4 74 -41.5t3 -77.5q-17 -51 -58 -87t-103 -67l-222 -127q-13 -5 -25 -5t-17 7
q-7 9 -2 18.5t14 20.5z" />
    <glyph glyph-name="ucircumflex" unicode="&#xfb;" horiz-adv-x="1193" 
d="M1111 232q11 -5 11 -19.5t-12 -36.5q-51 -89 -141.5 -144t-198.5 -55q-67 0 -102.5 28t-35.5 82q0 34 13 76.5t31.5 90t37.5 96t29 92.5l16 -11q-54 -129 -120.5 -216.5t-137 -140t-139 -75t-127.5 -22.5q-78 0 -117.5 34.5t-43 97.5t24.5 149l120 371q26 78 19 106
t-30 28q-16 0 -34 -11.5t-45 -42.5q-15 -14 -23.5 -17t-17.5 0q-11 5 -11.5 20t12.5 40q41 81 125.5 131.5t203.5 50.5q79 0 116 -29.5t39.5 -85t-24.5 -135.5l-118 -362q-28 -82 -20 -116t49 -34q28 0 63.5 21.5t74.5 64t76.5 107.5t68.5 153q19 51 31 92t18 71.5t6 50.5
q0 27 -10 46t-10 45q0 50 69 80.5t194 30.5q85 0 102 -45.5t-14 -135.5l-155 -466q-24 -71 -18.5 -99t28.5 -28q16 0 35.5 12t50.5 45q14 12 23 15t18 0zM812 1216h-157l274 -206q12 -10 26.5 -10t25.5 7q10 7 14 19t-5 26l-154 287q-11 20 -24 30.5t-36 10.5t-41 -10.5
t-41 -30.5l-301 -287q-16 -14 -19.5 -26t2.5 -19q8 -7 22.5 -7t32.5 10z" />
    <glyph glyph-name="udieresis" unicode="&#xfc;" horiz-adv-x="1193" 
d="M1111 232q11 -5 11 -19.5t-12 -36.5q-51 -89 -141.5 -144t-198.5 -55q-67 0 -102.5 28t-35.5 82q0 34 13 76.5t31.5 90t37.5 96t29 92.5l16 -11q-54 -129 -120.5 -216.5t-137 -140t-139 -75t-127.5 -22.5q-78 0 -117.5 34.5t-43 97.5t24.5 149l120 371q26 78 19 106
t-30 28q-16 0 -34 -11.5t-45 -42.5q-15 -14 -23.5 -17t-17.5 0q-11 5 -11.5 20t12.5 40q41 81 125.5 131.5t203.5 50.5q79 0 116 -29.5t39.5 -85t-24.5 -135.5l-118 -362q-28 -82 -20 -116t49 -34q28 0 63.5 21.5t74.5 64t76.5 107.5t68.5 153q19 51 31 92t18 71.5t6 50.5
q0 27 -10 46t-10 45q0 50 69 80.5t194 30.5q85 0 102 -45.5t-14 -135.5l-155 -466q-24 -71 -18.5 -99t28.5 -28q16 0 35.5 12t50.5 45q14 12 23 15t18 0zM486 1016q-70 0 -102 41t-14 108q18 69 71 110t123 41q71 0 102.5 -41t13.5 -110q-18 -67 -71 -108t-123 -41z
M883 1016q-70 0 -102 41t-14 108q18 68 71.5 109.5t123.5 41.5q72 0 103.5 -41t13.5 -110q-18 -67 -71 -108t-125 -41z" />
    <glyph glyph-name="yacute" unicode="&#xfd;" horiz-adv-x="1032" 
d="M717 653q48 141 107.5 211.5t136.5 70.5q55 0 86.5 -35.5t31.5 -94.5q0 -75 -47 -129.5t-125 -92.5q-38 -18 -69 -38t-57 -47.5t-48.5 -68.5t-44.5 -101l-142 -394q-54 -156 -127 -250.5t-169.5 -136.5t-220.5 -42q-135 0 -205 48t-70 126q0 55 35 94t90 39
q40 0 69 -21.5t52.5 -53.5t46 -64.5t47.5 -54t59 -21.5q27 0 51 13t41 37.5t26.5 58.5t9.5 77q0 31 -4.5 95.5t-12 149.5t-16.5 177.5t-19 182.5t-18.5 164t-15.5 119q-5 43 -16 61.5t-28 18.5q-14 0 -28.5 -13t-34.5 -45q-8 -10 -15.5 -14t-16.5 -2q-8 2 -13.5 13t1.5 33
q23 62 67 109.5t103.5 74.5t126.5 27q65 0 104.5 -41t47.5 -123q4 -40 9 -109.5t10.5 -154.5t10 -174.5t8.5 -171t6 -142.5l-29 5zM778 1276q45 69 93.5 107t104.5 33q56 -4 74 -41.5t3 -77.5q-17 -51 -58 -87t-103 -67l-222 -127q-13 -5 -25 -5t-17 7q-7 9 -2 18.5t14 20.5
z" />
    <glyph glyph-name="thorn" unicode="&#xfe;" horiz-adv-x="1107" 
d="M539 1476q97 0 133 -57t2 -178l-428 -1540q-11 -39 -9 -63t39 -31l68 -12q21 -4 29 -13t9 -20q0 -17 -14 -28t-38 -11l-500 -7q-16 0 -28 8t-12 25q0 12 9.5 23.5t34.5 21.5q32 8 48.5 17.5t25 25t15.5 41.5l419 1490q15 48 18 75t-3.5 38.5t-24.5 11.5q-17 0 -38 -13
t-55 -48q-13 -8 -22.5 -10t-17.5 1q-11 5 -10.5 19.5t12.5 31.5q37 59 91.5 105t118.5 71.5t128 25.5zM124 675q-15 -12 -32 -12t-26 10q-11 10 -4.5 27t25.5 34q66 64 148 112t185 74t231 24q140 -1 236 -59t138.5 -164t24.5 -253q-18 -148 -93 -257.5t-188 -169
t-245 -58.5q-112 1 -180 46t-94 117l59 24q23 -45 55.5 -68.5t76.5 -25.5q60 -1 116 43t100.5 136.5t69.5 239.5q21 127 10 210t-47 124.5t-88 44.5q-121 6 -241.5 -42.5t-236.5 -156.5z" />
    <glyph glyph-name="ydieresis" unicode="&#xff;" horiz-adv-x="1032" 
d="M717 653q48 141 107.5 211.5t136.5 70.5q55 0 86.5 -35.5t31.5 -94.5q0 -75 -47 -129.5t-125 -92.5q-38 -18 -69 -38t-57 -47.5t-48.5 -68.5t-44.5 -101l-142 -394q-54 -156 -127 -250.5t-169.5 -136.5t-220.5 -42q-135 0 -205 48t-70 126q0 55 35 94t90 39
q40 0 69 -21.5t52.5 -53.5t46 -64.5t47.5 -54t59 -21.5q27 0 51 13t41 37.5t26.5 58.5t9.5 77q0 31 -4.5 95.5t-12 149.5t-16.5 177.5t-19 182.5t-18.5 164t-15.5 119q-5 43 -16 61.5t-28 18.5q-14 0 -28.5 -13t-34.5 -45q-8 -10 -15.5 -14t-16.5 -2q-8 2 -13.5 13t1.5 33
q23 62 67 109.5t103.5 74.5t126.5 27q65 0 104.5 -41t47.5 -123q4 -40 9 -109.5t10.5 -154.5t10 -174.5t8.5 -171t6 -142.5l-29 5zM434 1016q-70 0 -102 41t-14 108q18 69 71 110t123 41q71 0 102.5 -41t13.5 -110q-18 -67 -71 -108t-123 -41zM831 1016q-70 0 -102 41
t-14 108q18 68 71.5 109.5t123.5 41.5q72 0 103.5 -41t13.5 -110q-18 -67 -71 -108t-125 -41z" />
    <glyph glyph-name="Amacron" unicode="&#x100;" horiz-adv-x="1294" 
d="M250 297q-52 -83 -35.5 -140t82.5 -76l35 -11q15 -6 21 -14t6 -18q0 -18 -13 -28t-35 -10h-356q-22 0 -33 8.5t-11 23.5q0 16 10.5 27.5t39.5 27.5q45 21 97.5 80t105.5 147l471 758q115 180 251 265t285 85q40 0 56 -10.5t16 -28.5q0 -12 -6 -20.5t-21 -15.5
q-48 -9 -75 -42t-29 -97q-1 -29 -2.5 -92t-3.5 -148.5t-4.5 -181.5t-4.5 -192t-4 -179.5t-3 -143.5t-1 -84q1 -34 5.5 -55t21.5 -34.5t53 -25.5q25 -14 25 -35q0 -16 -13 -26.5t-37 -10.5h-515q-22 0 -31 9.5t-9 23.5q0 15 9.5 24t27.5 16l67 12q28 8 40 32t13 59q1 31 3 92
t5.5 141.5t7 171.5t7 183t6 175.5t4.5 149t2 103.5l50 -11q-12 -7 -28.5 -21.5t-40.5 -45t-61 -86.5zM290 444l18 67h543l-5 -67h-556zM761 1625q10 37 26.5 52t42.5 15h479q26 0 34.5 -14.5t-2.5 -51.5q-9 -36 -25.5 -51t-42.5 -15h-479q-26 0 -34 15t1 50z" />
    <glyph glyph-name="amacron" unicode="&#x101;" horiz-adv-x="1131" 
d="M916 285q-21 -82 -15 -110.5t28 -28.5q17 0 34.5 12t44.5 42q15 15 23.5 18t17.5 -1q11 -5 11.5 -20t-12.5 -40q-41 -80 -123 -130t-184 -50q-76 0 -108 35t-32 97q0 21 3 48t9.5 59t15.5 69t21 78l18 -36q-39 -110 -98.5 -188.5t-136 -120t-168.5 -41.5q-119 0 -183 77
t-50 228q7 99 45.5 194t103.5 177.5t153 145.5t196.5 99t232.5 36q107 0 185 -15t120 -37.5t39 -46.5q-2 -21 -16.5 -30.5t-30 -19t-21.5 -32.5zM360 271q-8 -85 10 -118.5t48 -33.5q31 0 64 27.5t67 79t66.5 124.5t61.5 165t52 200q16 70 8 105t-44 35q-45 0 -90 -35
t-86 -95.5t-74.5 -136.5t-55 -157.5t-27.5 -159.5zM457 1144q10 37 26.5 52t43.5 15h485q26 0 34.5 -14t-2.5 -52q-9 -37 -25.5 -52.5t-43.5 -15.5h-485q-26 0 -34.5 15.5t1.5 51.5z" />
    <glyph glyph-name="Abreve" unicode="&#x102;" horiz-adv-x="1294" 
d="M250 297q-52 -83 -35.5 -140t82.5 -76l35 -11q15 -6 21 -14t6 -18q0 -18 -13 -28t-35 -10h-356q-22 0 -33 8.5t-11 23.5q0 16 10.5 27.5t39.5 27.5q45 21 97.5 80t105.5 147l471 758q115 180 251 265t285 85q40 0 56 -10.5t16 -28.5q0 -12 -6 -20.5t-21 -15.5
q-48 -9 -75 -42t-29 -97q-1 -29 -2.5 -92t-3.5 -148.5t-4.5 -181.5t-4.5 -192t-4 -179.5t-3 -143.5t-1 -84q1 -34 5.5 -55t21.5 -34.5t53 -25.5q25 -14 25 -35q0 -16 -13 -26.5t-37 -10.5h-515q-22 0 -31 9.5t-9 23.5q0 15 9.5 24t27.5 16l67 12q28 8 40 32t13 59q1 31 3 92
t5.5 141.5t7 171.5t7 183t6 175.5t4.5 149t2 103.5l50 -11q-12 -7 -28.5 -21.5t-40.5 -45t-61 -86.5zM290 444l18 67h543l-5 -67h-556zM1074 1671q75 0 132.5 27t105.5 86q11 11 20 16.5t18 5.5q15 0 19.5 -11t-2.5 -30q-45 -132 -137 -201.5t-203 -69.5q-109 0 -165.5 69.5
t-32.5 201.5q4 19 14.5 30t25.5 11q9 0 15.5 -5.5t10.5 -16.5q19 -62 64.5 -87.5t114.5 -25.5z" />
    <glyph glyph-name="abreve" unicode="&#x103;" horiz-adv-x="1131" 
d="M916 285q-21 -82 -15 -110.5t28 -28.5q17 0 34.5 12t44.5 42q15 15 23.5 18t17.5 -1q11 -5 11.5 -20t-12.5 -40q-41 -80 -123 -130t-184 -50q-76 0 -108 35t-32 97q0 21 3 48t9.5 59t15.5 69t21 78l18 -36q-39 -110 -98.5 -188.5t-136 -120t-168.5 -41.5q-119 0 -183 77
t-50 228q7 99 45.5 194t103.5 177.5t153 145.5t196.5 99t232.5 36q107 0 185 -15t120 -37.5t39 -46.5q-2 -21 -16.5 -30.5t-30 -19t-21.5 -32.5zM360 271q-8 -85 10 -118.5t48 -33.5q31 0 64 27.5t67 79t66.5 124.5t61.5 165t52 200q16 70 8 105t-44 35q-45 0 -90 -35
t-86 -95.5t-74.5 -136.5t-55 -157.5t-27.5 -159.5zM774 1198q76 0 134 32.5t111 97.5q22 22 40 22q15 0 19.5 -11t-2.5 -30q-50 -147 -145 -222t-205 -75q-109 0 -165.5 75t-30.5 222q4 19 15 30t26 11q19 0 26 -22q21 -69 65 -99.5t112 -30.5z" />
    <glyph glyph-name="Aogonek" unicode="&#x104;" horiz-adv-x="1294" 
d="M1062 39l9 -29q-111 -52 -168.5 -128.5t-58.5 -150.5q0 -42 18.5 -62t47.5 -20q30 0 58 15.5t51 37.5q10 9 19 12.5t17 0.5t10 -13.5t-12 -28.5q-32 -44 -97 -76t-149 -32q-99 0 -149 35.5t-50 102.5q0 61 43.5 120t143 113.5t267.5 102.5zM250 297q-52 -83 -35.5 -140
t82.5 -76l35 -11q15 -6 21 -14t6 -18q0 -18 -13 -28t-35 -10h-356q-22 0 -33 8.5t-11 23.5q0 16 10.5 27.5t39.5 27.5q45 21 97.5 80t105.5 147l471 758q115 180 251 265t285 85q40 0 56 -10.5t16 -28.5q0 -12 -6 -20.5t-21 -15.5q-48 -9 -75 -42t-29 -97q-1 -29 -2.5 -92
t-3.5 -148.5t-4.5 -181.5t-4.5 -192t-4 -179.5t-3 -143.5t-1 -84q1 -34 5.5 -55t21.5 -34.5t53 -25.5q25 -14 25 -35q0 -16 -13 -26.5t-37 -10.5h-515q-22 0 -31 9.5t-9 23.5q0 15 9.5 24t27.5 16l67 12q28 8 40 32t13 59q1 31 3 92t5.5 141.5t7 171.5t7 183t6 175.5
t4.5 149t2 103.5l50 -11q-12 -7 -28.5 -21.5t-40.5 -45t-61 -86.5zM290 444l18 67h543l-5 -67h-556z" />
    <glyph glyph-name="aogonek" unicode="&#x105;" horiz-adv-x="1131" 
d="M917 58l10 -24q-105 -55 -158 -144t-53 -165q0 -42 19 -62t48 -20t58 15.5t52 38.5q10 9 19 12.5t17 0.5q9 -3 10.5 -13.5t-12.5 -28.5q-32 -45 -98 -77.5t-151 -32.5q-101 0 -151.5 35t-50.5 100q0 63 42 122.5t139 119t260 123.5zM916 285q-21 -82 -15 -110.5t28 -28.5
q17 0 34.5 12t44.5 42q15 15 23.5 18t17.5 -1q11 -5 11.5 -20t-12.5 -40q-41 -80 -123 -130t-184 -50q-76 0 -108 35t-32 97q0 21 3 48t9.5 59t15.5 69t21 78l18 -36q-39 -110 -98.5 -188.5t-136 -120t-168.5 -41.5q-119 0 -183 77t-50 228q7 99 45.5 194t103.5 177.5
t153 145.5t196.5 99t232.5 36q107 0 185 -15t120 -37.5t39 -46.5q-2 -21 -16.5 -30.5t-30 -19t-21.5 -32.5zM360 271q-8 -85 10 -118.5t48 -33.5q31 0 64 27.5t67 79t66.5 124.5t61.5 165t52 200q16 70 8 105t-44 35q-45 0 -90 -35t-86 -95.5t-74.5 -136.5t-55 -157.5
t-27.5 -159.5z" />
    <glyph glyph-name="Cacute" unicode="&#x106;" horiz-adv-x="1289" 
d="M1201 453q13 -5 17 -22t-14 -51q-61 -136 -152 -225.5t-204.5 -133.5t-243.5 -44q-170 0 -293 79t-175.5 232.5t-10.5 374.5q31 167 106 306t183 241.5t238.5 158.5t271.5 56q69 0 116.5 -16t79 -37t51 -37t31.5 -16q13 0 33 15.5t42 35.5t41.5 36t32.5 16q17 0 27.5 -11
t9.5 -31l-19 -409q-1 -21 -12.5 -31t-28.5 -10q-33 -1 -46 39l-18 64q-47 163 -115.5 231t-163.5 68q-76 0 -146.5 -43.5t-130.5 -124.5t-105.5 -195t-72.5 -255q-41 -216 -20 -343.5t87.5 -183t160.5 -55.5q65 0 130.5 28t129 91.5t118.5 168.5q20 22 35 30.5t30 2.5z
M1088 1742q50 56 98 85.5t96 22.5q49 -6 65.5 -44.5t-0.5 -77.5q-20 -57 -68 -88.5t-112 -52.5l-228 -83q-11 -3 -23 -2.5t-17 8.5q-4 8 1.5 18t14.5 20z" />
    <glyph glyph-name="cacute" unicode="&#x107;" horiz-adv-x="957" 
d="M612 859q-42 0 -87 -41.5t-80.5 -119t-51.5 -186.5q-26 -180 21 -265t150 -85q45 0 86.5 17.5t77.5 53.5t65 89q18 22 29 32.5t26 9.5q16 -1 23.5 -17.5t-1.5 -45.5q-25 -72 -68 -132t-103.5 -103t-137.5 -66.5t-170 -23.5q-189 0 -281 118t-60 330q16 107 65 200.5
t126 164t177 110t216 39.5q108 0 178.5 -34.5t103.5 -91t27 -122.5q-5 -71 -52 -107.5t-102 -36.5t-86.5 29t-29.5 76q1 36 8 60.5t8 62.5q0 36 -19 60.5t-58 24.5zM739 1276q45 69 93.5 107t104.5 33q56 -4 74 -41.5t3 -77.5q-17 -51 -58 -87t-103 -67l-222 -127
q-13 -5 -25 -5t-17 7q-7 9 -2 18.5t14 20.5z" />
    <glyph glyph-name="Ccircumflex" unicode="&#x108;" horiz-adv-x="1289" 
d="M1201 453q13 -5 17 -22t-14 -51q-61 -136 -152 -225.5t-204.5 -133.5t-243.5 -44q-170 0 -293 79t-175.5 232.5t-10.5 374.5q31 167 106 306t183 241.5t238.5 158.5t271.5 56q69 0 116.5 -16t79 -37t51 -37t31.5 -16q13 0 33 15.5t42 35.5t41.5 36t32.5 16q17 0 27.5 -11
t9.5 -31l-19 -409q-1 -21 -12.5 -31t-28.5 -10q-33 -1 -46 39l-18 64q-47 163 -115.5 231t-163.5 68q-76 0 -146.5 -43.5t-130.5 -124.5t-105.5 -195t-72.5 -255q-41 -216 -20 -343.5t87.5 -183t160.5 -55.5q65 0 130.5 28t129 91.5t118.5 168.5q20 22 35 30.5t30 2.5z
M1022 1665h-154l282 -156q29 -19 52 -3q9 6 13.5 18t-5.5 26l-163 243q-12 19 -24 29.5t-34 10.5t-39.5 -10.5t-41.5 -29.5l-287 -243q-17 -14 -19.5 -26t2.5 -18q8 -8 21.5 -7t32.5 10z" />
    <glyph glyph-name="ccircumflex" unicode="&#x109;" horiz-adv-x="957" 
d="M612 859q-42 0 -87 -41.5t-80.5 -119t-51.5 -186.5q-26 -180 21 -265t150 -85q45 0 86.5 17.5t77.5 53.5t65 89q18 22 29 32.5t26 9.5q16 -1 23.5 -17.5t-1.5 -45.5q-25 -72 -68 -132t-103.5 -103t-137.5 -66.5t-170 -23.5q-189 0 -281 118t-60 330q16 107 65 200.5
t126 164t177 110t216 39.5q108 0 178.5 -34.5t103.5 -91t27 -122.5q-5 -71 -52 -107.5t-102 -36.5t-86.5 29t-29.5 76q1 36 8 60.5t8 62.5q0 36 -19 60.5t-58 24.5zM721 1216h-157l274 -206q12 -10 26.5 -10t25.5 7q10 7 14 19t-5 26l-154 287q-11 20 -24 30.5t-36 10.5
t-41 -10.5t-41 -30.5l-301 -287q-16 -14 -19.5 -26t2.5 -19q8 -7 22.5 -7t32.5 10z" />
    <glyph glyph-name="Cdotaccent" unicode="&#x10a;" horiz-adv-x="1289" 
d="M1201 453q13 -5 17 -22t-14 -51q-61 -136 -152 -225.5t-204.5 -133.5t-243.5 -44q-170 0 -293 79t-175.5 232.5t-10.5 374.5q31 167 106 306t183 241.5t238.5 158.5t271.5 56q69 0 116.5 -16t79 -37t51 -37t31.5 -16q13 0 33 15.5t42 35.5t41.5 36t32.5 16q17 0 27.5 -11
t9.5 -31l-19 -409q-1 -21 -12.5 -31t-28.5 -10q-33 -1 -46 39l-18 64q-47 163 -115.5 231t-163.5 68q-76 0 -146.5 -43.5t-130.5 -124.5t-105.5 -195t-72.5 -255q-41 -216 -20 -343.5t87.5 -183t160.5 -55.5q65 0 130.5 28t129 91.5t118.5 168.5q20 22 35 30.5t30 2.5z
M916 1509q-78 0 -113.5 42t-17.5 112q19 69 76.5 111.5t135.5 42.5q79 0 114.5 -42.5t16.5 -111.5q-18 -69 -75.5 -111.5t-136.5 -42.5z" />
    <glyph glyph-name="cdotaccent" unicode="&#x10b;" horiz-adv-x="957" 
d="M612 859q-42 0 -87 -41.5t-80.5 -119t-51.5 -186.5q-26 -180 21 -265t150 -85q45 0 86.5 17.5t77.5 53.5t65 89q18 22 29 32.5t26 9.5q16 -1 23.5 -17.5t-1.5 -45.5q-25 -72 -68 -132t-103.5 -103t-137.5 -66.5t-170 -23.5q-189 0 -281 118t-60 330q16 107 65 200.5
t126 164t177 110t216 39.5q108 0 178.5 -34.5t103.5 -91t27 -122.5q-5 -71 -52 -107.5t-102 -36.5t-86.5 29t-29.5 76q1 36 8 60.5t8 62.5q0 36 -19 60.5t-58 24.5zM605 1016q-78 0 -112.5 42.5t-15.5 113.5t76 113.5t133 42.5q79 0 113 -42.5t15 -113.5q-18 -70 -75 -113
t-134 -43z" />
    <glyph glyph-name="Ccaron" unicode="&#x10c;" horiz-adv-x="1289" 
d="M1201 453q13 -5 17 -22t-14 -51q-61 -136 -152 -225.5t-204.5 -133.5t-243.5 -44q-170 0 -293 79t-175.5 232.5t-10.5 374.5q31 167 106 306t183 241.5t238.5 158.5t271.5 56q69 0 116.5 -16t79 -37t51 -37t31.5 -16q13 0 33 15.5t42 35.5t41.5 36t32.5 16q17 0 27.5 -11
t9.5 -31l-19 -409q-1 -21 -12.5 -31t-28.5 -10q-33 -1 -46 39l-18 64q-47 163 -115.5 231t-163.5 68q-76 0 -146.5 -43.5t-130.5 -124.5t-105.5 -195t-72.5 -255q-41 -216 -20 -343.5t87.5 -183t160.5 -55.5q65 0 130.5 28t129 91.5t118.5 168.5q20 22 35 30.5t30 2.5z
M1004 1668l-282 157q-29 18 -51 3q-10 -6 -14.5 -18t5.5 -26l162 -244q14 -18 25.5 -29t33.5 -11t39.5 11t40.5 29l289 244q16 14 19 26t-3 18q-7 7 -21 6t-33 -9l-364 -157h154z" />
    <glyph glyph-name="ccaron" unicode="&#x10d;" horiz-adv-x="957" 
d="M612 859q-42 0 -87 -41.5t-80.5 -119t-51.5 -186.5q-26 -180 21 -265t150 -85q45 0 86.5 17.5t77.5 53.5t65 89q18 22 29 32.5t26 9.5q16 -1 23.5 -17.5t-1.5 -45.5q-25 -72 -68 -132t-103.5 -103t-137.5 -66.5t-170 -23.5q-189 0 -281 118t-60 330q16 107 65 200.5
t126 164t177 110t216 39.5q108 0 178.5 -34.5t103.5 -91t27 -122.5q-5 -71 -52 -107.5t-102 -36.5t-86.5 29t-29.5 76q1 36 8 60.5t8 62.5q0 36 -19 60.5t-58 24.5zM708 1165l-273 206q-12 11 -26.5 11t-26.5 -8q-9 -6 -13.5 -18t4.5 -26l154 -287q12 -20 24.5 -30.5
t35.5 -10.5t41.5 10.5t40.5 30.5l301 287q17 14 20 26t-3 18q-7 8 -21.5 8t-33.5 -11l-381 -206h157z" />
    <glyph glyph-name="Dcaron" unicode="&#x10e;" horiz-adv-x="1506" 
d="M-8 33q0 13 9 23.5t25 15.5l65 12q16 3 26.5 12t19 27t18.5 49q11 42 31 114.5t44.5 164t51 192t53 198.5t48.5 183t38 146.5t22 87.5q6 27 -1 40.5t-30 18.5l-61 12q-16 6 -23.5 13.5t-7.5 19.5q0 17 13 27.5t37 10.5h579q144 0 258 -46.5t189 -137t101.5 -221.5
t-7.5 -301q-31 -163 -107 -291.5t-189 -218t-256.5 -137t-310.5 -47.5h-594q-24 0 -32.5 9t-8.5 24zM644 77q70 0 138 34.5t129.5 109.5t113 195t86.5 290q35 162 35.5 279t-25.5 192.5t-72 111.5t-104 36h-42q-40 0 -69 -27.5t-48 -89.5q-9 -32 -25.5 -92.5t-38 -140
t-45.5 -169t-48 -179.5t-44.5 -171t-36 -143t-22.5 -96q-15 -72 2.5 -106t67.5 -34h48zM1080 1659l-282 157q-29 18 -51 3q-10 -6 -14.5 -18t5.5 -26l162 -244q14 -18 25.5 -29t33.5 -11t39.5 11t40.5 29l289 244q16 14 19 26t-3 18q-7 7 -21 6t-33 -9l-364 -157h154z" />
    <glyph glyph-name="dcaron" unicode="&#x10f;" horiz-adv-x="1139" 
d="M1186 1198l-254 -913q-15 -55 -17 -85t6.5 -42t23.5 -12q17 0 35 12t44 42q15 15 24 18t17 -1q11 -5 11.5 -20t-12.5 -40q-27 -53 -73 -93.5t-105.5 -63.5t-127.5 -23q-78 0 -112.5 35.5t-34.5 96.5q0 28 4.5 61t14 74.5t23.5 92.5l31 -12q-46 -115 -109.5 -192.5
t-140 -116.5t-162.5 -39q-131 0 -195 80t-52 229q9 123 63.5 239t144 208.5t206.5 146.5t252 54q78 0 127 -20.5t73 -56.5t24 -81l-158 -14q4 44 -10.5 70t-62.5 26t-95.5 -38t-90 -102t-76 -143.5t-53 -163t-20.5 -160.5q-2 -76 19.5 -104.5t53.5 -28.5q26 0 57 20t63.5 60
t62 99.5t52.5 138.5l203 709q20 69 15 95.5t-27 26.5q-16 0 -35 -11t-49 -43q-14 -12 -23 -15t-18 0q-11 5 -11 19.5t12 36.5q33 58 83.5 102.5t113.5 69t131 24.5q73 0 110 -28.5t42 -85t-18 -138.5zM1328 1357q23 70 61 115.5t92 53.5q56 11 84 -16.5t24 -65.5
q-3 -48 -33 -88.5t-79 -80.5l-182 -167q-10 -8 -21 -11t-19 0q-8 6 -6.5 15.5t4.5 20.5z" />
    <glyph glyph-name="Dcroat" unicode="&#x110;" horiz-adv-x="1505" 
d="M118 698q5 12 16 19.5t23 7.5h685q14 0 20 -7.5t2 -19.5q-4 -13 -14.5 -20.5t-24.5 -7.5h-685q-13 0 -19.5 7.5t-2.5 20.5zM-3 33q0 13 9 23.5t25 15.5l65 12q16 3 26.5 12t19 27t18.5 49q11 42 31 114.5t44.5 164t51 192t53 198.5t48.5 183t38 146.5t22 87.5
q6 27 -1 40.5t-30 18.5l-61 12q-16 6 -23.5 13.5t-7.5 19.5q0 17 13 27.5t37 10.5h579q144 0 258 -46.5t189 -137t101.5 -221.5t-7.5 -301q-31 -163 -107 -291.5t-189 -218t-256.5 -137t-310.5 -47.5h-594q-24 0 -32.5 9t-8.5 24zM649 77q70 0 138 34.5t129.5 109.5t113 195
t86.5 290q35 162 35.5 279t-25.5 192.5t-72 111.5t-104 36h-42q-40 0 -69 -27.5t-48 -89.5q-9 -32 -25.5 -92.5t-38 -140t-45.5 -169t-48 -179.5t-45 -171t-36 -143t-22 -96q-16 -72 2 -106t68 -34h48z" />
    <glyph glyph-name="dcroat" unicode="&#x111;" horiz-adv-x="1133" 
d="M1244 1417l-317 -1140q-16 -57 -20.5 -84t3.5 -35t30 -8q18 0 37 13t48 46q12 11 19.5 13t15.5 -2q10 -5 10 -20.5t-13 -38.5q-27 -53 -75.5 -94.5t-110 -65t-128.5 -23.5q-75 0 -110.5 35t-35.5 98q0 24 4 52t12 62.5t20 80.5l27 1q-46 -104 -108 -177.5t-136.5 -112.5
t-158.5 -39q-120 0 -182.5 79.5t-47.5 226.5q8 123 62.5 239t144.5 209.5t206 148.5t249 55q78 0 127 -21t72.5 -57.5t23.5 -82.5l-158 -10q3 45 -11 71t-62 26t-95.5 -38t-90 -102t-75.5 -143.5t-53 -165t-21 -164.5q-1 -75 20 -102.5t53 -27.5q20 0 44.5 13t50.5 38.5
t51.5 63.5t48 88.5t40.5 113.5l247 864q7 21 33 45t63.5 47.5t78 42t76 30t57.5 11.5q28 0 36 -15t-1 -44zM651 1151q4 12 13.5 20t20.5 8h595q13 0 18 -8t1 -20q-8 -28 -35 -28h-596q-26 0 -17 28z" />
    <glyph glyph-name="Emacron" unicode="&#x112;" horiz-adv-x="1291" 
d="M538 761h278q62 0 111.5 35.5t69.5 127.5q7 14 16 20.5t20 6.5q17 0 26 -10t11 -27l35 -356q4 -27 -5.5 -39.5t-27.5 -13.5q-14 0 -23.5 7t-16.5 22q-32 85 -81 122.5t-140 37.5h-295zM754 0h-723q-24 0 -33 9t-9 24q0 14 9 24t25 15l68 12q21 5 32.5 20.5t20.5 43.5
q7 23 24.5 87.5t42 155.5t52.5 196t56.5 210.5t53 198.5t42 160t24.5 94q7 33 1.5 47.5t-27.5 19.5l-65 12q-12 5 -20 12t-8 21q0 17 12.5 27.5t36.5 10.5h790q60 0 92 16t56 16q40 0 45 -44l6 -348q3 -23 -5 -36t-25 -15q-20 -2 -33.5 8t-24.5 40q-33 120 -67.5 184t-80 88
t-112.5 24h-194q-9 -31 -28.5 -103t-46 -171.5t-56.5 -211t-59 -223t-54.5 -208.5t-42.5 -165.5t-23 -93.5q-7 -32 -2.5 -52t23.5 -29t56 -9h131q77 0 141 30t126 101t132 193q24 41 49 41q35 0 33 -48q-6 -101 -28 -177.5t-58 -128t-85 -77.5t-110 -26q-41 0 -77 12.5
t-83 12.5zM625 1625q10 37 26.5 52t42.5 15h479q26 0 34.5 -14.5t-2.5 -51.5q-9 -36 -25.5 -51t-42.5 -15h-479q-26 0 -34 15t1 50z" />
    <glyph glyph-name="emacron" unicode="&#x113;" horiz-adv-x="992" 
d="M207 419l34 10.5t89 27.5t117 36.5t120.5 37.5t98.5 30l-31 -32q12 36 20.5 86.5t8.5 115.5q1 59 -17.5 94.5t-52.5 35.5t-68 -27.5t-64 -79.5t-52.5 -125t-32.5 -163q-16 -149 33.5 -227.5t160.5 -78.5q54 0 102 20.5t89.5 59.5t73.5 96q16 20 27 27t24 6q16 -1 24 -15
t0 -43q-33 -96 -101 -172t-170 -119t-238 -43q-130 0 -214.5 48t-120.5 138.5t-23 217.5q13 116 61.5 217t127 177.5t180 119.5t218.5 43q99 0 162.5 -35t95 -93.5t34.5 -129.5q2 -16 8.5 -28t22.5 -16q11 -2 16.5 -7.5t5.5 -15.5q0 -13 -10 -24.5t-39 -19.5q-33 -9 -97 -28
t-144.5 -43t-163 -48.5t-152 -45.5t-112 -34l-42.5 -13zM330 1144q10 37 26.5 52t43.5 15h485q26 0 34.5 -14t-2.5 -52q-9 -37 -25.5 -52.5t-43.5 -15.5h-485q-26 0 -34.5 15.5t1.5 51.5z" />
    <glyph glyph-name="Ebreve" unicode="&#x114;" horiz-adv-x="1291" 
d="M538 761h278q62 0 111.5 35.5t69.5 127.5q7 14 16 20.5t20 6.5q17 0 26 -10t11 -27l35 -356q4 -27 -5.5 -39.5t-27.5 -13.5q-14 0 -23.5 7t-16.5 22q-32 85 -81 122.5t-140 37.5h-295zM754 0h-723q-24 0 -33 9t-9 24q0 14 9 24t25 15l68 12q21 5 32.5 20.5t20.5 43.5
q7 23 24.5 87.5t42 155.5t52.5 196t56.5 210.5t53 198.5t42 160t24.5 94q7 33 1.5 47.5t-27.5 19.5l-65 12q-12 5 -20 12t-8 21q0 17 12.5 27.5t36.5 10.5h790q60 0 92 16t56 16q40 0 45 -44l6 -348q3 -23 -5 -36t-25 -15q-20 -2 -33.5 8t-24.5 40q-33 120 -67.5 184t-80 88
t-112.5 24h-194q-9 -31 -28.5 -103t-46 -171.5t-56.5 -211t-59 -223t-54.5 -208.5t-42.5 -165.5t-23 -93.5q-7 -32 -2.5 -52t23.5 -29t56 -9h131q77 0 141 30t126 101t132 193q24 41 49 41q35 0 33 -48q-6 -101 -28 -177.5t-58 -128t-85 -77.5t-110 -26q-41 0 -77 12.5
t-83 12.5zM938 1671q75 0 132.5 27t105.5 86q11 11 20 16.5t18 5.5q15 0 19.5 -11t-2.5 -30q-45 -132 -137 -201.5t-203 -69.5q-109 0 -165.5 69.5t-32.5 201.5q4 19 14.5 30t25.5 11q9 0 15.5 -5.5t10.5 -16.5q19 -62 64.5 -87.5t114.5 -25.5z" />
    <glyph glyph-name="ebreve" unicode="&#x115;" horiz-adv-x="992" 
d="M207 419l34 10.5t89 27.5t117 36.5t120.5 37.5t98.5 30l-31 -32q12 36 20.5 86.5t8.5 115.5q1 59 -17.5 94.5t-52.5 35.5t-68 -27.5t-64 -79.5t-52.5 -125t-32.5 -163q-16 -149 33.5 -227.5t160.5 -78.5q54 0 102 20.5t89.5 59.5t73.5 96q16 20 27 27t24 6q16 -1 24 -15
t0 -43q-33 -96 -101 -172t-170 -119t-238 -43q-130 0 -214.5 48t-120.5 138.5t-23 217.5q13 116 61.5 217t127 177.5t180 119.5t218.5 43q99 0 162.5 -35t95 -93.5t34.5 -129.5q2 -16 8.5 -28t22.5 -16q11 -2 16.5 -7.5t5.5 -15.5q0 -13 -10 -24.5t-39 -19.5q-33 -9 -97 -28
t-144.5 -43t-163 -48.5t-152 -45.5t-112 -34l-42.5 -13zM647 1198q76 0 134 32.5t111 97.5q22 22 40 22q15 0 19.5 -11t-2.5 -30q-50 -147 -145 -222t-205 -75q-109 0 -165.5 75t-30.5 222q4 19 15 30t26 11q19 0 26 -22q21 -69 65 -99.5t112 -30.5z" />
    <glyph glyph-name="Edotaccent" unicode="&#x116;" horiz-adv-x="1291" 
d="M538 761h278q62 0 111.5 35.5t69.5 127.5q7 14 16 20.5t20 6.5q17 0 26 -10t11 -27l35 -356q4 -27 -5.5 -39.5t-27.5 -13.5q-14 0 -23.5 7t-16.5 22q-32 85 -81 122.5t-140 37.5h-295zM754 0h-723q-24 0 -33 9t-9 24q0 14 9 24t25 15l68 12q21 5 32.5 20.5t20.5 43.5
q7 23 24.5 87.5t42 155.5t52.5 196t56.5 210.5t53 198.5t42 160t24.5 94q7 33 1.5 47.5t-27.5 19.5l-65 12q-12 5 -20 12t-8 21q0 17 12.5 27.5t36.5 10.5h790q60 0 92 16t56 16q40 0 45 -44l6 -348q3 -23 -5 -36t-25 -15q-20 -2 -33.5 8t-24.5 40q-33 120 -67.5 184t-80 88
t-112.5 24h-194q-9 -31 -28.5 -103t-46 -171.5t-56.5 -211t-59 -223t-54.5 -208.5t-42.5 -165.5t-23 -93.5q-7 -32 -2.5 -52t23.5 -29t56 -9h131q77 0 141 30t126 101t132 193q24 41 49 41q35 0 33 -48q-6 -101 -28 -177.5t-58 -128t-85 -77.5t-110 -26q-41 0 -77 12.5
t-83 12.5zM883 1500q-78 0 -113.5 42t-17.5 112q19 69 76.5 111.5t135.5 42.5q79 0 114.5 -42.5t16.5 -111.5q-18 -69 -75.5 -111.5t-136.5 -42.5z" />
    <glyph glyph-name="edotaccent" unicode="&#x117;" horiz-adv-x="992" 
d="M207 419l34 10.5t89 27.5t117 36.5t120.5 37.5t98.5 30l-31 -32q12 36 20.5 86.5t8.5 115.5q1 59 -17.5 94.5t-52.5 35.5t-68 -27.5t-64 -79.5t-52.5 -125t-32.5 -163q-16 -149 33.5 -227.5t160.5 -78.5q54 0 102 20.5t89.5 59.5t73.5 96q16 20 27 27t24 6q16 -1 24 -15
t0 -43q-33 -96 -101 -172t-170 -119t-238 -43q-130 0 -214.5 48t-120.5 138.5t-23 217.5q13 116 61.5 217t127 177.5t180 119.5t218.5 43q99 0 162.5 -35t95 -93.5t34.5 -129.5q2 -16 8.5 -28t22.5 -16q11 -2 16.5 -7.5t5.5 -15.5q0 -13 -10 -24.5t-39 -19.5q-33 -9 -97 -28
t-144.5 -43t-163 -48.5t-152 -45.5t-112 -34l-42.5 -13zM592 1016q-78 0 -112.5 42.5t-15.5 113.5t76 113.5t133 42.5q79 0 113 -42.5t15 -113.5q-18 -70 -75 -113t-134 -43z" />
    <glyph glyph-name="Eogonek" unicode="&#x118;" horiz-adv-x="1291" 
d="M538 761h278q62 0 111.5 35.5t69.5 127.5q7 14 16 20.5t20 6.5q17 0 26 -10t11 -27l35 -356q4 -27 -5.5 -39.5t-27.5 -13.5q-14 0 -23.5 7t-16.5 22q-32 85 -81 122.5t-140 37.5h-295zM754 0h-723q-24 0 -33 9t-9 24q0 14 9 24t25 15l68 12q21 5 32.5 20.5t20.5 43.5
q7 23 24.5 87.5t42 155.5t52.5 196t56.5 210.5t53 198.5t42 160t24.5 94q7 33 1.5 47.5t-27.5 19.5l-65 12q-12 5 -20 12t-8 21q0 17 12.5 27.5t36.5 10.5h790q60 0 92 16t56 16q40 0 45 -44l6 -348q3 -23 -5 -36t-25 -15q-20 -2 -33.5 8t-24.5 40q-33 120 -67.5 184t-80 88
t-112.5 24h-194q-9 -31 -28.5 -103t-46 -171.5t-56.5 -211t-59 -223t-54.5 -208.5t-42.5 -165.5t-23 -93.5q-7 -32 -2.5 -52t23.5 -29t56 -9h131q77 0 141 30t126 101t132 193q24 41 49 41q35 0 33 -48q-6 -101 -28 -177.5t-58 -128t-85 -77.5t-110 -26q-41 0 -77 12.5
t-83 12.5zM1017 37l8 -30q-94 -45 -147.5 -100t-73.5 -134q-17 -67 1.5 -98.5t58.5 -31.5q29 0 57.5 15.5t51.5 38.5q10 9 19 12.5t18 0.5q8 -3 9.5 -13.5t-11.5 -28.5q-33 -45 -99 -77.5t-152 -32.5q-115 0 -165.5 46.5t-28.5 130.5q17 62 66 113.5t143.5 98t244.5 90.5z
" />
    <glyph glyph-name="eogonek" unicode="&#x119;" horiz-adv-x="982" 
d="M211 374l-5 53q73 23 152 47.5t159 49t155 47.5l-36 -28q17 52 24 97.5t7 97.5q1 59 -18 93t-55 34q-34 0 -68.5 -28t-64.5 -80t-52.5 -126t-32.5 -165q-16 -149 33 -228t158 -79q81 0 149.5 45t118.5 135q15 18 25.5 24.5t24.5 5.5q15 -1 21 -12t4 -26q-19 -69 -55 -124
t-90 -99.5t-126 -81.5q-72 -38 -120 -89.5t-71.5 -106t-23.5 -101.5q0 -45 18.5 -65.5t48.5 -20.5t58.5 15.5t51.5 38.5q10 9 19 12.5t18 0.5q8 -3 9.5 -13.5t-12.5 -28.5q-32 -46 -99.5 -78t-154.5 -32q-97 0 -146.5 35t-49.5 99q0 49 28.5 99.5t94.5 102t178 102.5l5 -6
q-43 -8 -62 -10t-44 -2q-122 0 -203 47.5t-116 138t-22 217.5q13 117 61.5 218.5t127 178.5t180.5 120.5t220 43.5q97 0 159 -34t93.5 -91t34.5 -126q2 -15 8.5 -25.5t21.5 -13.5q11 -2 16.5 -8t5.5 -16q0 -13 -10 -24.5t-37 -18.5q-54 -16 -137.5 -40.5t-182 -53.5
t-200.5 -59.5t-194 -57.5z" />
    <glyph glyph-name="Ecaron" unicode="&#x11a;" horiz-adv-x="1291" 
d="M538 761h278q62 0 111.5 35.5t69.5 127.5q7 14 16 20.5t20 6.5q17 0 26 -10t11 -27l35 -356q4 -27 -5.5 -39.5t-27.5 -13.5q-14 0 -23.5 7t-16.5 22q-32 85 -81 122.5t-140 37.5h-295zM754 0h-723q-24 0 -33 9t-9 24q0 14 9 24t25 15l68 12q21 5 32.5 20.5t20.5 43.5
q7 23 24.5 87.5t42 155.5t52.5 196t56.5 210.5t53 198.5t42 160t24.5 94q7 33 1.5 47.5t-27.5 19.5l-65 12q-12 5 -20 12t-8 21q0 17 12.5 27.5t36.5 10.5h790q60 0 92 16t56 16q40 0 45 -44l6 -348q3 -23 -5 -36t-25 -15q-20 -2 -33.5 8t-24.5 40q-33 120 -67.5 184t-80 88
t-112.5 24h-194q-9 -31 -28.5 -103t-46 -171.5t-56.5 -211t-59 -223t-54.5 -208.5t-42.5 -165.5t-23 -93.5q-7 -32 -2.5 -52t23.5 -29t56 -9h131q77 0 141 30t126 101t132 193q24 41 49 41q35 0 33 -48q-6 -101 -28 -177.5t-58 -128t-85 -77.5t-110 -26q-41 0 -77 12.5
t-83 12.5zM971 1659l-282 157q-29 18 -51 3q-10 -6 -14.5 -18t5.5 -26l162 -244q14 -18 25.5 -29t33.5 -11t39.5 11t40.5 29l289 244q16 14 19 26t-3 18q-7 7 -21 6t-33 -9l-364 -157h154z" />
    <glyph glyph-name="ecaron" unicode="&#x11b;" horiz-adv-x="992" 
d="M207 419l34 10.5t89 27.5t117 36.5t120.5 37.5t98.5 30l-31 -32q12 36 20.5 86.5t8.5 115.5q1 59 -17.5 94.5t-52.5 35.5t-68 -27.5t-64 -79.5t-52.5 -125t-32.5 -163q-16 -149 33.5 -227.5t160.5 -78.5q54 0 102 20.5t89.5 59.5t73.5 96q16 20 27 27t24 6q16 -1 24 -15
t0 -43q-33 -96 -101 -172t-170 -119t-238 -43q-130 0 -214.5 48t-120.5 138.5t-23 217.5q13 116 61.5 217t127 177.5t180 119.5t218.5 43q99 0 162.5 -35t95 -93.5t34.5 -129.5q2 -16 8.5 -28t22.5 -16q11 -2 16.5 -7.5t5.5 -15.5q0 -13 -10 -24.5t-39 -19.5q-33 -9 -97 -28
t-144.5 -43t-163 -48.5t-152 -45.5t-112 -34l-42.5 -13zM694 1165l-273 206q-12 11 -26.5 11t-26.5 -8q-9 -6 -13.5 -18t4.5 -26l154 -287q12 -20 24.5 -30.5t35.5 -10.5t41.5 10.5t40.5 30.5l301 287q17 14 20 26t-3 18q-7 8 -21.5 8t-33.5 -11l-381 -206h157z" />
    <glyph glyph-name="Gcircumflex" unicode="&#x11c;" horiz-adv-x="1444" 
d="M920 1426q82 0 138 -18t92.5 -42t58 -42t34.5 -18q14 0 36 17.5t45.5 40.5t45 40.5t34.5 17.5q19 0 30 -12.5t12 -38.5l-19 -398q1 -23 -9 -33t-26 -11q-16 -2 -28 6.5t-19 26.5l-33 94q-33 100 -79 162t-102.5 90.5t-124.5 28.5q-85 0 -162.5 -47t-142 -136.5
t-113 -217.5t-78.5 -290q-38 -216 -25.5 -343t63 -182.5t127.5 -55.5q57 0 110 22.5t92.5 67t57.5 110.5l67 260q6 24 -0.5 39.5t-29.5 18.5l-95 12q-16 3 -22.5 11.5t-6.5 20.5q0 18 12.5 28.5t37.5 10.5h518q25 0 33.5 -9t8.5 -24q-1 -14 -10.5 -23.5t-25.5 -15.5l-53 -14
q-19 -5 -30 -18.5t-18 -36.5l-133 -488q-10 -34 -23 -47t-36 -13q-11 0 -35 9t-52.5 22.5t-57.5 27.5t-52 23.5t-33 9.5q-13 0 -37.5 -14t-61.5 -32.5t-87.5 -32t-116.5 -13.5q-174 0 -294.5 80t-170 232t-12.5 366q29 169 103.5 310t182 244t239 160t276.5 57zM1052 1665
h-154l282 -156q29 -19 52 -3q9 6 13.5 18t-5.5 26l-163 243q-12 19 -24 29.5t-34 10.5t-39.5 -10.5t-41.5 -29.5l-287 -243q-17 -14 -19.5 -26t2.5 -18q8 -8 21.5 -7t32.5 10z" />
    <glyph glyph-name="gcircumflex" unicode="&#x11d;" horiz-adv-x="1074" 
d="M866 41q-41 -175 -133 -295.5t-231 -183t-326 -62.5q-140 0 -214 47t-74 121q0 50 34 85t94 35q49 0 89.5 -29t77 -67.5t71.5 -67.5t72 -29q34 0 63.5 18.5t54 59t42.5 107.5l151 563l28 -17q-39 -114 -98.5 -192t-136 -117.5t-166.5 -39.5q-78 0 -134 33t-82.5 99
t-18.5 165q7 100 44.5 196.5t102.5 180.5t153.5 147.5t197.5 99.5t234 36q107 0 184.5 -14.5t119.5 -37t40 -46.5q-3 -22 -17.5 -30.5t-30 -18t-20.5 -33.5zM358 269q-5 -57 3 -89.5t23.5 -46t33.5 -13.5q33 0 68.5 30.5t70.5 85.5t66.5 129.5t57.5 163.5t44 186
q14 69 6.5 104.5t-43.5 35.5q-44 0 -89 -35.5t-85.5 -96t-74 -136.5t-54.5 -158t-27 -160zM817 1216h-157l274 -206q12 -10 26.5 -10t25.5 7q10 7 14 19t-5 26l-154 287q-11 20 -24 30.5t-36 10.5t-41 -10.5t-41 -30.5l-301 -287q-16 -14 -19.5 -26t2.5 -19q8 -7 22.5 -7
t32.5 10z" />
    <glyph glyph-name="Gbreve" unicode="&#x11e;" horiz-adv-x="1444" 
d="M920 1426q82 0 138 -18t92.5 -42t58 -42t34.5 -18q14 0 36 17.5t45.5 40.5t45 40.5t34.5 17.5q19 0 30 -12.5t12 -38.5l-19 -398q1 -23 -9 -33t-26 -11q-16 -2 -28 6.5t-19 26.5l-33 94q-33 100 -79 162t-102.5 90.5t-124.5 28.5q-85 0 -162.5 -47t-142 -136.5
t-113 -217.5t-78.5 -290q-38 -216 -25.5 -343t63 -182.5t127.5 -55.5q57 0 110 22.5t92.5 67t57.5 110.5l67 260q6 24 -0.5 39.5t-29.5 18.5l-95 12q-16 3 -22.5 11.5t-6.5 20.5q0 18 12.5 28.5t37.5 10.5h518q25 0 33.5 -9t8.5 -24q-1 -14 -10.5 -23.5t-25.5 -15.5l-53 -14
q-19 -5 -30 -18.5t-18 -36.5l-133 -488q-10 -34 -23 -47t-36 -13q-11 0 -35 9t-52.5 22.5t-57.5 27.5t-52 23.5t-33 9.5q-13 0 -37.5 -14t-61.5 -32.5t-87.5 -32t-116.5 -13.5q-174 0 -294.5 80t-170 232t-12.5 366q29 169 103.5 310t182 244t239 160t276.5 57zM1005 1680
q75 0 132.5 27t105.5 86q11 11 20 16.5t18 5.5q15 0 19.5 -11t-2.5 -30q-45 -132 -137 -201.5t-203 -69.5q-109 0 -165.5 69.5t-32.5 201.5q4 19 14.5 30t25.5 11q9 0 15.5 -5.5t10.5 -16.5q19 -62 64.5 -87.5t114.5 -25.5z" />
    <glyph glyph-name="gbreve" unicode="&#x11f;" horiz-adv-x="1074" 
d="M866 41q-41 -175 -133 -295.5t-231 -183t-326 -62.5q-140 0 -214 47t-74 121q0 50 34 85t94 35q49 0 89.5 -29t77 -67.5t71.5 -67.5t72 -29q34 0 63.5 18.5t54 59t42.5 107.5l151 563l28 -17q-39 -114 -98.5 -192t-136 -117.5t-166.5 -39.5q-78 0 -134 33t-82.5 99
t-18.5 165q7 100 44.5 196.5t102.5 180.5t153.5 147.5t197.5 99.5t234 36q107 0 184.5 -14.5t119.5 -37t40 -46.5q-3 -22 -17.5 -30.5t-30 -18t-20.5 -33.5zM358 269q-5 -57 3 -89.5t23.5 -46t33.5 -13.5q33 0 68.5 30.5t70.5 85.5t66.5 129.5t57.5 163.5t44 186
q14 69 6.5 104.5t-43.5 35.5q-44 0 -89 -35.5t-85.5 -96t-74 -136.5t-54.5 -158t-27 -160zM774 1198q76 0 134 32.5t111 97.5q22 22 40 22q15 0 19.5 -11t-2.5 -30q-50 -147 -145 -222t-205 -75q-109 0 -165.5 75t-30.5 222q4 19 15 30t26 11q19 0 26 -22q21 -69 65 -99.5
t112 -30.5z" />
    <glyph glyph-name="Gdotaccent" unicode="&#x120;" horiz-adv-x="1444" 
d="M920 1426q82 0 138 -18t92.5 -42t58 -42t34.5 -18q14 0 36 17.5t45.5 40.5t45 40.5t34.5 17.5q19 0 30 -12.5t12 -38.5l-19 -398q1 -23 -9 -33t-26 -11q-16 -2 -28 6.5t-19 26.5l-33 94q-33 100 -79 162t-102.5 90.5t-124.5 28.5q-85 0 -162.5 -47t-142 -136.5
t-113 -217.5t-78.5 -290q-38 -216 -25.5 -343t63 -182.5t127.5 -55.5q57 0 110 22.5t92.5 67t57.5 110.5l67 260q6 24 -0.5 39.5t-29.5 18.5l-95 12q-16 3 -22.5 11.5t-6.5 20.5q0 18 12.5 28.5t37.5 10.5h518q25 0 33.5 -9t8.5 -24q-1 -14 -10.5 -23.5t-25.5 -15.5l-53 -14
q-19 -5 -30 -18.5t-18 -36.5l-133 -488q-10 -34 -23 -47t-36 -13q-11 0 -35 9t-52.5 22.5t-57.5 27.5t-52 23.5t-33 9.5q-13 0 -37.5 -14t-61.5 -32.5t-87.5 -32t-116.5 -13.5q-174 0 -294.5 80t-170 232t-12.5 366q29 169 103.5 310t182 244t239 160t276.5 57zM950 1509
q-78 0 -113.5 42t-17.5 112q19 69 76.5 111.5t135.5 42.5q79 0 114.5 -42.5t16.5 -111.5q-18 -69 -75.5 -111.5t-136.5 -42.5z" />
    <glyph glyph-name="gdotaccent" unicode="&#x121;" horiz-adv-x="1074" 
d="M866 41q-41 -175 -133 -295.5t-231 -183t-326 -62.5q-140 0 -214 47t-74 121q0 50 34 85t94 35q49 0 89.5 -29t77 -67.5t71.5 -67.5t72 -29q34 0 63.5 18.5t54 59t42.5 107.5l151 563l28 -17q-39 -114 -98.5 -192t-136 -117.5t-166.5 -39.5q-78 0 -134 33t-82.5 99
t-18.5 165q7 100 44.5 196.5t102.5 180.5t153.5 147.5t197.5 99.5t234 36q107 0 184.5 -14.5t119.5 -37t40 -46.5q-3 -22 -17.5 -30.5t-30 -18t-20.5 -33.5zM358 269q-5 -57 3 -89.5t23.5 -46t33.5 -13.5q33 0 68.5 30.5t70.5 85.5t66.5 129.5t57.5 163.5t44 186
q14 69 6.5 104.5t-43.5 35.5q-44 0 -89 -35.5t-85.5 -96t-74 -136.5t-54.5 -158t-27 -160zM718 1016q-78 0 -112.5 42.5t-15.5 113.5t76 113.5t133 42.5q79 0 113 -42.5t15 -113.5q-18 -70 -75 -113t-134 -43z" />
    <glyph glyph-name="Gcommaaccent" unicode="&#x122;" horiz-adv-x="1444" 
d="M920 1426q82 0 138 -18t92.5 -42t58 -42t34.5 -18q14 0 36 17.5t45.5 40.5t45 40.5t34.5 17.5q19 0 30 -12.5t12 -38.5l-19 -398q1 -23 -9 -33t-26 -11q-16 -2 -28 6.5t-19 26.5l-33 94q-33 100 -79 162t-102.5 90.5t-124.5 28.5q-85 0 -162.5 -47t-142 -136.5
t-113 -217.5t-78.5 -290q-38 -216 -25.5 -343t63 -182.5t127.5 -55.5q57 0 110 22.5t92.5 67t57.5 110.5l67 260q6 24 -0.5 39.5t-29.5 18.5l-95 12q-16 3 -22.5 11.5t-6.5 20.5q0 18 12.5 28.5t37.5 10.5h518q25 0 33.5 -9t8.5 -24q-1 -14 -10.5 -23.5t-25.5 -15.5l-53 -14
q-19 -5 -30 -18.5t-18 -36.5l-133 -488q-10 -34 -23 -47t-36 -13q-11 0 -35 9t-52.5 22.5t-57.5 27.5t-52 23.5t-33 9.5q-13 0 -37.5 -14t-61.5 -32.5t-87.5 -32t-116.5 -13.5q-174 0 -294.5 80t-170 232t-12.5 366q29 169 103.5 310t182 244t239 160t276.5 57zM606 -340
q-73 0 -97.5 35t-11.5 85q16 59 67.5 96t116.5 37q72 0 104 -44t10 -129q-30 -115 -114 -187.5t-219 -96.5q-18 -4 -26.5 1.5t-8.5 17.5q0 11 8.5 20t25.5 13q66 10 113.5 32.5t75 49.5t32.5 49q5 21 -18 21h-58z" />
    <glyph glyph-name="gcommaaccent" unicode="&#x123;" horiz-adv-x="1074" 
d="M866 41q-41 -175 -133 -295.5t-231 -183t-326 -62.5q-140 0 -214 47t-74 121q0 50 34 85t94 35q49 0 89.5 -29t77 -67.5t71.5 -67.5t72 -29q34 0 63.5 18.5t54 59t42.5 107.5l151 563l28 -17q-39 -114 -98.5 -192t-136 -117.5t-166.5 -39.5q-78 0 -134 33t-82.5 99
t-18.5 165q7 100 44.5 196.5t102.5 180.5t153.5 147.5t197.5 99.5t234 36q107 0 184.5 -14.5t119.5 -37t40 -46.5q-3 -22 -17.5 -30.5t-30 -18t-20.5 -33.5zM358 269q-5 -57 3 -89.5t23.5 -46t33.5 -13.5q33 0 68.5 30.5t70.5 85.5t66.5 129.5t57.5 163.5t44 186
q14 69 6.5 104.5t-43.5 35.5q-44 0 -89 -35.5t-85.5 -96t-74 -136.5t-54.5 -158t-27 -160zM755 1265q77 0 102.5 -35t11.5 -88q-14 -57 -65 -93.5t-114 -36.5q-73 0 -105.5 45t-11.5 128q31 116 115 188t218 96q19 4 27.5 -1t8.5 -18q-1 -10 -9 -19.5t-25 -13.5
q-66 -10 -113.5 -32t-75 -48.5t-32.5 -49.5q-6 -22 17 -22h51z" />
    <glyph glyph-name="Hcircumflex" unicode="&#x124;" horiz-adv-x="1599" 
d="M501 135q-5 -22 2 -34.5t26 -17.5l65 -12q15 -5 22.5 -13t7.5 -20q0 -17 -13 -27.5t-37 -10.5h-543q-24 0 -33 9t-9 24t10 24.5t24 14.5l67 12q20 5 32 18t21 42q8 29 27 97t44 161t53.5 198.5t56.5 210.5t52.5 197t41.5 159.5t23 95.5q5 23 -1.5 35.5t-28.5 18.5l-64 12
q-15 6 -22 13.5t-7 19.5q0 18 13 28t38 10h538q25 0 33.5 -9t8.5 -23t-9.5 -24.5t-25.5 -14.5l-69 -14q-20 -5 -29.5 -16.5t-20.5 -41.5q-9 -29 -28 -98.5t-45 -165.5t-54 -204t-56 -215.5t-51.5 -199.5t-39.5 -155.5t-20 -83.5zM496 698h740l-20 -73h-741zM1296 135
q-5 -22 2 -34.5t27 -17.5l63 -12q16 -5 23.5 -13t7.5 -20q0 -17 -13 -27.5t-37 -10.5h-542q-25 0 -34 9t-9 24t10 24.5t25 14.5l66 12q21 5 32.5 18t20.5 42t27.5 97t43.5 161t53.5 198.5t56.5 210.5t52.5 197t41.5 159.5t23 95.5q5 23 -1.5 35.5t-28.5 18.5l-64 12
q-16 6 -22.5 13.5t-6.5 19.5q0 18 13 28t38 10h538q25 0 33.5 -9t8.5 -23t-9.5 -24.5t-25.5 -14.5l-69 -14q-19 -5 -29.5 -16.5t-19.5 -41.5q-9 -29 -29 -98.5t-45.5 -165.5t-53.5 -204t-56 -215.5t-51.5 -199.5t-39 -155.5t-20.5 -83.5zM1142 1660h-154l282 -156
q29 -19 52 -3q9 6 13.5 18t-5.5 26l-163 243q-12 19 -24 29.5t-34 10.5t-39.5 -10.5t-41.5 -29.5l-287 -243q-17 -14 -19.5 -26t2.5 -18q8 -8 21.5 -7t32.5 10z" />
    <glyph glyph-name="hcircumflex" unicode="&#x125;" horiz-adv-x="1159" 
d="M418 392q30 86 67.5 151t76.5 108.5t76 65t66 21.5q42 0 49 -33t-20 -116l-118 -362q-26 -79 -24 -135t39.5 -85.5t115.5 -29.5q120 0 204 50.5t125 130.5q13 25 12.5 40.5t-11.5 20.5q-9 4 -17.5 0.5t-23.5 -17.5q-27 -30 -45 -42t-34 -12q-22 0 -29.5 28t18.5 106
l120 371q29 85 25.5 148t-43 98t-119.5 35q-74 0 -163 -37t-177 -124t-161 -237l15 -5l184 646q18 63 41.5 101.5t52 56t60.5 17.5q39 0 75 -28t73.5 -65.5t78.5 -65.5t89 -28q63 0 99 37t36 89q0 70 -75 114.5t-219 44.5q-191 0 -328.5 -62.5t-226.5 -181.5t-137 -290
l-212 -763q-16 -59 -15.5 -98.5t25.5 -58.5t81 -19q126 0 195.5 30t69.5 80q0 26 -9.5 45.5t-9.5 46.5q0 20 5 51.5t15.5 72.5t27.5 89zM917 1692h-154l282 -156q29 -19 52 -3q9 6 13.5 18t-5.5 26l-163 243q-12 19 -24 29.5t-34 10.5t-39.5 -10.5t-41.5 -29.5l-287 -243
q-17 -14 -19.5 -26t2.5 -18q8 -8 21.5 -7t32.5 10z" />
    <glyph glyph-name="Hbar" unicode="&#x126;" horiz-adv-x="1599" 
d="M203 996q3 11 13 18t21 7h1442q13 0 17.5 -7t1.5 -18q-4 -11 -13 -17.5t-21 -6.5h-1444q-25 0 -17 24zM501 135q-5 -22 2 -34.5t26 -17.5l65 -12q15 -5 22.5 -13t7.5 -20q0 -17 -13 -27.5t-37 -10.5h-543q-24 0 -33 9t-9 24t10 24.5t24 14.5l67 12q20 5 32 18t21 42
q8 29 27 97t44 161t53.5 198.5t56.5 210.5t52.5 197t41.5 159.5t23 95.5q5 23 -1.5 35.5t-28.5 18.5l-64 12q-15 6 -22 13.5t-7 19.5q0 18 13 28t38 10h538q25 0 33.5 -9t8.5 -23t-9.5 -24.5t-25.5 -14.5l-69 -14q-20 -5 -29.5 -16.5t-20.5 -41.5q-9 -29 -28 -98.5
t-45 -165.5t-54 -204t-56 -215.5t-51.5 -199.5t-39.5 -155.5t-20 -83.5zM496 698h740l-20 -73h-741zM1296 135q-5 -22 2 -34.5t27 -17.5l63 -12q16 -5 23.5 -13t7.5 -20q0 -17 -13 -27.5t-37 -10.5h-542q-25 0 -34 9t-9 24t10 24.5t25 14.5l66 12q21 5 32.5 18t20.5 42
t27.5 97t43.5 161t53.5 198.5t56.5 210.5t52.5 197t41.5 159.5t23 95.5q5 23 -1.5 35.5t-28.5 18.5l-64 12q-16 6 -22.5 13.5t-6.5 19.5q0 18 13 28t38 10h538q25 0 33.5 -9t8.5 -23t-9.5 -24.5t-25.5 -14.5l-69 -14q-19 -5 -29.5 -16.5t-19.5 -41.5q-9 -29 -29 -98.5
t-45.5 -165.5t-53.5 -204t-56 -215.5t-51.5 -199.5t-39 -155.5t-20.5 -83.5z" />
    <glyph glyph-name="hbar" unicode="&#x127;" horiz-adv-x="1155" 
d="M712 1419l-260 -884l-9 3q74 145 160.5 232.5t176 126.5t169.5 39q77 0 113 -35.5t37 -98.5t-28 -147l-118 -372q-25 -76 -19.5 -104.5t30.5 -28.5q18 0 37.5 12.5t47.5 46.5q12 11 19.5 13t15.5 -2q10 -5 10 -20.5t-13 -38.5q-41 -80 -124 -131.5t-201 -51.5
q-78 0 -115.5 29t-39.5 85t24 135l115 364q26 83 18 116.5t-51 33.5q-28 0 -63.5 -19.5t-74 -61.5t-76 -108t-69.5 -157q-17 -49 -26.5 -90.5t-13.5 -72.5t-4 -52q0 -26 10 -45.5t10 -45.5q0 -50 -69.5 -80.5t-191.5 -30.5q-58 0 -85 17t-28 56.5t18 106.5l314 1131
q6 20 34.5 45t69 50t84 46t80 33.5t56.5 12.5q27 0 32.5 -17t-2.5 -40zM190 1151q4 12 14 20t21 8h625q12 0 17.5 -8t1.5 -20q-9 -28 -35 -28h-626q-26 0 -18 28z" />
    <glyph glyph-name="Itilde" unicode="&#x128;" horiz-adv-x="804" 
d="M503 135q-5 -22 2 -34.5t27 -17.5l63 -12q16 -5 23.5 -13t7.5 -20q0 -17 -13 -27.5t-37 -10.5h-542q-25 0 -34 9t-9 24t10 24.5t25 14.5l66 12q21 5 32.5 18t20.5 42t27.5 97t43.5 161t53.5 198t56 210.5t51.5 197.5t41.5 159.5t23.5 95.5q4 23 -2 35.5t-28 18.5l-64 12
q-16 6 -22.5 13.5t-6.5 19.5q0 18 13 28t38 10h538q25 0 33.5 -9t8.5 -23t-9.5 -24.5t-25.5 -14.5l-69 -14q-20 -5 -30 -16.5t-20 -41.5q-9 -29 -28 -98.5t-44.5 -165.5t-54 -204t-56 -215.5t-51 -199.5t-39 -155.5t-20.5 -83.5zM775 1507q-43 0 -75.5 15.5t-58.5 36
t-50 35.5t-52 15q-63 0 -95 -86q-12 -24 -35 -24q-30 0 -18 39q31 120 89 182.5t142 62.5q43 0 75.5 -15.5t58.5 -36t50.5 -36t51.5 -15.5q64 0 95 86q12 24 35 24q30 0 18 -39q-31 -120 -89 -182t-142 -62z" />
    <glyph glyph-name="itilde" unicode="&#x129;" horiz-adv-x="646" 
d="M437 149q-26 0 -32 29t21 106l128 387q33 87 26 146t-47 89.5t-109 30.5q-99 0 -188.5 -58.5t-145.5 -147.5q-13 -17 -13 -31.5t10 -20.5q8 -3 17.5 -1t22.5 11q35 37 57 51.5t39 14.5q27 0 30.5 -29t-23.5 -103l-133 -396q-29 -79 -26.5 -134.5t41 -85t117.5 -29.5
q117 0 200.5 51.5t124.5 131.5q13 23 13 38.5t-10 20.5q-8 4 -15.5 2t-19.5 -13q-29 -34 -48 -47t-37 -13zM551.312 1022q-39.6016 0 -67.9521 19t-51.3018 43.5q-22.9502 24.5 -44.1006 43.5t-46.3516 19q-29.7012 0 -51.3018 -26t-38.7002 -79q-11.7012 -25 -32.4014 -25
q-27.9004 0 -17.1006 40q30.6006 131 84.1523 198.5t130.953 67.5q39.6016 0 68.4023 -19t50.8516 -43.5t43.6514 -43t46.8008 -18.5q30.6006 0 52.2012 26t38.7012 79q10.8008 24 32.4014 24q26.1006 0 16.2002 -39q-30.6006 -131 -84.6025 -199q-54.001 -68 -130.503 -68z
" />
    <glyph glyph-name="Imacron" unicode="&#x12a;" horiz-adv-x="804" 
d="M503 135q-5 -22 2 -34.5t27 -17.5l63 -12q16 -5 23.5 -13t7.5 -20q0 -17 -13 -27.5t-37 -10.5h-542q-25 0 -34 9t-9 24t10 24.5t25 14.5l66 12q21 5 32.5 18t20.5 42t27.5 97t43.5 161t53.5 198t56 210.5t51.5 197.5t41.5 159.5t23.5 95.5q4 23 -2 35.5t-28 18.5l-64 12
q-16 6 -22.5 13.5t-6.5 19.5q0 18 13 28t38 10h538q25 0 33.5 -9t8.5 -23t-9.5 -24.5t-25.5 -14.5l-69 -14q-20 -5 -30 -16.5t-20 -41.5q-9 -29 -28 -98.5t-44.5 -165.5t-54 -204t-56 -215.5t-51 -199.5t-39 -155.5t-20.5 -83.5zM413 1625q10 37 26.5 52t42.5 15h479
q26 0 34.5 -14.5t-2.5 -51.5q-9 -36 -25.5 -51t-42.5 -15h-479q-26 0 -34 15t1 50z" />
    <glyph glyph-name="imacron" unicode="&#x12b;" horiz-adv-x="646" 
d="M437 149q-26 0 -32 29t21 106l128 387q33 87 26 146t-47 89.5t-109 30.5q-99 0 -188.5 -58.5t-145.5 -147.5q-13 -17 -13 -31.5t10 -20.5q8 -3 17.5 -1t22.5 11q35 37 57 51.5t39 14.5q27 0 30.5 -29t-23.5 -103l-133 -396q-29 -79 -26.5 -134.5t41 -85t117.5 -29.5
q117 0 200.5 51.5t124.5 131.5q13 23 13 38.5t-10 20.5q-8 4 -15.5 2t-19.5 -13q-29 -34 -48 -47t-37 -13zM226.51 1144q8.09961 37 21.4648 52t35.2354 15h392.849q21.0596 0 27.9443 -14q6.88574 -14 -2.02441 -52q-7.29004 -37 -20.6553 -52.5
q-13.3643 -15.5 -35.2344 -15.5h-392.849q-21.0605 0 -27.9453 15.5t1.21484 51.5z" />
    <glyph glyph-name="Ibreve" unicode="&#x12c;" horiz-adv-x="804" 
d="M503 135q-5 -22 2 -34.5t27 -17.5l63 -12q16 -5 23.5 -13t7.5 -20q0 -17 -13 -27.5t-37 -10.5h-542q-25 0 -34 9t-9 24t10 24.5t25 14.5l66 12q21 5 32.5 18t20.5 42t27.5 97t43.5 161t53.5 198t56 210.5t51.5 197.5t41.5 159.5t23.5 95.5q4 23 -2 35.5t-28 18.5l-64 12
q-16 6 -22.5 13.5t-6.5 19.5q0 18 13 28t38 10h538q25 0 33.5 -9t8.5 -23t-9.5 -24.5t-25.5 -14.5l-69 -14q-20 -5 -30 -16.5t-20 -41.5q-9 -29 -28 -98.5t-44.5 -165.5t-54 -204t-56 -215.5t-51 -199.5t-39 -155.5t-20.5 -83.5zM726 1671q75 0 132.5 27t105.5 86
q11 11 20 16.5t18 5.5q15 0 19.5 -11t-2.5 -30q-45 -132 -137 -201.5t-203 -69.5q-109 0 -165.5 69.5t-32.5 201.5q4 19 14.5 30t25.5 11q9 0 15.5 -5.5t10.5 -16.5q19 -62 64.5 -87.5t114.5 -25.5z" />
    <glyph glyph-name="ibreve" unicode="&#x12d;" horiz-adv-x="646" 
d="M437 149q-26 0 -32 29t21 106l128 387q33 87 26 146t-47 89.5t-109 30.5q-99 0 -188.5 -58.5t-145.5 -147.5q-13 -17 -13 -31.5t10 -20.5q8 -3 17.5 -1t22.5 11q35 37 57 51.5t39 14.5q27 0 30.5 -29t-23.5 -103l-133 -396q-29 -79 -26.5 -134.5t41 -85t117.5 -29.5
q117 0 200.5 51.5t124.5 131.5q13 23 13 38.5t-10 20.5q-8 4 -15.5 2t-19.5 -13q-29 -34 -48 -47t-37 -13zM507.609 1198q68.4014 0 120.604 32.5q52.2012 32.5 99.9023 97.5q19.8008 22 36.001 22q13.5 0 17.5508 -11q4.0498 -11 -2.25098 -30q-45.001 -147 -130.503 -222
q-85.5029 -75 -184.505 -75q-98.1025 0 -148.954 75t-27.4512 222q3.60059 19 13.501 30t23.4004 11q17.1006 0 23.4004 -22q18.9004 -69 58.502 -99.5q39.6006 -30.5 100.803 -30.5z" />
    <glyph glyph-name="Iogonek" unicode="&#x12e;" horiz-adv-x="804" 
d="M467 38l9 -30q-110 -51 -167.5 -127t-57.5 -150q-1 -43 17.5 -62.5t48.5 -19.5q29 0 57.5 15.5t50.5 37.5q10 9 19 12.5t17 0.5t10 -13.5t-12 -28.5q-32 -44 -97 -76t-149 -32q-99 0 -149 35.5t-50 102.5q0 61 43.5 119.5t143 113t266.5 102.5zM503 135q-5 -22 2 -34.5
t27 -17.5l63 -12q16 -5 23.5 -13t7.5 -20q0 -17 -13 -27.5t-37 -10.5h-542q-25 0 -34 9t-9 24t10 24.5t25 14.5l66 12q21 5 32.5 18t20.5 42t27.5 97t43.5 161t53.5 198t56 210.5t51.5 197.5t41.5 159.5t23.5 95.5q4 23 -2 35.5t-28 18.5l-64 12q-16 6 -22.5 13.5t-6.5 19.5
q0 18 13 28t38 10h538q25 0 33.5 -9t8.5 -23t-9.5 -24.5t-25.5 -14.5l-69 -14q-20 -5 -30 -16.5t-20 -41.5q-9 -29 -28 -98.5t-44.5 -165.5t-54 -204t-56 -215.5t-51 -199.5t-39 -155.5t-20.5 -83.5z" />
    <glyph glyph-name="iogonek" unicode="&#x12f;" horiz-adv-x="647" 
d="M430 61l8 -24q-72 -33 -122.5 -86.5t-76 -112t-25.5 -107.5q0 -46 19 -67t48 -21t57.5 15.5t51.5 38.5q11 9 19.5 12.5t17.5 0.5q8 -3 10 -13.5t-12 -28.5q-33 -46 -100 -78t-153 -32q-97 0 -147 36.5t-50 102.5q0 61 43.5 122t143 121.5t268.5 120.5zM426 282
q-26 -77 -19 -105.5t30 -28.5q16 0 34 12t45 42q15 15 23.5 18t17.5 -1q11 -4 11.5 -19.5t-12.5 -40.5q-41 -80 -125.5 -131t-203.5 -51q-79 0 -116.5 29.5t-39 86t25.5 136.5l134 395q24 71 18.5 99t-28.5 28q-16 0 -35 -11.5t-51 -44.5q-14 -12 -23 -15.5t-18 0.5
q-11 4 -11 18.5t12 36.5q50 89 136.5 144t192.5 55q69 0 107.5 -30t45 -88.5t-22.5 -145.5zM470 1051q-78 0 -120 38t-41 95q1 49 31 95t83 76t124 30q87 0 126 -39t38 -94t-30.5 -101t-83 -73t-127.5 -27z" />
    <glyph glyph-name="Idotaccent" unicode="&#x130;" horiz-adv-x="804" 
d="M503 135q-5 -22 2 -34.5t27 -17.5l63 -12q16 -5 23.5 -13t7.5 -20q0 -17 -13 -27.5t-37 -10.5h-542q-25 0 -34 9t-9 24t10 24.5t25 14.5l66 12q21 5 32.5 18t20.5 42t27.5 97t43.5 161t53.5 198t56 210.5t51.5 197.5t41.5 159.5t23.5 95.5q4 23 -2 35.5t-28 18.5l-64 12
q-16 6 -22.5 13.5t-6.5 19.5q0 18 13 28t38 10h538q25 0 33.5 -9t8.5 -23t-9.5 -24.5t-25.5 -14.5l-69 -14q-20 -5 -30 -16.5t-20 -41.5q-9 -29 -28 -98.5t-44.5 -165.5t-54 -204t-56 -215.5t-51 -199.5t-39 -155.5t-20.5 -83.5zM673 1500q-78 0 -113.5 42t-17.5 112
q19 69 76.5 111.5t135.5 42.5q79 0 114.5 -42.5t16.5 -111.5q-18 -69 -75.5 -111.5t-136.5 -42.5z" />
    <glyph glyph-name="dotlessi" unicode="&#x131;" horiz-adv-x="643" 
d="M437 149q-26 0 -32 29t21 106l128 387q33 87 26 146t-47 89.5t-109 30.5q-99 0 -188.5 -58.5t-145.5 -147.5q-13 -17 -13 -31.5t10 -20.5q8 -3 17.5 -1t22.5 11q35 37 57 51.5t39 14.5q27 0 30.5 -29t-23.5 -103l-133 -396q-29 -79 -26.5 -134.5t41 -85t117.5 -29.5
q117 0 200.5 51.5t124.5 131.5q13 23 13 38.5t-10 20.5q-8 4 -15.5 2t-19.5 -13q-29 -34 -48 -47t-37 -13z" />
    <glyph glyph-name="IJ" unicode="&#x132;" horiz-adv-x="1597" 
d="M503 135q-5 -22 2 -34.5t27 -17.5l63 -12q16 -5 23.5 -13t7.5 -20q0 -17 -13 -27.5t-37 -10.5h-542q-25 0 -34 9t-9 24t10 24.5t25 14.5l66 12q21 5 32.5 18t20.5 42t27.5 97t43.5 161t53.5 198t56 210.5t51.5 197.5t41.5 159.5t23.5 95.5q4 23 -2 35.5t-28 18.5l-64 12
q-16 6 -22.5 13.5t-6.5 19.5q0 18 13 28t38 10h538q25 0 33.5 -9t8.5 -23t-9.5 -24.5t-25.5 -14.5l-69 -14q-20 -5 -30 -16.5t-20 -41.5q-9 -29 -28 -98.5t-44.5 -165.5t-54 -204t-56 -215.5t-51 -199.5t-39 -155.5t-20.5 -83.5zM1589 1229q-5 -17 -23 -84t-44.5 -167
t-57.5 -218t-62 -238t-58.5 -226t-47.5 -183t-28 -107q-29 -133 -94.5 -220t-155.5 -129.5t-194 -42.5q-90 0 -136 39.5t-46 96.5q0 50 33.5 84t90.5 34q35 0 68.5 -16t65 -36.5t61.5 -36.5t59 -16q31 0 50.5 20.5t19.5 66.5q0 26 -17 52.5t-41 57t-45 65.5t-30 77t5 93
q9 34 26.5 102t41.5 157.5t50.5 189t52.5 196.5t48.5 180t37.5 140l20 76q11 43 5.5 58.5t-31.5 22.5l-64 12q-16 6 -22.5 13.5t-6.5 19.5q0 17 12.5 27.5t37.5 10.5h539q25 0 33.5 -9t8.5 -23t-9.5 -24.5t-24.5 -14.5l-68 -14q-15 -4 -24.5 -12t-17.5 -25.5t-18 -48.5z" />
    <glyph glyph-name="ij" unicode="&#x133;" horiz-adv-x="1254" 
d="M426 282q-26 -77 -19 -105.5t30 -28.5q16 0 34 12t45 42q15 14 23.5 17.5t17.5 -0.5q11 -5 11.5 -20.5t-12.5 -39.5q-41 -81 -125.5 -131.5t-203.5 -50.5q-79 0 -116.5 29.5t-39 86t25.5 136.5l134 394q24 72 18.5 100t-28.5 28q-16 0 -35 -11.5t-51 -45.5
q-14 -12 -23 -15t-18 0q-11 5 -11 19.5t12 35.5q50 90 136.5 145t192.5 55q69 0 107.5 -30t45 -89t-22.5 -145zM470 1051q-78 0 -120 38t-41 94q1 50 31 96t83 76t124 30q87 0 126 -39t38 -95q-1 -54 -30.5 -100t-83 -73t-127.5 -27zM1200 669l-247 -844q-46 -155 -138 -231
t-234 -76q-90 0 -134.5 36.5t-44.5 94.5q0 50 34 85t89 35q50 0 87.5 -23t71.5 -46t71 -23q27 0 47 14.5t28 51.5q7 33 -5 67t-32.5 70t-40 75t-28 81.5t5.5 90.5l146 496q21 73 16.5 100.5t-27.5 27.5q-16 0 -35.5 -11.5t-51.5 -45.5q-14 -12 -23 -15t-18 0q-10 5 -10 19.5
t11 35.5q34 60 84 105t112.5 70t133.5 25q103 0 137 -67t-5 -198zM1097 1051q-78 0 -119.5 38t-40.5 94q0 50 30 96t83 76t125 30q86 0 125 -39t38 -95q-1 -54 -30.5 -100t-83 -73t-127.5 -27z" />
    <glyph glyph-name="Jcircumflex" unicode="&#x134;" horiz-adv-x="793" 
d="M786 1229q-5 -17 -23 -84t-44.5 -167t-57.5 -218t-62 -238t-58.5 -226t-47.5 -183t-28 -107q-29 -133 -94.5 -220t-155.5 -129.5t-194 -42.5q-90 0 -136 39.5t-46 96.5q0 50 33.5 84t90.5 34q35 0 68.5 -16t65 -36.5t61.5 -36.5t59 -16q31 0 50.5 20.5t19.5 66.5
q0 26 -17 52.5t-41 57t-45 65.5t-30 77t5 93q9 34 26.5 102t41.5 157.5t50.5 189t52.5 196.5t48.5 180t37.5 140l20 76q11 43 5.5 58.5t-31.5 22.5l-64 12q-16 6 -22.5 13.5t-6.5 19.5q0 17 12.5 27.5t37.5 10.5h539q25 0 33.5 -9t8.5 -23t-9.5 -24.5t-24.5 -14.5l-68 -14
q-15 -4 -24.5 -12t-17.5 -25.5t-18 -48.5zM773 1660h-154l282 -156q29 -19 52 -3q9 6 13.5 18t-5.5 26l-163 243q-12 19 -24 29.5t-34 10.5t-39.5 -10.5t-41.5 -29.5l-287 -243q-17 -14 -19.5 -26t2.5 -18q8 -8 21.5 -7t32.5 10z" />
    <glyph glyph-name="jcircumflex" unicode="&#x135;" horiz-adv-x="608" 
d="M554 675l-247 -855q-46 -155 -138 -231t-234 -76q-92 0 -137.5 35.5t-45.5 92.5q0 48 34.5 81t94.5 33q47 0 85.5 -21t73 -42t68.5 -21q29 0 49 20t21 52q0 23 -16 46t-37 51t-38 66.5t-20 92t17 127.5l143 498q20 66 19.5 98.5t-27.5 32.5q-18 0 -40 -14.5t-57 -52.5
q-12 -8 -21.5 -9.5t-16.5 0.5q-11 6 -11.5 20t12.5 31q36 59 88.5 106t115.5 74t130 27q109 0 141 -67.5t-6 -194.5zM525.388 1218h-133.446l232.894 -206q10.1992 -10 22.5244 -10q12.3242 0 21.6738 7q8.5 7 11.9004 19q3.39941 12 -4.25 26l-130.896 287
q-9.34961 20 -20.3994 30.5t-30.5986 10.5q-19.5498 0 -34.8496 -10.5t-34.8486 -30.5l-255.843 -287q-13.5996 -14 -16.5742 -26q-2.97559 -12 2.125 -19q6.79883 -7 19.124 -7q12.3242 0 27.624 10z" />
    <glyph glyph-name="Kcommaaccent" unicode="&#x136;" horiz-adv-x="1486" 
d="M492 130q-4 -16 3.5 -27.5t26.5 -17.5l63 -12q13 -6 22.5 -13.5t9.5 -22.5q0 -17 -13 -27t-37 -10h-535q-25 0 -34 9t-9 24t10 24.5t25 14.5l66 12q22 5 33.5 19.5t19.5 40.5q9 29 27.5 97.5t44 161.5t53.5 198.5l56 211t52.5 198t41.5 160t24 95.5q5 23 -2.5 35
t-28.5 16l-63 12q-15 6 -22 13.5t-7 20.5q0 17 13.5 27t36.5 10h541q20 0 29 -9t9 -24t-9.5 -23.5t-27.5 -15.5l-74 -17q-18 -5 -28.5 -15.5t-18.5 -35.5q-9 -29 -28.5 -99.5t-45.5 -167t-55 -205.5t-57 -216.5t-52 -200.5t-40 -156.5t-20 -84.5zM731 700l261 262l228 -691
q18 -52 38.5 -76.5t50.5 -24.5q21 0 38.5 12.5t36.5 38.5q19 17 34 12q11 -3 16 -14.5t-4 -32.5q-29 -67 -77 -115t-109.5 -73.5t-132.5 -25.5q-83 0 -127.5 38t-73.5 129zM498 393l-28 64l747 809q55 59 101.5 96t91 54t92.5 17q69 0 105.5 -38t32.5 -97
q-4 -67 -48.5 -102.5t-117.5 -35.5q-40 0 -70.5 8t-65.5 8q-57 0 -105 -21t-100 -78zM684 -337q-73 0 -97.5 35t-11.5 85q16 59 67.5 96t116.5 37q72 0 104 -44t10 -129q-30 -115 -114 -187.5t-219 -96.5q-18 -4 -26.5 1.5t-8.5 17.5q0 11 8.5 20t25.5 13q66 10 113.5 32.5
t75 49.5t32.5 49q5 21 -18 21h-58z" />
    <glyph glyph-name="kcommaaccent" unicode="&#x137;" horiz-adv-x="1141" 
d="M463 571q8 40 22 94.5t34.5 127.5t47 167t60.5 213q18 65 41.5 104t52 57t61.5 18q38 0 74.5 -28t73.5 -65.5t78.5 -65.5t89.5 -28q63 0 99 37t36 89q0 70 -75 114.5t-220 44.5q-190 0 -327 -62t-226.5 -180.5t-136.5 -288.5l-214 -769q-16 -58 -15 -96.5t26.5 -57.5
t80.5 -19q85 0 144 13.5t90 38.5t31 59q0 26 -9.5 45.5t-9.5 45.5q0 20 3.5 46.5t13 70t28.5 113.5q24 92 62.5 166t85 125.5t94.5 78.5t92 26q39 -2 59 -31t11 -80q-13 -74 -63.5 -132.5t-147.5 -99t-248 -62.5l3 -61q258 39 422 94t246.5 127.5t94.5 163.5
q14 102 -43.5 156t-162.5 55q-83 1 -159 -25.5t-141 -76t-114 -120t-77 -156.5zM519 391l61 -244q21 -87 64.5 -128.5t119.5 -41.5q71 0 129 24.5t101.5 73t67.5 119.5q5 19 0.5 28.5t-14.5 12.5q-7 2 -16 -1t-20 -14q-22 -27 -40.5 -40t-40.5 -13q-25 1 -45.5 20.5
t-34.5 66.5l-65 207zM426 -337q-73 0 -97.5 35t-11.5 85q16 59 67.5 96t116.5 37q72 0 104 -44t10 -129q-30 -115 -114 -187.5t-219 -96.5q-18 -4 -26.5 1.5t-8.5 17.5q0 11 8.5 20t25.5 13q66 10 113.5 32.5t75 49.5t32.5 49q5 21 -18 21h-58z" />
    <glyph glyph-name="kra" unicode="&#x138;" horiz-adv-x="1162" 
d="M527 430l219 203l132 -394q13 -36 29 -53.5t39 -18.5t42.5 12t44.5 47q18 16 36 8q11 -3 14.5 -11.5t0.5 -25.5q-25 -73 -71.5 -122t-107 -73.5t-128.5 -22.5q-69 2 -108 40.5t-60 115.5zM568 816q0 -22 -12 -71.5t-31 -115.5t-40.5 -137t-40.5 -136t-31 -112t-12 -64
q0 -26 10 -45.5t10 -46.5q0 -49 -69.5 -79.5t-194.5 -30.5q-54 0 -80 21t-26.5 60.5t21.5 95.5l153 468q27 74 23.5 102.5t-30.5 28.5q-18 0 -39.5 -14t-56.5 -51q-13 -9 -22.5 -11t-17.5 1q-11 6 -10.5 20.5t12.5 31.5q58 92 151.5 149t190.5 57q71 0 106.5 -31t35.5 -90z
M365 271l-26 52l485 466q56 51 97.5 82.5t78 47t76.5 15.5q59 0 88.5 -35t26.5 -87q-2 -61 -49.5 -95.5t-124.5 -35.5q-40 0 -71.5 6.5t-72.5 5.5q-34 0 -66 -20t-79 -64z" />
    <glyph glyph-name="Lacute" unicode="&#x139;" horiz-adv-x="1176" 
d="M684 0h-652q-25 0 -34 9t-9 24q1 14 10.5 24t24.5 15l67 12q22 6 33 21.5t21 44.5q8 28 26.5 95.5t44 161t54 199.5t56.5 211.5t52.5 197.5t41 157.5t21.5 90.5q5 24 -2 36.5t-26 16.5l-66 14q-14 4 -21.5 12t-7.5 20q0 17 12.5 27.5t36.5 10.5h540q24 0 33 -9t9 -23
q0 -15 -9.5 -25t-24.5 -15l-71 -13q-18 -5 -29 -18t-19 -41q-12 -34 -31.5 -104t-44 -162.5t-51.5 -195t-53 -203.5t-48 -188t-37.5 -149t-20.5 -86q-13 -56 5 -78.5t65 -22.5h82q69 0 127 33t119.5 110.5t140.5 213.5q13 26 25.5 36t26.5 10q19 0 27 -13t7 -35
q-8 -112 -32 -196t-62 -139.5t-87 -83t-109 -27.5q-26 0 -49.5 6t-49.5 12t-62 6zM792 1733q50 56 98 85.5t96 22.5q49 -6 65.5 -44.5t-0.5 -77.5q-20 -57 -68 -88.5t-112 -52.5l-228 -83q-11 -3 -23 -2.5t-17 8.5q-4 8 1.5 18t14.5 20z" />
    <glyph glyph-name="lacute" unicode="&#x13a;" horiz-adv-x="630" 
d="M697 1450q98 0 145.5 -40t47.5 -96q0 -52 -32 -84.5t-91 -32.5q-38 0 -69.5 14.5t-60 34t-55.5 34t-55 14.5q-21 0 -37.5 -11t-26 -28.5t-10.5 -39.5q0 -28 15.5 -55t37 -58t39 -70t21.5 -89t-15 -116l-158 -542q-24 -81 -17.5 -109t30.5 -28q19 0 39.5 13.5t47.5 44.5
q14 14 22.5 17.5t17.5 -0.5q11 -4 12 -19.5t-12 -40.5q-26 -54 -75 -96t-115 -66t-144 -24q-79 0 -116.5 29.5t-40.5 86t21 137.5l271 922q47 157 139.5 227.5t223.5 70.5zM780 1764q50 56 98 85.5t96 22.5q49 -6 65.5 -44.5t-0.5 -77.5q-20 -57 -68 -88.5t-112 -52.5
l-228 -83q-11 -3 -23 -2.5t-17 8.5q-4 8 1.5 18t14.5 20z" />
    <glyph glyph-name="Lcommaaccent" unicode="&#x13b;" horiz-adv-x="1176" 
d="M684 0h-652q-25 0 -34 9t-9 24q1 14 10.5 24t24.5 15l67 12q22 6 33 21.5t21 44.5q8 28 26.5 95.5t44 161t54 199.5t56.5 211.5t52.5 197.5t41 157.5t21.5 90.5q5 24 -2 36.5t-26 16.5l-66 14q-14 4 -21.5 12t-7.5 20q0 17 12.5 27.5t36.5 10.5h540q24 0 33 -9t9 -23
q0 -15 -9.5 -25t-24.5 -15l-71 -13q-18 -5 -29 -18t-19 -41q-12 -34 -31.5 -104t-44 -162.5t-51.5 -195t-53 -203.5t-48 -188t-37.5 -149t-20.5 -86q-13 -56 5 -78.5t65 -22.5h82q69 0 127 33t119.5 110.5t140.5 213.5q13 26 25.5 36t26.5 10q19 0 27 -13t7 -35
q-8 -112 -32 -196t-62 -139.5t-87 -83t-109 -27.5q-26 0 -49.5 6t-49.5 12t-62 6zM458 -337q-73 0 -97.5 35t-11.5 85q16 59 67.5 96t116.5 37q72 0 104 -44t10 -129q-30 -115 -114 -187.5t-219 -96.5q-18 -4 -26.5 1.5t-8.5 17.5q0 11 8.5 20t25.5 13q66 10 113.5 32.5
t75 49.5t32.5 49q5 21 -18 21h-58z" />
    <glyph glyph-name="lcommaaccent" unicode="&#x13c;" horiz-adv-x="630" 
d="M697 1450q98 0 145.5 -40t47.5 -96q0 -52 -32 -84.5t-91 -32.5q-38 0 -69.5 14.5t-60 34t-55.5 34t-55 14.5q-21 0 -37.5 -11t-26 -28.5t-10.5 -39.5q0 -28 15.5 -55t37 -58t39 -70t21.5 -89t-15 -116l-158 -542q-24 -81 -17.5 -109t30.5 -28q19 0 39.5 13.5t47.5 44.5
q14 14 22.5 17.5t17.5 -0.5q11 -4 12 -19.5t-12 -40.5q-26 -54 -75 -96t-115 -66t-144 -24q-79 0 -116.5 29.5t-40.5 86t21 137.5l271 922q47 157 139.5 227.5t223.5 70.5zM153 -337q-73 0 -97.5 35t-11.5 85q16 59 67.5 96t116.5 37q72 0 104 -44t10 -129
q-30 -115 -114 -187.5t-219 -96.5q-18 -4 -26.5 1.5t-8.5 17.5q0 11 8.5 20t25.5 13q66 10 113.5 32.5t75 49.5t32.5 49q5 21 -18 21h-58z" />
    <glyph glyph-name="Lcaron" unicode="&#x13d;" horiz-adv-x="1176" 
d="M684 0h-652q-25 0 -34 9t-9 24q1 14 10.5 24t24.5 15l67 12q22 6 33 21.5t21 44.5q8 28 26.5 95.5t44 161t54 199.5t56.5 211.5t52.5 197.5t41 157.5t21.5 90.5q5 24 -2 36.5t-26 16.5l-66 14q-14 4 -21.5 12t-7.5 20q0 17 12.5 27.5t36.5 10.5h540q24 0 33 -9t9 -23
q0 -15 -9.5 -25t-24.5 -15l-71 -13q-18 -5 -29 -18t-19 -41q-12 -34 -31.5 -104t-44 -162.5t-51.5 -195t-53 -203.5t-48 -188t-37.5 -149t-20.5 -86q-13 -56 5 -78.5t65 -22.5h82q69 0 127 33t119.5 110.5t140.5 213.5q13 26 25.5 36t26.5 10q19 0 27 -13t7 -35
q-8 -112 -32 -196t-62 -139.5t-87 -83t-109 -27.5q-26 0 -49.5 6t-49.5 12t-62 6zM991 1278q23 70 61 115.5t92 53.5q56 11 84 -16.5t24 -65.5q-3 -48 -33 -88.5t-79 -80.5l-182 -167q-10 -8 -21 -11t-19 0q-8 6 -6.5 15.5t4.5 20.5z" />
    <glyph glyph-name="lcaron" unicode="&#x13e;" horiz-adv-x="631" 
d="M665 1196l-264 -911q-24 -81 -17.5 -109t30.5 -28q19 0 39.5 13.5t47.5 44.5q15 14 23 17.5t17 -0.5q11 -4 12 -19.5t-12 -40.5q-26 -54 -74.5 -96t-115 -66t-148.5 -24q-80 0 -116.5 28.5t-38.5 85t23 139.5l267 915q21 69 15.5 95.5t-27.5 26.5q-16 0 -35 -11t-49 -43
q-14 -12 -23 -15t-19 0q-10 5 -10 19.5t12 36.5q33 58 83.5 102.5t113.5 69t133 24.5q73 0 110 -29t42 -85.5t-19 -139.5zM800 1357q23 70 61 115.5t92 53.5q56 11 84 -16.5t24 -65.5q-3 -48 -33 -88.5t-79 -80.5l-182 -167q-10 -8 -21 -11t-19 0q-8 6 -6.5 15.5t4.5 20.5z
" />
    <glyph glyph-name="Ldot" unicode="&#x13f;" horiz-adv-x="1176" 
d="M684 0h-652q-25 0 -34 9t-9 24q1 14 10.5 24t24.5 15l67 12q22 6 33 21.5t21 44.5q8 28 26.5 95.5t44 161t54 199.5t56.5 211.5t52.5 197.5t41 157.5t21.5 90.5q5 24 -2 36.5t-26 16.5l-66 14q-14 4 -21.5 12t-7.5 20q0 17 12.5 27.5t36.5 10.5h540q24 0 33 -9t9 -23
q0 -15 -9.5 -25t-24.5 -15l-71 -13q-18 -5 -29 -18t-19 -41q-12 -34 -31.5 -104t-44 -162.5t-51.5 -195t-53 -203.5t-48 -188t-37.5 -149t-20.5 -86q-13 -56 5 -78.5t65 -22.5h82q69 0 127 33t119.5 110.5t140.5 213.5q13 26 25.5 36t26.5 10q19 0 27 -13t7 -35
q-8 -112 -32 -196t-62 -139.5t-87 -83t-109 -27.5q-26 0 -49.5 6t-49.5 12t-62 6zM1067 652q-78 0 -113.5 42t-17.5 112q19 69 76.5 111.5t135.5 42.5q79 0 114.5 -42.5t16.5 -111.5q-18 -69 -75.5 -111.5t-136.5 -42.5z" />
    <glyph glyph-name="ldot" unicode="&#x140;" horiz-adv-x="847" 
d="M697 1450q98 0 145.5 -40t47.5 -96q0 -52 -32 -84.5t-91 -32.5q-38 0 -69.5 14.5t-60 34t-55.5 34t-55 14.5q-21 0 -37.5 -11t-26 -28.5t-10.5 -39.5q0 -28 15.5 -55t37 -58t39 -70t21.5 -89t-15 -116l-158 -542q-24 -81 -17.5 -109t30.5 -28q19 0 39.5 13.5t47.5 44.5
q14 14 22.5 17.5t17.5 -0.5q11 -4 12 -19.5t-12 -40.5q-26 -54 -75 -96t-115 -66t-144 -24q-79 0 -116.5 29.5t-40.5 86t21 137.5l271 922q47 157 139.5 227.5t223.5 70.5zM752 580q-78 0 -112.5 42.5t-15.5 113.5t76 113.5t133 42.5q79 0 113 -42.5t15 -113.5
q-18 -70 -75 -113t-134 -43z" />
    <glyph glyph-name="Lslash" unicode="&#x141;" horiz-adv-x="1173" 
d="M106 564q-2 10 6 19.5t22 14.5l760 315q13 5 23.5 2t11.5 -12q3 -11 -4.5 -20.5t-22.5 -14.5l-761 -315q-13 -5 -23 -2t-12 13zM687 0h-652q-25 0 -34 9t-9 24q1 14 10.5 24t24.5 15l67 12q22 6 33 21.5t21 44.5q8 28 26.5 95.5t44 161t54 199.5t56.5 211.5t52.5 197.5
t41 157.5t21.5 90.5q5 24 -2 36.5t-26 16.5l-66 14q-14 4 -21.5 12t-7.5 20q0 17 12.5 27.5t36.5 10.5h540q24 0 33 -9t9 -23q0 -15 -9.5 -25t-24.5 -15l-71 -13q-18 -5 -29 -18t-19 -41q-12 -34 -31.5 -104t-44 -162.5t-51.5 -195t-53 -203.5t-48 -188t-37.5 -149
t-20.5 -86q-13 -56 5 -78.5t65 -22.5h82q69 0 127 33t119.5 110.5t140.5 213.5q13 26 25.5 36t26.5 10q19 0 26.5 -13t7.5 -35q-8 -112 -32 -196t-62 -139.5t-87 -83t-109 -27.5q-26 0 -49.5 6t-49.5 12t-62 6z" />
    <glyph glyph-name="lslash" unicode="&#x142;" horiz-adv-x="640" 
d="M34 552q-5 8 0 18.5t15 16.5l276 176l166 51l215 141q11 6 22 5.5t15 -8.5q5 -10 0.5 -19t-15.5 -16l-255 -165l-163 -49l-240 -155q-12 -7 -21.5 -6t-14.5 10zM709 1450q98 0 146 -40t48 -96q0 -52 -32 -84.5t-91 -32.5q-38 0 -70 14.5t-60.5 34t-55 34t-54.5 14.5
q-22 0 -38.5 -11t-26 -28.5t-10.5 -39.5q0 -28 16 -55t37 -58t38.5 -70t22 -89t-15.5 -116l-158 -542q-24 -81 -17.5 -109t30.5 -28q19 0 39.5 13.5t47.5 44.5q15 14 23 17.5t17 -0.5q11 -4 12 -19.5t-12 -40.5q-26 -54 -74.5 -96t-114.5 -66t-145 -24t-116.5 29.5t-40.5 86
t21 137.5l272 922q46 157 139 227.5t223 70.5z" />
    <glyph glyph-name="Nacute" unicode="&#x143;" horiz-adv-x="1361" 
d="M264 283l215 835l-67 -7q39 -106 78.5 -213.5t78 -212l73.5 -199.5t63.5 -175.5t48.5 -139.5q13 -28 18.5 -52.5t3.5 -56.5q-1 -30 13.5 -46t41.5 -16h309q29 0 39 20.5t-2 48.5l-56 173q-11 27 -11 46.5t7 48.5l130 564q15 58 37 100t57 76t85 67q74 48 107 92.5
t33 98.5q1 52 -32 82t-88 30q-70 0 -123.5 -55.5t-81.5 -168.5l-229 -963l77 39q-31 83 -61 162.5t-61 158.5t-62.5 160.5t-64.5 168.5t-67 181t-70 200q-18 38 -39 54t-59 16h-265q-24 0 -35.5 -11.5t-10.5 -29t14 -33.5l56 -141q16 -23 20.5 -53.5t-4.5 -63.5l-199 -776
q-23 -92 -68 -143.5t-96 -66.5l-32 -10q-33 -13 -33 -39q0 -15 10 -24t33 -9h361q19 0 30.5 8.5t11.5 25.5q0 13 -7.5 21.5t-20.5 13.5l-30 8q-62 20 -79.5 71t3.5 135zM1152 1733q50 56 98 85.5t96 22.5q49 -6 65.5 -44.5t-0.5 -77.5q-20 -57 -68 -88.5t-112 -52.5
l-228 -83q-11 -3 -23 -2.5t-17 8.5q-4 8 1.5 18t14.5 20z" />
    <glyph glyph-name="nacute" unicode="&#x144;" horiz-adv-x="1196" 
d="M88 679q-10 5 -10 19.5t11 35.5q51 90 141.5 145t198.5 55q67 0 102.5 -28t35.5 -82q0 -34 -13 -77t-31.5 -90t-37 -95.5t-29.5 -92.5l-16 11q55 129 121.5 216.5t137 139.5t139 75t127.5 23q80 0 119 -34.5t42.5 -97.5t-24.5 -149l-120 -371q-26 -78 -19 -106t30 -28
q16 0 34 12t45 42q15 14 23.5 17.5t17.5 -0.5q11 -5 11.5 -20.5t-12.5 -40.5q-41 -80 -125 -130.5t-204 -50.5q-78 0 -115.5 29.5t-39.5 85.5t24 135l118 362q29 82 21 115.5t-50 33.5q-28 0 -64.5 -21t-75.5 -63.5t-76.5 -107.5t-68.5 -153q-18 -52 -30.5 -93t-18 -71
t-5.5 -50q0 -27 9.5 -46t9.5 -45q0 -50 -69 -80.5t-194 -30.5q-84 0 -101.5 45.5t13.5 135.5l155 466q25 71 19 99t-29 28q-15 0 -34.5 -11.5t-51.5 -45.5q-14 -12 -23 -15t-18 0zM847 1276q45 69 93.5 107t104.5 33q56 -4 74 -41.5t3 -77.5q-17 -51 -58 -87t-103 -67
l-222 -127q-13 -5 -25 -5t-17 7q-7 9 -2 18.5t14 20.5z" />
    <glyph glyph-name="Ncommaaccent" unicode="&#x145;" horiz-adv-x="1361" 
d="M264 283l215 835l-67 -7q39 -106 78.5 -213.5t78 -212l73.5 -199.5t63.5 -175.5t48.5 -139.5q13 -28 18.5 -52.5t3.5 -56.5q-1 -30 13.5 -46t41.5 -16h309q29 0 39 20.5t-2 48.5l-56 173q-11 27 -11 46.5t7 48.5l130 564q15 58 37 100t57 76t85 67q74 48 107 92.5
t33 98.5q1 52 -32 82t-88 30q-70 0 -123.5 -55.5t-81.5 -168.5l-229 -963l77 39q-31 83 -61 162.5t-61 158.5t-62.5 160.5t-64.5 168.5t-67 181t-70 200q-18 38 -39 54t-59 16h-265q-24 0 -35.5 -11.5t-10.5 -29t14 -33.5l56 -141q16 -23 20.5 -53.5t-4.5 -63.5l-199 -776
q-23 -92 -68 -143.5t-96 -66.5l-32 -10q-33 -13 -33 -39q0 -15 10 -24t33 -9h361q19 0 30.5 8.5t11.5 25.5q0 13 -7.5 21.5t-20.5 13.5l-30 8q-62 20 -79.5 71t3.5 135zM549 -337q-73 0 -97.5 35t-11.5 85q16 59 67.5 96t116.5 37q72 0 104 -44t10 -129
q-30 -115 -114 -187.5t-219 -96.5q-18 -4 -26.5 1.5t-8.5 17.5q0 11 8.5 20t25.5 13q66 10 113.5 32.5t75 49.5t32.5 49q5 21 -18 21h-58z" />
    <glyph glyph-name="ncommaaccent" unicode="&#x146;" horiz-adv-x="1196" 
d="M88 679q-10 5 -10 19.5t11 35.5q51 90 141.5 145t198.5 55q67 0 102.5 -28t35.5 -82q0 -34 -13 -77t-31.5 -90t-37 -95.5t-29.5 -92.5l-16 11q55 129 121.5 216.5t137 139.5t139 75t127.5 23q80 0 119 -34.5t42.5 -97.5t-24.5 -149l-120 -371q-26 -78 -19 -106t30 -28
q16 0 34 12t45 42q15 14 23.5 17.5t17.5 -0.5q11 -5 11.5 -20.5t-12.5 -40.5q-41 -80 -125 -130.5t-204 -50.5q-78 0 -115.5 29.5t-39.5 85.5t24 135l118 362q29 82 21 115.5t-50 33.5q-28 0 -64.5 -21t-75.5 -63.5t-76.5 -107.5t-68.5 -153q-18 -52 -30.5 -93t-18 -71
t-5.5 -50q0 -27 9.5 -46t9.5 -45q0 -50 -69 -80.5t-194 -30.5q-84 0 -101.5 45.5t13.5 135.5l155 466q25 71 19 99t-29 28q-15 0 -34.5 -11.5t-51.5 -45.5q-14 -12 -23 -15t-18 0zM460 -337q-73 0 -97.5 35t-11.5 85q16 59 67.5 96t116.5 37q72 0 104 -44t10 -129
q-30 -115 -114 -187.5t-219 -96.5q-18 -4 -26.5 1.5t-8.5 17.5q0 11 8.5 20t25.5 13q66 10 113.5 32.5t75 49.5t32.5 49q5 21 -18 21h-58z" />
    <glyph glyph-name="Ncaron" unicode="&#x147;" horiz-adv-x="1361" 
d="M264 283l215 835l-67 -7q39 -106 78.5 -213.5t78 -212l73.5 -199.5t63.5 -175.5t48.5 -139.5q13 -28 18.5 -52.5t3.5 -56.5q-1 -30 13.5 -46t41.5 -16h309q29 0 39 20.5t-2 48.5l-56 173q-11 27 -11 46.5t7 48.5l130 564q15 58 37 100t57 76t85 67q74 48 107 92.5
t33 98.5q1 52 -32 82t-88 30q-70 0 -123.5 -55.5t-81.5 -168.5l-229 -963l77 39q-31 83 -61 162.5t-61 158.5t-62.5 160.5t-64.5 168.5t-67 181t-70 200q-18 38 -39 54t-59 16h-265q-24 0 -35.5 -11.5t-10.5 -29t14 -33.5l56 -141q16 -23 20.5 -53.5t-4.5 -63.5l-199 -776
q-23 -92 -68 -143.5t-96 -66.5l-32 -10q-33 -13 -33 -39q0 -15 10 -24t33 -9h361q19 0 30.5 8.5t11.5 25.5q0 13 -7.5 21.5t-20.5 13.5l-30 8q-62 20 -79.5 71t3.5 135zM1068 1659l-282 157q-29 18 -51 3q-10 -6 -14.5 -18t5.5 -26l162 -244q14 -18 25.5 -29t33.5 -11
t39.5 11t40.5 29l289 244q16 14 19 26t-3 18q-7 7 -21 6t-33 -9l-364 -157h154z" />
    <glyph glyph-name="ncaron" unicode="&#x148;" horiz-adv-x="1196" 
d="M88 679q-10 5 -10 19.5t11 35.5q51 90 141.5 145t198.5 55q67 0 102.5 -28t35.5 -82q0 -34 -13 -77t-31.5 -90t-37 -95.5t-29.5 -92.5l-16 11q55 129 121.5 216.5t137 139.5t139 75t127.5 23q80 0 119 -34.5t42.5 -97.5t-24.5 -149l-120 -371q-26 -78 -19 -106t30 -28
q16 0 34 12t45 42q15 14 23.5 17.5t17.5 -0.5q11 -5 11.5 -20.5t-12.5 -40.5q-41 -80 -125 -130.5t-204 -50.5q-78 0 -115.5 29.5t-39.5 85.5t24 135l118 362q29 82 21 115.5t-50 33.5q-28 0 -64.5 -21t-75.5 -63.5t-76.5 -107.5t-68.5 -153q-18 -52 -30.5 -93t-18 -71
t-5.5 -50q0 -27 9.5 -46t9.5 -45q0 -50 -69 -80.5t-194 -30.5q-84 0 -101.5 45.5t13.5 135.5l155 466q25 71 19 99t-29 28q-15 0 -34.5 -11.5t-51.5 -45.5q-14 -12 -23 -15t-18 0zM816 1165l-273 206q-12 11 -26.5 11t-26.5 -8q-9 -6 -13.5 -18t4.5 -26l154 -287
q12 -20 24.5 -30.5t35.5 -10.5t41.5 10.5t40.5 30.5l301 287q17 14 20 26t-3 18q-7 8 -21.5 8t-33.5 -11l-381 -206h157z" />
    <glyph glyph-name="Eng" unicode="&#x14a;" horiz-adv-x="1412" 
d="M1323 1224l-257 -987l46 49q-26 79 -54 163t-58 172t-61 179t-61.5 184.5t-62 188.5t-61.5 191q-9 24 -23.5 30t-34.5 6h-322q-22 0 -34.5 -11.5t-14 -30t9.5 -38.5l54 -146q10 -20 12 -35t-7 -43l-233 -856q-18 -69 -60 -105.5t-96 -52.5l-28 -8q-20 -7 -31 -16t-15 -23
q-4 -16 4.5 -25.5t31.5 -9.5h353q22 0 35.5 9.5t18.5 24.5q3 14 -1.5 23.5t-20.5 16.5l-26 8q-47 16 -69 52.5t-3 104.5l250 912l-67 -42q27 -78 55 -156.5t55.5 -157l55 -157t54 -155t52 -150t48.5 -143.5q20 -61 44.5 -95t68.5 -63q31 -24 50.5 -51.5t29.5 -56.5t11.5 -57
t-4.5 -54q-12 -58 -49 -88.5t-82 -30.5q-35 0 -61 14t-51 32t-53.5 31.5t-67.5 13.5q-47 0 -82.5 -23.5t-46.5 -70.5q-10 -45 9 -83t67 -60.5t125 -22.5q138 0 237 77t138 216l289 1089q16 56 38.5 96.5t57 74t85.5 66.5q73 49 106 93.5t33 98.5q1 52 -32 81.5t-88 29.5
q-70 0 -122 -55.5t-84 -167.5z" />
    <glyph glyph-name="eng" unicode="&#x14b;" horiz-adv-x="1143" 
d="M846 -180q-45 -155 -137 -231t-234 -76q-92 0 -137.5 35.5t-45.5 92.5q0 48 34.5 81t93.5 33q48 0 86.5 -21t73 -42t68.5 -21q29 0 49 19t21 51q0 24 -15.5 47t-36 51.5t-37 67.5t-19 92.5t18.5 127.5l137 464q25 84 18 117t-50 33q-28 0 -63.5 -20t-73.5 -62.5t-75 -108
t-67 -155.5q-18 -52 -29.5 -93t-17 -71.5t-5.5 -50.5q0 -26 10 -45.5t10 -46.5q0 -49 -69.5 -79.5t-194.5 -30.5q-84 0 -102.5 46t14.5 131l153 468q27 74 23.5 102.5t-30.5 28.5q-17 0 -39 -14t-58 -51q-12 -9 -21.5 -11t-17.5 1q-11 6 -10.5 20.5t12.5 31.5q58 92 153 149
t193 57q68 0 103 -28t35 -82q0 -34 -13.5 -78t-32 -91.5t-36 -94t-25.5 -86.5l-22 5q61 129 128 216t135.5 139.5t135 76t125.5 23.5q70 0 107 -32.5t43.5 -93.5t-19.5 -146z" />
    <glyph glyph-name="Omacron" unicode="&#x14c;" 
d="M989 1425q138 -1 244.5 -55t173.5 -152t86.5 -233t-17.5 -300q-39 -174 -122.5 -307t-199.5 -223t-253.5 -135t-284.5 -43q-144 1 -252.5 54t-173.5 152t-79.5 239.5t30.5 316.5q37 148 114.5 273.5t187.5 218.5t248 144.5t298 49.5zM640 51q54 -1 111 27.5t113.5 101.5
t111 201t102.5 325q32 129 46 226t14 167q0 88 -21.5 143t-58.5 82t-86 28q-56 3 -114 -29t-114 -105.5t-108 -196.5t-97 -303q-36 -145 -52.5 -249t-17.5 -176q0 -130 46.5 -185t124.5 -57zM751 1629q10 37 26.5 52t42.5 15h479q26 0 34.5 -14.5t-2.5 -51.5
q-9 -36 -25.5 -51t-42.5 -15h-479q-26 0 -34 15t1 50z" />
    <glyph glyph-name="omacron" unicode="&#x14d;" horiz-adv-x="1080" 
d="M629 938q141 -1 239.5 -58t143 -160.5t21.5 -244.5q-17 -109 -65 -201t-124 -158.5t-175.5 -103t-219.5 -35.5q-138 0 -236 56.5t-142.5 160t-23.5 244.5q18 112 67 204.5t125 159t174.5 102t215.5 34.5zM443 60q32 -2 63.5 25.5t62 78t56.5 116t46.5 141t31.5 152.5
q18 93 15 154t-23 92t-56 36q-32 3 -64 -24.5t-62.5 -78t-57 -116.5t-46.5 -142t-31 -154q-18 -93 -15 -154t24 -91.5t56 -34.5zM401 1144q10 37 26.5 52t43.5 15h485q26 0 34.5 -14t-2.5 -52q-9 -37 -25.5 -52.5t-43.5 -15.5h-485q-26 0 -34.5 15.5t1.5 51.5z" />
    <glyph glyph-name="Obreve" unicode="&#x14e;" 
d="M989 1425q138 -1 244.5 -55t173.5 -152t86.5 -233t-17.5 -300q-39 -174 -122.5 -307t-199.5 -223t-253.5 -135t-284.5 -43q-144 1 -252.5 54t-173.5 152t-79.5 239.5t30.5 316.5q37 148 114.5 273.5t187.5 218.5t248 144.5t298 49.5zM640 51q54 -1 111 27.5t113.5 101.5
t111 201t102.5 325q32 129 46 226t14 167q0 88 -21.5 143t-58.5 82t-86 28q-56 3 -114 -29t-114 -105.5t-108 -196.5t-97 -303q-36 -145 -52.5 -249t-17.5 -176q0 -130 46.5 -185t124.5 -57zM1064 1675q75 0 132.5 27t105.5 86q11 11 20 16.5t18 5.5q15 0 19.5 -11t-2.5 -30
q-45 -132 -137 -201.5t-203 -69.5q-109 0 -165.5 69.5t-32.5 201.5q4 19 14.5 30t25.5 11q9 0 15.5 -5.5t10.5 -16.5q19 -62 64.5 -87.5t114.5 -25.5z" />
    <glyph glyph-name="obreve" unicode="&#x14f;" horiz-adv-x="1080" 
d="M629 938q141 -1 239.5 -58t143 -160.5t21.5 -244.5q-17 -109 -65 -201t-124 -158.5t-175.5 -103t-219.5 -35.5q-138 0 -236 56.5t-142.5 160t-23.5 244.5q18 112 67 204.5t125 159t174.5 102t215.5 34.5zM443 60q32 -2 63.5 25.5t62 78t56.5 116t46.5 141t31.5 152.5
q18 93 15 154t-23 92t-56 36q-32 3 -64 -24.5t-62.5 -78t-57 -116.5t-46.5 -142t-31 -154q-18 -93 -15 -154t24 -91.5t56 -34.5zM718 1198q76 0 134 32.5t111 97.5q22 22 40 22q15 0 19.5 -11t-2.5 -30q-50 -147 -145 -222t-205 -75q-109 0 -165.5 75t-30.5 222q4 19 15 30
t26 11q19 0 26 -22q21 -69 65 -99.5t112 -30.5z" />
    </font>
</defs>
</svg>
