<?xml version="1.0" standalone="no"?>
<!DOCTYPE svg PUBLIC "-//W3C//DTD SVG 1.1//EN" "http://www.w3.org/Graphics/SVG/1.1/DTD/svg11.dtd" >
<svg xmlns="http://www.w3.org/2000/svg" xmlns:xlink="http://www.w3.org/1999/xlink" version="1.1">
<metadata>
Created by FontForge 20201107 at Mon Oct 26 20:10:00 2020
 By 
Copyright 2020 The Fraunces Project Authors (github.com/undercasetype/Fraunces)
</metadata>
<defs>
<font id="Fraunces72pt-Light" horiz-adv-x="1050" >
  <font-face 
    font-family="Fraunces 72pt Light"
    font-weight="300"
    font-stretch="normal"
    units-per-em="2000"
    panose-1="0 0 0 0 0 0 0 0 0 0"
    ascent="1600"
    descent="-400"
    x-height="899"
    cap-height="1400"
    bbox="-117 -500 2553.8 2086.5"
    underline-thickness="50"
    underline-position="-325"
    unicode-range="U+0020-FB04"
  />
<missing-glyph horiz-adv-x="1000" 
d="M100 -480v2010h800v-2010h-800zM200 -380h600v1810h-600v-1810z" />
    <glyph glyph-name="f_f" unicode="ff" horiz-adv-x="1167" 
d="M348 84q0 -16 9 -26.5t28 -12.5l111 -11q12 -1 18 -6t6 -12q0 -16 -23 -16h-385q-9 0 -14.5 4.5t-5.5 10.5q0 8 5.5 12t16.5 6l68 11q18 4 27.5 13.5t9.5 24.5v721q0 15 -6.5 24.5t-25.5 13.5l-92 17q-17 5 -23 10t-6 11q0 7 5 10.5t14 3.5h160l-24 -22v29q0 37 -13.5 71
t-31.5 69.5t-31.5 76t-13.5 90.5q0 106 67.5 171t177.5 65q69 0 117.5 -24t74 -63t25.5 -84q0 -41 -19 -62.5t-49 -21.5t-49.5 21t-19.5 58v45q0 48 -25 74t-75 26q-67 -1 -105 -43.5t-38 -118.5q0 -42 13 -79.5t32.5 -71.5t39.5 -66t33 -64.5t13 -67.5v-29l-16 21h213
q11 0 16.5 -3.5t5.5 -11.5q0 -10 -10.5 -16.5t-32.5 -6.5h-172v-771zM931 84q0 -16 9 -26.5t28 -12.5l111 -11q12 -1 18 -6t6 -12q0 -16 -23 -16h-385q-9 0 -14.5 4.5t-5.5 10.5q0 8 5.5 12t16.5 6l68 11q18 4 27.5 13.5t9.5 24.5v721q0 15 -6.5 24.5t-25.5 13.5l-92 17
q-17 5 -23 10t-6 11q0 7 5 10.5t14 3.5h160l-24 -22v29q0 37 -13.5 71t-31.5 69.5t-31.5 76t-13.5 90.5q0 106 67.5 171t177.5 65q69 0 117.5 -24t74 -63t25.5 -84q0 -41 -19 -62.5t-49 -21.5t-49.5 21t-19.5 58v45q0 48 -25 74t-75 26q-67 -1 -105 -43.5t-38 -118.5
q0 -42 13 -79.5t32.5 -71.5t39.5 -66t33 -64.5t13 -67.5v-29l-16 21h213q11 0 16.5 -3.5t5.5 -11.5q0 -10 -10.5 -16.5t-32.5 -6.5h-172v-771z" />
    <glyph glyph-name="fi" unicode="fi" horiz-adv-x="1078" 
d="M348 84q0 -16 9 -26.5t28 -12.5l111 -11q12 -1 18 -6t6 -12q0 -16 -23 -16h-385q-9 0 -14.5 4.5t-5.5 10.5q0 8 5.5 12t16.5 6l68 11q18 4 27.5 13.5t9.5 24.5v721q0 15 -6.5 24.5t-25.5 13.5l-92 17q-17 5 -23 10t-6 11q0 7 5 10.5t14 3.5h160l-24 -22v29q0 37 -13.5 71
t-31.5 69.5t-31.5 76t-13.5 90.5q0 106 67.5 171t177.5 65q69 0 117.5 -24t74 -63t25.5 -84q0 -41 -19 -62.5t-49 -21.5t-49.5 21t-19.5 58v45q0 48 -25 74t-75 26q-67 -1 -105 -43.5t-38 -118.5q0 -42 13 -79.5t32.5 -71.5t39.5 -66t33 -64.5t13 -67.5v-29l-16 21h213
q11 0 16.5 -3.5t5.5 -11.5q0 -10 -10.5 -16.5t-32.5 -6.5h-172v-771zM910 883v-799q0 -17 9 -27t26 -14l61 -10q11 -2 16.5 -6t5.5 -12q0 -6 -5.5 -10.5t-17.5 -4.5h-324q-10 0 -15.5 4.5t-5.5 10.5q0 7 5 11t15 6l66 11q17 4 26 13.5t9 26.5v705q0 13 -5 19t-17 7l-87 1
q-10 0 -14 4t-4 9q0 7 4.5 11t15.5 8l168 52q17 5 27 7t16 2q13 0 19 -6.5t6 -18.5zM830 1117q-42 0 -69.5 28t-27.5 69q0 42 27.5 70t69.5 28q44 0 71.5 -28.5t27.5 -69.5t-28 -69t-71 -28z" />
    <glyph glyph-name="fl" unicode="fl" horiz-adv-x="1084" 
d="M348 84q0 -16 9 -26.5t28 -12.5l111 -11q12 -1 18 -6t6 -12q0 -16 -23 -16h-385q-9 0 -14.5 4.5t-5.5 10.5q0 8 5.5 12t16.5 6l68 11q18 4 27.5 13.5t9.5 24.5v721q0 15 -6.5 24.5t-25.5 13.5l-92 17q-17 5 -23 10t-6 11q0 7 5 10.5t14 3.5h160l-24 -22v29q0 37 -13.5 71
t-31.5 69.5t-31.5 76t-13.5 90.5q0 106 67.5 171t177.5 65q69 0 117.5 -24t74 -63t25.5 -84q0 -41 -19 -62.5t-49 -21.5t-49.5 21t-19.5 58v45q0 48 -25 74t-75 26q-67 -1 -105 -43.5t-38 -118.5q0 -42 13 -79.5t32.5 -71.5t39.5 -66t33 -64.5t13 -67.5v-29l-16 21h213
q11 0 16.5 -3.5t5.5 -11.5q0 -10 -10.5 -16.5t-32.5 -6.5h-172v-771zM911 1436v-1352q0 -17 8.5 -27t26.5 -14l61 -10q11 -2 16.5 -6t5.5 -12q0 -6 -6 -10.5t-17 -4.5h-324q-10 0 -15.5 4.5t-5.5 10.5q0 7 6 11.5t17 7.5l63 9q17 4 26 13.5t9 26.5v1258q0 13 -5 19t-17 7
h-87q-10 1 -14 5t-4 9q0 7 4.5 11t15.5 8l168 51q17 6 27 8t16 2q13 0 19 -6.5t6 -18.5z" />
    <glyph glyph-name="f_f_i" unicode="ffi" horiz-adv-x="1662" 
d="M348 84q0 -16 9 -26.5t28 -12.5l111 -11q12 -1 18 -6t6 -12q0 -16 -23 -16h-385q-9 0 -14.5 4.5t-5.5 10.5q0 8 5.5 12t16.5 6l68 11q18 4 27.5 13.5t9.5 24.5v721q0 15 -6.5 24.5t-25.5 13.5l-92 17q-17 5 -23 10t-6 11q0 7 5 10.5t14 3.5h160l-24 -22v29q0 37 -13.5 71
t-31.5 69.5t-31.5 76t-13.5 90.5q0 106 67.5 171t177.5 65q69 0 117.5 -24t74 -63t25.5 -84q0 -41 -19 -62.5t-49 -21.5t-49.5 21t-19.5 58v45q0 48 -25 74t-75 26q-67 -1 -105 -43.5t-38 -118.5q0 -42 13 -79.5t32.5 -71.5t39.5 -66t33 -64.5t13 -67.5v-29l-16 21h213
q11 0 16.5 -3.5t5.5 -11.5q0 -10 -10.5 -16.5t-32.5 -6.5h-172v-771zM931 84q0 -16 9 -26.5t28 -12.5l111 -11q12 -1 18 -6t6 -12q0 -16 -23 -16h-385q-9 0 -14.5 4.5t-5.5 10.5q0 8 5.5 12t16.5 6l68 11q18 4 27.5 13.5t9.5 24.5v721q0 15 -6.5 24.5t-25.5 13.5l-92 17
q-17 5 -23 10t-6 11q0 7 5 10.5t14 3.5h160l-24 -22v29q0 37 -13.5 71t-31.5 69.5t-31.5 76t-13.5 90.5q0 106 67.5 171t177.5 65q69 0 117.5 -24t74 -63t25.5 -84q0 -41 -19 -62.5t-49 -21.5t-49.5 21t-19.5 58v45q0 48 -25 74t-75 26q-67 -1 -105 -43.5t-38 -118.5
q0 -42 13 -79.5t32.5 -71.5t39.5 -66t33 -64.5t13 -67.5v-29l-16 21h213q11 0 16.5 -3.5t5.5 -11.5q0 -10 -10.5 -16.5t-32.5 -6.5h-172v-771zM1494 883v-799q0 -17 9 -27t26 -14l61 -10q11 -2 16.5 -6t5.5 -12q0 -6 -5.5 -10.5t-17.5 -4.5h-324q-10 0 -15.5 4.5t-5.5 10.5
q0 7 5 11t15 6l66 11q17 4 26 13.5t9 26.5v705q0 13 -5 19t-17 7l-87 1q-10 0 -14 4t-4 9q0 7 4.5 11t15.5 8l168 52q17 5 27 7t16 2q13 0 19 -6.5t6 -18.5zM1414 1117q-42 0 -69.5 28t-27.5 69q0 42 27.5 70t69.5 28q44 0 71.5 -28.5t27.5 -69.5t-28 -69t-71 -28z" />
    <glyph glyph-name="f_f_l" unicode="ffl" horiz-adv-x="1668" 
d="M348 84q0 -16 9 -26.5t28 -12.5l111 -11q12 -1 18 -6t6 -12q0 -16 -23 -16h-385q-9 0 -14.5 4.5t-5.5 10.5q0 8 5.5 12t16.5 6l68 11q18 4 27.5 13.5t9.5 24.5v721q0 15 -6.5 24.5t-25.5 13.5l-92 17q-17 5 -23 10t-6 11q0 7 5 10.5t14 3.5h160l-24 -22v29q0 37 -13.5 71
t-31.5 69.5t-31.5 76t-13.5 90.5q0 106 67.5 171t177.5 65q69 0 117.5 -24t74 -63t25.5 -84q0 -41 -19 -62.5t-49 -21.5t-49.5 21t-19.5 58v45q0 48 -25 74t-75 26q-67 -1 -105 -43.5t-38 -118.5q0 -42 13 -79.5t32.5 -71.5t39.5 -66t33 -64.5t13 -67.5v-29l-16 21h213
q11 0 16.5 -3.5t5.5 -11.5q0 -10 -10.5 -16.5t-32.5 -6.5h-172v-771zM931 84q0 -16 9 -26.5t28 -12.5l111 -11q12 -1 18 -6t6 -12q0 -16 -23 -16h-385q-9 0 -14.5 4.5t-5.5 10.5q0 8 5.5 12t16.5 6l68 11q18 4 27.5 13.5t9.5 24.5v721q0 15 -6.5 24.5t-25.5 13.5l-92 17
q-17 5 -23 10t-6 11q0 7 5 10.5t14 3.5h160l-24 -22v29q0 37 -13.5 71t-31.5 69.5t-31.5 76t-13.5 90.5q0 106 67.5 171t177.5 65q69 0 117.5 -24t74 -63t25.5 -84q0 -41 -19 -62.5t-49 -21.5t-49.5 21t-19.5 58v45q0 48 -25 74t-75 26q-67 -1 -105 -43.5t-38 -118.5
q0 -42 13 -79.5t32.5 -71.5t39.5 -66t33 -64.5t13 -67.5v-29l-16 21h213q11 0 16.5 -3.5t5.5 -11.5q0 -10 -10.5 -16.5t-32.5 -6.5h-172v-771zM1495 1436v-1352q0 -17 8.5 -27t26.5 -14l61 -10q11 -2 16.5 -6t5.5 -12q0 -6 -6 -10.5t-17 -4.5h-324q-10 0 -15.5 4.5
t-5.5 10.5q0 7 6 11.5t17 7.5l63 9q17 4 26 13.5t9 26.5v1258q0 13 -5 19t-17 7h-87q-10 1 -14 5t-4 9q0 7 4.5 11t15.5 8l168 51q17 6 27 8t16 2q13 0 19 -6.5t6 -18.5z" />
    <glyph glyph-name=".notdef" horiz-adv-x="1000" 
d="M100 -480v2010h800v-2010h-800zM200 -380h600v1810h-600v-1810z" />
    <glyph glyph-name=".null" horiz-adv-x="0" 
 />
    <glyph glyph-name="nonmarkingreturn" horiz-adv-x="666" 
 />
    <glyph glyph-name="space" unicode=" " horiz-adv-x="407" 
 />
    <glyph glyph-name="exclam" unicode="!" horiz-adv-x="487" 
d="M244 1453q44 0 63.5 -22t19.5 -56q0 -15 -1.5 -32t-4.5 -34l-58 -892q-2 -13 -6.5 -20t-13.5 -7t-14 7t-7 20l-57 892q-3 18 -4.5 33.5t-1.5 33.5q0 34 21 55.5t64 21.5zM241 -10q-28 0 -50.5 14.5t-36 38.5t-13.5 53t13.5 53.5t36.5 38.5t50 14q28 0 51 -14.5t36 -38.5
t13 -53t-13 -53t-35.5 -38.5t-51.5 -14.5z" />
    <glyph glyph-name="quotedbl" unicode="&#x22;" horiz-adv-x="512" 
d="M387 959q-8 0 -14 6t-8 19l-39 454q-7 55 10.5 83.5t54.5 28.5q38 0 54.5 -27.5t8.5 -83.5l-45 -456q-1 -13 -7 -18.5t-15 -5.5zM118 959q-8 0 -14 6t-8 19l-39 454q-7 55 10.5 83.5t54.5 28.5q38 0 54.5 -27.5t8.5 -83.5l-45 -456q-1 -13 -7 -18.5t-15 -5.5z" />
    <glyph glyph-name="numbersign" unicode="#" horiz-adv-x="1174" 
d="M450 691q-6 -24 -20 -74.5t-31.5 -116.5t-37 -137t-37.5 -138t-32 -120t-22 -82q-9 -31 -33 -26q-13 3 -17.5 14.5t-0.5 26.5q7 25 22 75.5t34.5 116.5t41 137.5t41.5 138t35 118.5t22 78q7 27 20.5 78.5t30.5 117t35 136.5t35 137.5t31 119.5t21 83q9 31 33 26
q14 -3 18 -14t0 -27q-8 -27 -22.5 -79t-33 -118t-39 -136.5t-39 -136.5t-33.5 -118t-22 -80zM631 911q23 0 69.5 1t104 2t115.5 2t105.5 2t72.5 1q16 0 26 -6.5t10 -18.5t-10 -18.5t-26 -6.5q-23 0 -70 0.5t-105 2l-116 3t-105 2.5t-71 1q-24 -1 -73 -1.5t-109.5 -2
t-121 -2.5t-109 -1.5t-72.5 -0.5q-15 0 -25 6.5t-10 18.5t10 18.5t25 6.5q25 0 75 -1t110 -2.5t120.5 -2.5t108.5 -2t71 -1zM557 491q-24 0 -73 -0.5t-109.5 -2t-121 -2.5t-109 -1.5t-72.5 -0.5q-15 0 -25 6.5t-11 18.5q0 12 10.5 18.5t25.5 6.5q25 0 74.5 -1t110 -2.5
t120.5 -2.5t108.5 -2t71.5 -1t69 1t104 2l116 2t105.5 2t72.5 1q16 0 26 -6.5t10 -18.5t-10 -18.5t-26 -6.5q-24 0 -70.5 0.5t-104.5 2t-116.5 3t-105.5 2t-70 0.5zM590 23q-9 -31 -33 -26q-13 3 -17.5 14.5t0.5 26.5q6 25 21 75.5t34.5 116.5t41 137.5t41.5 138t35 118.5
t22 78q7 27 20.5 78.5t30.5 117t35 136.5t35 137.5t31 119.5t21 82q9 32 33 27q14 -3 18 -14t0 -27q-8 -27 -22.5 -79t-33 -118t-39 -136.5t-39 -136.5t-33 -118t-22.5 -80q-6 -24 -20 -74.5t-31.5 -116.5t-37 -137t-37.5 -138t-32 -120t-22 -82z" />
    <glyph glyph-name="dollar" unicode="$" horiz-adv-x="1075" 
d="M560 1391q124 0 214.5 -39t139.5 -106.5t49 -151.5q0 -39 -18.5 -62t-50.5 -23q-34 0 -55 20t-21 52v47q0 103 -70 169t-192 66q-96 0 -167 -37t-110 -101.5t-39 -150.5q0 -70 31.5 -128t104.5 -106.5t197 -89.5q144 -48 230 -107.5t124.5 -130.5t38.5 -156
q0 -102 -51 -181t-146 -124t-226 -45q-126 0 -224.5 43.5t-154.5 115t-56 157.5q0 40 20 65t53 25q31 0 50.5 -20t19.5 -54v-60q0 -103 78 -173t214 -70t218.5 72t82.5 201q0 111 -72 187t-256 136q-148 50 -234.5 108.5t-123.5 130t-37 159.5q0 100 54.5 182t153.5 131
t231 49zM565 711h-34q1 204 -2 340t-7.5 220.5t-7.5 134t-3 80.5q0 20 11.5 31t27.5 11t27 -11t11 -32q0 -29 -3.5 -77t-8 -133.5t-8 -222t-3.5 -341.5zM525 680h34q0 -201 3.5 -335.5t8 -218t8 -131.5t3.5 -77q0 -21 -11 -31.5t-27 -10.5q-17 0 -28 10.5t-11 31.5
q0 31 3 79.5t7 132t7 217t3 333.5z" />
    <glyph glyph-name="percent" unicode="%" horiz-adv-x="1277" 
d="M355 1422q129 0 204.5 -94.5t75.5 -254.5q0 -113 -35.5 -193.5t-99 -123t-147.5 -42.5q-135 0 -209.5 94.5t-74.5 262.5q0 159 75 255t211 96zM526 1066q0 172 -45.5 248.5t-127.5 76.5q-83 0 -129 -77.5t-46 -236.5q0 -177 46.5 -254t129.5 -77q51 0 89.5 31.5
t60.5 101.5t22 187zM698 763q-7 -10 -13 -12.5t-14 2.5q-8 4 -8 11.5t5 17.5q12 21 39 68.5t62 110t74 130t74 130t62.5 109t38.5 66.5q10 16 24.5 21t29.5 -5q14 -8 16 -22t-7 -30q-10 -16 -38.5 -60.5t-67 -105t-81 -126.5t-82.5 -128t-70 -109t-44 -68zM583 635
q7 10 14 12.5t14 -1.5q8 -4 8 -12t-6 -18q-12 -21 -39 -68.5t-62.5 -110.5t-74 -131t-74 -131t-62.5 -110t-39 -67q-9 -15 -24 -19.5t-30 3.5q-14 8 -16.5 22.5t7.5 29.5q11 17 39 62t66.5 106t81.5 127.5t83 128.5t70.5 109t43.5 68zM928 688q129 0 204.5 -94.5
t75.5 -254.5q0 -113 -35.5 -193.5t-99 -123t-147.5 -42.5q-135 0 -209.5 94.5t-74.5 262.5q0 159 75 255t211 96zM1099 332q0 172 -45.5 248.5t-127.5 76.5q-83 0 -129 -77.5t-46 -236.5q0 -177 46.5 -254t129.5 -77q51 0 89.5 31.5t60.5 101.5t22 187z" />
    <glyph glyph-name="ampersand" unicode="&#x26;" horiz-adv-x="1791" 
d="M1267 -30q129 0 222.5 58t144.5 170.5t51 274.5q0 206 -65.5 390.5t-198.5 330.5q-137 152 -304 232.5t-364 80.5q-175 0 -304 -59t-199.5 -167t-70.5 -255q0 -87 31 -138t81 -51q33 0 54 19.5t21 49.5q0 32 -12.5 53.5t-29 40.5t-29 45t-12.5 66q0 101 53 182.5
t157 130.5t257 49q191 0 351 -79t290 -225q133 -148 194 -329t61 -373q0 -146 -42.5 -242t-117.5 -143.5t-172 -47.5q-70 0 -134 32t-129.5 100.5t-143.5 178.5q-64 93 -110.5 189.5t-71 193.5t-24.5 189q0 134 55.5 211t137.5 77q62 0 97.5 -55.5t35.5 -144.5
q0 -103 -38.5 -173.5t-108.5 -111t-164 -54.5l5 -24q131 15 226 60.5t146 120t51 175.5q0 70 -30 124t-84.5 84.5t-125.5 30.5q-100 0 -172.5 -47.5t-112 -130t-39.5 -187.5q0 -95 22.5 -192t69 -196t116.5 -203q75 -110 147.5 -178.5t153.5 -100.5t178 -32zM1020 172
l19 -18q152 103 225.5 210.5t73.5 222.5q0 56 -24.5 86.5t-60.5 30.5q-33 0 -53.5 -22t-20.5 -54q0 -25 11.5 -45.5t22.5 -43t11 -54.5q0 -41 -19.5 -90t-64 -104.5t-120.5 -118.5zM632 634l1 26q-153 -16 -254 -70.5t-150.5 -137t-49.5 -184.5q0 -136 92.5 -216t259.5 -80
q90 0 162.5 18.5t133 52t113.5 78.5l-20 24q-64 -51 -138.5 -83t-178.5 -32q-129 0 -205.5 75t-76.5 206q0 72 34 139.5t103 116.5t174 67z" />
    <glyph glyph-name="quotesingle" unicode="'" horiz-adv-x="243" 
d="M118 959q-8 0 -14 6t-8 19l-39 454q-7 55 10.5 83.5t54.5 28.5q38 0 54.5 -27.5t8.5 -83.5l-45 -456q-1 -13 -7 -18.5t-15 -5.5z" />
    <glyph glyph-name="parenleft" unicode="(" horiz-adv-x="623" 
d="M136 612q0 191 57 359.5t153.5 294t213.5 188.5q38 18 47 5q4 -6 -1 -14.5t-23 -25.5q-100 -85 -172.5 -209t-111 -276t-38.5 -322t38.5 -322.5t111 -276t172.5 -209.5q18 -17 23 -25t1 -15q-9 -13 -47 6q-117 63 -213.5 188.5t-153.5 293.5t-57 360z" />
    <glyph glyph-name="parenright" unicode=")" horiz-adv-x="623" 
d="M486 611q0 -191 -57 -359.5t-153.5 -294t-213.5 -188.5q-38 -18 -47 -5q-4 6 1 14.5t23 25.5q100 85 172.5 209t111 276t38.5 322t-38.5 322.5t-111 276t-172.5 209.5q-18 17 -23 25t-1 15q9 13 47 -6q117 -63 213.5 -188.5t153.5 -293.5t57 -360z" />
    <glyph glyph-name="asterisk" unicode="*" horiz-adv-x="1209" 
d="M619 1014h-25q0 102 -8 173.5t-19 121t-19 84t-8 62.5q0 78 67 78q32 0 49 -19.5t17 -58.5q0 -28 -8 -62.5t-18.5 -84t-19 -121t-8.5 -173.5zM610 1026l-7 -23q-97 31 -168 45.5t-121 19.5t-86 8t-62 12q-74 24 -54 87q10 30 34 40t61 -2q27 -8 57.5 -26.5t74 -43.5
t109.5 -55t162 -62zM596 1021l20 -14q-60 -82 -95.5 -145t-55.5 -109.5t-33.5 -79t-30.5 -54.5q-46 -64 -101 -25q-25 19 -27.5 45t20.5 58q16 23 43 45.5t64.5 56.5t86.5 87t109 135zM596 1007l20 14q60 -82 109 -135t87 -87t65 -56.5t43 -45.5q46 -64 -8 -103
q-26 -18 -52 -12.5t-48 37.5q-17 22 -30.5 54.5t-34 79t-56 109t-95.5 145.5zM603 1026q97 31 162.5 61t109 55.5t74 44t57.5 26.5q74 24 95 -39q10 -30 -3.5 -52t-50.5 -34q-26 -9 -62 -12t-86 -8t-121 -19.5t-168 -46.5z" />
    <glyph glyph-name="plus" unicode="+" horiz-adv-x="1015" 
d="M121 682q0 11 8.5 17t19.5 6h718q11 0 19 -6t8 -17t-8 -17.5t-19 -6.5h-718q-11 0 -19.5 6.5t-8.5 17.5zM505 305q-11 0 -17 8.5t-6 19.5v718q0 11 6 19t17 8t17.5 -8t6.5 -19v-718q0 -11 -6.5 -19.5t-17.5 -8.5z" />
    <glyph glyph-name="comma" unicode="," horiz-adv-x="377" 
d="M196 2q-49 0 -74 28t-25 70q0 45 28.5 74.5t70.5 29.5q48 0 79.5 -41t31.5 -129q0 -76 -18 -134t-47.5 -98.5t-64.5 -65t-70 -34.5q-12 -2 -18 1t-8 9q-1 8 4.5 13.5t20.5 11.5q49 21 82 56.5t50 81t17 92.5q0 17 -7.5 26t-28.5 9h-23z" />
    <glyph glyph-name="hyphen" unicode="-" horiz-adv-x="671" 
d="M567 594q26 0 17 -23l-16 -56q-4 -11 -10 -14.5t-19 -3.5h-435q-26 0 -17 23l16 55q5 12 11 15.5t18 3.5h435z" />
    <glyph glyph-name="period" unicode="." horiz-adv-x="366" 
d="M183 -15q-28 0 -50.5 15t-36 39t-13.5 52q0 30 13.5 54.5t36.5 38.5t50 14q29 0 51.5 -14.5t35.5 -38.5t13 -53t-13 -53t-35.5 -39t-51.5 -15z" />
    <glyph glyph-name="slash" unicode="/" horiz-adv-x="835" 
d="M440 605q-16 -40 -40 -105t-52.5 -146t-59 -168t-60 -170t-55 -152.5t-44.5 -115.5q-8 -16 -21.5 -22.5t-29.5 0.5q-17 7 -21.5 21.5t2.5 31.5q18 43 45.5 111t60.5 149t67.5 166.5t66.5 165.5t58.5 145t42.5 105q17 41 41.5 107.5t53 149t59.5 170t60.5 170.5t55 152
t43.5 113q8 16 21.5 22.5t29.5 -1.5q17 -6 21.5 -20.5t-2.5 -31.5q-19 -46 -47 -115t-61.5 -151t-67.5 -167.5t-66.5 -165.5t-58.5 -144.5t-42 -103.5z" />
    <glyph glyph-name="zero" unicode="0" horiz-adv-x="1194" 
d="M599 1421q159 0 272.5 -86t174.5 -247.5t61 -387.5q0 -229 -64 -391t-180 -246.5t-270 -84.5q-161 0 -274.5 87.5t-172.5 250.5t-59 390q0 222 63 382t178.5 246.5t270.5 86.5zM956 665q0 250 -42 409t-123 235t-196 76q-114 0 -193.5 -73.5t-121.5 -217t-42 -354.5
q0 -254 42 -414.5t122.5 -236t196.5 -75.5q107 0 187.5 69t125 213.5t44.5 368.5z" />
    <glyph glyph-name="one" unicode="1" horiz-adv-x="772" 
d="M121 1300l168 -3q23 0 33 -10.5t10 -39.5v-1140q0 -23 -14 -35.5t-38 -16.5l-165 -18q-26 -4 -26 -19q0 -8 7 -13t19 -5h567q14 0 19.5 4.5t5.5 12.5q0 14 -24 18l-154 20q-26 4 -38 17t-12 36v1308q0 28 -22 28q-9 0 -16 -5.5t-13 -17.5q-26 -48 -57 -63t-82 -16
l-167 -2q-14 0 -21.5 -5.5t-7.5 -14.5q0 -10 7 -15t21 -5z" />
    <glyph glyph-name="two" unicode="2" horiz-adv-x="1080" 
d="M199 209l-24 23l269 221q138 111 218.5 206.5t115.5 189.5t35 200q0 113 -35.5 188.5t-97 113t-139.5 37.5q-133 0 -198 -69.5t-65 -168.5v-86q0 -43 -22 -66t-57 -23t-55 24t-20 70q0 92 51 172t148.5 130t233.5 50q132 0 222 -47.5t137.5 -129.5t47.5 -187
q0 -97 -40.5 -186.5t-138.5 -190t-271 -231.5zM96 73q0 87 61.5 147t171.5 60q59 0 120 -24.5t122 -57t120.5 -57t115.5 -24.5q72 0 112 32t65 113q4 9 9.5 12.5t11.5 2.5q7 -1 11 -7t2 -18q-17 -102 -50 -161.5t-81 -85t-112 -25.5q-52 0 -97 16.5t-90 53t-98 96.5
q-57 52 -92.5 73.5t-65.5 21.5q-42 0 -64 -34.5t-25 -119.5q-2 -39 -12.5 -62t-27.5 -33t-40 -10q-29 0 -48 24t-19 67z" />
    <glyph glyph-name="three" unicode="3" horiz-adv-x="984" 
d="M389 746l-11 18q10 1 24 1t28.5 0.5t25.5 0.5q146 0 250 -42t159 -126t55 -210q0 -123 -56 -215.5t-156 -143.5t-233 -51q-129 0 -218.5 38.5t-136.5 104.5t-47 148q0 53 23 82t59 29q32 0 50 -22.5t18 -60.5v-87q0 -91 65.5 -144.5t193.5 -53.5q87 1 154 40.5t105 116.5
t38 187q0 186 -88.5 277.5t-258.5 91.5h-63q-15 0 -21.5 5t-6.5 15q0 7 4.5 14.5t18.5 22.5l463 530l4 -31h-588q-21 0 -34 -9t-18 -30l-35 -140q-2 -9 -9 -14.5t-16 -5.5q-9 1 -14.5 7.5t-4.5 19.5l32 254q2 17 13.5 27t33.5 10h714q15 0 22 -5t7 -14q0 -8 -6 -17.5
t-24 -30.5z" />
    <glyph glyph-name="four" unicode="4" horiz-adv-x="1079" 
d="M634 815q0 13 3 22t12 19l93 95q8 8 12.5 11.5t10.5 3.5t9.5 -4.5t3.5 -13.5v-849q0 -21 12.5 -32t35.5 -15l112 -15q11 -2 17.5 -7t6.5 -12q0 -8 -6 -13t-19 -5h-465q-25 0 -25 17q0 15 25 20l115 16q23 4 35 14.5t12 31.5v716zM556 1060q22 25 32 46t10 50q0 23 -8 43
t-18.5 38.5t-18.5 38.5t-8 44q0 30 12 53.5t35.5 37.5t56.5 14q47 0 75.5 -32.5t28.5 -86.5q0 -32 -10 -64t-34.5 -70t-70.5 -89l-563 -699l-6 21h903q11 0 17.5 -4t6.5 -15q0 -20 -26 -20h-907q-14 0 -22 6t-8 15q0 7 4 15t15 19z" />
    <glyph glyph-name="five" unicode="5" horiz-adv-x="1038" 
d="M116 280q0 43 23 71t58 28q33 0 51.5 -22.5t18.5 -61.5v-91q0 -86 65 -139.5t191 -53.5q125 0 209 99t84 296q0 192 -75.5 293t-201.5 101q-65 0 -123 -26.5t-105.5 -73.5t-80.5 -110q-8 -11 -16 -16t-18 -5q-12 0 -18.5 6.5t-6.5 18.5v796q0 16 9 26t28 10q11 0 24 -5
t38 -21q49 -29 105 -50.5t119.5 -33.5t134.5 -12q101 0 177.5 33.5t106.5 100.5q8 10 14 12.5t13 0.5q6 -1 9 -7t0 -18q-17 -82 -63 -137t-117 -83t-165 -28q-75 0 -147.5 15t-138 42.5t-120.5 65.5l17 16v-706l-16 -4q38 71 93.5 123t125 80.5t150.5 28.5q118 0 206 -53
t136.5 -147t48.5 -217q0 -135 -57 -235t-157.5 -154.5t-231.5 -54.5q-121 0 -210.5 40.5t-138 109t-48.5 152.5z" />
    <glyph glyph-name="six" unicode="6" horiz-adv-x="1092" 
d="M622 1421q113 0 192.5 -38t122 -100t42.5 -136q0 -52 -21.5 -79.5t-62.5 -27.5q-39 0 -60.5 24t-21.5 71v70q0 83 -50 132t-153 49q-75 0 -143.5 -40t-120.5 -127t-81.5 -226.5t-29.5 -339.5q0 -236 45 -376.5t123.5 -202t178.5 -61.5q131 0 211.5 99t80.5 299
q0 191 -84.5 290t-224.5 99q-85 0 -160 -44t-121 -122.5t-48 -181.5l-28 9q1 115 56 201.5t147 135.5t202 49q119 0 210.5 -49t143 -141.5t50.5 -223.5q0 -135 -55 -237.5t-154 -160t-230 -57.5q-148 0 -258.5 76.5t-171.5 226t-62 368.5q0 261 69.5 432.5t190.5 255.5
t276 84z" />
    <glyph glyph-name="seven" unicode="7" horiz-adv-x="922" 
d="M817 1293l18 -19h-661q-21 0 -32 -8.5t-16 -26.5l-37 -132q-2 -10 -9 -15.5t-16 -5.5q-10 1 -15 7.5t-4 19.5l32 253q2 17 12 25.5t30 8.5h767q14 0 21 -6t7 -16q0 -8 -4 -18t-17 -30l-326 -577q-42 -68 -73 -128t-51 -113t-30 -100t-10 -90q0 -39 13 -71t30 -60t30 -56
t13 -59q0 -43 -24 -69t-68 -26q-51 0 -81 46t-30 142q0 80 19.5 163t61.5 176t109 201z" />
    <glyph glyph-name="eight" unicode="8" horiz-adv-x="1045" 
d="M527 -23q-133 0 -227.5 41.5t-145 116t-50.5 172.5q0 73 35.5 144t110 127.5t190.5 86.5l11 -19q-109 -44 -161 -136t-52 -189q0 -153 83 -232t221 -79q132 0 210.5 71.5t78.5 199.5q0 68 -32.5 126t-105.5 107t-194 89q-220 75 -312 179t-92 251q0 112 57 200
t157.5 138.5t231.5 50.5q137 0 235 -47.5t150 -130t52 -189.5q0 -99 -46 -183.5t-127.5 -143.5t-191.5 -84l-15 17q72 31 128 87t89 132t33 169q0 102 -39.5 178t-110.5 118.5t-168 42.5q-88 0 -157.5 -38t-109 -105t-39.5 -156q0 -85 31 -154.5t107 -126.5t211 -102
q211 -71 303 -168.5t92 -211.5q0 -106 -55 -184t-154.5 -121.5t-231.5 -43.5z" />
    <glyph glyph-name="nine" unicode="9" horiz-adv-x="1100" 
d="M482 -22q-115 0 -197 38t-125 100.5t-43 136.5q0 51 21.5 79t62.5 28q39 0 60.5 -24.5t21.5 -72.5v-68q0 -82 52.5 -131.5t158.5 -49.5q102 0 186.5 72.5t135.5 234.5t50 430q0 235 -44.5 374t-122.5 200.5t-177 61.5q-133 0 -214.5 -98.5t-81.5 -295.5q0 -187 84.5 -285
t223.5 -98q86 0 161 44t122 122t48 180l28 -7q-1 -115 -55.5 -201.5t-146 -135.5t-204.5 -49q-119 0 -210 48t-142.5 139.5t-51.5 221.5q0 132 55.5 233.5t155.5 159t231 57.5q148 0 258 -76.5t171 -225t61 -365.5q0 -263 -69 -435t-189.5 -257t-274.5 -85z" />
    <glyph glyph-name="colon" unicode=":" horiz-adv-x="360" 
d="M180 -15q-28 0 -50.5 15t-36 39t-13.5 52q0 30 13.5 54.5t36.5 38.5t50 14q29 0 51.5 -14.5t35.5 -38.5t13 -53t-13 -53t-35.5 -39t-51.5 -15zM180 592q-28 0 -50.5 15t-36 39t-13.5 52q0 30 13.5 54.5t36.5 38.5t50 14q29 0 51.5 -14.5t35.5 -38.5t13 -53t-13 -53
t-35.5 -39t-51.5 -15z" />
    <glyph glyph-name="semicolon" unicode=";" horiz-adv-x="376" 
d="M188 591q-28 0 -50.5 15t-36 39t-13.5 52q0 30 13.5 54.5t36.5 38.5t50 14q29 0 51.5 -14.5t35.5 -38.5t13 -53t-13 -53t-35.5 -39t-51.5 -15zM186 3q-49 0 -74 28t-25 70q0 45 28.5 74.5t70.5 29.5q48 0 79.5 -41t31.5 -129q0 -76 -18 -134t-47.5 -98.5t-64.5 -65
t-70 -34.5q-12 -2 -18 1t-8 9q-1 8 4.5 13.5t20.5 11.5q49 21 82 56.5t50 81t17 92.5q0 17 -7.5 26t-28.5 9h-23z" />
    <glyph glyph-name="less" unicode="&#x3c;" horiz-adv-x="946" 
d="M135 687v-6l675 388q12 6 18 12.5t6 12.5q0 8 -4.5 12.5t-15.5 4.5q-8 0 -16.5 -3t-21.5 -9l-658 -377q-17 -7 -25 -16.5t-8 -21.5t8 -21.5t25 -16.5l666 -380q12 -5 20.5 -8.5t17.5 -3.5q10 0 14.5 5t4.5 12q0 6 -5.5 13.5t-17.5 12.5z" />
    <glyph glyph-name="equal" unicode="=" horiz-adv-x="1015" 
d="M125 848q0 11 8.5 17t19.5 6h718q11 0 19 -6t8 -17t-8 -17.5t-19 -6.5h-718q-11 0 -19.5 6.5t-8.5 17.5zM125 526q0 11 8.5 17t19.5 6h718q11 0 19 -6t8 -17t-8 -17.5t-19 -6.5h-718q-11 0 -19.5 6.5t-8.5 17.5z" />
    <glyph glyph-name="greater" unicode="&#x3e;" horiz-adv-x="946" 
d="M807 681v6l-675 -388q-12 -6 -18 -12.5t-6 -12.5q0 -8 4.5 -12.5t15.5 -4.5q8 0 16.5 3t21.5 9l658 377q17 7 25 16.5t8 21.5t-8 21.5t-25 16.5l-666 380q-12 5 -20.5 8.5t-17.5 3.5q-10 0 -14.5 -5t-4.5 -12q0 -6 5.5 -13.5t17.5 -12.5z" />
    <glyph glyph-name="question" unicode="?" horiz-adv-x="893" 
d="M369 631l7 -238q2 -12 7 -18t15 -6q9 0 14.5 5.5t7.5 17.5l5 229q2 31 12 48t36 28l53 20q158 67 228 168t70 230q0 153 -95 240.5t-265 87.5q-105 0 -190.5 -41.5t-135 -109t-49.5 -147.5q0 -44 21 -70t55 -26q37 0 59 26.5t22 70.5v70q-1 81 51.5 136t162.5 55
q98 0 157 -70t59 -211q0 -133 -46.5 -222t-164.5 -152l-44 -23q-33 -17 -43.5 -40t-8.5 -58zM395 -15q-28 0 -50.5 15t-36 39t-13.5 52q0 30 14 54.5t36.5 38.5t49.5 14q29 0 51.5 -14.5t35.5 -38.5t13 -54q0 -28 -13 -52t-35.5 -39t-51.5 -15z" />
    <glyph glyph-name="at" unicode="@" horiz-adv-x="1597" 
d="M1007 504q-43 17 -90.5 28t-104.5 11q-102 0 -157.5 -48t-55.5 -129q0 -79 47.5 -124t121.5 -45q66 0 126.5 29.5t105.5 86.5l14 -19q-52 -71 -131 -110.5t-168 -39.5q-112 0 -179.5 54.5t-67.5 148.5q0 96 84.5 160.5t242.5 64.5q70 0 122 -12.5t97 -29.5zM1193 189
q58 0 108 29t87.5 85t58.5 138t21 189q0 217 -86.5 371.5t-233 237t-329.5 82.5q-165 0 -296.5 -57.5t-223.5 -161.5t-140 -244t-48 -307q0 -226 91.5 -396t253.5 -264.5t373 -94.5q199 0 368.5 78.5t283.5 228.5q9 9 16.5 11t13.5 -3q6 -4 5 -12.5t-9 -18.5
q-74 -103 -179.5 -174t-232.5 -108.5t-267 -37.5q-163 0 -301.5 54.5t-241.5 157.5t-159.5 249.5t-56.5 329.5q0 173 51 320t148.5 256.5t237 169.5t315.5 60q144 0 269 -48.5t219.5 -142t147 -228.5t52.5 -307q0 -151 -42.5 -260t-120 -168t-182.5 -59q-54 0 -92.5 14.5
t-60.5 43t-26 72.5l-5 2v504q0 98 -42.5 149t-125.5 51q-85 0 -125 -41t-40 -88v-53q0 -32 -21 -50t-51 -18q-27 0 -45.5 16.5t-18.5 50.5q0 56 37.5 104.5t108.5 78.5t172 30q90 0 151 -28t92 -80.5t31 -125.5v-494q0 -47 23 -70t67 -23z" />
    <glyph glyph-name="A" unicode="A" horiz-adv-x="1275" 
d="M310 543h572l5 -41h-585zM348 16q0 -7 -5.5 -11.5t-17.5 -4.5h-283q-11 0 -17 4.5t-6 11.5q0 6 4.5 10t16.5 8l49 14q25 8 41 27.5t33 72.5l374 1161q9 25 0.5 37.5t-43.5 17.5q-18 4 -25 9t-7 12t6 11t19 4h294q12 0 17.5 -4t5.5 -11t-6.5 -12t-24.5 -8
q-32 -3 -37.5 -11.5t1.5 -30.5l411 -1225q9 -30 28 -44t53 -18q16 -3 21 -7.5t5 -12.5q0 -7 -6 -11.5t-18 -4.5h-333q-11 0 -17.5 4.5t-6.5 11.5t5.5 11.5t17.5 6.5l73 7q23 4 27 18t-5 41l-412 1243l21 13l-389 -1206q-10 -32 -7.5 -53t17.5 -33t41 -19l63 -12
q12 -2 17 -5.5t5 -11.5z" />
    <glyph glyph-name="B" unicode="B" horiz-adv-x="1235" 
d="M1171 340q0 -150 -124.5 -245t-360.5 -95h-563q-12 0 -18 4.5t-6 11.5q0 15 22 19l89 13q21 3 31 13t10 27v1226q0 16 -10 25.5t-31 12.5l-89 13q-22 4 -22 19q0 8 6 12t18 4h436q172 0 291 -49.5t180 -137t61 -202.5q0 -96 -50 -175t-149.5 -126.5t-247.5 -47.5l44 14
q147 0 255.5 -44t168 -120t59.5 -172zM623 650h-265v35h275q100 0 171 40.5t108 113t37 169.5q0 105 -47 184.5t-136 124.5t-217 45h-153v-1265q0 -30 20.5 -44.5t63.5 -14.5h182q117 0 197 39t120.5 108t40.5 156q0 137 -101 223t-296 86z" />
    <glyph glyph-name="C" unicode="C" horiz-adv-x="1314" 
d="M1250 345q-5 -72 -43 -139.5t-104 -121.5t-157.5 -85.5t-206.5 -31.5q-201 0 -347.5 92t-225.5 254.5t-79 374.5q0 162 47 297t133 234.5t203 154t257 54.5q106 0 173.5 -23.5t103 -47.5t47.5 -24q15 0 25.5 21.5t20 43t22.5 21.5q8 0 13 -4.5t8 -16.5l110 -341
q4 -11 -0.5 -19.5t-15.5 -9.5q-10 -2 -18 3t-13 16q-53 120 -120.5 195t-152.5 110.5t-191 35.5q-108 0 -199.5 -45t-159.5 -130t-105.5 -204.5t-37.5 -269.5q0 -219 72 -374t197.5 -237.5t286.5 -82.5q167 0 274.5 82t152.5 217q4 9 8.5 13t11.5 3q5 -1 8 -4.5t2 -10.5z
" />
    <glyph glyph-name="D" unicode="D" horiz-adv-x="1449" 
d="M100 16q0 15 21 19l91 13q20 3 30 12.5t10 25.5v1226q0 18 -10 27.5t-30 12.5l-91 13q-21 5 -21 19q0 8 5.5 12t17.5 4h422q185 0 336 -54t259.5 -153.5t166.5 -235.5t58 -300q0 -197 -87 -344.5t-246.5 -230t-377.5 -82.5h-531q-12 0 -17.5 4.5t-5.5 11.5zM653 39
q169 0 294 72.5t194.5 213t69.5 345.5q0 158 -46 285.5t-133.5 218t-212.5 139t-283 48.5h-139v-1266q0 -28 17.5 -42t54.5 -14h184z" />
    <glyph glyph-name="E" unicode="E" horiz-adv-x="1192" 
d="M347 720h367q65 0 91.5 27.5t29.5 102.5q1 10 5 16t12 7q16 3 22 -20l81 -285q3 -11 0.5 -17t-11.5 -9q-7 -1 -14 2t-12 11q-27 51 -50 78t-51.5 37t-69.5 10h-400v40zM100 1384q0 8 5.5 12t17.5 4h769q23 0 40 10t30 19.5t24 9.5q10 0 16 -6t10 -23l77 -287
q3 -10 0 -16.5t-12 -8.5t-16.5 1.5t-13.5 14.5q-35 78 -64 126t-58 74.5t-62 36t-76 9.5h-390v-1260q0 -30 20 -45t62 -15h327q60 0 101 22t82 89t95 203q5 9 11 13t14 3q9 -1 13 -8t0 -20l-84 -346q-4 -17 -10.5 -24t-17.5 -7q-13 0 -26.5 9t-32.5 17.5t-49 8.5h-779
q-12 0 -17.5 4.5t-5.5 11.5q0 15 22 19l89 13q20 3 30.5 12.5t10.5 25.5v1228q0 16 -10.5 25.5t-30.5 12.5l-89 13q-22 4 -22 19z" />
    <glyph glyph-name="F" unicode="F" horiz-adv-x="1085" 
d="M832 1400q25 0 42 9.5t29.5 19t22.5 9.5t16 -5.5t10 -22.5l77 -287q3 -11 -1 -17.5t-13 -8.5t-15.5 2t-11.5 14q-44 102 -81 155t-77.5 72.5t-96.5 19.5h-336v-1274q0 -16 12 -25.5t37 -12.5l122 -13q13 -1 18 -6t5 -13q0 -7 -5.5 -11.5t-17.5 -4.5h-445q-12 0 -17.5 4.5
t-5.5 11.5q0 15 22 19l89 13q20 3 30.5 12.5t10.5 25.5v1228q0 16 -10.5 25.5t-30.5 12.5l-89 13q-22 4 -22 19q0 8 5.5 12t17.5 4h709zM332 694h354q66 0 94.5 27.5t29.5 103.5q1 10 4.5 15t11.5 7q17 3 23 -20l76 -285q3 -11 0 -17t-11 -8t-14.5 1.5t-12.5 11.5
q-27 50 -49.5 77t-50 37.5t-68.5 10.5h-387v39z" />
    <glyph glyph-name="G" unicode="G" horiz-adv-x="1429" 
d="M1239 9q0 -22 -5.5 -30t-16.5 -8q-13 0 -25.5 14.5t-25 33.5t-25 33.5t-25.5 14.5q-14 0 -39.5 -14.5t-66.5 -33t-100.5 -33t-141.5 -14.5q-156 0 -281.5 54t-214.5 151.5t-137 229t-48 286.5q0 162 50 296.5t140.5 232t212.5 151t266 53.5q108 0 177.5 -24.5t107 -49
t51.5 -24.5q17 0 29.5 22t24.5 44t26 22q8 0 12.5 -4.5t8.5 -16.5l91 -349q4 -10 0 -18t-13 -9q-9 -2 -16 2t-11 13q-52 123 -123 200.5t-162 114.5t-201 37q-148 0 -265.5 -78.5t-187 -225t-69.5 -350.5q0 -222 74 -380.5t202 -243.5t288 -85q56 0 110 10t97.5 30t69.5 50
t26 69v305q0 20 -11 30t-40 14l-116 14q-12 2 -18 6.5t-6 10.5q0 8 6 12t18 4h419q12 0 18 -4t6 -11t-4.5 -11t-17.5 -7l-69 -14q-27 -5 -38 -14.5t-11 -29.5v-478z" />
    <glyph glyph-name="H" unicode="H" horiz-adv-x="1518" 
d="M323 683h851v-40h-851v40zM397 86q0 -16 10.5 -25.5t30.5 -12.5l89 -13q22 -4 22 -19q0 -7 -5.5 -11.5t-17.5 -4.5h-403q-12 0 -17.5 4.5t-5.5 11.5q0 15 22 19l89 13q20 3 30.5 12.5t10.5 25.5v1228q0 16 -10.5 25.5t-30.5 12.5l-89 13q-22 4 -22 19q0 8 5.5 12t17.5 4
h403q12 0 17.5 -4t5.5 -12q0 -15 -22 -19l-89 -13q-20 -3 -30.5 -12.5t-10.5 -25.5v-1228zM1266 86q0 -16 10.5 -25.5t30.5 -12.5l89 -13q22 -4 22 -19q0 -7 -5.5 -11.5t-17.5 -4.5h-403q-12 0 -17.5 4.5t-5.5 11.5q0 15 22 19l89 13q20 3 30.5 12.5t10.5 25.5v1228
q0 16 -10.5 25.5t-30.5 12.5l-89 13q-22 4 -22 19q0 8 5.5 12t17.5 4h403q12 0 17.5 -4t5.5 -12q0 -15 -22 -19l-89 -13q-20 -3 -30.5 -12.5t-10.5 -25.5v-1228z" />
    <glyph glyph-name="I" unicode="I" horiz-adv-x="647" 
d="M396 86q0 -16 10.5 -25.5t30.5 -12.5l89 -13q22 -4 22 -19q0 -7 -5.5 -11.5t-17.5 -4.5h-403q-12 0 -17.5 4.5t-5.5 11.5q0 15 22 19l89 13q20 3 30.5 12.5t10.5 25.5v1228q0 16 -10.5 25.5t-30.5 12.5l-89 13q-22 4 -22 19q0 8 5.5 12t17.5 4h403q12 0 17.5 -4t5.5 -12
q0 -15 -22 -19l-89 -13q-20 -3 -30.5 -12.5t-10.5 -25.5v-1228z" />
    <glyph glyph-name="J" unicode="J" horiz-adv-x="765" 
d="M605 195q0 -99 -77 -159t-203 -60q-117 0 -179.5 53t-62.5 134q0 41 21 66t60 25q30 0 47.5 -22.5t17.5 -58.5v-53q0 -49 24.5 -78.5t86.5 -29.5q66 0 111 37t45 108q0 45 -18.5 85t-43 82t-43 94t-18.5 121v772q0 18 -9.5 28t-28.5 13l-96 13q-12 2 -17.5 6.5t-5.5 11.5
q0 9 6 13t18 4h406q12 0 17.5 -4t5.5 -12q0 -14 -23 -19l-90 -13q-18 -3 -28 -13t-10 -26v-767q0 -58 13 -102.5t30.5 -83t30.5 -78t13 -87.5z" />
    <glyph glyph-name="K" unicode="K" horiz-adv-x="1372" 
d="M332 473l700 782q22 23 26.5 43.5t-6 35t-35.5 20.5l-79 12q-12 3 -17 7t-5 11q0 8 6.5 12t17.5 4h340q12 0 18 -4t6 -12q0 -7 -6.5 -11.5t-24.5 -8.5q-23 -3 -44 -10.5t-43 -20.5t-47.5 -35.5t-58.5 -56.5l-729 -806zM628 781l108 97l481 -768q20 -33 47 -49t73 -22
q23 -4 30 -9.5t7 -12.5q0 -8 -7 -12.5t-19 -4.5h-398q-12 0 -18 4.5t-6 12.5q0 7 5.5 11.5t16.5 6.5l92 12q22 4 25 18t-12 39zM397 86q0 -16 10 -25.5t30 -12.5l88 -13q12 -3 17 -7t5 -12q0 -7 -5.5 -11.5t-17.5 -4.5h-401q-12 0 -17.5 4.5t-5.5 11.5q0 15 22 19l89 13
q20 3 30.5 12.5t10.5 25.5v1228q0 16 -10.5 25.5t-30.5 12.5l-89 13q-22 4 -22 19q0 8 5.5 12t17.5 4h403q12 0 17.5 -4t5.5 -12q0 -15 -22 -19l-89 -13q-20 -3 -30.5 -12.5t-10.5 -25.5v-1228z" />
    <glyph glyph-name="L" unicode="L" horiz-adv-x="1120" 
d="M526 1365l-89 -13q-20 -3 -30.5 -12.5t-10.5 -25.5v-1220q0 -28 19 -41t58 -13h284q54 0 92 15t68 53t58 107l60 146q5 10 11 14.5t15 3.5q10 -2 13.5 -9t0.5 -20l-84 -355q-5 -17 -11 -24t-16 -7q-14 0 -27 9t-32 18t-50 9h-733q-12 0 -17.5 4.5t-5.5 11.5q0 15 22 19
l89 13q20 3 30.5 12.5t10.5 25.5v1228q0 16 -10.5 25.5t-30.5 12.5l-89 13q-22 4 -22 19q0 8 5.5 12t17.5 4h403q12 0 17.5 -4t5.5 -12q0 -15 -22 -19z" />
    <glyph glyph-name="M" unicode="M" horiz-adv-x="1646" 
d="M855 318l-41 -34l433 1079q8 21 19 29t29 8h201q12 0 18 -4t6 -12q0 -6 -4.5 -10.5t-17.5 -7.5l-87 -15q-26 -6 -36 -20t-8 -46l89 -1186q2 -25 12 -35t36 -16l81 -14q13 -2 18 -6.5t5 -10.5q0 -7 -6.5 -12t-18.5 -5h-402q-12 0 -18.5 4.5t-6.5 11.5t5 11t18 7l82 14
q30 6 40.5 17t9.5 33l-90 1168l37 1l-439 -1104q-6 -17 -13 -23t-15 -6q-6 0 -11 3t-9 9t-9 18l-455 1086l35 32l-87 -1149q-3 -33 13 -51t50 -27l104 -22q10 -2 16 -5.5t6 -10.5t-6.5 -12t-18.5 -5h-358q-12 0 -18 4.5t-6 11.5q0 8 6.5 12t17.5 7l77 19q35 9 51.5 27.5
t19.5 52.5l87 1142q3 31 -9 50t-41 24l-74 11q-17 3 -25 7.5t-8 12.5q0 19 31 19h198q18 0 29 -6.5t18 -27.5z" />
    <glyph glyph-name="N" unicode="N" horiz-adv-x="1453" 
d="M499 16q0 -7 -6 -11.5t-18 -4.5h-367q-12 0 -18.5 4.5t-6.5 11.5q0 11 22 18l84 23q36 10 50 24t14 46v1041q0 22 -5.5 36.5t-28.5 42.5l-91 118q-7 10 -10 15t-3 9q0 6 5 8.5t13 2.5h129q14 0 24 -7.5t23 -25.5l873 -1179l-24 -37v1122q0 32 -14 46.5t-51 23.5l-113 23
q-21 7 -21 18q0 8 6 12t18 4h367q12 0 18 -4t6 -12q0 -11 -21 -18l-84 -23q-36 -9 -50 -23.5t-14 -46.5v-1087q0 -19 4.5 -31t12.5 -24l64 -86q9 -12 12.5 -19.5t3.5 -12.5q0 -6 -4.5 -9.5t-16.5 -3.5h-138q-24 0 -24 19q0 11 -3.5 19.5t-19.5 28.5l-834 1129l38 24v-1093
q0 -31 14 -45.5t50 -24.5l114 -23q21 -7 21 -18z" />
    <glyph glyph-name="O" unicode="O" horiz-adv-x="1520" 
d="M763 1426q147 0 269.5 -54.5t212 -153.5t138.5 -232.5t49 -290.5q0 -162 -49.5 -294.5t-140 -228.5t-215 -148t-273.5 -52q-146 0 -268 54.5t-211.5 153.5t-138.5 232.5t-49 292.5q0 161 49.5 293.5t140 228t214 147.5t272.5 52zM1281 608q0 135 -27 252.5t-77.5 212.5
t-120 163t-155 104.5t-182.5 36.5q-141 0 -249.5 -69.5t-170 -200.5t-61.5 -315q0 -136 27 -254t77 -213.5t120 -164t155.5 -105t182.5 -36.5q142 0 250.5 69.5t169.5 201.5t61 318z" />
    <glyph glyph-name="P" unicode="P" horiz-adv-x="1203" 
d="M1154 901q0 -131 -61.5 -228t-170 -151t-251.5 -54q-94 0 -181 21t-154 65l9 35q40 -27 89.5 -44t102 -25.5t101.5 -8.5q112 0 194.5 49.5t128 138t45.5 206.5q0 139 -58.5 241.5t-165.5 158.5t-252 56h-133v-1275q0 -15 9.5 -25t28.5 -13l114 -13q12 -2 17 -6.5t5 -12.5
q0 -7 -5 -11.5t-18 -4.5h-425q-11 0 -17 4.5t-6 11.5q0 14 21 19l92 13q19 4 29 13.5t10 24.5v1227q0 16 -9.5 26t-28.5 13l-93 13q-21 4 -21 19q0 8 5.5 12t17.5 4h408q190 0 329.5 -63.5t216.5 -176t77 -259.5z" />
    <glyph glyph-name="Q" unicode="Q" horiz-adv-x="1523" 
d="M763 1426q147 0 269.5 -54.5t212.5 -153.5t139.5 -232.5t49.5 -290.5q0 -162 -50 -294.5t-140.5 -228.5t-215 -148t-274.5 -52q-146 0 -268.5 54.5t-212 153.5t-138.5 232.5t-49 292.5q0 161 49.5 293.5t140 228t214.5 147.5t273 52zM1282 608q0 135 -27 252.5
t-77.5 212.5t-120 163.5t-155 105t-183.5 36.5q-141 0 -249.5 -69.5t-170 -200.5t-61.5 -316q0 -136 27.5 -254.5t77.5 -213.5t119.5 -164t155 -105.5t183.5 -36.5q142 0 250.5 69.5t169.5 202t61 318.5zM824 359q-3 12 0.5 20.5t13.5 9.5q9 2 15 -3.5t9 -17.5
q47 -149 98.5 -248t109 -157t121.5 -82t135 -24q42 0 66.5 5.5t41 16t32.5 25.5q8 6 13 3.5t6 -8.5q1 -4 -1 -11t-7 -15l-59 -91q-12 -20 -27.5 -28.5t-42.5 -8.5q-81 0 -154.5 32.5t-139.5 104.5t-123.5 189.5t-106.5 287.5z" />
    <glyph glyph-name="R" unicode="R" horiz-adv-x="1282" 
d="M1151 926q0 -101 -43 -181t-121 -132t-183 -71q-22 -3 -44 -6.5t-44 -5.5t-46 -2q-65 0 -125.5 9t-112 26.5t-87.5 45.5l9 35q33 -25 81 -41.5t102.5 -24t106.5 -7.5q165 0 260 93.5t95 265.5q0 125 -57 222.5t-162 153t-248 55.5h-136v-1273q0 -17 10 -27t30 -13
l107 -13q13 -2 17.5 -6.5t4.5 -12.5q0 -16 -23 -16h-420q-12 0 -17.5 4.5t-5.5 11.5q0 15 22 19l89 13q20 3 30.5 13t10.5 27v1226q0 16 -10.5 25.5t-30.5 12.5l-89 13q-22 4 -22 19q0 8 5.5 12t17.5 4h411q199 0 336.5 -60.5t209.5 -167.5t72 -246zM701 548l143 18
l297 -458q23 -36 51.5 -50.5t69.5 -21.5q22 -4 29 -8t7 -12q0 -7 -6.5 -11.5t-18.5 -4.5h-349q-24 0 -24 16q0 7 5 10.5t15 5.5l53 7q24 4 26 19.5t-14 41.5z" />
    <glyph glyph-name="S" unicode="S" horiz-adv-x="1113" 
d="M623 -27q-98 0 -164.5 26t-104.5 51.5t-52 25.5q-10 0 -17 -15.5t-14 -36t-14.5 -36t-18.5 -15.5q-8 0 -13.5 5.5t-8.5 16.5l-82 335q-2 9 1 16.5t11 10.5q9 3 16 -1t12 -14q53 -119 123.5 -191t152 -105t167.5 -33q121 0 191 69t70 184q1 68 -29.5 128.5t-109.5 116
t-225 108.5q-147 55 -235.5 118.5t-128 141t-39.5 173.5q0 112 53 195.5t144.5 130t208.5 46.5q98 0 159 -24t95.5 -48.5t51.5 -24.5q15 0 23 24t16.5 48t22.5 24q8 0 13.5 -4.5t9.5 -18.5l100 -351q3 -10 0 -18.5t-12 -11.5q-8 -3 -15.5 0.5t-12.5 13.5q-59 130 -128 206.5
t-149 110t-168 33.5q-127 0 -206.5 -74t-79.5 -204q0 -71 31 -134t108.5 -120t215.5 -110q156 -58 245 -122t126.5 -138t36.5 -162q0 -96 -44 -174.5t-128 -125t-205 -46.5z" />
    <glyph glyph-name="T" unicode="T" horiz-adv-x="1230" 
d="M235 1400h752q24 0 39.5 9.5t27.5 19t23 9.5t18 -6t11 -23l67 -314q3 -13 -0.5 -21t-12.5 -10q-9 -1 -16 3.5t-12 15.5q-43 121 -78 180t-74 78t-95 19h-198v-1274q0 -16 10.5 -25.5t31.5 -12.5l89 -13q21 -4 21 -19q0 -16 -23 -16h-403q-11 0 -17 4.5t-6 11.5
q0 15 22 19l89 13q20 3 30.5 12.5t10.5 25.5v1274h-198q-57 0 -96 -20t-73 -79.5t-77 -177.5q-4 -11 -11.5 -15.5t-16.5 -3.5q-10 2 -13 10t0 21l66 314q5 17 12 23t17 6q12 0 22 -9.5t24 -19t37 -9.5z" />
    <glyph glyph-name="U" unicode="U" horiz-adv-x="1390" 
d="M1134 582l-36 697q-2 27 -16.5 43.5t-52.5 24.5l-92 19q-15 3 -20 7.5t-5 10.5q0 7 6.5 11.5t17.5 4.5h354q11 0 17 -4.5t6 -11.5t-5.5 -11.5t-21.5 -7.5l-79 -19q-33 -7 -47.5 -25.5t-12.5 -43.5l35 -693q3 -51 6 -101t4 -102q3 -117 -48 -210t-156.5 -147t-266.5 -54
q-172 0 -288 51t-173.5 141.5t-55.5 207.5q1 30 3 76.5t4.5 95.5t4.5 88l36 678q1 21 -12 31t-40 14l-82 13q-25 5 -25 18q0 7 6.5 11.5t18.5 4.5h413q12 0 18 -4.5t6 -11.5t-5 -11.5t-20 -6.5l-82 -13q-26 -3 -37.5 -13t-13.5 -33l-35 -671q-4 -76 -6 -138t-3 -111
q-3 -182 100.5 -275.5t293.5 -93.5q125 0 214 44t136.5 125t45.5 191q-2 63 -4.5 113t-4.5 91z" />
    <glyph glyph-name="V" unicode="V" horiz-adv-x="1266" 
d="M894 1384q0 8 6.5 12t17.5 4h314q13 0 18.5 -4t5.5 -11q0 -6 -4.5 -10t-17.5 -8l-50 -15q-25 -8 -42.5 -30.5t-33.5 -69.5l-383 -1134q-5 -15 -7.5 -28.5t-2.5 -28.5v-37q0 -11 -5.5 -17.5t-16.5 -6.5h-118q-12 0 -17.5 6.5t-5.5 18.5v36q0 14 -3 26t-10 30l-409 1194
q-7 20 -15 29t-24 13l-55 13q-22 6 -22 18q0 8 6 12t18 4h385q12 0 18 -4t6 -12q0 -7 -6 -11t-17 -7l-112 -12q-22 -4 -27 -16t4 -39l413 -1208l-46 -42l405 1204q14 44 3 68t-61 33l-86 13q-11 2 -17 6t-6 11z" />
    <glyph glyph-name="W" unicode="W" horiz-adv-x="1869" 
d="M944 1143l39 -23l-313 -1011q-4 -12 -6.5 -23t-2.5 -26v-36q0 -11 -5.5 -17.5t-17.5 -6.5h-113q-12 0 -17.5 6.5t-5.5 17.5v36q0 14 -3 23.5t-8 27.5l-358 1203q-5 19 -13.5 27.5t-23.5 12.5l-59 13q-12 4 -16.5 8t-4.5 10q0 7 6 11t17 4h366q12 0 18 -4t6 -12
q0 -13 -21 -16l-98 -13q-21 -3 -24.5 -14.5t3.5 -37.5l356 -1213l-42 -44zM1524 1384q0 8 6 12t17 4h296q12 0 17.5 -4.5t5.5 -11.5q0 -6 -4 -9.5t-17 -7.5l-47 -15q-26 -9 -43.5 -30.5t-30.5 -67.5l-333 -1145q-4 -13 -6.5 -24t-2.5 -25v-36q0 -11 -5.5 -17.5t-16.5 -6.5
h-120q-11 0 -16.5 6.5t-5.5 17.5v36q0 13 -1 24t-7 29l-340 1201q-7 21 -14 29t-22 12l-58 12q-12 4 -17 7.5t-5 9.5q0 8 6.5 12t17.5 4h362q12 0 17.5 -4t5.5 -12q0 -6 -5.5 -10.5t-16.5 -6.5l-96 -13q-19 -3 -23.5 -14t2.5 -37l340 -1212l-35 -37l348 1202q13 44 1.5 66.5
t-61.5 32.5l-72 12q-12 2 -16.5 6.5t-4.5 10.5z" />
    <glyph glyph-name="X" unicode="X" horiz-adv-x="1328" 
d="M1147 124q23 -34 42.5 -51t43 -24.5t55.5 -13.5q13 -3 19.5 -7.5t6.5 -11.5t-6 -11.5t-18 -4.5h-426q-12 0 -18.5 4.5t-6.5 11.5q0 8 8.5 12.5t34.5 9.5q57 7 83 17.5t28 27t-14 40.5l-771 1159q-21 30 -40 46.5t-41 24t-53 12.5q-19 5 -24.5 9t-5.5 10q0 8 6.5 12
t17.5 4h429q13 0 18.5 -4t5.5 -12q0 -7 -5 -11.5t-17 -5.5l-92 -10q-41 -5 -49 -21.5t11 -44.5zM701 716l-37 21l341 502q35 53 24.5 79.5t-66.5 35.5l-77 11q-11 2 -16.5 6.5t-5.5 11.5q0 8 6 12t18 4h350q24 0 24 -16q0 -6 -6.5 -11.5t-26.5 -10.5q-65 -14 -100 -44.5
t-74 -85.5zM616 719l36 -21l-365 -534q-37 -54 -27 -81t68 -37l79 -11q11 -3 17 -7t6 -11q0 -8 -6.5 -12.5t-18.5 -4.5h-351q-11 0 -17.5 4.5t-6.5 12.5q0 7 5.5 11.5t23.5 8.5q45 9 73.5 24.5t53 43t54.5 71.5z" />
    <glyph glyph-name="Y" unicode="Y" horiz-adv-x="1257" 
d="M704 492l-118 -30l-431 848q-11 22 -23.5 32.5t-32.5 14.5l-46 8q-15 4 -20 8.5t-5 10.5q0 8 6.5 12t19.5 4h383q14 0 21.5 -4t7.5 -12q0 -15 -30 -20l-82 -10q-34 -5 -42 -15.5t2 -31.5l385 -772l-35 -23l366 733q22 45 8.5 72t-66.5 37l-66 11q-11 2 -16.5 6.5
t-5.5 11.5q0 9 6.5 13t17.5 4h307q13 0 19.5 -4t6.5 -13q0 -6 -4.5 -10.5t-20.5 -8.5l-17 -4q-28 -6 -48 -19.5t-36.5 -36.5t-34.5 -60zM568 515l145 5v-432q0 -17 10 -27t31 -13l88 -13q23 -5 23 -18q0 -8 -5.5 -12.5t-17.5 -4.5h-403q-12 0 -17.5 4.5t-5.5 11.5
q0 15 21 19l91 13q20 3 30 13t10 26v428z" />
    <glyph glyph-name="Z" unicode="Z" horiz-adv-x="1178" 
d="M1068 1347l-839 -1328l-45 20h577q55 0 93.5 9.5t68.5 35.5t57 75t59 129l25 65q4 10 10.5 13.5t15.5 1.5q10 -1 13 -8.5t1 -18.5l-68 -341q-3 -14 -9.5 -22t-17.5 -8t-20.5 7.5t-21 15t-31.5 7.5h-832q-15 0 -21.5 5.5t-6.5 14.5q0 8 3 15.5t9 16.5l842 1328l13 -19
h-512q-53 0 -93 -17t-72 -57t-60 -110l-29 -77q-5 -14 -13.5 -19.5t-18.5 -2.5q-10 1 -14 10t-1 24l63 293q3 16 10.5 23.5t18.5 7.5q12 0 21.5 -9t21 -18t29.5 -9h760q13 0 20 -6t7 -15q0 -6 -3 -14t-10 -18z" />
    <glyph glyph-name="bracketleft" unicode="[" horiz-adv-x="574" 
d="M289 1402v-1580q0 -12 6.5 -18.5t18.5 -6.5h224q23 0 23 -19q0 -9 -6 -14t-17 -5h-331q-19 0 -28 9.5t-9 28.5v1630q0 19 9 28.5t28 9.5h331q11 0 17 -5t6 -14q0 -20 -23 -20h-224q-12 0 -18.5 -5.5t-6.5 -18.5z" />
    <glyph glyph-name="backslash" unicode="\" horiz-adv-x="819" 
d="M379 605q16 -40 40 -105t52.5 -146t59 -168t60 -170t55 -152.5t44.5 -115.5q8 -16 21.5 -22.5t29.5 0.5q17 7 21.5 21.5t-2.5 31.5q-18 43 -45.5 111t-60.5 149t-67.5 166.5t-66.5 165.5t-58.5 145t-42.5 105q-17 41 -41.5 107.5t-53 149t-59.5 170t-60.5 170.5t-55 152
t-43.5 113q-8 16 -21.5 22.5t-29.5 -1.5q-17 -6 -21.5 -20.5t2.5 -31.5q19 -46 47 -115t61.5 -151t67.5 -167.5t66.5 -165.5t58.5 -144.5t42 -103.5z" />
    <glyph glyph-name="bracketright" unicode="]" horiz-adv-x="576" 
d="M287 -178v1580q0 12 -6.5 18.5t-18.5 6.5h-224q-23 0 -23 19q0 9 6 14t17 5h331q19 0 28 -9.5t9 -28.5v-1630q0 -19 -9 -28.5t-28 -9.5h-331q-11 0 -17 5t-6 14q0 20 23 20h224q12 0 18.5 5.5t6.5 18.5z" />
    <glyph glyph-name="asciicircum" unicode="^" horiz-adv-x="799" 
d="M425 1383h-44l288 -567q8 -14 17.5 -17t18.5 0q9 4 11 12.5t-5 21.5l-261 548q-13 25 -23.5 32.5t-23.5 7.5t-23 -7.5t-24 -32.5l-267 -546q-7 -13 -5.5 -22t10.5 -13t18 -0.5t18 17.5z" />
    <glyph glyph-name="underscore" unicode="_" horiz-adv-x="787" 
d="M-2 -255q0 16 6.5 24t21.5 8h735q16 0 22 -8t6 -24t-6 -24t-22 -8h-735q-15 0 -21.5 8t-6.5 24z" />
    <glyph glyph-name="grave" unicode="`" horiz-adv-x="396" 
d="M210 1206l112 -189q3 -6 4.5 -11.5t-3.5 -9.5q-4 -4 -10 -3.5t-12 3.5l-175 143q-29 23 -48.5 45t-21.5 49q-2 22 12 40.5t42 20.5q31 2 53.5 -21.5t46.5 -66.5z" />
    <glyph glyph-name="a" unicode="a" horiz-adv-x="943" 
d="M647 107v12l-5 3v551q0 105 -46.5 160t-136.5 55q-92 0 -135 -40t-43 -87v-63q0 -34 -21.5 -53t-55.5 -19q-30 0 -47.5 19t-17.5 52q0 55 40 105.5t116.5 83t183.5 32.5q147 0 219 -68t72 -184v-553q0 -41 14 -58.5t36 -17.5q24 0 36.5 11.5t17.5 26.5q2 5 5.5 8t7.5 3
q6 0 8.5 -4t2.5 -11q0 -19 -13.5 -40t-40.5 -35.5t-67 -14.5q-63 0 -96.5 32t-33.5 94zM92 198q0 105 91 175t257 70q74 0 131.5 -14.5t104.5 -34.5l-7 -27q-47 19 -97.5 32.5t-111.5 13.5q-111 0 -171.5 -53t-60.5 -141q0 -86 51.5 -134.5t132.5 -48.5q70 0 136.5 30
t114.5 90l14 -22q-55 -74 -140.5 -113.5t-182.5 -39.5q-117 0 -189.5 59t-72.5 158z" />
    <glyph glyph-name="b" unicode="b" horiz-adv-x="1045" 
d="M274 1436v-1316l-79 -119q-11 -8 -17.5 -11.5t-14.5 -3.5t-13 5t-5 16v1334q0 13 -5 19t-17 7h-87q-10 1 -14 5t-4 9q0 7 4.5 11t15.5 8l168 51q17 6 26.5 8t16.5 2q13 0 19 -6.5t6 -18.5zM246 689l-14 29q81 103 167.5 151t185.5 48q109 0 196.5 -56.5t138 -158.5
t50.5 -235q0 -149 -56.5 -258.5t-153 -169.5t-217.5 -60q-112 0 -197.5 55.5t-136.5 148.5l22 26q47 -86 122.5 -135.5t168.5 -49.5q86 0 157 48.5t112.5 143.5t41.5 235q0 132 -38 224t-105 140t-152 48q-74 0 -149.5 -42.5t-142.5 -131.5z" />
    <glyph glyph-name="c" unicode="c" horiz-adv-x="887" 
d="M833 691q0 -35 -20.5 -57.5t-52.5 -22.5q-33 0 -53 21t-20 57v37q0 69 -52 112.5t-143 43.5q-88 0 -154.5 -49.5t-103.5 -138t-37 -204.5q0 -135 44.5 -228.5t121 -142t173.5 -48.5q100 0 173 52t99 142q5 9 9 12.5t10 3.5q7 0 10 -5.5t2 -13.5q-15 -84 -63.5 -148
t-122 -99t-165.5 -35q-122 0 -215.5 55t-146.5 157t-53 244q0 134 55 243t153.5 174t229.5 65q100 0 172 -31t111 -83t39 -113z" />
    <glyph glyph-name="d" unicode="d" horiz-adv-x="1067" 
d="M774 147l-2 6v1188q0 13 -4.5 19t-16.5 7h-87q-10 1 -14 5t-4 9q0 7 4.5 11t15.5 8l168 51q17 6 26.5 8t16.5 2q13 0 18.5 -6.5t5.5 -18.5v-1352q0 -17 9 -27t26 -14l62 -10q11 -2 16.5 -6t5.5 -12q0 -6 -6 -10.5t-17 -4.5h-168q-27 0 -41 14t-14 46v87zM76 430
q0 152 58.5 261.5t155.5 167.5t212 58q113 0 198.5 -55t135.5 -149l-22 -25q-46 85 -122.5 134.5t-170.5 49.5q-86 0 -156.5 -48t-112 -143t-41.5 -235q0 -131 38 -222t105 -138.5t153 -47.5q75 0 150.5 41.5t141.5 127.5l14 -28q-80 -103 -167 -151.5t-185 -48.5
q-110 0 -197 57t-137.5 158.5t-50.5 235.5z" />
    <glyph glyph-name="e" unicode="e" horiz-adv-x="915" 
d="M847 559q0 -24 -15 -36t-44 -12h-636v32h527q33 0 33 30q0 144 -63 226.5t-169 82.5q-88 0 -151.5 -49t-98.5 -137t-35 -206q0 -205 95.5 -315t245.5 -110q104 0 180 56.5t97 148.5q4 9 8 12.5t10 3.5q7 0 10.5 -5.5t2.5 -14.5q-9 -81 -58 -146t-126 -103t-173 -38
q-125 0 -218.5 55.5t-145 157t-51.5 239.5t52.5 248t148 174.5t223.5 64.5q105 0 184 -45.5t123 -126.5t44 -187z" />
    <glyph glyph-name="f" unicode="f" horiz-adv-x="583" 
d="M348 84q0 -16 9 -26.5t28 -12.5l111 -11q12 -1 18 -6t6 -12q0 -16 -23 -16h-385q-9 0 -14.5 4.5t-5.5 10.5q0 8 5.5 12t16.5 6l68 11q18 4 27.5 13.5t9.5 24.5v721q0 15 -6.5 24.5t-25.5 13.5l-92 17q-17 5 -23 10t-6 11q0 7 5 10.5t14 3.5h160l-24 -22v29q0 37 -13.5 71
t-31.5 69.5t-31.5 76t-13.5 90.5q0 106 67.5 171t177.5 65q69 0 117.5 -24t74 -63t25.5 -84q0 -41 -19 -62.5t-49 -21.5t-49.5 21t-19.5 58v45q0 48 -25 74t-75 26q-67 -1 -105 -43.5t-38 -118.5q0 -42 13 -79.5t32.5 -71.5t39.5 -66t33 -64.5t13 -67.5v-29l-16 21h213
q11 0 16.5 -3.5t5.5 -11.5q0 -10 -10.5 -16.5t-32.5 -6.5h-172v-771z" />
    <glyph glyph-name="g" unicode="g" horiz-adv-x="993" 
d="M629 10q-139 35 -203.5 59t-83.5 45t-19 43q0 24 19.5 44.5t58.5 38.5l-17 11q-63 -18 -99.5 -41.5t-52 -50.5t-15.5 -57q0 -37 26.5 -67.5t99 -59t209.5 -60.5q111 -25 170.5 -52.5t82.5 -59.5t23 -71q0 -58 -35 -99.5t-105.5 -64.5t-175.5 -23q-192 0 -276 63t-84 162
q0 73 70 129t209 74l-15 21q-200 -28 -282 -96t-82 -152q0 -67 47 -120.5t145 -85t252 -31.5q212 0 327 73t115 188q0 57 -27 101t-94.5 78t-187.5 61zM668 835l27 -9q35 52 59.5 74t51.5 22q19 0 32 -13t24.5 -30.5t26 -30.5t36.5 -13q29 0 44.5 19t15.5 50q0 42 -31 69
t-80 27q-54 0 -100 -35t-85 -96zM862 574q0 97 -48.5 175t-133 123t-194.5 45q-115 0 -203 -46t-137.5 -127.5t-49.5 -187.5q0 -96 49 -173.5t134 -122.5t194 -45q110 0 198.5 45.5t139.5 126.5t51 187zM455 879q120 2 194 -89.5t79 -240.5q5 -133 -56.5 -213t-170.5 -82
q-77 -1 -137.5 41t-95.5 116.5t-39 171.5q-3 89 24 155t79 103t123 38z" />
    <glyph glyph-name="h" unicode="h" horiz-adv-x="1081" 
d="M323 1436v-1352q0 -17 9 -27t26 -14l61 -10q21 -4 21 -17q0 -16 -23 -16h-323q-10 0 -15.5 4.5t-5.5 10.5q0 7 6 11.5t18 7.5l62 9q17 4 26 13.5t9 26.5v1258q0 13 -5 19t-17 7h-87q-9 1 -13.5 5t-4.5 9q0 7 4.5 11t15.5 8l169 51q16 6 26 8t17 2q12 0 18 -6.5t6 -18.5z
M305 696l-21 20l41 36q102 91 174.5 128t142.5 37q107 0 165.5 -71t75.5 -203l73 -551q3 -22 13 -34.5t31 -16.5l53 -9q10 -2 15.5 -6t5.5 -11q0 -6 -5.5 -10.5t-16.5 -4.5h-327q-23 0 -23 16q0 12 21 17l64 10q22 4 32 16.5t7 32.5l-71 534q-16 112 -58.5 166t-122.5 54
q-51 0 -106.5 -28t-123.5 -88z" />
    <glyph glyph-name="i" unicode="i" horiz-adv-x="495" 
d="M327 883v-799q0 -17 9 -27t26 -14l61 -10q11 -2 16.5 -6t5.5 -12q0 -6 -5.5 -10.5t-17.5 -4.5h-324q-10 0 -15.5 4.5t-5.5 10.5q0 7 5 11t15 6l66 11q17 4 26 13.5t9 26.5v705q0 13 -5 19t-17 7l-87 1q-10 0 -14 4t-4 9q0 7 4.5 11t15.5 8l168 52q17 5 27 7t16 2
q13 0 19 -6.5t6 -18.5zM247 1117q-42 0 -69.5 28t-27.5 69q0 42 27.5 70t69.5 28q44 0 71.5 -28.5t27.5 -69.5t-28 -69t-71 -28z" />
    <glyph glyph-name="j" unicode="j" horiz-adv-x="495" 
d="M327 87q0 -51 11.5 -96t27.5 -87.5t28 -84t12 -86.5q0 -84 -57.5 -137.5t-154.5 -53.5q-67 0 -114.5 22.5t-73 59.5t-25.5 81q0 42 19 64t51 22q31 0 50 -22t19 -58v-39q0 -48 23 -73.5t68 -25.5q55 1 84 32.5t29 89.5q0 38 -13 73t-31.5 69.5t-37.5 70.5t-31.5 74.5
t-12.5 81.5v724q0 13 -5 19t-17 7l-87 1q-10 0 -14 4t-4 9q0 6 4.5 10.5t15.5 8.5l167 51q17 6 27 8t17 2q12 0 18.5 -6.5t6.5 -19.5v-795zM242 1117q-43 0 -70.5 28t-27.5 69q0 42 28 70t70 28q43 0 71 -28.5t28 -69.5t-28 -69t-71 -28z" />
    <glyph glyph-name="k" unicode="k" horiz-adv-x="1035" 
d="M91 0q-11 0 -14.5 4.5t-3.5 10.5q0 7 6 11.5t18 7.5l62 9q17 4 26 13.5t9 26.5v1258q0 13 -5 19t-17 7h-87q-9 1 -13.5 5t-4.5 9q0 7 4.5 11t15.5 8l169 51q16 6 26 8t17 2q12 0 18 -6.5t6 -18.5v-1352q0 -17 9 -27t26 -14l61 -10q21 -4 21 -17q0 -16 -23 -16h-326z
M286 387l426 386q36 33 32 56.5t-45 29.5l-43 6q-12 3 -16.5 7t-4.5 11q0 8 6 12t17 4h293q11 0 17 -4.5t6 -11.5q0 -8 -5.5 -12.5t-22.5 -7.5q-50 -8 -91.5 -29t-91.5 -67l-468 -419zM555 602l325 -494q26 -39 48.5 -52.5t65.5 -20.5q14 -4 19 -8.5t5 -11.5t-6 -11t-16 -4
h-334q-10 0 -15.5 4t-5.5 11t5 11.5t16 6.5l47 6q33 4 37.5 21t-20.5 53l-264 407z" />
    <glyph glyph-name="l" unicode="l" horiz-adv-x="501" 
d="M328 1436v-1352q0 -17 8.5 -27t26.5 -14l61 -10q11 -2 16.5 -6t5.5 -12q0 -6 -6 -10.5t-17 -4.5h-324q-10 0 -15.5 4.5t-5.5 10.5q0 7 6 11.5t17 7.5l63 9q17 4 26 13.5t9 26.5v1258q0 13 -5 19t-17 7h-87q-10 1 -14 5t-4 9q0 7 4.5 11t15.5 8l168 51q17 6 27 8t16 2
q13 0 19 -6.5t6 -18.5z" />
    <glyph glyph-name="m" unicode="m" horiz-adv-x="1668" 
d="M323 882v-798q0 -17 9 -27t26 -14l61 -10q21 -4 21 -17q0 -16 -23 -16h-322q-11 0 -16.5 4.5t-5.5 10.5q0 7 5.5 11t15.5 6l65 11q17 4 26 13.5t9 25.5v706q0 13 -5 19t-17 7l-87 1q-9 0 -13.5 4t-4.5 9q0 7 4.5 11t15.5 8l169 52q16 5 26 7t17 2q12 0 18 -6.5t6 -19.5z
M303 696l-20 20l40 36q106 94 183.5 129.5t151.5 35.5q116 0 187.5 -71t71.5 -205v-551q0 -21 11.5 -32.5t31.5 -16.5l52 -9q19 -4 19 -16q0 -16 -22 -16h-320q-24 0 -24 16q0 13 21 17l64 10q21 4 30 17t9 32v531q0 113 -55.5 168t-144.5 55q-56 0 -116 -27t-131 -89z
M892 696l-20 20l40 36q99 91 170.5 128t143.5 37q107 0 167 -71.5t77 -204.5l73 -550q3 -21 13 -33.5t30 -16.5l52 -9q10 -2 15 -6t5 -11q0 -6 -5 -10.5t-17 -4.5h-324q-23 0 -23 16q0 12 21 17l63 10q22 4 32 17t7 33l-71 530q-15 113 -58.5 168t-124.5 55
q-51 0 -105.5 -28t-121.5 -87z" />
    <glyph glyph-name="n" unicode="n" horiz-adv-x="1082" 
d="M323 883v-799q0 -17 9 -27t26 -14l61 -10q21 -4 21 -17q0 -16 -23 -16h-323q-10 0 -15.5 4.5t-5.5 10.5q0 7 5 11t16 6l65 11q17 4 26 13.5t9 26.5v705q0 13 -5 19t-17 7l-87 1q-9 0 -13.5 4t-4.5 9q0 7 4.5 11t15.5 8l169 52q16 5 26 7t17 2q12 0 18 -6.5t6 -18.5z
M305 696l-21 20l41 36q102 91 174.5 128t142.5 37q107 0 165.5 -71t75.5 -203l73 -551q3 -22 13 -34.5t31 -16.5l53 -9q10 -2 15.5 -6t5.5 -11q0 -6 -5.5 -10.5t-16.5 -4.5h-327q-23 0 -23 16q0 12 21 17l64 10q22 4 32 16.5t7 32.5l-71 534q-16 112 -58.5 166t-122.5 54
q-51 0 -106.5 -28t-123.5 -88z" />
    <glyph glyph-name="o" unicode="o" 
d="M527 917q131 0 232.5 -60t159.5 -166t58 -245q0 -137 -58.5 -242t-161 -165t-236.5 -60q-131 0 -231.5 59.5t-158.5 165t-58 243.5t57.5 243.5t159.5 166t237 60.5zM584 22q93 10 155.5 69t88.5 159t9 234q-16 136 -67 227t-129 133t-175 31q-96 -10 -158 -70t-87 -160
t-8 -233q16 -133 68 -224t130 -134t173 -32z" />
    <glyph glyph-name="p" unicode="p" horiz-adv-x="1082" 
d="M303 888v-143l2 -8v-1121q0 -17 9 -27t26 -13l86 -10q11 -2 16.5 -6.5t5.5 -11.5t-6 -11.5t-17 -4.5h-341q-10 0 -15.5 4.5t-5.5 11.5q0 6 6 11t18 7l54 10q18 3 26.5 12.5t8.5 26.5v1179q0 13 -4.5 19t-16.5 6l-87 1q-10 1 -14 4.5t-4 9.5t4.5 10t15.5 8l166 52
q16 6 26 8t17 2q12 0 18 -7t6 -19zM278 684l-14 29q75 100 165.5 152.5t195.5 52.5q109 0 195 -57t136.5 -159t50.5 -234q0 -153 -57.5 -263t-153.5 -168.5t-212 -58.5q-111 0 -195.5 53.5t-135.5 155.5l20 26q48 -89 122.5 -138t160.5 -49q89 0 160 46t113 139t42 235
q0 138 -39 230.5t-106.5 139.5t-152.5 47q-74 0 -150 -44t-145 -135z" />
    <glyph glyph-name="q" unicode="q" horiz-adv-x="1045" 
d="M644 -468q-12 0 -18 4.5t-6 11.5t5.5 11.5t16.5 6.5l89 10q22 3 31.5 14t9.5 30v1155l79 126q10 7 17.5 11t13.5 4q9 0 14 -5.5t5 -17.5v-1275q0 -18 9.5 -28.5t27.5 -14.5l62 -10q11 -2 16 -6t5 -11t-5.5 -11.5t-16.5 -4.5h-355zM817 181q-65 -94 -155.5 -148
t-201.5 -54t-198 56.5t-136.5 157t-49.5 231.5q0 148 57 259t154.5 173t217.5 62q111 0 191.5 -50.5t125.5 -139.5l-20 -26q-44 81 -113 126.5t-163 45.5q-90 0 -161.5 -48t-112 -141.5t-40.5 -230.5q0 -135 38 -228.5t106.5 -141.5t160.5 -48q78 0 152.5 44.5t133.5 129.5z
" />
    <glyph glyph-name="r" unicode="r" horiz-adv-x="765" 
d="M301 488q0 139 40 235t103 145t131 49q77 0 120 -42t43 -111q0 -45 -20 -69t-51 -24t-49.5 18t-18.5 54v28q0 38 -17 56t-57 18q-48 0 -94.5 -41t-77 -120.5t-30.5 -198.5zM320 882l3 -294v-503q0 -17 9.5 -27t28.5 -12l97 -12q12 -2 18 -6t6 -12q0 -7 -6 -11.5t-18 -4.5
h-362q-11 0 -17 4.5t-6 11.5q0 6 6 10.5t17 7.5l63 9q17 4 26 13.5t9 25.5v707q0 12 -5 18.5t-17 6.5l-87 1q-9 1 -13.5 4.5t-4.5 9.5t4.5 10.5t16.5 7.5l167 50q18 7 28 9t16 2q10 0 15 -6.5t6 -19.5z" />
    <glyph glyph-name="s" unicode="s" horiz-adv-x="813" 
d="M441 16q82 0 131.5 44.5t49.5 116.5q0 47 -22 83.5t-74.5 66t-145.5 56.5q-114 33 -181 75t-95.5 95.5t-28.5 118.5q0 113 80 180t219 67q58 0 97 -11t63 -22.5t37 -11.5q14 0 26.5 11.5t24 23t21.5 11.5q6 0 11 -4t9 -15l73 -239q5 -12 3 -21.5t-11 -13.5t-16 0t-13 13
q-41 92 -91 145t-107.5 75.5t-122.5 22.5q-99 0 -152 -45.5t-53 -122.5q0 -45 21.5 -82t76.5 -68.5t155 -59.5q106 -29 170.5 -68.5t93.5 -93t29 -123.5q0 -71 -34 -125t-96 -85t-146 -31q-55 0 -93 15t-62.5 30t-39.5 15q-12 0 -22 -14.5t-20 -28.5t-20 -14q-5 0 -10 4
t-7 14l-50 219q-4 20 -3 29.5t10 12.5q9 4 15 -1t13 -18q58 -123 133.5 -174.5t153.5 -51.5z" />
    <glyph glyph-name="t" unicode="t" horiz-adv-x="604" 
d="M145 850l-78 14q-16 4 -21.5 9t-5.5 11q0 7 5 11t14 4h80q21 0 32 5.5t16 20.5l71 155q7 13 13.5 18.5t15.5 5.5q8 0 13 -5.5t5 -14.5v-892q0 -70 29.5 -105.5t81.5 -35.5q29 0 48 7.5t32.5 20t24 25.5t21.5 24q6 2 10.5 -2t3.5 -14q-8 -35 -32.5 -64t-62.5 -45.5
t-88 -16.5q-89 0 -142.5 46t-53.5 141v638q0 16 -7 25.5t-25 13.5zM243 860l1 39h285q11 0 16.5 -4t5.5 -12q0 -10 -11 -16.5t-33 -6.5h-264z" />
    <glyph glyph-name="u" unicode="u" horiz-adv-x="1069" 
d="M768 64v97l-2 6v621q0 12 -4.5 18.5t-16.5 6.5l-87 1q-10 1 -14 4.5t-4 8.5q0 7 4.5 11t15.5 8l168 52q16 5 26 7.5t17 2.5q13 0 18.5 -7t5.5 -19v-798q0 -17 9 -27t26 -14l62 -10q11 -2 16.5 -6t5.5 -12q0 -6 -6 -10.5t-17 -4.5h-167q-27 0 -41.5 15.5t-14.5 48.5z
M176 259v529q0 12 -5 18.5t-18 6.5l-86 1q-10 1 -14.5 4.5t-4.5 8.5q0 7 4.5 11t16.5 8l169 52q16 6 26 8t16 2q13 0 19 -7t6 -19v-606q0 -113 55 -167.5t144 -54.5q55 0 115.5 27t130.5 88l39 35l20 -20l-40 -36q-105 -94 -182.5 -130t-152.5 -36q-114 0 -186 71.5
t-72 205.5z" />
    <glyph glyph-name="v" unicode="v" horiz-adv-x="965" 
d="M503 -10h-40q-14 0 -23.5 7t-14.5 21l-301 773q-12 32 -24.5 47.5t-31.5 18.5l-43 7q-13 3 -18.5 7.5t-5.5 11.5q0 8 6 12t15 4h353q23 0 23 -16q0 -7 -5 -11t-18 -7l-48 -8q-53 -9 -63 -28.5t8 -65.5l262 -687l-25 -20l270 702q19 49 8.5 70t-63.5 29l-52 8q-12 3 -17 7
t-5 11q0 8 5.5 12t16.5 4h277q10 0 15.5 -4t5.5 -12q0 -7 -5 -11.5t-20 -6.5l-41 -7q-21 -4 -35.5 -22.5t-30.5 -59.5l-299 -760q-6 -15 -15 -20.5t-21 -5.5z" />
    <glyph glyph-name="w" unicode="w" horiz-adv-x="1431" 
d="M458 -9h-43q-13 0 -22.5 7t-14.5 23l-259 785q-10 30 -22.5 40.5t-32.5 12.5l-43 7q-12 2 -16.5 6.5t-4.5 10.5q0 8 6 12t16 4h340q11 0 16.5 -4t5.5 -12q0 -6 -4.5 -10.5t-17.5 -6.5l-51 -8q-41 -5 -49.5 -23.5t6.5 -63.5l220 -682l-24 -31l244 751l36 -31l-251 -761
q-5 -14 -14.5 -20t-20.5 -6zM1021 -9h-42q-12 0 -22 7.5t-15 22.5l-259 786q-8 27 -19 37.5t-31 13.5l-43 7q-12 3 -17 7t-5 11q0 16 22 16h324q22 0 22 -16q0 -7 -4.5 -11.5t-17.5 -6.5l-58 -10q-28 -4 -34 -21t5 -53l226 -698l-29 -37l226 698q19 58 9.5 82.5t-56.5 31.5
l-52 8q-13 2 -18 6t-5 11q0 8 6 12t16 4h258q11 0 17 -4.5t6 -11.5t-4.5 -11.5t-17.5 -6.5l-35 -7q-24 -6 -40.5 -28.5t-32.5 -72.5l-244 -738q-5 -15 -14.5 -21.5t-21.5 -6.5z" />
    <glyph glyph-name="x" unicode="x" horiz-adv-x="930" 
d="M414 465l32 -21l-227 -317q-22 -31 -13.5 -52.5t51.5 -30.5l45 -9q12 -3 16.5 -7t4.5 -11t-6 -11.5t-17 -4.5h-255q-11 0 -18 4.5t-7 12.5q0 7 5.5 11.5t20.5 8.5q25 5 45 15.5t39.5 30t43.5 52.5zM301 795l214 -302l5 -6l273 -378q28 -38 49.5 -53.5t50.5 -21.5
q12 -3 16.5 -7t4.5 -11t-6 -11.5t-17 -4.5h-328q-10 0 -16.5 4.5t-6.5 11.5t4.5 11t16.5 6l60 10q33 5 38.5 19.5t-12.5 39.5l-234 329l-6 6l-255 359q-26 36 -47 49t-50 18q-13 4 -17.5 8t-4.5 11q0 8 6.5 12.5t16.5 4.5h323q10 0 16 -4t6 -12q0 -6 -4 -10.5t-15 -7.5
l-57 -8q-32 -5 -37 -21t13 -41zM506 448l-31 23l217 298q24 34 17.5 57t-51.5 30l-54 10q-11 2 -16 6.5t-5 10.5q0 8 6 12t16 4h260q10 0 16 -4.5t6 -12.5q0 -6 -5 -10.5t-20 -8.5q-42 -8 -64 -28.5t-57 -67.5z" />
    <glyph glyph-name="y" unicode="y" horiz-adv-x="971" 
d="M539 105l-64 -158l-341 830q-19 47 -43.5 64t-71.5 24q-13 3 -17 7.5t-4 10.5q0 8 5.5 12t16.5 4h355q11 0 17 -4t6 -12t-5 -12.5t-17 -5.5l-67 -8q-38 -6 -45 -24t9 -58zM373 -271l115 290l15 33l277 697q22 54 12.5 77t-54.5 30l-55 8q-12 2 -17.5 6.5t-5.5 11.5
q0 8 6 12.5t17 4.5h268q11 0 17 -4.5t6 -12.5q0 -6 -4.5 -10.5t-18.5 -7.5q-48 -7 -74 -28.5t-46 -72.5l-414 -1038q-32 -80 -63 -126.5t-67.5 -66t-84.5 -19.5q-73 0 -115 39t-42 95q0 37 17.5 58.5t46.5 21.5q27 0 42.5 -19.5t20.5 -50.5l4 -29q3 -32 18 -48.5t39 -16.5
t46.5 15.5t45.5 52t48 98.5z" />
    <glyph glyph-name="z" unicode="z" horiz-adv-x="834" 
d="M755 849l-561 -831l-25 16h361q42 0 71.5 9.5t54 37.5t52.5 82l44 87q6 10 11.5 13t12.5 2q8 -1 11 -7.5t1 -16.5l-59 -238q-4 -16 -8.5 -21.5t-12.5 -5.5q-12 0 -26 12t-40 12h-558q-14 0 -20 4.5t-6 11.5q0 6 3 13.5t11 19.5l561 829l19 -13h-349q-35 0 -62 -12
t-48.5 -38.5t-42.5 -73.5l-29 -65q-5 -11 -11 -15.5t-15 -3.5t-13 8t-1 19l46 205q5 17 10 23t14 6q12 0 25 -9.5t38 -9.5h529q15 0 21 -4t6 -12q0 -7 -3.5 -14.5t-11.5 -19.5z" />
    <glyph glyph-name="braceleft" unicode="{" horiz-adv-x="687" 
d="M291 612q0 -21 25 -21q96 0 147 -39t51 -100q0 -53 -30.5 -103.5t-70.5 -102t-70 -108t-30 -122.5q0 -97 58 -158t167 -61h59q23 0 23 -19q0 -9 -6.5 -14t-18.5 -5h-77q-108 0 -181 33.5t-110.5 93t-37.5 135.5q0 77 34.5 140t79 116t79 100.5t34.5 93.5q0 43 -31 70.5
t-87 27.5q-20 0 -35.5 -5.5t-31 -11.5t-35.5 -6q-35 0 -53 20t-18 46t18 45.5t53 19.5q20 0 35.5 -5.5t31 -11.5t35.5 -6q56 0 87 27.5t31 70.5q0 46 -34.5 93.5t-79 100.5t-79 116t-34.5 140q0 78 37.5 137t110.5 92.5t181 33.5h77q12 0 18.5 -5t6.5 -14q0 -19 -23 -19h-59
q-109 0 -167 -61.5t-58 -158.5q0 -65 30 -122t70 -108.5t70.5 -101.5t30.5 -103q0 -62 -51 -101t-147 -39q-25 0 -25 -20z" />
    <glyph glyph-name="bar" unicode="|" horiz-adv-x="467" 
d="M210 619q0 69 -3 176.5t-6.5 229t-6.5 236t-3 197.5q0 23 11 36.5t31 13.5q21 0 31.5 -13.5t10.5 -36.5q0 -57 -1.5 -140.5t-4 -180l-5 -193t-4.5 -181.5t-2 -144q0 -73 3 -182.5t6 -232t5.5 -235t2.5 -190.5q0 -22 -10.5 -36t-31.5 -14q-20 0 -31 14t-11 36
q0 62 2 147.5t5 182t6 191.5t4.5 178t1.5 141z" />
    <glyph glyph-name="braceright" unicode="}" horiz-adv-x="687" 
d="M396 612q0 21 -25 21q-96 0 -147 39t-51 100q0 53 30.5 103.5t70.5 102t70 108t30 122.5q0 97 -58 158t-167 61h-59q-23 0 -23 19q0 9 6.5 14t18.5 5h77q108 0 181 -33.5t110.5 -93t37.5 -135.5q0 -77 -34.5 -140t-79 -116t-79 -100.5t-34.5 -93.5q0 -43 31 -70.5
t87 -27.5q20 0 35.5 5.5t31 11.5t35.5 6q35 0 53 -20t18 -46t-18 -45.5t-53 -19.5q-20 0 -35.5 5.5t-31 11.5t-35.5 6q-56 0 -87 -27.5t-31 -70.5q0 -46 34.5 -93.5t79 -100.5t79 -116t34.5 -140q0 -78 -37.5 -137t-110.5 -92.5t-181 -33.5h-77q-12 0 -18.5 5t-6.5 14
q0 19 23 19h59q109 0 167 61.5t58 158.5q0 65 -30 122t-70 108.5t-70.5 101.5t-30.5 103q0 62 51 101t147 39q25 0 25 20z" />
    <glyph glyph-name="asciitilde" unicode="~" horiz-adv-x="1132" 
d="M798 568q-65 0 -124.5 33t-115.5 76t-112 76t-115 33q-72 0 -118 -50t-53 -144q-1 -13 -8 -18.5t-16 -5.5q-22 0 -22 26q0 67 27.5 121.5t77 87t114.5 32.5q67 0 126.5 -33t115 -76t111 -76.5t114.5 -33.5q69 0 118 46t53 144q2 14 9 20t16 6q22 0 22 -27
q0 -73 -28.5 -126t-78 -82t-113.5 -29z" />
    <glyph glyph-name="nbspace" unicode="&#xa0;" horiz-adv-x="407" 
 />
    <glyph glyph-name="exclamdown" unicode="&#xa1;" horiz-adv-x="483" 
d="M242 -310q-44 0 -63.5 22t-19.5 56q0 15 1.5 32t4.5 34l58 892q2 13 6.5 20t13.5 7t14 -7t7 -20l57 -892q3 -18 4.5 -33.5t1.5 -33.5q0 -34 -21 -55.5t-64 -21.5zM245 1153q28 0 50.5 -14.5t36 -38.5t13.5 -53t-13.5 -53.5t-36.5 -38.5t-50 -14q-28 0 -51 14.5t-36 38.5
t-13 53t13 53t35.5 38.5t51.5 14.5z" />
    <glyph glyph-name="cent" unicode="&#xa2;" horiz-adv-x="886" 
d="M491 463q0 -50 2 -118t4.5 -141.5t4.5 -140t4 -115.5t2 -67q0 -17 -8.5 -26.5t-21.5 -9.5t-21.5 9t-8.5 28q0 17 2 66t4 115.5t4.5 140t4 141.5t1.5 118q0 45 -1.5 111t-4 137.5t-5 137t-4 113.5t-1.5 64q0 18 8.5 26.5t22.5 8.5q12 0 20.5 -8.5t8.5 -26.5q0 -16 -2 -64
t-4 -114t-4.5 -137t-4.5 -137t-2 -111zM833 673q0 -34 -19.5 -56.5t-50.5 -22.5q-32 0 -51.5 21.5t-19.5 59.5v40q0 71 -52.5 116t-144.5 45q-89 0 -156.5 -49.5t-105 -136.5t-37.5 -201q0 -134 44 -226t120 -140t172 -48q103 0 177 52.5t100 143.5q3 8 7 11t9 3q8 0 11 -5
t2 -12q-15 -84 -63.5 -146.5t-123 -97t-165.5 -34.5q-121 0 -214 53.5t-146 153.5t-53 240q0 130 54.5 237t153 170t229.5 63q100 0 172.5 -32t111.5 -85.5t39 -116.5z" />
    <glyph glyph-name="sterling" unicode="&#xa3;" horiz-adv-x="1139" 
d="M327 251l-26 9q74 38 111 93t37 118q-1 53 -25.5 106.5t-60 109t-71 113.5t-60 119.5t-24.5 126.5q0 115 51 201t148 134t236 48q137 0 225.5 -45.5t131.5 -121t43 -166.5q0 -51 -20.5 -81t-58.5 -30q-35 0 -57.5 25.5t-22.5 71.5v55q0 125 -63.5 193t-184.5 68
q-140 0 -212.5 -86t-72.5 -244q0 -68 26 -138.5t59.5 -142t59.5 -142.5t25 -139q-1 -74 -49 -142.5t-145 -112.5zM85 61q0 61 29 110t83 77.5t128 28.5q65 0 129.5 -24t127 -56t123 -56t118.5 -24q85 0 132 35t76 127q3 7 8.5 11t12.5 3t11 -6t3 -15q-18 -107 -52.5 -171.5
t-86 -93t-118.5 -28.5q-52 0 -97 16.5t-92.5 53t-106.5 96.5q-64 51 -102 72t-77 21q-47 0 -69.5 -36.5t-28.5 -122.5q-2 -36 -12.5 -58t-27.5 -32t-42 -10q-31 0 -50 21.5t-19 60.5zM135 653q0 7 5 11.5t14 4.5l255 2l19 -33h-274q-9 0 -14 4.5t-5 10.5zM458 638l-8 31h427
q10 0 14 -4t4 -11q0 -16 -18 -16h-419z" />
    <glyph glyph-name="currency" unicode="&#xa4;" horiz-adv-x="1095" 
d="M138 312q-8 -8 -7.5 -17t8.5 -17t17.5 -8t17.5 8l188 190l-36 33zM139 1104q-8 -8 -8 -17.5t7 -16.5l187 -190l34 36l-185 188q-8 8 -17.5 8t-17.5 -8zM962 1104q-8 8 -17.5 8t-18.5 -8l-188 -190l36 -34l188 190q8 8 8.5 17t-8.5 17zM962 278q9 8 8.5 17t-8.5 17
l-187 189l-36 -34l187 -190q9 -8 18.5 -7.5t17.5 8.5zM548 381q89 0 159 39t109.5 109.5t39.5 162.5q0 93 -40 162t-109.5 107.5t-158.5 38.5q-87 0 -156.5 -39t-110 -108t-40.5 -161q0 -91 40 -161.5t109.5 -110t157.5 -39.5zM548 423q-76 0 -134 35t-90.5 96t-32.5 138
q0 78 32.5 138t90.5 94.5t134 34.5q77 0 135.5 -34.5t91 -95t32.5 -137.5t-32.5 -138t-91 -96t-135.5 -35z" />
    <glyph glyph-name="yen" unicode="&#xa5;" horiz-adv-x="1264" 
d="M703 517l-119 -33l-410 826q-11 22 -23.5 32t-32.5 15l-46 8q-15 4 -20 8.5t-5 10.5q0 8 6.5 12t19.5 4h381q13 0 20.5 -4t7.5 -12q0 -14 -30 -20l-82 -10q-35 -6 -42.5 -16t3.5 -31l364 -750l-30 -20l347 708q22 45 8.5 72t-66.5 37l-66 11q-11 2 -16.5 6.5t-5.5 11.5
q0 9 6 13t18 4h306q13 0 19.5 -4t6.5 -13q0 -6 -4.5 -10.5t-20.5 -8.5l-17 -4q-28 -6 -48 -19.5t-37 -37t-34 -59.5zM566 540l142 5v-457q0 -17 10 -27t31 -13l89 -13q22 -6 22 -18q0 -8 -5.5 -12.5t-17.5 -4.5h-400q-12 0 -17.5 4.5t-5.5 11.5q0 14 21 19l91 13
q21 4 30.5 13.5t9.5 25.5v453zM153 501q0 7 5 11.5t13 4.5h930q9 0 14 -4.5t5 -11.5q0 -16 -19 -16h-930q-18 0 -18 16zM781 723l16 32h304q9 0 14 -4t5 -12q0 -16 -19 -16h-320zM153 739q0 8 5 12t13 4h384l17 -32h-401q-18 0 -18 16z" />
    <glyph glyph-name="brokenbar" unicode="&#xa6;" horiz-adv-x="575" 
d="M303 720q0 -17 -6 -25t-18 -8t-18 8t-6 25q0 81 -2.5 178t-6.5 198.5t-6.5 195t-2.5 165.5q0 23 11 36.5t31 13.5t30.5 -13.5t10.5 -36.5q0 -67 -2.5 -159t-6 -194.5t-6 -202t-2.5 -181.5zM255 518q0 17 6 24.5t18 7.5t18 -8t6 -24q0 -81 2.5 -178.5t6 -199t6 -194.5
t2.5 -166q0 -23 -10.5 -36.5t-31.5 -13.5q-20 0 -30.5 13.5t-10.5 36.5q0 67 2.5 159t6.5 194.5t6.5 202t2.5 182.5z" />
    <glyph glyph-name="section" unicode="&#xa7;" horiz-adv-x="1029" 
d="M609 194l-8 32q98 10 152 66.5t54 143.5q0 58 -27.5 107.5t-94.5 95t-187 92.5q-130 51 -208.5 104.5t-113 119.5t-34.5 152q0 95 44.5 166t121 111t172.5 40q79 0 129.5 -19.5t81 -38.5t47.5 -19q15 0 22 19t14.5 38t22.5 19q8 0 13 -4.5t8 -14.5l84 -297q3 -8 -0.5 -15
t-11.5 -10q-18 -6 -28 11q-52 108 -111.5 172.5t-125.5 92.5t-140 28q-103 0 -167.5 -62.5t-64.5 -170.5q0 -64 25.5 -116.5t87.5 -97t170 -87.5q139 -54 217.5 -109t110.5 -117.5t32 -139.5q0 -78 -35 -141t-99 -102.5t-153 -48.5zM381 846l20 -26q-89 -23 -136 -78
t-47 -144q0 -65 28.5 -117t96 -96.5t182.5 -89.5q139 -54 217 -109.5t110 -118t32 -139.5q0 -83 -38 -150.5t-110.5 -107.5t-176.5 -40q-80 0 -133 20.5t-84.5 40t-46.5 19.5q-12 0 -19 -19.5t-14.5 -39.5t-22.5 -20q-9 0 -14 5t-9 17l-72 273q-7 22 11 28q9 3 15.5 -0.5
t11.5 -13.5q45 -99 103.5 -158.5t127 -86.5t141.5 -27q102 0 161.5 59.5t59.5 157.5q0 57 -26 105.5t-88 93.5t-173 90q-132 51 -210.5 104t-113 118.5t-34.5 151.5q0 74 30.5 135t86.5 103t134 60z" />
    <glyph glyph-name="dieresis" unicode="&#xa8;" horiz-adv-x="581" 
d="M135 1017q-36 0 -58 24.5t-22 61.5t22 61.5t58 24.5t57.5 -24.5t21.5 -61.5q0 -36 -21.5 -61t-57.5 -25zM449 1017q-36 0 -58.5 24.5t-22.5 61.5t22.5 61.5t58.5 24.5t58 -24.5t22 -61.5q0 -36 -22 -61t-58 -25z" />
    <glyph glyph-name="copyright" unicode="&#xa9;" horiz-adv-x="1687" 
d="M843 -69q165 0 302.5 57.5t238.5 162t156 246t55 310.5q0 168 -55 308.5t-156 243.5t-238.5 160t-302.5 57q-164 0 -301.5 -57t-238.5 -160t-156 -244t-55 -308q0 -168 55 -309.5t156 -246t238.5 -162.5t301.5 -58zM843 -32q-209 0 -369.5 95.5t-250.5 262t-90 381.5
q0 213 90 378.5t250.5 259.5t369.5 94q157 0 287 -54t225 -152.5t147 -232t52 -293.5t-52 -295t-147.5 -234.5t-225 -154.5t-286.5 -55zM1242 465q-9 -49 -37.5 -98.5t-76.5 -89.5t-113 -64.5t-147 -24.5q-143 0 -247 65t-160 178.5t-56 260.5q0 151 58.5 269.5t161.5 186
t236 67.5q71 0 118.5 -17.5t74.5 -35t35 -17.5q10 0 20 13.5l20 27t19 13.5q6 0 9.5 -3t6.5 -12l82 -271q3 -10 -1.5 -17t-13.5 -8t-16 4t-11 16q-55 150 -135.5 210.5t-193.5 60.5q-97 0 -172 -59t-118 -163.5t-43 -241.5q0 -134 45.5 -235t128 -158t192.5 -57q94 0 164 39
t106 114q20 19 28 33.5t12.5 23t12.5 7.5q11 0 11 -17z" />
    <glyph glyph-name="ordfeminine" unicode="&#xaa;" horiz-adv-x="957" 
d="M185 1217q0 51 36.5 97.5t106 76t166.5 29.5q130 0 194 -61.5t64 -169.5v-453q0 -38 13 -54.5t35 -16.5q21 0 30.5 10t15 20t11.5 10t9 -3.5t3 -10.5q0 -14 -12.5 -31t-37 -29.5t-61.5 -12.5q-55 0 -87 28.5t-33 85.5l-4 14v462q0 86 -40 134.5t-120 48.5
q-82 0 -120.5 -38.5t-38.5 -80.5v-56q0 -31 -20 -47.5t-51 -16.5q-26 0 -42.5 17t-16.5 48zM662 954q-42 16 -86.5 28t-97.5 12q-102 0 -157.5 -45.5t-55.5 -120.5t46 -117.5t119 -42.5q64 0 122.5 29t103.5 83l14 -21q-52 -66 -128.5 -103.5t-162.5 -37.5q-106 0 -172 51.5
t-66 139.5q0 91 83.5 152t237.5 61q64 0 115 -13.5t92 -29.5z" />
    <glyph glyph-name="guillemetleft" unicode="&#xab;" horiz-adv-x="942" 
d="M106 468q0 11 8.5 22t34.5 30q50 34 96 68t87 67.5t75.5 64t62.5 57.5q7 7 14.5 9t12.5 -2q4 -3 3.5 -9t-6.5 -16q-29 -42 -74 -94.5t-97.5 -107.5t-104.5 -107v35q50 -47 102.5 -103t98.5 -110t75 -96q6 -9 6.5 -15.5t-3.5 -10.5q-5 -3 -12.5 -1t-14.5 9
q-28 28 -64.5 59.5t-78.5 65t-87 67.5t-91 65q-26 19 -34.5 30.5t-8.5 22.5zM447 468q0 11 8.5 22t34.5 30q50 34 96 68t87 67.5t75.5 64t62.5 57.5q7 7 14.5 9t12.5 -2q4 -3 3.5 -9t-6.5 -16q-29 -42 -74 -94.5t-97.5 -107.5t-104.5 -107v35q50 -47 102.5 -103t98.5 -110
t75 -96q6 -9 6.5 -15.5t-3.5 -10.5q-5 -3 -12.5 -1t-14.5 9q-28 28 -64.5 59.5t-78.5 65t-87 67.5t-91 65q-26 19 -34.5 30.5t-8.5 22.5z" />
    <glyph glyph-name="logicalnot" unicode="&#xac;" horiz-adv-x="1010" 
d="M121 816q0 10 9 16t20 6h689q14 0 22.5 -6.5t8.5 -19.5v-306q0 -9 -7 -15.5t-19 -6.5q-11 0 -18 7t-7 15v302l11 -13h-681q-10 0 -19 5.5t-9 15.5z" />
    <glyph glyph-name="hyphensoft" unicode="&#xad;" horiz-adv-x="671" 
d="M567 594q26 0 17 -23l-16 -56q-4 -11 -10 -14.5t-19 -3.5h-435q-26 0 -17 23l16 55q5 12 11 15.5t18 3.5h435z" />
    <glyph glyph-name="hyphensoft" unicode="&#x2010;" horiz-adv-x="671" 
d="M567 594q26 0 17 -23l-16 -56q-4 -11 -10 -14.5t-19 -3.5h-435q-26 0 -17 23l16 55q5 12 11 15.5t18 3.5h435z" />
    <glyph glyph-name="registered" unicode="&#xae;" horiz-adv-x="1370" 
d="M682 291q131 0 241.5 44.5t191.5 126t125.5 192t44.5 240.5t-44.5 239.5t-126 189.5t-191.5 124t-241 44t-240 -44t-189 -124t-124.5 -189.5t-44.5 -239.5t44 -240.5t124 -192t189.5 -126t240.5 -44.5zM682 325q-163 0 -288.5 74t-197 202.5t-71.5 293.5q0 164 72 291
t198 198.5t287 71.5q162 0 289 -72t200.5 -199t73.5 -290q0 -165 -72.5 -293.5t-200 -202.5t-290.5 -74zM969 1019q0 -79 -51 -132t-132 -68l-36 -6t-37 -3q-50 0 -98 14.5t-86 36.5l7 27q41 -27 86 -38t76 -11q79 0 123 47.5t44 130.5q0 93 -52 154t-145 61h-92v-622
q0 -16 7 -25t20 -12l47 -8q10 -2 14 -5t4 -7q0 -12 -17 -12h-240q-18 0 -18 12q0 8 18 13l41 8q13 3 19.5 11.5t6.5 24.5v584q0 15 -5 23.5t-15 10.5l-47 7q-18 5 -18 16q0 12 19 12h257q140 0 220 -70.5t80 -173.5zM713 824l94 13l130 -223q13 -21 28.5 -31.5t37.5 -15.5
q12 -3 16.5 -6t4.5 -9t-4.5 -9t-13.5 -3h-222q-18 0 -18 11q0 9 17 13l36 6q18 4 20 13t-9 29z" />
    <glyph glyph-name="macron" unicode="&#xaf;" horiz-adv-x="603" 
d="M55 1098q0 17 7.5 24.5t22.5 7.5h412q15 0 22.5 -7.5t7.5 -25.5q0 -16 -7.5 -24t-22.5 -8h-412q-15 0 -22.5 8t-7.5 25z" />
    <glyph glyph-name="degree" unicode="&#xb0;" horiz-adv-x="713" 
d="M356 1421q79 0 139 -36t94 -98t34 -142q0 -78 -34.5 -139.5t-94.5 -96.5t-138 -35t-138 36t-94 97.5t-34 139.5q0 77 33.5 139.5t93.5 98.5t139 36zM356 1379q-96 0 -154 -67.5t-58 -164.5q0 -99 59 -164t153 -65q93 0 153 64.5t60 162.5q0 100 -58.5 167t-154.5 67z" />
    <glyph glyph-name="plusminus" unicode="&#xb1;" horiz-adv-x="1018" 
d="M128 842q0 11 8.5 17t19.5 6h718q11 0 19 -6t8 -17t-8 -17.5t-19 -6.5h-718q-11 0 -19.5 6.5t-8.5 17.5zM512 465q-11 0 -17 8.5t-6 19.5v718q0 11 6 19t17 8t17.5 -8t6.5 -19v-718q0 -11 -6.5 -19.5t-17.5 -8.5zM123 216q0 11 8.5 17t19.5 6h718q11 0 19 -6t8 -17
t-8 -17.5t-19 -6.5h-718q-11 0 -19.5 6.5t-8.5 17.5z" />
    <glyph glyph-name="twosuperior" unicode="&#xb2;" horiz-adv-x="637" 
d="M135 854l-18 13l128 89q70 46 111 88t59 86.5t18 100.5q0 86 -34.5 124.5t-89.5 38.5q-61 0 -92 -29.5t-31 -74.5v-54q0 -31 -15 -48.5t-38 -17.5t-37 16.5t-14 47.5q0 71 61.5 127.5t176.5 56.5q108 0 164 -51.5t56 -130.5q0 -49 -22 -93t-75 -90t-147 -102zM69 781
q0 47 37 79t108 32q42 0 83 -21t80 -42t74 -21q38 0 57.5 16.5t30.5 54.5q2 7 6 10t10 2q15 -1 12 -18q-11 -86 -44.5 -119.5t-83.5 -33.5q-42 0 -75 21t-75 74q-22 25 -41.5 37t-38.5 12q-20 0 -30.5 -17t-12.5 -60q-1 -34 -14 -50t-35 -16t-35 16.5t-13 43.5z" />
    <glyph glyph-name="threesuperior" unicode="&#xb3;" horiz-adv-x="600" 
d="M247 1080l-4 11q9 1 20.5 1.5t19.5 0.5q113 0 178.5 -45.5t65.5 -135.5q0 -89 -67.5 -143.5t-176.5 -54.5q-103 0 -159 47t-56 110q0 33 16 51.5t39 18.5t35 -15t12 -42v-44q0 -48 29 -74t88 -26q60 0 98.5 36.5t38.5 117.5q0 87 -41 129t-119 42h-33q-10 0 -14.5 3.5
t-4.5 9.5q0 5 2.5 10t11.5 13l230 236l2 -19h-288q-23 0 -29 -22l-17 -60q-2 -7 -6.5 -11t-12.5 -4t-12 5t-3 15l16 136q2 10 9 16.5t20 6.5h386q8 0 12.5 -3.5t4.5 -10.5q0 -4 -3.5 -9t-12.5 -14z" />
    <glyph glyph-name="acute" unicode="&#xb4;" horiz-adv-x="386" 
d="M172 1206q24 43 46.5 66.5t53.5 21.5q28 -2 42 -20.5t12 -40.5q-2 -27 -21.5 -49t-50.5 -45l-174 -143q-5 -3 -11 -3.5t-11 3.5t-3.5 9.5t5.5 11.5z" />
    <glyph glyph-name="mu.math" unicode="&#xb5;" horiz-adv-x="1074" 
d="M169 262h27q0 -133 6.5 -236.5t15 -182t15.5 -135.5t7 -95q0 -29 -16 -46t-40 -17t-40 17t-16 47q0 38 6 95t14.5 136t14.5 182.5t6 234.5zM778 204l20 -20l-51 -45q-95 -84 -172 -120.5t-152 -36.5q-114 0 -184 71.5t-70 199.5v602q0 11 4.5 18t14.5 10l65 20
q10 3 16.5 4t11.5 1q7 0 11 -4.5t4 -11.5v-613q0 -114 54.5 -169.5t142.5 -55.5q56 0 114.5 26.5t122.5 81.5zM892 -21q-63 0 -97.5 34.5t-34.5 103.5l-2 61v676q0 12 5 19t15 10l65 20q10 3 16 4t12 1q7 0 11 -4.5t4 -11.5v-782q0 -39 13.5 -56t37.5 -17q26 0 38 13.5
t18.5 26.5t13.5 13q6 0 9.5 -4t2.5 -11q-1 -20 -15 -42.5t-42 -38t-70 -15.5z" />
    <glyph glyph-name="paragraph" unicode="&#xb6;" horiz-adv-x="1096" 
d="M748 93v1208q0 21 -19 35t-65 14t-66 -14.5t-20 -34.5v-1208q0 -19 20 -33t67 -14q46 0 64.5 13t18.5 34zM965 0h-625q-10 0 -15.5 4.5t-5.5 10.5q0 9 6 13.5t16 6.5l97 13q21 4 31.5 13.5t10.5 25.5v620q-15 -3 -35 -7.5t-55 -4.5q-152 0 -241.5 87t-89.5 242
q0 115 51.5 199t150.5 130.5t239 46.5h468q10 0 16 -4t6 -12q0 -7 -5.5 -11.5t-15.5 -6.5l-82 -14q-20 -4 -31 -13.5t-11 -27.5v-1226q0 -15 10.5 -24t30.5 -13l81 -13q11 -2 17 -6t6 -12t-7 -12.5t-18 -4.5z" />
    <glyph glyph-name="periodcentered" unicode="&#xb7;" horiz-adv-x="456" 
d="M228 383q-28 0 -50.5 15t-36 39t-13.5 52q0 30 13.5 54.5t36.5 38.5t50 14q29 0 51.5 -14.5t35.5 -38.5t13 -53t-13 -53t-35.5 -39t-51.5 -15z" />
    <glyph glyph-name="cedilla" unicode="&#xb8;" horiz-adv-x="461" 
d="M221 6h36l-75 -142l-18 9q13 1 24 1h27q82 0 129.5 -39t47.5 -99q0 -66 -47.5 -107t-126.5 -41q-67 0 -111.5 29.5t-51.5 72.5q-1 10 3.5 15t10.5 6q7 1 12 -3t8 -11q11 -40 43.5 -57.5t71.5 -17.5q90 0 90 111q0 49 -24.5 79.5t-74.5 30.5h-32q-14 0 -17 8.5t2 19.5z
" />
    <glyph glyph-name="onesuperior" unicode="&#xb9;" horiz-adv-x="499" 
d="M101 1344l77 -1q13 0 18.5 -6t5.5 -22v-517q0 -16 -7.5 -24.5t-21.5 -11.5l-78 -8q-16 -3 -16 -14q0 -13 17 -13h311q17 0 17 13q0 10 -15 13l-74 9q-14 3 -20.5 11.5t-6.5 23.5v610q0 18 -15 18q-7 0 -12 -3.5t-10 -9.5q-16 -22 -35 -30.5t-54 -8.5h-81q-8 0 -13 -4
t-5 -11t4 -10.5t14 -3.5z" />
    <glyph glyph-name="ordmasculine" unicode="&#xba;" horiz-adv-x="1009" 
d="M502 1419q115 0 203 -50t138 -139.5t50 -208.5t-51 -210t-141.5 -142.5t-210.5 -51.5q-113 0 -201 50t-137.5 139.5t-49.5 207.5t50.5 209.5t140.5 143.5t209 52zM549 654q78 8 132 59.5t77 137.5t7 199q-14 114 -60 191t-112.5 113.5t-145.5 27.5q-81 -9 -135 -61
t-75.5 -138t-6.5 -199q16 -112 61 -189t112 -113t146 -28z" />
    <glyph glyph-name="guillemetright" unicode="&#xbb;" horiz-adv-x="942" 
d="M838 472q0 -11 -8.5 -22t-34.5 -30q-50 -34 -96 -68t-87 -67.5t-75.5 -64t-62.5 -57.5q-7 -7 -14.5 -9t-12.5 2q-4 3 -3.5 9t6.5 16q29 42 74 94.5t97.5 107.5t104.5 107v-35q-50 47 -102.5 103t-98.5 110t-75 96q-6 9 -6.5 15.5t3.5 10.5q5 3 12.5 1t14.5 -9
q28 -28 64.5 -59.5t78.5 -65t87 -67.5t91 -65q26 -19 34.5 -30.5t8.5 -22.5zM497 472q0 -11 -8.5 -22t-34.5 -30q-50 -34 -96 -68t-87 -67.5t-75.5 -64t-62.5 -57.5q-7 -7 -14.5 -9t-12.5 2q-4 3 -3.5 9t6.5 16q29 42 74 94.5t97.5 107.5t104.5 107v-35q-50 47 -102.5 103
t-98.5 110t-75 96q-6 9 -6.5 15.5t3.5 10.5q5 3 12.5 1t14.5 -9q28 -28 64.5 -59.5t78.5 -65t87 -67.5t91 -65q26 -19 34.5 -30.5t8.5 -22.5z" />
    <glyph glyph-name="onequarter" unicode="&#xbc;" horiz-adv-x="1266" 
d="M136 1344l77 -1q13 0 18.5 -6t5.5 -22v-517q0 -16 -7.5 -24.5t-21.5 -11.5l-78 -8q-16 -3 -16 -14q0 -13 17 -13h311q17 0 17 13q0 10 -15 13l-74 9q-14 3 -20.5 11.5t-6.5 23.5v610q0 18 -15 18q-7 0 -12 -3.5t-10 -9.5q-16 -22 -35 -30.5t-54 -8.5h-81q-8 0 -13 -4
t-5 -11t4 -10.5t14 -3.5zM943 348q0 10 2.5 16.5t7.5 10.5l68 62q5 5 9 6.5t7 1.5q11 0 11 -12v-370q0 -12 7 -19t20 -10l53 -8q8 -2 12 -5t4 -9q0 -12 -17 -12h-264q-18 0 -18 12q0 11 16 14l55 8q13 2 20 9t7 20v285zM881 452q22 22 32.5 40t10.5 38q0 18 -10.5 33
t-21.5 31t-11 38q0 28 18 46t52 18q31 0 50 -20.5t19 -59.5q0 -40 -20 -77.5t-66 -81.5l-275 -276l-7 17h487q7 0 11.5 -3.5t4.5 -10.5q0 -14 -18 -14h-493q-8 0 -12.5 3.5t-4.5 9.5q0 4 2.5 8t8.5 10zM690 761q-7 -10 -13 -12.5t-14 2.5q-8 4 -8 11.5t5 17.5q12 21 39 68.5
t62 110t74 130t74 130t62.5 109t38.5 66.5q10 16 24.5 21t29.5 -5q14 -8 16 -22t-7 -30q-10 -16 -38.5 -60.5t-67 -105t-81 -126.5t-82.5 -128t-70 -109t-44 -68zM575 633q7 10 14 12.5t14 -1.5q8 -4 8 -12t-6 -18q-12 -21 -39 -68.5t-62.5 -110.5t-74 -131t-74 -131
t-62.5 -110t-39 -67q-9 -15 -24 -19.5t-30 3.5q-14 8 -16.5 22.5t7.5 29.5q11 17 39 62t66.5 106t81.5 127.5t83 128.5t70.5 109t43.5 68z" />
    <glyph glyph-name="onehalf" unicode="&#xbd;" horiz-adv-x="1307" 
d="M139 1344l77 -1q13 0 18.5 -6t5.5 -22v-517q0 -16 -7.5 -24.5t-21.5 -11.5l-78 -8q-16 -3 -16 -14q0 -13 17 -13h311q17 0 17 13q0 10 -15 13l-74 9q-14 3 -20.5 11.5t-6.5 23.5v610q0 18 -15 18q-7 0 -12 -3.5t-10 -9.5q-16 -22 -35 -30.5t-54 -8.5h-81q-8 0 -13 -4
t-5 -11t4 -10.5t14 -3.5zM690 761q-7 -10 -13 -12.5t-14 2.5q-8 4 -8 11.5t5 17.5q12 21 39 68.5t62 110t74 130t74 130t62.5 109t38.5 66.5q10 16 24.5 21t29.5 -5q14 -8 16 -22t-7 -30q-10 -16 -38.5 -60.5t-67 -105t-81 -126.5t-82.5 -128t-70 -109t-44 -68zM575 633
q7 10 14 12.5t14 -1.5q8 -4 8 -12t-6 -18q-12 -21 -39 -68.5t-62.5 -110.5t-74 -131t-74 -131t-62.5 -110t-39 -67q-9 -15 -24 -19.5t-30 3.5q-14 8 -16.5 22.5t7.5 29.5q11 17 39 62t66.5 106t81.5 127.5t83 128.5t70.5 109t43.5 68zM803 119l-18 13l128 89q70 46 111 88
t59 86.5t18 100.5q0 86 -34.5 124.5t-89.5 38.5q-61 0 -92 -29.5t-31 -74.5v-54q0 -31 -15 -48.5t-38 -17.5t-37 16.5t-14 47.5q0 71 61.5 127.5t176.5 56.5q108 0 164 -51.5t56 -130.5q0 -49 -22 -93t-75 -90t-147 -102zM737 46q0 47 37 79t108 32q42 0 83 -21t80 -42
t74 -21q38 0 57.5 16.5t30.5 54.5q2 7 6 10t10 2q15 -1 12 -18q-11 -86 -44.5 -119.5t-83.5 -33.5q-42 0 -75 21t-75 74q-22 25 -41.5 37t-38.5 12q-20 0 -30.5 -17t-12.5 -60q-1 -34 -14 -50t-35 -16t-35 16.5t-13 43.5z" />
    <glyph glyph-name="threequarters" unicode="&#xbe;" horiz-adv-x="1311" 
d="M987 348q0 10 2.5 16.5t7.5 10.5l68 62q5 5 9 6.5t7 1.5q11 0 11 -12v-370q0 -12 7 -19t20 -10l53 -8q8 -2 12 -5t4 -9q0 -12 -17 -12h-264q-18 0 -18 12q0 11 16 14l55 8q13 2 20 9t7 20v285zM925 452q22 22 32.5 40t10.5 38q0 18 -10.5 33t-21.5 31t-11 38q0 28 18 46
t52 18q31 0 50 -20.5t19 -59.5q0 -40 -20 -77.5t-66 -81.5l-275 -276l-7 17h487q7 0 11.5 -3.5t4.5 -10.5q0 -14 -18 -14h-493q-8 0 -12.5 3.5t-4.5 9.5q0 4 2.5 8t8.5 10zM728 761q-7 -10 -13 -12.5t-14 2.5q-8 4 -8 11.5t5 17.5q12 21 39 68.5t62 110t74 130t74 130
t62.5 109t38.5 66.5q10 16 24.5 21t29.5 -5q14 -8 16 -22t-7 -30q-10 -16 -38.5 -60.5t-67 -105t-81 -126.5t-82.5 -128t-70 -109t-44 -68zM613 633q7 10 14 12.5t14 -1.5q8 -4 8 -12t-6 -18q-12 -21 -39 -68.5t-62.5 -110.5t-74 -131t-74 -131t-62.5 -110t-39 -67
q-9 -15 -24 -19.5t-30 3.5q-14 8 -16.5 22.5t7.5 29.5q11 17 39 62t66.5 106t81.5 127.5t83 128.5t70.5 109t43.5 68zM277 1080l-4 11q9 1 20.5 1.5t19.5 0.5q113 0 178.5 -45.5t65.5 -135.5q0 -89 -67.5 -143.5t-176.5 -54.5q-103 0 -159 47t-56 110q0 33 16 51.5t39 18.5
t35 -15t12 -42v-44q0 -48 29 -74t88 -26q60 0 98.5 36.5t38.5 117.5q0 87 -41 129t-119 42h-33q-10 0 -14.5 3.5t-4.5 9.5q0 5 2.5 10t11.5 13l230 236l2 -19h-288q-23 0 -29 -22l-17 -60q-2 -7 -6.5 -11t-12.5 -4t-12 5t-3 15l16 136q2 10 9 16.5t20 6.5h386q8 0 12.5 -3.5
t4.5 -10.5q0 -4 -3.5 -9t-12.5 -14z" />
    <glyph glyph-name="questiondown" unicode="&#xbf;" horiz-adv-x="869" 
d="M542 516l-7 238q-2 12 -7 18t-15 6q-9 0 -14.5 -5.5t-7.5 -17.5l-5 -229q-2 -31 -12 -48t-36 -28l-53 -20q-158 -67 -228 -168t-70 -230q0 -153 95 -240.5t265 -87.5q105 0 190.5 41.5t135 109t49.5 147.5q0 44 -21 70t-55 26q-37 0 -59 -26.5t-22 -70.5v-70
q1 -81 -51.5 -136t-162.5 -55q-98 0 -157 70t-59 211q0 133 46.5 222t164.5 152l44 23q33 17 43.5 40t8.5 58zM516 1162q28 0 50.5 -15t36 -39t13.5 -52q0 -30 -14 -54.5t-36.5 -38.5t-49.5 -14q-29 0 -51.5 14.5t-35.5 38.5t-13 54q0 28 13 52t35.5 39t51.5 15z" />
    <glyph glyph-name="Agrave" unicode="&#xc0;" horiz-adv-x="1275" 
d="M310 543h572l5 -41h-585zM348 16q0 -7 -5.5 -11.5t-17.5 -4.5h-283q-11 0 -17 4.5t-6 11.5q0 6 4.5 10t16.5 8l49 14q25 8 41 27.5t33 72.5l374 1161q9 25 0.5 37.5t-43.5 17.5q-18 4 -25 9t-7 12t6 11t19 4h294q12 0 17.5 -4t5.5 -11t-6.5 -12t-24.5 -8
q-32 -3 -37.5 -11.5t1.5 -30.5l411 -1225q9 -30 28 -44t53 -18q16 -3 21 -7.5t5 -12.5q0 -7 -6 -11.5t-18 -4.5h-333q-11 0 -17.5 4.5t-6.5 11.5t5.5 11.5t17.5 6.5l73 7q23 4 27 18t-5 41l-412 1243l21 13l-389 -1206q-10 -32 -7.5 -53t17.5 -33t41 -19l63 -12
q12 -2 17 -5.5t5 -11.5zM549 1654l143 -164q4 -5 7 -10.5t-2 -10.5q-3 -4 -10 -4t-12 3l-195 106q-34 18 -57.5 36.5t-27.5 46.5q-5 20 7 39.5t37 24.5q29 6 54.5 -13t55.5 -54z" />
    <glyph glyph-name="Aacute" unicode="&#xc1;" horiz-adv-x="1275" 
d="M310 543h572l5 -41h-585zM348 16q0 -7 -5.5 -11.5t-17.5 -4.5h-283q-11 0 -17 4.5t-6 11.5q0 6 4.5 10t16.5 8l49 14q25 8 41 27.5t33 72.5l374 1161q9 25 0.5 37.5t-43.5 17.5q-18 4 -25 9t-7 12t6 11t19 4h294q12 0 17.5 -4t5.5 -11t-6.5 -12t-24.5 -8
q-32 -3 -37.5 -11.5t1.5 -30.5l411 -1225q9 -30 28 -44t53 -18q16 -3 21 -7.5t5 -12.5q0 -7 -6 -11.5t-18 -4.5h-333q-11 0 -17.5 4.5t-6.5 11.5t5.5 11.5t17.5 6.5l73 7q23 4 27 18t-5 41l-412 1243l21 13l-389 -1206q-10 -32 -7.5 -53t17.5 -33t41 -19l63 -12
q12 -2 17 -5.5t5 -11.5zM750 1654q31 35 56 54t54 13q26 -5 37.5 -24.5t7.5 -39.5q-5 -28 -28.5 -46.5t-56.5 -36.5l-196 -106q-5 -3 -11.5 -3t-10.5 4q-4 5 -1.5 10.5t6.5 10.5z" />
    <glyph glyph-name="Acircumflex" unicode="&#xc2;" horiz-adv-x="1275" 
d="M310 543h572l5 -41h-585zM348 16q0 -7 -5.5 -11.5t-17.5 -4.5h-283q-11 0 -17 4.5t-6 11.5q0 6 4.5 10t16.5 8l49 14q25 8 41 27.5t33 72.5l374 1161q9 25 0.5 37.5t-43.5 17.5q-18 4 -25 9t-7 12t6 11t19 4h294q12 0 17.5 -4t5.5 -11t-6.5 -12t-24.5 -8
q-32 -3 -37.5 -11.5t1.5 -30.5l411 -1225q9 -30 28 -44t53 -18q16 -3 21 -7.5t5 -12.5q0 -7 -6 -11.5t-18 -4.5h-333q-11 0 -17.5 4.5t-6.5 11.5t5.5 11.5t17.5 6.5l73 7q23 4 27 18t-5 41l-412 1243l21 13l-389 -1206q-10 -32 -7.5 -53t17.5 -33t41 -19l63 -12
q12 -2 17 -5.5t5 -11.5zM654 1621h-41l225 -145q18 -11 28 -4q4 3 4 9.5t-7 14.5l-184 201q-12 13 -21.5 20.5t-23.5 7.5q-13 0 -23 -7.5t-23 -20.5l-184 -201q-7 -8 -6.5 -14.5t4.5 -9.5q9 -7 27 4z" />
    <glyph glyph-name="Atilde" unicode="&#xc3;" horiz-adv-x="1275" 
d="M310 543h572l5 -41h-585zM348 16q0 -7 -5.5 -11.5t-17.5 -4.5h-283q-11 0 -17 4.5t-6 11.5q0 6 4.5 10t16.5 8l49 14q25 8 41 27.5t33 72.5l374 1161q9 25 0.5 37.5t-43.5 17.5q-18 4 -25 9t-7 12t6 11t19 4h294q12 0 17.5 -4t5.5 -11t-6.5 -12t-24.5 -8
q-32 -3 -37.5 -11.5t1.5 -30.5l411 -1225q9 -30 28 -44t53 -18q16 -3 21 -7.5t5 -12.5q0 -7 -6 -11.5t-18 -4.5h-333q-11 0 -17.5 4.5t-6.5 11.5t5.5 11.5t17.5 6.5l73 7q23 4 27 18t-5 41l-412 1243l21 13l-389 -1206q-10 -32 -7.5 -53t17.5 -33t41 -19l63 -12
q12 -2 17 -5.5t5 -11.5zM740 1482q-37 0 -67.5 15t-58 34.5t-54 34.5t-54.5 15q-62 0 -64 -87q-2 -20 -18 -20q-18 0 -18 24q0 86 32 128.5t91 42.5q37 0 67.5 -15t58 -35t54 -35t55.5 -15q62 0 64 87q2 21 18 21q18 0 18 -24q0 -86 -32 -128.5t-92 -42.5z" />
    <glyph glyph-name="Adieresis" unicode="&#xc4;" horiz-adv-x="1275" 
d="M310 543h572l5 -41h-585zM348 16q0 -7 -5.5 -11.5t-17.5 -4.5h-283q-11 0 -17 4.5t-6 11.5q0 6 4.5 10t16.5 8l49 14q25 8 41 27.5t33 72.5l374 1161q9 25 0.5 37.5t-43.5 17.5q-18 4 -25 9t-7 12t6 11t19 4h294q12 0 17.5 -4t5.5 -11t-6.5 -12t-24.5 -8
q-32 -3 -37.5 -11.5t1.5 -30.5l411 -1225q9 -30 28 -44t53 -18q16 -3 21 -7.5t5 -12.5q0 -7 -6 -11.5t-18 -4.5h-333q-11 0 -17.5 4.5t-6.5 11.5t5.5 11.5t17.5 6.5l73 7q23 4 27 18t-5 41l-412 1243l21 13l-389 -1206q-10 -32 -7.5 -53t17.5 -33t41 -19l63 -12
q12 -2 17 -5.5t5 -11.5zM475 1494q-36 0 -58.5 24.5t-22.5 60.5q0 37 22.5 61t58.5 24q37 0 59 -24t22 -61q0 -36 -22 -60.5t-59 -24.5zM791 1494q-36 0 -58.5 24.5t-22.5 61.5q0 36 22.5 60t58.5 24q37 0 59.5 -24t22.5 -61q0 -36 -22.5 -60.5t-59.5 -24.5z" />
    <glyph glyph-name="Aring" unicode="&#xc5;" horiz-adv-x="1275" 
d="M310 543h572l5 -41h-585zM348 16q0 -7 -5.5 -11.5t-17.5 -4.5h-283q-11 0 -17 4.5t-6 11.5q0 6 4.5 10t16.5 8l49 14q25 8 41 27.5t33 72.5l374 1161q9 25 0.5 37.5t-43.5 17.5q-18 4 -25 9t-7 12t6 11t19 4h294q12 0 17.5 -4t5.5 -11t-6.5 -12t-24.5 -8
q-32 -3 -37.5 -11.5t1.5 -30.5l411 -1225q9 -30 28 -44t53 -18q16 -3 21 -7.5t5 -12.5q0 -7 -6 -11.5t-18 -4.5h-333q-11 0 -17.5 4.5t-6.5 11.5t5.5 11.5t17.5 6.5l73 7q23 4 27 18t-5 41l-412 1243l21 13l-389 -1206q-10 -32 -7.5 -53t17.5 -33t41 -19l63 -12
q12 -2 17 -5.5t5 -11.5zM634 1462q-70 0 -119 45t-49 112q0 66 49 110.5t119 44.5q71 0 120 -44.5t49 -110.5q0 -67 -49 -112t-120 -45zM635 1732q-42 0 -71.5 -31.5t-29.5 -81.5t29.5 -82.5t71.5 -32.5t70.5 32.5t28.5 82.5t-28.5 81.5t-70.5 31.5z" />
    <glyph glyph-name="AE" unicode="&#xc6;" horiz-adv-x="1807" 
d="M946 1400l-4 -39h-67l-678 -1211q-26 -47 -13 -71.5t52 -34.5l61 -11q11 -2 17 -5.5t6 -11.5q0 -7 -6 -11.5t-18 -4.5h-288q-11 0 -17 4.5t-6 11.5q0 10 21 18l36 11q27 9 50 32t49 71l654 1161q15 26 4 38.5t-45 16.5q-17 4 -25.5 8.5t-8.5 11.5q0 8 6.5 12t19.5 4h200z
M403 588h537l5 -41h-551zM989 720h340q65 0 91.5 27.5t29.5 102.5q2 21 17 23q16 3 22 -20l81 -285q6 -21 -11 -26q-16 -3 -26 13q-27 51 -50.5 78t-51.5 37t-69 10h-373v40zM894 86v1314h612q23 0 40 10t30 19.5t24 9.5q10 0 16 -6t10 -23l77 -287q3 -10 0 -16.5t-12 -8.5
t-16.5 1.5t-12.5 14.5q-36 78 -65 126t-58 74.5t-62 36t-76 9.5h-362v-1260q0 -30 20 -45t62 -15h302q60 0 101.5 22t82 89t95.5 203q4 9 10 13t14 3q10 -1 13.5 -8t0.5 -20l-84 -346q-5 -17 -11.5 -24t-17.5 -7q-12 0 -26 9t-33 17.5t-48 8.5h-755q-12 0 -17.5 4.5
t-5.5 11.5q0 15 21 19l90 13q20 3 30.5 12.5t10.5 25.5z" />
    <glyph glyph-name="Ccedilla" unicode="&#xc7;" horiz-adv-x="1314" 
d="M1250 345q-5 -72 -43 -139.5t-104 -121.5t-157.5 -85.5t-206.5 -31.5q-201 0 -347.5 92t-225.5 254.5t-79 374.5q0 162 47 297t133 234.5t203 154t257 54.5q106 0 173.5 -23.5t103 -47.5t47.5 -24q15 0 25.5 21.5t20 43t22.5 21.5q8 0 13 -4.5t8 -16.5l110 -341
q4 -11 -0.5 -19.5t-15.5 -9.5q-10 -2 -18 3t-13 16q-53 120 -120.5 195t-152.5 110.5t-191 35.5q-108 0 -199.5 -45t-159.5 -130t-105.5 -204.5t-37.5 -269.5q0 -219 72 -374t197.5 -237.5t286.5 -82.5q167 0 274.5 82t152.5 217q4 9 8.5 13t11.5 3q5 -1 8 -4.5t2 -10.5z
M712 6h36l-75 -142l-18 9q13 1 24 1h27q82 0 129.5 -39t47.5 -99q0 -66 -47.5 -107t-126.5 -41q-67 0 -111.5 29.5t-51.5 72.5q-1 10 3.5 15t10.5 6q7 1 12 -3t8 -11q11 -40 43.5 -57.5t71.5 -17.5q90 0 90 111q0 49 -24.5 79.5t-74.5 30.5h-32q-14 0 -17 8.5t2 19.5z" />
    <glyph glyph-name="Egrave" unicode="&#xc8;" horiz-adv-x="1192" 
d="M347 720h367q65 0 91.5 27.5t29.5 102.5q1 10 5 16t12 7q16 3 22 -20l81 -285q3 -11 0.5 -17t-11.5 -9q-7 -1 -14 2t-12 11q-27 51 -50 78t-51.5 37t-69.5 10h-400v40zM100 1384q0 8 5.5 12t17.5 4h769q23 0 40 10t30 19.5t24 9.5q10 0 16 -6t10 -23l77 -287
q3 -10 0 -16.5t-12 -8.5t-16.5 1.5t-13.5 14.5q-35 78 -64 126t-58 74.5t-62 36t-76 9.5h-390v-1260q0 -30 20 -45t62 -15h327q60 0 101 22t82 89t95 203q5 9 11 13t14 3q9 -1 13 -8t0 -20l-84 -346q-4 -17 -10.5 -24t-17.5 -7q-13 0 -26.5 9t-32.5 17.5t-49 8.5h-779
q-12 0 -17.5 4.5t-5.5 11.5q0 15 22 19l89 13q20 3 30.5 12.5t10.5 25.5v1228q0 16 -10.5 25.5t-30.5 12.5l-89 13q-22 4 -22 19zM554 1654l143 -164q4 -5 7 -10.5t-2 -10.5q-3 -4 -10 -4t-12 3l-195 106q-34 18 -57.5 36.5t-27.5 46.5q-5 20 7 39.5t37 24.5q29 6 54.5 -13
t55.5 -54z" />
    <glyph glyph-name="Eacute" unicode="&#xc9;" horiz-adv-x="1192" 
d="M347 720h367q65 0 91.5 27.5t29.5 102.5q1 10 5 16t12 7q16 3 22 -20l81 -285q3 -11 0.5 -17t-11.5 -9q-7 -1 -14 2t-12 11q-27 51 -50 78t-51.5 37t-69.5 10h-400v40zM100 1384q0 8 5.5 12t17.5 4h769q23 0 40 10t30 19.5t24 9.5q10 0 16 -6t10 -23l77 -287
q3 -10 0 -16.5t-12 -8.5t-16.5 1.5t-13.5 14.5q-35 78 -64 126t-58 74.5t-62 36t-76 9.5h-390v-1260q0 -30 20 -45t62 -15h327q60 0 101 22t82 89t95 203q5 9 11 13t14 3q9 -1 13 -8t0 -20l-84 -346q-4 -17 -10.5 -24t-17.5 -7q-13 0 -26.5 9t-32.5 17.5t-49 8.5h-779
q-12 0 -17.5 4.5t-5.5 11.5q0 15 22 19l89 13q20 3 30.5 12.5t10.5 25.5v1228q0 16 -10.5 25.5t-30.5 12.5l-89 13q-22 4 -22 19zM733 1654q31 35 56 54t54 13q26 -5 37.5 -24.5t7.5 -39.5q-5 -28 -28.5 -46.5t-56.5 -36.5l-196 -106q-5 -3 -11.5 -3t-10.5 4q-4 5 -1.5 10.5
t6.5 10.5z" />
    <glyph glyph-name="Ecircumflex" unicode="&#xca;" horiz-adv-x="1192" 
d="M347 720h367q65 0 91.5 27.5t29.5 102.5q1 10 5 16t12 7q16 3 22 -20l81 -285q3 -11 0.5 -17t-11.5 -9q-7 -1 -14 2t-12 11q-27 51 -50 78t-51.5 37t-69.5 10h-400v40zM100 1384q0 8 5.5 12t17.5 4h769q23 0 40 10t30 19.5t24 9.5q10 0 16 -6t10 -23l77 -287
q3 -10 0 -16.5t-12 -8.5t-16.5 1.5t-13.5 14.5q-35 78 -64 126t-58 74.5t-62 36t-76 9.5h-390v-1260q0 -30 20 -45t62 -15h327q60 0 101 22t82 89t95 203q5 9 11 13t14 3q9 -1 13 -8t0 -20l-84 -346q-4 -17 -10.5 -24t-17.5 -7q-13 0 -26.5 9t-32.5 17.5t-49 8.5h-779
q-12 0 -17.5 4.5t-5.5 11.5q0 15 22 19l89 13q20 3 30.5 12.5t10.5 25.5v1228q0 16 -10.5 25.5t-30.5 12.5l-89 13q-22 4 -22 19zM639 1621h-41l225 -145q18 -11 28 -4q4 3 4 9.5t-7 14.5l-184 201q-12 13 -21.5 20.5t-23.5 7.5q-13 0 -23 -7.5t-23 -20.5l-184 -201
q-7 -8 -6.5 -14.5t4.5 -9.5q9 -7 27 4z" />
    <glyph glyph-name="Edieresis" unicode="&#xcb;" horiz-adv-x="1192" 
d="M347 720h367q65 0 91.5 27.5t29.5 102.5q1 10 5 16t12 7q16 3 22 -20l81 -285q3 -11 0.5 -17t-11.5 -9q-7 -1 -14 2t-12 11q-27 51 -50 78t-51.5 37t-69.5 10h-400v40zM100 1384q0 8 5.5 12t17.5 4h769q23 0 40 10t30 19.5t24 9.5q10 0 16 -6t10 -23l77 -287
q3 -10 0 -16.5t-12 -8.5t-16.5 1.5t-13.5 14.5q-35 78 -64 126t-58 74.5t-62 36t-76 9.5h-390v-1260q0 -30 20 -45t62 -15h327q60 0 101 22t82 89t95 203q5 9 11 13t14 3q9 -1 13 -8t0 -20l-84 -346q-4 -17 -10.5 -24t-17.5 -7q-13 0 -26.5 9t-32.5 17.5t-49 8.5h-779
q-12 0 -17.5 4.5t-5.5 11.5q0 15 22 19l89 13q20 3 30.5 12.5t10.5 25.5v1228q0 16 -10.5 25.5t-30.5 12.5l-89 13q-22 4 -22 19zM461 1494q-36 0 -58.5 24.5t-22.5 60.5q0 37 22.5 61t58.5 24q37 0 59 -24t22 -61q0 -36 -22 -60.5t-59 -24.5zM777 1494q-36 0 -58.5 24.5
t-22.5 61.5q0 36 22.5 60t58.5 24q37 0 59.5 -24t22.5 -61q0 -36 -22.5 -60.5t-59.5 -24.5z" />
    <glyph glyph-name="Igrave" unicode="&#xcc;" horiz-adv-x="647" 
d="M396 86q0 -16 10.5 -25.5t30.5 -12.5l89 -13q22 -4 22 -19q0 -7 -5.5 -11.5t-17.5 -4.5h-403q-12 0 -17.5 4.5t-5.5 11.5q0 15 22 19l89 13q20 3 30.5 12.5t10.5 25.5v1228q0 16 -10.5 25.5t-30.5 12.5l-89 13q-22 4 -22 19q0 8 5.5 12t17.5 4h403q12 0 17.5 -4t5.5 -12
q0 -15 -22 -19l-89 -13q-20 -3 -30.5 -12.5t-10.5 -25.5v-1228zM255 1654l143 -164q4 -5 7 -10.5t-2 -10.5q-3 -4 -10 -4t-12 3l-195 106q-34 18 -57.5 36.5t-27.5 46.5q-5 20 7 39.5t37 24.5q29 6 54.5 -13t55.5 -54z" />
    <glyph glyph-name="Iacute" unicode="&#xcd;" horiz-adv-x="647" 
d="M396 86q0 -16 10.5 -25.5t30.5 -12.5l89 -13q22 -4 22 -19q0 -7 -5.5 -11.5t-17.5 -4.5h-403q-12 0 -17.5 4.5t-5.5 11.5q0 15 22 19l89 13q20 3 30.5 12.5t10.5 25.5v1228q0 16 -10.5 25.5t-30.5 12.5l-89 13q-22 4 -22 19q0 8 5.5 12t17.5 4h403q12 0 17.5 -4t5.5 -12
q0 -15 -22 -19l-89 -13q-20 -3 -30.5 -12.5t-10.5 -25.5v-1228zM438 1654q31 35 56 54t54 13q26 -5 37.5 -24.5t7.5 -39.5q-5 -28 -28.5 -46.5t-56.5 -36.5l-196 -106q-5 -3 -11.5 -3t-10.5 4q-4 5 -1.5 10.5t6.5 10.5z" />
    <glyph glyph-name="Icircumflex" unicode="&#xce;" horiz-adv-x="647" 
d="M396 86q0 -16 10.5 -25.5t30.5 -12.5l89 -13q22 -4 22 -19q0 -7 -5.5 -11.5t-17.5 -4.5h-403q-12 0 -17.5 4.5t-5.5 11.5q0 15 22 19l89 13q20 3 30.5 12.5t10.5 25.5v1228q0 16 -10.5 25.5t-30.5 12.5l-89 13q-22 4 -22 19q0 8 5.5 12t17.5 4h403q12 0 17.5 -4t5.5 -12
q0 -15 -22 -19l-89 -13q-20 -3 -30.5 -12.5t-10.5 -25.5v-1228zM344 1621h-41l225 -145q18 -11 28 -4q4 3 4 9.5t-7 14.5l-184 201q-12 13 -21.5 20.5t-23.5 7.5q-13 0 -23 -7.5t-23 -20.5l-184 -201q-7 -8 -6.5 -14.5t4.5 -9.5q9 -7 27 4z" />
    <glyph glyph-name="Idieresis" unicode="&#xcf;" horiz-adv-x="647" 
d="M396 86q0 -16 10.5 -25.5t30.5 -12.5l89 -13q22 -4 22 -19q0 -7 -5.5 -11.5t-17.5 -4.5h-403q-12 0 -17.5 4.5t-5.5 11.5q0 15 22 19l89 13q20 3 30.5 12.5t10.5 25.5v1228q0 16 -10.5 25.5t-30.5 12.5l-89 13q-22 4 -22 19q0 8 5.5 12t17.5 4h403q12 0 17.5 -4t5.5 -12
q0 -15 -22 -19l-89 -13q-20 -3 -30.5 -12.5t-10.5 -25.5v-1228zM166 1494q-36 0 -58.5 24.5t-22.5 60.5q0 37 22.5 61t58.5 24q37 0 59 -24t22 -61q0 -36 -22 -60.5t-59 -24.5zM482 1494q-36 0 -58.5 24.5t-22.5 61.5q0 36 22.5 60t58.5 24q37 0 59.5 -24t22.5 -61
q0 -36 -22.5 -60.5t-59.5 -24.5z" />
    <glyph glyph-name="Eth" unicode="&#xd0;" horiz-adv-x="1448" 
d="M91 709q0 7 5 11.5t14 4.5h650q10 0 14.5 -4.5t4.5 -11.5q0 -8 -4.5 -12.5t-14.5 -4.5h-651q-8 0 -13 4.5t-5 12.5zM99 16q0 15 21 19l91 13q20 3 30 12.5t10 25.5v1226q0 18 -9.5 27.5t-30.5 12.5l-91 13q-21 5 -21 19q0 8 5.5 12t17.5 4h422q186 0 336.5 -54
t259 -153.5t166.5 -235.5t58 -300q0 -197 -87 -344.5t-246 -230t-378 -82.5h-531q-12 0 -17.5 4.5t-5.5 11.5zM652 39q169 0 294 72.5t194.5 213t69.5 345.5q0 158 -46 285.5t-133 218t-212.5 139t-283.5 48.5h-139v-1266q0 -28 18 -42t54 -14h184z" />
    <glyph glyph-name="Ntilde" unicode="&#xd1;" horiz-adv-x="1453" 
d="M499 16q0 -7 -6 -11.5t-18 -4.5h-367q-12 0 -18.5 4.5t-6.5 11.5q0 11 22 18l84 23q36 10 50 24t14 46v1041q0 22 -5.5 36.5t-28.5 42.5l-91 118q-7 10 -10 15t-3 9q0 6 5 8.5t13 2.5h129q14 0 24 -7.5t23 -25.5l873 -1179l-24 -37v1122q0 32 -14 46.5t-51 23.5l-113 23
q-21 7 -21 18q0 8 6 12t18 4h367q12 0 18 -4t6 -12q0 -11 -21 -18l-84 -23q-36 -9 -50 -23.5t-14 -46.5v-1087q0 -19 4.5 -31t12.5 -24l64 -86q9 -12 12.5 -19.5t3.5 -12.5q0 -6 -4.5 -9.5t-16.5 -3.5h-138q-24 0 -24 19q0 11 -3.5 19.5t-19.5 28.5l-834 1129l38 24v-1093
q0 -31 14 -45.5t50 -24.5l114 -23q21 -7 21 -18zM838 1482q-37 0 -67.5 15t-58 34.5t-54 34.5t-54.5 15q-62 0 -64 -87q-2 -20 -18 -20q-18 0 -18 24q0 86 32 128.5t91 42.5q37 0 67.5 -15t58 -35t54 -35t55.5 -15q62 0 64 87q2 21 18 21q18 0 18 -24q0 -86 -32 -128.5
t-92 -42.5z" />
    <glyph glyph-name="Ograve" unicode="&#xd2;" horiz-adv-x="1520" 
d="M763 1426q147 0 269.5 -54.5t212 -153.5t138.5 -232.5t49 -290.5q0 -162 -49.5 -294.5t-140 -228.5t-215 -148t-273.5 -52q-146 0 -268 54.5t-211.5 153.5t-138.5 232.5t-49 292.5q0 161 49.5 293.5t140 228t214 147.5t272.5 52zM1281 608q0 135 -27 252.5t-77.5 212.5
t-120 163t-155 104.5t-182.5 36.5q-141 0 -249.5 -69.5t-170 -200.5t-61.5 -315q0 -136 27 -254t77 -213.5t120 -164t155.5 -105t182.5 -36.5q142 0 250.5 69.5t169.5 201.5t61 318zM672 1654l143 -164q4 -5 7 -10.5t-2 -10.5q-3 -4 -10 -4t-12 3l-195 106
q-34 18 -57.5 36.5t-27.5 46.5q-5 20 7 39.5t37 24.5q29 6 54.5 -13t55.5 -54z" />
    <glyph glyph-name="Oacute" unicode="&#xd3;" horiz-adv-x="1520" 
d="M763 1426q147 0 269.5 -54.5t212 -153.5t138.5 -232.5t49 -290.5q0 -162 -49.5 -294.5t-140 -228.5t-215 -148t-273.5 -52q-146 0 -268 54.5t-211.5 153.5t-138.5 232.5t-49 292.5q0 161 49.5 293.5t140 228t214 147.5t272.5 52zM1281 608q0 135 -27 252.5t-77.5 212.5
t-120 163t-155 104.5t-182.5 36.5q-141 0 -249.5 -69.5t-170 -200.5t-61.5 -315q0 -136 27 -254t77 -213.5t120 -164t155.5 -105t182.5 -36.5q142 0 250.5 69.5t169.5 201.5t61 318zM874 1658q31 35 56 54t54 13q26 -5 37.5 -24.5t7.5 -39.5q-5 -28 -28.5 -46.5t-56.5 -36.5
l-196 -106q-5 -3 -11.5 -3t-10.5 4q-4 5 -1.5 10.5t6.5 10.5z" />
    <glyph glyph-name="Ocircumflex" unicode="&#xd4;" horiz-adv-x="1520" 
d="M763 1426q147 0 269.5 -54.5t212 -153.5t138.5 -232.5t49 -290.5q0 -162 -49.5 -294.5t-140 -228.5t-215 -148t-273.5 -52q-146 0 -268 54.5t-211.5 153.5t-138.5 232.5t-49 292.5q0 161 49.5 293.5t140 228t214 147.5t272.5 52zM1281 608q0 135 -27 252.5t-77.5 212.5
t-120 163t-155 104.5t-182.5 36.5q-141 0 -249.5 -69.5t-170 -200.5t-61.5 -315q0 -136 27 -254t77 -213.5t120 -164t155.5 -105t182.5 -36.5q142 0 250.5 69.5t169.5 201.5t61 318zM780 1621h-41l225 -145q18 -11 28 -4q4 3 4 9.5t-7 14.5l-184 201q-12 13 -21.5 20.5
t-23.5 7.5q-13 0 -23 -7.5t-23 -20.5l-184 -201q-7 -8 -6.5 -14.5t4.5 -9.5q9 -7 27 4z" />
    <glyph glyph-name="Otilde" unicode="&#xd5;" horiz-adv-x="1520" 
d="M763 1426q147 0 269.5 -54.5t212 -153.5t138.5 -232.5t49 -290.5q0 -162 -49.5 -294.5t-140 -228.5t-215 -148t-273.5 -52q-146 0 -268 54.5t-211.5 153.5t-138.5 232.5t-49 292.5q0 161 49.5 293.5t140 228t214 147.5t272.5 52zM1281 608q0 135 -27 252.5t-77.5 212.5
t-120 163t-155 104.5t-182.5 36.5q-141 0 -249.5 -69.5t-170 -200.5t-61.5 -315q0 -136 27 -254t77 -213.5t120 -164t155.5 -105t182.5 -36.5q142 0 250.5 69.5t169.5 201.5t61 318zM865 1486q-37 0 -67.5 15t-58 34.5t-54 34.5t-54.5 15q-62 0 -64 -87q-2 -20 -18 -20
q-18 0 -18 24q0 86 32 128.5t91 42.5q37 0 67.5 -15t58 -35t54 -35t55.5 -15q62 0 64 87q2 21 18 21q18 0 18 -24q0 -86 -32 -128.5t-92 -42.5z" />
    <glyph glyph-name="Odieresis" unicode="&#xd6;" horiz-adv-x="1520" 
d="M763 1426q147 0 269.5 -54.5t212 -153.5t138.5 -232.5t49 -290.5q0 -162 -49.5 -294.5t-140 -228.5t-215 -148t-273.5 -52q-146 0 -268 54.5t-211.5 153.5t-138.5 232.5t-49 292.5q0 161 49.5 293.5t140 228t214 147.5t272.5 52zM1281 608q0 135 -27 252.5t-77.5 212.5
t-120 163t-155 104.5t-182.5 36.5q-141 0 -249.5 -69.5t-170 -200.5t-61.5 -315q0 -136 27 -254t77 -213.5t120 -164t155.5 -105t182.5 -36.5q142 0 250.5 69.5t169.5 201.5t61 318zM602 1494q-36 0 -58.5 24.5t-22.5 60.5q0 37 22.5 61t58.5 24q37 0 59 -24t22 -61
q0 -36 -22 -60.5t-59 -24.5zM918 1494q-36 0 -58.5 24.5t-22.5 61.5q0 36 22.5 60t58.5 24q37 0 59.5 -24t22.5 -61q0 -36 -22.5 -60.5t-59.5 -24.5z" />
    <glyph glyph-name="multiply" unicode="&#xd7;" horiz-adv-x="891" 
d="M136 321q-17 15 0 31l584 685q9 8 17.5 9t17.5 -6t9.5 -14t-8.5 -17l-583 -685q-8 -6 -18 -7.5t-19 4.5zM753 322q-8 -7 -18.5 -5.5t-17.5 7.5l-581 683q-9 9 -8.5 17t9.5 14q16 13 35 -3l582 -683q8 -8 8 -15.5t-9 -14.5z" />
    <glyph glyph-name="Oslash" unicode="&#xd8;" horiz-adv-x="1520" 
d="M113 -20q-6 6 -6 12.5t6 12.5l1266 1417q6 7 13.5 8t13.5 -5q6 -5 6 -11.5t-6 -12.5l-1267 -1418q-6 -6 -12.5 -7t-13.5 4zM763 1426q147 0 269.5 -54.5t212 -153.5t138.5 -232.5t49 -290.5q0 -162 -49.5 -294.5t-140 -228.5t-215 -148t-273.5 -52q-146 0 -268 54.5
t-211.5 153.5t-138.5 232.5t-49 292.5q0 161 49.5 293.5t140 228t214 147.5t272.5 52zM1281 608q0 135 -27 252.5t-77.5 212.5t-120 163t-155 104.5t-182.5 36.5q-141 0 -249.5 -69.5t-170 -200.5t-61.5 -315q0 -136 27 -254t77 -213.5t120 -164t155.5 -105t182.5 -36.5
q142 0 250.5 69.5t169.5 201.5t61 318z" />
    <glyph glyph-name="Ugrave" unicode="&#xd9;" horiz-adv-x="1390" 
d="M1134 582l-36 697q-2 27 -16.5 43.5t-52.5 24.5l-92 19q-15 3 -20 7.5t-5 10.5q0 7 6.5 11.5t17.5 4.5h354q11 0 17 -4.5t6 -11.5t-5.5 -11.5t-21.5 -7.5l-79 -19q-33 -7 -47.5 -25.5t-12.5 -43.5l35 -693q3 -51 6 -101t4 -102q3 -117 -48 -210t-156.5 -147t-266.5 -54
q-172 0 -288 51t-173.5 141.5t-55.5 207.5q1 30 3 76.5t4.5 95.5t4.5 88l36 678q1 21 -12 31t-40 14l-82 13q-25 5 -25 18q0 7 6.5 11.5t18.5 4.5h413q12 0 18 -4.5t6 -11.5t-5 -11.5t-20 -6.5l-82 -13q-26 -3 -37.5 -13t-13.5 -33l-35 -671q-4 -76 -6 -138t-3 -111
q-3 -182 100.5 -275.5t293.5 -93.5q125 0 214 44t136.5 125t45.5 191q-2 63 -4.5 113t-4.5 91zM664 1654l143 -164q4 -5 7 -10.5t-2 -10.5q-3 -4 -10 -4t-12 3l-195 106q-34 18 -57.5 36.5t-27.5 46.5q-5 20 7 39.5t37 24.5q29 6 54.5 -13t55.5 -54z" />
    <glyph glyph-name="Uacute" unicode="&#xda;" horiz-adv-x="1390" 
d="M1134 582l-36 697q-2 27 -16.5 43.5t-52.5 24.5l-92 19q-15 3 -20 7.5t-5 10.5q0 7 6.5 11.5t17.5 4.5h354q11 0 17 -4.5t6 -11.5t-5.5 -11.5t-21.5 -7.5l-79 -19q-33 -7 -47.5 -25.5t-12.5 -43.5l35 -693q3 -51 6 -101t4 -102q3 -117 -48 -210t-156.5 -147t-266.5 -54
q-172 0 -288 51t-173.5 141.5t-55.5 207.5q1 30 3 76.5t4.5 95.5t4.5 88l36 678q1 21 -12 31t-40 14l-82 13q-25 5 -25 18q0 7 6.5 11.5t18.5 4.5h413q12 0 18 -4.5t6 -11.5t-5 -11.5t-20 -6.5l-82 -13q-26 -3 -37.5 -13t-13.5 -33l-35 -671q-4 -76 -6 -138t-3 -111
q-3 -182 100.5 -275.5t293.5 -93.5q125 0 214 44t136.5 125t45.5 191q-2 63 -4.5 113t-4.5 91zM846 1654q31 35 56 54t54 13q26 -5 37.5 -24.5t7.5 -39.5q-5 -28 -28.5 -46.5t-56.5 -36.5l-196 -106q-5 -3 -11.5 -3t-10.5 4q-4 5 -1.5 10.5t6.5 10.5z" />
    <glyph glyph-name="Ucircumflex" unicode="&#xdb;" horiz-adv-x="1390" 
d="M1134 582l-36 697q-2 27 -16.5 43.5t-52.5 24.5l-92 19q-15 3 -20 7.5t-5 10.5q0 7 6.5 11.5t17.5 4.5h354q11 0 17 -4.5t6 -11.5t-5.5 -11.5t-21.5 -7.5l-79 -19q-33 -7 -47.5 -25.5t-12.5 -43.5l35 -693q3 -51 6 -101t4 -102q3 -117 -48 -210t-156.5 -147t-266.5 -54
q-172 0 -288 51t-173.5 141.5t-55.5 207.5q1 30 3 76.5t4.5 95.5t4.5 88l36 678q1 21 -12 31t-40 14l-82 13q-25 5 -25 18q0 7 6.5 11.5t18.5 4.5h413q12 0 18 -4.5t6 -11.5t-5 -11.5t-20 -6.5l-82 -13q-26 -3 -37.5 -13t-13.5 -33l-35 -671q-4 -76 -6 -138t-3 -111
q-3 -182 100.5 -275.5t293.5 -93.5q125 0 214 44t136.5 125t45.5 191q-2 63 -4.5 113t-4.5 91zM753 1621h-41l225 -145q18 -11 28 -4q4 3 4 9.5t-7 14.5l-184 201q-12 13 -21.5 20.5t-23.5 7.5q-13 0 -23 -7.5t-23 -20.5l-184 -201q-7 -8 -6.5 -14.5t4.5 -9.5q9 -7 27 4z
" />
    <glyph glyph-name="Udieresis" unicode="&#xdc;" horiz-adv-x="1390" 
d="M1134 582l-36 697q-2 27 -16.5 43.5t-52.5 24.5l-92 19q-15 3 -20 7.5t-5 10.5q0 7 6.5 11.5t17.5 4.5h354q11 0 17 -4.5t6 -11.5t-5.5 -11.5t-21.5 -7.5l-79 -19q-33 -7 -47.5 -25.5t-12.5 -43.5l35 -693q3 -51 6 -101t4 -102q3 -117 -48 -210t-156.5 -147t-266.5 -54
q-172 0 -288 51t-173.5 141.5t-55.5 207.5q1 30 3 76.5t4.5 95.5t4.5 88l36 678q1 21 -12 31t-40 14l-82 13q-25 5 -25 18q0 7 6.5 11.5t18.5 4.5h413q12 0 18 -4.5t6 -11.5t-5 -11.5t-20 -6.5l-82 -13q-26 -3 -37.5 -13t-13.5 -33l-35 -671q-4 -76 -6 -138t-3 -111
q-3 -182 100.5 -275.5t293.5 -93.5q125 0 214 44t136.5 125t45.5 191q-2 63 -4.5 113t-4.5 91zM574 1494q-36 0 -58.5 24.5t-22.5 60.5q0 37 22.5 61t58.5 24q37 0 59 -24t22 -61q0 -36 -22 -60.5t-59 -24.5zM890 1494q-36 0 -58.5 24.5t-22.5 61.5q0 36 22.5 60t58.5 24
q37 0 59.5 -24t22.5 -61q0 -36 -22.5 -60.5t-59.5 -24.5z" />
    <glyph glyph-name="Yacute" unicode="&#xdd;" horiz-adv-x="1257" 
d="M704 492l-118 -30l-431 848q-11 22 -23.5 32.5t-32.5 14.5l-46 8q-15 4 -20 8.5t-5 10.5q0 8 6.5 12t19.5 4h383q14 0 21.5 -4t7.5 -12q0 -15 -30 -20l-82 -10q-34 -5 -42 -15.5t2 -31.5l385 -772l-35 -23l366 733q22 45 8.5 72t-66.5 37l-66 11q-11 2 -16.5 6.5
t-5.5 11.5q0 9 6.5 13t17.5 4h307q13 0 19.5 -4t6.5 -13q0 -6 -4.5 -10.5t-20.5 -8.5l-17 -4q-28 -6 -48 -19.5t-36.5 -36.5t-34.5 -60zM568 515l145 5v-432q0 -17 10 -27t31 -13l88 -13q23 -5 23 -18q0 -8 -5.5 -12.5t-17.5 -4.5h-403q-12 0 -17.5 4.5t-5.5 11.5
q0 15 21 19l91 13q20 3 30 13t10 26v428zM799 1654q31 35 56 54t54 13q26 -5 37.5 -24.5t7.5 -39.5q-5 -28 -28.5 -46.5t-56.5 -36.5l-196 -106q-5 -3 -11.5 -3t-10.5 4q-4 5 -1.5 10.5t6.5 10.5z" />
    <glyph glyph-name="Thorn" unicode="&#xde;" horiz-adv-x="1195" 
d="M328 1084v37h229q168 0 292.5 -52t193.5 -145.5t69 -217.5q0 -125 -59.5 -214t-165.5 -136t-245 -47q-61 0 -118.5 8.5t-108 26.5t-92.5 46l9 32q38 -25 85 -41.5t98 -24t99 -7.5q159 0 251.5 94t92.5 263q0 172 -115.5 275t-321.5 103h-193zM395 86q0 -17 10.5 -25.5
t30.5 -12.5l89 -14q12 -3 17 -7t5 -11t-5.5 -11.5t-17.5 -4.5h-402q-12 0 -17.5 4.5t-5.5 11.5q0 14 22 19l89 13q20 3 30.5 12t10.5 26v1228q0 17 -10.5 26t-30.5 12l-89 13q-22 5 -22 19q0 8 5.5 12t17.5 4h402q12 0 17.5 -4t5.5 -12q0 -6 -5 -10.5t-17 -7.5l-89 -14
q-20 -3 -30.5 -12t-10.5 -26v-1228z" />
    <glyph glyph-name="germandbls" unicode="&#xdf;" horiz-adv-x="1145" 
d="M1091 336q0 120 -66 215.5t-181 150.5t-265 53l-1 -11q127 5 220 55.5t144 132.5t51 179q0 95 -42 166.5t-122 111.5t-195 40q-128 0 -221 -55.5t-142.5 -160.5t-49.5 -253v-93l29 28h-166q-9 0 -14.5 -3.5t-5.5 -10.5t6.5 -12t23.5 -9l93 -17q18 -4 25 -13t7 -26v-723
q0 -15 -9.5 -24t-26.5 -13l-69 -11q-23 -4 -23 -18q0 -6 6 -10.5t15 -4.5h201q20 0 26.5 9.5t6.5 30.5v922q0 211 71.5 321.5t208.5 110.5q107 0 171.5 -72t64.5 -206q0 -101 -34 -176.5t-107 -120.5t-190 -55q-12 -2 -17 -7.5t-5 -12.5q0 -8 6.5 -13.5t27.5 -6.5
q126 -2 220 -50t145.5 -135.5t51.5 -209.5q0 -138 -58.5 -219t-163.5 -81q-77 0 -128.5 45t-80.5 152l-12 35q-4 10 -9 14.5t-13 4.5t-13 -6t-5 -17v-251q0 -10 5 -15.5t15 -5.5q8 0 18 12t19.5 29t18 29t15.5 12q8 0 29.5 -22t63 -44.5t109.5 -22.5q100 0 171.5 46
t110.5 127t39 185z" />
    <glyph glyph-name="agrave" unicode="&#xe0;" horiz-adv-x="943" 
d="M647 107v12l-5 3v551q0 105 -46.5 160t-136.5 55q-92 0 -135 -40t-43 -87v-63q0 -34 -21.5 -53t-55.5 -19q-30 0 -47.5 19t-17.5 52q0 55 40 105.5t116.5 83t183.5 32.5q147 0 219 -68t72 -184v-553q0 -41 14 -58.5t36 -17.5q24 0 36.5 11.5t17.5 26.5q2 5 5.5 8t7.5 3
q6 0 8.5 -4t2.5 -11q0 -19 -13.5 -40t-40.5 -35.5t-67 -14.5q-63 0 -96.5 32t-33.5 94zM92 198q0 105 91 175t257 70q74 0 131.5 -14.5t104.5 -34.5l-7 -27q-47 19 -97.5 32.5t-111.5 13.5q-111 0 -171.5 -53t-60.5 -141q0 -86 51.5 -134.5t132.5 -48.5q70 0 136.5 30
t114.5 90l14 -22q-55 -74 -140.5 -113.5t-182.5 -39.5q-117 0 -189.5 59t-72.5 158zM414 1206l112 -189q3 -6 4.5 -11.5t-3.5 -9.5q-4 -4 -10 -3.5t-12 3.5l-175 143q-29 23 -48.5 45t-21.5 49q-2 22 12 40.5t42 20.5q31 2 53.5 -21.5t46.5 -66.5z" />
    <glyph glyph-name="aacute" unicode="&#xe1;" horiz-adv-x="943" 
d="M647 107v12l-5 3v551q0 105 -46.5 160t-136.5 55q-92 0 -135 -40t-43 -87v-63q0 -34 -21.5 -53t-55.5 -19q-30 0 -47.5 19t-17.5 52q0 55 40 105.5t116.5 83t183.5 32.5q147 0 219 -68t72 -184v-553q0 -41 14 -58.5t36 -17.5q24 0 36.5 11.5t17.5 26.5q2 5 5.5 8t7.5 3
q6 0 8.5 -4t2.5 -11q0 -19 -13.5 -40t-40.5 -35.5t-67 -14.5q-63 0 -96.5 32t-33.5 94zM92 198q0 105 91 175t257 70q74 0 131.5 -14.5t104.5 -34.5l-7 -27q-47 19 -97.5 32.5t-111.5 13.5q-111 0 -171.5 -53t-60.5 -141q0 -86 51.5 -134.5t132.5 -48.5q70 0 136.5 30
t114.5 90l14 -22q-55 -74 -140.5 -113.5t-182.5 -39.5q-117 0 -189.5 59t-72.5 158zM567 1206q24 43 46.5 66.5t53.5 21.5q28 -2 42 -20.5t12 -40.5q-2 -27 -21.5 -49t-50.5 -45l-174 -143q-5 -3 -11 -3.5t-11 3.5t-3.5 9.5t5.5 11.5z" />
    <glyph glyph-name="acircumflex" unicode="&#xe2;" horiz-adv-x="943" 
d="M647 107v12l-5 3v551q0 105 -46.5 160t-136.5 55q-92 0 -135 -40t-43 -87v-63q0 -34 -21.5 -53t-55.5 -19q-30 0 -47.5 19t-17.5 52q0 55 40 105.5t116.5 83t183.5 32.5q147 0 219 -68t72 -184v-553q0 -41 14 -58.5t36 -17.5q24 0 36.5 11.5t17.5 26.5q2 5 5.5 8t7.5 3
q6 0 8.5 -4t2.5 -11q0 -19 -13.5 -40t-40.5 -35.5t-67 -14.5q-63 0 -96.5 32t-33.5 94zM92 198q0 105 91 175t257 70q74 0 131.5 -14.5t104.5 -34.5l-7 -27q-47 19 -97.5 32.5t-111.5 13.5q-111 0 -171.5 -53t-60.5 -141q0 -86 51.5 -134.5t132.5 -48.5q70 0 136.5 30
t114.5 90l14 -22q-55 -74 -140.5 -113.5t-182.5 -39.5q-117 0 -189.5 59t-72.5 158zM491 1173h-41l227 -179q8 -6 15 -7t12 2q4 4 4 10.5t-7 13.5l-185 236q-11 14 -21 21t-24 7t-24.5 -7t-22.5 -21l-185 -236q-6 -7 -6 -13.5t4 -10.5q5 -3 12 -2t15 7z" />
    <glyph glyph-name="atilde" unicode="&#xe3;" horiz-adv-x="943" 
d="M647 107v12l-5 3v551q0 105 -46.5 160t-136.5 55q-92 0 -135 -40t-43 -87v-63q0 -34 -21.5 -53t-55.5 -19q-30 0 -47.5 19t-17.5 52q0 55 40 105.5t116.5 83t183.5 32.5q147 0 219 -68t72 -184v-553q0 -41 14 -58.5t36 -17.5q24 0 36.5 11.5t17.5 26.5q2 5 5.5 8t7.5 3
q6 0 8.5 -4t2.5 -11q0 -19 -13.5 -40t-40.5 -35.5t-67 -14.5q-63 0 -96.5 32t-33.5 94zM92 198q0 105 91 175t257 70q74 0 131.5 -14.5t104.5 -34.5l-7 -27q-47 19 -97.5 32.5t-111.5 13.5q-111 0 -171.5 -53t-60.5 -141q0 -86 51.5 -134.5t132.5 -48.5q70 0 136.5 30
t114.5 90l14 -22q-55 -74 -140.5 -113.5t-182.5 -39.5q-117 0 -189.5 59t-72.5 158zM577 1006q-37 0 -68 16t-58.5 37.5t-54.5 37.5t-56 16q-31 0 -47 -24t-17 -69q-2 -21 -18 -21q-17 0 -17 25q0 89 32 133.5t92 44.5q37 0 67.5 -16.5t58 -37.5t54.5 -37t56 -16
q32 0 47.5 24t16.5 70q2 20 18 20q18 0 18 -24q0 -90 -32.5 -134.5t-91.5 -44.5z" />
    <glyph glyph-name="adieresis" unicode="&#xe4;" horiz-adv-x="943" 
d="M647 107v12l-5 3v551q0 105 -46.5 160t-136.5 55q-92 0 -135 -40t-43 -87v-63q0 -34 -21.5 -53t-55.5 -19q-30 0 -47.5 19t-17.5 52q0 55 40 105.5t116.5 83t183.5 32.5q147 0 219 -68t72 -184v-553q0 -41 14 -58.5t36 -17.5q24 0 36.5 11.5t17.5 26.5q2 5 5.5 8t7.5 3
q6 0 8.5 -4t2.5 -11q0 -19 -13.5 -40t-40.5 -35.5t-67 -14.5q-63 0 -96.5 32t-33.5 94zM92 198q0 105 91 175t257 70q74 0 131.5 -14.5t104.5 -34.5l-7 -27q-47 19 -97.5 32.5t-111.5 13.5q-111 0 -171.5 -53t-60.5 -141q0 -86 51.5 -134.5t132.5 -48.5q70 0 136.5 30
t114.5 90l14 -22q-55 -74 -140.5 -113.5t-182.5 -39.5q-117 0 -189.5 59t-72.5 158zM314 1017q-36 0 -58 24.5t-22 61.5t22 61.5t58 24.5t57.5 -24.5t21.5 -61.5q0 -36 -21.5 -61t-57.5 -25zM628 1017q-36 0 -58.5 24.5t-22.5 61.5t22.5 61.5t58.5 24.5t58 -24.5t22 -61.5
q0 -36 -22 -61t-58 -25z" />
    <glyph glyph-name="aring" unicode="&#xe5;" horiz-adv-x="943" 
d="M647 107v12l-5 3v551q0 105 -46.5 160t-136.5 55q-92 0 -135 -40t-43 -87v-63q0 -34 -21.5 -53t-55.5 -19q-30 0 -47.5 19t-17.5 52q0 55 40 105.5t116.5 83t183.5 32.5q147 0 219 -68t72 -184v-553q0 -41 14 -58.5t36 -17.5q24 0 36.5 11.5t17.5 26.5q2 5 5.5 8t7.5 3
q6 0 8.5 -4t2.5 -11q0 -19 -13.5 -40t-40.5 -35.5t-67 -14.5q-63 0 -96.5 32t-33.5 94zM92 198q0 105 91 175t257 70q74 0 131.5 -14.5t104.5 -34.5l-7 -27q-47 19 -97.5 32.5t-111.5 13.5q-111 0 -171.5 -53t-60.5 -141q0 -86 51.5 -134.5t132.5 -48.5q70 0 136.5 30
t114.5 90l14 -22q-55 -74 -140.5 -113.5t-182.5 -39.5q-117 0 -189.5 59t-72.5 158zM471 987q-71 0 -120.5 45.5t-49.5 114.5q0 68 49.5 113.5t120.5 45.5t120.5 -45.5t49.5 -113.5t-49.5 -114t-120.5 -46zM471 1264q-42 0 -72 -32.5t-30 -84.5q0 -51 30 -84t72 -33
q43 0 72.5 33t29.5 84t-29.5 84t-72.5 33z" />
    <glyph glyph-name="ae" unicode="&#xe6;" horiz-adv-x="1485" 
d="M668 368q-46 19 -97 32t-112 13q-111 0 -171 -53t-60 -141q0 -86 52.5 -135t134.5 -49q79 0 153.5 41t136.5 124l19 -22q-67 -96 -160.5 -146.5t-199.5 -50.5q-122 0 -196.5 59t-74.5 159q0 105 91 174.5t257 69.5q74 0 131 -14.5t104 -34.5zM1400 558q0 -23 -15 -34.5
t-44 -11.5h-611v31h503q33 0 33 30q0 144 -61 226.5t-163 82.5q-86 0 -148 -50t-95 -139t-33 -207q0 -207 93 -315t239 -108q102 0 176.5 58.5t92.5 151.5q7 15 17 14q7 0 10.5 -4.5t2.5 -12.5q-9 -83 -56.5 -148.5t-122.5 -104t-169 -38.5q-125 0 -216.5 55.5t-141 157
t-49.5 238.5v243q0 105 -46.5 159.5t-136.5 54.5q-92 0 -135.5 -40t-43.5 -88v-59q0 -35 -21 -54t-55 -19q-28 0 -46 19t-18 52q0 55 40 105t115 82.5t180 32.5q126 0 193.5 -58.5t78.5 -164.5l-33 -3q50 103 139 164.5t204 61.5q102 0 179 -46t120.5 -127.5t43.5 -186.5z
" />
    <glyph glyph-name="ccedilla" unicode="&#xe7;" horiz-adv-x="887" 
d="M833 691q0 -35 -20.5 -57.5t-52.5 -22.5q-33 0 -53 21t-20 57v37q0 69 -52 112.5t-143 43.5q-88 0 -154.5 -49.5t-103.5 -138t-37 -204.5q0 -135 44.5 -228.5t121 -142t173.5 -48.5q100 0 173 52t99 142q5 9 9 12.5t10 3.5q7 0 10 -5.5t2 -13.5q-15 -84 -63.5 -148
t-122 -99t-165.5 -35q-122 0 -215.5 55t-146.5 157t-53 244q0 134 55 243t153.5 174t229.5 65q100 0 172 -31t111 -83t39 -113zM473 6h36l-75 -142l-18 9q13 1 24 1h27q82 0 129.5 -39t47.5 -99q0 -66 -47.5 -107t-126.5 -41q-67 0 -111.5 29.5t-51.5 72.5q-1 10 3.5 15
t10.5 6q7 1 12 -3t8 -11q11 -40 43.5 -57.5t71.5 -17.5q90 0 90 111q0 49 -24.5 79.5t-74.5 30.5h-32q-14 0 -17 8.5t2 19.5z" />
    <glyph glyph-name="egrave" unicode="&#xe8;" horiz-adv-x="915" 
d="M847 559q0 -24 -15 -36t-44 -12h-636v32h527q33 0 33 30q0 144 -63 226.5t-169 82.5q-88 0 -151.5 -49t-98.5 -137t-35 -206q0 -205 95.5 -315t245.5 -110q104 0 180 56.5t97 148.5q4 9 8 12.5t10 3.5q7 0 10.5 -5.5t2.5 -14.5q-9 -81 -58 -146t-126 -103t-173 -38
q-125 0 -218.5 55.5t-145 157t-51.5 239.5t52.5 248t148 174.5t223.5 64.5q105 0 184 -45.5t123 -126.5t44 -187zM423 1206l112 -189q3 -6 4.5 -11.5t-3.5 -9.5q-4 -4 -10 -3.5t-12 3.5l-175 143q-29 23 -48.5 45t-21.5 49q-2 22 12 40.5t42 20.5q31 2 53.5 -21.5
t46.5 -66.5z" />
    <glyph glyph-name="eacute" unicode="&#xe9;" horiz-adv-x="915" 
d="M847 559q0 -24 -15 -36t-44 -12h-636v32h527q33 0 33 30q0 144 -63 226.5t-169 82.5q-88 0 -151.5 -49t-98.5 -137t-35 -206q0 -205 95.5 -315t245.5 -110q104 0 180 56.5t97 148.5q4 9 8 12.5t10 3.5q7 0 10.5 -5.5t2.5 -14.5q-9 -81 -58 -146t-126 -103t-173 -38
q-125 0 -218.5 55.5t-145 157t-51.5 239.5t52.5 248t148 174.5t223.5 64.5q105 0 184 -45.5t123 -126.5t44 -187zM583 1206q24 43 46.5 66.5t53.5 21.5q28 -2 42 -20.5t12 -40.5q-2 -27 -21.5 -49t-50.5 -45l-174 -143q-5 -3 -11 -3.5t-11 3.5t-3.5 9.5t5.5 11.5z" />
    <glyph glyph-name="ecircumflex" unicode="&#xea;" horiz-adv-x="915" 
d="M847 559q0 -24 -15 -36t-44 -12h-636v32h527q33 0 33 30q0 144 -63 226.5t-169 82.5q-88 0 -151.5 -49t-98.5 -137t-35 -206q0 -205 95.5 -315t245.5 -110q104 0 180 56.5t97 148.5q4 9 8 12.5t10 3.5q7 0 10.5 -5.5t2.5 -14.5q-9 -81 -58 -146t-126 -103t-173 -38
q-125 0 -218.5 55.5t-145 157t-51.5 239.5t52.5 248t148 174.5t223.5 64.5q105 0 184 -45.5t123 -126.5t44 -187zM507 1173h-41l227 -179q8 -6 15 -7t12 2q4 4 4 10.5t-7 13.5l-185 236q-11 14 -21 21t-24 7t-24.5 -7t-22.5 -21l-185 -236q-6 -7 -6 -13.5t4 -10.5
q5 -3 12 -2t15 7z" />
    <glyph glyph-name="edieresis" unicode="&#xeb;" horiz-adv-x="915" 
d="M847 559q0 -24 -15 -36t-44 -12h-636v32h527q33 0 33 30q0 144 -63 226.5t-169 82.5q-88 0 -151.5 -49t-98.5 -137t-35 -206q0 -205 95.5 -315t245.5 -110q104 0 180 56.5t97 148.5q4 9 8 12.5t10 3.5q7 0 10.5 -5.5t2.5 -14.5q-9 -81 -58 -146t-126 -103t-173 -38
q-125 0 -218.5 55.5t-145 157t-51.5 239.5t52.5 248t148 174.5t223.5 64.5q105 0 184 -45.5t123 -126.5t44 -187zM330 1017q-36 0 -58 24.5t-22 61.5t22 61.5t58 24.5t57.5 -24.5t21.5 -61.5q0 -36 -21.5 -61t-57.5 -25zM644 1017q-36 0 -58.5 24.5t-22.5 61.5t22.5 61.5
t58.5 24.5t58 -24.5t22 -61.5q0 -36 -22 -61t-58 -25z" />
    <glyph glyph-name="igrave" unicode="&#xec;" horiz-adv-x="498" 
d="M326 885v-801q0 -17 9 -27t26 -14l61 -10q11 -2 16.5 -6t5.5 -12q0 -6 -6 -10.5t-17 -4.5h-323q-9 0 -15 4.5t-6 10.5q0 7 5.5 11t14.5 6l66 11q17 5 26 14t9 26v706q0 13 -5 19t-17 7h-87q-9 1 -13.5 4.5t-4.5 9.5t4.5 10.5t15.5 7.5l173 52q15 6 24.5 7.5t16.5 1.5
q10 0 15.5 -6t5.5 -17zM169 1206l112 -189q3 -6 4.5 -11.5t-3.5 -9.5q-4 -4 -10 -3.5t-12 3.5l-175 143q-29 23 -48.5 45t-21.5 49q-2 22 12 40.5t42 20.5q31 2 53.5 -21.5t46.5 -66.5z" />
    <glyph glyph-name="iacute" unicode="&#xed;" horiz-adv-x="498" 
d="M326 885v-801q0 -17 9 -27t26 -14l61 -10q11 -2 16.5 -6t5.5 -12q0 -6 -6 -10.5t-17 -4.5h-323q-9 0 -15 4.5t-6 10.5q0 7 5.5 11t14.5 6l66 11q17 5 26 14t9 26v706q0 13 -5 19t-17 7h-87q-9 1 -13.5 4.5t-4.5 9.5t4.5 10.5t15.5 7.5l173 52q15 6 24.5 7.5t16.5 1.5
q10 0 15.5 -6t5.5 -17zM336 1206q24 43 46.5 66.5t53.5 21.5q28 -2 42 -20.5t12 -40.5q-2 -27 -21.5 -49t-50.5 -45l-174 -143q-5 -3 -11 -3.5t-11 3.5t-3.5 9.5t5.5 11.5z" />
    <glyph glyph-name="icircumflex" unicode="&#xee;" horiz-adv-x="498" 
d="M326 885v-801q0 -17 9 -27t26 -14l61 -10q11 -2 16.5 -6t5.5 -12q0 -6 -6 -10.5t-17 -4.5h-323q-9 0 -15 4.5t-6 10.5q0 7 5.5 11t14.5 6l66 11q17 5 26 14t9 26v706q0 13 -5 19t-17 7h-87q-9 1 -13.5 4.5t-4.5 9.5t4.5 10.5t15.5 7.5l173 52q15 6 24.5 7.5t16.5 1.5
q10 0 15.5 -6t5.5 -17zM270.708 1173h-36.9014l204.306 -179q7.2002 -6 13.5 -7q6.30078 -1 10.8008 2q3.59961 4 3.59961 10.5t-6.2998 13.5l-166.505 236q-9.90039 14 -18.9004 21t-21.6006 7t-22.0508 -7t-20.25 -21l-166.505 -236q-5.40039 -7 -5.40039 -13.5
t3.60059 -10.5q4.5 -3 10.7998 -2q6.30078 1 13.501 7z" />
    <glyph glyph-name="idieresis" unicode="&#xef;" horiz-adv-x="498" 
d="M326 885v-801q0 -17 9 -27t26 -14l61 -10q11 -2 16.5 -6t5.5 -12q0 -6 -6 -10.5t-17 -4.5h-323q-9 0 -15 4.5t-6 10.5q0 7 5.5 11t14.5 6l66 11q17 5 26 14t9 26v706q0 13 -5 19t-17 7h-87q-9 1 -13.5 4.5t-4.5 9.5t4.5 10.5t15.5 7.5l173 52q15 6 24.5 7.5t16.5 1.5
q10 0 15.5 -6t5.5 -17zM103.998 1017q-28.7988 0 -46.3994 24.5q-17.5996 24.5 -17.5996 61.5t17.5996 61.5q17.6006 24.5 46.3994 24.5q28.7998 0 46 -24.5q17.1992 -24.5 17.1992 -61.5q0 -36 -17.1992 -61q-17.2002 -25 -46 -25zM355.194 1017q-28.7998 0 -46.7988 24.5
q-18 24.5 -18 61.5t18 61.5q17.999 24.5 46.7988 24.5t46.3994 -24.5t17.5996 -61.5q0 -36 -17.5996 -61t-46.3994 -25z" />
    <glyph glyph-name="eth" unicode="&#xf0;" horiz-adv-x="1051" 
d="M978 511q0 -168 -57 -287.5t-158 -182.5t-235 -63q-137 0 -239 61t-158.5 169.5t-56.5 249.5q0 127 53.5 231.5t150 166.5t226.5 62q78 0 149 -31.5t125 -98.5t80 -174l-11 -1q-41 214 -115 372.5t-179 264.5t-241 161q-11 5 -15.5 11.5t-2.5 14.5q3 9 11.5 11.5
t22.5 -0.5q142 -42 261 -134.5t206 -219.5t135 -276.5t48 -306.5zM210 472q2 -129 45 -231t120 -160t180 -58q76 1 145 46.5t112.5 138t41.5 233.5q-1 135 -50 231.5t-126.5 148t-164.5 51.5q-92 0 -161.5 -46.5t-106.5 -135.5t-35 -218zM330 1099q-4 7 -1.5 14.5t11.5 11.5
l516 257q9 5 16 2.5t11 -9.5q8 -17 -10 -26l-517 -257q-8 -4 -15 -2t-11 9z" />
    <glyph glyph-name="ntilde" unicode="&#xf1;" horiz-adv-x="1082" 
d="M323 883v-799q0 -17 9 -27t26 -14l61 -10q21 -4 21 -17q0 -16 -23 -16h-323q-10 0 -15.5 4.5t-5.5 10.5q0 7 5 11t16 6l65 11q17 4 26 13.5t9 26.5v705q0 13 -5 19t-17 7l-87 1q-9 0 -13.5 4t-4.5 9q0 7 4.5 11t15.5 8l169 52q16 5 26 7t17 2q12 0 18 -6.5t6 -18.5z
M305 696l-21 20l41 36q102 91 174.5 128t142.5 37q107 0 165.5 -71t75.5 -203l73 -551q3 -22 13 -34.5t31 -16.5l53 -9q10 -2 15.5 -6t5.5 -11q0 -6 -5.5 -10.5t-16.5 -4.5h-327q-23 0 -23 16q0 12 21 17l64 10q22 4 32 16.5t7 32.5l-71 534q-16 112 -58.5 166t-122.5 54
q-51 0 -106.5 -28t-123.5 -88zM659 1006q-37 0 -68 16t-58.5 37.5t-54.5 37.5t-56 16q-31 0 -47 -24t-17 -69q-2 -21 -18 -21q-17 0 -17 25q0 89 32 133.5t92 44.5q37 0 67.5 -16.5t58 -37.5t54.5 -37t56 -16q32 0 47.5 24t16.5 70q2 20 18 20q18 0 18 -24
q0 -90 -32.5 -134.5t-91.5 -44.5z" />
    <glyph glyph-name="ograve" unicode="&#xf2;" 
d="M527 917q131 0 232.5 -60t159.5 -166t58 -245q0 -137 -58.5 -242t-161 -165t-236.5 -60q-131 0 -231.5 59.5t-158.5 165t-58 243.5t57.5 243.5t159.5 166t237 60.5zM584 22q93 10 155.5 69t88.5 159t9 234q-16 136 -67 227t-129 133t-175 31q-96 -10 -158 -70t-87 -160
t-8 -233q16 -133 68 -224t130 -134t173 -32zM462 1206l112 -189q3 -6 4.5 -11.5t-3.5 -9.5q-4 -4 -10 -3.5t-12 3.5l-175 143q-29 23 -48.5 45t-21.5 49q-2 22 12 40.5t42 20.5q31 2 53.5 -21.5t46.5 -66.5z" />
    <glyph glyph-name="oacute" unicode="&#xf3;" 
d="M527 917q131 0 232.5 -60t159.5 -166t58 -245q0 -137 -58.5 -242t-161 -165t-236.5 -60q-131 0 -231.5 59.5t-158.5 165t-58 243.5t57.5 243.5t159.5 166t237 60.5zM584 22q93 10 155.5 69t88.5 159t9 234q-16 136 -67 227t-129 133t-175 31q-96 -10 -158 -70t-87 -160
t-8 -233q16 -133 68 -224t130 -134t173 -32zM622 1206q24 43 46.5 66.5t53.5 21.5q28 -2 42 -20.5t12 -40.5q-2 -27 -21.5 -49t-50.5 -45l-174 -143q-5 -3 -11 -3.5t-11 3.5t-3.5 9.5t5.5 11.5z" />
    <glyph glyph-name="ocircumflex" unicode="&#xf4;" 
d="M527 917q131 0 232.5 -60t159.5 -166t58 -245q0 -137 -58.5 -242t-161 -165t-236.5 -60q-131 0 -231.5 59.5t-158.5 165t-58 243.5t57.5 243.5t159.5 166t237 60.5zM584 22q93 10 155.5 69t88.5 159t9 234q-16 136 -67 227t-129 133t-175 31q-96 -10 -158 -70t-87 -160
t-8 -233q16 -133 68 -224t130 -134t173 -32zM546 1173h-41l227 -179q8 -6 15 -7t12 2q4 4 4 10.5t-7 13.5l-185 236q-11 14 -21 21t-24 7t-24.5 -7t-22.5 -21l-185 -236q-6 -7 -6 -13.5t4 -10.5q5 -3 12 -2t15 7z" />
    <glyph glyph-name="otilde" unicode="&#xf5;" 
d="M527 917q131 0 232.5 -60t159.5 -166t58 -245q0 -137 -58.5 -242t-161 -165t-236.5 -60q-131 0 -231.5 59.5t-158.5 165t-58 243.5t57.5 243.5t159.5 166t237 60.5zM584 22q93 10 155.5 69t88.5 159t9 234q-16 136 -67 227t-129 133t-175 31q-96 -10 -158 -70t-87 -160
t-8 -233q16 -133 68 -224t130 -134t173 -32zM632 1006q-37 0 -68 16t-58.5 37.5t-54.5 37.5t-56 16q-31 0 -47 -24t-17 -69q-2 -21 -18 -21q-17 0 -17 25q0 89 32 133.5t92 44.5q37 0 67.5 -16.5t58 -37.5t54.5 -37t56 -16q32 0 47.5 24t16.5 70q2 20 18 20q18 0 18 -24
q0 -90 -32.5 -134.5t-91.5 -44.5z" />
    <glyph glyph-name="odieresis" unicode="&#xf6;" 
d="M527 917q131 0 232.5 -60t159.5 -166t58 -245q0 -137 -58.5 -242t-161 -165t-236.5 -60q-131 0 -231.5 59.5t-158.5 165t-58 243.5t57.5 243.5t159.5 166t237 60.5zM584 22q93 10 155.5 69t88.5 159t9 234q-16 136 -67 227t-129 133t-175 31q-96 -10 -158 -70t-87 -160
t-8 -233q16 -133 68 -224t130 -134t173 -32zM369 1017q-36 0 -58 24.5t-22 61.5t22 61.5t58 24.5t57.5 -24.5t21.5 -61.5q0 -36 -21.5 -61t-57.5 -25zM683 1017q-36 0 -58.5 24.5t-22.5 61.5t22.5 61.5t58.5 24.5t58 -24.5t22 -61.5q0 -36 -22 -61t-58 -25z" />
    <glyph glyph-name="divide" unicode="&#xf7;" horiz-adv-x="1015" 
d="M492.063 984.699q-16.8398 0 -30.373 8.30078q-13.5322 8.30078 -21.6514 21.583q-8.11914 13.2812 -8.11914 28.7773q0 16.6016 8.11914 30.1602t21.9521 21.3057q13.833 7.74805 30.0723 7.74805q17.4424 0 30.9746 -8.02441t21.3506 -21.3057
q7.81934 -13.2822 7.81934 -29.3311t-7.81934 -29.3301q-7.81836 -13.2822 -21.3506 -21.583t-30.9746 -8.30078zM125 682q0 11 8.5 17t19.5 6h718q11 0 19 -6t8 -17t-8 -17.5t-19 -6.5h-718q-11 0 -19.5 6.5t-8.5 17.5zM492.063 278.699q-16.8398 0 -30.373 8.30078
q-13.5322 8.30078 -21.6514 21.583q-8.11914 13.2812 -8.11914 28.7773q0 16.6016 8.11914 30.1602t21.9521 21.3057q13.833 7.74805 30.0723 7.74805q17.4424 0 30.9746 -8.02441t21.3506 -21.3057q7.81934 -13.2822 7.81934 -29.3311t-7.81934 -29.3301
q-7.81836 -13.2822 -21.3506 -21.583t-30.9746 -8.30078z" />
    <glyph glyph-name="oslash" unicode="&#xf8;" horiz-adv-x="1048" 
d="M94 -25q-6 4 -6.5 11t5.5 13l135 154l16 15l539 581l11 13l137 154q6 6 12.5 7t12.5 -4q6 -4 6.5 -10.5t-5.5 -12.5l-140 -159l-12 -10l-540 -583l-13 -15l-133 -150q-12 -14 -25 -4zM527 917q131 0 232.5 -60t159.5 -166t58 -245q0 -137 -58.5 -242t-161 -165
t-236.5 -60q-131 0 -231.5 59.5t-158.5 165t-58 243.5t57.5 243.5t159.5 166t237 60.5zM584 22q93 10 155.5 69t88.5 159t9 234q-16 136 -67 227t-129 133t-175 31q-96 -10 -158 -70t-87 -160t-8 -233q16 -133 68 -224t130 -134t173 -32z" />
    <glyph glyph-name="ugrave" unicode="&#xf9;" horiz-adv-x="1069" 
d="M768 64v97l-2 6v621q0 12 -4.5 18.5t-16.5 6.5l-87 1q-10 1 -14 4.5t-4 8.5q0 7 4.5 11t15.5 8l168 52q16 5 26 7.5t17 2.5q13 0 18.5 -7t5.5 -19v-798q0 -17 9 -27t26 -14l62 -10q11 -2 16.5 -6t5.5 -12q0 -6 -6 -10.5t-17 -4.5h-167q-27 0 -41.5 15.5t-14.5 48.5z
M176 259v529q0 12 -5 18.5t-18 6.5l-86 1q-10 1 -14.5 4.5t-4.5 8.5q0 7 4.5 11t16.5 8l169 52q16 6 26 8t16 2q13 0 19 -7t6 -19v-606q0 -113 55 -167.5t144 -54.5q55 0 115.5 27t130.5 88l39 35l20 -20l-40 -36q-105 -94 -182.5 -130t-152.5 -36q-114 0 -186 71.5
t-72 205.5zM456 1206l112 -189q3 -6 4.5 -11.5t-3.5 -9.5q-4 -4 -10 -3.5t-12 3.5l-175 143q-29 23 -48.5 45t-21.5 49q-2 22 12 40.5t42 20.5q31 2 53.5 -21.5t46.5 -66.5z" />
    <glyph glyph-name="uacute" unicode="&#xfa;" horiz-adv-x="1069" 
d="M768 64v97l-2 6v621q0 12 -4.5 18.5t-16.5 6.5l-87 1q-10 1 -14 4.5t-4 8.5q0 7 4.5 11t15.5 8l168 52q16 5 26 7.5t17 2.5q13 0 18.5 -7t5.5 -19v-798q0 -17 9 -27t26 -14l62 -10q11 -2 16.5 -6t5.5 -12q0 -6 -6 -10.5t-17 -4.5h-167q-27 0 -41.5 15.5t-14.5 48.5z
M176 259v529q0 12 -5 18.5t-18 6.5l-86 1q-10 1 -14.5 4.5t-4.5 8.5q0 7 4.5 11t16.5 8l169 52q16 6 26 8t16 2q13 0 19 -7t6 -19v-606q0 -113 55 -167.5t144 -54.5q55 0 115.5 27t130.5 88l39 35l20 -20l-40 -36q-105 -94 -182.5 -130t-152.5 -36q-114 0 -186 71.5
t-72 205.5zM616 1206q24 43 46.5 66.5t53.5 21.5q28 -2 42 -20.5t12 -40.5q-2 -27 -21.5 -49t-50.5 -45l-174 -143q-5 -3 -11 -3.5t-11 3.5t-3.5 9.5t5.5 11.5z" />
    <glyph glyph-name="ucircumflex" unicode="&#xfb;" horiz-adv-x="1069" 
d="M768 64v97l-2 6v621q0 12 -4.5 18.5t-16.5 6.5l-87 1q-10 1 -14 4.5t-4 8.5q0 7 4.5 11t15.5 8l168 52q16 5 26 7.5t17 2.5q13 0 18.5 -7t5.5 -19v-798q0 -17 9 -27t26 -14l62 -10q11 -2 16.5 -6t5.5 -12q0 -6 -6 -10.5t-17 -4.5h-167q-27 0 -41.5 15.5t-14.5 48.5z
M176 259v529q0 12 -5 18.5t-18 6.5l-86 1q-10 1 -14.5 4.5t-4.5 8.5q0 7 4.5 11t16.5 8l169 52q16 6 26 8t16 2q13 0 19 -7t6 -19v-606q0 -113 55 -167.5t144 -54.5q55 0 115.5 27t130.5 88l39 35l20 -20l-40 -36q-105 -94 -182.5 -130t-152.5 -36q-114 0 -186 71.5
t-72 205.5zM544 1173h-41l227 -179q8 -6 15 -7t12 2q4 4 4 10.5t-7 13.5l-185 236q-11 14 -21 21t-24 7t-24.5 -7t-22.5 -21l-185 -236q-6 -7 -6 -13.5t4 -10.5q5 -3 12 -2t15 7z" />
    <glyph glyph-name="udieresis" unicode="&#xfc;" horiz-adv-x="1069" 
d="M768 64v97l-2 6v621q0 12 -4.5 18.5t-16.5 6.5l-87 1q-10 1 -14 4.5t-4 8.5q0 7 4.5 11t15.5 8l168 52q16 5 26 7.5t17 2.5q13 0 18.5 -7t5.5 -19v-798q0 -17 9 -27t26 -14l62 -10q11 -2 16.5 -6t5.5 -12q0 -6 -6 -10.5t-17 -4.5h-167q-27 0 -41.5 15.5t-14.5 48.5z
M176 259v529q0 12 -5 18.5t-18 6.5l-86 1q-10 1 -14.5 4.5t-4.5 8.5q0 7 4.5 11t16.5 8l169 52q16 6 26 8t16 2q13 0 19 -7t6 -19v-606q0 -113 55 -167.5t144 -54.5q55 0 115.5 27t130.5 88l39 35l20 -20l-40 -36q-105 -94 -182.5 -130t-152.5 -36q-114 0 -186 71.5
t-72 205.5zM363 1017q-36 0 -58 24.5t-22 61.5t22 61.5t58 24.5t57.5 -24.5t21.5 -61.5q0 -36 -21.5 -61t-57.5 -25zM677 1017q-36 0 -58.5 24.5t-22.5 61.5t22.5 61.5t58.5 24.5t58 -24.5t22 -61.5q0 -36 -22 -61t-58 -25z" />
    <glyph glyph-name="yacute" unicode="&#xfd;" horiz-adv-x="971" 
d="M539 105l-64 -158l-341 830q-19 47 -43.5 64t-71.5 24q-13 3 -17 7.5t-4 10.5q0 8 5.5 12t16.5 4h355q11 0 17 -4t6 -12t-5 -12.5t-17 -5.5l-67 -8q-38 -6 -45 -24t9 -58zM373 -271l115 290l15 33l277 697q22 54 12.5 77t-54.5 30l-55 8q-12 2 -17.5 6.5t-5.5 11.5
q0 8 6 12.5t17 4.5h268q11 0 17 -4.5t6 -12.5q0 -6 -4.5 -10.5t-18.5 -7.5q-48 -7 -74 -28.5t-46 -72.5l-414 -1038q-32 -80 -63 -126.5t-67.5 -66t-84.5 -19.5q-73 0 -115 39t-42 95q0 37 17.5 58.5t46.5 21.5q27 0 42.5 -19.5t20.5 -50.5l4 -29q3 -32 18 -48.5t39 -16.5
t46.5 15.5t45.5 52t48 98.5zM625 1206q24 43 46.5 66.5t53.5 21.5q28 -2 42 -20.5t12 -40.5q-2 -27 -21.5 -49t-50.5 -45l-174 -143q-5 -3 -11 -3.5t-11 3.5t-3.5 9.5t5.5 11.5z" />
    <glyph glyph-name="thorn" unicode="&#xfe;" horiz-adv-x="1075" 
d="M299 1443v-1829q0 -17 9 -27t26 -12l85 -11q11 -2 16.5 -6t5.5 -12q0 -7 -6 -11t-17 -4h-340q-9 0 -15 4t-6 11t6 11.5t18 7.5l54 9q17 4 26 13.5t9 25.5v1734q0 12 -4.5 18t-16.5 7h-87q-9 1 -14 4.5t-5 9.5q0 12 21 18l173 53q15 5 24 6.5t17 1.5q10 0 15.5 -5.5
t5.5 -16.5zM273 689l-13 28q75 98 164 149.5t194 51.5q109 0 195 -57t136 -158.5t50 -234.5q0 -153 -57 -263t-153 -168t-212 -58q-110 0 -193 52.5t-135 152.5l19 28q46 -89 120 -137.5t160 -48.5q90 0 161 46t113 139t42 235q0 139 -39 232t-106.5 140t-152.5 47
q-74 0 -149.5 -43.5t-143.5 -132.5z" />
    <glyph glyph-name="ydieresis" unicode="&#xff;" horiz-adv-x="971" 
d="M539 105l-64 -158l-341 830q-19 47 -43.5 64t-71.5 24q-13 3 -17 7.5t-4 10.5q0 8 5.5 12t16.5 4h355q11 0 17 -4t6 -12t-5 -12.5t-17 -5.5l-67 -8q-38 -6 -45 -24t9 -58zM373 -271l115 290l15 33l277 697q22 54 12.5 77t-54.5 30l-55 8q-12 2 -17.5 6.5t-5.5 11.5
q0 8 6 12.5t17 4.5h268q11 0 17 -4.5t6 -12.5q0 -6 -4.5 -10.5t-18.5 -7.5q-48 -7 -74 -28.5t-46 -72.5l-414 -1038q-32 -80 -63 -126.5t-67.5 -66t-84.5 -19.5q-73 0 -115 39t-42 95q0 37 17.5 58.5t46.5 21.5q27 0 42.5 -19.5t20.5 -50.5l4 -29q3 -32 18 -48.5t39 -16.5
t46.5 15.5t45.5 52t48 98.5zM372 1017q-36 0 -58 24.5t-22 61.5t22 61.5t58 24.5t57.5 -24.5t21.5 -61.5q0 -36 -21.5 -61t-57.5 -25zM686 1017q-36 0 -58.5 24.5t-22.5 61.5t22.5 61.5t58.5 24.5t58 -24.5t22 -61.5q0 -36 -22 -61t-58 -25z" />
    <glyph glyph-name="Amacron" unicode="&#x100;" horiz-adv-x="1275" 
d="M310 543h572l5 -41h-585zM348 16q0 -7 -5.5 -11.5t-17.5 -4.5h-283q-11 0 -17 4.5t-6 11.5q0 6 4.5 10t16.5 8l49 14q25 8 41 27.5t33 72.5l374 1161q9 25 0.5 37.5t-43.5 17.5q-18 4 -25 9t-7 12t6 11t19 4h294q12 0 17.5 -4t5.5 -11t-6.5 -12t-24.5 -8
q-32 -3 -37.5 -11.5t1.5 -30.5l411 -1225q9 -30 28 -44t53 -18q16 -3 21 -7.5t5 -12.5q0 -7 -6 -11.5t-18 -4.5h-333q-11 0 -17.5 4.5t-6.5 11.5t5.5 11.5t17.5 6.5l73 7q23 4 27 18t-5 41l-412 1243l21 13l-389 -1206q-10 -32 -7.5 -53t17.5 -33t41 -19l63 -12
q12 -2 17 -5.5t5 -11.5zM398 1571q0 17 7.5 24.5t22.5 7.5h409q16 0 23.5 -7.5t7.5 -24.5q0 -16 -7.5 -24t-23.5 -8h-409q-15 0 -22.5 8t-7.5 24z" />
    <glyph glyph-name="amacron" unicode="&#x101;" horiz-adv-x="943" 
d="M647 107v12l-5 3v551q0 105 -46.5 160t-136.5 55q-92 0 -135 -40t-43 -87v-63q0 -34 -21.5 -53t-55.5 -19q-30 0 -47.5 19t-17.5 52q0 55 40 105.5t116.5 83t183.5 32.5q147 0 219 -68t72 -184v-553q0 -41 14 -58.5t36 -17.5q24 0 36.5 11.5t17.5 26.5q2 5 5.5 8t7.5 3
q6 0 8.5 -4t2.5 -11q0 -19 -13.5 -40t-40.5 -35.5t-67 -14.5q-63 0 -96.5 32t-33.5 94zM92 198q0 105 91 175t257 70q74 0 131.5 -14.5t104.5 -34.5l-7 -27q-47 19 -97.5 32.5t-111.5 13.5q-111 0 -171.5 -53t-60.5 -141q0 -86 51.5 -134.5t132.5 -48.5q70 0 136.5 30
t114.5 90l14 -22q-55 -74 -140.5 -113.5t-182.5 -39.5q-117 0 -189.5 59t-72.5 158zM235 1098q0 17 7.5 24.5t22.5 7.5h412q15 0 22.5 -7.5t7.5 -25.5q0 -16 -7.5 -24t-22.5 -8h-412q-15 0 -22.5 8t-7.5 25z" />
    <glyph glyph-name="Abreve" unicode="&#x102;" horiz-adv-x="1275" 
d="M310 543h572l5 -41h-585zM348 16q0 -7 -5.5 -11.5t-17.5 -4.5h-283q-11 0 -17 4.5t-6 11.5q0 6 4.5 10t16.5 8l49 14q25 8 41 27.5t33 72.5l374 1161q9 25 0.5 37.5t-43.5 17.5q-18 4 -25 9t-7 12t6 11t19 4h294q12 0 17.5 -4t5.5 -11t-6.5 -12t-24.5 -8
q-32 -3 -37.5 -11.5t1.5 -30.5l411 -1225q9 -30 28 -44t53 -18q16 -3 21 -7.5t5 -12.5q0 -7 -6 -11.5t-18 -4.5h-333q-11 0 -17.5 4.5t-6.5 11.5t5.5 11.5t17.5 6.5l73 7q23 4 27 18t-5 41l-412 1243l21 13l-389 -1206q-10 -32 -7.5 -53t17.5 -33t41 -19l63 -12
q12 -2 17 -5.5t5 -11.5zM633 1560q67 0 112 33.5t67 110.5q3 10 7.5 13t9.5 3q7 0 11.5 -5.5t3.5 -16.5q-7 -104 -62 -167t-149 -63q-93 0 -148 63t-62 167q-1 11 3.5 16.5t10.5 5.5t10 -3t7 -13q23 -78 68.5 -111t110.5 -33z" />
    <glyph glyph-name="abreve" unicode="&#x103;" horiz-adv-x="943" 
d="M647 107v12l-5 3v551q0 105 -46.5 160t-136.5 55q-92 0 -135 -40t-43 -87v-63q0 -34 -21.5 -53t-55.5 -19q-30 0 -47.5 19t-17.5 52q0 55 40 105.5t116.5 83t183.5 32.5q147 0 219 -68t72 -184v-553q0 -41 14 -58.5t36 -17.5q24 0 36.5 11.5t17.5 26.5q2 5 5.5 8t7.5 3
q6 0 8.5 -4t2.5 -11q0 -19 -13.5 -40t-40.5 -35.5t-67 -14.5q-63 0 -96.5 32t-33.5 94zM92 198q0 105 91 175t257 70q74 0 131.5 -14.5t104.5 -34.5l-7 -27q-47 19 -97.5 32.5t-111.5 13.5q-111 0 -171.5 -53t-60.5 -141q0 -86 51.5 -134.5t132.5 -48.5q70 0 136.5 30
t114.5 90l14 -22q-55 -74 -140.5 -113.5t-182.5 -39.5q-117 0 -189.5 59t-72.5 158zM470 1091q67 0 112 35.5t67 114.5q7 17 18 17q7 0 11.5 -5.5t2.5 -17.5q-7 -109 -62 -174t-149 -65t-149.5 65t-62.5 174q-1 12 3.5 17.5t10.5 5.5q12 0 17 -17q24 -80 69.5 -115
t111.5 -35z" />
    <glyph glyph-name="Aogonek" unicode="&#x104;" horiz-adv-x="1275" 
d="M1088 22l13 -20q-89 -44 -132 -102.5t-43 -133.5q0 -63 30.5 -96.5t80.5 -33.5q33 0 63 17.5t45 45.5q5 6 9 8.5t10 1.5q5 -1 8 -6.5t0 -13.5q-12 -35 -54.5 -64.5t-108.5 -29.5q-87 0 -136.5 42.5t-49.5 116.5q0 53 28 101.5t87 91t150 75.5zM310 543h572l5 -41h-585z
M348 16q0 -7 -5.5 -11.5t-17.5 -4.5h-283q-11 0 -17 4.5t-6 11.5q0 6 4.5 10t16.5 8l49 14q25 8 41 27.5t33 72.5l374 1161q9 25 0.5 37.5t-43.5 17.5q-18 4 -25 9t-7 12t6 11t19 4h294q12 0 17.5 -4t5.5 -11t-6.5 -12t-24.5 -8q-32 -3 -37.5 -11.5t1.5 -30.5l411 -1225
q9 -30 28 -44t53 -18q16 -3 21 -7.5t5 -12.5q0 -7 -6 -11.5t-18 -4.5h-333q-11 0 -17.5 4.5t-6.5 11.5t5.5 11.5t17.5 6.5l73 7q23 4 27 18t-5 41l-412 1243l21 13l-389 -1206q-10 -32 -7.5 -53t17.5 -33t41 -19l63 -12q12 -2 17 -5.5t5 -11.5z" />
    <glyph glyph-name="aogonek" unicode="&#x105;" horiz-adv-x="943" 
d="M757 20l13 -21q-90 -44 -133 -103t-43 -135q0 -64 30.5 -97.5t81.5 -33.5q34 0 64 18t46 46q4 7 8 9t9 1t8.5 -6t-0.5 -14q-12 -36 -54.5 -66t-109.5 -30q-87 0 -137 43t-50 118q0 54 28 103t87.5 91.5t151.5 76.5zM647 107v12l-5 3v551q0 105 -46.5 160t-136.5 55
q-92 0 -135 -40t-43 -87v-63q0 -34 -21.5 -53t-55.5 -19q-30 0 -47.5 19t-17.5 52q0 55 40 105.5t116.5 83t183.5 32.5q147 0 219 -68t72 -184v-553q0 -41 14 -58.5t36 -17.5q24 0 36.5 11.5t17.5 26.5q2 5 5.5 8t7.5 3q6 0 8.5 -4t2.5 -11q0 -19 -13.5 -40t-40.5 -35.5
t-67 -14.5q-63 0 -96.5 32t-33.5 94zM92 198q0 105 91 175t257 70q74 0 131.5 -14.5t104.5 -34.5l-7 -27q-47 19 -97.5 32.5t-111.5 13.5q-111 0 -171.5 -53t-60.5 -141q0 -86 51.5 -134.5t132.5 -48.5q70 0 136.5 30t114.5 90l14 -22q-55 -74 -140.5 -113.5t-182.5 -39.5
q-117 0 -189.5 59t-72.5 158z" />
    <glyph glyph-name="Cacute" unicode="&#x106;" horiz-adv-x="1314" 
d="M1250 345q-5 -72 -43 -139.5t-104 -121.5t-157.5 -85.5t-206.5 -31.5q-201 0 -347.5 92t-225.5 254.5t-79 374.5q0 162 47 297t133 234.5t203 154t257 54.5q106 0 173.5 -23.5t103 -47.5t47.5 -24q15 0 25.5 21.5t20 43t22.5 21.5q8 0 13 -4.5t8 -16.5l110 -341
q4 -11 -0.5 -19.5t-15.5 -9.5q-10 -2 -18 3t-13 16q-53 120 -120.5 195t-152.5 110.5t-191 35.5q-108 0 -199.5 -45t-159.5 -130t-105.5 -204.5t-37.5 -269.5q0 -219 72 -374t197.5 -237.5t286.5 -82.5q167 0 274.5 82t152.5 217q4 9 8.5 13t11.5 3q5 -1 8 -4.5t2 -10.5z
M849 1663q31 35 56 54t54 13q26 -5 37.5 -24.5t7.5 -39.5q-5 -28 -28.5 -46.5t-56.5 -36.5l-196 -106q-5 -3 -11.5 -3t-10.5 4q-4 5 -1.5 10.5t6.5 10.5z" />
    <glyph glyph-name="cacute" unicode="&#x107;" horiz-adv-x="887" 
d="M833 691q0 -35 -20.5 -57.5t-52.5 -22.5q-33 0 -53 21t-20 57v37q0 69 -52 112.5t-143 43.5q-88 0 -154.5 -49.5t-103.5 -138t-37 -204.5q0 -135 44.5 -228.5t121 -142t173.5 -48.5q100 0 173 52t99 142q5 9 9 12.5t10 3.5q7 0 10 -5.5t2 -13.5q-15 -84 -63.5 -148
t-122 -99t-165.5 -35q-122 0 -215.5 55t-146.5 157t-53 244q0 134 55 243t153.5 174t229.5 65q100 0 172 -31t111 -83t39 -113zM586 1206q24 43 46.5 66.5t53.5 21.5q28 -2 42 -20.5t12 -40.5q-2 -27 -21.5 -49t-50.5 -45l-174 -143q-5 -3 -11 -3.5t-11 3.5t-3.5 9.5
t5.5 11.5z" />
    <glyph glyph-name="Ccircumflex" unicode="&#x108;" horiz-adv-x="1314" 
d="M1250 345q-5 -72 -43 -139.5t-104 -121.5t-157.5 -85.5t-206.5 -31.5q-201 0 -347.5 92t-225.5 254.5t-79 374.5q0 162 47 297t133 234.5t203 154t257 54.5q106 0 173.5 -23.5t103 -47.5t47.5 -24q15 0 25.5 21.5t20 43t22.5 21.5q8 0 13 -4.5t8 -16.5l110 -341
q4 -11 -0.5 -19.5t-15.5 -9.5q-10 -2 -18 3t-13 16q-53 120 -120.5 195t-152.5 110.5t-191 35.5q-108 0 -199.5 -45t-159.5 -130t-105.5 -204.5t-37.5 -269.5q0 -219 72 -374t197.5 -237.5t286.5 -82.5q167 0 274.5 82t152.5 217q4 9 8.5 13t11.5 3q5 -1 8 -4.5t2 -10.5z
M755 1626h-41l225 -145q18 -11 28 -4q4 3 4 9.5t-7 14.5l-184 201q-12 13 -21.5 20.5t-23.5 7.5q-13 0 -23 -7.5t-23 -20.5l-184 -201q-7 -8 -6.5 -14.5t4.5 -9.5q9 -7 27 4z" />
    <glyph glyph-name="ccircumflex" unicode="&#x109;" horiz-adv-x="887" 
d="M833 691q0 -35 -20.5 -57.5t-52.5 -22.5q-33 0 -53 21t-20 57v37q0 69 -52 112.5t-143 43.5q-88 0 -154.5 -49.5t-103.5 -138t-37 -204.5q0 -135 44.5 -228.5t121 -142t173.5 -48.5q100 0 173 52t99 142q5 9 9 12.5t10 3.5q7 0 10 -5.5t2 -13.5q-15 -84 -63.5 -148
t-122 -99t-165.5 -35q-122 0 -215.5 55t-146.5 157t-53 244q0 134 55 243t153.5 174t229.5 65q100 0 172 -31t111 -83t39 -113zM510 1173h-41l227 -179q8 -6 15 -7t12 2q4 4 4 10.5t-7 13.5l-185 236q-11 14 -21 21t-24 7t-24.5 -7t-22.5 -21l-185 -236q-6 -7 -6 -13.5
t4 -10.5q5 -3 12 -2t15 7z" />
    <glyph glyph-name="Cdotaccent" unicode="&#x10a;" horiz-adv-x="1314" 
d="M1250 345q-5 -72 -43 -139.5t-104 -121.5t-157.5 -85.5t-206.5 -31.5q-201 0 -347.5 92t-225.5 254.5t-79 374.5q0 162 47 297t133 234.5t203 154t257 54.5q106 0 173.5 -23.5t103 -47.5t47.5 -24q15 0 25.5 21.5t20 43t22.5 21.5q8 0 13 -4.5t8 -16.5l110 -341
q4 -11 -0.5 -19.5t-15.5 -9.5q-10 -2 -18 3t-13 16q-53 120 -120.5 195t-152.5 110.5t-191 35.5q-108 0 -199.5 -45t-159.5 -130t-105.5 -204.5t-37.5 -269.5q0 -219 72 -374t197.5 -237.5t286.5 -82.5q167 0 274.5 82t152.5 217q4 9 8.5 13t11.5 3q5 -1 8 -4.5t2 -10.5z
M735 1503q-38 0 -61 25t-23 62t23 61.5t61 24.5q39 0 61.5 -24.5t22.5 -61.5t-22.5 -62t-61.5 -25z" />
    <glyph glyph-name="cdotaccent" unicode="&#x10b;" horiz-adv-x="887" 
d="M833 691q0 -35 -20.5 -57.5t-52.5 -22.5q-33 0 -53 21t-20 57v37q0 69 -52 112.5t-143 43.5q-88 0 -154.5 -49.5t-103.5 -138t-37 -204.5q0 -135 44.5 -228.5t121 -142t173.5 -48.5q100 0 173 52t99 142q5 9 9 12.5t10 3.5q7 0 10 -5.5t2 -13.5q-15 -84 -63.5 -148
t-122 -99t-165.5 -35q-122 0 -215.5 55t-146.5 157t-53 244q0 134 55 243t153.5 174t229.5 65q100 0 172 -31t111 -83t39 -113zM490 1017q-37 0 -60 25t-23 63q0 37 23 62.5t60 25.5q38 0 60.5 -25.5t22.5 -62.5q0 -38 -22.5 -63t-60.5 -25z" />
    <glyph glyph-name="Ccaron" unicode="&#x10c;" horiz-adv-x="1314" 
d="M1250 345q-5 -72 -43 -139.5t-104 -121.5t-157.5 -85.5t-206.5 -31.5q-201 0 -347.5 92t-225.5 254.5t-79 374.5q0 162 47 297t133 234.5t203 154t257 54.5q106 0 173.5 -23.5t103 -47.5t47.5 -24q15 0 25.5 21.5t20 43t22.5 21.5q8 0 13 -4.5t8 -16.5l110 -341
q4 -11 -0.5 -19.5t-15.5 -9.5q-10 -2 -18 3t-13 16q-53 120 -120.5 195t-152.5 110.5t-191 35.5q-108 0 -199.5 -45t-159.5 -130t-105.5 -204.5t-37.5 -269.5q0 -219 72 -374t197.5 -237.5t286.5 -82.5q167 0 274.5 82t152.5 217q4 9 8.5 13t11.5 3q5 -1 8 -4.5t2 -10.5z
M755 1580l-225 145q-18 12 -27 4q-4 -3 -4.5 -9.5t6.5 -14.5l184 -201q13 -13 23 -20.5t23 -7.5q14 0 23.5 7.5t21.5 20.5l184 201q7 8 7 14.5t-4 9.5q-10 8 -28 -4l-225 -145h41z" />
    <glyph glyph-name="ccaron" unicode="&#x10d;" horiz-adv-x="887" 
d="M833 691q0 -35 -20.5 -57.5t-52.5 -22.5q-33 0 -53 21t-20 57v37q0 69 -52 112.5t-143 43.5q-88 0 -154.5 -49.5t-103.5 -138t-37 -204.5q0 -135 44.5 -228.5t121 -142t173.5 -48.5q100 0 173 52t99 142q5 9 9 12.5t10 3.5q7 0 10 -5.5t2 -13.5q-15 -84 -63.5 -148
t-122 -99t-165.5 -35q-122 0 -215.5 55t-146.5 157t-53 244q0 134 55 243t153.5 174t229.5 65q100 0 172 -31t111 -83t39 -113zM510 1092l-227 179q-8 6 -15 7.5t-12 -2.5q-4 -3 -4 -9.5t6 -15.5l185 -235q12 -14 22.5 -21t24.5 -7t24 7t21 21l185 235q7 9 7 15.5t-4 9.5
q-5 4 -12 2.5t-15 -7.5l-227 -179h41z" />
    <glyph glyph-name="Dcaron" unicode="&#x10e;" horiz-adv-x="1449" 
d="M100 16q0 15 21 19l91 13q20 3 30 12.5t10 25.5v1226q0 18 -10 27.5t-30 12.5l-91 13q-21 5 -21 19q0 8 5.5 12t17.5 4h422q185 0 336 -54t259.5 -153.5t166.5 -235.5t58 -300q0 -197 -87 -344.5t-246.5 -230t-377.5 -82.5h-531q-12 0 -17.5 4.5t-5.5 11.5zM653 39
q169 0 294 72.5t194.5 213t69.5 345.5q0 158 -46 285.5t-133.5 218t-212.5 139t-283 48.5h-139v-1266q0 -28 17.5 -42t54.5 -14h184zM739 1571l-225 145q-18 12 -27 4q-4 -3 -4.5 -9.5t6.5 -14.5l184 -201q13 -13 23 -20.5t23 -7.5q14 0 23.5 7.5t21.5 20.5l184 201
q7 8 7 14.5t-4 9.5q-10 8 -28 -4l-225 -145h41z" />
    <glyph glyph-name="dcaron" unicode="&#x10f;" horiz-adv-x="1067" 
d="M774 147l-2 6v1188q0 13 -4.5 19t-16.5 7h-87q-10 1 -14 5t-4 9q0 7 4.5 11t15.5 8l168 51q17 6 26.5 8t16.5 2q13 0 18.5 -6.5t5.5 -18.5v-1352q0 -17 9 -27t26 -14l62 -10q11 -2 16.5 -6t5.5 -12q0 -6 -6 -10.5t-17 -4.5h-168q-27 0 -41 14t-14 46v87zM76 430
q0 152 58.5 261.5t155.5 167.5t212 58q113 0 198.5 -55t135.5 -149l-22 -25q-46 85 -122.5 134.5t-170.5 49.5q-86 0 -156.5 -48t-112 -143t-41.5 -235q0 -131 38 -222t105 -138.5t153 -47.5q75 0 150.5 41.5t141.5 127.5l14 -28q-80 -103 -167 -151.5t-185 -48.5
q-110 0 -197 57t-137.5 158.5t-50.5 235.5zM1014 1369q4 53 16.5 83t45.5 35q26 3 44.5 -10.5t21.5 -36.5q4 -23 -5 -47.5t-24 -51.5l-90 -186q-3 -6 -8 -8.5t-11 -1.5q-6 3 -6.5 8.5t-0.5 12.5z" />
    <glyph glyph-name="Dcroat" unicode="&#x110;" horiz-adv-x="1448" 
d="M91 709q0 7 5 11.5t14 4.5h650q10 0 14.5 -4.5t4.5 -11.5q0 -8 -4.5 -12.5t-14.5 -4.5h-651q-8 0 -13 4.5t-5 12.5zM99 16q0 15 21 19l91 13q20 3 30 12.5t10 25.5v1226q0 18 -9.5 27.5t-30.5 12.5l-91 13q-21 5 -21 19q0 8 5.5 12t17.5 4h422q186 0 336.5 -54
t259 -153.5t166.5 -235.5t58 -300q0 -197 -87 -344.5t-246 -230t-378 -82.5h-531q-12 0 -17.5 4.5t-5.5 11.5zM652 39q169 0 294 72.5t194.5 213t69.5 345.5q0 158 -46 285.5t-133 218t-212.5 139t-283.5 48.5h-139v-1266q0 -28 18 -42t54 -14h184z" />
    <glyph glyph-name="dcroat" unicode="&#x111;" horiz-adv-x="1065" 
d="M900 1449v-1365q0 -17 9 -27t26 -14l61 -10q11 -2 16.5 -6t5.5 -12q0 -6 -6 -10.5t-17 -4.5h-170q-26 0 -39 12.5t-13 42.5l-1 97v1257q0 12 5 18.5t13 10.5l69 22q10 3 15 4t10 1q8 0 12 -4.5t4 -11.5zM796 202l13 -28q-79 -101 -165 -148t-183 -47q-110 0 -197.5 57
t-137.5 158.5t-50 234.5q0 153 58.5 262t155.5 167.5t211 58.5q112 0 196.5 -54.5t134.5 -146.5l-20 -28q-45 86 -121.5 135t-169.5 49q-86 0 -156.5 -48t-112.5 -143t-42 -235q0 -132 38.5 -223.5t105.5 -139t153 -47.5q75 0 150 40.5t139 125.5zM499 1152q0 8 5 13t12 5
h509q9 0 13.5 -5t4.5 -13q0 -7 -5 -11.5t-13 -4.5h-509q-17 0 -17 16z" />
    <glyph glyph-name="Emacron" unicode="&#x112;" horiz-adv-x="1192" 
d="M347 720h367q65 0 91.5 27.5t29.5 102.5q1 10 5 16t12 7q16 3 22 -20l81 -285q3 -11 0.5 -17t-11.5 -9q-7 -1 -14 2t-12 11q-27 51 -50 78t-51.5 37t-69.5 10h-400v40zM100 1384q0 8 5.5 12t17.5 4h769q23 0 40 10t30 19.5t24 9.5q10 0 16 -6t10 -23l77 -287
q3 -10 0 -16.5t-12 -8.5t-16.5 1.5t-13.5 14.5q-35 78 -64 126t-58 74.5t-62 36t-76 9.5h-390v-1260q0 -30 20 -45t62 -15h327q60 0 101 22t82 89t95 203q5 9 11 13t14 3q9 -1 13 -8t0 -20l-84 -346q-4 -17 -10.5 -24t-17.5 -7q-13 0 -26.5 9t-32.5 17.5t-49 8.5h-779
q-12 0 -17.5 4.5t-5.5 11.5q0 15 22 19l89 13q20 3 30.5 12.5t10.5 25.5v1228q0 16 -10.5 25.5t-30.5 12.5l-89 13q-22 4 -22 19zM384 1571q0 17 7.5 24.5t22.5 7.5h409q16 0 23.5 -7.5t7.5 -24.5q0 -16 -7.5 -24t-23.5 -8h-409q-15 0 -22.5 8t-7.5 24z" />
    <glyph glyph-name="emacron" unicode="&#x113;" horiz-adv-x="915" 
d="M847 559q0 -24 -15 -36t-44 -12h-636v32h527q33 0 33 30q0 144 -63 226.5t-169 82.5q-88 0 -151.5 -49t-98.5 -137t-35 -206q0 -205 95.5 -315t245.5 -110q104 0 180 56.5t97 148.5q4 9 8 12.5t10 3.5q7 0 10.5 -5.5t2.5 -14.5q-9 -81 -58 -146t-126 -103t-173 -38
q-125 0 -218.5 55.5t-145 157t-51.5 239.5t52.5 248t148 174.5t223.5 64.5q105 0 184 -45.5t123 -126.5t44 -187zM251 1098q0 17 7.5 24.5t22.5 7.5h412q15 0 22.5 -7.5t7.5 -25.5q0 -16 -7.5 -24t-22.5 -8h-412q-15 0 -22.5 8t-7.5 25z" />
    <glyph glyph-name="Ebreve" unicode="&#x114;" horiz-adv-x="1192" 
d="M347 720h367q65 0 91.5 27.5t29.5 102.5q1 10 5 16t12 7q16 3 22 -20l81 -285q3 -11 0.5 -17t-11.5 -9q-7 -1 -14 2t-12 11q-27 51 -50 78t-51.5 37t-69.5 10h-400v40zM100 1384q0 8 5.5 12t17.5 4h769q23 0 40 10t30 19.5t24 9.5q10 0 16 -6t10 -23l77 -287
q3 -10 0 -16.5t-12 -8.5t-16.5 1.5t-13.5 14.5q-35 78 -64 126t-58 74.5t-62 36t-76 9.5h-390v-1260q0 -30 20 -45t62 -15h327q60 0 101 22t82 89t95 203q5 9 11 13t14 3q9 -1 13 -8t0 -20l-84 -346q-4 -17 -10.5 -24t-17.5 -7q-13 0 -26.5 9t-32.5 17.5t-49 8.5h-779
q-12 0 -17.5 4.5t-5.5 11.5q0 15 22 19l89 13q20 3 30.5 12.5t10.5 25.5v1228q0 16 -10.5 25.5t-30.5 12.5l-89 13q-22 4 -22 19zM618 1560q67 0 112 33.5t67 110.5q3 10 7.5 13t9.5 3q7 0 11.5 -5.5t3.5 -16.5q-7 -104 -62 -167t-149 -63q-93 0 -148 63t-62 167
q-1 11 3.5 16.5t10.5 5.5t10 -3t7 -13q23 -78 68.5 -111t110.5 -33z" />
    <glyph glyph-name="ebreve" unicode="&#x115;" horiz-adv-x="915" 
d="M847 559q0 -24 -15 -36t-44 -12h-636v32h527q33 0 33 30q0 144 -63 226.5t-169 82.5q-88 0 -151.5 -49t-98.5 -137t-35 -206q0 -205 95.5 -315t245.5 -110q104 0 180 56.5t97 148.5q4 9 8 12.5t10 3.5q7 0 10.5 -5.5t2.5 -14.5q-9 -81 -58 -146t-126 -103t-173 -38
q-125 0 -218.5 55.5t-145 157t-51.5 239.5t52.5 248t148 174.5t223.5 64.5q105 0 184 -45.5t123 -126.5t44 -187zM486 1091q67 0 112 35.5t67 114.5q7 17 18 17q7 0 11.5 -5.5t2.5 -17.5q-7 -109 -62 -174t-149 -65t-149.5 65t-62.5 174q-1 12 3.5 17.5t10.5 5.5
q12 0 17 -17q24 -80 69.5 -115t111.5 -35z" />
    <glyph glyph-name="Edotaccent" unicode="&#x116;" horiz-adv-x="1192" 
d="M347 720h367q65 0 91.5 27.5t29.5 102.5q1 10 5 16t12 7q16 3 22 -20l81 -285q3 -11 0.5 -17t-11.5 -9q-7 -1 -14 2t-12 11q-27 51 -50 78t-51.5 37t-69.5 10h-400v40zM100 1384q0 8 5.5 12t17.5 4h769q23 0 40 10t30 19.5t24 9.5q10 0 16 -6t10 -23l77 -287
q3 -10 0 -16.5t-12 -8.5t-16.5 1.5t-13.5 14.5q-35 78 -64 126t-58 74.5t-62 36t-76 9.5h-390v-1260q0 -30 20 -45t62 -15h327q60 0 101 22t82 89t95 203q5 9 11 13t14 3q9 -1 13 -8t0 -20l-84 -346q-4 -17 -10.5 -24t-17.5 -7q-13 0 -26.5 9t-32.5 17.5t-49 8.5h-779
q-12 0 -17.5 4.5t-5.5 11.5q0 15 22 19l89 13q20 3 30.5 12.5t10.5 25.5v1228q0 16 -10.5 25.5t-30.5 12.5l-89 13q-22 4 -22 19zM619 1494q-38 0 -61 25t-23 62t23 61.5t61 24.5q39 0 61.5 -24.5t22.5 -61.5t-22.5 -62t-61.5 -25z" />
    <glyph glyph-name="edotaccent" unicode="&#x117;" horiz-adv-x="915" 
d="M847 559q0 -24 -15 -36t-44 -12h-636v32h527q33 0 33 30q0 144 -63 226.5t-169 82.5q-88 0 -151.5 -49t-98.5 -137t-35 -206q0 -205 95.5 -315t245.5 -110q104 0 180 56.5t97 148.5q4 9 8 12.5t10 3.5q7 0 10.5 -5.5t2.5 -14.5q-9 -81 -58 -146t-126 -103t-173 -38
q-125 0 -218.5 55.5t-145 157t-51.5 239.5t52.5 248t148 174.5t223.5 64.5q105 0 184 -45.5t123 -126.5t44 -187zM486 1017q-37 0 -60 25t-23 63q0 37 23 62.5t60 25.5q38 0 60.5 -25.5t22.5 -62.5q0 -38 -22.5 -63t-60.5 -25z" />
    <glyph glyph-name="Eogonek" unicode="&#x118;" horiz-adv-x="1192" 
d="M347 720h367q65 0 91.5 27.5t29.5 102.5q1 10 5 16t12 7q16 3 22 -20l81 -285q3 -11 0.5 -17t-11.5 -9q-7 -1 -14 2t-12 11q-27 51 -50 78t-51.5 37t-69.5 10h-400v40zM100 1384q0 8 5.5 12t17.5 4h769q23 0 40 10t30 19.5t24 9.5q10 0 16 -6t10 -23l77 -287
q3 -10 0 -16.5t-12 -8.5t-16.5 1.5t-13.5 14.5q-35 78 -64 126t-58 74.5t-62 36t-76 9.5h-390v-1260q0 -30 20 -45t62 -15h327q60 0 101 22t82 89t95 203q5 9 11 13t14 3q9 -1 13 -8t0 -20l-84 -346q-4 -17 -10.5 -24t-17.5 -7q-13 0 -26.5 9t-32.5 17.5t-49 8.5h-779
q-12 0 -17.5 4.5t-5.5 11.5q0 15 22 19l89 13q20 3 30.5 12.5t10.5 25.5v1228q0 16 -10.5 25.5t-30.5 12.5l-89 13q-22 4 -22 19zM960 20l12 -21q-90 -44 -132.5 -103t-42.5 -135q0 -64 30.5 -97.5t81.5 -33.5q33 0 63.5 18t45.5 46q5 7 9 9t9 1t8 -6t0 -14q-12 -36 -55 -66
t-109 -30q-87 0 -137 43t-50 118q0 54 28 103t87 91.5t152 76.5z" />
    <glyph glyph-name="eogonek" unicode="&#x119;" horiz-adv-x="912" 
d="M149 520v32h524q33 0 33 28q0 141 -62.5 221.5t-166.5 80.5q-88 0 -151.5 -48.5t-98 -136.5t-34.5 -207q0 -204 94.5 -315t243.5 -111q105 0 179.5 58.5t96.5 151.5q7 14 16 14q6 0 9.5 -4.5t3.5 -12.5q-10 -84 -57.5 -148.5t-122.5 -103.5q-95 -49 -143.5 -113
t-48.5 -145q0 -64 30 -97.5t81 -33.5q34 0 64 18t45 46q5 7 9 9t9 1t8.5 -6t-0.5 -14q-12 -36 -55 -66t-109 -30q-87 0 -137 43t-50 116t51.5 136t164.5 123l-7 -16q-34 -7 -53.5 -9t-34.5 -2q-125 0 -216.5 55.5t-141 157t-49.5 237.5q0 139 52.5 249t147.5 175t220 65
q103 0 180.5 -45.5t121 -124.5t43.5 -183q0 -22 -14.5 -33.5t-41.5 -11.5h-633z" />
    <glyph glyph-name="Ecaron" unicode="&#x11a;" horiz-adv-x="1192" 
d="M347 720h367q65 0 91.5 27.5t29.5 102.5q1 10 5 16t12 7q16 3 22 -20l81 -285q3 -11 0.5 -17t-11.5 -9q-7 -1 -14 2t-12 11q-27 51 -50 78t-51.5 37t-69.5 10h-400v40zM100 1384q0 8 5.5 12t17.5 4h769q23 0 40 10t30 19.5t24 9.5q10 0 16 -6t10 -23l77 -287
q3 -10 0 -16.5t-12 -8.5t-16.5 1.5t-13.5 14.5q-35 78 -64 126t-58 74.5t-62 36t-76 9.5h-390v-1260q0 -30 20 -45t62 -15h327q60 0 101 22t82 89t95 203q5 9 11 13t14 3q9 -1 13 -8t0 -20l-84 -346q-4 -17 -10.5 -24t-17.5 -7q-13 0 -26.5 9t-32.5 17.5t-49 8.5h-779
q-12 0 -17.5 4.5t-5.5 11.5q0 15 22 19l89 13q20 3 30.5 12.5t10.5 25.5v1228q0 16 -10.5 25.5t-30.5 12.5l-89 13q-22 4 -22 19zM639 1571l-225 145q-18 12 -27 4q-4 -3 -4.5 -9.5t6.5 -14.5l184 -201q13 -13 23 -20.5t23 -7.5q14 0 23.5 7.5t21.5 20.5l184 201q7 8 7 14.5
t-4 9.5q-10 8 -28 -4l-225 -145h41z" />
    <glyph glyph-name="ecaron" unicode="&#x11b;" horiz-adv-x="915" 
d="M847 559q0 -24 -15 -36t-44 -12h-636v32h527q33 0 33 30q0 144 -63 226.5t-169 82.5q-88 0 -151.5 -49t-98.5 -137t-35 -206q0 -205 95.5 -315t245.5 -110q104 0 180 56.5t97 148.5q4 9 8 12.5t10 3.5q7 0 10.5 -5.5t2.5 -14.5q-9 -81 -58 -146t-126 -103t-173 -38
q-125 0 -218.5 55.5t-145 157t-51.5 239.5t52.5 248t148 174.5t223.5 64.5q105 0 184 -45.5t123 -126.5t44 -187zM507 1092l-227 179q-8 6 -15 7.5t-12 -2.5q-4 -3 -4 -9.5t6 -15.5l185 -235q12 -14 22.5 -21t24.5 -7t24 7t21 21l185 235q7 9 7 15.5t-4 9.5q-5 4 -12 2.5
t-15 -7.5l-227 -179h41z" />
    <glyph glyph-name="Gcircumflex" unicode="&#x11c;" horiz-adv-x="1429" 
d="M1239 9q0 -22 -5.5 -30t-16.5 -8q-13 0 -25.5 14.5t-25 33.5t-25 33.5t-25.5 14.5q-14 0 -39.5 -14.5t-66.5 -33t-100.5 -33t-141.5 -14.5q-156 0 -281.5 54t-214.5 151.5t-137 229t-48 286.5q0 162 50 296.5t140.5 232t212.5 151t266 53.5q108 0 177.5 -24.5t107 -49
t51.5 -24.5q17 0 29.5 22t24.5 44t26 22q8 0 12.5 -4.5t8.5 -16.5l91 -349q4 -10 0 -18t-13 -9q-9 -2 -16 2t-11 13q-52 123 -123 200.5t-162 114.5t-201 37q-148 0 -265.5 -78.5t-187 -225t-69.5 -350.5q0 -222 74 -380.5t202 -243.5t288 -85q56 0 110 10t97.5 30t69.5 50
t26 69v305q0 20 -11 30t-40 14l-116 14q-12 2 -18 6.5t-6 10.5q0 8 6 12t18 4h419q12 0 18 -4t6 -11t-4.5 -11t-17.5 -7l-69 -14q-27 -5 -38 -14.5t-11 -29.5v-478zM773 1626h-41l225 -145q18 -11 28 -4q4 3 4 9.5t-7 14.5l-184 201q-12 13 -21.5 20.5t-23.5 7.5
q-13 0 -23 -7.5t-23 -20.5l-184 -201q-7 -8 -6.5 -14.5t4.5 -9.5q9 -7 27 4z" />
    <glyph glyph-name="gcircumflex" unicode="&#x11d;" horiz-adv-x="1225" 
d="M641 -1q-134 37 -201.5 62t-90.5 46.5t-23 48.5q0 24 21 45.5t57 38.5l-17 10q-64 -19 -101.5 -42.5t-52.5 -49.5t-15 -55q0 -42 28.5 -74t103.5 -61.5t216 -63.5q104 -24 161 -51t79 -59t22 -71q0 -57 -36 -99t-106.5 -64.5t-173.5 -22.5q-192 0 -276.5 62.5
t-84.5 161.5q0 73 70.5 129.5t209.5 73.5l-19 22q-196 -30 -278 -96.5t-82 -153.5q0 -99 108 -167.5t336 -68.5q211 0 325.5 73.5t114.5 187.5q0 58 -26 101t-91 76.5t-178 60.5zM685 829l30 -10q31 42 55.5 68t52.5 26q16 0 28 -13t24 -30.5t27 -31t39 -13.5q29 0 43.5 19
t14.5 51q0 41 -32 68t-78 27q-53 0 -96.5 -35.5t-84.5 -94.5zM857 573q0 97 -48 175.5t-132 123.5t-193 45q-117 0 -204 -46t-135.5 -126t-48.5 -183q0 -97 49 -174.5t134 -122t194 -44.5q108 0 195 45t138 124.5t51 182.5zM455 882q122 1 196 -93t77 -244q3 -127 -61 -207
t-171 -81q-77 -1 -138 42.5t-96.5 119.5t-37.5 174q-2 83 27 148t82 102.5t122 38.5zM491 1173h-41l227 -179q8 -6 15 -7t12 2q4 4 4 10.5t-7 13.5l-185 236q-11 14 -21 21t-24 7t-24.5 -7t-22.5 -21l-185 -236q-6 -7 -6 -13.5t4 -10.5q5 -3 12 -2t15 7z" />
    <glyph glyph-name="Gbreve" unicode="&#x11e;" horiz-adv-x="1429" 
d="M1239 9q0 -22 -5.5 -30t-16.5 -8q-13 0 -25.5 14.5t-25 33.5t-25 33.5t-25.5 14.5q-14 0 -39.5 -14.5t-66.5 -33t-100.5 -33t-141.5 -14.5q-156 0 -281.5 54t-214.5 151.5t-137 229t-48 286.5q0 162 50 296.5t140.5 232t212.5 151t266 53.5q108 0 177.5 -24.5t107 -49
t51.5 -24.5q17 0 29.5 22t24.5 44t26 22q8 0 12.5 -4.5t8.5 -16.5l91 -349q4 -10 0 -18t-13 -9q-9 -2 -16 2t-11 13q-52 123 -123 200.5t-162 114.5t-201 37q-148 0 -265.5 -78.5t-187 -225t-69.5 -350.5q0 -222 74 -380.5t202 -243.5t288 -85q56 0 110 10t97.5 30t69.5 50
t26 69v305q0 20 -11 30t-40 14l-116 14q-12 2 -18 6.5t-6 10.5q0 8 6 12t18 4h419q12 0 18 -4t6 -11t-4.5 -11t-17.5 -7l-69 -14q-27 -5 -38 -14.5t-11 -29.5v-478zM752 1569q67 0 112 33.5t67 110.5q3 10 7.5 13t9.5 3q7 0 11.5 -5.5t3.5 -16.5q-7 -104 -62 -167t-149 -63
q-93 0 -148 63t-62 167q-1 11 3.5 16.5t10.5 5.5t10 -3t7 -13q23 -78 68.5 -111t110.5 -33z" />
    <glyph glyph-name="gbreve" unicode="&#x11f;" horiz-adv-x="986" 
d="M640 -1q-134 37 -201.5 62t-90.5 46.5t-23 48.5q0 24 21 45.5t57 38.5l-17 10q-64 -19 -101.5 -42.5t-52.5 -49.5t-15 -55q0 -42 28.5 -74t103.5 -61.5t216 -63.5q104 -24 161 -51t79 -59t22 -71q0 -57 -36 -99t-106.5 -64.5t-173.5 -22.5q-192 0 -276.5 62.5
t-84.5 161.5q0 73 70.5 129.5t209.5 73.5l-19 22q-196 -30 -278 -96.5t-82 -153.5q0 -99 108 -167.5t336 -68.5q211 0 325.5 73.5t114.5 187.5q0 58 -26 101t-91 76.5t-178 60.5zM684 829l30 -10q31 42 55.5 68t52.5 26q16 0 28 -13t24 -30.5t27 -31t39 -13.5q29 0 43.5 19
t14.5 51q0 41 -32 68t-78 27q-53 0 -96.5 -35.5t-84.5 -94.5zM856 573q0 97 -48 175.5t-132 123.5t-193 45q-117 0 -204 -46t-135.5 -126t-48.5 -183q0 -97 49 -174.5t134 -122t194 -44.5q108 0 195 45t138 124.5t51 182.5zM454 882q122 1 196 -93t77 -244q3 -127 -61 -207
t-171 -81q-77 -1 -138 42.5t-96.5 119.5t-37.5 174q-2 83 27 148t82 102.5t122 38.5zM483 1091q67 0 112 35.5t67 114.5q7 17 18 17q7 0 11.5 -5.5t2.5 -17.5q-7 -109 -62 -174t-149 -65t-149.5 65t-62.5 174q-1 12 3.5 17.5t10.5 5.5q12 0 17 -17q24 -80 69.5 -115
t111.5 -35z" />
    <glyph glyph-name="Gdotaccent" unicode="&#x120;" horiz-adv-x="1429" 
d="M1239 9q0 -22 -5.5 -30t-16.5 -8q-13 0 -25.5 14.5t-25 33.5t-25 33.5t-25.5 14.5q-14 0 -39.5 -14.5t-66.5 -33t-100.5 -33t-141.5 -14.5q-156 0 -281.5 54t-214.5 151.5t-137 229t-48 286.5q0 162 50 296.5t140.5 232t212.5 151t266 53.5q108 0 177.5 -24.5t107 -49
t51.5 -24.5q17 0 29.5 22t24.5 44t26 22q8 0 12.5 -4.5t8.5 -16.5l91 -349q4 -10 0 -18t-13 -9q-9 -2 -16 2t-11 13q-52 123 -123 200.5t-162 114.5t-201 37q-148 0 -265.5 -78.5t-187 -225t-69.5 -350.5q0 -222 74 -380.5t202 -243.5t288 -85q56 0 110 10t97.5 30t69.5 50
t26 69v305q0 20 -11 30t-40 14l-116 14q-12 2 -18 6.5t-6 10.5q0 8 6 12t18 4h419q12 0 18 -4t6 -11t-4.5 -11t-17.5 -7l-69 -14q-27 -5 -38 -14.5t-11 -29.5v-478zM752 1503q-38 0 -61 25t-23 62t23 61.5t61 24.5q39 0 61.5 -24.5t22.5 -61.5t-22.5 -62t-61.5 -25z" />
    <glyph glyph-name="gdotaccent" unicode="&#x121;" horiz-adv-x="986" 
d="M640 -1q-134 37 -201.5 62t-90.5 46.5t-23 48.5q0 24 21 45.5t57 38.5l-17 10q-64 -19 -101.5 -42.5t-52.5 -49.5t-15 -55q0 -42 28.5 -74t103.5 -61.5t216 -63.5q104 -24 161 -51t79 -59t22 -71q0 -57 -36 -99t-106.5 -64.5t-173.5 -22.5q-192 0 -276.5 62.5
t-84.5 161.5q0 73 70.5 129.5t209.5 73.5l-19 22q-196 -30 -278 -96.5t-82 -153.5q0 -99 108 -167.5t336 -68.5q211 0 325.5 73.5t114.5 187.5q0 58 -26 101t-91 76.5t-178 60.5zM684 829l30 -10q31 42 55.5 68t52.5 26q16 0 28 -13t24 -30.5t27 -31t39 -13.5q29 0 43.5 19
t14.5 51q0 41 -32 68t-78 27q-53 0 -96.5 -35.5t-84.5 -94.5zM856 573q0 97 -48 175.5t-132 123.5t-193 45q-117 0 -204 -46t-135.5 -126t-48.5 -183q0 -97 49 -174.5t134 -122t194 -44.5q108 0 195 45t138 124.5t51 182.5zM454 882q122 1 196 -93t77 -244q3 -127 -61 -207
t-171 -81q-77 -1 -138 42.5t-96.5 119.5t-37.5 174q-2 83 27 148t82 102.5t122 38.5zM483 1017q-37 0 -60 25t-23 63q0 37 23 62.5t60 25.5q38 0 60.5 -25.5t22.5 -62.5q0 -38 -22.5 -63t-60.5 -25z" />
    <glyph glyph-name="Gcommaaccent" unicode="&#x122;" horiz-adv-x="1429" 
d="M1239 9q0 -22 -5.5 -30t-16.5 -8q-13 0 -25.5 14.5t-25 33.5t-25 33.5t-25.5 14.5q-14 0 -39.5 -14.5t-66.5 -33t-100.5 -33t-141.5 -14.5q-156 0 -281.5 54t-214.5 151.5t-137 229t-48 286.5q0 162 50 296.5t140.5 232t212.5 151t266 53.5q108 0 177.5 -24.5t107 -49
t51.5 -24.5q17 0 29.5 22t24.5 44t26 22q8 0 12.5 -4.5t8.5 -16.5l91 -349q4 -10 0 -18t-13 -9q-9 -2 -16 2t-11 13q-52 123 -123 200.5t-162 114.5t-201 37q-148 0 -265.5 -78.5t-187 -225t-69.5 -350.5q0 -222 74 -380.5t202 -243.5t288 -85q56 0 110 10t97.5 30t69.5 50
t26 69v305q0 20 -11 30t-40 14l-116 14q-12 2 -18 6.5t-6 10.5q0 8 6 12t18 4h419q12 0 18 -4t6 -11t-4.5 -11t-17.5 -7l-69 -14q-27 -5 -38 -14.5t-11 -29.5v-478zM754 -283q-40 0 -59.5 21.5t-19.5 51.5q0 36 23 58t57 22q39 0 63.5 -30.5t24.5 -92.5q0 -77 -41.5 -128
t-112.5 -69q-10 -3 -15.5 -1t-8.5 8q-2 6 1 11t12 7q39 11 66.5 31t41.5 44.5t14 46.5q0 20 -19 20h-27z" />
    <glyph glyph-name="gcommaaccent" unicode="&#x123;" horiz-adv-x="986" 
d="M640 -1q-134 37 -201.5 62t-90.5 46.5t-23 48.5q0 24 21 45.5t57 38.5l-17 10q-64 -19 -101.5 -42.5t-52.5 -49.5t-15 -55q0 -42 28.5 -74t103.5 -61.5t216 -63.5q104 -24 161 -51t79 -59t22 -71q0 -57 -36 -99t-106.5 -64.5t-173.5 -22.5q-192 0 -276.5 62.5
t-84.5 161.5q0 73 70.5 129.5t209.5 73.5l-19 22q-196 -30 -278 -96.5t-82 -153.5q0 -99 108 -167.5t336 -68.5q211 0 325.5 73.5t114.5 187.5q0 58 -26 101t-91 76.5t-178 60.5zM684 829l30 -10q31 42 55.5 68t52.5 26q16 0 28 -13t24 -30.5t27 -31t39 -13.5q29 0 43.5 19
t14.5 51q0 41 -32 68t-78 27q-53 0 -96.5 -35.5t-84.5 -94.5zM856 573q0 97 -48 175.5t-132 123.5t-193 45q-117 0 -204 -46t-135.5 -126t-48.5 -183q0 -97 49 -174.5t134 -122t194 -44.5q108 0 195 45t138 124.5t51 182.5zM454 882q122 1 196 -93t77 -244q3 -127 -61 -207
t-171 -81q-77 -1 -138 42.5t-96.5 119.5t-37.5 174q-2 83 27 148t82 102.5t122 38.5zM479 1155q40 0 60 -21.5t20 -53.5q0 -35 -22 -57t-57 -22q-40 0 -64 31t-24 92q0 78 41 128.5t112 69.5q10 3 16 1t8 -9q2 -5 -1 -10.5t-11 -7.5q-39 -10 -66.5 -30t-42 -44t-14.5 -47
q0 -20 19 -20h26z" />
    <glyph glyph-name="Hcircumflex" unicode="&#x124;" horiz-adv-x="1518" 
d="M323 683h851v-40h-851v40zM397 86q0 -16 10.5 -25.5t30.5 -12.5l89 -13q22 -4 22 -19q0 -7 -5.5 -11.5t-17.5 -4.5h-403q-12 0 -17.5 4.5t-5.5 11.5q0 15 22 19l89 13q20 3 30.5 12.5t10.5 25.5v1228q0 16 -10.5 25.5t-30.5 12.5l-89 13q-22 4 -22 19q0 8 5.5 12t17.5 4
h403q12 0 17.5 -4t5.5 -12q0 -15 -22 -19l-89 -13q-20 -3 -30.5 -12.5t-10.5 -25.5v-1228zM1266 86q0 -16 10.5 -25.5t30.5 -12.5l89 -13q22 -4 22 -19q0 -7 -5.5 -11.5t-17.5 -4.5h-403q-12 0 -17.5 4.5t-5.5 11.5q0 15 22 19l89 13q20 3 30.5 12.5t10.5 25.5v1228
q0 16 -10.5 25.5t-30.5 12.5l-89 13q-22 4 -22 19q0 8 5.5 12t17.5 4h403q12 0 17.5 -4t5.5 -12q0 -15 -22 -19l-89 -13q-20 -3 -30.5 -12.5t-10.5 -25.5v-1228zM779 1621h-41l225 -145q18 -11 28 -4q4 3 4 9.5t-7 14.5l-184 201q-12 13 -21.5 20.5t-23.5 7.5
q-13 0 -23 -7.5t-23 -20.5l-184 -201q-7 -8 -6.5 -14.5t4.5 -9.5q9 -7 27 4z" />
    <glyph glyph-name="hcircumflex" unicode="&#x125;" horiz-adv-x="1081" 
d="M323 1436v-1352q0 -17 9 -27t26 -14l61 -10q21 -4 21 -17q0 -16 -23 -16h-323q-10 0 -15.5 4.5t-5.5 10.5q0 7 6 11.5t18 7.5l62 9q17 4 26 13.5t9 26.5v1258q0 13 -5 19t-17 7h-87q-9 1 -13.5 5t-4.5 9q0 7 4.5 11t15.5 8l169 51q16 6 26 8t17 2q12 0 18 -6.5t6 -18.5z
M305 696l-21 20l41 36q102 91 174.5 128t142.5 37q107 0 165.5 -71t75.5 -203l73 -551q3 -22 13 -34.5t31 -16.5l53 -9q10 -2 15.5 -6t5.5 -11q0 -6 -5.5 -10.5t-16.5 -4.5h-327q-23 0 -23 16q0 12 21 17l64 10q22 4 32 16.5t7 32.5l-71 534q-16 112 -58.5 166t-122.5 54
q-51 0 -106.5 -28t-123.5 -88zM247 1649h-41l225 -145q18 -11 28 -4q4 3 4 9.5t-7 14.5l-184 201q-12 13 -21.5 20.5t-23.5 7.5q-13 0 -23 -7.5t-23 -20.5l-184 -201q-7 -8 -6.5 -14.5t4.5 -9.5q9 -7 27 4z" />
    <glyph glyph-name="Hbar" unicode="&#x126;" horiz-adv-x="1518" 
d="M93 1015q0 8 5 12t13 4h1291q9 0 13.5 -4.5t4.5 -11.5t-4.5 -11.5t-13.5 -4.5h-1291q-18 0 -18 16zM323 683h851v-40h-851v40zM397 86q0 -16 10.5 -25.5t30.5 -12.5l89 -13q22 -4 22 -19q0 -7 -5.5 -11.5t-17.5 -4.5h-403q-12 0 -17.5 4.5t-5.5 11.5q0 15 22 19l89 13
q20 3 30.5 12.5t10.5 25.5v1228q0 16 -10.5 25.5t-30.5 12.5l-89 13q-22 4 -22 19q0 8 5.5 12t17.5 4h403q12 0 17.5 -4t5.5 -12q0 -15 -22 -19l-89 -13q-20 -3 -30.5 -12.5t-10.5 -25.5v-1228zM1266 86q0 -16 10.5 -25.5t30.5 -12.5l89 -13q22 -4 22 -19q0 -7 -5.5 -11.5
t-17.5 -4.5h-403q-12 0 -17.5 4.5t-5.5 11.5q0 15 22 19l89 13q20 3 30.5 12.5t10.5 25.5v1228q0 16 -10.5 25.5t-30.5 12.5l-89 13q-22 4 -22 19q0 8 5.5 12t17.5 4h403q12 0 17.5 -4t5.5 -12q0 -15 -22 -19l-89 -13q-20 -3 -30.5 -12.5t-10.5 -25.5v-1228z" />
    <glyph glyph-name="hbar" unicode="&#x127;" horiz-adv-x="1069" 
d="M49 1152q0 8 5 13t12 5h558q9 0 13.5 -5t4.5 -13q0 -7 -5 -11.5t-13 -4.5h-558q-17 0 -17 16zM302 696l-20 20l43 37q105 93 183 128.5t152 35.5q115 0 187 -70.5t72 -203.5v-551q0 -21 11.5 -33.5t32.5 -17.5l53 -9q10 -2 15 -6t5 -11q0 -6 -5.5 -10.5t-16.5 -4.5h-325
q-23 0 -23 15q0 13 21 18l65 10q21 4 30 16.5t9 32.5v531q0 114 -55.5 168.5t-145.5 54.5q-55 0 -116 -27t-132 -89zM322 1449v-1365q0 -18 9 -28t26 -13l62 -10q20 -5 20 -18q0 -15 -21 -15h-324q-9 0 -14.5 4.5t-5.5 10.5q0 7 5.5 11.5t17.5 7.5l62 9q17 5 26 14t9 26
v1327q0 12 4.5 18t14.5 10l66 21l16.5 4.5t10.5 1.5q8 0 12 -4.5t4 -11.5z" />
    <glyph glyph-name="Itilde" unicode="&#x128;" horiz-adv-x="647" 
d="M396 86q0 -16 10.5 -25.5t30.5 -12.5l89 -13q22 -4 22 -19q0 -7 -5.5 -11.5t-17.5 -4.5h-403q-12 0 -17.5 4.5t-5.5 11.5q0 15 22 19l89 13q20 3 30.5 12.5t10.5 25.5v1228q0 16 -10.5 25.5t-30.5 12.5l-89 13q-22 4 -22 19q0 8 5.5 12t17.5 4h403q12 0 17.5 -4t5.5 -12
q0 -15 -22 -19l-89 -13q-20 -3 -30.5 -12.5t-10.5 -25.5v-1228zM429 1482q-37 0 -67.5 15t-58 34.5t-54 34.5t-54.5 15q-62 0 -64 -87q-2 -20 -18 -20q-18 0 -18 24q0 86 32 128.5t91 42.5q37 0 67.5 -15t58 -35t54 -35t55.5 -15q62 0 64 87q2 21 18 21q18 0 18 -24
q0 -86 -32 -128.5t-92 -42.5z" />
    <glyph glyph-name="itilde" unicode="&#x129;" horiz-adv-x="498" 
d="M326 885v-801q0 -17 9 -27t26 -14l61 -10q11 -2 16.5 -6t5.5 -12q0 -6 -6 -10.5t-17 -4.5h-323q-9 0 -15 4.5t-6 10.5q0 7 5.5 11t14.5 6l66 11q17 5 26 14t9 26v706q0 13 -5 19t-17 7h-87q-9 1 -13.5 4.5t-4.5 9.5t4.5 10.5t15.5 7.5l173 52q15 6 24.5 7.5t16.5 1.5
q10 0 15.5 -6t5.5 -17zM347.909 1006q-33.3008 0 -61.2012 16q-27.9014 16 -52.6514 37.5q-24.751 21.5 -49.0518 37.5t-50.4014 16q-27.9004 0 -42.3008 -24t-15.3008 -69q-1.7998 -21 -16.2002 -21q-15.3008 0 -15.3008 25q0 89 28.8008 133.5t82.8027 44.5
q33.3008 0 60.752 -16.5q27.4502 -16.5 52.2012 -37.5t49.0508 -37q24.3008 -16 50.4014 -16q28.8008 0 42.752 24q13.9502 24 14.8496 70q1.80078 20 16.2012 20q16.2002 0 16.2002 -24q0 -90 -29.251 -134.5t-82.3525 -44.5z" />
    <glyph glyph-name="Imacron" unicode="&#x12a;" horiz-adv-x="647" 
d="M396 86q0 -16 10.5 -25.5t30.5 -12.5l89 -13q22 -4 22 -19q0 -7 -5.5 -11.5t-17.5 -4.5h-403q-12 0 -17.5 4.5t-5.5 11.5q0 15 22 19l89 13q20 3 30.5 12.5t10.5 25.5v1228q0 16 -10.5 25.5t-30.5 12.5l-89 13q-22 4 -22 19q0 8 5.5 12t17.5 4h403q12 0 17.5 -4t5.5 -12
q0 -15 -22 -19l-89 -13q-20 -3 -30.5 -12.5t-10.5 -25.5v-1228zM89 1571q0 17 7.5 24.5t22.5 7.5h409q16 0 23.5 -7.5t7.5 -24.5q0 -16 -7.5 -24t-23.5 -8h-409q-15 0 -22.5 8t-7.5 24z" />
    <glyph glyph-name="imacron" unicode="&#x12b;" horiz-adv-x="498" 
d="M326 885v-801q0 -17 9 -27t26 -14l61 -10q11 -2 16.5 -6t5.5 -12q0 -6 -6 -10.5t-17 -4.5h-323q-9 0 -15 4.5t-6 10.5q0 7 5.5 11t14.5 6l66 11q17 5 26 14t9 26v706q0 13 -5 19t-17 7h-87q-9 1 -13.5 4.5t-4.5 9.5t4.5 10.5t15.5 7.5l173 52q15 6 24.5 7.5t16.5 1.5
q10 0 15.5 -6t5.5 -17zM57.5498 1098q0 17 6.0752 24.5t18.2246 7.5h333.719q12.1504 0 18.2256 -7.5t6.0752 -25.5q0 -16 -6.0752 -24t-18.2256 -8h-333.719q-12.1494 0 -18.2246 8t-6.0752 25z" />
    <glyph glyph-name="Ibreve" unicode="&#x12c;" horiz-adv-x="647" 
d="M396 86q0 -16 10.5 -25.5t30.5 -12.5l89 -13q22 -4 22 -19q0 -7 -5.5 -11.5t-17.5 -4.5h-403q-12 0 -17.5 4.5t-5.5 11.5q0 15 22 19l89 13q20 3 30.5 12.5t10.5 25.5v1228q0 16 -10.5 25.5t-30.5 12.5l-89 13q-22 4 -22 19q0 8 5.5 12t17.5 4h403q12 0 17.5 -4t5.5 -12
q0 -15 -22 -19l-89 -13q-20 -3 -30.5 -12.5t-10.5 -25.5v-1228zM323 1560q67 0 112 33.5t67 110.5q3 10 7.5 13t9.5 3q7 0 11.5 -5.5t3.5 -16.5q-7 -104 -62 -167t-149 -63q-93 0 -148 63t-62 167q-1 11 3.5 16.5t10.5 5.5t10 -3t7 -13q23 -78 68.5 -111t110.5 -33z" />
    <glyph glyph-name="ibreve" unicode="&#x12d;" horiz-adv-x="498" 
d="M326 885v-801q0 -17 9 -27t26 -14l61 -10q11 -2 16.5 -6t5.5 -12q0 -6 -6 -10.5t-17 -4.5h-323q-9 0 -15 4.5t-6 10.5q0 7 5.5 11t14.5 6l66 11q17 5 26 14t9 26v706q0 13 -5 19t-17 7h-87q-9 1 -13.5 4.5t-4.5 9.5t4.5 10.5t15.5 7.5l173 52q15 6 24.5 7.5t16.5 1.5
q10 0 15.5 -6t5.5 -17zM273 1091q67 0 112 35.5t67 114.5q7 17 18 17q7 0 11.5 -5.5t2.5 -17.5q-7 -109 -62 -174t-149 -65t-149.5 65t-62.5 174q-1 12 3.5 17.5t10.5 5.5q12 0 17 -17q24 -80 69.5 -115t111.5 -35z" />
    <glyph glyph-name="Iogonek" unicode="&#x12e;" horiz-adv-x="647" 
d="M416 22l13 -20q-90 -44 -132.5 -102.5t-42.5 -133.5q0 -63 30 -96.5t80 -33.5q34 0 63.5 17.5t44.5 45.5q5 6 9 8.5t10 0.5q5 -1 8 -6t0 -13q-11 -35 -54 -64.5t-109 -29.5q-86 0 -135.5 42.5t-49.5 116.5q0 53 28 101.5t86 91t151 75.5zM396 86q0 -16 10.5 -25.5
t30.5 -12.5l89 -13q22 -4 22 -19q0 -7 -5.5 -11.5t-17.5 -4.5h-403q-12 0 -17.5 4.5t-5.5 11.5q0 15 22 19l89 13q20 3 30.5 12.5t10.5 25.5v1228q0 16 -10.5 25.5t-30.5 12.5l-89 13q-22 4 -22 19q0 8 5.5 12t17.5 4h403q12 0 17.5 -4t5.5 -12q0 -15 -22 -19l-89 -13
q-20 -3 -30.5 -12.5t-10.5 -25.5v-1228z" />
    <glyph glyph-name="iogonek" unicode="&#x12f;" horiz-adv-x="495" 
d="M342 23l13 -21q-87 -45 -131.5 -103.5t-44.5 -136.5q0 -64 30 -98t82 -34q34 0 64 18t45 46q5 7 9 9t9 1t8 -6t0 -14q-13 -36 -55.5 -66t-108.5 -30q-87 0 -137.5 43.5t-50.5 117.5q0 55 29.5 105t89 92.5t149.5 76.5zM327 883v-799q0 -17 9 -27t26 -14l61 -10
q11 -2 16.5 -6t5.5 -12q0 -6 -5.5 -10.5t-17.5 -4.5h-324q-10 0 -15.5 4.5t-5.5 10.5q0 7 5 11t15 6l66 11q17 4 26 13.5t9 26.5v705q0 13 -5 19t-17 7l-87 1q-10 0 -14 4t-4 9q0 7 4.5 11t15.5 8l168 52q17 5 27 7t16 2q13 0 19 -6.5t6 -18.5zM247 1117q-42 0 -69.5 28
t-27.5 69q0 42 27.5 70t69.5 28q44 0 71.5 -28.5t27.5 -69.5t-28 -69t-71 -28z" />
    <glyph glyph-name="Idotaccent" unicode="&#x130;" horiz-adv-x="647" 
d="M396 86q0 -16 10.5 -25.5t30.5 -12.5l89 -13q22 -4 22 -19q0 -7 -5.5 -11.5t-17.5 -4.5h-403q-12 0 -17.5 4.5t-5.5 11.5q0 15 22 19l89 13q20 3 30.5 12.5t10.5 25.5v1228q0 16 -10.5 25.5t-30.5 12.5l-89 13q-22 4 -22 19q0 8 5.5 12t17.5 4h403q12 0 17.5 -4t5.5 -12
q0 -15 -22 -19l-89 -13q-20 -3 -30.5 -12.5t-10.5 -25.5v-1228zM324 1494q-38 0 -61 25t-23 62t23 61.5t61 24.5q39 0 61.5 -24.5t22.5 -61.5t-22.5 -62t-61.5 -25z" />
    <glyph glyph-name="dotlessi" unicode="&#x131;" horiz-adv-x="498" 
d="M326 885v-801q0 -17 9 -27t26 -14l61 -10q11 -2 16.5 -6t5.5 -12q0 -6 -6 -10.5t-17 -4.5h-323q-9 0 -15 4.5t-6 10.5q0 7 5.5 11t14.5 6l66 11q17 5 26 14t9 26v706q0 13 -5 19t-17 7h-87q-9 1 -13.5 4.5t-4.5 9.5t4.5 10.5t15.5 7.5l173 52q15 6 24.5 7.5t16.5 1.5
q10 0 15.5 -6t5.5 -17z" />
    <glyph glyph-name="IJ" unicode="&#x132;" horiz-adv-x="1412" 
d="M396 86q0 -16 10.5 -25.5t30.5 -12.5l89 -13q22 -4 22 -19q0 -7 -5.5 -11.5t-17.5 -4.5h-403q-12 0 -17.5 4.5t-5.5 11.5q0 15 22 19l89 13q20 3 30.5 12.5t10.5 25.5v1228q0 16 -10.5 25.5t-30.5 12.5l-89 13q-22 4 -22 19q0 8 5.5 12t17.5 4h403q12 0 17.5 -4t5.5 -12
q0 -15 -22 -19l-89 -13q-20 -3 -30.5 -12.5t-10.5 -25.5v-1228zM1252 195q0 -99 -77 -159t-203 -60q-117 0 -179.5 53t-62.5 134q0 41 21 66t60 25q30 0 47.5 -22.5t17.5 -58.5v-53q0 -49 24.5 -78.5t86.5 -29.5q66 0 111 37t45 108q0 45 -18.5 85t-43 82t-43 94t-18.5 121
v772q0 18 -9.5 28t-28.5 13l-96 13q-12 2 -17.5 6.5t-5.5 11.5q0 9 6 13t18 4h406q12 0 17.5 -4t5.5 -12q0 -14 -23 -19l-90 -13q-18 -3 -28 -13t-10 -26v-767q0 -58 13 -102.5t30.5 -83t30.5 -78t13 -87.5z" />
    <glyph glyph-name="ij" unicode="&#x133;" horiz-adv-x="990" 
d="M327 883v-799q0 -17 9 -27t26 -14l61 -10q11 -2 16.5 -6t5.5 -12q0 -6 -5.5 -10.5t-17.5 -4.5h-324q-10 0 -15.5 4.5t-5.5 10.5q0 7 5 11t15 6l66 11q17 4 26 13.5t9 26.5v705q0 13 -5 19t-17 7l-87 1q-10 0 -14 4t-4 9q0 7 4.5 11t15.5 8l168 52q17 5 27 7t16 2
q13 0 19 -6.5t6 -18.5zM247 1117q-42 0 -69.5 28t-27.5 69q0 42 27.5 70t69.5 28q44 0 71.5 -28.5t27.5 -69.5t-28 -69t-71 -28zM822 87q0 -51 11.5 -96t27.5 -87.5t28 -84t12 -86.5q0 -84 -57.5 -137.5t-154.5 -53.5q-67 0 -114.5 22.5t-73 59.5t-25.5 81q0 42 19 64t51 22
q31 0 50 -22t19 -58v-39q0 -48 23 -73.5t68 -25.5q55 1 84 32.5t29 89.5q0 38 -13 73t-31.5 69.5t-37.5 70.5t-31.5 74.5t-12.5 81.5v724q0 13 -5 19t-17 7l-87 1q-10 0 -14 4t-4 9q0 6 4.5 10.5t15.5 8.5l167 51q17 6 27 8t17 2q12 0 18.5 -6.5t6.5 -19.5v-795zM737 1117
q-43 0 -70.5 28t-27.5 69q0 42 28 70t70 28q43 0 71 -28.5t28 -69.5t-28 -69t-71 -28z" />
    <glyph glyph-name="Jcircumflex" unicode="&#x134;" horiz-adv-x="765" 
d="M605 195q0 -99 -77 -159t-203 -60q-117 0 -179.5 53t-62.5 134q0 41 21 66t60 25q30 0 47.5 -22.5t17.5 -58.5v-53q0 -49 24.5 -78.5t86.5 -29.5q66 0 111 37t45 108q0 45 -18.5 85t-43 82t-43 94t-18.5 121v772q0 18 -9.5 28t-28.5 13l-96 13q-12 2 -17.5 6.5t-5.5 11.5
q0 9 6 13t18 4h406q12 0 17.5 -4t5.5 -12q0 -14 -23 -19l-90 -13q-18 -3 -28 -13t-10 -26v-767q0 -58 13 -102.5t30.5 -83t30.5 -78t13 -87.5zM465 1621h-41l225 -145q18 -11 28 -4q4 3 4 9.5t-7 14.5l-184 201q-12 13 -21.5 20.5t-23.5 7.5q-13 0 -23 -7.5t-23 -20.5
l-184 -201q-7 -8 -6.5 -14.5t4.5 -9.5q9 -7 27 4z" />
    <glyph glyph-name="jcircumflex" unicode="&#x135;" horiz-adv-x="494" 
d="M327 87q0 -52 12 -97t27.5 -87.5t27 -84t11.5 -87.5q0 -82 -56.5 -136t-153.5 -54q-66 0 -113.5 22t-72.5 59t-25 81q0 42 19 64t51 22q31 0 49.5 -22t18.5 -57v-39q0 -48 23 -73.5t67 -25.5q55 1 83.5 32.5t28.5 89.5q0 38 -12.5 73.5t-31.5 70t-37.5 70t-31 74.5
t-12.5 82v725q0 13 -5.5 19t-16.5 7h-87q-9 1 -13.5 4.5t-4.5 9.5q0 12 20 18l171 52q16 5 25.5 7t17.5 2q10 0 15.5 -6t5.5 -18v-797zM251.529 1173h-33.21l183.869 -179q6.48047 -6 12.1504 -7t9.71973 2q3.24023 4 3.24023 10.5t-5.66992 13.5l-149.85 236
q-8.91016 14 -17.0098 21q-8.10059 7 -19.4404 7t-19.8447 -7t-18.2246 -21l-149.85 -236q-4.86035 -7 -4.86035 -13.5t3.24023 -10.5q4.0498 -3 9.71973 -2t12.1504 7z" />
    <glyph glyph-name="Kcommaaccent" unicode="&#x136;" horiz-adv-x="1372" 
d="M332 473l700 782q22 23 26.5 43.5t-6 35t-35.5 20.5l-79 12q-12 3 -17 7t-5 11q0 8 6.5 12t17.5 4h340q12 0 18 -4t6 -12q0 -7 -6.5 -11.5t-24.5 -8.5q-23 -3 -44 -10.5t-43 -20.5t-47.5 -35.5t-58.5 -56.5l-729 -806zM628 781l108 97l481 -768q20 -33 47 -49t73 -22
q23 -4 30 -9.5t7 -12.5q0 -8 -7 -12.5t-19 -4.5h-398q-12 0 -18 4.5t-6 12.5q0 7 5.5 11.5t16.5 6.5l92 12q22 4 25 18t-12 39zM397 86q0 -16 10 -25.5t30 -12.5l88 -13q12 -3 17 -7t5 -12q0 -7 -5.5 -11.5t-17.5 -4.5h-401q-12 0 -17.5 4.5t-5.5 11.5q0 15 22 19l89 13
q20 3 30.5 12.5t10.5 25.5v1228q0 16 -10.5 25.5t-30.5 12.5l-89 13q-22 4 -22 19q0 8 5.5 12t17.5 4h403q12 0 17.5 -4t5.5 -12q0 -15 -22 -19l-89 -13q-20 -3 -30.5 -12.5t-10.5 -25.5v-1228zM726 -281q-40 0 -59.5 21.5t-19.5 51.5q0 36 23 58t57 22q39 0 63.5 -30.5
t24.5 -92.5q0 -77 -41.5 -128t-112.5 -69q-10 -3 -15.5 -1t-8.5 8q-2 6 1 11t12 7q39 11 66.5 31t41.5 44.5t14 46.5q0 20 -19 20h-27z" />
    <glyph glyph-name="kcommaaccent" unicode="&#x137;" horiz-adv-x="1035" 
d="M91 0q-11 0 -14.5 4.5t-3.5 10.5q0 7 6 11.5t18 7.5l62 9q17 4 26 13.5t9 26.5v1258q0 13 -5 19t-17 7h-87q-9 1 -13.5 5t-4.5 9q0 7 4.5 11t15.5 8l169 51q16 6 26 8t17 2q12 0 18 -6.5t6 -18.5v-1352q0 -17 9 -27t26 -14l61 -10q21 -4 21 -17q0 -16 -23 -16h-326z
M286 387l426 386q36 33 32 56.5t-45 29.5l-43 6q-12 3 -16.5 7t-4.5 11q0 8 6 12t17 4h293q11 0 17 -4.5t6 -11.5q0 -8 -5.5 -12.5t-22.5 -7.5q-50 -8 -91.5 -29t-91.5 -67l-468 -419zM555 602l325 -494q26 -39 48.5 -52.5t65.5 -20.5q14 -4 19 -8.5t5 -11.5t-6 -11t-16 -4
h-334q-10 0 -15.5 4t-5.5 11t5 11.5t16 6.5l47 6q33 4 37.5 21t-20.5 53l-264 407zM540 -281q-40 0 -59.5 21.5t-19.5 51.5q0 36 23 58t57 22q39 0 63.5 -30.5t24.5 -92.5q0 -77 -41.5 -128t-112.5 -69q-10 -3 -15.5 -1t-8.5 8q-2 6 1 11t12 7q39 11 66.5 31t41.5 44.5
t14 46.5q0 20 -19 20h-27z" />
    <glyph glyph-name="kra" unicode="&#x138;" horiz-adv-x="1035" 
d="M91 0q-10 0 -13.5 4.5t-3.5 10.5q0 7 5.5 11.5t17.5 7.5l62 9q17 5 26 14t9 26v712q0 9 -5 14t-17 6h-87q-9 1 -13.5 4.5t-4.5 9.5q0 12 20 18l173 53q16 5 25 6.5t16 1.5q11 0 16 -6t5 -17v-801q0 -18 9 -28t26 -13l62 -10q20 -5 20 -18q0 -15 -21 -15h-327zM286 384
l427 389q35 33 31 56.5t-45 29.5l-43 6q-12 3 -16.5 7t-4.5 11q0 8 6 12t17 4h293q12 0 18 -4.5t6 -11.5q0 -8 -6 -13t-23 -7q-49 -8 -90.5 -29t-91.5 -67l-469 -421zM555 602l324 -494q26 -39 48.5 -52.5t65.5 -20.5q13 -4 18.5 -8.5t5.5 -11.5t-6 -11t-16 -4h-334
q-9 0 -15 4t-6 11t5 11.5t16 6.5l47 6q34 5 38 21.5t-21 52.5l-262 407z" />
    <glyph glyph-name="Lacute" unicode="&#x139;" horiz-adv-x="1120" 
d="M526 1365l-89 -13q-20 -3 -30.5 -12.5t-10.5 -25.5v-1220q0 -28 19 -41t58 -13h284q54 0 92 15t68 53t58 107l60 146q5 10 11 14.5t15 3.5q10 -2 13.5 -9t0.5 -20l-84 -355q-5 -17 -11 -24t-16 -7q-14 0 -27 9t-32 18t-50 9h-733q-12 0 -17.5 4.5t-5.5 11.5q0 15 22 19
l89 13q20 3 30.5 12.5t10.5 25.5v1228q0 16 -10.5 25.5t-30.5 12.5l-89 13q-22 4 -22 19q0 8 5.5 12t17.5 4h403q12 0 17.5 -4t5.5 -12q0 -15 -22 -19zM473 1654q31 35 56 54t54 13q26 -5 37.5 -24.5t7.5 -39.5q-5 -28 -28.5 -46.5t-56.5 -36.5l-196 -106q-5 -3 -11.5 -3
t-10.5 4q-4 5 -1.5 10.5t6.5 10.5z" />
    <glyph glyph-name="lacute" unicode="&#x13a;" horiz-adv-x="501" 
d="M328 1436v-1352q0 -17 8.5 -27t26.5 -14l61 -10q11 -2 16.5 -6t5.5 -12q0 -6 -6 -10.5t-17 -4.5h-324q-10 0 -15.5 4.5t-5.5 10.5q0 7 6 11.5t17 7.5l63 9q17 4 26 13.5t9 26.5v1258q0 13 -5 19t-17 7h-87q-10 1 -14 5t-4 9q0 7 4.5 11t15.5 8l168 51q17 6 27 8t16 2
q13 0 19 -6.5t6 -18.5zM328 1684q31 35 56 54t54 13q26 -5 37.5 -24.5t7.5 -39.5q-5 -28 -28.5 -46.5t-56.5 -36.5l-196 -106q-5 -3 -11.5 -3t-10.5 4q-4 5 -1.5 10.5t6.5 10.5z" />
    <glyph glyph-name="Lcommaaccent" unicode="&#x13b;" horiz-adv-x="1120" 
d="M526 1365l-89 -13q-20 -3 -30.5 -12.5t-10.5 -25.5v-1220q0 -28 19 -41t58 -13h284q54 0 92 15t68 53t58 107l60 146q5 10 11 14.5t15 3.5q10 -2 13.5 -9t0.5 -20l-84 -355q-5 -17 -11 -24t-16 -7q-14 0 -27 9t-32 18t-50 9h-733q-12 0 -17.5 4.5t-5.5 11.5q0 15 22 19
l89 13q20 3 30.5 12.5t10.5 25.5v1228q0 16 -10.5 25.5t-30.5 12.5l-89 13q-22 4 -22 19q0 8 5.5 12t17.5 4h403q12 0 17.5 -4t5.5 -12q0 -15 -22 -19zM591 -281q-40 0 -59.5 21.5t-19.5 51.5q0 36 23 58t57 22q39 0 63.5 -30.5t24.5 -92.5q0 -77 -41.5 -128t-112.5 -69
q-10 -3 -15.5 -1t-8.5 8q-2 6 1 11t12 7q39 11 66.5 31t41.5 44.5t14 46.5q0 20 -19 20h-27z" />
    <glyph glyph-name="lcommaaccent" unicode="&#x13c;" horiz-adv-x="501" 
d="M328 1436v-1352q0 -17 8.5 -27t26.5 -14l61 -10q11 -2 16.5 -6t5.5 -12q0 -6 -6 -10.5t-17 -4.5h-324q-10 0 -15.5 4.5t-5.5 10.5q0 7 6 11.5t17 7.5l63 9q17 4 26 13.5t9 26.5v1258q0 13 -5 19t-17 7h-87q-10 1 -14 5t-4 9q0 7 4.5 11t15.5 8l168 51q17 6 27 8t16 2
q13 0 19 -6.5t6 -18.5zM266 -281q-40 0 -59.5 21.5t-19.5 51.5q0 36 23 58t57 22q39 0 63.5 -30.5t24.5 -92.5q0 -77 -41.5 -128t-112.5 -69q-10 -3 -15.5 -1t-8.5 8q-2 6 1 11t12 7q39 11 66.5 31t41.5 44.5t14 46.5q0 20 -19 20h-27z" />
    <glyph glyph-name="Lcaron" unicode="&#x13d;" horiz-adv-x="1120" 
d="M526 1365l-89 -13q-20 -3 -30.5 -12.5t-10.5 -25.5v-1220q0 -28 19 -41t58 -13h284q54 0 92 15t68 53t58 107l60 146q5 10 11 14.5t15 3.5q10 -2 13.5 -9t0.5 -20l-84 -355q-5 -17 -11 -24t-16 -7q-14 0 -27 9t-32 18t-50 9h-733q-12 0 -17.5 4.5t-5.5 11.5q0 15 22 19
l89 13q20 3 30.5 12.5t10.5 25.5v1228q0 16 -10.5 25.5t-30.5 12.5l-89 13q-22 4 -22 19q0 8 5.5 12t17.5 4h403q12 0 17.5 -4t5.5 -12q0 -15 -22 -19zM660 1339q4 53 16.5 83t45.5 35q26 3 44.5 -10.5t21.5 -36.5q4 -23 -5 -47.5t-24 -51.5l-90 -186q-3 -6 -8 -8.5
t-11 -1.5q-6 3 -6.5 8.5t-0.5 12.5z" />
    <glyph glyph-name="lcaron" unicode="&#x13e;" horiz-adv-x="501" 
d="M328 1436v-1352q0 -17 8.5 -27t26.5 -14l61 -10q11 -2 16.5 -6t5.5 -12q0 -6 -6 -10.5t-17 -4.5h-324q-10 0 -15.5 4.5t-5.5 10.5q0 7 6 11.5t17 7.5l63 9q17 4 26 13.5t9 26.5v1258q0 13 -5 19t-17 7h-87q-10 1 -14 5t-4 9q0 7 4.5 11t15.5 8l168 51q17 6 27 8t16 2
q13 0 19 -6.5t6 -18.5zM463 1369q4 53 16.5 83t45.5 35q26 3 44.5 -10.5t21.5 -36.5q4 -23 -5 -47.5t-24 -51.5l-90 -186q-3 -6 -8 -8.5t-11 -1.5q-6 3 -6.5 8.5t-0.5 12.5z" />
    <glyph glyph-name="Ldot" unicode="&#x13f;" horiz-adv-x="1120" 
d="M526 1365l-89 -13q-20 -3 -30.5 -12.5t-10.5 -25.5v-1220q0 -28 19 -41t58 -13h284q54 0 92 15t68 53t58 107l60 146q5 10 11 14.5t15 3.5q10 -2 13.5 -9t0.5 -20l-84 -355q-5 -17 -11 -24t-16 -7q-14 0 -27 9t-32 18t-50 9h-733q-12 0 -17.5 4.5t-5.5 11.5q0 15 22 19
l89 13q20 3 30.5 12.5t10.5 25.5v1228q0 16 -10.5 25.5t-30.5 12.5l-89 13q-22 4 -22 19q0 8 5.5 12t17.5 4h403q12 0 17.5 -4t5.5 -12q0 -15 -22 -19zM996 701q-38 0 -61 25t-23 62t23 61.5t61 24.5q39 0 61.5 -24.5t22.5 -61.5t-22.5 -62t-61.5 -25z" />
    <glyph glyph-name="ldot" unicode="&#x140;" horiz-adv-x="541" 
d="M328 1436v-1352q0 -17 8.5 -27t26.5 -14l61 -10q11 -2 16.5 -6t5.5 -12q0 -6 -6 -10.5t-17 -4.5h-324q-10 0 -15.5 4.5t-5.5 10.5q0 7 6 11.5t17 7.5l63 9q17 4 26 13.5t9 26.5v1258q0 13 -5 19t-17 7h-87q-10 1 -14 5t-4 9q0 7 4.5 11t15.5 8l168 51q17 6 27 8t16 2
q13 0 19 -6.5t6 -18.5zM533 612q-37 0 -60 25t-23 63q0 37 23 62.5t60 25.5q38 0 60.5 -25.5t22.5 -62.5q0 -38 -22.5 -63t-60.5 -25z" />
    <glyph glyph-name="Lslash" unicode="&#x141;" horiz-adv-x="1138" 
d="M66 534q-3 6 -0.5 12.5t10.5 10.5l683 374q7 4 14.5 2.5t10.5 -8.5q4 -6 1 -12.5t-11 -10.5l-684 -375q-7 -4 -13.5 -2.5t-10.5 9.5zM530 1365l-89 -13q-20 -3 -30.5 -12.5t-10.5 -25.5v-1220q0 -28 18.5 -41t58.5 -13h283q54 0 92.5 15t68 53t58.5 107l60 146
q5 10 10.5 14.5t14.5 3.5q10 -2 13.5 -9t0.5 -20l-84 -355q-4 -17 -10.5 -24t-16.5 -7q-13 0 -26.5 9t-32.5 18t-50 9h-732q-12 0 -18 4.5t-6 11.5q0 15 22 19l89 13q21 3 31 12.5t10 25.5v1228q0 16 -10 25.5t-31 12.5l-89 13q-22 4 -22 19q0 8 6 12t18 4h402q13 0 18 -4
t5 -12q0 -15 -21 -19z" />
    <glyph glyph-name="lslash" unicode="&#x142;" horiz-adv-x="501" 
d="M19 545q-5 6 -3.5 12.5t7.5 11.5l213 180l48 30l209 177q6 5 13 4.5t12 -6.5t4 -12t-8 -12l-221 -187l-47 -29l-203 -172q-13 -11 -24 3zM328 1436v-1352q0 -17 8.5 -27t26.5 -14l61 -10q11 -2 16.5 -6t5.5 -12q0 -6 -6 -10.5t-17 -4.5h-324q-10 0 -15.5 4.5t-5.5 10.5
q0 7 6 11.5t17 7.5l63 9q17 4 26 13.5t9 26.5v1258q0 13 -5 19t-17 7h-87q-10 1 -14 5t-4 9q0 7 4.5 11t15.5 8l168 51q17 6 27 8t16 2q13 0 19 -6.5t6 -18.5z" />
    <glyph glyph-name="Nacute" unicode="&#x143;" horiz-adv-x="1453" 
d="M499 16q0 -7 -6 -11.5t-18 -4.5h-367q-12 0 -18.5 4.5t-6.5 11.5q0 11 22 18l84 23q36 10 50 24t14 46v1041q0 22 -5.5 36.5t-28.5 42.5l-91 118q-7 10 -10 15t-3 9q0 6 5 8.5t13 2.5h129q14 0 24 -7.5t23 -25.5l873 -1179l-24 -37v1122q0 32 -14 46.5t-51 23.5l-113 23
q-21 7 -21 18q0 8 6 12t18 4h367q12 0 18 -4t6 -12q0 -11 -21 -18l-84 -23q-36 -9 -50 -23.5t-14 -46.5v-1087q0 -19 4.5 -31t12.5 -24l64 -86q9 -12 12.5 -19.5t3.5 -12.5q0 -6 -4.5 -9.5t-16.5 -3.5h-138q-24 0 -24 19q0 11 -3.5 19.5t-19.5 28.5l-834 1129l38 24v-1093
q0 -31 14 -45.5t50 -24.5l114 -23q21 -7 21 -18zM847 1654q31 35 56 54t54 13q26 -5 37.5 -24.5t7.5 -39.5q-5 -28 -28.5 -46.5t-56.5 -36.5l-196 -106q-5 -3 -11.5 -3t-10.5 4q-4 5 -1.5 10.5t6.5 10.5z" />
    <glyph glyph-name="nacute" unicode="&#x144;" horiz-adv-x="1082" 
d="M323 883v-799q0 -17 9 -27t26 -14l61 -10q21 -4 21 -17q0 -16 -23 -16h-323q-10 0 -15.5 4.5t-5.5 10.5q0 7 5 11t16 6l65 11q17 4 26 13.5t9 26.5v705q0 13 -5 19t-17 7l-87 1q-9 0 -13.5 4t-4.5 9q0 7 4.5 11t15.5 8l169 52q16 5 26 7t17 2q12 0 18 -6.5t6 -18.5z
M305 696l-21 20l41 36q102 91 174.5 128t142.5 37q107 0 165.5 -71t75.5 -203l73 -551q3 -22 13 -34.5t31 -16.5l53 -9q10 -2 15.5 -6t5.5 -11q0 -6 -5.5 -10.5t-16.5 -4.5h-327q-23 0 -23 16q0 12 21 17l64 10q22 4 32 16.5t7 32.5l-71 534q-16 112 -58.5 166t-122.5 54
q-51 0 -106.5 -28t-123.5 -88zM652 1206q24 43 46.5 66.5t53.5 21.5q28 -2 42 -20.5t12 -40.5q-2 -27 -21.5 -49t-50.5 -45l-174 -143q-5 -3 -11 -3.5t-11 3.5t-3.5 9.5t5.5 11.5z" />
    <glyph glyph-name="Ncommaaccent" unicode="&#x145;" horiz-adv-x="1453" 
d="M499 16q0 -7 -6 -11.5t-18 -4.5h-367q-12 0 -18.5 4.5t-6.5 11.5q0 11 22 18l84 23q36 10 50 24t14 46v1041q0 22 -5.5 36.5t-28.5 42.5l-91 118q-7 10 -10 15t-3 9q0 6 5 8.5t13 2.5h129q14 0 24 -7.5t23 -25.5l873 -1179l-24 -37v1122q0 32 -14 46.5t-51 23.5l-113 23
q-21 7 -21 18q0 8 6 12t18 4h367q12 0 18 -4t6 -12q0 -11 -21 -18l-84 -23q-36 -9 -50 -23.5t-14 -46.5v-1087q0 -19 4.5 -31t12.5 -24l64 -86q9 -12 12.5 -19.5t3.5 -12.5q0 -6 -4.5 -9.5t-16.5 -3.5h-138q-24 0 -24 19q0 11 -3.5 19.5t-19.5 28.5l-834 1129l38 24v-1093
q0 -31 14 -45.5t50 -24.5l114 -23q21 -7 21 -18zM754 -281q-40 0 -59.5 21.5t-19.5 51.5q0 36 23 58t57 22q39 0 63.5 -30.5t24.5 -92.5q0 -77 -41.5 -128t-112.5 -69q-10 -3 -15.5 -1t-8.5 8q-2 6 1 11t12 7q39 11 66.5 31t41.5 44.5t14 46.5q0 20 -19 20h-27z" />
    <glyph glyph-name="ncommaaccent" unicode="&#x146;" horiz-adv-x="1082" 
d="M323 883v-799q0 -17 9 -27t26 -14l61 -10q21 -4 21 -17q0 -16 -23 -16h-323q-10 0 -15.5 4.5t-5.5 10.5q0 7 5 11t16 6l65 11q17 4 26 13.5t9 26.5v705q0 13 -5 19t-17 7l-87 1q-9 0 -13.5 4t-4.5 9q0 7 4.5 11t15.5 8l169 52q16 5 26 7t17 2q12 0 18 -6.5t6 -18.5z
M305 696l-21 20l41 36q102 91 174.5 128t142.5 37q107 0 165.5 -71t75.5 -203l73 -551q3 -22 13 -34.5t31 -16.5l53 -9q10 -2 15.5 -6t5.5 -11q0 -6 -5.5 -10.5t-16.5 -4.5h-327q-23 0 -23 16q0 12 21 17l64 10q22 4 32 16.5t7 32.5l-71 534q-16 112 -58.5 166t-122.5 54
q-51 0 -106.5 -28t-123.5 -88zM582 -281q-40 0 -59.5 21.5t-19.5 51.5q0 36 23 58t57 22q39 0 63.5 -30.5t24.5 -92.5q0 -77 -41.5 -128t-112.5 -69q-10 -3 -15.5 -1t-8.5 8q-2 6 1 11t12 7q39 11 66.5 31t41.5 44.5t14 46.5q0 20 -19 20h-27z" />
    <glyph glyph-name="Ncaron" unicode="&#x147;" horiz-adv-x="1453" 
d="M499 16q0 -7 -6 -11.5t-18 -4.5h-367q-12 0 -18.5 4.5t-6.5 11.5q0 11 22 18l84 23q36 10 50 24t14 46v1041q0 22 -5.5 36.5t-28.5 42.5l-91 118q-7 10 -10 15t-3 9q0 6 5 8.5t13 2.5h129q14 0 24 -7.5t23 -25.5l873 -1179l-24 -37v1122q0 32 -14 46.5t-51 23.5l-113 23
q-21 7 -21 18q0 8 6 12t18 4h367q12 0 18 -4t6 -12q0 -11 -21 -18l-84 -23q-36 -9 -50 -23.5t-14 -46.5v-1087q0 -19 4.5 -31t12.5 -24l64 -86q9 -12 12.5 -19.5t3.5 -12.5q0 -6 -4.5 -9.5t-16.5 -3.5h-138q-24 0 -24 19q0 11 -3.5 19.5t-19.5 28.5l-834 1129l38 24v-1093
q0 -31 14 -45.5t50 -24.5l114 -23q21 -7 21 -18zM753 1571l-225 145q-18 12 -27 4q-4 -3 -4.5 -9.5t6.5 -14.5l184 -201q13 -13 23 -20.5t23 -7.5q14 0 23.5 7.5t21.5 20.5l184 201q7 8 7 14.5t-4 9.5q-10 8 -28 -4l-225 -145h41z" />
    <glyph glyph-name="ncaron" unicode="&#x148;" horiz-adv-x="1082" 
d="M323 883v-799q0 -17 9 -27t26 -14l61 -10q21 -4 21 -17q0 -16 -23 -16h-323q-10 0 -15.5 4.5t-5.5 10.5q0 7 5 11t16 6l65 11q17 4 26 13.5t9 26.5v705q0 13 -5 19t-17 7l-87 1q-9 0 -13.5 4t-4.5 9q0 7 4.5 11t15.5 8l169 52q16 5 26 7t17 2q12 0 18 -6.5t6 -18.5z
M305 696l-21 20l41 36q102 91 174.5 128t142.5 37q107 0 165.5 -71t75.5 -203l73 -551q3 -22 13 -34.5t31 -16.5l53 -9q10 -2 15.5 -6t5.5 -11q0 -6 -5.5 -10.5t-16.5 -4.5h-327q-23 0 -23 16q0 12 21 17l64 10q22 4 32 16.5t7 32.5l-71 534q-16 112 -58.5 166t-122.5 54
q-51 0 -106.5 -28t-123.5 -88zM572 1092l-227 179q-8 6 -15 7.5t-12 -2.5q-4 -3 -4 -9.5t6 -15.5l185 -235q12 -14 22.5 -21t24.5 -7t24 7t21 21l185 235q7 9 7 15.5t-4 9.5q-5 4 -12 2.5t-15 -7.5l-227 -179h41z" />
    <glyph glyph-name="Eng" unicode="&#x14a;" horiz-adv-x="1434" 
d="M1028 145l-752 1045l24 17v-1080q0 -32 14.5 -46.5t49.5 -23.5l114 -23q21 -7 21 -18q0 -7 -6 -11.5t-18 -4.5h-367q-12 0 -18 4.5t-6 11.5q0 11 21 18l84 23q36 10 50 24t14 46v1041q0 27 -4.5 41.5t-22.5 37.5l-87 119q-6 9 -10 14t-4 9q0 6 5 8.5t13 2.5h131
q14 0 22.5 -7t22.5 -25l867 -1215l-24 -15v1135q0 32 -14.5 46.5t-50.5 23.5l-113 23q-22 7 -22 18q0 8 6.5 12t18.5 4h366q13 0 19 -4t6 -12q0 -11 -21 -18l-85 -23q-35 -9 -49.5 -23.5t-14.5 -46.5l1 -1510q0 -108 -57 -160t-146 -52q-70 0 -117 21t-71 55.5t-24 75.5
t19 62.5t52 21.5q30 0 49 -21.5t19 -56.5v-38q0 -43 21.5 -66t64.5 -23q63 0 104 42t41 134q0 74 -7 124.5t-19.5 86t-30 63t-37.5 54t-42 59.5z" />
    <glyph glyph-name="eng" unicode="&#x14b;" horiz-adv-x="1067" 
d="M322 885v-801q0 -18 9 -28t26 -13l62 -10q20 -5 20 -18q0 -15 -21 -15h-324q-9 0 -14.5 4.5t-5.5 10.5q0 7 5 11t15 6l65 11q17 5 26 14t9 26v706q0 13 -5 19t-17 7h-87q-9 1 -13.5 4.5t-4.5 9.5q0 11 20 18l173 52q16 6 25 7.5t16 1.5q11 0 16 -6t5 -17zM787 64v559
q0 114 -55.5 168.5t-145.5 54.5q-55 0 -116 -27t-132 -89l-39 -34l-21 20l43 37q105 93 183 128.5t152 35.5q115 0 187 -70.5t72 -203.5v-556q0 -52 11.5 -97t27.5 -87.5t27.5 -84t11.5 -87.5q0 -83 -56.5 -136.5t-153.5 -53.5q-66 0 -113.5 22t-72.5 59t-25 81q0 42 19 64
t51 22q31 0 49.5 -22t18.5 -57v-39q0 -48 23 -73.5t67 -25.5q55 1 83.5 32.5t28.5 89.5q0 38 -12.5 73.5t-31.5 70t-37.5 70t-31 74.5t-12.5 82z" />
    <glyph glyph-name="Omacron" unicode="&#x14c;" horiz-adv-x="1520" 
d="M763 1426q147 0 269.5 -54.5t212 -153.5t138.5 -232.5t49 -290.5q0 -162 -49.5 -294.5t-140 -228.5t-215 -148t-273.5 -52q-146 0 -268 54.5t-211.5 153.5t-138.5 232.5t-49 292.5q0 161 49.5 293.5t140 228t214 147.5t272.5 52zM1281 608q0 135 -27 252.5t-77.5 212.5
t-120 163t-155 104.5t-182.5 36.5q-141 0 -249.5 -69.5t-170 -200.5t-61.5 -315q0 -136 27 -254t77 -213.5t120 -164t155.5 -105t182.5 -36.5q142 0 250.5 69.5t169.5 201.5t61 318zM525 1575q0 17 7.5 24.5t22.5 7.5h409q16 0 23.5 -7.5t7.5 -24.5q0 -16 -7.5 -24t-23.5 -8
h-409q-15 0 -22.5 8t-7.5 24z" />
    <glyph glyph-name="omacron" unicode="&#x14d;" 
d="M527 917q131 0 232.5 -60t159.5 -166t58 -245q0 -137 -58.5 -242t-161 -165t-236.5 -60q-131 0 -231.5 59.5t-158.5 165t-58 243.5t57.5 243.5t159.5 166t237 60.5zM584 22q93 10 155.5 69t88.5 159t9 234q-16 136 -67 227t-129 133t-175 31q-96 -10 -158 -70t-87 -160
t-8 -233q16 -133 68 -224t130 -134t173 -32zM289 1098q0 17 7.5 24.5t22.5 7.5h412q15 0 22.5 -7.5t7.5 -25.5q0 -16 -7.5 -24t-22.5 -8h-412q-15 0 -22.5 8t-7.5 25z" />
    <glyph glyph-name="Obreve" unicode="&#x14e;" horiz-adv-x="1520" 
d="M763 1426q147 0 269.5 -54.5t212 -153.5t138.5 -232.5t49 -290.5q0 -162 -49.5 -294.5t-140 -228.5t-215 -148t-273.5 -52q-146 0 -268 54.5t-211.5 153.5t-138.5 232.5t-49 292.5q0 161 49.5 293.5t140 228t214 147.5t272.5 52zM1281 608q0 135 -27 252.5t-77.5 212.5
t-120 163t-155 104.5t-182.5 36.5q-141 0 -249.5 -69.5t-170 -200.5t-61.5 -315q0 -136 27 -254t77 -213.5t120 -164t155.5 -105t182.5 -36.5q142 0 250.5 69.5t169.5 201.5t61 318zM759 1564q67 0 112 33.5t67 110.5q3 10 7.5 13t9.5 3q7 0 11.5 -5.5t3.5 -16.5
q-7 -104 -62 -167t-149 -63q-93 0 -148 63t-62 167q-1 11 3.5 16.5t10.5 5.5t10 -3t7 -13q23 -78 68.5 -111t110.5 -33z" />
    <glyph glyph-name="obreve" unicode="&#x14f;" 
d="M527 917q131 0 232.5 -60t159.5 -166t58 -245q0 -137 -58.5 -242t-161 -165t-236.5 -60q-131 0 -231.5 59.5t-158.5 165t-58 243.5t57.5 243.5t159.5 166t237 60.5zM584 22q93 10 155.5 69t88.5 159t9 234q-16 136 -67 227t-129 133t-175 31q-96 -10 -158 -70t-87 -160
t-8 -233q16 -133 68 -224t130 -134t173 -32zM526 1091q67 0 112 35.5t67 114.5q7 17 18 17q7 0 11.5 -5.5t2.5 -17.5q-7 -109 -62 -174t-149 -65t-149.5 65t-62.5 174q-1 12 3.5 17.5t10.5 5.5q12 0 17 -17q24 -80 69.5 -115t111.5 -35z" />
    <glyph glyph-name="Ohungarumlaut" unicode="&#x150;" horiz-adv-x="1520" 
d="M763 1426q147 0 269.5 -54.5t212 -153.5t138.5 -232.5t49 -290.5q0 -162 -49.5 -294.5t-140 -228.5t-215 -148t-273.5 -52q-146 0 -268 54.5t-211.5 153.5t-138.5 232.5t-49 292.5q0 161 49.5 293.5t140 228t214 147.5t272.5 52zM1281 608q0 135 -27 252.5t-77.5 212.5
t-120 163t-155 104.5t-182.5 36.5q-141 0 -249.5 -69.5t-170 -200.5t-61.5 -315q0 -136 27 -254t77 -213.5t120 -164t155.5 -105t182.5 -36.5q142 0 250.5 69.5t169.5 201.5t61 318zM713 1660q22 40 44.5 62.5t52.5 19.5q24 -3 38.5 -19.5t11.5 -40.5q-3 -26 -21.5 -46
t-45.5 -39l-153 -123q-6 -4 -12 -5t-11 3t-4 9.5t5 12.5zM962 1660q23 40 45.5 62.5t52.5 18.5q24 -4 38 -20.5t11 -39.5q-4 -27 -22.5 -46.5t-45.5 -38.5l-153 -122q-7 -4 -13 -5t-11 3q-4 4 -3 9.5t5 12.5z" />
    <glyph glyph-name="ohungarumlaut" unicode="&#x151;" 
d="M527 917q131 0 232.5 -60t159.5 -166t58 -245q0 -137 -58.5 -242t-161 -165t-236.5 -60q-131 0 -231.5 59.5t-158.5 165t-58 243.5t57.5 243.5t159.5 166t237 60.5zM584 22q93 10 155.5 69t88.5 159t9 234q-16 136 -67 227t-129 133t-175 31q-96 -10 -158 -70t-87 -160
t-8 -233q16 -133 68 -224t130 -134t173 -32zM463 1199q18 44 38 70t52 26q25 0 40 -16t14 -38q0 -27 -15 -49t-40 -46l-140 -146q-5 -4 -11 -5.5t-11 1.5q-5 4 -4.5 9.5t3.5 13.5zM709 1200q19 44 39 69.5t50 25.5q26 -1 41 -17t15 -38q-1 -27 -17 -49t-40 -45l-140 -145
q-5 -5 -11.5 -6.5t-11.5 2.5q-4 4 -3.5 9.5t3.5 12.5z" />
    <glyph glyph-name="OE" unicode="&#x152;" horiz-adv-x="1864" 
d="M819 1400h747q24 0 40.5 10t29.5 19.5t25 9.5q10 0 15.5 -6t10.5 -23l76 -287q3 -10 0 -16.5t-12 -8.5q-8 -2 -16 1.5t-13 14.5q-35 78 -64.5 126t-58 74.5t-62 36t-75.5 9.5h-366v-1260q0 -30 20 -45t62 -15h303q59 0 100.5 22t82 89t95.5 203q4 9 10 13t14 3
q10 -1 13.5 -8t0.5 -20l-84 -346q-5 -17 -11.5 -24t-16.5 -7q-13 0 -27 9t-33 17.5t-48 8.5h-784q-218 0 -376.5 88.5t-244 246t-85.5 365.5q0 212 90.5 369t254.5 244t387 87zM249 725q0 -219 70 -372t198.5 -233t303.5 -80h134v1320h-133q-175 0 -304 -75t-199 -217
t-70 -343zM1044 720h342q44 0 69.5 11.5t37.5 40t14 78.5q2 21 17 23q16 3 22 -20l81 -285q6 -21 -11 -26q-16 -3 -26 13q-27 51 -50 78t-51.5 37t-69.5 10h-375v40z" />
    <glyph glyph-name="oe" unicode="&#x153;" horiz-adv-x="1648" 
d="M566 22q85 10 141.5 69t80.5 159.5t8 233.5q-17 136 -65.5 226.5t-121 132.5t-163.5 32q-88 -9 -145.5 -69.5t-81 -161t-6.5 -231.5q17 -134 66.5 -224.5t123.5 -133t163 -33.5zM501 917q136 0 236.5 -77.5t141.5 -203.5l17 -330q-22 -98 -77.5 -171.5t-136 -114.5
t-179.5 -41q-125 0 -222 59.5t-152 165t-55 243.5q0 137 54 243t150.5 166.5t222.5 60.5zM1563 558q0 -23 -15 -34.5t-44 -11.5h-619v31h511q33 0 33 30q0 144 -61.5 226.5t-162.5 82.5q-85 0 -147 -48.5t-95.5 -137t-33.5 -207.5q0 -205 93 -315.5t239 -110.5
q101 0 176 58.5t93 151.5q7 15 17 14q7 0 10.5 -4.5t2.5 -12.5q-9 -83 -56.5 -148.5t-122.5 -104t-168 -38.5q-120 0 -209 55.5t-138 157.5t-49 240q0 137 50.5 247t141.5 174.5t213 64.5q101 0 178 -46t120 -127.5t43 -186.5z" />
    <glyph glyph-name="Racute" unicode="&#x154;" horiz-adv-x="1282" 
d="M1151 926q0 -101 -43 -181t-121 -132t-183 -71q-22 -3 -44 -6.5t-44 -5.5t-46 -2q-65 0 -125.5 9t-112 26.5t-87.5 45.5l9 35q33 -25 81 -41.5t102.5 -24t106.5 -7.5q165 0 260 93.5t95 265.5q0 125 -57 222.5t-162 153t-248 55.5h-136v-1273q0 -17 10 -27t30 -13
l107 -13q13 -2 17.5 -6.5t4.5 -12.5q0 -16 -23 -16h-420q-12 0 -17.5 4.5t-5.5 11.5q0 15 22 19l89 13q20 3 30.5 13t10.5 27v1226q0 16 -10.5 25.5t-30.5 12.5l-89 13q-22 4 -22 19q0 8 5.5 12t17.5 4h411q199 0 336.5 -60.5t209.5 -167.5t72 -246zM701 548l143 18
l297 -458q23 -36 51.5 -50.5t69.5 -21.5q22 -4 29 -8t7 -12q0 -7 -6.5 -11.5t-18.5 -4.5h-349q-24 0 -24 16q0 7 5 10.5t15 5.5l53 7q24 4 26 19.5t-14 41.5zM758 1654q31 35 56 54t54 13q26 -5 37.5 -24.5t7.5 -39.5q-5 -28 -28.5 -46.5t-56.5 -36.5l-196 -106
q-5 -3 -11.5 -3t-10.5 4q-4 5 -1.5 10.5t6.5 10.5z" />
    <glyph glyph-name="racute" unicode="&#x155;" horiz-adv-x="765" 
d="M301 488q0 139 40 235t103 145t131 49q77 0 120 -42t43 -111q0 -45 -20 -69t-51 -24t-49.5 18t-18.5 54v28q0 38 -17 56t-57 18q-48 0 -94.5 -41t-77 -120.5t-30.5 -198.5zM320 882l3 -294v-503q0 -17 9.5 -27t28.5 -12l97 -12q12 -2 18 -6t6 -12q0 -7 -6 -11.5t-18 -4.5
h-362q-11 0 -17 4.5t-6 11.5q0 6 6 10.5t17 7.5l63 9q17 4 26 13.5t9 25.5v707q0 12 -5 18.5t-17 6.5l-87 1q-9 1 -13.5 4.5t-4.5 9.5t4.5 10.5t16.5 7.5l167 50q18 7 28 9t16 2q10 0 15 -6.5t6 -19.5zM524 1206q24 43 46.5 66.5t53.5 21.5q28 -2 42 -20.5t12 -40.5
q-2 -27 -21.5 -49t-50.5 -45l-174 -143q-5 -3 -11 -3.5t-11 3.5t-3.5 9.5t5.5 11.5z" />
    <glyph glyph-name="Rcommaaccent" unicode="&#x156;" horiz-adv-x="1282" 
d="M1151 926q0 -101 -43 -181t-121 -132t-183 -71q-22 -3 -44 -6.5t-44 -5.5t-46 -2q-65 0 -125.5 9t-112 26.5t-87.5 45.5l9 35q33 -25 81 -41.5t102.5 -24t106.5 -7.5q165 0 260 93.5t95 265.5q0 125 -57 222.5t-162 153t-248 55.5h-136v-1273q0 -17 10 -27t30 -13
l107 -13q13 -2 17.5 -6.5t4.5 -12.5q0 -16 -23 -16h-420q-12 0 -17.5 4.5t-5.5 11.5q0 15 22 19l89 13q20 3 30.5 13t10.5 27v1226q0 16 -10.5 25.5t-30.5 12.5l-89 13q-22 4 -22 19q0 8 5.5 12t17.5 4h411q199 0 336.5 -60.5t209.5 -167.5t72 -246zM701 548l143 18
l297 -458q23 -36 51.5 -50.5t69.5 -21.5q22 -4 29 -8t7 -12q0 -7 -6.5 -11.5t-18.5 -4.5h-349q-24 0 -24 16q0 7 5 10.5t15 5.5l53 7q24 4 26 19.5t-14 41.5zM704 -281q-40 0 -59.5 21.5t-19.5 51.5q0 36 23 58t57 22q39 0 63.5 -30.5t24.5 -92.5q0 -77 -41.5 -128
t-112.5 -69q-10 -3 -15.5 -1t-8.5 8q-2 6 1 11t12 7q39 11 66.5 31t41.5 44.5t14 46.5q0 20 -19 20h-27z" />
    <glyph glyph-name="rcommaaccent" unicode="&#x157;" horiz-adv-x="765" 
d="M301 488q0 139 40 235t103 145t131 49q77 0 120 -42t43 -111q0 -45 -20 -69t-51 -24t-49.5 18t-18.5 54v28q0 38 -17 56t-57 18q-48 0 -94.5 -41t-77 -120.5t-30.5 -198.5zM320 882l3 -294v-503q0 -17 9.5 -27t28.5 -12l97 -12q12 -2 18 -6t6 -12q0 -7 -6 -11.5t-18 -4.5
h-362q-11 0 -17 4.5t-6 11.5q0 6 6 10.5t17 7.5l63 9q17 4 26 13.5t9 25.5v707q0 12 -5 18.5t-17 6.5l-87 1q-9 1 -13.5 4.5t-4.5 9.5t4.5 10.5t16.5 7.5l167 50q18 7 28 9t16 2q10 0 15 -6.5t6 -19.5zM275 -281q-40 0 -59.5 21.5t-19.5 51.5q0 36 23 58t57 22
q39 0 63.5 -30.5t24.5 -92.5q0 -77 -41.5 -128t-112.5 -69q-10 -3 -15.5 -1t-8.5 8q-2 6 1 11t12 7q39 11 66.5 31t41.5 44.5t14 46.5q0 20 -19 20h-27z" />
    <glyph glyph-name="Rcaron" unicode="&#x158;" horiz-adv-x="1282" 
d="M1151 926q0 -101 -43 -181t-121 -132t-183 -71q-22 -3 -44 -6.5t-44 -5.5t-46 -2q-65 0 -125.5 9t-112 26.5t-87.5 45.5l9 35q33 -25 81 -41.5t102.5 -24t106.5 -7.5q165 0 260 93.5t95 265.5q0 125 -57 222.5t-162 153t-248 55.5h-136v-1273q0 -17 10 -27t30 -13
l107 -13q13 -2 17.5 -6.5t4.5 -12.5q0 -16 -23 -16h-420q-12 0 -17.5 4.5t-5.5 11.5q0 15 22 19l89 13q20 3 30.5 13t10.5 27v1226q0 16 -10.5 25.5t-30.5 12.5l-89 13q-22 4 -22 19q0 8 5.5 12t17.5 4h411q199 0 336.5 -60.5t209.5 -167.5t72 -246zM701 548l143 18
l297 -458q23 -36 51.5 -50.5t69.5 -21.5q22 -4 29 -8t7 -12q0 -7 -6.5 -11.5t-18.5 -4.5h-349q-24 0 -24 16q0 7 5 10.5t15 5.5l53 7q24 4 26 19.5t-14 41.5zM665 1571l-225 145q-18 12 -27 4q-4 -3 -4.5 -9.5t6.5 -14.5l184 -201q13 -13 23 -20.5t23 -7.5q14 0 23.5 7.5
t21.5 20.5l184 201q7 8 7 14.5t-4 9.5q-10 8 -28 -4l-225 -145h41z" />
    <glyph glyph-name="rcaron" unicode="&#x159;" horiz-adv-x="765" 
d="M301 488q0 139 40 235t103 145t131 49q77 0 120 -42t43 -111q0 -45 -20 -69t-51 -24t-49.5 18t-18.5 54v28q0 38 -17 56t-57 18q-48 0 -94.5 -41t-77 -120.5t-30.5 -198.5zM320 882l3 -294v-503q0 -17 9.5 -27t28.5 -12l97 -12q12 -2 18 -6t6 -12q0 -7 -6 -11.5t-18 -4.5
h-362q-11 0 -17 4.5t-6 11.5q0 6 6 10.5t17 7.5l63 9q17 4 26 13.5t9 25.5v707q0 12 -5 18.5t-17 6.5l-87 1q-9 1 -13.5 4.5t-4.5 9.5t4.5 10.5t16.5 7.5l167 50q18 7 28 9t16 2q10 0 15 -6.5t6 -19.5zM443 1092l-227 179q-8 6 -15 7.5t-12 -2.5q-4 -3 -4 -9.5t6 -15.5
l185 -235q12 -14 22.5 -21t24.5 -7t24 7t21 21l185 235q7 9 7 15.5t-4 9.5q-5 4 -12 2.5t-15 -7.5l-227 -179h41z" />
    <glyph glyph-name="Sacute" unicode="&#x15a;" horiz-adv-x="1113" 
d="M623 -27q-98 0 -164.5 26t-104.5 51.5t-52 25.5q-10 0 -17 -15.5t-14 -36t-14.5 -36t-18.5 -15.5q-8 0 -13.5 5.5t-8.5 16.5l-82 335q-2 9 1 16.5t11 10.5q9 3 16 -1t12 -14q53 -119 123.5 -191t152 -105t167.5 -33q121 0 191 69t70 184q1 68 -29.5 128.5t-109.5 116
t-225 108.5q-147 55 -235.5 118.5t-128 141t-39.5 173.5q0 112 53 195.5t144.5 130t208.5 46.5q98 0 159 -24t95.5 -48.5t51.5 -24.5q15 0 23 24t16.5 48t22.5 24q8 0 13.5 -4.5t9.5 -18.5l100 -351q3 -10 0 -18.5t-12 -11.5q-8 -3 -15.5 0.5t-12.5 13.5q-59 130 -128 206.5
t-149 110t-168 33.5q-127 0 -206.5 -74t-79.5 -204q0 -71 31 -134t108.5 -120t215.5 -110q156 -58 245 -122t126.5 -138t36.5 -162q0 -96 -44 -174.5t-128 -125t-205 -46.5zM669 1658q31 35 56 54t54 13q26 -5 37.5 -24.5t7.5 -39.5q-5 -28 -28.5 -46.5t-56.5 -36.5
l-196 -106q-5 -3 -11.5 -3t-10.5 4q-4 5 -1.5 10.5t6.5 10.5z" />
    <glyph glyph-name="sacute" unicode="&#x15b;" horiz-adv-x="813" 
d="M441 16q82 0 131.5 44.5t49.5 116.5q0 47 -22 83.5t-74.5 66t-145.5 56.5q-114 33 -181 75t-95.5 95.5t-28.5 118.5q0 113 80 180t219 67q58 0 97 -11t63 -22.5t37 -11.5q14 0 26.5 11.5t24 23t21.5 11.5q6 0 11 -4t9 -15l73 -239q5 -12 3 -21.5t-11 -13.5t-16 0t-13 13
q-41 92 -91 145t-107.5 75.5t-122.5 22.5q-99 0 -152 -45.5t-53 -122.5q0 -45 21.5 -82t76.5 -68.5t155 -59.5q106 -29 170.5 -68.5t93.5 -93t29 -123.5q0 -71 -34 -125t-96 -85t-146 -31q-55 0 -93 15t-62.5 30t-39.5 15q-12 0 -22 -14.5t-20 -28.5t-20 -14q-5 0 -10 4
t-7 14l-50 219q-4 20 -3 29.5t10 12.5q9 4 15 -1t13 -18q58 -123 133.5 -174.5t153.5 -51.5zM497 1206q24 43 46.5 66.5t53.5 21.5q28 -2 42 -20.5t12 -40.5q-2 -27 -21.5 -49t-50.5 -45l-174 -143q-5 -3 -11 -3.5t-11 3.5t-3.5 9.5t5.5 11.5z" />
    <glyph glyph-name="Scircumflex" unicode="&#x15c;" horiz-adv-x="1113" 
d="M623 -27q-98 0 -164.5 26t-104.5 51.5t-52 25.5q-10 0 -17 -15.5t-14 -36t-14.5 -36t-18.5 -15.5q-8 0 -13.5 5.5t-8.5 16.5l-82 335q-2 9 1 16.5t11 10.5q9 3 16 -1t12 -14q53 -119 123.5 -191t152 -105t167.5 -33q121 0 191 69t70 184q1 68 -29.5 128.5t-109.5 116
t-225 108.5q-147 55 -235.5 118.5t-128 141t-39.5 173.5q0 112 53 195.5t144.5 130t208.5 46.5q98 0 159 -24t95.5 -48.5t51.5 -24.5q15 0 23 24t16.5 48t22.5 24q8 0 13.5 -4.5t9.5 -18.5l100 -351q3 -10 0 -18.5t-12 -11.5q-8 -3 -15.5 0.5t-12.5 13.5q-59 130 -128 206.5
t-149 110t-168 33.5q-127 0 -206.5 -74t-79.5 -204q0 -71 31 -134t108.5 -120t215.5 -110q156 -58 245 -122t126.5 -138t36.5 -162q0 -96 -44 -174.5t-128 -125t-205 -46.5zM576 1621h-41l225 -145q18 -11 28 -4q4 3 4 9.5t-7 14.5l-184 201q-12 13 -21.5 20.5t-23.5 7.5
q-13 0 -23 -7.5t-23 -20.5l-184 -201q-7 -8 -6.5 -14.5t4.5 -9.5q9 -7 27 4z" />
    <glyph glyph-name="scircumflex" unicode="&#x15d;" horiz-adv-x="813" 
d="M441 16q82 0 131.5 44.5t49.5 116.5q0 47 -22 83.5t-74.5 66t-145.5 56.5q-114 33 -181 75t-95.5 95.5t-28.5 118.5q0 113 80 180t219 67q58 0 97 -11t63 -22.5t37 -11.5q14 0 26.5 11.5t24 23t21.5 11.5q6 0 11 -4t9 -15l73 -239q5 -12 3 -21.5t-11 -13.5t-16 0t-13 13
q-41 92 -91 145t-107.5 75.5t-122.5 22.5q-99 0 -152 -45.5t-53 -122.5q0 -45 21.5 -82t76.5 -68.5t155 -59.5q106 -29 170.5 -68.5t93.5 -93t29 -123.5q0 -71 -34 -125t-96 -85t-146 -31q-55 0 -93 15t-62.5 30t-39.5 15q-12 0 -22 -14.5t-20 -28.5t-20 -14q-5 0 -10 4
t-7 14l-50 219q-4 20 -3 29.5t10 12.5q9 4 15 -1t13 -18q58 -123 133.5 -174.5t153.5 -51.5zM422 1173h-41l227 -179q8 -6 15 -7t12 2q4 4 4 10.5t-7 13.5l-185 236q-11 14 -21 21t-24 7t-24.5 -7t-22.5 -21l-185 -236q-6 -7 -6 -13.5t4 -10.5q5 -3 12 -2t15 7z" />
    <glyph glyph-name="Scedilla" unicode="&#x15e;" horiz-adv-x="1113" 
d="M570 -1h36l-72 -135l-17 9q12 1 23.5 1h27.5q82 0 129.5 -39t47.5 -99q0 -66 -48 -107t-127 -41q-66 0 -111 29.5t-52 72.5q0 10 4 15t10 6q8 1 13 -3t8 -11q10 -40 43 -57.5t72 -17.5q90 0 90 111q0 49 -25 79.5t-74 30.5h-33q-13 0 -16.5 8.5t2.5 19.5zM623 -27
q-98 0 -164.5 26t-104.5 51.5t-52 25.5q-10 0 -17 -15.5t-14 -36t-14.5 -36t-18.5 -15.5q-8 0 -13.5 5.5t-8.5 16.5l-82 335q-2 9 1 16.5t11 10.5q9 3 16 -1t12 -14q53 -119 123.5 -191t152 -105t167.5 -33q121 0 191 69t70 184q1 68 -29.5 128.5t-109.5 116t-225 108.5
q-147 55 -235.5 118.5t-128 141t-39.5 173.5q0 112 53 195.5t144.5 130t208.5 46.5q98 0 159 -24t95.5 -48.5t51.5 -24.5q15 0 23 24t16.5 48t22.5 24q8 0 13.5 -4.5t9.5 -18.5l100 -351q3 -10 0 -18.5t-12 -11.5q-8 -3 -15.5 0.5t-12.5 13.5q-59 130 -128 206.5t-149 110
t-168 33.5q-127 0 -206.5 -74t-79.5 -204q0 -71 31 -134t108.5 -120t215.5 -110q156 -58 245 -122t126.5 -138t36.5 -162q0 -96 -44 -174.5t-128 -125t-205 -46.5z" />
    <glyph glyph-name="scedilla" unicode="&#x15f;" horiz-adv-x="813" 
d="M412 2h37l-74 -138l-18 9q13 1 24 1h27q82 0 130 -39t48 -99q0 -66 -48 -107t-127 -41q-66 0 -111 29.5t-52 72.5q-1 10 3.5 15t10.5 6q7 1 12.5 -3t7.5 -11q11 -40 44 -57.5t71 -17.5q90 0 90 111q0 49 -24.5 79.5t-73.5 30.5h-33q-13 0 -16.5 8.5t2.5 19.5zM441 16
q82 0 131.5 44.5t49.5 116.5q0 47 -22 83.5t-74.5 66t-145.5 56.5q-114 33 -181 75t-95.5 95.5t-28.5 118.5q0 113 80 180t219 67q58 0 97 -11t63 -22.5t37 -11.5q14 0 26.5 11.5t24 23t21.5 11.5q6 0 11 -4t9 -15l73 -239q5 -12 3 -21.5t-11 -13.5t-16 0t-13 13
q-41 92 -91 145t-107.5 75.5t-122.5 22.5q-99 0 -152 -45.5t-53 -122.5q0 -45 21.5 -82t76.5 -68.5t155 -59.5q106 -29 170.5 -68.5t93.5 -93t29 -123.5q0 -71 -34 -125t-96 -85t-146 -31q-55 0 -93 15t-62.5 30t-39.5 15q-12 0 -22 -14.5t-20 -28.5t-20 -14q-5 0 -10 4
t-7 14l-50 219q-4 20 -3 29.5t10 12.5q9 4 15 -1t13 -18q58 -123 133.5 -174.5t153.5 -51.5z" />
    <glyph glyph-name="Scaron" unicode="&#x160;" horiz-adv-x="1113" 
d="M623 -27q-98 0 -164.5 26t-104.5 51.5t-52 25.5q-10 0 -17 -15.5t-14 -36t-14.5 -36t-18.5 -15.5q-8 0 -13.5 5.5t-8.5 16.5l-82 335q-2 9 1 16.5t11 10.5q9 3 16 -1t12 -14q53 -119 123.5 -191t152 -105t167.5 -33q121 0 191 69t70 184q1 68 -29.5 128.5t-109.5 116
t-225 108.5q-147 55 -235.5 118.5t-128 141t-39.5 173.5q0 112 53 195.5t144.5 130t208.5 46.5q98 0 159 -24t95.5 -48.5t51.5 -24.5q15 0 23 24t16.5 48t22.5 24q8 0 13.5 -4.5t9.5 -18.5l100 -351q3 -10 0 -18.5t-12 -11.5q-8 -3 -15.5 0.5t-12.5 13.5q-59 130 -128 206.5
t-149 110t-168 33.5q-127 0 -206.5 -74t-79.5 -204q0 -71 31 -134t108.5 -120t215.5 -110q156 -58 245 -122t126.5 -138t36.5 -162q0 -96 -44 -174.5t-128 -125t-205 -46.5zM576 1575l-225 145q-18 12 -27 4q-4 -3 -4.5 -9.5t6.5 -14.5l184 -201q13 -13 23 -20.5t23 -7.5
q14 0 23.5 7.5t21.5 20.5l184 201q7 8 7 14.5t-4 9.5q-10 8 -28 -4l-225 -145h41z" />
    <glyph glyph-name="scaron" unicode="&#x161;" horiz-adv-x="813" 
d="M441 16q82 0 131.5 44.5t49.5 116.5q0 47 -22 83.5t-74.5 66t-145.5 56.5q-114 33 -181 75t-95.5 95.5t-28.5 118.5q0 113 80 180t219 67q58 0 97 -11t63 -22.5t37 -11.5q14 0 26.5 11.5t24 23t21.5 11.5q6 0 11 -4t9 -15l73 -239q5 -12 3 -21.5t-11 -13.5t-16 0t-13 13
q-41 92 -91 145t-107.5 75.5t-122.5 22.5q-99 0 -152 -45.5t-53 -122.5q0 -45 21.5 -82t76.5 -68.5t155 -59.5q106 -29 170.5 -68.5t93.5 -93t29 -123.5q0 -71 -34 -125t-96 -85t-146 -31q-55 0 -93 15t-62.5 30t-39.5 15q-12 0 -22 -14.5t-20 -28.5t-20 -14q-5 0 -10 4
t-7 14l-50 219q-4 20 -3 29.5t10 12.5q9 4 15 -1t13 -18q58 -123 133.5 -174.5t153.5 -51.5zM421 1092l-227 179q-8 6 -15 7.5t-12 -2.5q-4 -3 -4 -9.5t6 -15.5l185 -235q12 -14 22.5 -21t24.5 -7t24 7t21 21l185 235q7 9 7 15.5t-4 9.5q-5 4 -12 2.5t-15 -7.5l-227 -179h41
z" />
    <glyph glyph-name="Tcedilla" unicode="&#x162;" horiz-adv-x="1230" 
d="M235 1400h752q24 0 39.5 9.5t27.5 19t23 9.5t18 -6t11 -23l67 -314q3 -13 -0.5 -21t-12.5 -10q-9 -1 -16 3.5t-12 15.5q-43 121 -78 180t-74 78t-95 19h-198v-1274q0 -16 10.5 -25.5t31.5 -12.5l89 -13q21 -4 21 -19q0 -16 -23 -16h-403q-11 0 -17 4.5t-6 11.5
q0 15 22 19l89 13q20 3 30.5 12.5t10.5 25.5v1274h-198q-57 0 -96 -20t-73 -79.5t-77 -177.5q-4 -11 -11.5 -15.5t-16.5 -3.5q-10 2 -13 10t0 21l66 314q5 17 12 23t17 6q12 0 22 -9.5t24 -19t37 -9.5zM612 6h36l-75 -142l-18 9q13 1 24 1h27q82 0 129.5 -39t47.5 -99
q0 -66 -47.5 -107t-126.5 -41q-67 0 -111.5 29.5t-51.5 72.5q-1 10 3.5 15t10.5 6q7 1 12 -3t8 -11q11 -40 43.5 -57.5t71.5 -17.5q90 0 90 111q0 49 -24.5 79.5t-74.5 30.5h-32q-14 0 -17 8.5t2 19.5z" />
    <glyph glyph-name="tcedilla" unicode="&#x163;" horiz-adv-x="604" 
d="M145 850l-78 14q-16 4 -21.5 9t-5.5 11q0 7 5 11t14 4h80q21 0 32 5.5t16 20.5l71 155q7 13 13.5 18.5t15.5 5.5q8 0 13 -5.5t5 -14.5v-892q0 -70 29.5 -105.5t81.5 -35.5q29 0 48 7.5t32.5 20t24 25.5t21.5 24q6 2 10.5 -2t3.5 -14q-8 -35 -32.5 -64t-62.5 -45.5
t-88 -16.5q-89 0 -142.5 46t-53.5 141v638q0 16 -7 25.5t-25 13.5zM243 860l1 39h285q11 0 16.5 -4t5.5 -12q0 -10 -11 -16.5t-33 -6.5h-264zM328 6h36l-75 -142l-18 9q13 1 24 1h27q82 0 129.5 -39t47.5 -99q0 -66 -47.5 -107t-126.5 -41q-67 0 -111.5 29.5t-51.5 72.5
q-1 10 3.5 15t10.5 6q7 1 12 -3t8 -11q11 -40 43.5 -57.5t71.5 -17.5q90 0 90 111q0 49 -24.5 79.5t-74.5 30.5h-32q-14 0 -17 8.5t2 19.5z" />
    <glyph glyph-name="Tcaron" unicode="&#x164;" horiz-adv-x="1230" 
d="M235 1400h752q24 0 39.5 9.5t27.5 19t23 9.5t18 -6t11 -23l67 -314q3 -13 -0.5 -21t-12.5 -10q-9 -1 -16 3.5t-12 15.5q-43 121 -78 180t-74 78t-95 19h-198v-1274q0 -16 10.5 -25.5t31.5 -12.5l89 -13q21 -4 21 -19q0 -16 -23 -16h-403q-11 0 -17 4.5t-6 11.5
q0 15 22 19l89 13q20 3 30.5 12.5t10.5 25.5v1274h-198q-57 0 -96 -20t-73 -79.5t-77 -177.5q-4 -11 -11.5 -15.5t-16.5 -3.5q-10 2 -13 10t0 21l66 314q5 17 12 23t17 6q12 0 22 -9.5t24 -19t37 -9.5zM635 1571l-225 145q-18 12 -27 4q-4 -3 -4.5 -9.5t6.5 -14.5l184 -201
q13 -13 23 -20.5t23 -7.5q14 0 23.5 7.5t21.5 20.5l184 201q7 8 7 14.5t-4 9.5q-10 8 -28 -4l-225 -145h41z" />
    <glyph glyph-name="tcaron" unicode="&#x165;" horiz-adv-x="604" 
d="M145 850l-78 14q-16 4 -21.5 9t-5.5 11q0 7 5 11t14 4h80q21 0 32 5.5t16 20.5l71 155q7 13 13.5 18.5t15.5 5.5q8 0 13 -5.5t5 -14.5v-892q0 -70 29.5 -105.5t81.5 -35.5q29 0 48 7.5t32.5 20t24 25.5t21.5 24q6 2 10.5 -2t3.5 -14q-8 -35 -32.5 -64t-62.5 -45.5
t-88 -16.5q-89 0 -142.5 46t-53.5 141v638q0 16 -7 25.5t-25 13.5zM243 860l1 39h285q11 0 16.5 -4t5.5 -12q0 -10 -11 -16.5t-33 -6.5h-264zM432 1227q4 53 16.5 83t45.5 35q26 3 44.5 -10.5t21.5 -36.5q4 -23 -5 -47.5t-24 -51.5l-90 -186q-3 -6 -8 -8.5t-11 -1.5
q-6 3 -6.5 8.5t-0.5 12.5z" />
    <glyph glyph-name="Tbar" unicode="&#x166;" horiz-adv-x="1230" 
d="M230 704q0 7 5 11.5t14 4.5h727q10 0 14.5 -4.5t4.5 -11.5q0 -8 -4.5 -12.5t-14.5 -4.5h-727q-9 0 -14 4.5t-5 12.5zM235 1400h752q24 0 39.5 9.5t27.5 19t23 9.5t18 -6t11 -23l67 -314q3 -13 -0.5 -21t-12.5 -10q-9 -1 -16 3.5t-12 15.5q-43 121 -78 180t-74 78t-95 19
h-198v-1274q0 -16 10.5 -25.5t31.5 -12.5l89 -13q21 -4 21 -19q0 -16 -23 -16h-403q-11 0 -17 4.5t-6 11.5q0 15 22 19l89 13q20 3 30.5 12.5t10.5 25.5v1274h-198q-57 0 -96 -20t-73 -79.5t-77 -177.5q-4 -11 -11.5 -15.5t-16.5 -3.5q-10 2 -13 10t0 21l66 314q5 17 12 23
t17 6q12 0 22 -9.5t24 -19t37 -9.5z" />
    <glyph glyph-name="tbar" unicode="&#x167;" horiz-adv-x="603" 
d="M40 493q0 8 5.5 13t13.5 5h472q19 0 19 -18q0 -7 -5.5 -11.5t-13.5 -4.5h-472q-19 0 -19 16zM145 847l-78 15q-16 4 -21.5 8.5t-5.5 11.5t5 10.5t14 3.5h80q20 0 31.5 6t16.5 20l69 154q5 12 12 18t16 6t14.5 -5.5t5.5 -14.5v-892q0 -70 29.5 -105.5t81.5 -35.5
q38 0 60.5 12t37.5 29.5t28 32.5q6 3 10 -0.5t3 -12.5q-8 -36 -32 -64.5t-62 -45t-86 -16.5q-90 0 -143.5 46t-53.5 141v639q0 17 -7 26t-25 13zM243 858l1 38h284q12 0 17.5 -4t5.5 -12q0 -10 -10.5 -16t-31.5 -6h-266z" />
    <glyph glyph-name="Utilde" unicode="&#x168;" horiz-adv-x="1390" 
d="M1134 582l-36 697q-2 27 -16.5 43.5t-52.5 24.5l-92 19q-15 3 -20 7.5t-5 10.5q0 7 6.5 11.5t17.5 4.5h354q11 0 17 -4.5t6 -11.5t-5.5 -11.5t-21.5 -7.5l-79 -19q-33 -7 -47.5 -25.5t-12.5 -43.5l35 -693q3 -51 6 -101t4 -102q3 -117 -48 -210t-156.5 -147t-266.5 -54
q-172 0 -288 51t-173.5 141.5t-55.5 207.5q1 30 3 76.5t4.5 95.5t4.5 88l36 678q1 21 -12 31t-40 14l-82 13q-25 5 -25 18q0 7 6.5 11.5t18.5 4.5h413q12 0 18 -4.5t6 -11.5t-5 -11.5t-20 -6.5l-82 -13q-26 -3 -37.5 -13t-13.5 -33l-35 -671q-4 -76 -6 -138t-3 -111
q-3 -182 100.5 -275.5t293.5 -93.5q125 0 214 44t136.5 125t45.5 191q-2 63 -4.5 113t-4.5 91zM838 1482q-37 0 -67.5 15t-58 34.5t-54 34.5t-54.5 15q-62 0 -64 -87q-2 -20 -18 -20q-18 0 -18 24q0 86 32 128.5t91 42.5q37 0 67.5 -15t58 -35t54 -35t55.5 -15q62 0 64 87
q2 21 18 21q18 0 18 -24q0 -86 -32 -128.5t-92 -42.5z" />
    <glyph glyph-name="utilde" unicode="&#x169;" horiz-adv-x="1069" 
d="M768 64v97l-2 6v621q0 12 -4.5 18.5t-16.5 6.5l-87 1q-10 1 -14 4.5t-4 8.5q0 7 4.5 11t15.5 8l168 52q16 5 26 7.5t17 2.5q13 0 18.5 -7t5.5 -19v-798q0 -17 9 -27t26 -14l62 -10q11 -2 16.5 -6t5.5 -12q0 -6 -6 -10.5t-17 -4.5h-167q-27 0 -41.5 15.5t-14.5 48.5z
M176 259v529q0 12 -5 18.5t-18 6.5l-86 1q-10 1 -14.5 4.5t-4.5 8.5q0 7 4.5 11t16.5 8l169 52q16 6 26 8t16 2q13 0 19 -7t6 -19v-606q0 -113 55 -167.5t144 -54.5q55 0 115.5 27t130.5 88l39 35l20 -20l-40 -36q-105 -94 -182.5 -130t-152.5 -36q-114 0 -186 71.5
t-72 205.5zM632 1006q-37 0 -68 16t-58.5 37.5t-54.5 37.5t-56 16q-31 0 -47 -24t-17 -69q-2 -21 -18 -21q-17 0 -17 25q0 89 32 133.5t92 44.5q37 0 67.5 -16.5t58 -37.5t54.5 -37t56 -16q32 0 47.5 24t16.5 70q2 20 18 20q18 0 18 -24q0 -90 -32.5 -134.5t-91.5 -44.5z
" />
    <glyph glyph-name="Umacron" unicode="&#x16a;" horiz-adv-x="1390" 
d="M1134 582l-36 697q-2 27 -16.5 43.5t-52.5 24.5l-92 19q-15 3 -20 7.5t-5 10.5q0 7 6.5 11.5t17.5 4.5h354q11 0 17 -4.5t6 -11.5t-5.5 -11.5t-21.5 -7.5l-79 -19q-33 -7 -47.5 -25.5t-12.5 -43.5l35 -693q3 -51 6 -101t4 -102q3 -117 -48 -210t-156.5 -147t-266.5 -54
q-172 0 -288 51t-173.5 141.5t-55.5 207.5q1 30 3 76.5t4.5 95.5t4.5 88l36 678q1 21 -12 31t-40 14l-82 13q-25 5 -25 18q0 7 6.5 11.5t18.5 4.5h413q12 0 18 -4.5t6 -11.5t-5 -11.5t-20 -6.5l-82 -13q-26 -3 -37.5 -13t-13.5 -33l-35 -671q-4 -76 -6 -138t-3 -111
q-3 -182 100.5 -275.5t293.5 -93.5q125 0 214 44t136.5 125t45.5 191q-2 63 -4.5 113t-4.5 91zM498 1571q0 17 7.5 24.5t22.5 7.5h409q16 0 23.5 -7.5t7.5 -24.5q0 -16 -7.5 -24t-23.5 -8h-409q-15 0 -22.5 8t-7.5 24z" />
    <glyph glyph-name="umacron" unicode="&#x16b;" horiz-adv-x="1069" 
d="M768 64v97l-2 6v621q0 12 -4.5 18.5t-16.5 6.5l-87 1q-10 1 -14 4.5t-4 8.5q0 7 4.5 11t15.5 8l168 52q16 5 26 7.5t17 2.5q13 0 18.5 -7t5.5 -19v-798q0 -17 9 -27t26 -14l62 -10q11 -2 16.5 -6t5.5 -12q0 -6 -6 -10.5t-17 -4.5h-167q-27 0 -41.5 15.5t-14.5 48.5z
M176 259v529q0 12 -5 18.5t-18 6.5l-86 1q-10 1 -14.5 4.5t-4.5 8.5q0 7 4.5 11t16.5 8l169 52q16 6 26 8t16 2q13 0 19 -7t6 -19v-606q0 -113 55 -167.5t144 -54.5q55 0 115.5 27t130.5 88l39 35l20 -20l-40 -36q-105 -94 -182.5 -130t-152.5 -36q-114 0 -186 71.5
t-72 205.5zM284 1098q0 17 7.5 24.5t22.5 7.5h412q15 0 22.5 -7.5t7.5 -25.5q0 -16 -7.5 -24t-22.5 -8h-412q-15 0 -22.5 8t-7.5 25z" />
    <glyph glyph-name="Ubreve" unicode="&#x16c;" horiz-adv-x="1390" 
d="M1134 582l-36 697q-2 27 -16.5 43.5t-52.5 24.5l-92 19q-15 3 -20 7.5t-5 10.5q0 7 6.5 11.5t17.5 4.5h354q11 0 17 -4.5t6 -11.5t-5.5 -11.5t-21.5 -7.5l-79 -19q-33 -7 -47.5 -25.5t-12.5 -43.5l35 -693q3 -51 6 -101t4 -102q3 -117 -48 -210t-156.5 -147t-266.5 -54
q-172 0 -288 51t-173.5 141.5t-55.5 207.5q1 30 3 76.5t4.5 95.5t4.5 88l36 678q1 21 -12 31t-40 14l-82 13q-25 5 -25 18q0 7 6.5 11.5t18.5 4.5h413q12 0 18 -4.5t6 -11.5t-5 -11.5t-20 -6.5l-82 -13q-26 -3 -37.5 -13t-13.5 -33l-35 -671q-4 -76 -6 -138t-3 -111
q-3 -182 100.5 -275.5t293.5 -93.5q125 0 214 44t136.5 125t45.5 191q-2 63 -4.5 113t-4.5 91zM732 1560q67 0 112 33.5t67 110.5q3 10 7.5 13t9.5 3q7 0 11.5 -5.5t3.5 -16.5q-7 -104 -62 -167t-149 -63q-93 0 -148 63t-62 167q-1 11 3.5 16.5t10.5 5.5t10 -3t7 -13
q23 -78 68.5 -111t110.5 -33z" />
    </font>
</defs>
</svg>
